<svg xmlns="http://www.w3.org/2000/svg" xmlns:xlink="http://www.w3.org/1999/xlink" fill="none" version="1.1" width="60" height="60" viewBox="0 0 60 60"><g><g><g><rect x="1" y="1" width="58" height="58" rx="3" fill-opacity="0" stroke-opacity="1" stroke="#0871F0" fill="none" stroke-width="2"/></g><g><path d="M18.6669921875,29.9999259765625L18.6669921875,21.9999559765625L24.6669921875,21.9999559765625L24.6669921875,20.6666259765625C24.6669921875,18.4574859765625,26.457852187500002,16.6666259765625,28.6669921875,16.6666259765625C30.8760921875,16.6666259765625,32.6669921875,18.4574859765625,32.6669921875,20.6666259765625L32.6669921875,21.9999559765625L38.6669921875,21.9999559765625L38.6669921875,29.9999259765625L41.3336921875,29.9999259765625C43.5427921875,29.9999259765625,45.3336921875,31.790825976562502,45.3336921875,33.9999259765625C45.3336921875,36.209125976562504,43.5427921875,37.9999259765625,41.3336921875,37.9999259765625L38.6669921875,37.9999259765625L38.6669921875,43.3333259765625L18.6669921875,43.3333259765625L18.6669921875,37.9999259765625L21.3336621875,37.9999259765625C23.5428021875,37.9999259765625,25.3336621875,36.209125976562504,25.3336621875,33.9999259765625C25.3336621875,31.790825976562502,23.5428021875,29.9999259765625,21.3336621875,29.9999259765625L18.6669921875,29.9999259765625Z" fill="#0871F0" fill-opacity="1"/></g></g></g></svg>