<svg xmlns="http://www.w3.org/2000/svg" xmlns:xlink="http://www.w3.org/1999/xlink" fill="none" version="1.1" width="448" height="78" viewBox="0 0 448 78"><g><path d="M12.631,13.067C12.631,9.514,10.03,7.015,6.681,7.015C3.349,7.015,0.731,9.514,0.731,13.067C0.731,16.62,3.349,19.119,6.681,19.119C10.03,19.119,12.631,16.62,12.631,13.067ZM2.312,13.067C2.312,10.16,4.182,8.358,6.681,8.358C9.18,8.358,11.05,10.16,11.05,13.067C11.05,15.957,9.18,17.776,6.681,17.776C4.182,17.776,2.312,15.957,2.312,13.067ZM22.933,9.684L21.386,9.684L21.386,14.801C21.386,16.807,20.315,17.793,18.717,17.793C17.153,17.793,16.116,16.824,16.116,14.937L16.116,9.684L14.586,9.684L14.586,15.141C14.586,17.81,16.269,19.136,18.411,19.136C19.652,19.136,20.791,18.592,21.386,17.623L21.386,19L22.933,19L22.933,9.684ZM27.098,13.934C27.098,11.775,28.22,11.112,29.699,11.112L30.107,11.112L30.107,9.514C28.628,9.514,27.625,10.16,27.098,11.197L27.098,9.684L25.551,9.684L25.551,19L27.098,19L27.098,13.934ZM40.868,17.368L37.145,7.151L35.496,7.151L39.967,19L41.752,19L46.223,7.151L44.591,7.151L40.868,17.368ZM47.923,19L49.47,19L49.47,9.684L47.923,9.684L47.923,19ZM48.722,8.171C49.283,8.171,49.742,7.712,49.742,7.117C49.742,6.522,49.283,6.063,48.722,6.063C48.127,6.063,47.668,6.522,47.668,7.117C47.668,7.712,48.127,8.171,48.722,8.171ZM58.803,16.467C58.735,13.135,53.329,14.342,53.329,12.132C53.329,11.384,54.009,10.84,55.148,10.84C56.389,10.84,57.103,11.52,57.171,12.455L58.718,12.455C58.616,10.636,57.256,9.531,55.199,9.531C53.125,9.531,51.782,10.704,51.782,12.132C51.782,15.6,57.29,14.393,57.29,16.467C57.29,17.232,56.61,17.844,55.386,17.844C54.077,17.844,53.278,17.164,53.193,16.263L51.595,16.263C51.697,17.963,53.227,19.153,55.403,19.153C57.46,19.153,58.803,17.997,58.803,16.467ZM60.979,19L62.526,19L62.526,9.684L60.979,9.684L60.979,19ZM61.778,8.171C62.339,8.171,62.798,7.712,62.798,7.117C62.798,6.522,62.339,6.063,61.778,6.063C61.183,6.063,60.724,6.522,60.724,7.117C60.724,7.712,61.183,8.171,61.778,8.171ZM74.001,14.325C74.001,11.384,71.944,9.531,69.292,9.531C66.657,9.531,64.583,11.384,64.583,14.325C64.583,17.283,66.589,19.153,69.224,19.153C71.876,19.153,74.001,17.283,74.001,14.325ZM66.164,14.325C66.164,11.979,67.643,10.874,69.275,10.874C70.873,10.874,72.42,11.979,72.42,14.325C72.42,16.688,70.839,17.793,69.224,17.793C67.609,17.793,66.164,16.688,66.164,14.325ZM82.858,19L84.388,19L84.388,13.509C84.388,10.84,82.739,9.514,80.58,9.514C79.322,9.514,78.2,10.041,77.588,11.01L77.588,9.684L76.041,9.684L76.041,19L77.588,19L77.588,13.849C77.588,11.843,78.676,10.857,80.257,10.857C81.821,10.857,82.858,11.826,82.858,13.73L82.858,19ZM91.46,19L93.007,19L93.007,9.684L91.46,9.684L91.46,19ZM92.259,8.171C92.82,8.171,93.279,7.712,93.279,7.117C93.279,6.522,92.82,6.063,92.259,6.063C91.664,6.063,91.205,6.522,91.205,7.117C91.205,7.712,91.664,8.171,92.259,8.171ZM102.34,16.467C102.272,13.135,96.866,14.342,96.866,12.132C96.866,11.384,97.546,10.84,98.685,10.84C99.926,10.84,100.64,11.52,100.708,12.455L102.255,12.455C102.153,10.636,100.793,9.531,98.736,9.531C96.662,9.531,95.319,10.704,95.319,12.132C95.319,15.6,100.827,14.393,100.827,16.467C100.827,17.232,100.147,17.844,98.923,17.844C97.614,17.844,96.815,17.164,96.73,16.263L95.132,16.263C95.234,17.963,96.764,19.153,98.94,19.153C100.997,19.153,102.34,17.997,102.34,16.467ZM109.395,16.45C109.395,18.32,110.33,19,111.979,19L113.373,19L113.373,17.691L112.234,17.691C111.282,17.691,110.942,17.368,110.942,16.45L110.942,10.959L113.373,10.959L113.373,9.684L110.942,9.684L110.942,7.338L109.395,7.338L109.395,9.684L108.188,9.684L108.188,10.959L109.395,10.959L109.395,16.45ZM124.083,14.325C124.083,11.384,122.026,9.531,119.374,9.531C116.739,9.531,114.665,11.384,114.665,14.325C114.665,17.283,116.671,19.153,119.306,19.153C121.958,19.153,124.083,17.283,124.083,14.325ZM116.246,14.325C116.246,11.979,117.725,10.874,119.357,10.874C120.955,10.874,122.502,11.979,122.502,14.325C122.502,16.688,120.921,17.793,119.306,17.793C117.691,17.793,116.246,16.688,116.246,14.325ZM132.209,11.401L132.209,9.684L130.662,9.684L130.662,23.42L132.209,23.42L132.209,17.283C132.787,18.235,133.994,19.153,135.694,19.153C138.193,19.153,140.114,17.198,140.114,14.308C140.114,11.401,138.193,9.531,135.694,9.531C133.994,9.531,132.77,10.415,132.209,11.401ZM138.533,14.308C138.533,16.501,137.088,17.793,135.371,17.793C133.688,17.793,132.209,16.518,132.209,14.325C132.209,12.166,133.688,10.874,135.371,10.874C137.088,10.874,138.533,12.115,138.533,14.308ZM143.701,13.934C143.701,11.775,144.823,11.112,146.302,11.112L146.71,11.112L146.71,9.514C145.231,9.514,144.228,10.16,143.701,11.197L143.701,9.684L142.154,9.684L142.154,19L143.701,19L143.701,13.934ZM157.335,14.325C157.335,11.384,155.278,9.531,152.626,9.531C149.991,9.531,147.917,11.384,147.917,14.325C147.917,17.283,149.923,19.153,152.558,19.153C155.21,19.153,157.335,17.283,157.335,14.325ZM149.498,14.325C149.498,11.979,150.977,10.874,152.609,10.874C154.207,10.874,155.754,11.979,155.754,14.325C155.754,16.688,154.173,17.793,152.558,17.793C150.943,17.793,149.498,16.688,149.498,14.325ZM158.27,9.684L161.925,19L163.727,19L167.382,9.684L165.733,9.684L162.843,17.572L159.936,9.684L158.27,9.684ZM168.912,19L170.459,19L170.459,9.684L168.912,9.684L168.912,19ZM169.711,8.171C170.272,8.171,170.731,7.712,170.731,7.117C170.731,6.522,170.272,6.063,169.711,6.063C169.116,6.063,168.657,6.522,168.657,7.117C168.657,7.712,169.116,8.171,169.711,8.171ZM172.516,14.308C172.516,17.198,174.437,19.153,176.936,19.153C178.636,19.153,179.843,18.286,180.404,17.249L180.404,19L181.968,19L181.968,6.42L180.404,6.42L180.404,11.35C179.758,10.279,178.415,9.531,176.953,9.531C174.437,9.531,172.516,11.401,172.516,14.308ZM180.404,14.325C180.404,16.518,178.942,17.793,177.242,17.793C175.542,17.793,174.097,16.501,174.097,14.308C174.097,12.115,175.542,10.874,177.242,10.874C178.942,10.874,180.404,12.166,180.404,14.325ZM188.547,10.84C190.145,10.84,191.505,11.843,191.488,13.662L185.606,13.662C185.776,11.843,187.034,10.84,188.547,10.84ZM192.899,16.127L191.233,16.127C190.893,17.13,190.009,17.844,188.615,17.844C187.034,17.844,185.708,16.807,185.589,14.92L193.035,14.92C193.069,14.597,193.086,14.325,193.086,13.985C193.086,11.435,191.318,9.531,188.615,9.531C185.895,9.531,184.008,11.384,184.008,14.325C184.008,17.283,185.963,19.153,188.615,19.153C190.927,19.153,192.423,17.827,192.899,16.127ZM199.087,14.308C199.087,17.198,201.008,19.153,203.507,19.153C205.207,19.153,206.414,18.286,206.975,17.249L206.975,19L208.539,19L208.539,6.42L206.975,6.42L206.975,11.35C206.329,10.279,204.986,9.531,203.524,9.531C201.008,9.531,199.087,11.401,199.087,14.308ZM206.975,14.325C206.975,16.518,205.513,17.793,203.813,17.793C202.113,17.793,200.668,16.501,200.668,14.308C200.668,12.115,202.113,10.874,203.813,10.874C205.513,10.874,206.975,12.166,206.975,14.325ZM215.118,10.84C216.716,10.84,218.076,11.843,218.059,13.662L212.177,13.662C212.347,11.843,213.605,10.84,215.118,10.84ZM219.47,16.127L217.804,16.127C217.464,17.13,216.58,17.844,215.186,17.844C213.605,17.844,212.279,16.807,212.16,14.92L219.606,14.92C219.64,14.597,219.657,14.325,219.657,13.985C219.657,11.435,217.889,9.531,215.186,9.531C212.466,9.531,210.579,11.384,210.579,14.325C210.579,17.283,212.534,19.153,215.186,19.153C217.498,19.153,218.994,17.827,219.47,16.127ZM220.592,9.684L224.247,19L226.049,19L229.704,9.684L228.055,9.684L225.165,17.572L222.258,9.684L220.592,9.684ZM235.195,10.84C236.793,10.84,238.153,11.843,238.136,13.662L232.254,13.662C232.424,11.843,233.682,10.84,235.195,10.84ZM239.547,16.127L237.881,16.127C237.541,17.13,236.657,17.844,235.263,17.844C233.682,17.844,232.356,16.807,232.237,14.92L239.683,14.92C239.717,14.597,239.734,14.325,239.734,13.985C239.734,11.435,237.966,9.531,235.263,9.531C232.543,9.531,230.656,11.384,230.656,14.325C230.656,17.283,232.611,19.153,235.263,19.153C237.575,19.153,239.071,17.827,239.547,16.127ZM241.774,19L243.321,19L243.321,6.42L241.774,6.42L241.774,19ZM254.796,14.325C254.796,11.384,252.739,9.531,250.087,9.531C247.452,9.531,245.378,11.384,245.378,14.325C245.378,17.283,247.384,19.153,250.019,19.153C252.671,19.153,254.796,17.283,254.796,14.325ZM246.959,14.325C246.959,11.979,248.438,10.874,250.07,10.874C251.668,10.874,253.215,11.979,253.215,14.325C253.215,16.688,251.634,17.793,250.019,17.793C248.404,17.793,246.959,16.688,246.959,14.325ZM258.383,11.401L258.383,9.684L256.836,9.684L256.836,23.42L258.383,23.42L258.383,17.283C258.961,18.235,260.168,19.153,261.868,19.153C264.367,19.153,266.288,17.198,266.288,14.308C266.288,11.401,264.367,9.531,261.868,9.531C260.168,9.531,258.944,10.415,258.383,11.401ZM264.707,14.308C264.707,16.501,263.262,17.793,261.545,17.793C259.862,17.793,258.383,16.518,258.383,14.325C258.383,12.166,259.862,10.874,261.545,10.874C263.262,10.874,264.707,12.115,264.707,14.308ZM281.775,19L283.305,19L283.305,13.509C283.305,10.84,281.656,9.514,279.531,9.514C278.103,9.514,276.777,10.245,276.233,11.588C275.621,10.194,274.346,9.514,272.816,9.514C271.592,9.514,270.487,10.041,269.875,11.027L269.875,9.684L268.328,9.684L268.328,19L269.875,19L269.875,13.866C269.875,11.86,270.946,10.857,272.51,10.857C274.04,10.857,275.06,11.826,275.06,13.73L275.06,19L276.59,19L276.59,13.866C276.59,11.86,277.661,10.857,279.225,10.857C280.755,10.857,281.775,11.826,281.775,13.73L281.775,19ZM289.799,10.84C291.397,10.84,292.757,11.843,292.74,13.662L286.858,13.662C287.028,11.843,288.286,10.84,289.799,10.84ZM294.151,16.127L292.485,16.127C292.145,17.13,291.261,17.844,289.867,17.844C288.286,17.844,286.96,16.807,286.841,14.92L294.287,14.92C294.321,14.597,294.338,14.325,294.338,13.985C294.338,11.435,292.57,9.531,289.867,9.531C287.147,9.531,285.26,11.384,285.26,14.325C285.26,17.283,287.215,19.153,289.867,19.153C292.179,19.153,293.675,17.827,294.151,16.127ZM303.195,19L304.725,19L304.725,13.509C304.725,10.84,303.076,9.514,300.917,9.514C299.659,9.514,298.537,10.041,297.925,11.01L297.925,9.684L296.378,9.684L296.378,19L297.925,19L297.925,13.849C297.925,11.843,299.013,10.857,300.594,10.857C302.158,10.857,303.195,11.826,303.195,13.73L303.195,19ZM307.598,16.45C307.598,18.32,308.533,19,310.182,19L311.576,19L311.576,17.691L310.437,17.691C309.485,17.691,309.145,17.368,309.145,16.45L309.145,10.959L311.576,10.959L311.576,9.684L309.145,9.684L309.145,7.338L307.598,7.338L307.598,9.684L306.391,9.684L306.391,10.959L307.598,10.959L307.598,16.45ZM318.325,16.45C318.325,18.32,319.26,19,320.909,19L322.303,19L322.303,17.691L321.164,17.691C320.212,17.691,319.872,17.368,319.872,16.45L319.872,10.959L322.303,10.959L322.303,9.684L319.872,9.684L319.872,7.338L318.325,7.338L318.325,9.684L317.118,9.684L317.118,10.959L318.325,10.959L318.325,16.45ZM328.134,10.84C329.732,10.84,331.092,11.843,331.075,13.662L325.193,13.662C325.363,11.843,326.621,10.84,328.134,10.84ZM332.486,16.127L330.82,16.127C330.48,17.13,329.596,17.844,328.202,17.844C326.621,17.844,325.295,16.807,325.176,14.92L332.622,14.92C332.656,14.597,332.673,14.325,332.673,13.985C332.673,11.435,330.905,9.531,328.202,9.531C325.482,9.531,323.595,11.384,323.595,14.325C323.595,17.283,325.55,19.153,328.202,19.153C330.514,19.153,332.01,17.827,332.486,16.127ZM334.135,14.308C334.135,17.198,336.056,19.153,338.538,19.153C340.255,19.153,341.462,18.269,342.023,17.266L342.023,19L343.587,19L343.587,9.684L342.023,9.684L342.023,11.384C341.479,10.415,340.289,9.531,338.555,9.531C336.056,9.531,334.135,11.401,334.135,14.308ZM342.023,14.325C342.023,16.518,340.561,17.793,338.861,17.793C337.161,17.793,335.716,16.501,335.716,14.308C335.716,12.115,337.161,10.874,338.861,10.874C340.561,10.874,342.023,12.166,342.023,14.325ZM359.652,19L361.182,19L361.182,13.509C361.182,10.84,359.533,9.514,357.408,9.514C355.98,9.514,354.654,10.245,354.11,11.588C353.498,10.194,352.223,9.514,350.693,9.514C349.469,9.514,348.364,10.041,347.752,11.027L347.752,9.684L346.205,9.684L346.205,19L347.752,19L347.752,13.866C347.752,11.86,348.823,10.857,350.387,10.857C351.917,10.857,352.937,11.826,352.937,13.73L352.937,19L354.467,19L354.467,13.866C354.467,11.86,355.538,10.857,357.102,10.857C358.632,10.857,359.652,11.826,359.652,13.73L359.652,19ZM370.413,16.467C370.345,13.135,364.939,14.342,364.939,12.132C364.939,11.384,365.619,10.84,366.758,10.84C367.999,10.84,368.713,11.52,368.781,12.455L370.328,12.455C370.226,10.636,368.866,9.531,366.809,9.531C364.735,9.531,363.392,10.704,363.392,12.132C363.392,15.6,368.9,14.393,368.9,16.467C368.9,17.232,368.22,17.844,366.996,17.844C365.687,17.844,364.888,17.164,364.803,16.263L363.205,16.263C363.307,17.963,364.837,19.153,367.013,19.153C369.07,19.153,370.413,17.997,370.413,16.467ZM378.947,19L380.545,19L382.789,11.605L385.033,19L386.631,19L389.538,9.684L388.008,9.684L385.9,17.521L383.639,9.684L382.058,9.684L379.746,17.504L377.604,9.684L376.023,9.684L378.947,19ZM391.068,19L392.615,19L392.615,9.684L391.068,9.684L391.068,19ZM391.867,8.171C392.428,8.171,392.887,7.712,392.887,7.117C392.887,6.522,392.428,6.063,391.867,6.063C391.272,6.063,390.813,6.522,390.813,7.117C390.813,7.712,391.272,8.171,391.867,8.171ZM395.59,16.45C395.59,18.32,396.525,19,398.174,19L399.568,19L399.568,17.691L398.429,17.691C397.477,17.691,397.137,17.368,397.137,16.45L397.137,10.959L399.568,10.959L399.568,9.684L397.137,9.684L397.137,7.338L395.59,7.338L395.59,9.684L394.383,9.684L394.383,10.959L395.59,10.959L395.59,16.45ZM401.438,19L402.985,19L402.985,13.849C402.985,11.843,404.073,10.857,405.654,10.857C407.218,10.857,408.255,11.826,408.255,13.73L408.255,19L409.785,19L409.785,13.509C409.785,10.84,408.136,9.514,406.062,9.514C404.753,9.514,403.597,10.041,402.985,11.027L402.985,6.42L401.438,6.42L401.438,19ZM416.279,14.308C416.279,17.198,418.2,19.153,420.682,19.153C422.399,19.153,423.606,18.269,424.167,17.266L424.167,19L425.731,19L425.731,9.684L424.167,9.684L424.167,11.384C423.623,10.415,422.433,9.531,420.699,9.531C418.2,9.531,416.279,11.401,416.279,14.308ZM424.167,14.325C424.167,16.518,422.705,17.793,421.005,17.793C419.305,17.793,417.86,16.501,417.86,14.308C417.86,12.115,419.305,10.874,421.005,10.874C422.705,10.874,424.167,12.166,424.167,14.325ZM8.126,45L9.656,45L9.656,39.509C9.656,36.84,8.007,35.514,5.848,35.514C4.59,35.514,3.468,36.041,2.856,37.01L2.856,35.684L1.309,35.684L1.309,45L2.856,45L2.856,39.849C2.856,37.843,3.944,36.857,5.525,36.857C7.089,36.857,8.126,37.826,8.126,39.73L8.126,45ZM16.15,36.84C17.748,36.84,19.108,37.843,19.091,39.662L13.209,39.662C13.379,37.843,14.637,36.84,16.15,36.84ZM20.502,42.127L18.836,42.127C18.496,43.13,17.612,43.844,16.218,43.844C14.637,43.844,13.311,42.807,13.192,40.92L20.638,40.92C20.672,40.597,20.689,40.325,20.689,39.985C20.689,37.435,18.921,35.531,16.218,35.531C13.498,35.531,11.611,37.384,11.611,40.325C11.611,43.283,13.566,45.153,16.218,45.153C18.53,45.153,20.026,43.827,20.502,42.127ZM24.548,45L26.146,45L28.39,37.605L30.634,45L32.232,45L35.139,35.684L33.609,35.684L31.501,43.521L29.24,35.684L27.659,35.684L25.347,43.504L23.205,35.684L21.624,35.684L24.548,45ZM40.63,40.308C40.63,43.198,42.551,45.153,45.05,45.153C46.75,45.153,47.957,44.286,48.518,43.249L48.518,45L50.082,45L50.082,32.42L48.518,32.42L48.518,37.35C47.872,36.279,46.529,35.531,45.067,35.531C42.551,35.531,40.63,37.401,40.63,40.308ZM48.518,40.325C48.518,42.518,47.056,43.793,45.356,43.793C43.656,43.793,42.211,42.501,42.211,40.308C42.211,38.115,43.656,36.874,45.356,36.874C47.056,36.874,48.518,38.166,48.518,40.325ZM56.661,36.84C58.259,36.84,59.619,37.843,59.602,39.662L53.72,39.662C53.89,37.843,55.148,36.84,56.661,36.84ZM61.013,42.127L59.347,42.127C59.007,43.13,58.123,43.844,56.729,43.844C55.148,43.844,53.822,42.807,53.703,40.92L61.149,40.92C61.183,40.597,61.2,40.325,61.2,39.985C61.2,37.435,59.432,35.531,56.729,35.531C54.009,35.531,52.122,37.384,52.122,40.325C52.122,43.283,54.077,45.153,56.729,45.153C59.041,45.153,60.537,43.827,61.013,42.127ZM62.135,35.684L65.79,45L67.592,45L71.247,35.684L69.598,35.684L66.708,43.572L63.801,35.684L62.135,35.684ZM76.738,36.84C78.336,36.84,79.696,37.843,79.679,39.662L73.797,39.662C73.967,37.843,75.225,36.84,76.738,36.84ZM81.09,42.127L79.424,42.127C79.084,43.13,78.2,43.844,76.806,43.844C75.225,43.844,73.899,42.807,73.78,40.92L81.226,40.92C81.26,40.597,81.277,40.325,81.277,39.985C81.277,37.435,79.509,35.531,76.806,35.531C74.086,35.531,72.199,37.384,72.199,40.325C72.199,43.283,74.154,45.153,76.806,45.153C79.118,45.153,80.614,43.827,81.09,42.127ZM83.317,45L84.864,45L84.864,32.42L83.317,32.42L83.317,45ZM96.339,40.325C96.339,37.384,94.282,35.531,91.63,35.531C88.995,35.531,86.921,37.384,86.921,40.325C86.921,43.283,88.927,45.153,91.562,45.153C94.214,45.153,96.339,43.283,96.339,40.325ZM88.502,40.325C88.502,37.979,89.981,36.874,91.613,36.874C93.211,36.874,94.758,37.979,94.758,40.325C94.758,42.688,93.177,43.793,91.562,43.793C89.947,43.793,88.502,42.688,88.502,40.325ZM99.926,37.401L99.926,35.684L98.379,35.684L98.379,49.42L99.926,49.42L99.926,43.283C100.504,44.235,101.711,45.153,103.411,45.153C105.91,45.153,107.831,43.198,107.831,40.308C107.831,37.401,105.91,35.531,103.411,35.531C101.711,35.531,100.487,36.415,99.926,37.401ZM106.25,40.308C106.25,42.501,104.805,43.793,103.088,43.793C101.405,43.793,99.926,42.518,99.926,40.325C99.926,38.166,101.405,36.874,103.088,36.874C104.805,36.874,106.25,38.115,106.25,40.308ZM123.318,45L124.848,45L124.848,39.509C124.848,36.84,123.199,35.514,121.074,35.514C119.646,35.514,118.32,36.245,117.776,37.588C117.164,36.194,115.889,35.514,114.359,35.514C113.135,35.514,112.03,36.041,111.418,37.027L111.418,35.684L109.871,35.684L109.871,45L111.418,45L111.418,39.866C111.418,37.86,112.489,36.857,114.053,36.857C115.583,36.857,116.603,37.826,116.603,39.73L116.603,45L118.133,45L118.133,39.866C118.133,37.86,119.204,36.857,120.768,36.857C122.298,36.857,123.318,37.826,123.318,39.73L123.318,45ZM131.342,36.84C132.94,36.84,134.3,37.843,134.283,39.662L128.401,39.662C128.571,37.843,129.829,36.84,131.342,36.84ZM135.694,42.127L134.028,42.127C133.688,43.13,132.804,43.844,131.41,43.844C129.829,43.844,128.503,42.807,128.384,40.92L135.83,40.92C135.864,40.597,135.881,40.325,135.881,39.985C135.881,37.435,134.113,35.531,131.41,35.531C128.69,35.531,126.803,37.384,126.803,40.325C126.803,43.283,128.758,45.153,131.41,45.153C133.722,45.153,135.218,43.827,135.694,42.127ZM144.738,45L146.268,45L146.268,39.509C146.268,36.84,144.619,35.514,142.46,35.514C141.202,35.514,140.08,36.041,139.468,37.01L139.468,35.684L137.921,35.684L137.921,45L139.468,45L139.468,39.849C139.468,37.843,140.556,36.857,142.137,36.857C143.701,36.857,144.738,37.826,144.738,39.73L144.738,45ZM149.141,42.45C149.141,44.32,150.076,45,151.725,45L153.119,45L153.119,43.691L151.98,43.691C151.028,43.691,150.688,43.368,150.688,42.45L150.688,36.959L153.119,36.959L153.119,35.684L150.688,35.684L150.688,33.338L149.141,33.338L149.141,35.684L147.934,35.684L147.934,36.959L149.141,36.959L149.141,42.45ZM159.868,42.45C159.868,44.32,160.803,45,162.452,45L163.846,45L163.846,43.691L162.707,43.691C161.755,43.691,161.415,43.368,161.415,42.45L161.415,36.959L163.846,36.959L163.846,35.684L161.415,35.684L161.415,33.338L159.868,33.338L159.868,35.684L158.661,35.684L158.661,36.959L159.868,36.959L159.868,42.45ZM174.556,40.325C174.556,37.384,172.499,35.531,169.847,35.531C167.212,35.531,165.138,37.384,165.138,40.325C165.138,43.283,167.144,45.153,169.779,45.153C172.431,45.153,174.556,43.283,174.556,40.325ZM166.719,40.325C166.719,37.979,168.198,36.874,169.83,36.874C171.428,36.874,172.975,37.979,172.975,40.325C172.975,42.688,171.394,43.793,169.779,43.793C168.164,43.793,166.719,42.688,166.719,40.325ZM185.436,40.325C185.436,37.384,183.379,35.531,180.727,35.531C178.092,35.531,176.018,37.384,176.018,40.325C176.018,43.283,178.024,45.153,180.659,45.153C183.311,45.153,185.436,43.283,185.436,40.325ZM177.599,40.325C177.599,37.979,179.078,36.874,180.71,36.874C182.308,36.874,183.855,37.979,183.855,40.325C183.855,42.688,182.274,43.793,180.659,43.793C179.044,43.793,177.599,42.688,177.599,40.325ZM187.476,45L189.023,45L189.023,32.42L187.476,32.42L187.476,45ZM196.537,42.45C196.537,44.32,197.472,45,199.121,45L200.515,45L200.515,43.691L199.376,43.691C198.424,43.691,198.084,43.368,198.084,42.45L198.084,36.959L200.515,36.959L200.515,35.684L198.084,35.684L198.084,33.338L196.537,33.338L196.537,35.684L195.33,35.684L195.33,36.959L196.537,36.959L196.537,42.45ZM202.385,45L203.932,45L203.932,39.849C203.932,37.843,205.02,36.857,206.601,36.857C208.165,36.857,209.202,37.826,209.202,39.73L209.202,45L210.732,45L210.732,39.509C210.732,36.84,209.083,35.514,207.009,35.514C205.7,35.514,204.544,36.041,203.932,37.027L203.932,32.42L202.385,32.42L202.385,45ZM212.687,40.308C212.687,43.198,214.608,45.153,217.09,45.153C218.807,45.153,220.014,44.269,220.575,43.266L220.575,45L222.139,45L222.139,35.684L220.575,35.684L220.575,37.384C220.031,36.415,218.841,35.531,217.107,35.531C214.608,35.531,212.687,37.401,212.687,40.308ZM220.575,40.325C220.575,42.518,219.113,43.793,217.413,43.793C215.713,43.793,214.268,42.501,214.268,40.308C214.268,38.115,215.713,36.874,217.413,36.874C219.113,36.874,220.575,38.166,220.575,40.325ZM225.097,42.45C225.097,44.32,226.032,45,227.681,45L229.075,45L229.075,43.691L227.936,43.691C226.984,43.691,226.644,43.368,226.644,42.45L226.644,36.959L229.075,36.959L229.075,35.684L226.644,35.684L226.644,33.338L225.097,33.338L225.097,35.684L223.89,35.684L223.89,36.959L225.097,36.959L225.097,42.45ZM234.906,40.325C234.906,43.283,236.793,45.153,239.445,45.153C241.757,45.153,243.27,43.861,243.746,42.008L242.08,42.008C241.74,43.181,240.822,43.844,239.445,43.844C237.745,43.844,236.487,42.637,236.487,40.325C236.487,38.047,237.745,36.84,239.445,36.84C240.822,36.84,241.757,37.554,242.08,38.676L243.746,38.676C243.27,36.721,241.757,35.531,239.445,35.531C236.793,35.531,234.906,37.401,234.906,40.325ZM245.225,40.308C245.225,43.198,247.146,45.153,249.628,45.153C251.345,45.153,252.552,44.269,253.113,43.266L253.113,45L254.677,45L254.677,35.684L253.113,35.684L253.113,37.384C252.569,36.415,251.379,35.531,249.645,35.531C247.146,35.531,245.225,37.401,245.225,40.308ZM253.113,40.325C253.113,42.518,251.651,43.793,249.951,43.793C248.251,43.793,246.806,42.501,246.806,40.308C246.806,38.115,248.251,36.874,249.951,36.874C251.651,36.874,253.113,38.166,253.113,40.325ZM264.112,45L265.642,45L265.642,39.509C265.642,36.84,263.993,35.514,261.834,35.514C260.576,35.514,259.454,36.041,258.842,37.01L258.842,35.684L257.295,35.684L257.295,45L258.842,45L258.842,39.849C258.842,37.843,259.93,36.857,261.511,36.857C263.075,36.857,264.112,37.826,264.112,39.73L264.112,45ZM274.261,37.418L274.261,32.42L272.714,32.42L272.714,45L274.261,45L274.261,43.283C274.839,44.303,276.046,45.153,277.746,45.153C280.245,45.153,282.166,43.198,282.166,40.308C282.166,37.401,280.262,35.531,277.746,35.531C276.097,35.531,274.856,36.381,274.261,37.418ZM280.585,40.308C280.585,42.501,279.14,43.793,277.423,43.793C275.74,43.793,274.261,42.518,274.261,40.325C274.261,38.166,275.74,36.874,277.423,36.874C279.14,36.874,280.585,38.115,280.585,40.308ZM288.167,36.84C289.765,36.84,291.125,37.843,291.108,39.662L285.226,39.662C285.396,37.843,286.654,36.84,288.167,36.84ZM292.519,42.127L290.853,42.127C290.513,43.13,289.629,43.844,288.235,43.844C286.654,43.844,285.328,42.807,285.209,40.92L292.655,40.92C292.689,40.597,292.706,40.325,292.706,39.985C292.706,37.435,290.938,35.531,288.235,35.531C285.515,35.531,283.628,37.384,283.628,40.325C283.628,43.283,285.583,45.153,288.235,45.153C290.547,45.153,292.043,43.827,292.519,42.127ZM307.547,35.684L306,35.684L306,40.801C306,42.807,304.929,43.793,303.331,43.793C301.767,43.793,300.73,42.824,300.73,40.937L300.73,35.684L299.2,35.684L299.2,41.141C299.2,43.81,300.883,45.136,303.025,45.136C304.266,45.136,305.405,44.592,306,43.623L306,45L307.547,45L307.547,35.684ZM316.863,42.467C316.795,39.135,311.389,40.342,311.389,38.132C311.389,37.384,312.069,36.84,313.208,36.84C314.449,36.84,315.163,37.52,315.231,38.455L316.778,38.455C316.676,36.636,315.316,35.531,313.259,35.531C311.185,35.531,309.842,36.704,309.842,38.132C309.842,41.6,315.35,40.393,315.35,42.467C315.35,43.232,314.67,43.844,313.446,43.844C312.137,43.844,311.338,43.164,311.253,42.263L309.655,42.263C309.757,43.963,311.287,45.153,313.463,45.153C315.52,45.153,316.863,43.997,316.863,42.467ZM323,36.84C324.598,36.84,325.958,37.843,325.941,39.662L320.059,39.662C320.229,37.843,321.487,36.84,323,36.84ZM327.352,42.127L325.686,42.127C325.346,43.13,324.462,43.844,323.068,43.844C321.487,43.844,320.161,42.807,320.042,40.92L327.488,40.92C327.522,40.597,327.539,40.325,327.539,39.985C327.539,37.435,325.771,35.531,323.068,35.531C320.348,35.531,318.461,37.384,318.461,40.325C318.461,43.283,320.416,45.153,323.068,45.153C325.38,45.153,326.876,43.827,327.352,42.127ZM329.001,40.308C329.001,43.198,330.922,45.153,333.421,45.153C335.121,45.153,336.328,44.286,336.889,43.249L336.889,45L338.453,45L338.453,32.42L336.889,32.42L336.889,37.35C336.243,36.279,334.9,35.531,333.438,35.531C330.922,35.531,329.001,37.401,329.001,40.308ZM336.889,40.325C336.889,42.518,335.427,43.793,333.727,43.793C332.027,43.793,330.582,42.501,330.582,40.308C330.582,38.115,332.027,36.874,333.727,36.874C335.427,36.874,336.889,38.166,336.889,40.325ZM345.95,42.45C345.95,44.32,346.885,45,348.534,45L349.928,45L349.928,43.691L348.789,43.691C347.837,43.691,347.497,43.368,347.497,42.45L347.497,36.959L349.928,36.959L349.928,35.684L347.497,35.684L347.497,33.338L345.95,33.338L345.95,35.684L344.743,35.684L344.743,36.959L345.95,36.959L345.95,42.45ZM360.638,40.325C360.638,37.384,358.581,35.531,355.929,35.531C353.294,35.531,351.22,37.384,351.22,40.325C351.22,43.283,353.226,45.153,355.861,45.153C358.513,45.153,360.638,43.283,360.638,40.325ZM352.801,40.325C352.801,37.979,354.28,36.874,355.912,36.874C357.51,36.874,359.057,37.979,359.057,40.325C359.057,42.688,357.476,43.793,355.861,43.793C354.246,43.793,352.801,42.688,352.801,40.325ZM367.217,45L368.764,45L368.764,35.684L367.217,35.684L367.217,45ZM368.016,34.171C368.577,34.171,369.036,33.712,369.036,33.117C369.036,32.522,368.577,32.063,368.016,32.063C367.421,32.063,366.962,32.522,366.962,33.117C366.962,33.712,367.421,34.171,368.016,34.171ZM384.846,45L386.376,45L386.376,39.509C386.376,36.84,384.727,35.514,382.602,35.514C381.174,35.514,379.848,36.245,379.304,37.588C378.692,36.194,377.417,35.514,375.887,35.514C374.663,35.514,373.558,36.041,372.946,37.027L372.946,35.684L371.399,35.684L371.399,45L372.946,45L372.946,39.866C372.946,37.86,374.017,36.857,375.581,36.857C377.111,36.857,378.131,37.826,378.131,39.73L378.131,45L379.661,45L379.661,39.866C379.661,37.86,380.732,36.857,382.296,36.857C383.826,36.857,384.846,37.826,384.846,39.73L384.846,45ZM390.456,37.401L390.456,35.684L388.909,35.684L388.909,49.42L390.456,49.42L390.456,43.283C391.034,44.235,392.241,45.153,393.941,45.153C396.44,45.153,398.361,43.198,398.361,40.308C398.361,37.401,396.44,35.531,393.941,35.531C392.241,35.531,391.017,36.415,390.456,37.401ZM396.78,40.308C396.78,42.501,395.335,43.793,393.618,43.793C391.935,43.793,390.456,42.518,390.456,40.325C390.456,38.166,391.935,36.874,393.618,36.874C395.335,36.874,396.78,38.115,396.78,40.308ZM401.948,39.934C401.948,37.775,403.07,37.112,404.549,37.112L404.957,37.112L404.957,35.514C403.478,35.514,402.475,36.16,401.948,37.197L401.948,35.684L400.401,35.684L400.401,45L401.948,45L401.948,39.934ZM415.582,40.325C415.582,37.384,413.525,35.531,410.873,35.531C408.238,35.531,406.164,37.384,406.164,40.325C406.164,43.283,408.17,45.153,410.805,45.153C413.457,45.153,415.582,43.283,415.582,40.325ZM407.745,40.325C407.745,37.979,409.224,36.874,410.856,36.874C412.454,36.874,414.001,37.979,414.001,40.325C414.001,42.688,412.42,43.793,410.805,43.793C409.19,43.793,407.745,42.688,407.745,40.325ZM416.517,35.684L420.172,45L421.974,45L425.629,35.684L423.98,35.684L421.09,43.572L418.183,35.684L416.517,35.684ZM431.12,36.84C432.718,36.84,434.078,37.843,434.061,39.662L428.179,39.662C428.349,37.843,429.607,36.84,431.12,36.84ZM435.472,42.127L433.806,42.127C433.466,43.13,432.582,43.844,431.188,43.844C429.607,43.844,428.281,42.807,428.162,40.92L435.608,40.92C435.642,40.597,435.659,40.325,435.659,39.985C435.659,37.435,433.891,35.531,431.188,35.531C428.468,35.531,426.581,37.384,426.581,40.325C426.581,43.283,428.536,45.153,431.188,45.153C433.5,45.153,434.996,43.827,435.472,42.127ZM1.649,68.45C1.649,70.32,2.584,71,4.233,71L5.627,71L5.627,69.691L4.488,69.691C3.536,69.691,3.196,69.368,3.196,68.45L3.196,62.959L5.627,62.959L5.627,61.684L3.196,61.684L3.196,59.338L1.649,59.338L1.649,61.684L0.442,61.684L0.442,62.959L1.649,62.959L1.649,68.45ZM7.497,71L9.044,71L9.044,65.849C9.044,63.843,10.132,62.857,11.713,62.857C13.277,62.857,14.314,63.826,14.314,65.73L14.314,71L15.844,71L15.844,65.509C15.844,62.84,14.195,61.514,12.121,61.514C10.812,61.514,9.656,62.041,9.044,63.027L9.044,58.42L7.497,58.42L7.497,71ZM22.338,62.84C23.936,62.84,25.296,63.843,25.279,65.662L19.397,65.662C19.567,63.843,20.825,62.84,22.338,62.84ZM26.69,68.127L25.024,68.127C24.684,69.13,23.8,69.844,22.406,69.844C20.825,69.844,19.499,68.807,19.38,66.92L26.826,66.92C26.86,66.597,26.877,66.325,26.877,65.985C26.877,63.435,25.109,61.531,22.406,61.531C19.686,61.531,17.799,63.384,17.799,66.325C17.799,69.283,19.754,71.153,22.406,71.153C24.718,71.153,26.214,69.827,26.69,68.127ZM37.417,62.84C39.015,62.84,40.375,63.843,40.358,65.662L34.476,65.662C34.646,63.843,35.904,62.84,37.417,62.84ZM41.769,68.127L40.103,68.127C39.763,69.13,38.879,69.844,37.485,69.844C35.904,69.844,34.578,68.807,34.459,66.92L41.905,66.92C41.939,66.597,41.956,66.325,41.956,65.985C41.956,63.435,40.188,61.531,37.485,61.531C34.765,61.531,32.878,63.384,32.878,66.325C32.878,69.283,34.833,71.153,37.485,71.153C39.797,71.153,41.293,69.827,41.769,68.127ZM44.285,71L45.832,71L45.832,62.959L47.787,62.959L47.787,61.684L45.832,61.684L45.832,61.021C45.832,59.814,46.291,59.304,47.685,59.304L47.685,58.012C45.305,58.012,44.285,58.947,44.285,61.021L44.285,61.684L43.078,61.684L43.078,62.959L44.285,62.959L44.285,71ZM49.878,71L51.425,71L51.425,62.959L53.38,62.959L53.38,61.684L51.425,61.684L51.425,61.021C51.425,59.814,51.884,59.304,53.278,59.304L53.278,58.012C50.898,58.012,49.878,58.947,49.878,61.021L49.878,61.684L48.671,61.684L48.671,62.959L49.878,62.959L49.878,71ZM55.182,71L56.729,71L56.729,61.684L55.182,61.684L55.182,71ZM55.981,60.171C56.542,60.171,57.001,59.712,57.001,59.117C57.001,58.522,56.542,58.063,55.981,58.063C55.386,58.063,54.927,58.522,54.927,59.117C54.927,59.712,55.386,60.171,55.981,60.171ZM58.786,66.325C58.786,69.283,60.673,71.153,63.325,71.153C65.637,71.153,67.15,69.861,67.626,68.008L65.96,68.008C65.62,69.181,64.702,69.844,63.325,69.844C61.625,69.844,60.367,68.637,60.367,66.325C60.367,64.047,61.625,62.84,63.325,62.84C64.702,62.84,65.637,63.554,65.96,64.676L67.626,64.676C67.15,62.721,65.637,61.531,63.325,61.531C60.673,61.531,58.786,63.401,58.786,66.325ZM69.683,71L71.23,71L71.23,61.684L69.683,61.684L69.683,71ZM70.482,60.171C71.043,60.171,71.502,59.712,71.502,59.117C71.502,58.522,71.043,58.063,70.482,58.063C69.887,58.063,69.428,58.522,69.428,59.117C69.428,59.712,69.887,60.171,70.482,60.171ZM77.826,62.84C79.424,62.84,80.784,63.843,80.767,65.662L74.885,65.662C75.055,63.843,76.313,62.84,77.826,62.84ZM82.178,68.127L80.512,68.127C80.172,69.13,79.288,69.844,77.894,69.844C76.313,69.844,74.987,68.807,74.868,66.92L82.314,66.92C82.348,66.597,82.365,66.325,82.365,65.985C82.365,63.435,80.597,61.531,77.894,61.531C75.174,61.531,73.287,63.384,73.287,66.325C73.287,69.283,75.242,71.153,77.894,71.153C80.206,71.153,81.702,69.827,82.178,68.127ZM91.222,71L92.752,71L92.752,65.509C92.752,62.84,91.103,61.514,88.944,61.514C87.686,61.514,86.564,62.041,85.952,63.01L85.952,61.684L84.405,61.684L84.405,71L85.952,71L85.952,65.849C85.952,63.843,87.04,62.857,88.621,62.857C90.185,62.857,91.222,63.826,91.222,65.73L91.222,71ZM94.707,66.325C94.707,69.283,96.594,71.153,99.246,71.153C101.558,71.153,103.071,69.861,103.547,68.008L101.881,68.008C101.541,69.181,100.623,69.844,99.246,69.844C97.546,69.844,96.288,68.637,96.288,66.325C96.288,64.047,97.546,62.84,99.246,62.84C100.623,62.84,101.558,63.554,101.881,64.676L103.547,64.676C103.071,62.721,101.558,61.531,99.246,61.531C96.594,61.531,94.707,63.401,94.707,66.325ZM109.14,69.232L106.216,61.684L104.499,61.684L108.256,70.898L106.42,75.386L108.018,75.386L113.628,61.684L112.03,61.684L109.14,69.232ZM128.554,66.325C128.554,63.384,126.497,61.531,123.845,61.531C121.21,61.531,119.136,63.384,119.136,66.325C119.136,69.283,121.142,71.153,123.777,71.153C126.429,71.153,128.554,69.283,128.554,66.325ZM120.717,66.325C120.717,63.979,122.196,62.874,123.828,62.874C125.426,62.874,126.973,63.979,126.973,66.325C126.973,68.688,125.392,69.793,123.777,69.793C122.162,69.793,120.717,68.688,120.717,66.325ZM130.883,71L132.43,71L132.43,62.959L134.385,62.959L134.385,61.684L132.43,61.684L132.43,61.021C132.43,59.814,132.889,59.304,134.283,59.304L134.283,58.012C131.903,58.012,130.883,58.947,130.883,61.021L130.883,61.684L129.676,61.684L129.676,62.959L130.883,62.959L130.883,71ZM140.148,66.308C140.148,69.198,142.069,71.153,144.568,71.153C146.268,71.153,147.475,70.286,148.036,69.249L148.036,71L149.6,71L149.6,58.42L148.036,58.42L148.036,63.35C147.39,62.279,146.047,61.531,144.585,61.531C142.069,61.531,140.148,63.401,140.148,66.308ZM148.036,66.325C148.036,68.518,146.574,69.793,144.874,69.793C143.174,69.793,141.729,68.501,141.729,66.308C141.729,64.115,143.174,62.874,144.874,62.874C146.574,62.874,148.036,64.166,148.036,66.325ZM156.179,62.84C157.777,62.84,159.137,63.843,159.12,65.662L153.238,65.662C153.408,63.843,154.666,62.84,156.179,62.84ZM160.531,68.127L158.865,68.127C158.525,69.13,157.641,69.844,156.247,69.844C154.666,69.844,153.34,68.807,153.221,66.92L160.667,66.92C160.701,66.597,160.718,66.325,160.718,65.985C160.718,63.435,158.95,61.531,156.247,61.531C153.527,61.531,151.64,63.384,151.64,66.325C151.64,69.283,153.595,71.153,156.247,71.153C158.559,71.153,160.055,69.827,160.531,68.127ZM162.758,71L164.305,71L164.305,58.42L162.758,58.42L162.758,71ZM166.94,71L168.487,71L168.487,61.684L166.94,61.684L166.94,71ZM167.739,60.171C168.3,60.171,168.759,59.712,168.759,59.117C168.759,58.522,168.3,58.063,167.739,58.063C167.144,58.063,166.685,58.522,166.685,59.117C166.685,59.712,167.144,60.171,167.739,60.171ZM170.017,61.684L173.672,71L175.474,71L179.129,61.684L177.48,61.684L174.59,69.572L171.683,61.684L170.017,61.684ZM184.62,62.84C186.218,62.84,187.578,63.843,187.561,65.662L181.679,65.662C181.849,63.843,183.107,62.84,184.62,62.84ZM188.972,68.127L187.306,68.127C186.966,69.13,186.082,69.844,184.688,69.844C183.107,69.844,181.781,68.807,181.662,66.92L189.108,66.92C189.142,66.597,189.159,66.325,189.159,65.985C189.159,63.435,187.391,61.531,184.688,61.531C181.968,61.531,180.081,63.384,180.081,66.325C180.081,69.283,182.036,71.153,184.688,71.153C187,71.153,188.496,69.827,188.972,68.127ZM192.746,65.934C192.746,63.775,193.868,63.112,195.347,63.112L195.755,63.112L195.755,61.514C194.276,61.514,193.273,62.16,192.746,63.197L192.746,61.684L191.199,61.684L191.199,71L192.746,71L192.746,65.934ZM197.54,71L199.087,71L199.087,61.684L197.54,61.684L197.54,71ZM198.339,60.171C198.9,60.171,199.359,59.712,199.359,59.117C199.359,58.522,198.9,58.063,198.339,58.063C197.744,58.063,197.285,58.522,197.285,59.117C197.285,59.712,197.744,60.171,198.339,60.171ZM208.539,71L210.069,71L210.069,65.509C210.069,62.84,208.42,61.514,206.261,61.514C205.003,61.514,203.881,62.041,203.269,63.01L203.269,61.684L201.722,61.684L201.722,71L203.269,71L203.269,65.849C203.269,63.843,204.357,62.857,205.938,62.857C207.502,62.857,208.539,63.826,208.539,65.73L208.539,71ZM212.024,66.308C212.024,69.198,213.945,71.153,216.444,71.153C218.144,71.153,219.351,70.252,219.912,69.249L219.912,71.204C219.912,73.193,218.671,74.247,217.022,74.247C215.492,74.247,214.387,73.482,214.047,72.36L212.517,72.36C212.823,74.349,214.574,75.59,217.022,75.59C219.759,75.59,221.476,73.771,221.476,71.204L221.476,61.684L219.912,61.684L219.912,63.384C219.368,62.381,218.144,61.531,216.444,61.531C213.945,61.531,212.024,63.401,212.024,66.308ZM219.912,66.325C219.912,68.518,218.45,69.793,216.75,69.793C215.05,69.793,213.605,68.501,213.605,66.308C213.605,64.115,215.05,62.874,216.75,62.874C218.45,62.874,219.912,64.166,219.912,66.325Z" fill="#5A5A5A" fill-opacity="1"/></g></svg>