<svg xmlns="http://www.w3.org/2000/svg" xmlns:xlink="http://www.w3.org/1999/xlink" fill="none" version="1.1" width="360" height="52" viewBox="0 0 360 52"><g><path d="M0.731,13.067C0.731,16.62,3.332,19.102,6.647,19.102C9.214,19.102,11.254,17.827,12.138,15.549L10.285,15.549C9.639,16.96,8.381,17.759,6.647,17.759C4.165,17.759,2.312,15.957,2.312,13.067C2.312,10.16,4.165,8.358,6.647,8.358C8.381,8.358,9.639,9.157,10.285,10.585L12.138,10.585C11.254,8.29,9.214,6.998,6.647,6.998C3.332,6.998,0.731,9.514,0.731,13.067ZM15.98,13.934C15.98,11.775,17.102,11.112,18.581,11.112L18.989,11.112L18.989,9.514C17.51,9.514,16.507,10.16,15.98,11.197L15.98,9.684L14.433,9.684L14.433,19L15.98,19L15.98,13.934ZM24.735,10.84C26.333,10.84,27.693,11.843,27.676,13.662L21.794,13.662C21.964,11.843,23.222,10.84,24.735,10.84ZM29.087,16.127L27.421,16.127C27.081,17.13,26.197,17.844,24.803,17.844C23.222,17.844,21.896,16.807,21.777,14.92L29.223,14.92C29.257,14.597,29.274,14.325,29.274,13.985C29.274,11.435,27.506,9.531,24.803,9.531C22.083,9.531,20.196,11.384,20.196,14.325C20.196,17.283,22.151,19.153,24.803,19.153C27.115,19.153,28.611,17.827,29.087,16.127ZM30.736,14.308C30.736,17.198,32.657,19.153,35.139,19.153C36.856,19.153,38.063,18.269,38.624,17.266L38.624,19L40.188,19L40.188,9.684L38.624,9.684L38.624,11.384C38.08,10.415,36.89,9.531,35.156,9.531C32.657,9.531,30.736,11.401,30.736,14.308ZM38.624,14.325C38.624,16.518,37.162,17.793,35.462,17.793C33.762,17.793,32.317,16.501,32.317,14.308C32.317,12.115,33.762,10.874,35.462,10.874C37.162,10.874,38.624,12.166,38.624,14.325ZM43.146,16.45C43.146,18.32,44.081,19,45.73,19L47.124,19L47.124,17.691L45.985,17.691C45.033,17.691,44.693,17.368,44.693,16.45L44.693,10.959L47.124,10.959L47.124,9.684L44.693,9.684L44.693,7.338L43.146,7.338L43.146,9.684L41.939,9.684L41.939,10.959L43.146,10.959L43.146,16.45ZM48.994,19L50.541,19L50.541,9.684L48.994,9.684L48.994,19ZM49.793,8.171C50.354,8.171,50.813,7.712,50.813,7.117C50.813,6.522,50.354,6.063,49.793,6.063C49.198,6.063,48.739,6.522,48.739,7.117C48.739,7.712,49.198,8.171,49.793,8.171ZM59.993,19L61.523,19L61.523,13.509C61.523,10.84,59.874,9.514,57.715,9.514C56.457,9.514,55.335,10.041,54.723,11.01L54.723,9.684L53.176,9.684L53.176,19L54.723,19L54.723,13.849C54.723,11.843,55.811,10.857,57.392,10.857C58.956,10.857,59.993,11.826,59.993,13.73L59.993,19ZM63.478,14.308C63.478,17.198,65.399,19.153,67.898,19.153C69.598,19.153,70.805,18.252,71.366,17.249L71.366,19.204C71.366,21.193,70.125,22.247,68.476,22.247C66.946,22.247,65.841,21.482,65.501,20.36L63.971,20.36C64.277,22.349,66.028,23.59,68.476,23.59C71.213,23.59,72.93,21.771,72.93,19.204L72.93,9.684L71.366,9.684L71.366,11.384C70.822,10.381,69.598,9.531,67.898,9.531C65.399,9.531,63.478,11.401,63.478,14.308ZM71.366,14.325C71.366,16.518,69.904,17.793,68.204,17.793C66.504,17.793,65.059,16.501,65.059,14.308C65.059,12.115,66.504,10.874,68.204,10.874C69.904,10.874,71.366,12.166,71.366,14.325ZM79.509,14.308C79.509,17.198,81.43,19.153,83.912,19.153C85.629,19.153,86.836,18.269,87.397,17.266L87.397,19L88.961,19L88.961,9.684L87.397,9.684L87.397,11.384C86.853,10.415,85.663,9.531,83.929,9.531C81.43,9.531,79.509,11.401,79.509,14.308ZM87.397,14.325C87.397,16.518,85.935,17.793,84.235,17.793C82.535,17.793,81.09,16.501,81.09,14.308C81.09,12.115,82.535,10.874,84.235,10.874C85.935,10.874,87.397,12.166,87.397,14.325ZM103.887,7.134L103.887,16.552L97.665,7.134L96.118,7.134L96.118,19L97.665,19L97.665,9.565L103.887,19L105.434,19L105.434,7.134L103.887,7.134ZM112.03,10.84C113.628,10.84,114.988,11.843,114.971,13.662L109.089,13.662C109.259,11.843,110.517,10.84,112.03,10.84ZM116.382,16.127L114.716,16.127C114.376,17.13,113.492,17.844,112.098,17.844C110.517,17.844,109.191,16.807,109.072,14.92L116.518,14.92C116.552,14.597,116.569,14.325,116.569,13.985C116.569,11.435,114.801,9.531,112.098,9.531C109.378,9.531,107.491,11.384,107.491,14.325C107.491,17.283,109.446,19.153,112.098,19.153C114.41,19.153,115.906,17.827,116.382,16.127ZM120.428,19L122.026,19L124.27,11.605L126.514,19L128.112,19L131.019,9.684L129.489,9.684L127.381,17.521L125.12,9.684L123.539,9.684L121.227,17.504L119.085,9.684L117.504,9.684L120.428,19ZM138.635,12.778L138.635,8.426L140.913,8.426C142.681,8.426,143.429,9.242,143.429,10.619C143.429,11.945,142.681,12.778,140.913,12.778L138.635,12.778ZM145.01,10.619C145.01,8.681,143.701,7.151,140.913,7.151L137.088,7.151L137.088,19L138.635,19L138.635,14.053L140.913,14.053C143.854,14.053,145.01,12.421,145.01,10.619ZM146.353,14.308C146.353,17.198,148.274,19.153,150.756,19.153C152.473,19.153,153.68,18.269,154.241,17.266L154.241,19L155.805,19L155.805,9.684L154.241,9.684L154.241,11.384C153.697,10.415,152.507,9.531,150.773,9.531C148.274,9.531,146.353,11.401,146.353,14.308ZM154.241,14.325C154.241,16.518,152.779,17.793,151.079,17.793C149.379,17.793,147.934,16.501,147.934,14.308C147.934,12.115,149.379,10.874,151.079,10.874C152.779,10.874,154.241,12.166,154.241,14.325ZM159.97,13.934C159.97,11.775,161.092,11.112,162.571,11.112L162.979,11.112L162.979,9.514C161.5,9.514,160.497,10.16,159.97,11.197L159.97,9.684L158.423,9.684L158.423,19L159.97,19L159.97,13.934ZM164.186,14.308C164.186,17.198,166.107,19.153,168.589,19.153C170.306,19.153,171.513,18.269,172.074,17.266L172.074,19L173.638,19L173.638,9.684L172.074,9.684L172.074,11.384C171.53,10.415,170.34,9.531,168.606,9.531C166.107,9.531,164.186,11.401,164.186,14.308ZM172.074,14.325C172.074,16.518,170.612,17.793,168.912,17.793C167.212,17.793,165.767,16.501,165.767,14.308C165.767,12.115,167.212,10.874,168.912,10.874C170.612,10.874,172.074,12.166,172.074,14.325ZM175.678,14.308C175.678,17.198,177.599,19.153,180.098,19.153C181.798,19.153,183.005,18.286,183.566,17.249L183.566,19L185.13,19L185.13,6.42L183.566,6.42L183.566,11.35C182.92,10.279,181.577,9.531,180.115,9.531C177.599,9.531,175.678,11.401,175.678,14.308ZM183.566,14.325C183.566,16.518,182.104,17.793,180.404,17.793C178.704,17.793,177.259,16.501,177.259,14.308C177.259,12.115,178.704,10.874,180.404,10.874C182.104,10.874,183.566,12.166,183.566,14.325ZM187.748,19L189.295,19L189.295,9.684L187.748,9.684L187.748,19ZM188.547,8.171C189.108,8.171,189.567,7.712,189.567,7.117C189.567,6.522,189.108,6.063,188.547,6.063C187.952,6.063,187.493,6.522,187.493,7.117C187.493,7.712,187.952,8.171,188.547,8.171ZM191.352,14.308C191.352,17.198,193.273,19.153,195.772,19.153C197.472,19.153,198.679,18.252,199.24,17.249L199.24,19.204C199.24,21.193,197.999,22.247,196.35,22.247C194.82,22.247,193.715,21.482,193.375,20.36L191.845,20.36C192.151,22.349,193.902,23.59,196.35,23.59C199.087,23.59,200.804,21.771,200.804,19.204L200.804,9.684L199.24,9.684L199.24,11.384C198.696,10.381,197.472,9.531,195.772,9.531C193.273,9.531,191.352,11.401,191.352,14.308ZM199.24,14.325C199.24,16.518,197.778,17.793,196.078,17.793C194.378,17.793,192.933,16.501,192.933,14.308C192.933,12.115,194.378,10.874,196.078,10.874C197.778,10.874,199.24,12.166,199.24,14.325ZM216.869,19L218.399,19L218.399,13.509C218.399,10.84,216.75,9.514,214.625,9.514C213.197,9.514,211.871,10.245,211.327,11.588C210.715,10.194,209.44,9.514,207.91,9.514C206.686,9.514,205.581,10.041,204.969,11.027L204.969,9.684L203.422,9.684L203.422,19L204.969,19L204.969,13.866C204.969,11.86,206.04,10.857,207.604,10.857C209.134,10.857,210.154,11.826,210.154,13.73L210.154,19L211.684,19L211.684,13.866C211.684,11.86,212.755,10.857,214.319,10.857C215.849,10.857,216.869,11.826,216.869,13.73L216.869,19ZM225.76,19L227.307,19L227.307,10.959L229.262,10.959L229.262,9.684L227.307,9.684L227.307,9.021C227.307,7.814,227.766,7.304,229.16,7.304L229.16,6.012C226.78,6.012,225.76,6.947,225.76,9.021L225.76,9.684L224.553,9.684L224.553,10.959L225.76,10.959L225.76,19ZM239.904,14.325C239.904,11.384,237.847,9.531,235.195,9.531C232.56,9.531,230.486,11.384,230.486,14.325C230.486,17.283,232.492,19.153,235.127,19.153C237.779,19.153,239.904,17.283,239.904,14.325ZM232.067,14.325C232.067,11.979,233.546,10.874,235.178,10.874C236.776,10.874,238.323,11.979,238.323,14.325C238.323,16.688,236.742,17.793,235.127,17.793C233.512,17.793,232.067,16.688,232.067,14.325ZM243.491,13.934C243.491,11.775,244.613,11.112,246.092,11.112L246.5,11.112L246.5,9.514C245.021,9.514,244.018,10.16,243.491,11.197L243.491,9.684L241.944,9.684L241.944,19L243.491,19L243.491,13.934ZM260.78,19L262.412,19L258.145,7.219L256.36,7.219L252.076,19L253.708,19L254.66,16.365L259.828,16.365L260.78,19ZM259.386,15.107L255.102,15.107L257.244,9.123L259.386,15.107ZM265.829,11.401L265.829,9.684L264.282,9.684L264.282,23.42L265.829,23.42L265.829,17.283C266.407,18.235,267.614,19.153,269.314,19.153C271.813,19.153,273.734,17.198,273.734,14.308C273.734,11.401,271.813,9.531,269.314,9.531C267.614,9.531,266.39,10.415,265.829,11.401ZM272.153,14.308C272.153,16.501,270.708,17.793,268.991,17.793C267.308,17.793,265.829,16.518,265.829,14.325C265.829,12.166,267.308,10.874,268.991,10.874C270.708,10.874,272.153,12.115,272.153,14.308ZM277.321,11.401L277.321,9.684L275.774,9.684L275.774,23.42L277.321,23.42L277.321,17.283C277.899,18.235,279.106,19.153,280.806,19.153C283.305,19.153,285.226,17.198,285.226,14.308C285.226,11.401,283.305,9.531,280.806,9.531C279.106,9.531,277.882,10.415,277.321,11.401ZM283.645,14.308C283.645,16.501,282.2,17.793,280.483,17.793C278.8,17.793,277.321,16.518,277.321,14.325C277.321,12.166,278.8,10.874,280.483,10.874C282.2,10.874,283.645,12.115,283.645,14.308ZM287.266,19L288.813,19L288.813,6.42L287.266,6.42L287.266,19ZM291.448,19L292.995,19L292.995,9.684L291.448,9.684L291.448,19ZM292.247,8.171C292.808,8.171,293.267,7.712,293.267,7.117C293.267,6.522,292.808,6.063,292.247,6.063C291.652,6.063,291.193,6.522,291.193,7.117C291.193,7.712,291.652,8.171,292.247,8.171ZM295.052,14.325C295.052,17.283,296.939,19.153,299.591,19.153C301.903,19.153,303.416,17.861,303.892,16.008L302.226,16.008C301.886,17.181,300.968,17.844,299.591,17.844C297.891,17.844,296.633,16.637,296.633,14.325C296.633,12.047,297.891,10.84,299.591,10.84C300.968,10.84,301.903,11.554,302.226,12.676L303.892,12.676C303.416,10.721,301.903,9.531,299.591,9.531C296.939,9.531,295.052,11.401,295.052,14.325ZM305.371,14.308C305.371,17.198,307.292,19.153,309.774,19.153C311.491,19.153,312.698,18.269,313.259,17.266L313.259,19L314.823,19L314.823,9.684L313.259,9.684L313.259,11.384C312.715,10.415,311.525,9.531,309.791,9.531C307.292,9.531,305.371,11.401,305.371,14.308ZM313.259,14.325C313.259,16.518,311.797,17.793,310.097,17.793C308.397,17.793,306.952,16.501,306.952,14.308C306.952,12.115,308.397,10.874,310.097,10.874C311.797,10.874,313.259,12.166,313.259,14.325ZM317.781,16.45C317.781,18.32,318.716,19,320.365,19L321.759,19L321.759,17.691L320.62,17.691C319.668,17.691,319.328,17.368,319.328,16.45L319.328,10.959L321.759,10.959L321.759,9.684L319.328,9.684L319.328,7.338L317.781,7.338L317.781,9.684L316.574,9.684L316.574,10.959L317.781,10.959L317.781,16.45ZM323.629,19L325.176,19L325.176,9.684L323.629,9.684L323.629,19ZM324.428,8.171C324.989,8.171,325.448,7.712,325.448,7.117C325.448,6.522,324.989,6.063,324.428,6.063C323.833,6.063,323.374,6.522,323.374,7.117C323.374,7.712,323.833,8.171,324.428,8.171ZM336.651,14.325C336.651,11.384,334.594,9.531,331.942,9.531C329.307,9.531,327.233,11.384,327.233,14.325C327.233,17.283,329.239,19.153,331.874,19.153C334.526,19.153,336.651,17.283,336.651,14.325ZM328.814,14.325C328.814,11.979,330.293,10.874,331.925,10.874C333.523,10.874,335.07,11.979,335.07,14.325C335.07,16.688,333.489,17.793,331.874,17.793C330.259,17.793,328.814,16.688,328.814,14.325ZM345.508,19L347.038,19L347.038,13.509C347.038,10.84,345.389,9.514,343.23,9.514C341.972,9.514,340.85,10.041,340.238,11.01L340.238,9.684L338.691,9.684L338.691,19L340.238,19L340.238,13.849C340.238,11.843,341.326,10.857,342.907,10.857C344.471,10.857,345.508,11.826,345.508,13.73L345.508,19ZM4.998,33.151L1.309,33.151L1.309,45L4.998,45C8.891,45,11.288,42.773,11.288,39.101C11.288,35.429,8.891,33.151,4.998,33.151ZM2.856,43.725L2.856,34.409L4.998,34.409C8.092,34.409,9.707,36.211,9.707,39.101C9.707,41.991,8.092,43.725,4.998,43.725L2.856,43.725ZM17.289,36.84C18.887,36.84,20.247,37.843,20.23,39.662L14.348,39.662C14.518,37.843,15.776,36.84,17.289,36.84ZM21.641,42.127L19.975,42.127C19.635,43.13,18.751,43.844,17.357,43.844C15.776,43.844,14.45,42.807,14.331,40.92L21.777,40.92C21.811,40.597,21.828,40.325,21.828,39.985C21.828,37.435,20.06,35.531,17.357,35.531C14.637,35.531,12.75,37.384,12.75,40.325C12.75,43.283,14.705,45.153,17.357,45.153C19.669,45.153,21.165,43.827,21.641,42.127ZM22.763,35.684L26.418,45L28.22,45L31.875,35.684L30.226,35.684L27.336,43.572L24.429,35.684L22.763,35.684ZM37.366,36.84C38.964,36.84,40.324,37.843,40.307,39.662L34.425,39.662C34.595,37.843,35.853,36.84,37.366,36.84ZM41.718,42.127L40.052,42.127C39.712,43.13,38.828,43.844,37.434,43.844C35.853,43.844,34.527,42.807,34.408,40.92L41.854,40.92C41.888,40.597,41.905,40.325,41.905,39.985C41.905,37.435,40.137,35.531,37.434,35.531C34.714,35.531,32.827,37.384,32.827,40.325C32.827,43.283,34.782,45.153,37.434,45.153C39.746,45.153,41.242,43.827,41.718,42.127ZM43.945,45L45.492,45L45.492,32.42L43.945,32.42L43.945,45ZM56.967,40.325C56.967,37.384,54.91,35.531,52.258,35.531C49.623,35.531,47.549,37.384,47.549,40.325C47.549,43.283,49.555,45.153,52.19,45.153C54.842,45.153,56.967,43.283,56.967,40.325ZM49.13,40.325C49.13,37.979,50.609,36.874,52.241,36.874C53.839,36.874,55.386,37.979,55.386,40.325C55.386,42.688,53.805,43.793,52.19,43.793C50.575,43.793,49.13,42.688,49.13,40.325ZM60.554,37.401L60.554,35.684L59.007,35.684L59.007,49.42L60.554,49.42L60.554,43.283C61.132,44.235,62.339,45.153,64.039,45.153C66.538,45.153,68.459,43.198,68.459,40.308C68.459,37.401,66.538,35.531,64.039,35.531C62.339,35.531,61.115,36.415,60.554,37.401ZM66.878,40.308C66.878,42.501,65.433,43.793,63.716,43.793C62.033,43.793,60.554,42.518,60.554,40.325C60.554,38.166,62.033,36.874,63.716,36.874C65.433,36.874,66.878,38.115,66.878,40.308ZM83.946,45L85.476,45L85.476,39.509C85.476,36.84,83.827,35.514,81.702,35.514C80.274,35.514,78.948,36.245,78.404,37.588C77.792,36.194,76.517,35.514,74.987,35.514C73.763,35.514,72.658,36.041,72.046,37.027L72.046,35.684L70.499,35.684L70.499,45L72.046,45L72.046,39.866C72.046,37.86,73.117,36.857,74.681,36.857C76.211,36.857,77.231,37.826,77.231,39.73L77.231,45L78.761,45L78.761,39.866C78.761,37.86,79.832,36.857,81.396,36.857C82.926,36.857,83.946,37.826,83.946,39.73L83.946,45ZM91.97,36.84C93.568,36.84,94.928,37.843,94.911,39.662L89.029,39.662C89.199,37.843,90.457,36.84,91.97,36.84ZM96.322,42.127L94.656,42.127C94.316,43.13,93.432,43.844,92.038,43.844C90.457,43.844,89.131,42.807,89.012,40.92L96.458,40.92C96.492,40.597,96.509,40.325,96.509,39.985C96.509,37.435,94.741,35.531,92.038,35.531C89.318,35.531,87.431,37.384,87.431,40.325C87.431,43.283,89.386,45.153,92.038,45.153C94.35,45.153,95.846,43.827,96.322,42.127ZM105.366,45L106.896,45L106.896,39.509C106.896,36.84,105.247,35.514,103.088,35.514C101.83,35.514,100.708,36.041,100.096,37.01L100.096,35.684L98.549,35.684L98.549,45L100.096,45L100.096,39.849C100.096,37.843,101.184,36.857,102.765,36.857C104.329,36.857,105.366,37.826,105.366,39.73L105.366,45ZM109.769,42.45C109.769,44.32,110.704,45,112.353,45L113.747,45L113.747,43.691L112.608,43.691C111.656,43.691,111.316,43.368,111.316,42.45L111.316,36.959L113.747,36.959L113.747,35.684L111.316,35.684L111.316,33.338L109.769,33.338L109.769,35.684L108.562,35.684L108.562,36.959L109.769,36.959L109.769,42.45Z" fill="#5A5A5A" fill-opacity="1"/></g></svg>