<svg xmlns="http://www.w3.org/2000/svg" xmlns:xlink="http://www.w3.org/1999/xlink" fill="none" version="1.1" width="84" height="32" viewBox="0 0 84 32"><g><path d="M11.361,23L15.162,23L9.828,8.258L5.67,8.258L0.336,23L4.095,23L4.977,20.396L10.479,20.396L11.361,23ZM9.555,17.624L5.922,17.624L7.728,12.227L9.555,17.624ZM16.779,23L20.37,23L20.37,8.258L16.779,8.258L16.779,23ZM31.017,12.941L31.017,7.46L27.426,7.46L27.426,23L31.017,23L31.017,21.362C31.668,22.391,32.907,23.168,34.629,23.168C37.506,23.168,39.795,20.816,39.795,17.12C39.795,13.424,37.527,11.114,34.629,11.114C32.949,11.114,31.668,11.891,31.017,12.941ZM36.141,17.12C36.141,18.989,34.923,20.039,33.558,20.039C32.214,20.039,30.996,19.01,30.996,17.141C30.996,15.272,32.214,14.243,33.558,14.243C34.923,14.243,36.141,15.251,36.141,17.12ZM40.971,17.12C40.971,20.816,43.26,23.168,46.116,23.168C47.859,23.168,49.098,22.37,49.749,21.341L49.749,23L53.34,23L53.34,11.282L49.749,11.282L49.749,12.941C49.119,11.912,47.88,11.114,46.137,11.114C43.26,11.114,40.971,13.424,40.971,17.12ZM49.749,17.141C49.749,19.01,48.552,20.039,47.187,20.039C45.843,20.039,44.625,18.989,44.625,17.12C44.625,15.251,45.843,14.243,47.187,14.243C48.552,14.243,49.749,15.272,49.749,17.141ZM65.457,19.598C65.394,15.23,59.052,16.553,59.052,14.684C59.052,14.117,59.514,13.781,60.354,13.781C61.362,13.781,61.971,14.306,62.076,15.104L65.394,15.104C65.163,12.794,63.483,11.114,60.459,11.114C57.393,11.114,55.692,12.752,55.692,14.747C55.692,19.052,62.076,17.687,62.076,19.577C62.076,20.102,61.593,20.522,60.669,20.522C59.682,20.522,58.947,19.976,58.863,19.157L55.314,19.157C55.482,21.425,57.582,23.168,60.711,23.168C63.651,23.168,65.457,21.635,65.457,19.598ZM72.828,13.991C74.025,13.991,75.033,14.726,75.033,16.007L70.539,16.007C70.749,14.705,71.652,13.991,72.828,13.991ZM78.435,19.115L74.613,19.115C74.319,19.745,73.752,20.249,72.744,20.249C71.589,20.249,70.644,19.535,70.518,18.002L78.645,18.002C78.687,17.645,78.708,17.288,78.708,16.952C78.708,13.382,76.293,11.114,72.87,11.114C69.384,11.114,66.948,13.424,66.948,17.141C66.948,20.858,69.426,23.168,72.87,23.168C75.789,23.168,77.868,21.404,78.435,19.115Z" fill="#333333" fill-opacity="1"/></g></svg>