<svg xmlns="http://www.w3.org/2000/svg" xmlns:xlink="http://www.w3.org/1999/xlink" fill="none" version="1.1" width="418" height="32" viewBox="0 0 418 32"><g><path d="M11.361,23L15.162,23L9.828,8.258L5.67,8.258L0.336,23L4.095,23L4.977,20.396L10.479,20.396L11.361,23ZM9.555,17.624L5.922,17.624L7.728,12.227L9.555,17.624ZM20.37,12.941L20.37,11.282L16.779,11.282L16.779,28.586L20.37,28.586L20.37,21.362C21.021,22.349,22.26,23.168,23.982,23.168C26.859,23.168,29.148,20.816,29.148,17.12C29.148,13.424,26.859,11.114,23.982,11.114C22.26,11.114,21.021,11.912,20.37,12.941ZM25.494,17.12C25.494,18.989,24.276,20.039,22.911,20.039C21.567,20.039,20.349,19.01,20.349,17.141C20.349,15.272,21.567,14.243,22.911,14.243C24.276,14.243,25.494,15.251,25.494,17.12ZM34.629,12.941L34.629,11.282L31.038,11.282L31.038,28.586L34.629,28.586L34.629,21.362C35.28,22.349,36.519,23.168,38.241,23.168C41.118,23.168,43.407,20.816,43.407,17.12C43.407,13.424,41.118,11.114,38.241,11.114C36.519,11.114,35.28,11.912,34.629,12.941ZM39.753,17.12C39.753,18.989,38.535,20.039,37.17,20.039C35.826,20.039,34.608,19.01,34.608,17.141C34.608,15.272,35.826,14.243,37.17,14.243C38.535,14.243,39.753,15.251,39.753,17.12ZM45.297,23L48.888,23L48.888,7.46L45.297,7.46L45.297,23ZM51.492,23L55.083,23L55.083,11.282L51.492,11.282L51.492,23ZM53.298,10.064C54.558,10.064,55.419,9.203,55.419,8.132C55.419,7.04,54.558,6.179,53.298,6.179C52.017,6.179,51.156,7.04,51.156,8.132C51.156,9.203,52.017,10.064,53.298,10.064ZM56.973,17.141C56.973,20.858,59.409,23.168,62.853,23.168C65.793,23.168,67.872,21.467,68.481,18.758L64.659,18.758C64.344,19.619,63.777,20.102,62.79,20.102C61.509,20.102,60.627,19.094,60.627,17.141C60.627,15.188,61.509,14.18,62.79,14.18C63.777,14.18,64.365,14.705,64.659,15.524L68.481,15.524C67.872,12.731,65.793,11.114,62.853,11.114C59.409,11.114,56.973,13.445,56.973,17.141ZM69.678,17.12C69.678,20.816,71.967,23.168,74.823,23.168C76.566,23.168,77.805,22.37,78.456,21.341L78.456,23L82.047,23L82.047,11.282L78.456,11.282L78.456,12.941C77.826,11.912,76.587,11.114,74.844,11.114C71.967,11.114,69.678,13.424,69.678,17.12ZM78.456,17.141C78.456,19.01,77.259,20.039,75.894,20.039C74.55,20.039,73.332,18.989,73.332,17.12C73.332,15.251,74.55,14.243,75.894,14.243C77.259,14.243,78.456,15.272,78.456,17.141ZM85.218,18.926C85.218,21.971,86.919,23,89.355,23L91.182,23L91.182,19.955L89.901,19.955C89.103,19.955,88.809,19.661,88.809,18.968L88.809,14.264L91.161,14.264L91.161,11.282L88.809,11.282L88.809,8.426L85.218,8.426L85.218,11.282L83.79,11.282L83.79,14.264L85.218,14.264L85.218,18.926ZM93.177,23L96.768,23L96.768,11.282L93.177,11.282L93.177,23ZM94.983,10.064C96.243,10.064,97.104,9.203,97.104,8.132C97.104,7.04,96.243,6.179,94.983,6.179C93.702,6.179,92.841,7.04,92.841,8.132C92.841,9.203,93.702,10.064,94.983,10.064ZM110.838,17.141C110.838,13.424,108.192,11.114,104.748,11.114C101.325,11.114,98.658,13.424,98.658,17.141C98.658,20.858,101.262,23.168,104.706,23.168C108.15,23.168,110.838,20.858,110.838,17.141ZM102.312,17.141C102.312,15.146,103.446,14.222,104.748,14.222C106.008,14.222,107.184,15.146,107.184,17.141C107.184,19.115,105.987,20.06,104.706,20.06C103.404,20.06,102.312,19.115,102.312,17.141ZM120.834,23L124.404,23L124.404,16.154C124.404,13.004,122.598,11.156,119.889,11.156C118.314,11.156,117.054,11.849,116.34,12.836L116.34,11.282L112.749,11.282L112.749,23L116.34,23L116.34,16.637C116.34,15.041,117.222,14.159,118.587,14.159C119.952,14.159,120.834,15.041,120.834,16.637L120.834,23ZM126.693,17.12L135.933,17.12L135.933,14.138L126.693,14.138L126.693,17.12ZM139.083,23L142.674,23L142.674,11.282L139.083,11.282L139.083,23ZM140.889,10.064C142.149,10.064,143.01,9.203,143.01,8.132C143.01,7.04,142.149,6.179,140.889,6.179C139.608,6.179,138.747,7.04,138.747,8.132C138.747,9.203,139.608,10.064,140.889,10.064ZM153.363,23L156.933,23L156.933,16.154C156.933,13.004,155.127,11.156,152.418,11.156C150.843,11.156,149.583,11.849,148.869,12.836L148.869,11.282L145.278,11.282L145.278,23L148.869,23L148.869,16.637C148.869,15.041,149.751,14.159,151.116,14.159C152.481,14.159,153.363,15.041,153.363,16.637L153.363,23ZM158.718,17.12C158.718,20.816,161.007,23.168,163.884,23.168C165.606,23.168,166.845,22.391,167.496,21.32L167.496,23L171.087,23L171.087,7.46L167.496,7.46L167.496,12.899C166.782,11.828,165.438,11.114,163.884,11.114C161.007,11.114,158.718,13.424,158.718,17.12ZM167.496,17.141C167.496,19.01,166.299,20.039,164.934,20.039C163.59,20.039,162.372,18.989,162.372,17.12C162.372,15.251,163.59,14.243,164.934,14.243C166.299,14.243,167.496,15.272,167.496,17.141ZM178.857,13.991C180.054,13.991,181.062,14.726,181.062,16.007L176.568,16.007C176.778,14.705,177.681,13.991,178.857,13.991ZM184.464,19.115L180.642,19.115C180.348,19.745,179.781,20.249,178.773,20.249C177.618,20.249,176.673,19.535,176.547,18.002L184.674,18.002C184.716,17.645,184.737,17.288,184.737,16.952C184.737,13.382,182.322,11.114,178.899,11.114C175.413,11.114,172.977,13.424,172.977,17.141C172.977,20.858,175.455,23.168,178.899,23.168C181.818,23.168,183.897,21.404,184.464,19.115ZM190.218,12.941L190.218,11.282L186.627,11.282L186.627,28.586L190.218,28.586L190.218,21.362C190.869,22.349,192.108,23.168,193.83,23.168C196.707,23.168,198.996,20.816,198.996,17.12C198.996,13.424,196.707,11.114,193.83,11.114C192.108,11.114,190.869,11.912,190.218,12.941ZM195.342,17.12C195.342,18.989,194.124,20.039,192.759,20.039C191.415,20.039,190.197,19.01,190.197,17.141C190.197,15.272,191.415,14.243,192.759,14.243C194.124,14.243,195.342,15.251,195.342,17.12ZM206.052,13.991C207.249,13.991,208.257,14.726,208.257,16.007L203.763,16.007C203.973,14.705,204.876,13.991,206.052,13.991ZM211.659,19.115L207.837,19.115C207.543,19.745,206.976,20.249,205.968,20.249C204.813,20.249,203.868,19.535,203.742,18.002L211.869,18.002C211.911,17.645,211.932,17.288,211.932,16.952C211.932,13.382,209.517,11.114,206.094,11.114C202.608,11.114,200.172,13.424,200.172,17.141C200.172,20.858,202.65,23.168,206.094,23.168C209.013,23.168,211.092,21.404,211.659,19.115ZM221.907,23L225.477,23L225.477,16.154C225.477,13.004,223.671,11.156,220.962,11.156C219.387,11.156,218.127,11.849,217.413,12.836L217.413,11.282L213.822,11.282L213.822,23L217.413,23L217.413,16.637C217.413,15.041,218.295,14.159,219.66,14.159C221.025,14.159,221.907,15.041,221.907,16.637L221.907,23ZM227.262,17.12C227.262,20.816,229.551,23.168,232.428,23.168C234.15,23.168,235.389,22.391,236.04,21.32L236.04,23L239.631,23L239.631,7.46L236.04,7.46L236.04,12.899C235.326,11.828,233.982,11.114,232.428,11.114C229.551,11.114,227.262,13.424,227.262,17.12ZM236.04,17.141C236.04,19.01,234.843,20.039,233.478,20.039C232.134,20.039,230.916,18.989,230.916,17.12C230.916,15.251,232.134,14.243,233.478,14.243C234.843,14.243,236.04,15.272,236.04,17.141ZM247.401,13.991C248.598,13.991,249.606,14.726,249.606,16.007L245.112,16.007C245.322,14.705,246.225,13.991,247.401,13.991ZM253.008,19.115L249.186,19.115C248.892,19.745,248.325,20.249,247.317,20.249C246.162,20.249,245.217,19.535,245.091,18.002L253.218,18.002C253.26,17.645,253.281,17.288,253.281,16.952C253.281,13.382,250.866,11.114,247.443,11.114C243.957,11.114,241.521,13.424,241.521,17.141C241.521,20.858,243.999,23.168,247.443,23.168C250.362,23.168,252.441,21.404,253.008,19.115ZM263.256,23L266.826,23L266.826,16.154C266.826,13.004,265.02,11.156,262.311,11.156C260.736,11.156,259.476,11.849,258.762,12.836L258.762,11.282L255.171,11.282L255.171,23L258.762,23L258.762,16.637C258.762,15.041,259.644,14.159,261.009,14.159C262.374,14.159,263.256,15.041,263.256,16.637L263.256,23ZM269.892,18.926C269.892,21.971,271.593,23,274.029,23L275.856,23L275.856,19.955L274.575,19.955C273.777,19.955,273.483,19.661,273.483,18.968L273.483,14.264L275.835,14.264L275.835,11.282L273.483,11.282L273.483,8.426L269.892,8.426L269.892,11.282L268.464,11.282L268.464,14.264L269.892,14.264L269.892,18.926ZM281.589,17.12C281.589,20.816,283.878,23.168,286.755,23.168C288.477,23.168,289.716,22.391,290.367,21.32L290.367,23L293.958,23L293.958,7.46L290.367,7.46L290.367,12.899C289.653,11.828,288.309,11.114,286.755,11.114C283.878,11.114,281.589,13.424,281.589,17.12ZM290.367,17.141C290.367,19.01,289.17,20.039,287.805,20.039C286.461,20.039,285.243,18.989,285.243,17.12C285.243,15.251,286.461,14.243,287.805,14.243C289.17,14.243,290.367,15.272,290.367,17.141ZM301.728,13.991C302.925,13.991,303.933,14.726,303.933,16.007L299.439,16.007C299.649,14.705,300.552,13.991,301.728,13.991ZM307.335,19.115L303.513,19.115C303.219,19.745,302.652,20.249,301.644,20.249C300.489,20.249,299.544,19.535,299.418,18.002L307.545,18.002C307.587,17.645,307.608,17.288,307.608,16.952C307.608,13.382,305.193,11.114,301.77,11.114C298.284,11.114,295.848,13.424,295.848,17.141C295.848,20.858,298.326,23.168,301.77,23.168C304.689,23.168,306.768,21.404,307.335,19.115ZM313.089,12.941L313.089,11.282L309.498,11.282L309.498,28.586L313.089,28.586L313.089,21.362C313.74,22.349,314.979,23.168,316.701,23.168C319.578,23.168,321.867,20.816,321.867,17.12C321.867,13.424,319.578,11.114,316.701,11.114C314.979,11.114,313.74,11.912,313.089,12.941ZM318.213,17.12C318.213,18.989,316.995,20.039,315.63,20.039C314.286,20.039,313.068,19.01,313.068,17.141C313.068,15.272,314.286,14.243,315.63,14.243C316.995,14.243,318.213,15.251,318.213,17.12ZM323.757,23L327.348,23L327.348,7.46L323.757,7.46L323.757,23ZM341.418,17.141C341.418,13.424,338.772,11.114,335.328,11.114C331.905,11.114,329.238,13.424,329.238,17.141C329.238,20.858,331.842,23.168,335.286,23.168C338.73,23.168,341.418,20.858,341.418,17.141ZM332.892,17.141C332.892,15.146,334.026,14.222,335.328,14.222C336.588,14.222,337.764,15.146,337.764,17.141C337.764,19.115,336.567,20.06,335.286,20.06C333.984,20.06,332.892,19.115,332.892,17.141ZM348.726,18.611L346.017,11.282L342.006,11.282L346.773,22.601L344.085,28.565L347.949,28.565L355.299,11.282L351.414,11.282L348.726,18.611ZM372.75,23L376.32,23L376.32,16.154C376.32,13.004,374.451,11.156,371.553,11.156C369.852,11.156,368.382,12.101,367.605,13.34C366.807,11.933,365.379,11.156,363.615,11.156C362.082,11.156,360.885,11.807,360.192,12.752L360.192,11.282L356.601,11.282L356.601,23L360.192,23L360.192,16.637C360.192,15.104,361.074,14.264,362.439,14.264C363.804,14.264,364.686,15.104,364.686,16.637L364.686,23L368.256,23L368.256,16.637C368.256,15.104,369.138,14.264,370.503,14.264C371.868,14.264,372.75,15.104,372.75,16.637L372.75,23ZM384.006,13.991C385.203,13.991,386.211,14.726,386.211,16.007L381.717,16.007C381.927,14.705,382.83,13.991,384.006,13.991ZM389.613,19.115L385.791,19.115C385.497,19.745,384.93,20.249,383.922,20.249C382.767,20.249,381.822,19.535,381.696,18.002L389.823,18.002C389.865,17.645,389.886,17.288,389.886,16.952C389.886,13.382,387.471,11.114,384.048,11.114C380.562,11.114,378.126,13.424,378.126,17.141C378.126,20.858,380.604,23.168,384.048,23.168C386.967,23.168,389.046,21.404,389.613,19.115ZM399.861,23L403.431,23L403.431,16.154C403.431,13.004,401.625,11.156,398.916,11.156C397.341,11.156,396.081,11.849,395.367,12.836L395.367,11.282L391.776,11.282L391.776,23L395.367,23L395.367,16.637C395.367,15.041,396.249,14.159,397.614,14.159C398.979,14.159,399.861,15.041,399.861,16.637L399.861,23ZM406.497,18.926C406.497,21.971,408.198,23,410.634,23L412.461,23L412.461,19.955L411.18,19.955C410.382,19.955,410.088,19.661,410.088,18.968L410.088,14.264L412.44,14.264L412.44,11.282L410.088,11.282L410.088,8.426L406.497,8.426L406.497,11.282L405.069,11.282L405.069,14.264L406.497,14.264L406.497,18.926Z" fill="#333333" fill-opacity="1"/></g></svg>