<svg xmlns="http://www.w3.org/2000/svg" xmlns:xlink="http://www.w3.org/1999/xlink" fill="none" version="1.1" width="887" height="96" viewBox="0 0 887 96"><g><path d="M19.476,37L25.992,37L16.848,11.728L9.72,11.728L0.576,37L7.02,37L8.532,32.536L17.964,32.536L19.476,37ZM16.38,27.784L10.152,27.784L13.248,18.532L16.38,27.784ZM28.764,37L34.92,37L34.92,11.728L28.764,11.728L28.764,37ZM39.024,26.92L54.864,26.92L54.864,21.808L39.024,21.808L39.024,26.92ZM66.42,19.756L66.42,10.36L60.264,10.36L60.264,37L66.42,37L66.42,34.192C67.536,35.956,69.66,37.288,72.612,37.288C77.544,37.288,81.468,33.256,81.468,26.92C81.468,20.584,77.58,16.624,72.612,16.624C69.732,16.624,67.536,17.956,66.42,19.756ZM75.204,26.92C75.204,30.124,73.116,31.924,70.776,31.924C68.472,31.924,66.384,30.16,66.384,26.956C66.384,23.752,68.472,21.988,70.776,21.988C73.116,21.988,75.204,23.716,75.204,26.92ZM83.484,26.92C83.484,33.256,87.408,37.288,92.304,37.288C95.292,37.288,97.416,35.92,98.532,34.156L98.532,37L104.688,37L104.688,16.912L98.532,16.912L98.532,19.756C97.452,17.992,95.328,16.624,92.34,16.624C87.408,16.624,83.484,20.584,83.484,26.92ZM98.532,26.956C98.532,30.16,96.48,31.924,94.14,31.924C91.836,31.924,89.748,30.124,89.748,26.92C89.748,23.716,91.836,21.988,94.14,21.988C96.48,21.988,98.532,23.752,98.532,26.956ZM125.46,31.168C125.352,23.68,114.48,25.948,114.48,22.744C114.48,21.772,115.272,21.196,116.712,21.196C118.44,21.196,119.484,22.096,119.664,23.464L125.352,23.464C124.956,19.504,122.076,16.624,116.892,16.624C111.636,16.624,108.72,19.432,108.72,22.852C108.72,30.232,119.664,27.892,119.664,31.132C119.664,32.032,118.836,32.752,117.252,32.752C115.56,32.752,114.3,31.816,114.156,30.412L108.072,30.412C108.36,34.3,111.96,37.288,117.324,37.288C122.364,37.288,125.46,34.66,125.46,31.168ZM138.096,21.556C140.148,21.556,141.876,22.816,141.876,25.012L134.172,25.012C134.532,22.78,136.08,21.556,138.096,21.556ZM147.708,30.34L141.156,30.34C140.652,31.42,139.68,32.284,137.952,32.284C135.972,32.284,134.352,31.06,134.136,28.432L148.068,28.432C148.14,27.82,148.176,27.208,148.176,26.632C148.176,20.512,144.036,16.624,138.168,16.624C132.192,16.624,128.016,20.584,128.016,26.956C128.016,33.328,132.264,37.288,138.168,37.288C143.172,37.288,146.736,34.264,147.708,30.34ZM149.868,42.436L153.9,42.436L158.472,30.772L152.172,30.772L149.868,42.436ZM170.1,37L176.256,37L176.256,22.024L179.568,22.024L179.568,16.912L176.256,16.912L176.256,16.732C176.256,14.608,177.084,13.888,179.46,14.032L179.46,8.812C173.34,8.488,170.1,11.08,170.1,16.336L170.1,16.912L167.868,16.912L167.868,22.024L170.1,22.024L170.1,37ZM202.284,16.912L196.128,16.912L196.128,27.82C196.128,30.556,194.616,32.068,192.24,32.068C189.936,32.068,188.388,30.556,188.388,27.82L188.388,16.912L182.268,16.912L182.268,28.648C182.268,34.012,185.4,37.216,190.044,37.216C192.744,37.216,194.904,35.992,196.128,34.264L196.128,37L202.284,37L202.284,16.912ZM207.684,30.016C207.684,35.236,210.6,37,214.776,37L217.908,37L217.908,31.78L215.712,31.78C214.344,31.78,213.84,31.276,213.84,30.088L213.84,22.024L217.872,22.024L217.872,16.912L213.84,16.912L213.84,12.016L207.684,12.016L207.684,16.912L205.236,16.912L205.236,22.024L207.684,22.024L207.684,30.016ZM241.164,16.912L235.008,16.912L235.008,27.82C235.008,30.556,233.496,32.068,231.12,32.068C228.816,32.068,227.268,30.556,227.268,27.82L227.268,16.912L221.148,16.912L221.148,28.648C221.148,34.012,224.28,37.216,228.924,37.216C231.624,37.216,233.784,35.992,235.008,34.264L235.008,37L241.164,37L241.164,16.912ZM251.748,27.676C251.748,24.22,253.44,23.212,256.356,23.212L258.048,23.212L258.048,16.696C255.348,16.696,253.152,18.136,251.748,20.26L251.748,16.912L245.592,16.912L245.592,37L251.748,37L251.748,27.676ZM269.856,21.556C271.908,21.556,273.636,22.816,273.636,25.012L265.932,25.012C266.292,22.78,267.84,21.556,269.856,21.556ZM279.468,30.34L272.916,30.34C272.412,31.42,271.44,32.284,269.712,32.284C267.732,32.284,266.112,31.06,265.896,28.432L279.828,28.432C279.9,27.82,279.936,27.208,279.936,26.632C279.936,20.512,275.796,16.624,269.928,16.624C263.952,16.624,259.776,20.584,259.776,26.956C259.776,33.328,264.024,37.288,269.928,37.288C274.932,37.288,278.496,34.264,279.468,30.34ZM282.816,26.92L298.656,26.92L298.656,21.808L282.816,21.808L282.816,26.92ZM323.712,26.956C323.712,20.584,319.176,16.624,313.272,16.624C307.404,16.624,302.832,20.584,302.832,26.956C302.832,33.328,307.296,37.288,313.2,37.288C319.104,37.288,323.712,33.328,323.712,26.956ZM309.096,26.956C309.096,23.536,311.04,21.952,313.272,21.952C315.432,21.952,317.448,23.536,317.448,26.956C317.448,30.34,315.396,31.96,313.2,31.96C310.968,31.96,309.096,30.34,309.096,26.956ZM333.144,27.676C333.144,24.22,334.836,23.212,337.752,23.212L339.444,23.212L339.444,16.696C336.744,16.696,334.548,18.136,333.144,20.26L333.144,16.912L326.988,16.912L326.988,37L333.144,37L333.144,27.676ZM342.396,37L348.552,37L348.552,16.912L342.396,16.912L342.396,37ZM345.492,14.824C347.652,14.824,349.128,13.348,349.128,11.512C349.128,9.64,347.652,8.164,345.492,8.164C343.296,8.164,341.82,9.64,341.82,11.512C341.82,13.348,343.296,14.824,345.492,14.824ZM361.872,21.556C363.924,21.556,365.652,22.816,365.652,25.012L357.948,25.012C358.308,22.78,359.856,21.556,361.872,21.556ZM371.484,30.34L364.932,30.34C364.428,31.42,363.456,32.284,361.728,32.284C359.748,32.284,358.128,31.06,357.912,28.432L371.844,28.432C371.916,27.82,371.952,27.208,371.952,26.632C371.952,20.512,367.812,16.624,361.944,16.624C355.968,16.624,351.792,20.584,351.792,26.956C351.792,33.328,356.04,37.288,361.944,37.288C366.948,37.288,370.512,34.264,371.484,30.34ZM389.052,37L395.172,37L395.172,25.264C395.172,19.864,392.076,16.696,387.432,16.696C384.732,16.696,382.572,17.884,381.348,19.576L381.348,16.912L375.192,16.912L375.192,37L381.348,37L381.348,26.092C381.348,23.356,382.86,21.844,385.2,21.844C387.54,21.844,389.052,23.356,389.052,26.092L389.052,37ZM400.428,30.016C400.428,35.236,403.344,37,407.52,37L410.652,37L410.652,31.78L408.456,31.78C407.088,31.78,406.584,31.276,406.584,30.088L406.584,22.024L410.616,22.024L410.616,16.912L406.584,16.912L406.584,12.016L400.428,12.016L400.428,16.912L397.98,16.912L397.98,22.024L400.428,22.024L400.428,30.016ZM422.928,21.556C424.98,21.556,426.708,22.816,426.708,25.012L419.004,25.012C419.364,22.78,420.912,21.556,422.928,21.556ZM432.54,30.34L425.988,30.34C425.484,31.42,424.512,32.284,422.784,32.284C420.804,32.284,419.184,31.06,418.968,28.432L432.9,28.432C432.972,27.82,433.008,27.208,433.008,26.632C433.008,20.512,428.868,16.624,423,16.624C417.024,16.624,412.848,20.584,412.848,26.956C412.848,33.328,417.096,37.288,423,37.288C428.004,37.288,431.568,34.264,432.54,30.34ZM435.024,26.92C435.024,33.256,438.948,37.288,443.88,37.288C446.832,37.288,448.956,35.956,450.072,34.12L450.072,37L456.228,37L456.228,10.36L450.072,10.36L450.072,19.684C448.848,17.848,446.544,16.624,443.88,16.624C438.948,16.624,435.024,20.584,435.024,26.92ZM450.072,26.956C450.072,30.16,448.02,31.924,445.68,31.924C443.376,31.924,441.288,30.124,441.288,26.92C441.288,23.716,443.376,21.988,445.68,21.988C448.02,21.988,450.072,23.752,450.072,26.956ZM459.144,42.436L463.176,42.436L467.748,30.772L461.448,30.772L459.144,42.436ZM1.008,74.92C1.008,81.256,4.932,85.288,9.864,85.288C12.816,85.288,14.94,83.956,16.056,82.12L16.056,85L22.212,85L22.212,58.36L16.056,58.36L16.056,67.684C14.832,65.848,12.528,64.624,9.864,64.624C4.932,64.624,1.008,68.584,1.008,74.92ZM16.056,74.956C16.056,78.16,14.004,79.924,11.664,79.924C9.36,79.924,7.272,78.124,7.272,74.92C7.272,71.716,9.36,69.988,11.664,69.988C14.004,69.988,16.056,71.752,16.056,74.956ZM32.832,75.676C32.832,72.22,34.524,71.212,37.44,71.212L39.132,71.212L39.132,64.696C36.432,64.696,34.236,66.136,32.832,68.26L32.832,64.912L26.676,64.912L26.676,85L32.832,85L32.832,75.676ZM40.86,74.92C40.86,81.256,44.784,85.288,49.68,85.288C52.668,85.288,54.792,83.92,55.908,82.156L55.908,85L62.064,85L62.064,64.912L55.908,64.912L55.908,67.756C54.828,65.992,52.704,64.624,49.716,64.624C44.784,64.624,40.86,68.584,40.86,74.92ZM55.908,74.956C55.908,78.16,53.856,79.924,51.516,79.924C49.212,79.924,47.124,78.124,47.124,74.92C47.124,71.716,49.212,69.988,51.516,69.988C53.856,69.988,55.908,71.752,55.908,74.956ZM65.304,74.92C65.304,81.256,69.228,85.288,74.16,85.288C77.112,85.288,79.236,83.884,80.352,82.12L80.352,84.964C80.352,88.348,78.516,89.572,76.176,89.572C74.052,89.572,72.54,88.6,72.144,87.088L66.06,87.088C66.6,91.876,70.488,94.9,76.464,94.9C83.412,94.9,86.508,90.328,86.508,84.964L86.508,64.912L80.352,64.912L80.352,67.756C79.272,65.956,77.112,64.624,74.16,64.624C69.228,64.624,65.304,68.584,65.304,74.92ZM80.352,74.956C80.352,78.16,78.3,79.924,75.96,79.924C73.656,79.924,71.568,78.124,71.568,74.92C71.568,71.716,73.656,69.988,75.96,69.988C78.3,69.988,80.352,71.752,80.352,74.956ZM90.612,74.92L106.452,74.92L106.452,69.808L90.612,69.808L90.612,74.92ZM110.628,74.92C110.628,81.256,114.552,85.288,119.448,85.288C122.436,85.288,124.56,83.92,125.676,82.156L125.676,85L131.832,85L131.832,64.912L125.676,64.912L125.676,67.756C124.596,65.992,122.472,64.624,119.484,64.624C114.552,64.624,110.628,68.584,110.628,74.92ZM125.676,74.956C125.676,78.16,123.624,79.924,121.284,79.924C118.98,79.924,116.892,78.124,116.892,74.92C116.892,71.716,118.98,69.988,121.284,69.988C123.624,69.988,125.676,71.752,125.676,74.956ZM150.156,85L156.276,85L156.276,73.264C156.276,67.864,153.18,64.696,148.536,64.696C145.836,64.696,143.676,65.884,142.452,67.576L142.452,64.912L136.296,64.912L136.296,85L142.452,85L142.452,74.092C142.452,71.356,143.964,69.844,146.304,69.844C148.644,69.844,150.156,71.356,150.156,74.092L150.156,85ZM159.336,74.92C159.336,81.256,163.26,85.288,168.192,85.288C171.144,85.288,173.268,83.956,174.384,82.12L174.384,85L180.54,85L180.54,58.36L174.384,58.36L174.384,67.684C173.16,65.848,170.856,64.624,168.192,64.624C163.26,64.624,159.336,68.584,159.336,74.92ZM174.384,74.956C174.384,78.16,172.332,79.924,169.992,79.924C167.688,79.924,165.6,78.124,165.6,74.92C165.6,71.716,167.688,69.988,169.992,69.988C172.332,69.988,174.384,71.752,174.384,74.956ZM184.644,74.92L200.484,74.92L200.484,69.808L184.644,69.808L184.644,74.92ZM204.66,74.92C204.66,81.256,208.584,85.288,213.516,85.288C216.468,85.288,218.592,83.956,219.708,82.12L219.708,85L225.864,85L225.864,58.36L219.708,58.36L219.708,67.684C218.484,65.848,216.18,64.624,213.516,64.624C208.584,64.624,204.66,68.584,204.66,74.92ZM219.708,74.956C219.708,78.16,217.656,79.924,215.316,79.924C213.012,79.924,210.924,78.124,210.924,74.92C210.924,71.716,213.012,69.988,215.316,69.988C217.656,69.988,219.708,71.752,219.708,74.956ZM236.484,75.676C236.484,72.22,238.176,71.212,241.092,71.212L242.784,71.212L242.784,64.696C240.084,64.696,237.888,66.136,236.484,68.26L236.484,64.912L230.328,64.912L230.328,85L236.484,85L236.484,75.676ZM265.392,74.956C265.392,68.584,260.856,64.624,254.952,64.624C249.084,64.624,244.512,68.584,244.512,74.956C244.512,81.328,248.976,85.288,254.88,85.288C260.784,85.288,265.392,81.328,265.392,74.956ZM250.776,74.956C250.776,71.536,252.72,69.952,254.952,69.952C257.112,69.952,259.128,71.536,259.128,74.956C259.128,78.34,257.076,79.96,254.88,79.96C252.648,79.96,250.776,78.34,250.776,74.956ZM274.824,67.756L274.824,64.912L268.668,64.912L268.668,94.576L274.824,94.576L274.824,82.192C275.94,83.884,278.064,85.288,281.016,85.288C285.948,85.288,289.872,81.256,289.872,74.92C289.872,68.584,285.948,64.624,281.016,64.624C278.064,64.624,275.94,65.992,274.824,67.756ZM283.608,74.92C283.608,78.124,281.52,79.924,279.18,79.924C276.876,79.924,274.788,78.16,274.788,74.956C274.788,71.752,276.876,69.988,279.18,69.988C281.52,69.988,283.608,71.716,283.608,74.92ZM307.152,74.92C307.152,81.256,311.076,85.288,316.008,85.288C318.96,85.288,321.084,83.956,322.2,82.12L322.2,85L328.356,85L328.356,58.36L322.2,58.36L322.2,67.684C320.976,65.848,318.672,64.624,316.008,64.624C311.076,64.624,307.152,68.584,307.152,74.92ZM322.2,74.956C322.2,78.16,320.148,79.924,317.808,79.924C315.504,79.924,313.416,78.124,313.416,74.92C313.416,71.716,315.504,69.988,317.808,69.988C320.148,69.988,322.2,71.752,322.2,74.956ZM341.676,69.556C343.728,69.556,345.456,70.816,345.456,73.012L337.752,73.012C338.112,70.78,339.66,69.556,341.676,69.556ZM351.288,78.34L344.736,78.34C344.232,79.42,343.26,80.284,341.532,80.284C339.552,80.284,337.932,79.06,337.716,76.432L351.648,76.432C351.72,75.82,351.756,75.208,351.756,74.632C351.756,68.512,347.616,64.624,341.748,64.624C335.772,64.624,331.596,68.584,331.596,74.956C331.596,81.328,335.844,85.288,341.748,85.288C346.752,85.288,350.316,82.264,351.288,78.34ZM353.088,64.912L360.216,85L367.812,85L374.94,64.912L368.388,64.912L364.032,79.24L359.676,64.912L353.088,64.912ZM386.388,69.556C388.44,69.556,390.168,70.816,390.168,73.012L382.464,73.012C382.824,70.78,384.372,69.556,386.388,69.556ZM396,78.34L389.448,78.34C388.944,79.42,387.972,80.284,386.244,80.284C384.264,80.284,382.644,79.06,382.428,76.432L396.36,76.432C396.432,75.82,396.468,75.208,396.468,74.632C396.468,68.512,392.328,64.624,386.46,64.624C380.484,64.624,376.308,68.584,376.308,74.956C376.308,81.328,380.556,85.288,386.46,85.288C391.464,85.288,395.028,82.264,396,78.34ZM399.708,85L405.864,85L405.864,58.36L399.708,58.36L399.708,85ZM429.984,74.956C429.984,68.584,425.448,64.624,419.544,64.624C413.676,64.624,409.104,68.584,409.104,74.956C409.104,81.328,413.568,85.288,419.472,85.288C425.376,85.288,429.984,81.328,429.984,74.956ZM415.368,74.956C415.368,71.536,417.312,69.952,419.544,69.952C421.704,69.952,423.72,71.536,423.72,74.956C423.72,78.34,421.668,79.96,419.472,79.96C417.24,79.96,415.368,78.34,415.368,74.956ZM439.416,67.756L439.416,64.912L433.26,64.912L433.26,94.576L439.416,94.576L439.416,82.192C440.532,83.884,442.656,85.288,445.608,85.288C450.54,85.288,454.464,81.256,454.464,74.92C454.464,68.584,450.54,64.624,445.608,64.624C442.656,64.624,440.532,65.992,439.416,67.756ZM448.2,74.92C448.2,78.124,446.112,79.924,443.772,79.924C441.468,79.924,439.38,78.16,439.38,74.956C439.38,71.752,441.468,69.988,443.772,69.988C446.112,69.988,448.2,71.716,448.2,74.92ZM485.388,85L491.508,85L491.508,73.264C491.508,67.864,488.304,64.696,483.336,64.696C480.42,64.696,477.9,66.316,476.568,68.44C475.2,66.028,472.752,64.696,469.728,64.696C467.1,64.696,465.048,65.812,463.86,67.432L463.86,64.912L457.704,64.912L457.704,85L463.86,85L463.86,74.092C463.86,71.464,465.372,70.024,467.712,70.024C470.052,70.024,471.564,71.464,471.564,74.092L471.564,85L477.684,85L477.684,74.092C477.684,71.464,479.196,70.024,481.536,70.024C483.876,70.024,485.388,71.464,485.388,74.092L485.388,85ZM504.684,69.556C506.736,69.556,508.464,70.816,508.464,73.012L500.76,73.012C501.12,70.78,502.668,69.556,504.684,69.556ZM514.296,78.34L507.744,78.34C507.24,79.42,506.268,80.284,504.54,80.284C502.56,80.284,500.94,79.06,500.724,76.432L514.656,76.432C514.728,75.82,514.764,75.208,514.764,74.632C514.764,68.512,510.624,64.624,504.756,64.624C498.78,64.624,494.604,68.584,494.604,74.956C494.604,81.328,498.852,85.288,504.756,85.288C509.76,85.288,513.324,82.264,514.296,78.34ZM531.864,85L537.984,85L537.984,73.264C537.984,67.864,534.888,64.696,530.244,64.696C527.544,64.696,525.384,65.884,524.16,67.576L524.16,64.912L518.004,64.912L518.004,85L524.16,85L524.16,74.092C524.16,71.356,525.672,69.844,528.012,69.844C530.352,69.844,531.864,71.356,531.864,74.092L531.864,85ZM543.24,78.016C543.24,83.236,546.156,85,550.332,85L553.464,85L553.464,79.78L551.268,79.78C549.9,79.78,549.396,79.276,549.396,78.088L549.396,70.024L553.428,70.024L553.428,64.912L549.396,64.912L549.396,60.016L543.24,60.016L543.24,64.912L540.792,64.912L540.792,70.024L543.24,70.024L543.24,78.016ZM570.672,67.756L570.672,64.912L564.516,64.912L564.516,94.576L570.672,94.576L570.672,82.192C571.788,83.884,573.912,85.288,576.864,85.288C581.796,85.288,585.72,81.256,585.72,74.92C585.72,68.584,581.796,64.624,576.864,64.624C573.912,64.624,571.788,65.992,570.672,67.756ZM579.456,74.92C579.456,78.124,577.368,79.924,575.028,79.924C572.724,79.924,570.636,78.16,570.636,74.956C570.636,71.752,572.724,69.988,575.028,69.988C577.368,69.988,579.456,71.716,579.456,74.92ZM588.96,85L595.116,85L595.116,58.36L588.96,58.36L588.96,85ZM598.356,74.92C598.356,81.256,602.28,85.288,607.176,85.288C610.164,85.288,612.288,83.92,613.404,82.156L613.404,85L619.56,85L619.56,64.912L613.404,64.912L613.404,67.756C612.324,65.992,610.2,64.624,607.212,64.624C602.28,64.624,598.356,68.584,598.356,74.92ZM613.404,74.956C613.404,78.16,611.352,79.924,609.012,79.924C606.708,79.924,604.62,78.124,604.62,74.92C604.62,71.716,606.708,69.988,609.012,69.988C611.352,69.988,613.404,71.752,613.404,74.956ZM624.996,78.016C624.996,83.236,627.912,85,632.088,85L635.22,85L635.22,79.78L633.024,79.78C631.656,79.78,631.152,79.276,631.152,78.088L631.152,70.024L635.184,70.024L635.184,64.912L631.152,64.912L631.152,60.016L624.996,60.016L624.996,64.912L622.548,64.912L622.548,70.024L624.996,70.024L624.996,78.016ZM639.252,85L645.408,85L645.408,70.024L648.72,70.024L648.72,64.912L645.408,64.912L645.408,64.732C645.408,62.608,646.236,61.888,648.612,62.032L648.612,56.812C642.492,56.488,639.252,59.08,639.252,64.336L639.252,64.912L637.02,64.912L637.02,70.024L639.252,70.024L639.252,85ZM671.256,74.956C671.256,68.584,666.72,64.624,660.816,64.624C654.948,64.624,650.376,68.584,650.376,74.956C650.376,81.328,654.84,85.288,660.744,85.288C666.648,85.288,671.256,81.328,671.256,74.956ZM656.64,74.956C656.64,71.536,658.584,69.952,660.816,69.952C662.976,69.952,664.992,71.536,664.992,74.956C664.992,78.34,662.94,79.96,660.744,79.96C658.512,79.96,656.64,78.34,656.64,74.956ZM680.688,75.676C680.688,72.22,682.38,71.212,685.296,71.212L686.988,71.212L686.988,64.696C684.288,64.696,682.092,66.136,680.688,68.26L680.688,64.912L674.532,64.912L674.532,85L680.688,85L680.688,75.676ZM717.624,85L723.744,85L723.744,73.264C723.744,67.864,720.54,64.696,715.572,64.696C712.656,64.696,710.136,66.316,708.804,68.44C707.436,66.028,704.988,64.696,701.964,64.696C699.336,64.696,697.284,65.812,696.096,67.432L696.096,64.912L689.94,64.912L689.94,85L696.096,85L696.096,74.092C696.096,71.464,697.608,70.024,699.948,70.024C702.288,70.024,703.8,71.464,703.8,74.092L703.8,85L709.92,85L709.92,74.092C709.92,71.464,711.432,70.024,713.772,70.024C716.112,70.024,717.624,71.464,717.624,74.092L717.624,85ZM734.58,81.976C734.58,80.068,733.104,78.592,730.944,78.592C728.748,78.592,727.272,80.068,727.272,81.976C727.272,83.812,728.748,85.288,730.944,85.288C733.104,85.288,734.58,83.812,734.58,81.976Z" fill="#FFFFFF" fill-opacity="1"/></g></svg>