<svg xmlns="http://www.w3.org/2000/svg" xmlns:xlink="http://www.w3.org/1999/xlink" fill="none" version="1.1" width="690" height="60" viewBox="0 0 690 60"><g><path d="M0.78,9.96L4.5,9.96L4.5,22L6.78,22L6.78,9.96L10.48,9.96L10.48,8.1L0.78,8.1L0.78,9.96ZM12.78,22L15.06,22L15.06,15.84C15.06,13.82,16.16,12.78,17.84,12.78C19.5,12.78,20.6,13.82,20.6,15.84L20.6,22L22.86,22L22.86,15.5C22.86,12.42,20.94,10.8,18.48,10.8C17.06,10.8,15.82,11.34,15.06,12.26L15.06,7.2L12.78,7.2L12.78,22ZM30.4,12.72C32.1,12.72,33.44,13.8,33.48,15.5L27.38,15.5C27.62,13.76,28.86,12.72,30.4,12.72ZM35.56,18.72L33.1,18.72C32.68,19.58,31.9,20.26,30.5,20.26C28.82,20.26,27.52,19.16,27.36,17.34L35.78,17.34C35.84,16.96,35.86,16.6,35.86,16.22C35.86,12.98,33.64,10.8,30.5,10.8C27.24,10.8,25,13.02,25,16.48C25,19.94,27.34,22.18,30.5,22.18C33.2,22.18,34.94,20.64,35.56,18.72ZM42.54,16.44C42.54,19.84,44.84,22.18,47.7,22.18C49.54,22.18,50.86,21.3,51.56,20.36L51.56,22L53.86,22L53.86,10.98L51.56,10.98L51.56,12.58C50.88,11.68,49.6,10.8,47.74,10.8C44.84,10.8,42.54,13.04,42.54,16.44ZM51.56,16.48C51.56,18.86,49.94,20.2,48.22,20.2C46.52,20.2,44.88,18.82,44.88,16.44C44.88,14.06,46.52,12.78,48.22,12.78C49.94,12.78,51.56,14.12,51.56,16.48ZM56.1,16.44C56.1,19.84,58.4,22.18,61.3,22.18C63.1,22.18,64.42,21.28,65.12,20.34L65.12,22.18C65.12,24.38,63.8,25.46,62.04,25.46C60.46,25.46,59.24,24.68,58.9,23.54L56.64,23.54C56.92,25.98,59.1,27.44,62.04,27.44C65.48,27.44,67.42,25.18,67.42,22.18L67.42,10.98L65.12,10.98L65.12,12.58C64.44,11.64,63.1,10.8,61.3,10.8C58.4,10.8,56.1,13.04,56.1,16.44ZM65.12,16.48C65.12,18.86,63.5,20.2,61.78,20.2C60.08,20.2,58.44,18.82,58.44,16.44C58.44,14.06,60.08,12.78,61.78,12.78C63.5,12.78,65.12,14.12,65.12,16.48ZM70.42,22L72.7,22L72.7,10.98L70.42,10.98L70.42,22ZM71.58,9.52C72.38,9.52,73.02,8.88,73.02,8.06C73.02,7.24,72.38,6.6,71.58,6.6C70.76,6.6,70.12,7.24,70.12,8.06C70.12,8.88,70.76,9.52,71.58,9.52ZM75.7,22L77.98,22L77.98,7.2L75.7,7.2L75.7,22ZM85.62,12.72C87.32,12.72,88.66,13.8,88.7,15.5L82.6,15.5C82.84,13.76,84.08,12.72,85.62,12.72ZM90.78,18.72L88.32,18.72C87.9,19.58,87.12,20.26,85.72,20.26C84.04,20.26,82.74,19.16,82.58,17.34L91,17.34C91.06,16.96,91.08,16.6,91.08,16.22C91.08,12.98,88.86,10.8,85.72,10.8C82.46,10.8,80.22,13.02,80.22,16.48C80.22,19.94,82.56,22.18,85.72,22.18C88.42,22.18,90.16,20.64,90.78,18.72ZM97.76,16.44C97.76,19.84,100.06,22.18,102.96,22.18C104.76,22.18,106.08,21.34,106.78,20.34L106.78,22L109.08,22L109.08,7.2L106.78,7.2L106.78,12.52C105.94,11.48,104.42,10.8,102.98,10.8C100.06,10.8,97.76,13.04,97.76,16.44ZM106.78,16.48C106.78,18.86,105.16,20.2,103.44,20.2C101.74,20.2,100.1,18.82,100.1,16.44C100.1,14.06,101.74,12.78,103.44,12.78C105.16,12.78,106.78,14.12,106.78,16.48ZM116.72,12.72C118.42,12.72,119.76,13.8,119.8,15.5L113.7,15.5C113.94,13.76,115.18,12.72,116.72,12.72ZM121.88,18.72L119.42,18.72C119,19.58,118.22,20.26,116.82,20.26C115.14,20.26,113.84,19.16,113.68,17.34L122.1,17.34C122.16,16.96,122.18,16.6,122.18,16.22C122.18,12.98,119.96,10.8,116.82,10.8C113.56,10.8,111.32,13.02,111.32,16.48C111.32,19.94,113.66,22.18,116.82,22.18C119.52,22.18,121.26,20.64,121.88,18.72ZM124.42,22L126.7,22L126.7,7.2L124.42,7.2L124.42,22ZM129.7,22L131.98,22L131.98,10.98L129.7,10.98L129.7,22ZM130.86,9.52C131.66,9.52,132.3,8.88,132.3,8.06C132.3,7.24,131.66,6.6,130.86,6.6C130.04,6.6,129.4,7.24,129.4,8.06C129.4,8.88,130.04,9.52,130.86,9.52ZM133.68,10.98L137.86,22L140.58,22L144.78,10.98L142.36,10.98L139.24,19.96L136.12,10.98L133.68,10.98ZM151.14,12.72C152.84,12.72,154.18,13.8,154.22,15.5L148.12,15.5C148.36,13.76,149.6,12.72,151.14,12.72ZM156.3,18.72L153.84,18.72C153.42,19.58,152.64,20.26,151.24,20.26C149.56,20.26,148.26,19.16,148.1,17.34L156.52,17.34C156.58,16.96,156.6,16.6,156.6,16.22C156.6,12.98,154.38,10.8,151.24,10.8C147.98,10.8,145.74,13.02,145.74,16.48C145.74,19.94,148.08,22.18,151.24,22.18C153.94,22.18,155.68,20.64,156.3,18.72ZM161.12,16.2C161.12,13.86,162.16,13.16,163.84,13.16L164.42,13.16L164.42,10.8C162.86,10.8,161.76,11.48,161.12,12.58L161.12,10.98L158.84,10.98L158.84,22L161.12,22L161.12,16.2ZM170.86,19.38L167.76,10.98L165.22,10.98L169.56,21.82L167.32,27.18L169.68,27.18L176.44,10.98L174.08,10.98L170.86,19.38ZM183.72,18.94C183.72,21.18,184.94,22,186.9,22L188.7,22L188.7,20.1L187.3,20.1C186.34,20.1,186.02,19.76,186.02,18.94L186.02,12.84L188.7,12.84L188.7,10.98L186.02,10.98L186.02,8.24L183.72,8.24L183.72,10.98L182.42,10.98L182.42,12.84L183.72,12.84L183.72,18.94ZM201.3,16.48C201.3,13.02,198.82,10.8,195.68,10.8C192.54,10.8,190.06,13.02,190.06,16.48C190.06,19.94,192.44,22.18,195.58,22.18C198.74,22.18,201.3,19.94,201.3,16.48ZM192.38,16.48C192.38,13.98,193.92,12.78,195.64,12.78C197.34,12.78,198.96,13.98,198.96,16.48C198.96,18.98,197.28,20.2,195.58,20.2C193.86,20.2,192.38,18.98,192.38,16.48ZM214.06,16.48C214.06,13.02,211.58,10.8,208.44,10.8C205.3,10.8,202.82,13.02,202.82,16.48C202.82,19.94,205.2,22.18,208.34,22.18C211.5,22.18,214.06,19.94,214.06,16.48ZM205.14,16.48C205.14,13.98,206.68,12.78,208.4,12.78C210.1,12.78,211.72,13.98,211.72,16.48C211.72,18.98,210.04,20.2,208.34,20.2C206.62,20.2,205.14,18.98,205.14,16.48ZM216.32,22L218.6,22L218.6,7.2L216.32,7.2L216.32,22ZM227.08,22L229.38,22L229.38,12.84L231.42,12.84L231.42,10.98L229.38,10.98L229.38,10.2C229.38,8.94,229.86,8.46,231.26,8.46L231.26,6.56C228.38,6.56,227.08,7.66,227.08,10.2L227.08,10.98L225.78,10.98L225.78,12.84L227.08,12.84L227.08,22ZM243.94,16.48C243.94,13.02,241.46,10.8,238.32,10.8C235.18,10.8,232.7,13.02,232.7,16.48C232.7,19.94,235.08,22.18,238.22,22.18C241.38,22.18,243.94,19.94,243.94,16.48ZM235.02,16.48C235.02,13.98,236.56,12.78,238.28,12.78C239.98,12.78,241.6,13.98,241.6,16.48C241.6,18.98,239.92,20.2,238.22,20.2C236.5,20.2,235.02,18.98,235.02,16.48ZM248.48,16.2C248.48,13.86,249.52,13.16,251.2,13.16L251.78,13.16L251.78,10.8C250.22,10.8,249.12,11.48,248.48,12.58L248.48,10.98L246.2,10.98L246.2,22L248.48,22L248.48,16.2ZM267.3,18.92C267.18,14.94,260.96,16.18,260.96,13.96C260.96,13.22,261.6,12.72,262.82,12.72C264.06,12.72,264.8,13.38,264.88,14.34L267.16,14.34C267.04,12.14,265.4,10.8,262.9,10.8C260.3,10.8,258.66,12.22,258.66,13.98C258.66,18.02,265.06,16.78,265.06,18.94C265.06,19.7,264.36,20.26,263.04,20.26C261.78,20.26,260.92,19.52,260.84,18.62L258.48,18.62C258.58,20.62,260.44,22.18,263.08,22.18C265.68,22.18,267.3,20.78,267.3,18.92ZM280.26,16.48C280.26,13.02,277.78,10.8,274.64,10.8C271.5,10.8,269.02,13.02,269.02,16.48C269.02,19.94,271.4,22.18,274.54,22.18C277.7,22.18,280.26,19.94,280.26,16.48ZM271.34,16.48C271.34,13.98,272.88,12.78,274.6,12.78C276.3,12.78,277.92,13.98,277.92,16.48C277.92,18.98,276.24,20.2,274.54,20.2C272.82,20.2,271.34,18.98,271.34,16.48ZM282.8,22L285.1,22L285.1,12.84L287.14,12.84L287.14,10.98L285.1,10.98L285.1,10.2C285.1,8.94,285.58,8.46,286.98,8.46L286.98,6.56C284.1,6.56,282.8,7.66,282.8,10.2L282.8,10.98L281.5,10.98L281.5,12.84L282.8,12.84L282.8,22ZM289.52,18.94C289.52,21.18,290.74,22,292.7,22L294.5,22L294.5,20.1L293.1,20.1C292.14,20.1,291.82,19.76,291.82,18.94L291.82,12.84L294.5,12.84L294.5,10.98L291.82,10.98L291.82,8.24L289.52,8.24L289.52,10.98L288.22,10.98L288.22,12.84L289.52,12.84L289.52,18.94ZM298.74,22L301.14,22L303.36,13.86L305.58,22L307.98,22L311.4,10.98L309.16,10.98L306.88,19.8L304.64,10.98L302.26,10.98L299.92,19.84L297.62,10.98L295.3,10.98L298.74,22ZM312.34,16.44C312.34,19.84,314.64,22.18,317.5,22.18C319.34,22.18,320.66,21.3,321.36,20.36L321.36,22L323.66,22L323.66,10.98L321.36,10.98L321.36,12.58C320.68,11.68,319.4,10.8,317.54,10.8C314.64,10.8,312.34,13.04,312.34,16.44ZM321.36,16.48C321.36,18.86,319.74,20.2,318.02,20.2C316.32,20.2,314.68,18.82,314.68,16.44C314.68,14.06,316.32,12.78,318.02,12.78C319.74,12.78,321.36,14.12,321.36,16.48ZM328.94,16.2C328.94,13.86,329.98,13.16,331.66,13.16L332.24,13.16L332.24,10.8C330.68,10.8,329.58,11.48,328.94,12.58L328.94,10.98L326.66,10.98L326.66,22L328.94,22L328.94,16.2ZM338.98,12.72C340.68,12.72,342.02,13.8,342.06,15.5L335.96,15.5C336.2,13.76,337.44,12.72,338.98,12.72ZM344.14,18.72L341.68,18.72C341.26,19.58,340.48,20.26,339.08,20.26C337.4,20.26,336.1,19.16,335.94,17.34L344.36,17.34C344.42,16.96,344.44,16.6,344.44,16.22C344.44,12.98,342.22,10.8,339.08,10.8C335.82,10.8,333.58,13.02,333.58,16.48C333.58,19.94,335.92,22.18,339.08,22.18C341.78,22.18,343.52,20.64,344.14,18.72ZM351.12,16.44C351.12,19.84,353.42,22.18,356.32,22.18C358.12,22.18,359.44,21.34,360.14,20.34L360.14,22L362.44,22L362.44,7.2L360.14,7.2L360.14,12.52C359.3,11.48,357.78,10.8,356.34,10.8C353.42,10.8,351.12,13.04,351.12,16.44ZM360.14,16.48C360.14,18.86,358.52,20.2,356.8,20.2C355.1,20.2,353.46,18.82,353.46,16.44C353.46,14.06,355.1,12.78,356.8,12.78C358.52,12.78,360.14,14.12,360.14,16.48ZM370.08,12.72C371.78,12.72,373.12,13.8,373.16,15.5L367.06,15.5C367.3,13.76,368.54,12.72,370.08,12.72ZM375.24,18.72L372.78,18.72C372.36,19.58,371.58,20.26,370.18,20.26C368.5,20.26,367.2,19.16,367.04,17.34L375.46,17.34C375.52,16.96,375.54,16.6,375.54,16.22C375.54,12.98,373.32,10.8,370.18,10.8C366.92,10.8,364.68,13.02,364.68,16.48C364.68,19.94,367.02,22.18,370.18,22.18C372.88,22.18,374.62,20.64,375.24,18.72ZM376.48,10.98L380.66,22L383.38,22L387.58,10.98L385.16,10.98L382.04,19.96L378.92,10.98L376.48,10.98ZM393.94,12.72C395.64,12.72,396.98,13.8,397.02,15.5L390.92,15.5C391.16,13.76,392.4,12.72,393.94,12.72ZM399.1,18.72L396.64,18.72C396.22,19.58,395.44,20.26,394.04,20.26C392.36,20.26,391.06,19.16,390.9,17.34L399.32,17.34C399.38,16.96,399.4,16.6,399.4,16.22C399.4,12.98,397.18,10.8,394.04,10.8C390.78,10.8,388.54,13.02,388.54,16.48C388.54,19.94,390.88,22.18,394.04,22.18C396.74,22.18,398.48,20.64,399.1,18.72ZM401.64,22L403.92,22L403.92,7.2L401.64,7.2L401.64,22ZM417.42,16.48C417.42,13.02,414.94,10.8,411.8,10.8C408.66,10.8,406.18,13.02,406.18,16.48C406.18,19.94,408.56,22.18,411.7,22.18C414.86,22.18,417.42,19.94,417.42,16.48ZM408.5,16.48C408.5,13.98,410.04,12.78,411.76,12.78C413.46,12.78,415.08,13.98,415.08,16.48C415.08,18.98,413.4,20.2,411.7,20.2C409.98,20.2,408.5,18.98,408.5,16.48ZM421.96,12.6L421.96,10.98L419.68,10.98L419.68,27.24L421.96,27.24L421.96,20.4C422.68,21.26,423.98,22.18,425.8,22.18C428.7,22.18,430.98,19.84,430.98,16.44C430.98,13.04,428.7,10.8,425.8,10.8C424,10.8,422.66,11.68,421.96,12.6ZM428.66,16.44C428.66,18.82,427.02,20.2,425.3,20.2C423.6,20.2,421.96,18.86,421.96,16.48C421.96,14.12,423.6,12.78,425.3,12.78C427.02,12.78,428.66,14.06,428.66,16.44ZM448.86,22L451.12,22L451.12,15.5C451.12,12.42,449.16,10.8,446.58,10.8C444.98,10.8,443.42,11.64,442.74,12.98C441.98,11.54,440.52,10.8,438.78,10.8C437.46,10.8,436.26,11.34,435.52,12.24L435.52,10.98L433.24,10.98L433.24,22L435.52,22L435.52,15.84C435.52,13.82,436.62,12.78,438.3,12.78C439.96,12.78,441.06,13.82,441.06,15.84L441.06,22L443.32,22L443.32,15.84C443.32,13.82,444.42,12.78,446.1,12.78C447.76,12.78,448.86,13.82,448.86,15.84L448.86,22ZM458.66,12.72C460.36,12.72,461.7,13.8,461.74,15.5L455.64,15.5C455.88,13.76,457.12,12.72,458.66,12.72ZM463.82,18.72L461.36,18.72C460.94,19.58,460.16,20.26,458.76,20.26C457.08,20.26,455.78,19.16,455.62,17.34L464.04,17.34C464.1,16.96,464.12,16.6,464.12,16.22C464.12,12.98,461.9,10.8,458.76,10.8C455.5,10.8,453.26,13.02,453.26,16.48C453.26,19.94,455.6,22.18,458.76,22.18C461.46,22.18,463.2,20.64,463.82,18.72ZM474.18,22L476.44,22L476.44,15.5C476.44,12.42,474.5,10.8,471.92,10.8C470.6,10.8,469.38,11.34,468.64,12.24L468.64,10.98L466.36,10.98L466.36,22L468.64,22L468.64,15.84C468.64,13.82,469.74,12.78,471.42,12.78C473.08,12.78,474.18,13.82,474.18,15.84L474.18,22ZM479.7,18.94C479.7,21.18,480.92,22,482.88,22L484.68,22L484.68,20.1L483.28,20.1C482.32,20.1,482,19.76,482,18.94L482,12.84L484.68,12.84L484.68,10.98L482,10.98L482,8.24L479.7,8.24L479.7,10.98L478.4,10.98L478.4,12.84L479.7,12.84L479.7,18.94ZM492.34,18.94C492.34,21.18,493.56,22,495.52,22L497.32,22L497.32,20.1L495.92,20.1C494.96,20.1,494.64,19.76,494.64,18.94L494.64,12.84L497.32,12.84L497.32,10.98L494.64,10.98L494.64,8.24L492.34,8.24L492.34,10.98L491.04,10.98L491.04,12.84L492.34,12.84L492.34,18.94ZM504.06,12.72C505.76,12.72,507.1,13.8,507.14,15.5L501.04,15.5C501.28,13.76,502.52,12.72,504.06,12.72ZM509.22,18.72L506.76,18.72C506.34,19.58,505.56,20.26,504.16,20.26C502.48,20.26,501.18,19.16,501.02,17.34L509.44,17.34C509.5,16.96,509.52,16.6,509.52,16.22C509.52,12.98,507.3,10.8,504.16,10.8C500.9,10.8,498.66,13.02,498.66,16.48C498.66,19.94,501,22.18,504.16,22.18C506.86,22.18,508.6,20.64,509.22,18.72ZM511,16.44C511,19.84,513.3,22.18,516.16,22.18C518,22.18,519.32,21.3,520.02,20.36L520.02,22L522.32,22L522.32,10.98L520.02,10.98L520.02,12.58C519.34,11.68,518.06,10.8,516.2,10.8C513.3,10.8,511,13.04,511,16.44ZM520.02,16.48C520.02,18.86,518.4,20.2,516.68,20.2C514.98,20.2,513.34,18.82,513.34,16.44C513.34,14.06,514.98,12.78,516.68,12.78C518.4,12.78,520.02,14.12,520.02,16.48ZM540.94,22L543.2,22L543.2,15.5C543.2,12.42,541.24,10.8,538.66,10.8C537.06,10.8,535.5,11.64,534.82,12.98C534.06,11.54,532.6,10.8,530.86,10.8C529.54,10.8,528.34,11.34,527.6,12.24L527.6,10.98L525.32,10.98L525.32,22L527.6,22L527.6,15.84C527.6,13.82,528.7,12.78,530.38,12.78C532.04,12.78,533.14,13.82,533.14,15.84L533.14,22L535.4,22L535.4,15.84C535.4,13.82,536.5,12.78,538.18,12.78C539.84,12.78,540.94,13.82,540.94,15.84L540.94,22ZM554.32,18.92C554.2,14.94,547.98,16.18,547.98,13.96C547.98,13.22,548.62,12.72,549.84,12.72C551.08,12.72,551.82,13.38,551.9,14.34L554.18,14.34C554.06,12.14,552.42,10.8,549.92,10.8C547.32,10.8,545.68,12.22,545.68,13.98C545.68,18.02,552.08,16.78,552.08,18.94C552.08,19.7,551.38,20.26,550.06,20.26C548.8,20.26,547.94,19.52,547.86,18.62L545.5,18.62C545.6,20.62,547.46,22.18,550.1,22.18C552.7,22.18,554.32,20.78,554.32,18.92ZM559.14,20.68C559.14,19.86,558.5,19.22,557.7,19.22C556.88,19.22,556.24,19.86,556.24,20.68C556.24,21.5,556.88,22.14,557.7,22.14C558.5,22.14,559.14,21.5,559.14,20.68ZM6.04,38.1L1.5,38.1L1.5,52L6.04,52C10.5,52,13.42,49.38,13.42,45.1C13.42,40.8,10.5,38.1,6.04,38.1ZM3.78,50.14L3.78,39.96L6.04,39.96C9.32,39.96,11.08,41.92,11.08,45.1C11.08,48.26,9.32,50.14,6.04,50.14L3.78,50.14ZM20.32,42.72C22.02,42.72,23.36,43.8,23.4,45.5L17.3,45.5C17.54,43.76,18.78,42.72,20.32,42.72ZM25.48,48.72L23.02,48.72C22.6,49.58,21.82,50.26,20.42,50.26C18.74,50.26,17.44,49.16,17.28,47.34L25.7,47.34C25.76,46.96,25.78,46.6,25.78,46.22C25.78,42.98,23.56,40.8,20.42,40.8C17.16,40.8,14.92,43.02,14.92,46.48C14.92,49.94,17.26,52.18,20.42,52.18C23.12,52.18,24.86,50.64,25.48,48.72ZM26.72,40.98L30.9,52L33.62,52L37.82,40.98L35.4,40.98L32.28,49.96L29.16,40.98L26.72,40.98ZM44.18,42.72C45.88,42.72,47.22,43.8,47.26,45.5L41.16,45.5C41.4,43.76,42.64,42.72,44.18,42.72ZM49.34,48.72L46.88,48.72C46.46,49.58,45.68,50.26,44.28,50.26C42.6,50.26,41.3,49.16,41.14,47.34L49.56,47.34C49.62,46.96,49.64,46.6,49.64,46.22C49.64,42.98,47.42,40.8,44.28,40.8C41.02,40.8,38.78,43.02,38.78,46.48C38.78,49.94,41.12,52.18,44.28,52.18C46.98,52.18,48.72,50.64,49.34,48.72ZM51.88,52L54.16,52L54.16,37.2L51.88,37.2L51.88,52ZM67.66,46.48C67.66,43.02,65.18,40.8,62.04,40.8C58.9,40.8,56.42,43.02,56.42,46.48C56.42,49.94,58.8,52.18,61.94,52.18C65.1,52.18,67.66,49.94,67.66,46.48ZM58.74,46.48C58.74,43.98,60.28,42.78,62,42.78C63.7,42.78,65.32,43.98,65.32,46.48C65.32,48.98,63.64,50.2,61.94,50.2C60.22,50.2,58.74,48.98,58.74,46.48ZM72.2,42.6L72.2,40.98L69.92,40.98L69.92,57.24L72.2,57.24L72.2,50.4C72.92,51.26,74.22,52.18,76.04,52.18C78.94,52.18,81.22,49.84,81.22,46.44C81.22,43.04,78.94,40.8,76.04,40.8C74.24,40.8,72.9,41.68,72.2,42.6ZM78.9,46.44C78.9,48.82,77.26,50.2,75.54,50.2C73.84,50.2,72.2,48.86,72.2,46.48C72.2,44.12,73.84,42.78,75.54,42.78C77.26,42.78,78.9,44.06,78.9,46.44ZM83.48,52L85.76,52L85.76,40.98L83.48,40.98L83.48,52ZM84.64,39.52C85.44,39.52,86.08,38.88,86.08,38.06C86.08,37.24,85.44,36.6,84.64,36.6C83.82,36.6,83.18,37.24,83.18,38.06C83.18,38.88,83.82,39.52,84.64,39.52ZM96.58,52L98.84,52L98.84,45.5C98.84,42.42,96.9,40.8,94.32,40.8C93,40.8,91.78,41.34,91.04,42.24L91.04,40.98L88.76,40.98L88.76,52L91.04,52L91.04,45.84C91.04,43.82,92.14,42.78,93.82,42.78C95.48,42.78,96.58,43.82,96.58,45.84L96.58,52ZM100.98,46.44C100.98,49.84,103.28,52.18,106.18,52.18C107.98,52.18,109.3,51.28,110,50.34L110,52.18C110,54.38,108.68,55.46,106.92,55.46C105.34,55.46,104.12,54.68,103.78,53.54L101.52,53.54C101.8,55.98,103.98,57.44,106.92,57.44C110.36,57.44,112.3,55.18,112.3,52.18L112.3,40.98L110,40.98L110,42.58C109.32,41.64,107.98,40.8,106.18,40.8C103.28,40.8,100.98,43.04,100.98,46.44ZM110,46.48C110,48.86,108.38,50.2,106.66,50.2C104.96,50.2,103.32,48.82,103.32,46.44C103.32,44.06,104.96,42.78,106.66,42.78C108.38,42.78,110,44.12,110,46.48ZM128.72,48.92C128.6,44.94,122.38,46.18,122.38,43.96C122.38,43.22,123.02,42.72,124.24,42.72C125.48,42.72,126.22,43.38,126.3,44.34L128.58,44.34C128.46,42.14,126.82,40.8,124.32,40.8C121.72,40.8,120.08,42.22,120.08,43.98C120.08,48.02,126.48,46.78,126.48,48.94C126.48,49.7,125.78,50.26,124.46,50.26C123.2,50.26,122.34,49.52,122.26,48.62L119.9,48.62C120,50.62,121.86,52.18,124.5,52.18C127.1,52.18,128.72,50.78,128.72,48.92ZM141.68,46.48C141.68,43.02,139.2,40.8,136.06,40.8C132.92,40.8,130.44,43.02,130.44,46.48C130.44,49.94,132.82,52.18,135.96,52.18C139.12,52.18,141.68,49.94,141.68,46.48ZM132.76,46.48C132.76,43.98,134.3,42.78,136.02,42.78C137.72,42.78,139.34,43.98,139.34,46.48C139.34,48.98,137.66,50.2,135.96,50.2C134.24,50.2,132.76,48.98,132.76,46.48ZM144.22,52L146.52,52L146.52,42.84L148.56,42.84L148.56,40.98L146.52,40.98L146.52,40.2C146.52,38.94,147,38.46,148.4,38.46L148.4,36.56C145.52,36.56,144.22,37.66,144.22,40.2L144.22,40.98L142.92,40.98L142.92,42.84L144.22,42.84L144.22,52ZM150.94,48.94C150.94,51.18,152.16,52,154.12,52L155.92,52L155.92,50.1L154.52,50.1C153.56,50.1,153.24,49.76,153.24,48.94L153.24,42.84L155.92,42.84L155.92,40.98L153.24,40.98L153.24,38.24L150.94,38.24L150.94,40.98L149.64,40.98L149.64,42.84L150.94,42.84L150.94,48.94ZM160.16,52L162.56,52L164.78,43.86L167,52L169.4,52L172.82,40.98L170.58,40.98L168.3,49.8L166.06,40.98L163.68,40.98L161.34,49.84L159.04,40.98L156.72,40.98L160.16,52ZM173.76,46.44C173.76,49.84,176.06,52.18,178.92,52.18C180.76,52.18,182.08,51.3,182.78,50.36L182.78,52L185.08,52L185.08,40.98L182.78,40.98L182.78,42.58C182.1,41.68,180.82,40.8,178.96,40.8C176.06,40.8,173.76,43.04,173.76,46.44ZM182.78,46.48C182.78,48.86,181.16,50.2,179.44,50.2C177.74,50.2,176.1,48.82,176.1,46.44C176.1,44.06,177.74,42.78,179.44,42.78C181.16,42.78,182.78,44.12,182.78,46.48ZM190.36,46.2C190.36,43.86,191.4,43.16,193.08,43.16L193.66,43.16L193.66,40.8C192.1,40.8,191,41.48,190.36,42.58L190.36,40.98L188.08,40.98L188.08,52L190.36,52L190.36,46.2ZM200.4,42.72C202.1,42.72,203.44,43.8,203.48,45.5L197.38,45.5C197.62,43.76,198.86,42.72,200.4,42.72ZM205.56,48.72L203.1,48.72C202.68,49.58,201.9,50.26,200.5,50.26C198.82,50.26,197.52,49.16,197.36,47.34L205.78,47.34C205.84,46.96,205.86,46.6,205.86,46.22C205.86,42.98,203.64,40.8,200.5,40.8C197.24,40.8,195,43.02,195,46.48C195,49.94,197.34,52.18,200.5,52.18C203.2,52.18,204.94,50.64,205.56,48.72ZM215.58,42.6L215.58,40.98L213.3,40.98L213.3,57.24L215.58,57.24L215.58,50.4C216.3,51.26,217.6,52.18,219.42,52.18C222.32,52.18,224.6,49.84,224.6,46.44C224.6,43.04,222.32,40.8,219.42,40.8C217.62,40.8,216.28,41.68,215.58,42.6ZM222.28,46.44C222.28,48.82,220.64,50.2,218.92,50.2C217.22,50.2,215.58,48.86,215.58,46.48C215.58,44.12,217.22,42.78,218.92,42.78C220.64,42.78,222.28,44.06,222.28,46.44ZM229.14,46.2C229.14,43.86,230.18,43.16,231.86,43.16L232.44,43.16L232.44,40.8C230.88,40.8,229.78,41.48,229.14,42.58L229.14,40.98L226.86,40.98L226.86,52L229.14,52L229.14,46.2ZM245.04,46.48C245.04,43.02,242.56,40.8,239.42,40.8C236.28,40.8,233.8,43.02,233.8,46.48C233.8,49.94,236.18,52.18,239.32,52.18C242.48,52.18,245.04,49.94,245.04,46.48ZM236.12,46.48C236.12,43.98,237.66,42.78,239.38,42.78C241.08,42.78,242.7,43.98,242.7,46.48C242.7,48.98,241.02,50.2,239.32,50.2C237.6,50.2,236.12,48.98,236.12,46.48ZM262.92,52L265.18,52L265.18,45.5C265.18,42.42,263.22,40.8,260.64,40.8C259.04,40.8,257.48,41.64,256.8,42.98C256.04,41.54,254.58,40.8,252.84,40.8C251.52,40.8,250.32,41.34,249.58,42.24L249.58,40.98L247.3,40.98L247.3,52L249.58,52L249.58,45.84C249.58,43.82,250.68,42.78,252.36,42.78C254.02,42.78,255.12,43.82,255.12,45.84L255.12,52L257.38,52L257.38,45.84C257.38,43.82,258.48,42.78,260.16,42.78C261.82,42.78,262.92,43.82,262.92,45.84L262.92,52ZM270.36,42.6L270.36,40.98L268.08,40.98L268.08,57.24L270.36,57.24L270.36,50.4C271.08,51.26,272.38,52.18,274.2,52.18C277.1,52.18,279.38,49.84,279.38,46.44C279.38,43.04,277.1,40.8,274.2,40.8C272.4,40.8,271.06,41.68,270.36,42.6ZM277.06,46.44C277.06,48.82,275.42,50.2,273.7,50.2C272,50.2,270.36,48.86,270.36,46.48C270.36,44.12,272,42.78,273.7,42.78C275.42,42.78,277.06,44.06,277.06,46.44ZM282,48.94C282,51.18,283.22,52,285.18,52L286.98,52L286.98,50.1L285.58,50.1C284.62,50.1,284.3,49.76,284.3,48.94L284.3,42.84L286.98,42.84L286.98,40.98L284.3,40.98L284.3,38.24L282,38.24L282,40.98L280.7,40.98L280.7,42.84L282,42.84L282,48.94ZM289.08,52L291.36,52L291.36,37.2L289.08,37.2L289.08,52ZM298.7,49.38L295.6,40.98L293.06,40.98L297.4,51.82L295.16,57.18L297.52,57.18L304.28,40.98L301.92,40.98L298.7,49.38ZM313.34,52L315.74,52L317.96,43.86L320.18,52L322.58,52L326,40.98L323.76,40.98L321.48,49.8L319.24,40.98L316.86,40.98L314.52,49.84L312.22,40.98L309.9,40.98L313.34,52ZM327.7,52L329.98,52L329.98,40.98L327.7,40.98L327.7,52ZM328.86,39.52C329.66,39.52,330.3,38.88,330.3,38.06C330.3,37.24,329.66,36.6,328.86,36.6C328.04,36.6,327.4,37.24,327.4,38.06C327.4,38.88,328.04,39.52,328.86,39.52ZM333.34,48.94C333.34,51.18,334.56,52,336.52,52L338.32,52L338.32,50.1L336.92,50.1C335.96,50.1,335.64,49.76,335.64,48.94L335.64,42.84L338.32,42.84L338.32,40.98L335.64,40.98L335.64,38.24L333.34,38.24L333.34,40.98L332.04,40.98L332.04,42.84L333.34,42.84L333.34,48.94ZM340.42,52L342.7,52L342.7,45.84C342.7,43.82,343.8,42.78,345.48,42.78C347.14,42.78,348.24,43.82,348.24,45.84L348.24,52L350.5,52L350.5,45.5C350.5,42.42,348.58,40.8,346.12,40.8C344.7,40.8,343.46,41.34,342.7,42.26L342.7,37.2L340.42,37.2L340.42,52ZM357.84,46.44C357.84,49.84,360.14,52.18,363,52.18C364.84,52.18,366.16,51.3,366.86,50.36L366.86,52L369.16,52L369.16,40.98L366.86,40.98L366.86,42.58C366.18,41.68,364.9,40.8,363.04,40.8C360.14,40.8,357.84,43.04,357.84,46.44ZM366.86,46.48C366.86,48.86,365.24,50.2,363.52,50.2C361.82,50.2,360.18,48.82,360.18,46.44C360.18,44.06,361.82,42.78,363.52,42.78C365.24,42.78,366.86,44.12,366.86,46.48ZM379.64,42.62L379.64,37.2L377.36,37.2L377.36,52L379.64,52L379.64,50.4C380.36,51.36,381.66,52.18,383.48,52.18C386.38,52.18,388.66,49.84,388.66,46.44C388.66,43.04,386.4,40.8,383.48,40.8C381.74,40.8,380.36,41.62,379.64,42.62ZM386.34,46.44C386.34,48.82,384.7,50.2,382.98,50.2C381.28,50.2,379.64,48.86,379.64,46.48C379.64,44.12,381.28,42.78,382.98,42.78C384.7,42.78,386.34,44.06,386.34,46.44ZM400.9,40.98L398.62,40.98L398.62,47.12C398.62,49.14,397.52,50.18,395.84,50.18C394.18,50.18,393.08,49.14,393.08,47.12L393.08,40.98L390.82,40.98L390.82,47.46C390.82,50.54,392.78,52.16,395.36,52.16C396.66,52.16,397.9,51.62,398.62,50.68L398.62,52L400.9,52L400.9,40.98ZM412.12,48.92C412,44.94,405.78,46.18,405.78,43.96C405.78,43.22,406.42,42.72,407.64,42.72C408.88,42.72,409.62,43.38,409.7,44.34L411.98,44.34C411.86,42.14,410.22,40.8,407.72,40.8C405.12,40.8,403.48,42.22,403.48,43.98C403.48,48.02,409.88,46.78,409.88,48.94C409.88,49.7,409.18,50.26,407.86,50.26C406.6,50.26,405.74,49.52,405.66,48.62L403.3,48.62C403.4,50.62,405.26,52.18,407.9,52.18C410.5,52.18,412.12,50.78,412.12,48.92ZM414.58,52L416.86,52L416.86,40.98L414.58,40.98L414.58,52ZM415.74,39.52C416.54,39.52,417.18,38.88,417.18,38.06C417.18,37.24,416.54,36.6,415.74,36.6C414.92,36.6,414.28,37.24,414.28,38.06C414.28,38.88,414.92,39.52,415.74,39.52ZM427.68,52L429.94,52L429.94,45.5C429.94,42.42,428,40.8,425.42,40.8C424.1,40.8,422.88,41.34,422.14,42.24L422.14,40.98L419.86,40.98L419.86,52L422.14,52L422.14,45.84C422.14,43.82,423.24,42.78,424.92,42.78C426.58,42.78,427.68,43.82,427.68,45.84L427.68,52ZM437.48,42.72C439.18,42.72,440.52,43.8,440.56,45.5L434.46,45.5C434.7,43.76,435.94,42.72,437.48,42.72ZM442.64,48.72L440.18,48.72C439.76,49.58,438.98,50.26,437.58,50.26C435.9,50.26,434.6,49.16,434.44,47.34L442.86,47.34C442.92,46.96,442.94,46.6,442.94,46.22C442.94,42.98,440.72,40.8,437.58,40.8C434.32,40.8,432.08,43.02,432.08,46.48C432.08,49.94,434.42,52.18,437.58,52.18C440.28,52.18,442.02,50.64,442.64,48.72ZM453.4,48.92C453.28,44.94,447.06,46.18,447.06,43.96C447.06,43.22,447.7,42.72,448.92,42.72C450.16,42.72,450.9,43.38,450.98,44.34L453.26,44.34C453.14,42.14,451.5,40.8,449,40.8C446.4,40.8,444.76,42.22,444.76,43.98C444.76,48.02,451.16,46.78,451.16,48.94C451.16,49.7,450.46,50.26,449.14,50.26C447.88,50.26,447.02,49.52,446.94,48.62L444.58,48.62C444.68,50.62,446.54,52.18,449.18,52.18C451.78,52.18,453.4,50.78,453.4,48.92ZM464.08,48.92C463.96,44.94,457.74,46.18,457.74,43.96C457.74,43.22,458.38,42.72,459.6,42.72C460.84,42.72,461.58,43.38,461.66,44.34L463.94,44.34C463.82,42.14,462.18,40.8,459.68,40.8C457.08,40.8,455.44,42.22,455.44,43.98C455.44,48.02,461.84,46.78,461.84,48.94C461.84,49.7,461.14,50.26,459.82,50.26C458.56,50.26,457.7,49.52,457.62,48.62L455.26,48.62C455.36,50.62,457.22,52.18,459.86,52.18C462.46,52.18,464.08,50.78,464.08,48.92ZM466.78,45.72L475,45.72L475,43.8L466.78,43.8L466.78,45.72ZM488.74,46.48C488.74,43.02,486.26,40.8,483.12,40.8C479.98,40.8,477.5,43.02,477.5,46.48C477.5,49.94,479.88,52.18,483.02,52.18C486.18,52.18,488.74,49.94,488.74,46.48ZM479.82,46.48C479.82,43.98,481.36,42.78,483.08,42.78C484.78,42.78,486.4,43.98,486.4,46.48C486.4,48.98,484.72,50.2,483.02,50.2C481.3,50.2,479.82,48.98,479.82,46.48ZM493.28,46.2C493.28,43.86,494.32,43.16,496,43.16L496.58,43.16L496.58,40.8C495.02,40.8,493.92,41.48,493.28,42.58L493.28,40.98L491,40.98L491,52L493.28,52L493.28,46.2ZM498.68,52L500.96,52L500.96,40.98L498.68,40.98L498.68,52ZM499.84,39.52C500.64,39.52,501.28,38.88,501.28,38.06C501.28,37.24,500.64,36.6,499.84,36.6C499.02,36.6,498.38,37.24,498.38,38.06C498.38,38.88,499.02,39.52,499.84,39.52ZM508.6,42.72C510.3,42.72,511.64,43.8,511.68,45.5L505.58,45.5C505.82,43.76,507.06,42.72,508.6,42.72ZM513.76,48.72L511.3,48.72C510.88,49.58,510.1,50.26,508.7,50.26C507.02,50.26,505.72,49.16,505.56,47.34L513.98,47.34C514.04,46.96,514.06,46.6,514.06,46.22C514.06,42.98,511.84,40.8,508.7,40.8C505.44,40.8,503.2,43.02,503.2,46.48C503.2,49.94,505.54,52.18,508.7,52.18C511.4,52.18,513.14,50.64,513.76,48.72ZM524.12,52L526.38,52L526.38,45.5C526.38,42.42,524.44,40.8,521.86,40.8C520.54,40.8,519.32,41.34,518.58,42.24L518.58,40.98L516.3,40.98L516.3,52L518.58,52L518.58,45.84C518.58,43.82,519.68,42.78,521.36,42.78C523.02,42.78,524.12,43.82,524.12,45.84L524.12,52ZM529.64,48.94C529.64,51.18,530.86,52,532.82,52L534.62,52L534.62,50.1L533.22,50.1C532.26,50.1,531.94,49.76,531.94,48.94L531.94,42.84L534.62,42.84L534.62,40.98L531.94,40.98L531.94,38.24L529.64,38.24L529.64,40.98L528.34,40.98L528.34,42.84L529.64,42.84L529.64,48.94ZM541.36,42.72C543.06,42.72,544.4,43.8,544.44,45.5L538.34,45.5C538.58,43.76,539.82,42.72,541.36,42.72ZM546.52,48.72L544.06,48.72C543.64,49.58,542.86,50.26,541.46,50.26C539.78,50.26,538.48,49.16,538.32,47.34L546.74,47.34C546.8,46.96,546.82,46.6,546.82,46.22C546.82,42.98,544.6,40.8,541.46,40.8C538.2,40.8,535.96,43.02,535.96,46.48C535.96,49.94,538.3,52.18,541.46,52.18C544.16,52.18,545.9,50.64,546.52,48.72ZM548.3,46.44C548.3,49.84,550.6,52.18,553.5,52.18C555.3,52.18,556.62,51.34,557.32,50.34L557.32,52L559.62,52L559.62,37.2L557.32,37.2L557.32,42.52C556.48,41.48,554.96,40.8,553.52,40.8C550.6,40.8,548.3,43.04,548.3,46.44ZM557.32,46.48C557.32,48.86,555.7,50.2,553.98,50.2C552.28,50.2,550.64,48.82,550.64,46.44C550.64,44.06,552.28,42.78,553.98,42.78C555.7,42.78,557.32,44.12,557.32,46.48ZM567.06,46.44C567.06,49.84,569.36,52.18,572.22,52.18C574.06,52.18,575.38,51.3,576.08,50.36L576.08,52L578.38,52L578.38,40.98L576.08,40.98L576.08,42.58C575.4,41.68,574.12,40.8,572.26,40.8C569.36,40.8,567.06,43.04,567.06,46.44ZM576.08,46.48C576.08,48.86,574.46,50.2,572.74,50.2C571.04,50.2,569.4,48.82,569.4,46.44C569.4,44.06,571.04,42.78,572.74,42.78C574.46,42.78,576.08,44.12,576.08,46.48ZM583.66,42.6L583.66,40.98L581.38,40.98L581.38,57.24L583.66,57.24L583.66,50.4C584.38,51.26,585.68,52.18,587.5,52.18C590.4,52.18,592.68,49.84,592.68,46.44C592.68,43.04,590.4,40.8,587.5,40.8C585.7,40.8,584.36,41.68,583.66,42.6ZM590.36,46.44C590.36,48.82,588.72,50.2,587,50.2C585.3,50.2,583.66,48.86,583.66,46.48C583.66,44.12,585.3,42.78,587,42.78C588.72,42.78,590.36,44.06,590.36,46.44ZM597.22,42.6L597.22,40.98L594.94,40.98L594.94,57.24L597.22,57.24L597.22,50.4C597.94,51.26,599.24,52.18,601.06,52.18C603.96,52.18,606.24,49.84,606.24,46.44C606.24,43.04,603.96,40.8,601.06,40.8C599.26,40.8,597.92,41.68,597.22,42.6ZM603.92,46.44C603.92,48.82,602.28,50.2,600.56,50.2C598.86,50.2,597.22,48.86,597.22,46.48C597.22,44.12,598.86,42.78,600.56,42.78C602.28,42.78,603.92,44.06,603.92,46.44ZM610.78,46.2C610.78,43.86,611.82,43.16,613.5,43.16L614.08,43.16L614.08,40.8C612.52,40.8,611.42,41.48,610.78,42.58L610.78,40.98L608.5,40.98L608.5,52L610.78,52L610.78,46.2ZM626.68,46.48C626.68,43.02,624.2,40.8,621.06,40.8C617.92,40.8,615.44,43.02,615.44,46.48C615.44,49.94,617.82,52.18,620.96,52.18C624.12,52.18,626.68,49.94,626.68,46.48ZM617.76,46.48C617.76,43.98,619.3,42.78,621.02,42.78C622.72,42.78,624.34,43.98,624.34,46.48C624.34,48.98,622.66,50.2,620.96,50.2C619.24,50.2,617.76,48.98,617.76,46.48ZM628.18,46.44C628.18,49.84,630.48,52.18,633.34,52.18C635.18,52.18,636.5,51.3,637.2,50.36L637.2,52L639.5,52L639.5,40.98L637.2,40.98L637.2,42.58C636.52,41.68,635.24,40.8,633.38,40.8C630.48,40.8,628.18,43.04,628.18,46.44ZM637.2,46.48C637.2,48.86,635.58,50.2,633.86,50.2C632.16,50.2,630.52,48.82,630.52,46.44C630.52,44.06,632.16,42.78,633.86,42.78C635.58,42.78,637.2,44.12,637.2,46.48ZM641.74,46.48C641.74,49.94,643.98,52.18,647.14,52.18C649.84,52.18,651.6,50.68,652.22,48.52L649.76,48.52C649.34,49.66,648.5,50.26,647.14,50.26C645.3,50.26,644.08,48.9,644.08,46.48C644.08,44.08,645.3,42.72,647.14,42.72C648.5,42.72,649.38,43.4,649.76,44.46L652.22,44.46C651.6,42.14,649.84,40.8,647.14,40.8C643.98,40.8,641.74,43.04,641.74,46.48ZM654.5,52L656.78,52L656.78,45.84C656.78,43.82,657.88,42.78,659.56,42.78C661.22,42.78,662.32,43.82,662.32,45.84L662.32,52L664.58,52L664.58,45.5C664.58,42.42,662.66,40.8,660.2,40.8C658.78,40.8,657.54,41.34,656.78,42.26L656.78,37.2L654.5,37.2L654.5,52ZM669.84,50.68C669.84,49.86,669.2,49.22,668.4,49.22C667.58,49.22,666.94,49.86,666.94,50.68C666.94,51.5,667.58,52.14,668.4,52.14C669.2,52.14,669.84,51.5,669.84,50.68Z" fill="#5A5A5A" fill-opacity="1"/></g></svg>