<svg xmlns="http://www.w3.org/2000/svg" xmlns:xlink="http://www.w3.org/1999/xlink" fill="none" version="1.1" width="887" height="240" viewBox="0 0 887 240"><g><path d="M34.624,62L46.208,62L29.952,17.072L17.28,17.072L1.024,62L12.48,62L15.168,54.064L31.936,54.064L34.624,62ZM29.12,45.616L18.048,45.616L23.552,29.168L29.12,45.616ZM51.136,62L62.08,62L62.08,17.072L51.136,17.072L51.136,62ZM69.376,44.08L97.536,44.08L97.536,34.992L69.376,34.992L69.376,44.08ZM118.08,31.344L118.08,14.64L107.136,14.64L107.136,62L118.08,62L118.08,57.008C120.064,60.144,123.84,62.512,129.088,62.512C137.856,62.512,144.832,55.344,144.832,44.08C144.832,32.816,137.92,25.776,129.088,25.776C123.968,25.776,120.064,28.144,118.08,31.344ZM133.696,44.08C133.696,49.776,129.984,52.976,125.824,52.976C121.728,52.976,118.016,49.84,118.016,44.144C118.016,38.448,121.728,35.312,125.824,35.312C129.984,35.312,133.696,38.384,133.696,44.08ZM148.416,44.08C148.416,55.344,155.392,62.512,164.096,62.512C169.408,62.512,173.184,60.08,175.168,56.944L175.168,62L186.112,62L186.112,26.288L175.168,26.288L175.168,31.344C173.248,28.208,169.472,25.776,164.16,25.776C155.392,25.776,148.416,32.816,148.416,44.08ZM175.168,44.144C175.168,49.84,171.52,52.976,167.36,52.976C163.264,52.976,159.552,49.776,159.552,44.08C159.552,38.384,163.264,35.312,167.36,35.312C171.52,35.312,175.168,38.448,175.168,44.144ZM223.04,51.632C222.848,38.32,203.52,42.352,203.52,36.656C203.52,34.928,204.928,33.904,207.488,33.904C210.56,33.904,212.416,35.504,212.736,37.936L222.848,37.936C222.144,30.896,217.024,25.776,207.808,25.776C198.464,25.776,193.28,30.768,193.28,36.848C193.28,49.968,212.736,45.808,212.736,51.568C212.736,53.168,211.264,54.448,208.448,54.448C205.44,54.448,203.2,52.784,202.944,50.288L192.128,50.288C192.64,57.2,199.04,62.512,208.576,62.512C217.536,62.512,223.04,57.84,223.04,51.632ZM245.504,34.544C249.152,34.544,252.224,36.784,252.224,40.688L238.528,40.688C239.168,36.72,241.92,34.544,245.504,34.544ZM262.592,50.16L250.944,50.16C250.048,52.08,248.32,53.616,245.248,53.616C241.728,53.616,238.848,51.44,238.464,46.768L263.232,46.768C263.36,45.68,263.424,44.592,263.424,43.568C263.424,32.688,256.064,25.776,245.632,25.776C235.008,25.776,227.584,32.816,227.584,44.144C227.584,55.472,235.136,62.512,245.632,62.512C254.528,62.512,260.864,57.136,262.592,50.16ZM266.432,71.664L273.6,71.664L281.728,50.928L270.528,50.928L266.432,71.664ZM302.4,62L313.344,62L313.344,35.376L319.232,35.376L319.232,26.288L313.344,26.288L313.344,25.968C313.344,22.192,314.816,20.912,319.04,21.168L319.04,11.888C308.16,11.312,302.4,15.92,302.4,25.264L302.4,26.288L298.432,26.288L298.432,35.376L302.4,35.376L302.4,62ZM359.616,26.288L348.672,26.288L348.672,45.68C348.672,50.544,345.984,53.232,341.76,53.232C337.664,53.232,334.912,50.544,334.912,45.68L334.912,26.288L324.032,26.288L324.032,47.152C324.032,56.688,329.6,62.384,337.856,62.384C342.656,62.384,346.496,60.208,348.672,57.136L348.672,62L359.616,62L359.616,26.288ZM369.216,49.584C369.216,58.864,374.4,62,381.824,62L387.392,62L387.392,52.72L383.488,52.72C381.056,52.72,380.16,51.824,380.16,49.712L380.16,35.376L387.328,35.376L387.328,26.288L380.16,26.288L380.16,17.584L369.216,17.584L369.216,26.288L364.864,26.288L364.864,35.376L369.216,35.376L369.216,49.584ZM428.736,26.288L417.792,26.288L417.792,45.68C417.792,50.544,415.104,53.232,410.88,53.232C406.784,53.232,404.032,50.544,404.032,45.68L404.032,26.288L393.152,26.288L393.152,47.152C393.152,56.688,398.72,62.384,406.976,62.384C411.776,62.384,415.616,60.208,417.792,57.136L417.792,62L428.736,62L428.736,26.288ZM447.552,45.424C447.552,39.28,450.56,37.488,455.744,37.488L458.752,37.488L458.752,25.904C453.952,25.904,450.048,28.464,447.552,32.24L447.552,26.288L436.608,26.288L436.608,62L447.552,62L447.552,45.424ZM479.744,34.544C483.392,34.544,486.464,36.784,486.464,40.688L472.768,40.688C473.408,36.72,476.16,34.544,479.744,34.544ZM496.832,50.16L485.184,50.16C484.288,52.08,482.56,53.616,479.488,53.616C475.968,53.616,473.088,51.44,472.704,46.768L497.472,46.768C497.6,45.68,497.664,44.592,497.664,43.568C497.664,32.688,490.304,25.776,479.872,25.776C469.248,25.776,461.824,32.816,461.824,44.144C461.824,55.472,469.376,62.512,479.872,62.512C488.768,62.512,495.104,57.136,496.832,50.16ZM502.784,44.08L530.944,44.08L530.944,34.992L502.784,34.992L502.784,44.08ZM575.488,44.144C575.488,32.816,567.424,25.776,556.928,25.776C546.496,25.776,538.368,32.816,538.368,44.144C538.368,55.472,546.304,62.512,556.8,62.512C567.296,62.512,575.488,55.472,575.488,44.144ZM549.504,44.144C549.504,38.064,552.96,35.248,556.928,35.248C560.768,35.248,564.352,38.064,564.352,44.144C564.352,50.16,560.704,53.04,556.8,53.04C552.832,53.04,549.504,50.16,549.504,44.144ZM592.256,45.424C592.256,39.28,595.264,37.488,600.448,37.488L603.456,37.488L603.456,25.904C598.656,25.904,594.752,28.464,592.256,32.24L592.256,26.288L581.312,26.288L581.312,62L592.256,62L592.256,45.424ZM608.704,62L619.648,62L619.648,26.288L608.704,26.288L608.704,62ZM614.208,22.576C618.048,22.576,620.672,19.952,620.672,16.688C620.672,13.36,618.048,10.736,614.208,10.736C610.304,10.736,607.68,13.36,607.68,16.688C607.68,19.952,610.304,22.576,614.208,22.576ZM643.328,34.544C646.976,34.544,650.048,36.784,650.048,40.688L636.352,40.688C636.992,36.72,639.744,34.544,643.328,34.544ZM660.416,50.16L648.768,50.16C647.872,52.08,646.144,53.616,643.072,53.616C639.552,53.616,636.672,51.44,636.288,46.768L661.056,46.768C661.184,45.68,661.248,44.592,661.248,43.568C661.248,32.688,653.888,25.776,643.456,25.776C632.832,25.776,625.408,32.816,625.408,44.144C625.408,55.472,632.96,62.512,643.456,62.512C652.352,62.512,658.688,57.136,660.416,50.16ZM691.648,62L702.528,62L702.528,41.136C702.528,31.536,697.024,25.904,688.768,25.904C683.968,25.904,680.128,28.016,677.952,31.024L677.952,26.288L667.008,26.288L667.008,62L677.952,62L677.952,42.608C677.952,37.744,680.64,35.056,684.8,35.056C688.96,35.056,691.648,37.744,691.648,42.608L691.648,62ZM711.872,49.584C711.872,58.864,717.056,62,724.48,62L730.048,62L730.048,52.72L726.144,52.72C723.712,52.72,722.816,51.824,722.816,49.712L722.816,35.376L729.984,35.376L729.984,26.288L722.816,26.288L722.816,17.584L711.872,17.584L711.872,26.288L707.52,26.288L707.52,35.376L711.872,35.376L711.872,49.584ZM751.872,34.544C755.52,34.544,758.592,36.784,758.592,40.688L744.896,40.688C745.536,36.72,748.288,34.544,751.872,34.544ZM768.96,50.16L757.312,50.16C756.416,52.08,754.688,53.616,751.616,53.616C748.096,53.616,745.216,51.44,744.832,46.768L769.6,46.768C769.728,45.68,769.792,44.592,769.792,43.568C769.792,32.688,762.432,25.776,752,25.776C741.376,25.776,733.952,32.816,733.952,44.144C733.952,55.472,741.504,62.512,752,62.512C760.896,62.512,767.232,57.136,768.96,50.16ZM773.376,44.08C773.376,55.344,780.352,62.512,789.12,62.512C794.368,62.512,798.144,60.144,800.128,56.88L800.128,62L811.072,62L811.072,14.64L800.128,14.64L800.128,31.216C797.952,27.952,793.856,25.776,789.12,25.776C780.352,25.776,773.376,32.816,773.376,44.08ZM800.128,44.144C800.128,49.84,796.48,52.976,792.32,52.976C788.224,52.976,784.512,49.776,784.512,44.08C784.512,38.384,788.224,35.312,792.32,35.312C796.48,35.312,800.128,38.448,800.128,44.144ZM816.256,71.664L823.424,71.664L831.552,50.928L820.352,50.928L816.256,71.664ZM1.792,124.08C1.792,135.344,8.768,142.512,17.536,142.512C22.784,142.512,26.56,140.144,28.544,136.88L28.544,142L39.488,142L39.488,94.64L28.544,94.64L28.544,111.216C26.368,107.952,22.272,105.776,17.536,105.776C8.768,105.776,1.792,112.816,1.792,124.08ZM28.544,124.144C28.544,129.84,24.896,132.976,20.736,132.976C16.64,132.976,12.928,129.776,12.928,124.08C12.928,118.384,16.64,115.312,20.736,115.312C24.896,115.312,28.544,118.448,28.544,124.144ZM58.368,125.424C58.368,119.28,61.376,117.488,66.56,117.488L69.568,117.488L69.568,105.904C64.768,105.904,60.864,108.464,58.368,112.24L58.368,106.288L47.424,106.288L47.424,142L58.368,142L58.368,125.424ZM72.64,124.08C72.64,135.344,79.616,142.512,88.32,142.512C93.632,142.512,97.408,140.08,99.392,136.944L99.392,142L110.336,142L110.336,106.288L99.392,106.288L99.392,111.344C97.472,108.208,93.696,105.776,88.384,105.776C79.616,105.776,72.64,112.816,72.64,124.08ZM99.392,124.144C99.392,129.84,95.744,132.976,91.584,132.976C87.488,132.976,83.776,129.776,83.776,124.08C83.776,118.384,87.488,115.312,91.584,115.312C95.744,115.312,99.392,118.448,99.392,124.144ZM116.096,124.08C116.096,135.344,123.072,142.512,131.84,142.512C137.088,142.512,140.864,140.016,142.848,136.88L142.848,141.936C142.848,147.952,139.584,150.128,135.424,150.128C131.648,150.128,128.96,148.4,128.256,145.712L117.44,145.712C118.4,154.224,125.312,159.6,135.936,159.6C148.288,159.6,153.792,151.472,153.792,141.936L153.792,106.288L142.848,106.288L142.848,111.344C140.928,108.144,137.088,105.776,131.84,105.776C123.072,105.776,116.096,112.816,116.096,124.08ZM142.848,124.144C142.848,129.84,139.2,132.976,135.04,132.976C130.944,132.976,127.232,129.776,127.232,124.08C127.232,118.384,130.944,115.312,135.04,115.312C139.2,115.312,142.848,118.448,142.848,124.144ZM161.088,124.08L189.248,124.08L189.248,114.992L161.088,114.992L161.088,124.08ZM196.672,124.08C196.672,135.344,203.648,142.512,212.352,142.512C217.664,142.512,221.44,140.08,223.424,136.944L223.424,142L234.368,142L234.368,106.288L223.424,106.288L223.424,111.344C221.504,108.208,217.728,105.776,212.416,105.776C203.648,105.776,196.672,112.816,196.672,124.08ZM223.424,124.144C223.424,129.84,219.776,132.976,215.616,132.976C211.52,132.976,207.808,129.776,207.808,124.08C207.808,118.384,211.52,115.312,215.616,115.312C219.776,115.312,223.424,118.448,223.424,124.144ZM266.944,142L277.824,142L277.824,121.136C277.824,111.536,272.32,105.904,264.064,105.904C259.264,105.904,255.424,108.016,253.248,111.024L253.248,106.288L242.304,106.288L242.304,142L253.248,142L253.248,122.608C253.248,117.744,255.936,115.056,260.096,115.056C264.256,115.056,266.944,117.744,266.944,122.608L266.944,142ZM283.264,124.08C283.264,135.344,290.24,142.512,299.008,142.512C304.256,142.512,308.032,140.144,310.016,136.88L310.016,142L320.96,142L320.96,94.64L310.016,94.64L310.016,111.216C307.84,107.952,303.744,105.776,299.008,105.776C290.24,105.776,283.264,112.816,283.264,124.08ZM310.016,124.144C310.016,129.84,306.368,132.976,302.208,132.976C298.112,132.976,294.4,129.776,294.4,124.08C294.4,118.384,298.112,115.312,302.208,115.312C306.368,115.312,310.016,118.448,310.016,124.144ZM328.256,124.08L356.416,124.08L356.416,114.992L328.256,114.992L328.256,124.08ZM363.84,124.08C363.84,135.344,370.816,142.512,379.584,142.512C384.832,142.512,388.608,140.144,390.592,136.88L390.592,142L401.536,142L401.536,94.64L390.592,94.64L390.592,111.216C388.416,107.952,384.32,105.776,379.584,105.776C370.816,105.776,363.84,112.816,363.84,124.08ZM390.592,124.144C390.592,129.84,386.944,132.976,382.784,132.976C378.688,132.976,374.976,129.776,374.976,124.08C374.976,118.384,378.688,115.312,382.784,115.312C386.944,115.312,390.592,118.448,390.592,124.144ZM420.416,125.424C420.416,119.28,423.424,117.488,428.608,117.488L431.616,117.488L431.616,105.904C426.816,105.904,422.912,108.464,420.416,112.24L420.416,106.288L409.472,106.288L409.472,142L420.416,142L420.416,125.424ZM471.808,124.144C471.808,112.816,463.744,105.776,453.248,105.776C442.816,105.776,434.688,112.816,434.688,124.144C434.688,135.472,442.624,142.512,453.12,142.512C463.616,142.512,471.808,135.472,471.808,124.144ZM445.824,124.144C445.824,118.064,449.28,115.248,453.248,115.248C457.088,115.248,460.672,118.064,460.672,124.144C460.672,130.16,457.024,133.04,453.12,133.04C449.152,133.04,445.824,130.16,445.824,124.144ZM488.576,111.344L488.576,106.288L477.632,106.288L477.632,159.024L488.576,159.024L488.576,137.008C490.56,140.016,494.336,142.512,499.584,142.512C508.352,142.512,515.328,135.344,515.328,124.08C515.328,112.816,508.352,105.776,499.584,105.776C494.336,105.776,490.56,108.208,488.576,111.344ZM504.192,124.08C504.192,129.776,500.48,132.976,496.32,132.976C492.224,132.976,488.512,129.84,488.512,124.144C488.512,118.448,492.224,115.312,496.32,115.312C500.48,115.312,504.192,118.384,504.192,124.08ZM1.792,204.08C1.792,215.344,8.768,222.512,17.536,222.512C22.784,222.512,26.56,220.144,28.544,216.88L28.544,222L39.488,222L39.488,174.64L28.544,174.64L28.544,191.216C26.368,187.952,22.272,185.776,17.536,185.776C8.768,185.776,1.792,192.816,1.792,204.08ZM28.544,204.144C28.544,209.84,24.896,212.976,20.736,212.976C16.64,212.976,12.928,209.776,12.928,204.08C12.928,198.384,16.64,195.312,20.736,195.312C24.896,195.312,28.544,198.448,28.544,204.144ZM63.168,194.544C66.816,194.544,69.888,196.784,69.888,200.688L56.192,200.688C56.832,196.72,59.584,194.544,63.168,194.544ZM80.256,210.16L68.608,210.16C67.712,212.08,65.984,213.616,62.912,213.616C59.392,213.616,56.512,211.44,56.128,206.768L80.896,206.768C81.024,205.68,81.088,204.592,81.088,203.568C81.088,192.688,73.728,185.776,63.296,185.776C52.672,185.776,45.248,192.816,45.248,204.144C45.248,215.472,52.8,222.512,63.296,222.512C72.192,222.512,78.528,217.136,80.256,210.16ZM83.456,186.288L96.128,222L109.632,222L122.304,186.288L110.656,186.288L102.912,211.76L95.168,186.288L83.456,186.288ZM142.656,194.544C146.304,194.544,149.376,196.784,149.376,200.688L135.68,200.688C136.32,196.72,139.072,194.544,142.656,194.544ZM159.744,210.16L148.096,210.16C147.2,212.08,145.472,213.616,142.4,213.616C138.88,213.616,136,211.44,135.616,206.768L160.384,206.768C160.512,205.68,160.576,204.592,160.576,203.568C160.576,192.688,153.216,185.776,142.784,185.776C132.16,185.776,124.736,192.816,124.736,204.144C124.736,215.472,132.288,222.512,142.784,222.512C151.68,222.512,158.016,217.136,159.744,210.16ZM166.336,222L177.28,222L177.28,174.64L166.336,174.64L166.336,222ZM220.16,204.144C220.16,192.816,212.096,185.776,201.6,185.776C191.168,185.776,183.04,192.816,183.04,204.144C183.04,215.472,190.976,222.512,201.472,222.512C211.968,222.512,220.16,215.472,220.16,204.144ZM194.176,204.144C194.176,198.064,197.632,195.248,201.6,195.248C205.44,195.248,209.024,198.064,209.024,204.144C209.024,210.16,205.376,213.04,201.472,213.04C197.504,213.04,194.176,210.16,194.176,204.144ZM236.928,191.344L236.928,186.288L225.984,186.288L225.984,239.024L236.928,239.024L236.928,217.008C238.912,220.016,242.688,222.512,247.936,222.512C256.704,222.512,263.68,215.344,263.68,204.08C263.68,192.816,256.704,185.776,247.936,185.776C242.688,185.776,238.912,188.208,236.928,191.344ZM252.544,204.08C252.544,209.776,248.832,212.976,244.672,212.976C240.576,212.976,236.864,209.84,236.864,204.144C236.864,198.448,240.576,195.312,244.672,195.312C248.832,195.312,252.544,198.384,252.544,204.08ZM318.656,222L329.536,222L329.536,201.136C329.536,191.536,323.84,185.904,315.008,185.904C309.824,185.904,305.344,188.784,302.976,192.56C300.544,188.272,296.192,185.904,290.816,185.904C286.144,185.904,282.496,187.888,280.384,190.768L280.384,186.288L269.44,186.288L269.44,222L280.384,222L280.384,202.608C280.384,197.936,283.072,195.376,287.232,195.376C291.392,195.376,294.08,197.936,294.08,202.608L294.08,222L304.96,222L304.96,202.608C304.96,197.936,307.648,195.376,311.808,195.376C315.968,195.376,318.656,197.936,318.656,202.608L318.656,222ZM352.96,194.544C356.608,194.544,359.68,196.784,359.68,200.688L345.984,200.688C346.624,196.72,349.376,194.544,352.96,194.544ZM370.048,210.16L358.4,210.16C357.504,212.08,355.776,213.616,352.704,213.616C349.184,213.616,346.304,211.44,345.92,206.768L370.688,206.768C370.816,205.68,370.88,204.592,370.88,203.568C370.88,192.688,363.52,185.776,353.088,185.776C342.464,185.776,335.04,192.816,335.04,204.144C335.04,215.472,342.592,222.512,353.088,222.512C361.984,222.512,368.32,217.136,370.048,210.16ZM401.28,222L412.16,222L412.16,201.136C412.16,191.536,406.656,185.904,398.4,185.904C393.6,185.904,389.76,188.016,387.584,191.024L387.584,186.288L376.64,186.288L376.64,222L387.584,222L387.584,202.608C387.584,197.744,390.272,195.056,394.432,195.056C398.592,195.056,401.28,197.744,401.28,202.608L401.28,222ZM421.504,209.584C421.504,218.864,426.688,222,434.112,222L439.68,222L439.68,212.72L435.776,212.72C433.344,212.72,432.448,211.824,432.448,209.712L432.448,195.376L439.616,195.376L439.616,186.288L432.448,186.288L432.448,177.584L421.504,177.584L421.504,186.288L417.152,186.288L417.152,195.376L421.504,195.376L421.504,209.584ZM470.272,191.344L470.272,186.288L459.328,186.288L459.328,239.024L470.272,239.024L470.272,217.008C472.256,220.016,476.032,222.512,481.28,222.512C490.048,222.512,497.024,215.344,497.024,204.08C497.024,192.816,490.048,185.776,481.28,185.776C476.032,185.776,472.256,188.208,470.272,191.344ZM485.888,204.08C485.888,209.776,482.176,212.976,478.016,212.976C473.92,212.976,470.208,209.84,470.208,204.144C470.208,198.448,473.92,195.312,478.016,195.312C482.176,195.312,485.888,198.384,485.888,204.08ZM502.784,222L513.728,222L513.728,174.64L502.784,174.64L502.784,222ZM519.488,204.08C519.488,215.344,526.464,222.512,535.168,222.512C540.48,222.512,544.256,220.08,546.24,216.944L546.24,222L557.184,222L557.184,186.288L546.24,186.288L546.24,191.344C544.32,188.208,540.544,185.776,535.232,185.776C526.464,185.776,519.488,192.816,519.488,204.08ZM546.24,204.144C546.24,209.84,542.592,212.976,538.432,212.976C534.336,212.976,530.624,209.776,530.624,204.08C530.624,198.384,534.336,195.312,538.432,195.312C542.592,195.312,546.24,198.448,546.24,204.144ZM566.848,209.584C566.848,218.864,572.032,222,579.456,222L585.024,222L585.024,212.72L581.12,212.72C578.688,212.72,577.792,211.824,577.792,209.712L577.792,195.376L584.96,195.376L584.96,186.288L577.792,186.288L577.792,177.584L566.848,177.584L566.848,186.288L562.496,186.288L562.496,195.376L566.848,195.376L566.848,209.584ZM592.192,222L603.136,222L603.136,195.376L609.024,195.376L609.024,186.288L603.136,186.288L603.136,185.968C603.136,182.192,604.608,180.912,608.832,181.168L608.832,171.888C597.952,171.312,592.192,175.92,592.192,185.264L592.192,186.288L588.224,186.288L588.224,195.376L592.192,195.376L592.192,222ZM649.088,204.144C649.088,192.816,641.024,185.776,630.528,185.776C620.096,185.776,611.968,192.816,611.968,204.144C611.968,215.472,619.904,222.512,630.4,222.512C640.896,222.512,649.088,215.472,649.088,204.144ZM623.104,204.144C623.104,198.064,626.56,195.248,630.528,195.248C634.368,195.248,637.952,198.064,637.952,204.144C637.952,210.16,634.304,213.04,630.4,213.04C626.432,213.04,623.104,210.16,623.104,204.144ZM665.856,205.424C665.856,199.28,668.864,197.488,674.048,197.488L677.056,197.488L677.056,185.904C672.256,185.904,668.352,188.464,665.856,192.24L665.856,186.288L654.912,186.288L654.912,222L665.856,222L665.856,205.424ZM731.52,222L742.4,222L742.4,201.136C742.4,191.536,736.704,185.904,727.872,185.904C722.688,185.904,718.208,188.784,715.84,192.56C713.408,188.272,709.056,185.904,703.68,185.904C699.008,185.904,695.36,187.888,693.248,190.768L693.248,186.288L682.304,186.288L682.304,222L693.248,222L693.248,202.608C693.248,197.936,695.936,195.376,700.096,195.376C704.256,195.376,706.944,197.936,706.944,202.608L706.944,222L717.824,222L717.824,202.608C717.824,197.936,720.512,195.376,724.672,195.376C728.832,195.376,731.52,197.936,731.52,202.608L731.52,222ZM761.664,216.624C761.664,213.232,759.04,210.608,755.2,210.608C751.296,210.608,748.672,213.232,748.672,216.624C748.672,219.888,751.296,222.512,755.2,222.512C759.04,222.512,761.664,219.888,761.664,216.624Z" fill="#333333" fill-opacity="1"/></g></svg>