<svg xmlns="http://www.w3.org/2000/svg" xmlns:xlink="http://www.w3.org/1999/xlink" fill="none" version="1.1" width="17.2506160736084" height="16.6875" viewBox="0 0 17.2506160736084 16.6875"><g><path d="M17.0631,7.45312C17.0631,7.45312,3.34984,7.45312,3.34984,7.45312C3.34984,7.45312,11.5576,0.328125,11.5576,0.328125C11.6889,0.213281,11.6092,0,11.4358,0C11.4358,0,9.36155,0,9.36155,0C9.27015,0,9.18343,0.0328124,9.11546,0.0914061C9.11546,0.0914061,0.258429,7.77656,0.258429,7.77656C0.177309,7.84688,0.112251,7.93381,0.0676636,8.03147C0.0230758,8.12912,-6.66134e-16,8.23522,0,8.34258C-6.66134e-16,8.44993,0.0230758,8.55603,0.0676636,8.65369C0.112251,8.75135,0.177309,8.83828,0.258429,8.90859C0.258429,8.90859,9.16702,16.6406,9.16702,16.6406C9.20218,16.6711,9.24437,16.6875,9.2889,16.6875C9.2889,16.6875,11.4334,16.6875,11.4334,16.6875C11.6069,16.6875,11.6866,16.4719,11.5553,16.3594C11.5553,16.3594,3.34984,9.23438,3.34984,9.23438C3.34984,9.23438,17.0631,9.23438,17.0631,9.23438C17.1662,9.23438,17.2506,9.15,17.2506,9.04688C17.2506,9.04688,17.2506,7.64062,17.2506,7.64062C17.2506,7.5375,17.1662,7.45312,17.0631,7.45312Z" fill="#0256FF" fill-opacity="1"/></g></svg>