<svg xmlns="http://www.w3.org/2000/svg" xmlns:xlink="http://www.w3.org/1999/xlink" fill="none" version="1.1" viewBox="0 0 20.586692810058594 13"><g><path d="M10.2935,13Q5.34809,13,0.550163,7.66896L0.000110388,7.0578L0.493457,6.4Q5.29346,0,10.2935,0Q15.2935,0,20.0935,6.4L20.5868,7.0578L20.0368,7.66896Q15.2388,13,10.2935,13ZM10.2935,11Q14.0745,11,17.9837,6.93997Q14.0503,2,10.2935,2Q6.53657,2,2.60326,6.93997Q6.51246,11,10.2935,11ZM13.2935,6.5C13.2935,8.15685,11.9503,9.5,10.2935,9.5C8.6366,9.5,7.29346,8.15685,7.29346,6.5C7.29346,4.84315,8.6366,3.5,10.2935,3.5C11.9503,3.5,13.2935,4.84315,13.2935,6.5ZM11.2935,6.5Q11.2935,6.08579,11.0006,5.79289Q10.7077,5.5,10.2935,5.5Q9.87924,5.5,9.58635,5.79289Q9.29346,6.08579,9.29346,6.5Q9.29346,6.91421,9.58635,7.20711Q9.87924,7.5,10.2935,7.5Q10.7077,7.5,11.0006,7.20711Q11.2935,6.91421,11.2935,6.5Z" fill-rule="evenodd"/></g></svg>