<svg xmlns="http://www.w3.org/2000/svg" xmlns:xlink="http://www.w3.org/1999/xlink" fill="none" version="1.1" width="17.5" height="7.954676151275635" viewBox="0 0 17.5 7.954676151275635"><g><path d="M14.9932,3.3163Q16.2138,2.63676,17.2044,1.68789L17.2068,1.68555Q17.4752,1.42189,17.498,1.02934Q17.5207,0.639139,17.2876,0.34121Q17.0435,0.0300026,16.6676,0.00252833Q16.2889,-0.0251428,16.0089,0.250033Q14.6518,1.56926,12.707,2.27584Q10.8379,2.95486,8.75611,2.95486Q6.67424,2.95486,4.80204,2.27579Q2.85374,1.56911,1.49196,0.251052Q1.21094,-0.0251423,0.832295,0.00252852Q0.456339,0.0300027,0.212141,0.341346Q-0.0208122,0.638755,0.00204179,1.02941Q0.0250177,1.42215,0.295417,1.68734Q1.29389,2.64402,2.52613,3.32696L1.10838,4.93769Q0.859421,5.21634,0.859421,5.60562Q0.859421,5.99489,1.10838,6.27355L1.11045,6.27587L1.11257,6.27814Q1.35921,6.5415,1.70495,6.56049L1.71139,6.56084L1.71783,6.56088Q2.09962,6.56327,2.36179,6.26179L4.25602,4.10973Q5.07635,4.40678,5.92848,4.5899L5.59407,6.80117Q5.5154,7.19742,5.72288,7.53355Q5.94111,7.88763,6.33128,7.94809L6.3353,7.94871L6.33933,7.94921Q6.41949,7.95912,6.49965,7.95106Q6.82852,7.94501,7.07414,7.70507Q7.31345,7.47131,7.3585,7.12469L7.7033,4.84519Q8.22116,4.88423,8.74993,4.88423Q9.2936,4.88423,9.82574,4.84295L10.1751,7.15266Q10.2285,7.49076,10.4662,7.71543Q10.7145,7.95017,11.0442,7.95121L11.0731,7.95131L11.1013,7.94517Q11.1648,7.93138,11.2238,7.90783Q11.57,7.82889,11.7698,7.50737Q11.9697,7.18585,11.9068,6.80756L11.5714,4.58992Q12.4252,4.40645,13.2471,4.10861L15.1414,6.26072Q15.4008,6.56089,15.7812,6.56089Q16.1516,6.5597,16.4161,6.27858L16.4186,6.27595L16.421,6.27325Q16.6695,5.99424,16.6695,5.60562Q16.6695,5.217,16.422,4.93913L14.9932,3.3163Z" fill-rule="evenodd" fill="#000000" fill-opacity="0.8999999761581421"/></g></svg>