<svg xmlns="http://www.w3.org/2000/svg" xmlns:xlink="http://www.w3.org/1999/xlink" fill="none" version="1.1" width="140" height="26.400001525878906" viewBox="0 0 140 26.400001525878906"><defs><clipPath id="master_svg0_343_34559"><rect x="0" y="0" width="140" height="26.400001525878906" rx="0"/></clipPath></defs><g clip-path="url(#master_svg0_343_34559)"><g><g><path d="M29.19412337036133,0.20174239293945312L29.423123370361328,0.20000076293945312L29.423123370361328,26.200000762939453L15.576923370361328,26.200000762939453L15.576923370361328,13.200000762939453C15.576923370361328,6.163170762939453,21.531783370361328,0.43218676293945313,28.96832337036133,0.20688029293945312L29.19412337036133,0.20174239293945312Z" fill-rule="evenodd" fill="#0871F0" fill-opacity="1"/></g><g><path d="M0.228971,0.20174239293945312L0,0.20000076293945312L0,13.200000762939453C0,20.307900762939454,6.07577,26.083500762939455,13.6172,26.198300762939454L13.8462,26.200000762939453L13.8462,13.200000762939453C13.8462,6.163170762939453,7.89129,0.43218676293945313,0.45477,0.20688029293945312L0.228971,0.20174239293945312Z" fill-rule="evenodd" fill="#0871F0" fill-opacity="1"/></g><g><path d="M31.153846740722656,0.20000076293945312L33.74999674072266,0.20000076293945312C39.963206740722654,0.200000762939452,45.00004674072265,5.2442607629394535,45.00004674072265,11.466700762939453C45.00004674072265,17.689100762939454,39.963206740722654,22.733300762939454,33.74999674072266,22.733300762939454L31.153846740722656,22.733300762939454L31.153846740722656,0.20000076293945312Z" fill-rule="evenodd" fill="#0871F0" fill-opacity="1"/></g></g><g><g><path d="M64.22,23.26C67.2,23.26,69.48,21.66,69.48,16.96L69.48,8.34L67.7,8.34L67.7,17C67.7,20.52,66.16,21.64,64.22,21.64C62.3,21.64,60.8,20.52,60.8,17L60.8,8.34L58.96,8.34L58.96,16.96C58.96,21.66,61.22,23.26,64.22,23.26ZM73.44,23L75.28,23L75.28,8.34L73.44,8.34L73.44,23ZM79.3,23L81.14,23L81.14,17.16L83.56,17.16C86.78,17.16,88.96000000000001,15.74,88.96000000000001,12.64C88.96000000000001,9.44,86.76,8.34,83.48,8.34L79.3,8.34L79.3,23ZM81.14,15.66L81.14,9.84L83.24,9.84C85.82,9.84,87.12,10.5,87.12,12.64C87.12,14.74,85.9,15.66,83.32,15.66L81.14,15.66ZM94.28,23.26C95.62,23.26,96.84,22.56,97.88,21.7L97.94,21.7L98.1,23L99.6,23L99.6,16.32C99.6,13.62,98.5,11.86,95.84,11.86C94.08,11.86,92.56,12.64,91.58,13.28L92.28,14.54C93.14,13.96,94.28,13.38,95.53999999999999,13.38C97.32,13.38,97.78,14.72,97.78,16.12C93.16,16.64,91.12,17.82,91.12,20.18C91.12,22.14,92.46000000000001,23.26,94.28,23.26ZM94.8,21.78C93.72,21.78,92.88,21.3,92.88,20.06C92.88,18.66,94.12,17.76,97.78,17.34L97.78,20.36C96.72,21.3,95.84,21.78,94.8,21.78ZM105.53999999999999,23.26C106.88,23.26,108.1,22.56,109.14,21.7L109.2,21.7L109.36,23L110.86,23L110.86,16.32C110.86,13.62,109.75999999999999,11.86,107.1,11.86C105.34,11.86,103.82,12.64,102.84,13.28L103.53999999999999,14.54C104.4,13.96,105.53999999999999,13.38,106.8,13.38C108.58,13.38,109.03999999999999,14.72,109.03999999999999,16.12C104.42,16.64,102.38,17.82,102.38,20.18C102.38,22.14,103.72,23.26,105.53999999999999,23.26ZM106.06,21.78C104.97999999999999,21.78,104.14,21.3,104.14,20.06C104.14,18.66,105.38,17.76,109.03999999999999,17.34L109.03999999999999,20.36C107.97999999999999,21.3,107.1,21.78,106.06,21.78ZM118.53999999999999,23.26C121.6,23.26,123.52,21.42,123.52,19.1C123.52,16.92,122.2,15.92,120.5,15.18L118.42,14.28C117.28,13.8,115.97999999999999,13.26,115.97999999999999,11.82C115.97999999999999,10.52,117.06,9.7,118.72,9.7C120.08,9.7,121.16,10.22,122.06,11.06L123.02,9.88C122,8.82,120.46000000000001,8.08,118.72,8.08C116.06,8.08,114.1,9.7,114.1,11.96C114.1,14.1,115.72,15.14,117.08,15.72L119.18,16.64C120.58,17.26,121.64,17.74,121.64,19.26C121.64,20.68,120.5,21.64,118.56,21.64C117.03999999999999,21.64,115.56,20.92,114.52000000000001,19.82L113.42,21.1C114.68,22.42,116.46000000000001,23.26,118.53999999999999,23.26Z" fill="#1D2129" fill-opacity="1"/></g></g></g></svg>