<svg xmlns="http://www.w3.org/2000/svg" xmlns:xlink="http://www.w3.org/1999/xlink" fill="none" version="1.1" viewBox="0 0 172 26"><g><g><g><path d="M29.19412337036133,0.00174163L29.423123370361328,0L29.423123370361328,26L15.576923370361328,26L15.576923370361328,13C15.576923370361328,5.96317,21.531783370361328,0.232186,28.96832337036133,0.00687953L29.19412337036133,0.00174163Z" fill-rule="evenodd" fill="#0871F0" fill-opacity="1"/></g><g><path d="M0.228971,0.00174163L0,0L0,13C0,20.1079,6.07577,25.8835,13.6172,25.9983L13.8462,26L13.8462,13C13.8462,5.96317,7.89129,0.232186,0.45477,0.00687953L0.228971,0.00174163Z" fill-rule="evenodd" fill="#0871F0" fill-opacity="1"/></g><g><path d="M31.153846740722656,1.94261e-31L33.74999674072266,1.94261e-31C39.963206740722654,-1.14304e-15,45.00004674072265,5.04426,45.00004674072265,11.2667C45.00004674072265,17.4891,39.963206740722654,22.5333,33.74999674072266,22.5333L31.153846740722656,22.5333L31.153846740722656,1.94261e-31Z" fill-rule="evenodd" fill="#0871F0" fill-opacity="1"/></g></g><g><path d="M57,15.7615C57,21.9205,61.22572,24.9331,66.35695,24.9331C71.4882,24.9331,75.9151,21.9205,75.9151,15.7615L75.9151,1.3347280000000001L71.1864,1.3347280000000001L71.1864,15.795C71.1864,19.0084,69.44239999999999,20.682,66.42403,20.682C63.4392,20.682,61.69525,19.0084,61.69525,15.795L61.69525,1.3347280000000001L57,1.3347280000000001L57,15.7615ZM80.4427,24.6987L85.1379,24.6987L85.1379,1.3347280000000001L80.4427,1.3347280000000001L80.4427,24.6987ZM94.4614,11.9456L94.4614,5.15063L98.184,5.15063C100.8335,5.15063,102.0073,6.4226,102.0073,8.56485C102.0073,10.64017,100.8335,11.9456,98.184,11.9456L94.4614,11.9456ZM106.83670000000001,8.56485C106.83670000000001,4.51464,104.0195,1.3347280000000001,98.3852,1.3347280000000001L89.7661,1.3347280000000001L89.7661,24.6987L94.4614,24.6987L94.4614,15.728L98.3852,15.728C104.422,15.728,106.83670000000001,12.113,106.83670000000001,8.56485ZM108.9495,15.3598C108.9495,21.1506,112.70570000000001,25,117.40100000000001,25C120.3523,25,122.4651,23.5941,123.5719,21.9874L123.5719,24.6987L128.3007,24.6987L128.3007,6.15481L123.5719,6.15481L123.5719,8.79916C122.4651,7.25941,120.4194,5.85356,117.4345,5.85356C112.70570000000001,5.85356,108.9495,9.56904,108.9495,15.3598ZM123.5719,15.4268C123.5719,18.9414,121.2243,20.8828,118.64189999999999,20.8828C116.1266,20.8828,113.74539999999999,18.8745,113.74539999999999,15.3598C113.74539999999999,11.8452,116.1266,9.97071,118.64189999999999,9.97071C121.2243,9.97071,123.5719,11.9121,123.5719,15.4268ZM131.688,15.3598C131.688,21.1506,135.4442,25,140.1394,25C143.0907,25,145.2036,23.5941,146.31029999999998,21.9874L146.31029999999998,24.6987L151.03910000000002,24.6987L151.03910000000002,6.15481L146.31029999999998,6.15481L146.31029999999998,8.79916C145.2036,7.25941,143.1578,5.85356,140.1729,5.85356C135.4442,5.85356,131.688,9.56904,131.688,15.3598ZM146.31029999999998,15.4268C146.31029999999998,18.9414,143.96269999999998,20.8828,141.3803,20.8828C138.865,20.8828,136.4838,18.8745,136.4838,15.3598C136.4838,11.8452,138.865,9.97071,141.3803,9.97071C143.96269999999998,9.97071,146.31029999999998,11.9121,146.31029999999998,15.4268ZM172,17.9372C172,9.70293,159.994,12.3138,159.994,7.62762C159.994,5.71967,161.369,4.8159,163.213,4.8828499999999995C165.225,4.91632,166.466,6.12134,166.567,7.66109L171.732,7.66109C171.43,3.44351,168.143,1,163.34699999999998,1C158.518,1,155.0971,3.54393,155.0971,7.76151C155.0636,16.2301,167.137,13.1841,167.137,18.2385C167.137,19.9121,165.829,21.0837,163.61599999999999,21.0837C161.436,21.0837,160.195,19.8452,160.061,17.9707L155.03,17.9707C155.0971,22.3891,158.853,24.9331,163.716,24.9331C169.049,24.9331,172,21.6192,172,17.9372Z" fill="#080808" fill-opacity="1"/></g></g></svg>