<svg xmlns="http://www.w3.org/2000/svg" xmlns:xlink="http://www.w3.org/1999/xlink" fill="none" version="1.1" width="18.666667938232422" height="18.666667938232422" viewBox="0 0 18.666667938232422 18.666667938232422"><g><path d="M0.390524,0.390524C0.911223,-0.130175,1.75544,-0.130175,2.27615,0.390524C2.27615,0.390524,9.33333,7.44772,9.33333,7.44772C9.33333,7.44772,16.3905,0.390524,16.3905,0.390524C16.9112,-0.130175,17.7555,-0.130175,18.2761,0.390524C18.7968,0.911223,18.7968,1.75544,18.2761,2.27615C18.2761,2.27615,11.2189,9.33333,11.2189,9.33333C11.2189,9.33333,18.2761,16.3905,18.2761,16.3905C18.7968,16.9112,18.7968,17.7555,18.2761,18.2761C17.7555,18.7968,16.9112,18.7968,16.3905,18.2761C16.3905,18.2761,9.33333,11.2189,9.33333,11.2189C9.33333,11.2189,2.27615,18.2761,2.27615,18.2761C1.75544,18.7968,0.911223,18.7968,0.390524,18.2761C-0.130175,17.7555,-0.130175,16.9112,0.390524,16.3905C0.390524,16.3905,7.44772,9.33333,7.44772,9.33333C7.44772,9.33333,0.390524,2.27615,0.390524,2.27615C-0.130175,1.75544,-0.130175,0.911223,0.390524,0.390524C0.390524,0.390524,0.390524,0.390524,0.390524,0.390524Z" fill-rule="evenodd" fill="#BFBFBF" fill-opacity="1"/></g></svg>