<svg xmlns="http://www.w3.org/2000/svg" xmlns:xlink="http://www.w3.org/1999/xlink" fill="none" version="1.1" width="194.240478515625" height="181.4393310546875" viewBox="0 0 194.240478515625 181.4393310546875"><g><g><path d="M167.74135358886718,33.12845458679199C170.2793535888672,34.332154586791994,173.2743535888672,34.620254586791994,176.18735358886718,33.71415458679199C182.2833535888672,31.817654586791992,185.7093535888672,25.40785458679199,183.84035358886717,19.39743458679199C181.9703535888672,13.387034586791993,175.5123535888672,10.052134586791992,169.4163535888672,11.948631586791992C164.2503535888672,13.555734586791992,161.00135358886718,18.40373458679199,161.2683535888672,23.503354586791993C159.2423535888672,22.75545458679199,156.9513735888672,22.646854586791992,154.71537358886718,23.34235458679199C149.39238358886718,24.99835458679199,146.3973735888672,30.586854586791993,148.0273745888672,35.824454586791994C149.65637358886718,41.06205458679199,155.29237358886718,43.965554586791995,160.61635358886718,42.30945458679199C164.82335358886718,41.00055458679199,167.5763535888672,37.23545458679199,167.74135358886718,33.12845458679199Z" fill-rule="evenodd" fill="#515151" fill-opacity="1"/></g><g><path d="M25.87937141479492,40.23231192443848Q27.46364141479492,38.94054192443848,28.51237141479492,37.74198192443848Q29.297691414794922,36.84447192443848,29.72770141479492,35.738731924438476Q30.17052141479492,34.600031924438476,30.098321414794924,33.589191924438474Q30.015221414794922,32.425820924438476,29.269241414794923,31.737813924438477Q28.458231414794923,30.989831924438477,27.034181414794922,30.989831924438477Q25.57486141479492,30.989831924438477,24.65172141479492,32.25577692443848Q24.29633141479492,31.699576924438478,23.830721414794922,31.162358924438475L23.075043414794923,31.817304924438478Q23.689381414794923,32.526131924438474,24.08462141479492,33.266041924438476Q23.81227141479492,33.890501924438475,23.61247141479492,34.68629192443848Q23.128931414794923,36.61226192443848,22.97955741479492,40.69872192443847L22.97935641479492,40.70422192443848Q22.43094341479492,41.42680192443848,21.717120414794923,42.16043192443848L22.43384241479492,42.85783192443848Q22.682776414794922,42.601931924438475,22.913288414794923,42.346631924438476L22.913014414794922,42.353231924438475L22.612859414794922,42.672131924438474L23.243341414794923,42.96313192443848Q24.527041414794923,43.55563192443847,26.115741414794922,43.97083192443848Q28.28938141479492,44.539031924438476,29.83874141479492,44.384031924438474Q32.12158141479492,44.15573192443848,33.31308141479492,42.66653192443847Q33.897681414794924,41.93573192443848,33.93018141479492,41.13695192443848Q33.96578141479492,40.258381924438474,33.32708141479492,39.55570192443848L33.32708141479492,39.55569192443848Q32.68438141479492,38.84874192443848,31.206371414794923,38.83251192443848Q29.96880141479492,38.81892192443848,28.377561414794922,39.27355192443848Q27.07156141479492,39.64669192443848,25.87937141479492,40.23231192443848ZM24.71589141479492,39.881791924438474Q24.974571414794923,39.679721924438475,25.24441141479492,39.45975192443848Q26.765491414794923,38.21983192443848,27.759791414794922,37.08348192443847Q28.42938141479492,36.31823192443848,28.795691414794923,35.37628192443847Q29.15705141479492,34.447071924438475,29.10086141479492,33.66044192443847Q28.981541414794922,31.989831924438477,27.034181414794922,31.989831924438477Q25.905031414794923,31.989831924438477,25.199421414794923,33.266221924438476Q25.757891414794923,34.51283192443848,25.79501141479492,35.84924192443847Q25.85056141479492,37.84914192443848,24.71589141479492,39.881791924438474ZM24.065401414794923,38.969631924438474Q24.83759141479492,37.39607192443847,24.795401414794924,35.877001924438474Q24.77894141479492,35.28459192443847,24.64017141479492,34.709541924438476Q24.610561414794923,34.81752192443847,24.58237141479492,34.92980192443848Q24.232931414794923,36.32163192443848,24.065401414794923,38.969631924438474ZM31.195391414794923,39.83245192443847Q32.237581414794924,39.84390192443848,32.58708141479492,40.228361924438474L32.58708141479492,40.22837192443848Q33.32958141479492,41.04511192443847,32.53218141479492,42.041831924438476Q31.603541414794922,43.202531924438475,29.739221414794923,43.38903192443848Q28.368541414794922,43.526131924438474,26.368621414794923,43.00333192443848Q25.284371414794922,42.71993192443848,24.35610141479492,42.351931924438475Q24.993901414794923,41.829231924438474,25.90950141479492,41.340341924438476Q27.204981414794922,40.64859192443848,28.65228141479492,40.235081924438475Q30.10346141479492,39.820461924438476,31.195391414794923,39.83245192443847Z" fill-rule="evenodd" fill="#515151" fill-opacity="1"/></g><g><path d="M93.397326953125,0.6848010390625C96.565126953125,1.5060300390625,97.543426953125,10.4761300390625,94.774426953125,17.6342400390625C100.162426953125,17.6342400390625,105.183126953125,17.6633400390625,107.801126953125,19.2996400390625C110.419126953125,20.9358400390625,110.246126953125,25.1369400390625,105.795126953125,26.7731400390625C104.022126953125,27.4250400390625,102.461126953125,27.7853400390625,101.222126953125,27.9712400390625C102.495126953125,28.0600400390625,104.031126953125,28.2469400390625,105.552126953125,28.5879400390625C106.870126953125,28.8836400390625,108.158126953125,29.5461400390625,108.340126953125,30.6351400390625C108.522126953125,31.7203400390625,107.606126953125,33.2313400390625,105.386126953125,33.9548400390625C104.486126953125,34.2481400390625,103.591126953125,34.4727400390625,102.744126953125,34.6400400390625C103.671126953125,34.7405400390625,104.543126953125,34.9014400390625,105.183126953125,35.1384400390625C106.720126953125,35.7073400390625,108.262126953125,36.4441400390625,108.318126953125,38.5914400390625C108.336126953125,39.2851400390625,108.144126953125,39.9336400390625,107.771126953125,40.4977400390625C115.981126953125,45.1141400390625,125.006126953125,49.8550400390625,128.095126953125,58.0540400390625C128.895126953125,57.7012400390625,129.727126953125,57.3524400390625,130.595126953125,57.0084400390625C148.175126953125,50.0349400390625,174.604126953125,49.3317400390625,183.511126953125,52.7891400390625C192.419126953125,56.2466400390625,193.591126953125,67.8495400390625,189.899126953125,81.3863400390625C186.207126953125,94.9233400390625,180.464126953125,103.5965400390625,179.644126953125,104.5925400390625C178.823126953125,105.5885400390625,176.186126953125,110.0425400390625,179.175126953125,113.6755400390625C182.163126953125,117.3085400390625,183.026126953125,118.2915400390625,184.376126953125,119.5455400390625C185.726126953125,120.7985400390625,185.148126953125,121.9835400390625,183.908126953125,122.3275400390625C182.939126953125,122.5965400390625,181.221126953125,122.5885400390625,179.050126953125,121.2565400390625C179.566126953125,122.1125400390625,179.910126953125,122.8145400390625,179.961126953125,123.2195400390625C180.205126953125,125.1695400390625,177.646126953125,125.1695400390625,175.250126953125,123.4635400390625C174.647126953125,123.0345400390625,173.839126953125,122.3365400390625,172.978126953125,121.5505400390625Q172.361126953125,130.5495400390625,172.361126953125,140.0185400390625C172.361126953125,148.4265400390625,168.660126953125,163.0835400390625,161.080126953125,171.6535400390625C154.897126953125,178.6445400390625,146.062126953125,181.6825400390625,135.949126953125,180.7835400390625C113.440126953125,178.7825400390625,104.019126953125,159.1905400390625,103.478126953125,131.8735400390625C94.133126953125,130.0705400390625,85.903226953125,124.8935400390625,78.309026953125,119.5385400390625C69.945326953125,113.6425400390625,60.131926953125,106.0025400390625,56.270726953125,102.9205400390625C51.351026953125,101.1435400390625,14.293026953125,80.2360400390625,11.013226953125,77.1611400390625C7.050006953125,77.1611400390625,1.587826953125,75.2410400390625,0.6312019531249999,69.5012400390625C-0.325418046875,63.7615400390625,4.203086953125,40.1929400390625,12.812726953125,25.3652400390625C15.156926953125,21.3280400390625,17.961126953125,19.5152400390625,18.462026953125,19.8276400390625C18.593226953125,19.9095400390625,18.638926953125,20.2557400390625,18.598926953125,20.7519400390625C19.223726953125,20.3356400390625,20.116426953125,20.3417400390625,20.615226953125,23.8962400390625C21.114026953125,27.4507400390625,21.388326953125,35.8395400390625,22.521926953125,39.4503400390625C23.016226953125,41.0247400390625,23.320226953125,42.9964400390625,28.202826953125,46.8267400390625C40.535626953125,56.5015400390625,66.102526953125,72.9814400390625,67.659926953125,74.0113400390625C69.929926953125,75.5122400390625,96.048726953125,89.4645400390625,101.610126953125,93.6653400390625C101.756126953125,93.0503400390625,101.950126953125,92.3413400390625,102.181126953125,91.5663400390625C103.724126953125,86.3905400390625,106.915126953125,78.2682400390625,108.318126953125,75.4676400390625C107.159126953125,74.7580400390625,79.041626953125,56.8468400390625,62.869626953125,46.5409400390625C61.799126953125,46.0367400390625,60.903026953125,45.4762400390625,60.225926953125,44.8561400390625C54.525826953125,39.6360400390625,54.852826953125,32.1277400390625,58.387126953125,26.2372400390625C61.921326953125,20.3468400390625,66.241026953125,18.2523400390625,69.644426953125,17.6633400390625C73.047826953125,17.0743400390625,77.171126953125,18.1869400390625,82.079826953125,17.0743400390625C86.988526953125,15.9616400390625,88.166626953125,14.0636400390625,88.297526953125,9.9403300390625C88.446726953125,5.2408300390625,88.426326953125,-0.6039699609375,93.397326953125,0.6848010390625Z" fill="#FFFFFF" fill-opacity="1"/></g><g><path d="M101.56038076782227,42.84393488769531C102.56838076782226,42.77473488769531,103.66138076782227,42.63483488769531,104.72338076782226,42.39813488769531C106.11638076782226,42.08743488769531,107.17338076782227,41.400531887695315,107.76938076782227,40.49763488769531C115.97938076782226,45.114134887695315,125.00438076782227,49.85503488769531,128.09338076782228,58.05393488769531C128.89338076782226,57.701234887695314,129.72538076782226,57.352334887695314,130.59338076782228,57.00833488769531C144.26038076782226,51.58703488769531,163.27488076782225,49.955334887695315,175.24888076782227,51.122034887695314C163.87188076782226,60.33173488769531,160.52488076782225,73.06323488769532,160.83088076782226,79.39883488769532C157.82538076782225,80.17623488769532,154.51838076782226,81.06523488769531,151.92038076782228,81.84563488769531C151.63238076782227,82.8432348876953,149.55038076782228,88.86933488769532,146.80238076782229,95.57433488769531C145.18938076782229,99.51033488769531,143.88438076782228,102.25533488769531,142.04238076782227,105.77933488769531C134.79438076782225,99.24333488769531,120.42338076782227,94.51233488769532,102.17938076782227,91.56633488769532C103.72238076782227,86.39053488769531,106.91338076782228,78.26823488769531,108.31638076782227,75.46763488769531C107.15738076782227,74.75803488769532,79.03968076782226,56.84683488769531,62.86758076782227,46.54083488769531C61.797080767822266,46.036634887695314,60.901080767822265,45.47613488769531,60.223880767822266,44.856034887695316C61.061481767822265,45.389834887695315,61.94508076782227,45.952934887695314,62.86758076782227,46.54083488769531C71.62658076782226,50.666334887695314,92.06428076782227,51.02393488769531,99.82838076782227,49.45813488769531C106.46838076782227,48.11913488769531,105.85938076782227,45.46333488769531,104.72338076782226,44.17973488769531C104.20338076782227,43.59203488769531,102.91738076782227,43.14443488769531,101.56038076782227,42.84393488769531C99.21638076782227,43.004734887695314,97.32838076782227,42.78333488769531,97.32838076782227,42.50873488769531C97.32838076782227,42.27303488769531,99.52338076782226,42.392634887695316,101.56038076782227,42.84393488769531Z" fill="#E6E8EA" fill-opacity="1"/></g><g><path d="M55.344426953125,35.8269400390625Q55.664426953125,41.3566400390625,59.888226953125,45.2247400390625Q60.931426953125,46.1801400390625,62.640926953125,46.9876400390625L79.742326953125,57.8839400390625L107.672126953125,75.6492400390625Q106.577126953125,77.9241400390625,104.836126953125,82.4465400390625Q102.811126953125,87.7039400390625,101.702126953125,91.4235400390625Q101.476126953125,92.1834400390625,101.306126953125,92.8265400390625Q98.476326953125,90.8391400390625,90.756626953125,86.4114400390625Q85.834026953125,83.5880400390625,75.870426953125,78.0667400390625Q68.641526953125,74.0609400390625,67.935626953125,73.5942400390625Q67.793626953125,73.5003400390625,66.955926953125,72.9550400390625Q39.716326953125,55.2232400390625,28.511426953125,46.4333400390625Q25.579426953125,44.1332400390625,24.298026953125,42.2646400390625Q23.571926953125,41.2057400390625,23.105626953125,39.6508400390625Q23.035126953125,39.4160400390625,22.998926953125,39.3005400390625Q22.511526953125,37.7482400390625,22.129626953125,34.5315400390625Q21.903426953125,32.6264400390625,21.575626953125,28.6405400390625Q21.277826953125,25.0206400390625,21.110326953125,23.8267400390625Q20.754226953125,21.2892400390625,20.021626953125,20.4958400390625Q19.589926953125,20.0283400390625,19.082526953125,20.0524400390625Q19.005726953125,19.5776400390625,18.726726953125,19.4034400390625Q17.932526953125,18.9081400390625,16.000526953125,20.5880400390625Q13.996726953125,22.3303400390625,12.380326953125,25.1141400390625Q9.310886953125,30.4004400390625,6.673636953125,37.5364400390625Q4.354616953124999,43.8114400390625,2.649176953125,50.7214400390625Q1.110240953125,56.9568400390625,0.424476753125,62.2039400390625Q-0.24200204687500004,67.3034400390625,0.138004953125,69.5834400390625Q0.829210953125,73.7306400390625,4.436026953124999,75.9114400390625Q7.254246953125,77.6154400390625,10.821526953125,77.6599400390625Q12.243026953125,78.8762400390625,18.518226953125,82.6614400390625Q24.455726953125,86.2430400390625,32.780426953125,90.9624400390625Q40.917826953125,95.5756400390625,47.348926953125,99.0189400390625Q54.149526953125,102.6605400390625,56.022026953125,103.3615400390625Q60.030026953125,106.5595400390625,65.298426953125,110.5715400390625Q72.474126953125,116.0365400390625,78.020826953125,119.9465400390625Q84.934826953125,124.8225400390625,90.004826953125,127.4805400390625Q96.738826953125,131.0115400390625,102.987126953125,132.2855400390625Q103.479126953125,153.7045400390625,111.049126953125,166.0825400390625Q119.449126953125,179.8175400390625,135.905126953125,181.2815400390625Q143.670126953125,181.9715400390625,150.157126953125,179.6475400390625Q156.773126953125,177.2775400390625,161.455126953125,171.9845400390625Q166.798126953125,165.9435400390625,170.039126953125,155.9295400390625Q171.415126953125,151.6755400390625,172.157126953125,147.3885400390625Q172.861126953125,143.3185400390625,172.861126953125,140.0185400390625Q172.861126953125,131.1055400390625,173.409126953125,122.6085400390625Q174.362126953125,123.4445400390625,174.960126953125,123.8705400390625Q176.924126953125,125.2685400390625,178.613126953125,125.2125400390625Q179.520126953125,125.1815400390625,180.022126953125,124.6705400390625Q180.576126953125,124.1055400390625,180.457126953125,123.1575400390625Q180.421126953125,122.8665400390625,180.232126953125,122.4205400390625Q180.651126953125,122.5915400390625,181.069126953125,122.7105400390625Q182.714126953125,123.1785400390625,184.042126953125,122.8085400390625Q185.320126953125,122.4545400390625,185.597126953125,121.4045400390625Q185.895126953125,120.2735400390625,184.716126953125,119.1785400390625Q183.732126953125,118.2645400390625,182.764126953125,117.1715400390625Q181.820126953125,116.1035400390625,179.561126953125,113.3575400390625Q177.792126953125,111.2065400390625,178.468126953125,108.2565400390625Q178.713126953125,107.1925400390625,179.249126953125,106.1495400390625Q179.648126953125,105.3745400390625,180.030126953125,104.9105400390625Q180.519126953125,104.3165400390625,181.500126953125,102.7105400390625Q182.822126953125,100.5465400390625,184.142126953125,97.9164400390625Q188.013126953125,90.2010400390625,190.382126953125,81.5179400390625Q193.330126953125,70.7063400390625,191.922126953125,63.2155400390625Q190.360126953125,54.9108400390625,183.692126953125,52.3230400390625Q180.282126953125,50.9992400390625,173.996126953125,50.5106400390625Q167.745126953125,50.0247400390625,160.275126953125,50.4881400390625Q152.377126953125,50.9781400390625,144.932126953125,52.4302400390625Q136.765126953125,54.0230400390625,130.411126953125,56.5436400390625Q129.375126953125,56.9540400390625,128.370126953125,57.3885400390625Q126.284126953125,52.3355400390625,120.672126953125,47.9323400390625Q118.359126953125,46.1178400390625,115.094126953125,44.1256400390625Q113.149126953125,42.9388400390625,109.170126953125,40.7092400390625Q108.753126953125,40.4752400390625,108.454126953125,40.3075400390625Q108.842126953125,39.5015400390625,108.818126953125,38.5784400390625Q108.775126953125,36.9173400390625,107.640126953125,35.9006400390625Q106.905126953125,35.2426400390625,105.357126953125,34.6695400390625Q105.224126953125,34.6203400390625,105.082126953125,34.5749400390625Q105.312126953125,34.5050400390625,105.541126953125,34.4302400390625Q107.248126953125,33.8738400390625,108.154126953125,32.7432400390625Q109.020126953125,31.6630400390625,108.833126953125,30.5527400390625Q108.670126953125,29.5765400390625,107.649126953125,28.8976400390625Q106.850126953125,28.3667400390625,105.662126953125,28.1000400390625Q104.953126953125,27.9411400390625,104.224126953125,27.8181400390625Q105.083126953125,27.5675400390625,105.968126953125,27.2424400390625Q107.676126953125,26.6145400390625,108.722126953125,25.4848400390625Q109.698126953125,24.4304400390625,109.941126953125,23.1281400390625Q110.175126953125,21.8736400390625,109.677126953125,20.7281400390625Q109.172126953125,19.5664400390625,108.066126953125,18.8756400390625Q106.211126953125,17.7157400390625,102.373126953125,17.3554400390625Q100.180526953125,17.1495400390625,95.491126953125,17.1352400390625Q96.317226953125,14.7806400390625,96.668426953125,12.1476400390625Q97.045126953125,9.3243100390625,96.810126953125,6.7379300390625Q96.575626953125,4.1578000390625,95.792126953125,2.4631600390625Q94.912726953125,0.5611348390625,93.522726953125,0.20080303906250002Q89.917126953125,-0.7339699609375001,88.645126953125,2.6821200390625Q88.186626953125,3.9132100390625,87.996226953125,5.8810000390625Q87.885226953125,7.0273100390625,87.814126953125,9.3890100390625Q87.803326953125,9.7477300390625,87.797726953125,9.9244700390625Q87.701126953125,12.9667400390625,86.593426953125,14.3195400390625Q85.367826953125,15.8163400390625,81.969226953125,16.5867400390625Q80.145526953125,17.0000400390625,78.030326953125,17.0754400390625Q76.768026953125,17.1205400390625,74.413226953125,17.0339400390625Q71.061526953125,16.9106400390625,69.559126953125,17.1706400390625Q66.477126953125,17.7040400390625,63.782226953125,19.5497400390625Q60.445126953125,21.8352400390625,57.958326953125,25.9799400390625Q55.054626953125,30.8194400390625,55.344426953125,35.8269400390625ZM101.213126953125,27.4685400390625Q100.864126953125,27.4454400390625,100.512126953125,27.4297400390625Q99.496126953125,27.3844400390625,98.789626953125,27.4190400390625Q98.458526953125,27.4353400390625,98.265426953125,27.4681400390625Q98.133326953125,27.4905400390625,98.044626953125,27.5259400390625Q97.618026953125,27.6959400390625,97.703026953125,28.1215400390625Q97.844226953125,28.8281400390625,100.387926953125,28.5789400390625Q100.817126953125,28.5369400390625,101.253126953125,28.4735400390625Q103.435126953125,28.6255400390625,105.443126953125,29.0758400390625Q106.451126953125,29.3020400390625,107.095126953125,29.7304400390625Q107.755126953125,30.1692400390625,107.847126953125,30.7175400390625Q107.959126953125,31.3870400390625,107.374126953125,32.1180400390625Q106.655126953125,33.0155400390625,105.231126953125,33.4794400390625Q104.007126953125,33.8782400390625,102.770126953125,34.1310400390625Q101.750126953125,34.0248400390625,100.494426953125,34.0063400390625Q99.238926953125,33.9879400390625,98.346826953125,34.0787400390625Q97.896226953125,34.1245400390625,97.633226953125,34.1937400390625Q97.026426953125,34.3535400390625,97.026426953125,34.8111400390625Q97.026426953125,35.4193400390625,98.148726953125,35.5232400390625Q98.888826953125,35.5918400390625,99.998226953125,35.5154400390625Q101.417126953125,35.4176400390625,102.819126953125,35.1412400390625Q104.158126953125,35.2921400390625,105.010126953125,35.6073400390625Q106.380126953125,36.1144400390625,106.973126953125,36.6454400390625Q107.786126953125,37.3745400390625,107.818126953125,38.6044400390625Q107.841126953125,39.4853400390625,107.354126953125,40.2219400390625Q106.521126953125,41.4856400390625,104.617126953125,41.9101400390625Q103.160126953125,42.2347400390625,101.630126953125,42.3436400390625Q101.155126953125,42.2420400390625,100.622126953125,42.1525400390625Q99.346126953125,41.9383400390625,98.322526953125,41.8978400390625Q97.833226953125,41.8784400390625,97.540426953125,41.9104400390625Q96.830426953125,41.9880400390625,96.830426953125,42.5087400390625Q96.830426953125,43.3517400390625,99.695726953125,43.3958400390625Q100.642126953125,43.4104400390625,101.564126953125,43.3504400390625Q103.745126953125,43.8271400390625,104.351126953125,44.5112400390625Q105.289126953125,45.5706400390625,104.754126953125,46.5605400390625Q103.909126953125,48.1256400390625,99.732526953125,48.9680400390625Q96.431426953125,49.6336400390625,90.827926953125,49.7813400390625Q85.010226953125,49.9345400390625,79.133326953125,49.4530400390625Q72.629226953125,48.9201400390625,67.933826953125,47.7395400390625Q65.069726953125,47.0194400390625,63.140526953125,46.1202400390625L60.531626953125,44.4580400390625Q56.638026953125,40.8726400390625,56.342726953125,35.7691400390625Q56.070826953125,31.0695400390625,58.815826953125,26.4944400390625Q61.190326953125,22.5369400390625,64.34732695312499,20.3747400390625Q66.862426953125,18.6522400390625,69.729626953125,18.1560400390625Q71.129126953125,17.9138400390625,74.376526953125,18.0332400390625Q76.767526953125,18.1211400390625,78.065926953125,18.0748400390625Q80.274926953125,17.9961400390625,82.190326953125,17.5619400390625Q85.923926953125,16.7156400390625,87.367126953125,14.9530400390625Q88.689926953125,13.3377400390625,88.797226953125,9.9562000390625Q88.802826953125,9.7815700390625,88.813726953125,9.4191100390625Q88.883826953125,7.0906300390625,88.991526953125,5.9773400390625Q89.169426953125,4.139690039062501,89.582226953125,3.0311000390625Q90.048626953125,1.7785500390625,90.855426953125,1.3104210390625Q91.770326953125,0.7795210390625,93.271826953125,1.1688010390625Q94.203626953125,1.4103690390625,94.884426953125,2.8828300390625Q95.595326953125,4.4205300390625,95.814226953125,6.8284300390625Q96.039026953125,9.3031400390625,95.677226953125,12.0153400390625Q95.290526953125,14.9138400390625,94.308026953125,17.4537400390625L94.044826953125,18.1341400390625L94.774426953125,18.1341400390625Q99.969426953125,18.1341400390625,102.280126953125,18.3510400390625Q105.881126953125,18.6892400390625,107.536126953125,19.7236400390625Q108.378126953125,20.2499400390625,108.760126953125,21.1269400390625Q109.136126953125,21.9914400390625,108.958126953125,22.9446400390625Q108.768126953125,23.9630400390625,107.988126953125,24.8055400390625Q107.105126953125,25.7588400390625,105.623126953125,26.3038400390625Q103.322126953125,27.1496400390625,101.213126953125,27.4685400390625ZM66.864126953125,48.4927400390625L80.279026953125,57.0401400390625L108.113126953125,74.7448400390625Q108.956126953125,72.9897400390625,109.733126953125,71.7482400390625Q111.125126953125,69.5242400390625,113.050126953125,67.4860400390625Q118.335126953125,61.8897400390625,127.455126953125,57.7918400390625Q125.472126953125,52.9695400390625,120.054126953125,48.7190400390625Q117.788126953125,46.9408400390625,114.573126953125,44.9792400390625Q112.644126953125,43.8022400390625,108.681126953125,41.5815400390625Q108.234126953125,41.3308400390625,107.911126953125,41.1496400390625Q106.852126953125,42.4365400390625,104.834126953125,42.8861400390625Q104.396126953125,42.9838400390625,103.952126953125,43.0628400390625Q104.717126953125,43.4158400390625,105.100126953125,43.8482400390625Q105.672126953125,44.4955400390625,105.858126953125,45.2359400390625Q106.096126953125,46.1806400390625,105.634126953125,47.0357400390625Q104.566126953125,49.0132400390625,99.930226953125,49.9482400390625Q96.544226953125,50.6310400390625,90.854326953125,50.7809400390625Q84.982526953125,50.9356400390625,79.051626953125,50.4496400390625Q72.465426953125,49.9100400390625,67.690026953125,48.7093400390625Q67.267626953125,48.6031400390625,66.864126953125,48.4927400390625ZM128.297126953125,58.5115400390625Q119.050126953125,62.5893400390625,113.777126953125,68.1727400390625Q111.920126953125,70.1388400390625,110.581126953125,72.2786400390625Q109.831126953125,73.4771400390625,109.009126953125,75.1896400390625Q108.839126953125,75.5436400390625,108.765126953125,75.6915400390625L108.318126953125,75.4676400390625L108.765126953125,75.6915400390625Q107.656126953125,77.9061400390625,105.769126953125,82.8059400390625Q103.758126953125,88.0268400390625,102.660126953125,91.7091400390625Q102.369126953125,92.6884400390625,102.174126953125,93.4639400390625Q102.564126953125,93.7562400390625,103.144126953125,94.1877400390625Q105.517126953125,95.9526400390625,106.207126953125,96.6913400390625Q107.326126953125,97.8881400390625,107.326126953125,99.2693400390625Q107.326126953125,99.9343400390625,106.791126953125,100.5105400390625Q106.275126953125,101.0665400390625,105.492126953125,101.2745400390625Q103.574126953125,101.7815400390625,101.764126953125,99.9719400390625Q100.703126953125,98.9116400390625,100.658126953125,96.9903400390625Q100.629126953125,95.7551400390625,101.050126953125,93.8722400390625Q98.420026953125,91.9595400390625,90.259126953125,87.2788400390625Q85.342626953125,84.4589400390625,75.385726953125,78.9414400390625Q68.122626953125,74.9166400390625,67.384126953125,74.4283400390625Q67.245326953125,74.3366400390625,66.410326953125,73.7931400390625Q39.133726953125,56.0372400390625,27.894126953125,47.2201400390625Q24.841426953125,44.8253400390625,23.473326953125,42.8302400390625Q22.658926953125,41.6425400390625,22.147726953125,39.9381400390625Q22.079226953125,39.7096400390625,22.044826953125,39.6001400390625Q21.529526953125,37.9588400390625,21.136626953125,34.6494400390625Q20.908226953125,32.7263400390625,20.578926953125,28.7225400390625Q20.283626953125,25.1311400390625,20.120026953125,23.9657400390625Q19.807426953125,21.7378400390625,19.286926953125,21.1742400390625Q19.193026953125,21.0725400390625,19.067826953125,21.0880400390625Q18.893726953125,22.5631400390625,18.163426953125,24.1097400390625Q16.582726953125,27.4567400390625,14.805826953125,32.2917400390625Q11.884026953125,40.2423400390625,11.428326953125,44.9918400390625Q11.240626953125,46.9481400390625,11.652826953125,48.6522400390625Q11.901026953125,49.6780400390625,12.660626953125,51.4401400390625Q13.293226953125,52.9078400390625,13.532026953125,53.7206400390625Q13.934826953125,55.0913400390625,13.934826953125,56.4956400390625Q13.934826953125,60.2419400390625,12.387126953125,62.6671400390625Q11.638226953125,63.8406400390625,10.355046953125,65.0650400390625Q9.294916953125,66.0765400390625,7.440216953125,67.5134400390625Q6.797156953125,68.0116400390625,6.669946953125,68.3410400390625Q6.538286953125,68.6818400390625,6.716976953125,69.4324400390625Q7.246176953125,71.1396400390625,8.663606953125,73.3772400390625Q10.060726953125,75.5829400390625,11.355126953125,76.7963400390625L11.013226953125,77.1611400390625L11.355126953125,76.7963400390625Q12.481226953125,77.8520400390625,19.034726953125,81.8052400390625Q24.960426953125,85.3795400390625,33.273526953125,90.0924400390625Q41.400626953125,94.6999400390625,47.820926953125,98.1374400390625Q54.704926953125,101.8235400390625,56.440526953125,102.4505400390625L56.518126953125,102.4785400390625L56.582626953125,102.5295400390625Q60.603226953125,105.7385400390625,65.904326953125,109.7755400390625Q73.065426953125,115.2295400390625,78.597126953125,119.1295400390625Q85.457226953125,123.9675400390625,90.469226953125,126.5945400390625Q97.286826953125,130.1695400390625,103.573126953125,131.3825400390625L103.607126953125,131.3885400390625Q109.065126953125,132.4375400390625,114.481126953125,131.8095400390625Q123.496126953125,130.7635400390625,130.399126953125,123.3045400390625Q133.075126953125,120.4125400390625,135.741126953125,116.2335400390625Q137.318126953125,113.7615400390625,140.018126953125,108.9045400390625Q140.161126953125,108.6475400390625,140.214126953125,108.5525400390625Q140.630126953125,107.8045400390625,141.065126953125,106.9715400390625Q143.510126953125,102.2945400390625,146.342126953125,95.3847400390625Q148.140126953125,90.9964400390625,149.816126953125,86.3984400390625Q150.728126953125,83.8970400390625,151.159126953125,82.6016400390625Q148.840126953125,83.3229400390625,147.991126953125,83.7378400390625L147.552126953125,82.8392400390625Q148.632126953125,82.3119400390625,151.778126953125,81.3667400390625Q155.424126953125,80.2719400390625,161.404126953125,78.7351400390625Q165.559126953125,77.6673400390625,168.170126953125,77.0512400390625Q170.434126953125,73.4740400390625,172.092126953125,72.1279400390625Q173.423126953125,71.0468400390625,174.511126953125,70.9831400390625Q175.670126953125,70.9154400390625,176.119126953125,71.8736400390625Q176.513126953125,72.7157400390625,176.043126953125,73.8137400390625Q175.568126953125,74.9242400390625,174.386126953125,75.7749400390625Q173.349126953125,76.5223400390625,172.241126953125,76.9484400390625Q171.122126953125,77.3786400390625,168.799126953125,77.9304400390625Q164.969126953125,84.0687400390625,161.599126953125,92.0459400390625Q160.239126953125,95.2614400390625,159.150126953125,98.3620400390625Q156.457126953125,106.0285400390625,156.189126953125,110.4825400390625Q156.043126953125,112.9065400390625,157.504126953125,116.0475400390625Q158.774126953125,118.7785400390625,160.781126953125,121.1445400390625Q162.630126953125,123.3225400390625,163.824126953125,123.7735400390625Q164.138126953125,123.8915400390625,164.190126953125,123.8265400390625Q164.349126953125,123.6285400390625,164.210126953125,122.8265400390625Q163.899126953125,121.0405400390625,163.442126953125,119.2195400390625Q162.246126953125,117.6865400390625,161.338126953125,115.8185400390625L161.333126953125,115.8085400390625L161.328126953125,115.7985400390625Q160.629126953125,114.1755400390625,160.326126953125,112.3675400390625Q159.977126953125,110.2805400390625,160.711126953125,110.0975400390625Q161.134126953125,109.9915400390625,161.482126953125,110.5695400390625Q161.653126953125,110.8545400390625,161.887126953125,111.3735400390625Q162.386126953125,112.4785400390625,162.967126953125,114.1545400390625Q163.775126953125,116.4855400390625,164.358126953125,118.7655400390625Q166.070126953125,120.9035400390625,168.384126953125,122.3325400390625Q169.739126953125,123.1695400390625,171.017126953125,123.5825400390625Q171.499126953125,123.7385400390625,171.851126953125,123.7925400390625Q171.958126953125,123.8095400390625,172.034126953125,123.8135400390625Q172.037126953125,123.8035400390625,172.039126953125,123.7925400390625Q172.084126953125,123.5885400390625,172.017126953125,123.1785400390625Q171.868126953125,122.2645400390625,171.173126953125,120.5445400390625Q167.002126953125,116.5525400390625,166.353126953125,113.2435400390625Q166.176126953125,112.3455400390625,166.276126953125,111.9705400390625Q166.399126953125,111.5085400390625,166.829126953125,111.4695400390625Q167.109126953125,111.4435400390625,167.391126953125,111.6705400390625Q167.911126953125,112.0895400390625,168.935126953125,113.8475400390625Q169.772126953125,115.2845400390625,170.735126953125,117.2175400390625Q171.586126953125,118.9255400390625,172.018126953125,119.9685400390625Q172.680126953125,120.5985400390625,173.316126953125,121.1815400390625Q174.765126953125,122.5045400390625,175.540126953125,123.0555400390625Q177.228126953125,124.2575400390625,178.579126953125,124.2125400390625Q179.087126953125,124.1955400390625,179.308126953125,123.9695400390625Q179.524126953125,123.7505400390625,179.465126953125,123.2815400390625Q179.404126953125,122.7935400390625,178.717126953125,121.6395400390625Q177.759126953125,121.0415400390625,176.796126953125,120.1785400390625Q174.760126953125,118.3525400390625,173.154126953125,115.4015400390625Q172.594126953125,114.3725400390625,172.247126953125,113.4955400390625Q172.100126953125,113.1265400390625,172.034126953125,112.8855400390625Q171.857126953125,112.2395400390625,172.320126953125,112.0655400390625Q172.901126953125,111.8505400390625,176.604126953125,116.8225400390625Q178.456126953125,119.3095400390625,179.420126953125,120.8975400390625Q180.391126953125,121.4775400390625,181.343126953125,121.7485400390625Q182.717126953125,122.1395400390625,183.774126953125,121.8455400390625Q184.500126953125,121.6445400390625,184.630126953125,121.1495400390625Q184.776126953125,120.5985400390625,184.036126953125,119.9115400390625Q183.015126953125,118.9635400390625,182.016126953125,117.8335400390625Q181.059126953125,116.7525400390625,178.789126953125,113.9925400390625Q176.707126953125,111.4625400390625,177.494126953125,108.0335400390625Q177.766126953125,106.8465400390625,178.360126953125,105.6925400390625Q178.807126953125,104.8215400390625,179.258126953125,104.2745400390625Q179.703126953125,103.7345400390625,180.647126953125,102.1895400390625Q181.947126953125,100.0609400390625,183.248126953125,97.4679400390625Q187.075126953125,89.8416400390625,189.417126953125,81.2547400390625Q192.305126953125,70.6650400390625,190.939126953125,63.4004400390625Q189.480126953125,55.6420400390625,183.330126953125,53.2552400390625Q180.057126953125,51.9848400390625,173.919126953125,51.5076400390625Q167.737126953125,51.0271400390625,160.337126953125,51.4862400390625Q152.505126953125,51.9721400390625,145.123126953125,53.4117400390625Q137.048126953125,54.9867400390625,130.780126953125,57.4732400390625Q129.515126953125,57.9744400390625,128.297126953125,58.5115400390625ZM176.832126953125,118.8265400390625Q176.359126953125,118.1685400390625,175.802126953125,117.4195400390625Q175.098126953125,116.4745400390625,174.417126953125,115.6015400390625Q175.528126953125,117.4865400390625,176.832126953125,118.8265400390625ZM169.855126953125,117.6925400390625Q169.847126953125,117.6775400390625,169.840126953125,117.6625400390625Q168.891126953125,115.7595400390625,168.071126953125,114.3505400390625Q167.666126953125,113.6555400390625,167.366126953125,113.2055400390625Q167.827126953125,115.2685400390625,169.855126953125,117.6925400390625ZM172.276126953125,124.7975400390625Q171.782126953125,124.8805400390625,170.709126953125,124.5335400390625Q169.317126953125,124.0835400390625,167.859126953125,123.1835400390625Q166.200126953125,122.1595400390625,164.835126953125,120.7965400390625Q165.034126953125,121.7295400390625,165.195126953125,122.6545400390625Q165.412126953125,123.9015400390625,164.970126953125,124.4525400390625Q164.464126953125,125.0835400390625,163.471126953125,124.7085400390625Q162.036126953125,124.1675400390625,160.019126953125,121.7915400390625Q157.924126953125,119.3225400390625,156.597126953125,116.4695400390625Q155.030126953125,113.0985400390625,155.191126953125,110.4225400390625Q155.446126953125,106.1885400390625,157.793126953125,99.2307400390625Q156.900126953125,99.8392400390625,155.629126953125,101.0285400390625Q155.095126953125,101.5275400390625,153.683126953125,103.0785400390625Q150.893126953125,106.1425400390625,149.524126953125,107.1785400390625Q147.805126953125,108.4775400390625,145.947126953125,108.7695400390625Q144.197126953125,109.0435400390625,141.754126953125,108.5215400390625Q140.548126953125,114.8385400390625,140.260126953125,122.3875400390625Q140.390126953125,122.4885400390625,140.523126953125,122.6485400390625Q140.872126953125,123.0675400390625,141.331126953125,123.9845400390625Q142.449126953125,126.2185400390625,144.030126953125,130.9565400390625Q145.155126953125,134.3285400390625,145.672126953125,137.5815400390625Q146.146126953125,140.5665400390625,146.013126953125,142.7795400390625Q145.877126953125,145.0595400390625,145.110126953125,145.8465400390625Q144.588126953125,146.3845400390625,143.891126953125,146.2015400390625Q143.308126953125,146.0495400390625,142.701126953125,145.3485400390625Q140.793126953125,143.1465400390625,139.921126953125,136.1865400390625Q139.219126953125,130.5795400390625,139.246126953125,122.7385400390625L139.246126953125,122.7305400390625L139.247126953125,122.7225400390625Q139.483126953125,115.9855400390625,140.439126953125,110.2035400390625Q138.042126953125,114.4855400390625,136.584126953125,116.7715400390625Q133.870126953125,121.0255400390625,131.133126953125,123.9835400390625Q123.979126953125,131.7145400390625,114.596126953125,132.8025400390625Q109.312126953125,133.4165400390625,103.992126953125,132.4765400390625Q104.511126953125,153.4735400390625,111.902126953125,165.5605400390625Q120.039126953125,178.8665400390625,135.994126953125,180.2855400390625Q143.540126953125,180.9565400390625,149.820126953125,178.7065400390625Q156.194126953125,176.4225400390625,160.706126953125,171.3225400390625Q165.911126953125,165.4375400390625,169.088126953125,155.6215400390625Q170.442126953125,151.4355400390625,171.172126953125,147.2185400390625Q171.861126953125,143.2335400390625,171.861126953125,140.0185400390625Q171.861126953125,132.2515400390625,172.276126953125,124.7975400390625ZM141.949126953125,107.5415400390625Q144.219126953125,108.0285400390625,145.792126953125,107.7815400390625Q147.402126953125,107.5285400390625,148.921126953125,106.3805400390625Q150.216126953125,105.4005400390625,152.944126953125,102.4045400390625Q154.383126953125,100.8245400390625,154.946126953125,100.2981400390625Q157.038126953125,98.3403400390625,158.284126953125,97.8120400390625Q159.210126953125,95.1936400390625,160.327126953125,92.4959400390625Q158.410126953125,92.8724400390625,153.731126953125,94.0711400390625Q148.113126953125,95.5106400390625,147.199126953125,95.9291400390625Q144.407126953125,102.7275400390625,141.984126953125,107.3725400390625L141.949126953125,107.5415400390625ZM147.701126953125,94.6985400390625Q149.417126953125,94.1441400390625,153.483126953125,93.1024400390625Q159.052126953125,91.6755400390625,160.788126953125,91.3969400390625Q163.909126953125,84.0541400390625,167.424126953125,78.2575400390625Q165.060126953125,78.8280400390625,161.653126953125,79.7036400390625Q155.901126953125,81.1816400390625,152.324126953125,82.2474400390625Q151.936126953125,83.5009400390625,150.756126953125,86.7409400390625Q149.276126953125,90.8004400390625,147.701126953125,94.6985400390625ZM169.585126953125,76.7070400390625Q171.080126953125,76.3236400390625,171.882126953125,76.0150400390625Q172.869126953125,75.6353400390625,173.802126953125,74.9635400390625Q174.758126953125,74.2752400390625,175.124126953125,73.4206400390625Q175.417126953125,72.7341400390625,175.213126953125,72.2973400390625Q175.052126953125,71.9532400390625,174.570126953125,71.9814400390625Q173.803126953125,72.0263400390625,172.722126953125,72.9042400390625Q171.395126953125,73.9818400390625,169.585126953125,76.7070400390625ZM140.247126953125,124.0655400390625Q140.279126953125,130.9965400390625,140.913126953125,136.0625400390625Q141.747126953125,142.7215400390625,143.457126953125,144.6935400390625Q143.861126953125,145.1605400390625,144.144126953125,145.2345400390625Q144.277126953125,145.2695400390625,144.394126953125,145.1495400390625Q144.901126953125,144.6285400390625,145.015126953125,142.7195400390625Q145.142126953125,140.6155400390625,144.684126953125,137.7385400390625Q144.180126953125,134.5665400390625,143.081126953125,131.2725400390625Q141.523126953125,126.6025400390625,140.437126953125,124.4325400390625Q140.338126953125,124.2345400390625,140.247126953125,124.0655400390625ZM162.487126953125,115.8785400390625Q162.265126953125,115.1825400390625,162.022126953125,114.4815400390625Q161.726126953125,113.6285400390625,161.453126953125,112.9305400390625Q161.736126953125,114.2145400390625,162.242126953125,115.3915400390625Q162.362126953125,115.6385400390625,162.487126953125,115.8785400390625ZM9.790476953125,76.6072400390625Q8.822976953125,75.4976400390625,7.818826953125,73.9124400390625Q6.323606953125,71.5519400390625,5.756666953125,69.7118400390625L5.752066953125,69.6969400390625L5.748406953125,69.6817400390625Q5.491686953125,68.6161400390625,5.737116953125,67.9807400390625Q5.964636953125,67.3916400390625,6.827766953125,66.7229400390625Q10.358046953125,63.9878400390625,11.544126953125,62.1292400390625Q12.934826953125,59.9500400390625,12.934826953125,56.4956400390625Q12.934826953125,55.2352400390625,12.572626953125,54.0025400390625Q12.350926953125,53.2479400390625,11.742226953125,51.8359400390625Q10.949026953125,49.9957400390625,10.680926953125,48.8873400390625Q10.229116953125,47.0199400390625,10.432866953125,44.8963400390625Q10.900926953125,40.0184400390625,13.867226953125,31.9468400390625Q15.659426953125,27.0699400390625,17.259126953125,23.6827400390625Q17.985026953125,22.1454400390625,18.100526953125,20.7118400390625Q18.117326953125,20.5033400390625,18.111926953125,20.3521400390625Q18.027826953125,20.3861400390625,17.925226953125,20.4385400390625Q17.370126953125,20.7223400390625,16.656626953125,21.3426400390625Q14.778126953125,22.9760400390625,13.245126953125,25.6163400390625Q10.218976953125,30.8279400390625,7.611626953125,37.8831400390625Q5.312046953125,44.1054400390625,3.620046953125,50.9610400390625Q2.094546953125,57.1420400390625,1.416043953125,62.3334400390625Q0.768826953125,67.2856400390625,1.124398953125,69.4190400390625Q1.740026953125,73.1128400390625,4.953436953125,75.0557400390625Q7.121996953125,76.3669400390625,9.790476953125,76.6072400390625ZM101.931126953125,94.5314400390625Q101.635126953125,95.9953400390625,101.658126953125,96.9667400390625Q101.694126953125,98.4877400390625,102.471126953125,99.2647400390625Q103.874126953125,100.6675400390625,105.236126953125,100.3074400390625Q105.739126953125,100.1743400390625,106.059126953125,99.8303400390625Q106.326126953125,99.5418400390625,106.326126953125,99.2693400390625Q106.326126953125,98.2828400390625,105.477126953125,97.3742400390625Q104.848126953125,96.7013400390625,102.547126953125,94.9901400390625Q102.207126953125,94.7375400390625,101.931126953125,94.5314400390625Z" fill-rule="evenodd" fill="#515151" fill-opacity="1"/></g><g><path d="M104.99738311767578,132.29833068847657C116.56738311767577,134.50233068847655,128.68138311767578,131.53233068847658,139.43238311767578,127.33933068847657L140.94738311767577,108.77333068847656C138.6793831176758,112.78533068847656,131.24038311767578,123.59533068847657,126.76038311767579,127.33933068847657C120.97538311767578,132.17433068847657,111.05739311767579,132.42033068847655,104.99738311767578,132.29833068847657Z" fill="#515151" fill-opacity="1"/></g><g><path d="M130.7083740234375,57.22703287353516C132.5753740234375,56.261632873535156,136.9223740234375,54.762932873535156,138.6693740234375,54.36653287353516C142.2323740234375,53.55843287353515,144.3173740234375,52.95453287353516,148.8133740234375,52.397132873535156C147.2123740234375,54.173432873535155,144.5643740234375,57.025132873535156,141.9063740234375,58.48673287353515C135.0973840234375,62.23193287353516,131.4673770234375,60.55363287353516,130.7083740234375,57.22703287353516Z" fill-rule="evenodd" fill="#515151" fill-opacity="1"/></g><g><path d="M73.86738669433593,53.40183480224609C78.53688669433593,53.94893480224609,83.98658669433594,52.767034802246094,86.95278669433594,50.23383480224609C81.58088669433593,51.19803480224609,71.00037669433594,49.40733480224609,65.05198669433594,47.892234802246094L73.86738669433593,53.40183480224609Z" fill="#515151" fill-opacity="1"/></g><g><path d="M77.30782208251954,144.44832556152343Q77.30782208251954,145.31052556152343,77.26552208251952,146.17182556152343Q77.22312208251954,147.03302556152343,77.13862208251953,147.89112556152344Q77.05412208251953,148.74922556152345,76.92762208251953,149.60212556152345Q76.80112208251953,150.45502556152343,76.63292208251953,151.30072556152345Q76.46472208251953,152.14632556152344,76.25512208251953,152.98272556152344Q76.04562208251953,153.81912556152344,75.79532208251953,154.64432556152343Q75.54502208251954,155.46942556152345,75.25462208251953,156.28122556152343Q74.96412208251954,157.09312556152344,74.63412208251953,157.88972556152345Q74.30412208251953,158.68632556152343,73.93552208251953,159.46582556152345Q73.56682208251954,160.24522556152345,73.16042208251953,161.00562556152343Q72.75392208251954,161.76612556152344,72.31062208251953,162.50572556152343Q71.86732208251954,163.24522556152345,71.38832208251954,163.96222556152344Q70.90932208251954,164.67912556152345,70.39562208251954,165.37162556152344Q69.88202208251954,166.06422556152344,69.33502208251953,166.73072556152343Q68.78802208251953,167.39732556152345,68.20892208251954,168.03612556152342Q67.62992208251953,168.67502556152346,67.02022208251952,169.28472556152343Q66.41052208251953,169.89442556152343,65.77162208251953,170.47352556152345Q65.13272208251954,171.05252556152345,64.46622208251952,171.59952556152342Q63.79972208251953,172.14652556152345,63.10712208251953,172.66022556152345Q62.41452208251953,173.17382556152344,61.69762208251953,173.65282556152346Q60.980722082519534,174.13192556152342,60.24112208251953,174.57522556152344Q59.50152208251953,175.01842556152343,58.74112208251953,175.42492556152342Q57.980722082519534,175.83142556152342,57.20122208251953,176.20002556152343Q56.42172208251953,176.56872556152342,55.62512208251953,176.89862556152343Q54.828522082519534,177.22862556152344,54.01672208251953,177.51912556152342Q53.204822082519534,177.80962556152343,52.37972208251953,178.05992556152344Q51.55462208251953,178.31022556152345,50.71822208251953,178.51972556152344Q49.881822082519534,178.72922556152344,49.03612208251953,178.89742556152345Q48.19042208251953,179.06562556152343,47.337522082519534,179.19212556152343Q46.48462208251953,179.31872556152342,45.62652208251953,179.40322556152344Q44.76842208251953,179.48772556152343,43.90722208251953,179.53002556152342Q43.04602208251953,179.57232556152343,42.183822082519534,179.57232556152343Q41.32152208251953,179.57232556152343,40.46032208251953,179.53002556152342Q39.59912208251953,179.48772556152343,38.741022082519535,179.40322556152344Q37.88292208251953,179.31872556152342,37.03002208251953,179.19212556152343Q36.17712208251953,179.06562556152343,35.33142208251953,178.89742556152345Q34.48582208251953,178.72922556152344,33.64932208251953,178.51972556152344Q32.812922082519535,178.31022556152345,31.987822082519532,178.05992556152344Q31.162722082519533,177.80962556152343,30.35092208251953,177.51912556152342Q29.53902208251953,177.22862556152344,28.742422082519532,176.89862556152343Q27.94582208251953,176.56872556152342,27.16632208251953,176.20002556152343Q26.386922082519533,175.83142556152342,25.626522082519532,175.42492556152342Q24.86602208251953,175.01842556152343,24.126422082519532,174.57522556152344Q23.386922082519533,174.13192556152342,22.66992208251953,173.65282556152346Q21.95302208251953,173.17382556152344,21.260422082519533,172.66022556152345Q20.56792208251953,172.14652556152345,19.90142208251953,171.59952556152342Q19.234822082519532,171.05252556152345,18.596022082519532,170.47352556152345Q17.957122082519533,169.89442556152343,17.34742208251953,169.28472556152343Q16.737702082519533,168.67502556152346,16.15865208251953,168.03612556152342Q15.579602082519532,167.39732556152345,15.032602082519531,166.73072556152343Q14.485592082519531,166.06422556152344,13.971962082519532,165.37162556152344Q13.458322082519532,164.67912556152345,12.979282082519532,163.96212556152344Q12.50024208251953,163.24522556152345,12.056962082519531,162.50562556152343Q11.613672082519532,161.76612556152344,11.207212082519531,161.00562556152343Q10.800762082519531,160.24522556152345,10.432102082519531,159.46572556152344Q10.063442082519531,158.68632556152343,9.733472082519532,157.88972556152345Q9.403512082519532,157.09312556152344,9.113022082519532,156.28122556152343Q8.822542082519531,155.46942556152345,8.572252082519531,154.64432556152343Q8.32195208251953,153.81912556152344,8.11244208251953,152.98272556152344Q7.902935082519531,152.14632556152344,7.734719082519531,151.30072556152345Q7.566504082519531,150.45502556152343,7.439986082519531,149.60212556152345Q7.313468082519531,148.74922556152345,7.2289540825195315,147.89112556152344Q7.144438782519531,147.03302556152343,7.102130482519531,146.17182556152343Q7.059822082519531,145.31052556152343,7.059822082519531,144.44832556152343Q7.059822082519531,143.58612556152343,7.102130482519531,142.72492556152343Q7.144438782519531,141.86362556152343,7.2289540825195315,141.00562556152343Q7.313468082519531,140.14752556152342,7.439986082519531,139.29452556152344Q7.566504082519531,138.44162556152344,7.734719082519531,137.59602556152345Q7.902935082519531,136.75032556152343,8.11244208251953,135.91392556152343Q8.32195208251953,135.07752556152343,8.572252082519531,134.25232556152343Q8.822542082519531,133.42722556152344,9.113032082519531,132.61542556152344Q9.403512082519532,131.80352556152343,9.733472082519532,131.00692556152345Q10.063442082519531,130.21032556152343,10.432102082519531,129.43092556152345Q10.800762082519531,128.65142556152344,11.207222082519532,127.89102556152343Q11.613672082519532,127.13052556152344,12.056962082519531,126.39102556152343Q12.50024208251953,125.65142556152344,12.979282082519532,124.93452556152344Q13.458322082519532,124.21752556152344,13.971952082519532,123.52502556152344Q14.485592082519531,122.83242556152344,15.032602082519531,122.16592556152344Q15.579602082519532,121.49932556152343,16.15865208251953,120.86052556152343Q16.737702082519533,120.22162556152344,17.34742208251953,119.61192556152344Q17.957122082519533,119.00220556152344,18.596022082519532,118.42315556152343Q19.234822082519532,117.84410556152343,19.90142208251953,117.29710556152344Q20.56792208251953,116.75010556152344,21.26052208251953,116.23646556152343Q21.95302208251953,115.72282556152344,22.66992208251953,115.24378556152344Q23.386922082519533,114.76474556152344,24.126422082519532,114.32146556152344Q24.86602208251953,113.87818556152344,25.626522082519532,113.47172556152344Q26.386922082519533,113.06526556152343,27.16632208251953,112.69660556152344Q27.94582208251953,112.32794556152344,28.742422082519532,111.99798556152344Q29.53902208251953,111.66801556152343,30.35092208251953,111.37753556152344Q31.162722082519533,111.08704556152344,31.987822082519532,110.83675556152343Q32.812922082519535,110.58645556152344,33.64932208251953,110.37694556152344Q34.48582208251953,110.16743956152344,35.33142208251953,109.99922356152344Q36.17712208251953,109.83100756152344,37.03002208251953,109.70448956152343Q37.88292208251953,109.57797256152344,38.741022082519535,109.49345756152344Q39.59912208251953,109.40894236152344,40.46032208251953,109.36663396152343Q41.32152208251953,109.32432556152344,42.183822082519534,109.32432556152344Q43.04602208251953,109.32432556152344,43.90722208251953,109.36663396152343Q44.76842208251953,109.40894236152344,45.62652208251953,109.49345756152344Q46.48462208251953,109.57797256152344,47.337522082519534,109.70448956152343Q48.19042208251953,109.83100756152344,49.03612208251953,109.99922356152344Q49.881822082519534,110.16743956152344,50.71822208251953,110.37694556152344Q51.55462208251953,110.58645556152344,52.37972208251953,110.83675556152343Q53.204822082519534,111.08704556152344,54.01672208251953,111.37753556152344Q54.828522082519534,111.66801556152343,55.62512208251953,111.99798556152344Q56.42172208251953,112.32794556152344,57.20122208251953,112.69660556152344Q57.980722082519534,113.06526556152343,58.74112208251953,113.47172556152344Q59.50152208251953,113.87818556152344,60.24112208251953,114.32146556152344Q60.980722082519534,114.76474556152344,61.69762208251953,115.24378556152344Q62.41452208251953,115.72282556152344,63.10712208251953,116.23646556152343Q63.79972208251953,116.75010556152344,64.46622208251952,117.29710556152344Q65.13272208251954,117.84410556152343,65.77162208251953,118.42315556152343Q66.41052208251953,119.00220556152344,67.02022208251952,119.61192556152344Q67.62992208251953,120.22162556152344,68.20892208251954,120.86052556152343Q68.78802208251953,121.49932556152343,69.33502208251953,122.16592556152344Q69.88202208251954,122.83242556152344,70.39562208251954,123.52502556152344Q70.90932208251954,124.21752556152344,71.38832208251954,124.93452556152344Q71.86732208251954,125.65142556152344,72.31062208251953,126.39102556152343Q72.75392208251954,127.13052556152344,73.16042208251953,127.89102556152343Q73.56682208251954,128.65142556152344,73.93552208251953,129.43092556152345Q74.30412208251953,130.21032556152343,74.63412208251953,131.00692556152345Q74.96412208251954,131.80352556152343,75.25462208251953,132.61542556152344Q75.54502208251954,133.42722556152344,75.79532208251953,134.25232556152343Q76.04562208251953,135.07752556152343,76.25512208251953,135.91392556152343Q76.46472208251953,136.75032556152343,76.63292208251953,137.59602556152345Q76.80112208251953,138.44162556152344,76.92762208251953,139.29452556152344Q77.05412208251953,140.14752556152342,77.13862208251953,141.00562556152343Q77.22312208251954,141.86362556152343,77.26552208251952,142.72492556152343Q77.30782208251954,143.58612556152343,77.30782208251954,144.44832556152343Z" fill="#EAF5FF" fill-opacity="1"/></g><g><path d="M57.917076953125,131.3922779140625C59.617576953125,132.5749969140625,60.037276953125,134.9123669140625,58.854476953125,136.6124169140625L45.244576953125005,156.1800369140625C43.304076953125005,158.9700369140625,39.352076953125,159.4150369140625,36.839076953125,157.1279369140625L26.512086953125,147.7265369140625C24.980422953125,146.3319369140625,24.869127953125002,143.9606369140625,26.263459953125,142.4290369140625C27.657796953125,140.8965369140625,30.029866953125,140.7859369140625,31.561536953125,142.1797369140625L40.307576953125,150.1413369140625L52.696676953125,132.3290869140625C53.879476953125,130.6290380140625,56.216676953125,130.2095589140625,57.917076953125,131.3922779140625Z" fill-rule="evenodd" fill="#0871F0" fill-opacity="1"/></g><g><path d="M85.90758182373047,146.39292361816408Q86.28878182373047,142.94636361816407,88.43378182373047,140.56062761816406L87.69018182373047,139.89203961816406Q85.39488182373047,142.44498361816406,84.93808182373047,146.07580361816406Q83.37818182373047,145.62045361816405,81.66151182373046,145.46159361816407Q79.10119182373047,145.22465361816407,76.71864182373047,145.69660361816406Q74.19770182373047,146.19596361816406,72.33436782373047,147.40599361816408L72.87899582373046,148.24467361816406Q74.58087182373046,147.13949361816407,76.91295182373047,146.67754361816407Q79.15334182373047,146.23375361816406,81.56936182373047,146.45733361816406Q83.29498182373047,146.61702361816407,84.84758182373047,147.09251361816405Q84.66138182373047,150.64543361816408,86.38688182373048,153.27463361816407Q87.32458182373047,154.70383361816405,88.71918182373047,154.95893361816405Q90.03648182373047,155.19983361816406,91.00318182373047,154.33633361816408Q91.99868182373046,153.44713361816406,91.86608182373047,152.02533361816407Q91.72408182373047,150.50263361816405,90.23708182373048,149.02025361816408Q88.73908182373047,147.52643361816405,86.41738182373047,146.58844361816406Q86.16468182373046,146.48639361816407,85.90758182373047,146.39292361816408ZM85.83458182373047,147.43342361816406Q85.74738182373046,150.47763361816408,87.22288182373046,152.72603361816405Q87.92568182373047,153.79723361816406,88.89908182373047,153.97523361816405Q89.73518182373047,154.12813361816407,90.33698182373047,153.59053361816407Q90.95618182373047,153.03753361816405,90.87038182373047,152.11823361816406Q90.76198182373047,150.95553361816405,89.53108182373046,149.72843361816408Q88.17648182373047,148.37768361816407,86.04278182373046,147.51563361816406Q85.93908182373048,147.47376361816407,85.83458182373047,147.43342361816406Z" fill-rule="evenodd" fill="#515151" fill-opacity="1"/></g><g><path d="M148.68737841796874,45.42307891845703Q148.68737841796874,45.64999891845703,148.67627841796875,45.87664891845703Q148.66507841796874,46.10329891845703,148.64287841796875,46.32912891845703Q148.62057841796874,46.55492891845703,148.58737841796875,46.77942891845703Q148.55407841796875,47.003928918457035,148.50977841796876,47.22642891845703Q148.46547841796874,47.44902891845703,148.41037841796876,47.669128918457034Q148.35517841796874,47.88922891845703,148.28937841796875,48.10642891845703Q148.22347841796875,48.32352891845703,148.14707841796874,48.53722891845703Q148.07057841796876,48.75082891845703,147.98377841796875,48.96052891845703Q147.89687841796876,49.17012891845703,147.79987841796876,49.37532891845703Q147.70287841796875,49.58042891845703,147.59587841796875,49.78052891845703Q147.48897841796875,49.98062891845703,147.37227841796874,50.17532891845703Q147.25567841796874,50.369928918457035,147.12957841796876,50.55862891845703Q147.00347841796875,50.74732891845703,146.86827841796875,50.92952891845703Q146.73317841796876,51.11182891845703,146.58917841796875,51.28722891845703Q146.44527841796875,51.46262891845703,146.29287841796875,51.63082891845703Q146.14047841796875,51.79892891845703,145.97997841796874,51.95942891845703Q145.81957841796876,52.11982891845703,145.65147841796875,52.27222891845703Q145.48327841796876,52.42462891845703,145.30787841796874,52.56862891845703Q145.13247841796874,52.71252891845703,144.95017841796874,52.84772891845703Q144.76797841796875,52.982928918457034,144.57927841796874,53.10892891845703Q144.39057841796875,53.23502891845703,144.19597841796875,53.35172891845703Q144.00137841796874,53.46832891845703,143.80127841796875,53.57532891845703Q143.60107841796875,53.68232891845703,143.39597841796876,53.77932891845703Q143.19087841796875,53.876328918457034,142.98117841796875,53.963228918457034Q142.77157841796875,54.05002891845703,142.55787841796874,54.12642891845703Q142.34427841796875,54.20292891845703,142.12707841796876,54.26882891845703Q141.90997841796874,54.33462891845703,141.68987841796874,54.38982891845703Q141.46977841796874,54.44492891845703,141.24717841796874,54.48922891845703Q141.02467841796874,54.53352891845703,140.80017841796874,54.56672891845703Q140.57567841796876,54.60002891845703,140.34987841796874,54.62232891845703Q140.12407841796875,54.64452891845703,139.89743841796874,54.65572891845703Q139.67079841796874,54.66682891845703,139.44387841796876,54.66682891845703Q139.21695841796875,54.66682891845703,138.99031841796875,54.65572891845703Q138.76367841796875,54.64452891845703,138.53785841796875,54.62232891845703Q138.31203841796875,54.60002891845703,138.08757841796876,54.56672891845703Q137.86311841796876,54.53352891845703,137.64055841796875,54.48922891845703Q137.41800841796874,54.44492891845703,137.19788841796876,54.38982891845703Q136.97777841796875,54.33462891845703,136.76062841796875,54.26882891845703Q136.54348841796875,54.20292891845703,136.32983841796874,54.12642891845703Q136.11618841796874,54.05002891845703,135.90653841796876,53.963228918457034Q135.69689841796875,53.876328918457034,135.49176841796876,53.77932891845703Q135.28663841796876,53.68232891845703,135.08651841796876,53.57532891845703Q134.88639841796876,53.46832891845703,134.69176841796875,53.35172891845703Q134.49713841796876,53.23502891845703,134.30846841796875,53.10892891845703Q134.11978841796875,52.982928918457034,133.93752841796876,52.84772891845703Q133.75526841796875,52.71252891845703,133.57986841796875,52.56862891845703Q133.40445841796875,52.42462891845703,133.23631841796876,52.27222891845703Q133.06818841796874,52.11982891845703,132.90773841796874,51.95942891845703Q132.74727841796874,51.79892891845703,132.59489841796875,51.63082891845703Q132.44250841796875,51.46262891845703,132.29855841796876,51.28722891845703Q132.15459841796874,51.11182891845703,132.01942841796875,50.92952891845703Q131.88425841796874,50.74732891845703,131.75818841796874,50.55862891845703Q131.63211841796874,50.369928918457035,131.51546841796875,50.17532891845703Q131.39880841796875,49.98062891845703,131.29183841796876,49.78052891845703Q131.18487141796874,49.58042891845703,131.08785341796874,49.37532891845703Q130.99083441796876,49.17012891845703,130.90399741796875,48.96052891845703Q130.81716141796875,48.75082891845703,130.74071541796874,48.53722891845703Q130.66427041796874,48.32352891845703,130.59840041796875,48.10642891845703Q130.53253041796876,47.88922891845703,130.47739441796875,47.669128918457034Q130.42225841796875,47.44902891845703,130.37798941796876,47.22642891845703Q130.33372041796875,47.003928918457035,130.30042541796874,46.77942891845703Q130.26712991796876,46.55492891845703,130.24488841796875,46.32912891845703Q130.22264681796875,46.10329891845703,130.21151261796874,45.87664891845703Q130.20037841796875,45.64999891845703,130.20037841796875,45.42307891845703Q130.20037841796875,45.19615891845703,130.21151261796874,44.96950891845703Q130.22264681796875,44.74285891845703,130.24488841796875,44.51702891845703Q130.26712991796876,44.29120891845703,130.30042541796874,44.066738918457034Q130.33372041796875,43.84226891845703,130.37798941796876,43.61970891845703Q130.42225841796875,43.397148918457034,130.47739441796875,43.17702891845703Q130.53253041796876,42.95690891845703,130.59840041796875,42.73975891845703Q130.66427041796874,42.52260891845703,130.74071541796874,42.308948918457034Q130.81716141796875,42.09529891845703,130.90399741796875,41.88564891845703Q130.99083441796876,41.67599891845703,131.08785341796874,41.47086891845703Q131.18487141796874,41.26572891845703,131.29183841796876,41.06560891845703Q131.39880841796875,40.86547891845703,131.51546841796875,40.67083891845703Q131.63211841796874,40.47620891845703,131.75818841796874,40.28752891845703Q131.88425841796874,40.09884891845703,132.01942841796875,39.916578918457034Q132.15459841796874,39.734318918457035,132.29855841796876,39.55890891845703Q132.44250841796875,39.38348891845703,132.59489841796875,39.21535891845703Q132.74727841796874,39.047218918457034,132.90773841796874,38.88675891845703Q133.06818841796874,38.72629891845703,133.23631841796876,38.57390891845703Q133.40445841796875,38.42151891845703,133.57986841796875,38.27755891845703Q133.75526841796875,38.13360891845703,133.93752841796876,37.99842891845703Q134.11978841796875,37.86324891845703,134.30846841796875,37.73717891845703Q134.49713841796876,37.611108918457035,134.69176841796875,37.49444891845703Q134.88639841796876,37.37778891845703,135.08651841796876,37.27081891845703Q135.28663841796876,37.163848918457035,135.49176841796876,37.06682791845703Q135.69689841796875,36.969805918457034,135.90653841796876,36.88296691845703Q136.11618841796874,36.79612791845703,136.32983841796874,36.71968091845703Q136.54348841796875,36.64323291845703,136.76062841796875,36.57736191845703Q136.97777841796875,36.51148991845703,137.19788841796876,36.45635291845703Q137.41800841796874,36.40121491845703,137.64055841796875,36.35694491845703Q137.86311841796876,36.312674918457034,138.08757841796876,36.279378918457034Q138.31203841796875,36.246082318457034,138.53785841796875,36.223840118457034Q138.76367841796875,36.20159791845703,138.99031841796875,36.19046341845703Q139.21695841796875,36.17932891845703,139.44387841796876,36.17932891845703Q139.67079841796874,36.17932891845703,139.89743841796874,36.19046341845703Q140.12407841796875,36.20159791845703,140.34987841796874,36.223840118457034Q140.57567841796876,36.246082318457034,140.80017841796874,36.279378918457034Q141.02467841796874,36.312674918457034,141.24717841796874,36.35694491845703Q141.46977841796874,36.40121491845703,141.68987841796874,36.45635291845703Q141.90997841796874,36.51148991845703,142.12707841796876,36.57736191845703Q142.34427841796875,36.64323291845703,142.55787841796874,36.71968091845703Q142.77157841796875,36.79612791845703,142.98117841796875,36.88296691845703Q143.19087841796875,36.969805918457034,143.39597841796876,37.06682791845703Q143.60107841796875,37.163848918457035,143.80127841796875,37.27081891845703Q144.00137841796874,37.37778891845703,144.19597841796875,37.49444891845703Q144.39057841796875,37.611108918457035,144.57927841796874,37.73717891845703Q144.76797841796875,37.86324891845703,144.95017841796874,37.99842891845703Q145.13247841796874,38.13360891845703,145.30787841796874,38.27755891845703Q145.48327841796876,38.42151891845703,145.65147841796875,38.57390891845703Q145.81957841796876,38.72629891845703,145.97997841796874,38.88675891845703Q146.14047841796875,39.047218918457034,146.29287841796875,39.21535891845703Q146.44527841796875,39.38348891845703,146.58917841796875,39.55890891845703Q146.73317841796876,39.734318918457035,146.86827841796875,39.916578918457034Q147.00347841796875,40.09884891845703,147.12957841796876,40.28752891845703Q147.25567841796874,40.47620891845703,147.37227841796874,40.67083891845703Q147.48897841796875,40.86547891845703,147.59587841796875,41.06560891845703Q147.70287841796875,41.26572891845703,147.79987841796876,41.47086891845703Q147.89687841796876,41.67599891845703,147.98377841796875,41.88564891845703Q148.07057841796876,42.09529891845703,148.14707841796874,42.308948918457034Q148.22347841796875,42.52260891845703,148.28937841796875,42.73975891845703Q148.35517841796874,42.95690891845703,148.41037841796876,43.17702891845703Q148.46547841796874,43.397148918457034,148.50977841796876,43.61970891845703Q148.55407841796875,43.84226891845703,148.58737841796875,44.066738918457034Q148.62057841796874,44.29120891845703,148.64287841796875,44.51702891845703Q148.66507841796874,44.74285891845703,148.67627841796875,44.96950891845703Q148.68737841796874,45.19615891845703,148.68737841796874,45.42307891845703Z" fill="#FFFFFF" fill-opacity="1"/><path d="M148.42157841796876,49.21592891845703Q149.18737841796874,47.40522891845703,149.18737841796874,45.42312891845703Q149.18737841796874,43.441068918457034,148.42157841796876,41.630268918457034Q147.68197841796876,39.88153891845703,146.33367841796874,38.533228918457034Q144.98537841796875,37.184868918457035,143.23657841796876,36.44524791845703Q141.42567841796875,35.67932891845703,139.44337841796874,35.67932891845703Q137.46141841796876,35.67932891845703,135.65069841796875,36.445256918457034Q133.90213841796876,37.184888918457034,132.55392841796876,38.53323891845703Q131.20573841796875,39.88157891845703,130.46619541796875,41.630268918457034Q129.70037841796875,43.44109891845703,129.70037841796875,45.42312891845703Q129.70037841796875,47.40512891845703,130.46619641796875,49.21592891845703Q131.20573841796875,50.96462891845703,132.55393841796874,52.31292891845703Q133.90213841796876,53.66132891845703,135.65069841796875,54.400928918457026Q137.46140841796876,55.16682891845703,139.44337841796874,55.16682891845703Q141.42567841796875,55.16682891845703,143.23657841796876,54.400928918457026Q144.98537841796875,53.66132891845703,146.33367841796874,52.31292891845703Q147.68197841796876,50.96472891845703,148.42157841796876,49.21592891845703ZM147.50047841796874,42.01978891845703Q148.18737841796874,43.64383891845703,148.18737841796874,45.42312891845703Q148.18737841796874,47.20242891845703,147.50047841796874,48.82642891845703Q146.83687841796876,50.39552891845703,145.62657841796874,51.605828918457036Q144.41617841796875,52.81632891845703,142.84707841796876,53.479928918457034Q141.22287841796876,54.16682891845703,139.44337841796874,54.16682891845703Q137.66420841796875,54.16682891845703,136.04026841796875,53.479928918457034Q134.47135841796876,52.81632891845703,133.26106841796874,51.60592891845703Q132.05078841796876,50.39552891845703,131.38721841796874,48.82642891845703Q130.70037841796875,47.20242891845703,130.70037841796875,45.42312891845703Q130.70037841796875,43.64385891845703,131.38721841796874,42.01978891845703Q132.05078841796876,40.45072891845703,133.26107841796875,39.24030891845703Q134.47136841796876,38.02989891845703,136.04027841796875,37.36624891845703Q137.66421841796875,36.67932891845703,139.44337841796874,36.67932891845703Q141.22287841796876,36.67932891845703,142.84707841796876,37.36625891845703Q144.41617841796875,38.02989891845703,145.62657841796874,39.24032891845703Q146.83687841796876,40.45071891845703,147.50047841796874,42.01978891845703Z" fill-rule="evenodd" fill="#515151" fill-opacity="1"/></g><g><path d="M147.617376953125,41.12372891845703C146.112376953125,38.114128918457034,143.103376953125,36.17932891845703,139.448376953125,36.17932891845703C137.513386953125,36.17932891845703,136.009386953125,36.60932891845703,134.504378953125,37.46912891845703L134.95538695312501,37.59492891845703C134.551375953125,37.84352891845703,134.168380953125,38.12062891845703,133.786376953125,38.426428918457034L148.111376953125,42.92292891845703C147.899376953125,42.287928918457034,147.632376953125,41.65282891845703,147.339376953125,41.04612891845703L147.617376953125,41.12372891845703Z" fill-rule="evenodd" fill="#515151" fill-opacity="1"/></g><g><path d="M135.1773834223828,41.90542992285156C135.16737365738283,42.40873092285156,135.5663753173828,42.82543092285156,136.0693813173828,42.83603092285156C136.5733803173828,42.84663092285156,136.98938031738282,42.44723092285156,137.00038031738282,41.94403092285156C137.01138031738282,41.440730922851564,136.6113703173828,41.02412792285156,136.10838331738282,41.01353073085156C135.60537731738282,41.00283052285156,135.1883697173828,41.40222892285156,135.1773834223828,41.90542992285156ZM141.8603803173828,43.42313092285156C141.8503703173828,43.926430922851566,142.2493703173828,44.343130922851564,142.7523803173828,44.35373092285156C143.25638031738282,44.364330922851565,143.67238031738282,43.964930922851565,143.6833803173828,43.461730922851565C143.6943803173828,42.95843092285156,143.2943703173828,42.54183092285156,142.79138031738282,42.53123092285156C142.2883803173828,42.52053092285156,141.8713803173828,42.91993092285156,141.8603803173828,43.42313092285156Z" fill-rule="evenodd" fill="#515151" fill-opacity="1"/></g><g><path d="M151.1413740234375,46.64203029785156Q151.1413740234375,46.75707029785156,151.1300940234375,46.87155029785156Q151.1188240234375,46.98603029785156,151.0963840234375,47.09885029785156Q151.0739440234375,47.211680297851565,151.0405440234375,47.32176029785156Q151.0071540234375,47.431840297851565,150.9631340234375,47.53812029785156Q150.9191140234375,47.64440029785156,150.8648940234375,47.74585029785156Q150.8106640234375,47.847310297851564,150.7467540234375,47.94295029785156Q150.6828540234375,48.03860029785156,150.6098740234375,48.127530297851564Q150.5369040234375,48.216450297851566,150.4555640234375,48.29779029785156Q150.3742240234375,48.37913029785156,150.2853040234375,48.45211029785156Q150.1963840234375,48.52509029785156,150.1007440234375,48.58900029785156Q150.0050940234375,48.65291029785156,149.9036440234375,48.707140297851566Q149.8022040234375,48.76136029785156,149.6959240234375,48.80539029785156Q149.5896540234375,48.84941029785156,149.4795740234375,48.88280029785156Q149.3694940234375,48.916190297851564,149.2566740234375,48.93864029785156Q149.1438540234375,48.96108029785157,149.0293840234375,48.972360297851566Q148.9149040234375,48.98363029785156,148.7998740234375,48.98363029785156Q148.6848440234375,48.98363029785156,148.5703640234375,48.972360297851566Q148.4558940234375,48.96108029785157,148.3430740234375,48.93864029785156Q148.2302540234375,48.916190297851564,148.1201740234375,48.88280029785156Q148.0100940234375,48.84941029785156,147.9038240234375,48.80539029785156Q147.7975440234375,48.76136029785156,147.6960940234375,48.707140297851566Q147.5946540234375,48.65291029785156,147.4990040234375,48.58900029785156Q147.4033620234375,48.52509029785156,147.3144420234375,48.45211029785156Q147.2255220234375,48.37913029785156,147.1441830234375,48.29779029785156Q147.0628440234375,48.216450297851566,146.9898700234375,48.127530297851564Q146.9168950234375,48.03860029785156,146.8529880234375,47.94295029785156Q146.7890800234375,47.847310297851564,146.7348550234375,47.74585029785156Q146.6806300234375,47.64440029785156,146.6366100234375,47.53812029785156Q146.5925900234375,47.431840297851565,146.5591980234375,47.32176029785156Q146.5258066234375,47.211680297851565,146.5033652234375,47.09885029785156Q146.4809239234375,46.98603029785156,146.4696490234375,46.87155029785156Q146.4583740234375,46.75707029785156,146.4583740234375,46.64203029785156Q146.4583740234375,46.527000297851565,146.4696490234375,46.41251029785156Q146.4809239234375,46.29803029785156,146.5033652234375,46.18521029785156Q146.5258066234375,46.07238029785156,146.5591980234375,45.96230029785156Q146.5925900234375,45.85222029785156,146.6366100234375,45.74594029785156Q146.6806300234375,45.63966029785156,146.7348550234375,45.53821029785156Q146.7890800234375,45.43676029785156,146.8529880234375,45.341110297851564Q146.9168950234375,45.24545829785156,146.9898700234375,45.15653529785156Q147.0628440234375,45.06761129785156,147.1441830234375,44.986269297851564Q147.2255220234375,44.90492629785156,147.3144420234375,44.831949297851565Q147.4033620234375,44.75897129785156,147.4990040234375,44.69506129785156Q147.5946540234375,44.63115129785156,147.6960940234375,44.576923297851565Q147.7975440234375,44.52269629785156,147.9038240234375,44.47867429785156Q148.0100940234375,44.434652297851564,148.1201740234375,44.40125929785156Q148.2302540234375,44.367865797851564,148.3430740234375,44.34542349785156Q148.4558940234375,44.32298119785156,148.5703640234375,44.311705697851565Q148.6848440234375,44.30043029785156,148.7998740234375,44.30043029785156Q148.9149040234375,44.30043029785156,149.0293840234375,44.311705697851565Q149.1438540234375,44.32298119785156,149.2566740234375,44.34542349785156Q149.3694940234375,44.367865797851564,149.4795740234375,44.40125929785156Q149.5896540234375,44.434652297851564,149.6959240234375,44.47867429785156Q149.8022040234375,44.52269629785156,149.9036440234375,44.576923297851565Q150.0050940234375,44.63115129785156,150.1007440234375,44.69506129785156Q150.1963840234375,44.75897129785156,150.2853040234375,44.831949297851565Q150.3742240234375,44.90492629785156,150.4555640234375,44.986269297851564Q150.5369040234375,45.06761129785156,150.6098740234375,45.15653529785156Q150.6828540234375,45.24545829785156,150.7467540234375,45.341110297851564Q150.8106640234375,45.43676029785156,150.8648940234375,45.53821029785156Q150.9191140234375,45.63966029785156,150.9631340234375,45.74594029785156Q151.0071540234375,45.85222029785156,151.0405440234375,45.96230029785156Q151.0739440234375,46.07238029785156,151.0963840234375,46.18521029785156Q151.1188240234375,46.29803029785156,151.1300940234375,46.41251029785156Q151.1413740234375,46.527000297851565,151.1413740234375,46.64203029785156Z" fill="#FFFFFF" fill-opacity="1"/><path d="M150.8091840234375,48.651310297851566Q151.6413740234375,47.81910029785156,151.6413740234375,46.64193029785156Q151.6413740234375,45.46482029785156,150.8091740234375,44.632666297851564Q149.9768840234375,43.80043029785156,148.7993740234375,43.80043029785156Q147.6225040234375,43.80043029785156,146.7904060234375,44.63271729785156Q145.9583740234375,45.46494029785156,145.9583740234375,46.64193029785156Q145.9583740234375,47.81898029785156,146.7903900234375,48.651260297851564Q147.6224840234375,49.48363029785156,148.7993740234375,49.48363029785156Q149.9769040234375,49.48363029785156,150.8091840234375,48.651310297851566ZM150.1020840234375,45.339790297851565Q150.6413740234375,45.87905029785156,150.6413740234375,46.64193029785156Q150.6413740234375,47.40490029785156,150.1020640234375,47.944220297851565Q149.5626740234375,48.48363029785156,148.7993740234375,48.48363029785156Q148.0367940234375,48.48363029785156,147.4976140234375,47.94427029785156Q146.9583740234375,47.40486029785156,146.9583740234375,46.64193029785156Q146.9583740234375,45.87909029785156,147.4975940234375,45.33974029785156Q148.0367840234375,44.80043029785156,148.7993740234375,44.80043029785156Q149.5626940234375,44.80043029785156,150.1020840234375,45.339790297851565Z" fill-rule="evenodd" fill="#515151" fill-opacity="1"/></g><g><path d="M106.76538492919921,79.62222639648438C104.95338492919922,79.87052639648438,104.58038492919921,80.57202639648438,104.48438492919922,80.81323639648437C104.37338492919922,81.09012639648438,104.35738492919921,81.30182639648437,104.37138492919922,81.46343639648437C104.38538492919922,81.63492639648437,104.43938492919922,81.81102639648438,104.53438492919922,81.98702639648438C104.63238492919922,82.16802639648438,104.76038492919922,82.32353639648437,104.88238492919922,82.43512639648438Q104.96638492919922,82.51252639648438,105.01638492919922,82.54072639648437Q104.99538492919922,82.52982639648437,104.94938492919923,82.51322639648437L103.08038492919921,87.69630639648437C101.73138492919922,87.20980639648437,100.45538492919921,86.03090639648437,99.68538692919923,84.60210639648437C98.84738158919922,83.04872639648437,98.48438292919921,80.97453639648438,99.36938492919921,78.76492639648437C100.35338492919922,76.30763639648437,102.68038492919922,74.62092639648438,106.01638492919922,74.16362739648437C109.23236492919922,73.72283139648438,113.52636492919922,74.37323039648437,119.15936492919921,76.46112639648437C125.68836492919922,78.88082639648438,130.9993649291992,82.78192639648438,135.86736492919923,86.85310639648438C137.4343649291992,88.16370639648437,138.9343649291992,89.47160639648438,140.4123649291992,90.75930639648438C143.6313649291992,93.56530639648437,146.74236492919923,96.27730639648438,150.19836492919922,98.71630639648437C155.12336492919923,102.19130639648438,160.49336492919923,104.90230639648438,167.1553649291992,105.97430639648438C173.82936492919922,107.04930639648438,182.00836492919922,106.51330639648438,192.57736492919923,103.16830639648438L194.24036492919922,108.42130639648437C183.04636492919923,111.96330639648437,173.98436492919922,112.65430639648437,166.27936492919923,111.41430639648438C158.56236492919922,110.17130639648437,152.41536492919923,107.02430639648438,147.02136492919922,103.21830639648438C143.3283649291992,100.61230639648437,139.8643649291992,97.59330639648438,136.54036492919923,94.69730639648438C135.1143649291992,93.45430639648438,133.7133649291992,92.23430639648437,132.33236492919923,91.07930639648438C127.61836492919922,87.13710639648437,122.88436492919922,83.71762639648438,117.24536492919921,81.62732639648438C112.00136492919921,79.68372639648437,108.69738492919922,79.35732639648438,106.76538492919921,79.62222639648438Z" fill-rule="evenodd" fill="#515151" fill-opacity="1"/></g></g></svg>