<svg xmlns="http://www.w3.org/2000/svg" xmlns:xlink="http://www.w3.org/1999/xlink" fill="none" version="1.1" width="188.981201171875" height="183.3857421875" viewBox="0 0 188.981201171875 183.3857421875"><g><g><path d="M58.3327,56.3012L58.3327,0L0,70.3753L44.2586,70.3753L44.2586,90.6679L58.3327,90.6679L58.3327,70.3753L67.1497,70.3753L67.1497,56.3012L58.3327,56.3012ZM168.51,56.3012L168.51,0L118.353,60.5118C119.051,56.7744,119.422,52.8251,119.422,48.753C119.422,37.7559,116.714,27.6549,112.176,20.204C107.67,12.8064,101.039,7.58142,93.1677,7.58142C85.2971,7.58142,78.6648,12.8064,74.1591,20.204C69.6209,27.6549,66.9122,37.7559,66.9122,48.753C66.9122,59.75,69.6209,69.851,74.1591,77.3019C78.6648,84.6996,85.2971,89.9245,93.1677,89.9245C101.039,89.9245,107.67,84.6996,112.176,77.3019C113.461,75.1922,114.599,72.8701,115.571,70.3753L154.436,70.3753L154.436,90.6679L168.51,90.6679L168.51,70.3753L177.327,70.3753L177.327,56.3012L168.51,56.3012ZM29.946,56.3012L44.2586,39.0338L44.2586,56.3012L29.946,56.3012ZM154.436,56.3012L140.123,56.3012L154.436,39.0338L154.436,56.3012ZM105.348,48.753C105.348,57.5999,103.142,65.0779,100.156,69.9808C97.0682,75.0526,94.2782,75.8504,93.1677,75.8504C92.0567,75.8504,89.2682,75.0526,86.1791,69.9808C83.1928,65.0779,80.9863,57.5999,80.9863,48.753C80.9863,39.9061,83.1928,32.4281,86.1791,27.5251C89.2682,22.4534,92.0567,21.6555,93.1677,21.6555C94.2782,21.6555,97.0682,22.4534,100.156,27.5251C103.142,32.4281,105.348,39.9061,105.348,48.753Z" fill-rule="evenodd" fill="#EAF5FF" fill-opacity="1"/></g><g><path d="M172.58020657348632,178.0055625C170.72720657348634,180.1995625,165.91620657348633,179.0265625,164.44720657348634,178.24256250000002C164.32620657348633,178.1775625,164.21420657348634,178.1045625,164.11020657348632,178.0245625C162.17620657348633,178.2485625,149.17520657348632,177.5265625,148.99320657348633,177.56956250000002C142.8702065734863,178.9935625,134.93120657348632,178.5995625,133.79120657348633,178.5605625C132.43220657348633,178.5135625,129.25720657348631,177.2365625,128.03920657348633,173.4895625C126.84520657348632,169.8145625,128.03720657348634,166.3655625,130.19820657348635,160.1145625L130.32920657348632,159.7385625C129.85420657348632,160.6805625,129.37620657348634,161.62256250000002,128.89720657348633,162.5625625C121.53420657348633,176.99256250000002,117.85120657348632,182.2655625,111.47120657348633,182.71056249999998C105.09120657348633,183.1545625,77.13360657348633,182.6185625,70.38280657348633,181.9265625C63.63200657348633,181.23556250000001,60.96460657348633,180.24756250000002,61.03050657348633,179.0945625C61.08320657348633,178.1725625,64.01450657348633,176.8995625,65.47360657348634,176.3785625C59.586506573486325,174.8055625,45.30800657348633,170.4065625,35.29060657348633,165.3985625C22.768886573486327,159.1375625,10.153686573486329,149.60556250000002,13.377590573486328,136.4765625C16.601386573486327,123.34756250000001,29.13680657348633,119.6775625,38.968606573486326,119.09956249999999C41.71630657348633,118.9375625,44.11210657348633,118.9955625,46.13090657348633,119.1695625C49.89100657348633,119.4945625,52.34300657348633,120.22456249999999,53.32420657348633,120.6955625C52.21590657348633,114.3225625,49.99950657348633,101.3585625,49.99950657348633,100.4855625C49.99950657348633,99.3935625,46.978406573486325,89.8208625,46.36140657348633,86.1323625C46.27020657348633,85.5870625,45.246606573486325,80.5391225,49.99950657348633,81.1139225C54.75250657348633,81.6887225,62.39470657348633,99.3155625,65.88490657348632,109.8195625C71.59660657348633,104.8525625,76.65860657348634,100.4085625,77.03450657348633,99.9495625C77.86800657348633,98.93056250000001,86.39340657348633,90.19426250000001,91.90600657348632,86.1016625C97.41820657348633,82.0090225,108.61220657348633,75.1679225,124.90120657348633,74.3497235C141.19120657348634,73.5315245,159.39020657348632,76.7110225,165.79220657348634,86.2580625C172.19420657348633,95.8045625,171.89420657348631,120.70056249999999,172.24420657348634,134.9685625C172.59320657348633,149.2365625,173.08520657348632,162.60956249999998,174.35520657348633,164.7255625C175.62520657348634,166.84256249999999,180.79720657348633,169.74656249999998,184.12420657348633,171.8635625C187.45120657348633,173.98056250000002,188.56920657348633,175.7645625,188.47820657348632,176.0665625C188.38720657348634,176.3695625,188.08520657348632,176.64156250000002,186.2452065734863,177.14656250000002C186.57620657348633,177.6195625,186.36320657348634,178.5295625,184.12420657348633,178.7555625C179.41520657348633,179.2295625,175.47820657348632,178.0055625,172.58020657348632,178.0055625Z" fill="#FFFFFF" fill-opacity="1"/></g><g><path d="M50.883510388183595,119.3908625Q48.76461038818359,118.8952625,46.17391038818359,118.6713625L46.130910388183594,119.1695625L46.1738103881836,118.6713625Q42.746110388183595,118.3759625,38.9392103881836,118.6003625Q29.805110388183593,119.1373625,23.453410388183592,122.6436625Q15.131290388183594,127.2377625,12.892017288183593,136.3572625Q10.628840388183594,145.5739625,18.057460388183593,153.8470625Q23.750610388183595,160.1872625,35.06701038818359,165.8457625Q41.73341038818359,169.1784625,51.767510388183595,172.6491625Q58.32971038818359,174.9185625,63.89111038818359,176.4655625Q63.14881038818359,176.7885625,62.486710388183596,177.14656250000002Q60.582110388183594,178.1765625,60.53131038818359,179.0655625Q60.45771038818359,180.3525625,62.998910388183596,181.1605625Q65.3802103881836,181.9175625,70.33181038818358,182.4235625Q75.4190103881836,182.9455625,91.0565103881836,183.2445625Q106.70231038818359,183.5435625,111.5060103881836,183.2095625Q114.0232103881836,183.03356250000002,116.1002103881836,181.8375625Q118.1722103881836,180.6425625,120.20021038818359,178.2005625Q122.1032103881836,175.90856250000002,124.3972103881836,171.98826250000002Q125.8702103881836,169.4695625,127.90221038818359,165.5811625Q127.53021038818359,166.86916250000002,127.3702103881836,167.6712625Q126.70621038818359,171.0050625,127.56321038818359,173.64406250000002Q128.4242103881836,176.2925625,130.57221038818358,177.81956250000002Q132.2422103881836,179.0075625,133.77421038818358,179.0605625Q133.8312103881836,179.0625625,133.9982103881836,179.06856249999998Q143.19221038818358,179.4215625,149.0582103881836,178.0675625Q149.10921038818358,178.06856249999998,149.2082103881836,178.0715625Q149.40021038818358,178.0775625,149.7792103881836,178.09356250000002Q150.2662103881836,178.1135625,151.7532103881836,178.18156249999998Q162.1072103881836,178.6555625,163.9692103881836,178.5385625Q164.0862103881836,178.6165625,164.2122103881836,178.6835625Q164.8732103881836,179.0365625,165.9462103881836,179.3275625Q167.1522103881836,179.65356250000002,168.3332103881836,179.7395625Q171.38821038818358,179.96056249999998,172.7982103881836,178.50856249999998Q173.8782103881836,178.5405625,176.18621038818358,178.8615625Q178.5712103881836,179.19356249999998,179.9022103881836,179.2895625Q182.1782103881836,179.4535625,184.17421038818358,179.2525625Q185.8682103881836,179.08156250000002,186.5152103881836,178.38356249999998Q186.8442103881836,178.02856250000002,186.8672103881836,177.59256249999999Q186.87021038818358,177.5395625,186.8692103881836,177.4885625Q187.8122103881836,177.2075625,188.2532103881836,176.9715625Q188.8192103881836,176.66956249999998,188.9572103881836,176.21056249999998Q189.13921038818359,175.6065625,187.9522103881836,174.3085625Q186.6372103881836,172.8701625,184.3922103881836,171.4416625Q183.7952103881836,171.06186250000002,182.4632103881836,170.23916250000002Q179.2142103881836,168.2333625,177.7882103881836,167.21676250000002Q175.4212103881836,165.53076249999998,174.7842103881836,164.46826249999998Q173.9822103881836,163.13206250000002,173.4532103881836,154.3738625Q173.0592103881836,147.83986249999998,172.7442103881836,134.9562625Q172.7062103881836,133.4231625,172.64421038818358,130.00946249999998Q172.5052103881836,122.3654625,172.3432103881836,118.2398625Q172.06721038818358,111.1914625,171.5092103881836,105.8411625Q170.0322103881836,91.6821625,166.2072103881836,85.9795625Q161.5962103881836,79.1032625,149.1782103881836,75.9324625Q143.7542103881836,74.5473565,137.3032103881836,74.0243065Q131.2252103881836,73.5314785,124.8762103881836,73.8503535Q114.00921038818359,74.3961865,104.16841038818359,78.5369125Q97.4469103881836,81.3650225,91.6079103881836,85.7001625Q88.01651038818359,88.3664625,82.36831038818359,93.8184625Q77.78411038818359,98.2433625,76.6476103881836,99.6327625Q76.1918103881836,100.1893625,66.1209103881836,108.9515625Q64.79141038818359,105.0310625,63.061610388183595,100.7947625Q60.963810388183596,95.6567625,58.861510388183596,91.5168625Q53.54071038818359,81.0385225,50.0595103881836,80.6175425Q48.2789103881836,80.4021925,47.18711038818359,81.1277525Q46.26681038818359,81.7393325,45.91401038818359,82.9535025Q45.529310388183596,84.2773625,45.85861038818359,86.1593625Q45.86591038818359,86.2008625,45.86821038818359,86.2148625Q46.2042103881836,88.2234625,48.11561038818359,95.0826625Q49.499510388183595,100.0487625,49.499510388183595,100.4855625Q49.49941038818359,101.5941625,52.67771038818359,119.8959625Q51.92191038818359,119.6337625,50.883510388183595,119.3908625ZM186.24521038818358,177.14656250000002L185.83521038818358,177.43256250000002Q185.3122103881836,176.6845625,183.71621038818358,175.7655625Q182.1542103881836,174.8665625,179.9442103881836,174.0269625Q175.1282103881836,172.1982625,171.1632103881836,171.89306249999998Q167.6142103881836,171.61996249999999,166.0122103881836,172.14656250000002Q164.9642103881836,172.4908625,164.2022103881836,173.5413625Q163.5242103881836,174.4735625,163.5722103881836,175.7365625Q163.6192103881836,177.00956250000002,164.4152103881836,177.6285625Q164.5422103881836,177.7255625,164.6822103881836,177.8015625Q165.2442103881836,178.1015625,166.2082103881836,178.3625625Q167.3212103881836,178.6635625,168.40621038818358,178.74256250000002Q171.1372103881836,178.9395625,172.19821038818358,177.68256250000002L172.3482103881836,177.5055625L172.5802103881836,177.5055625Q173.6992103881836,177.5055625,176.3242103881836,177.87156249999998Q178.6762103881836,178.19856249999998,179.9742103881836,178.2925625Q182.1642103881836,178.4505625,184.0742103881836,178.2575625Q185.3912103881836,178.1255625,185.78121038818358,177.7035625Q185.9202103881836,177.5545625,185.83521038818358,177.4335625L186.24521038818358,177.14656250000002ZM163.04921038818358,177.5645625Q162.6112103881836,176.81956250000002,162.5722103881836,175.7735625Q162.5122103881836,174.1656625,163.3922103881836,172.9536625Q164.3452103881836,171.6417625,165.7002103881836,171.1965625Q167.4922103881836,170.6075625,171.2392103881836,170.8959625Q175.3492103881836,171.2122625,180.29921038818358,173.0920625Q184.9752103881836,174.86756250000002,186.4332103881836,176.5745625Q187.7302103881836,176.2025625,187.9552103881836,175.9865625Q187.9252103881836,175.9215625,187.8742103881836,175.83556249999998Q187.6552103881836,175.4655625,187.2142103881836,174.9825625Q185.9892103881836,173.6426625,183.8562103881836,172.28536250000002Q183.26421038818359,171.9089625,181.9382103881836,171.0899625Q178.6612103881836,169.0668625,177.2072103881836,168.0311625Q174.6712103881836,166.2241625,173.9262103881836,164.9828625Q172.9982103881836,163.4367625,172.4552103881836,154.4341625Q172.0602103881836,147.8819625,171.7442103881836,134.9807625Q171.7062103881836,133.4418625,171.64421038818358,130.0275625Q171.5062103881836,122.3939625,171.3442103881836,118.27906250000001Q171.0692103881836,111.2628625,170.51421038818359,105.9449625Q169.0632103881836,92.0329625,165.37721038818358,86.5364625Q160.97821038818358,79.9776325,148.9312103881836,76.9013825Q143.5882103881836,75.5372325,137.2222103881836,75.0210355Q131.20921038818358,74.5335135,124.92621038818359,74.8490945Q114.23521038818359,75.3861125,104.55621038818359,79.4586425Q97.9461103881836,82.2399325,92.20401038818359,86.5030625Q88.66461038818359,89.1308625,83.06281038818359,94.53796249999999Q78.52081038818359,98.9221625,77.4213103881836,100.2663625Q76.8993103881836,100.9037625,66.21301038818359,110.19686250000001L65.64691038818358,110.6890625L65.41041038818359,109.97716249999999Q64.0102103881836,105.7632625,62.13581038818359,101.1727625Q60.0535103881836,96.0728625,57.96991038818359,91.9696625Q55.605910388183595,87.3141625,53.5976103881836,84.6667625Q51.41441038818359,81.7886725,49.939410388183596,81.6103025Q47.433810388183595,81.3072825,46.874310388183595,83.2325625Q46.554310388183595,84.3335625,46.843710388183595,85.9869625Q46.85151038818359,86.0317625,46.85451038818359,86.0498625Q47.18181038818359,88.0061625,49.078910388183594,94.8142625Q50.499510388183595,99.9120625,50.499510388183595,100.4855625Q50.499510388183595,101.5344625,53.81681038818359,120.60986249999999L53.9831103881836,121.5664625L53.107810388183594,121.1462625Q52.26231038818359,120.7403625,50.65571038818359,120.36466250000001Q48.875210388183596,119.9481625,46.73961038818359,119.7291625Q47.96431038818359,126.3068625,50.42581038818359,130.3232625Q53.3797103881836,135.1436625,56.92601038818359,137.9937625Q62.979410388183595,142.85896250000002,70.14781038818359,141.6623625Q70.70921038818359,141.5699625,71.28401038818359,141.4356625Q73.9999103881836,140.8011625,78.79601038818359,137.9170625Q82.96511038818359,135.4098625,88.1233103881836,131.5627625L88.1515103881836,131.5417625Q92.41711038818359,128.3593625,96.2989103881836,125.0638625Q99.7975103881836,122.09356249999999,101.5834103881836,120.2321625Q100.32521038818359,111.8272625,100.32521038818359,105.7925625L101.32521038818359,105.7925625Q101.32511038818359,111.8388625,102.60861038818359,120.32476249999999Q103.29311038818359,124.8502625,104.27811038818359,129.5022625Q114.4772103881836,113.1413625,121.1272103881836,106.9320625Q126.0432103881836,102.34106249999999,130.23321038818358,99.7722625Q134.6522103881836,97.0624625,138.74521038818358,96.2983625Q142.9402103881836,95.5152625,147.1402103881836,96.7047625Q151.3002103881836,97.8829625,155.7952103881836,101.0936625Q160.1002103881836,104.1692625,162.9072103881836,110.5740625Q165.38321038818358,116.22426250000001,166.5412103881836,124.0788625Q167.5712103881836,131.06856249999998,167.4442103881836,138.9044625Q167.3282103881836,146.09266250000002,166.2852103881836,152.3556625Q164.4232103881836,163.54036250000001,160.7552103881836,169.5707625Q157.5842103881836,174.78356250000002,152.4552103881836,176.9935625Q152.2202103881836,177.0945625,151.9742103881836,177.1905625Q160.41821038818358,177.5755625,163.04921038818358,177.5645625ZM148.8802103881836,177.0825625Q150.7022103881836,176.6595625,152.0592103881836,176.0755625Q156.89521038818359,173.99166250000002,159.90021038818358,169.0510625Q163.4692103881836,163.1855625,165.29921038818358,152.1914625Q166.32921038818358,146.0020625,166.4442103881836,138.8882625Q166.5702103881836,131.1337625,165.5522103881836,124.2246625Q164.4142103881836,116.5027625,161.9912103881836,110.97546249999999Q159.2952103881836,104.8228625,155.2132103881836,101.9073625Q150.8602103881836,98.7977625,146.8672103881836,97.6669625Q142.8932103881836,96.5412625,138.9282103881836,97.2813625Q135.0172103881836,98.0115625,130.7562103881836,100.6247625Q126.65221038818359,103.1407625,121.80921038818359,107.66296249999999Q115.0462103881836,113.9787625,104.4755103881836,131.0803625L104.0502103881836,130.8175625L104.47541038818359,131.0804625Q102.72321038818359,133.9141625,100.9346103881836,136.9408625Q96.6964103881836,144.10896250000002,93.1845103881836,150.6617625L92.74381038818359,150.4255625L93.1844103881836,150.6617625Q92.5506103881836,151.8439625,92.3681103881836,152.2077625Q91.0290103881836,154.8884625,89.1104103881836,157.95566250000002Q85.5454103881836,163.6547625,82.29651038818359,166.6340625Q79.23871038818359,169.4372625,74.63301038818359,172.2356625Q70.24811038818359,174.9005625,65.66851038818359,176.8385625L65.4736103881836,176.3785625L65.6417103881836,176.8495625Q64.1583103881836,177.3785625,62.962510388183595,178.0255625Q61.54871038818359,178.7905625,61.529710388183595,179.12256250000002Q61.51951038818359,179.29956249999998,61.818910388183596,179.5295625Q62.278610388183594,179.8825625,63.3018103881836,180.2075625Q65.5848103881836,180.93256250000002,70.43381038818359,181.4295625Q75.4795103881836,181.9465625,91.07561038818359,182.2445625Q106.67711038818359,182.5425625,111.43641038818359,182.2115625Q113.7242103881836,182.0525625,115.6002103881836,180.9705625Q117.5172103881836,179.8655625,119.43121038818359,177.56156249999998Q121.2822103881836,175.3325625,123.5342103881836,171.4832625Q125.4922103881836,168.1362625,128.4512103881836,162.3359625L129.1622103881836,160.9380625L129.88221038818358,159.5134625L129.8832103881836,159.51286249999998Q132.8062103881836,153.7129625,135.0862103881836,148.89306249999998Q135.0852103881836,148.8126625,135.0832103881836,148.73396250000002Q135.0212103881836,144.58486249999999,136.0532103881836,139.8000625Q136.58921038818357,137.31856249999998,137.7312103881836,134.5185625Q138.7782103881836,131.9518625,139.9702103881836,129.9745625Q141.2082103881836,127.9229625,142.0832103881836,127.4061625Q142.8312103881836,126.9645625,143.3222103881836,127.5060625Q143.68021038818358,127.9013625,143.69221038818358,128.8683625Q143.7432103881836,132.9653625,136.0932103881836,149.11906249999998Q136.1632103881836,151.31276250000002,136.63921038818359,154.3236625L136.6672103881836,154.4995625L135.6792103881836,154.6555625L135.65121038818359,154.4799625Q135.3492103881836,152.5705625,135.2072103881836,150.97596249999998Q133.2292103881836,155.0939625,130.7912103881836,159.93346250000002L130.6712103881836,160.2806625Q128.7632103881836,165.7974625,128.35121038818357,167.86666250000002Q127.73821038818359,170.9443625,128.51421038818359,173.33496250000002Q129.2732103881836,175.66956249999998,131.1522103881836,177.00456250000002Q132.57721038818357,178.0185625,133.8082103881836,178.0605625Q133.8682103881836,178.0625625,134.03621038818358,178.06956250000002Q143.1342103881836,178.4185625,148.8802103881836,177.0825625ZM136.1182103881836,146.6916625Q137.6652103881836,143.3576625,138.8732103881836,140.5409625Q142.7262103881836,131.5602625,142.69221038818358,128.8807625Q142.68621038818358,128.4206625,142.6222103881836,128.2500625Q142.6082103881836,128.2576625,142.59121038818358,128.2673625Q141.9332103881836,128.6557625,140.82721038818357,130.4909625Q139.6742103881836,132.4018625,138.65721038818361,134.8961625Q137.54821038818358,137.6151625,137.03121038818358,140.0109625Q136.2712103881836,143.53256249999998,136.1182103881836,146.6916625ZM65.4366103881836,175.8505625Q69.86671038818359,173.9616625,74.1138103881836,171.38106249999998Q78.63541038818359,168.6337625,81.6206103881836,165.8969625Q84.7696103881836,163.0093625,88.26261038818359,157.4253625Q90.1558103881836,154.3987625,91.4743103881836,151.7592625Q91.62261038818359,151.4638625,92.0497103881836,150.6630625Q87.6087103881836,148.69606249999998,80.4838103881836,146.1501625Q74.98181038818359,144.1841625,70.19321038818359,142.6682625Q62.70251038818359,143.8705625,56.38471038818359,138.8413625Q53.85341038818359,138.1984625,49.44701038818359,137.3636625Q44.846310388183596,136.4920625,43.74591038818359,136.4724625L43.7637103881836,135.4725625Q44.949010388183595,135.4936625,49.63321038818359,136.38116250000002Q52.627910388183594,136.9485625,54.768110388183594,137.4292625Q51.972810388183596,134.7616625,49.5732103881836,130.8457625Q46.9634103881836,126.58756249999999,45.7059103881836,119.6364625Q42.5206103881836,119.3909625,38.9979103881836,119.5986625Q30.090010388183593,120.12236250000001,23.93671038818359,123.5191625Q15.998000388183595,127.9015625,13.863166388183593,136.5957625Q11.726030388183593,145.2990625,18.801520388183594,153.1789625Q24.367710388183596,159.3779625,35.51421038818359,164.95126249999998Q42.12211038818359,168.2547625,52.0944103881836,171.7041625Q59.3902103881836,174.2275625,65.4366103881836,175.8505625ZM72.1406103881836,142.24226249999998Q76.23421038818358,143.5696625,80.8203103881836,145.2084625Q88.03441038818359,147.7861625,92.52331038818359,149.77916249999998Q95.83281038818359,143.6257625,99.7761103881836,136.9363625L93.9316103881836,134.6260625L88.5266103881836,132.5092625Q83.44411038818359,136.2887625,79.31141038818359,138.77396249999998Q74.90131038818359,141.4260625,72.1406103881836,142.24226249999998ZM89.4683103881836,131.8041625L94.2992103881836,133.69606249999998L100.2912103881836,136.0646625Q101.91981038818359,133.3158625,103.5185103881836,130.7267625Q102.49471038818359,126.0332625,101.7731103881836,121.4658625Q99.9978103881836,123.23536250000001,96.9461103881836,125.82616250000001Q93.36871038818359,128.8632625,89.4683103881836,131.8041625Z" fill-rule="evenodd" fill="#515151" fill-opacity="1"/></g><g><path d="M71.98048961181641,64.75001525878906L95.7121896118164,107.95451525878906L94.0166896118164,110.44651525878906L71.27418961181641,119.99551525878906L46.695289611816406,75.51571525878906L68.5902896118164,64.75001525878906L71.98048961181641,64.75001525878906Z" fill="#E6E8EA" fill-opacity="1"/></g><g><path d="M68.5902896118164,64.75001525878906L68.5902896118164,64.25001525878906L72.27628961181641,64.25001525878906L96.2979896118164,107.98241525878906L94.3467896118164,110.85021525878906L71.05368961181641,120.63041525878907L46.003976611816405,75.29841525878906L68.3696896118164,64.30132125878906L68.5902896118164,64.75001525878906ZM68.3844896118164,65.40840325878906L47.38660261181641,75.73301525878907L71.4946896118164,119.36071525878907L93.3082896118164,110.20171525878906L68.3844896118164,65.40840325878906ZM94.05938961181641,109.49491525878906L95.1263896118164,107.92661525878907L71.68468961181641,65.25001525878906L69.44068961181641,65.25001525878906L94.05938961181641,109.49491525878906Z" fill-rule="evenodd" fill="#515151" fill-opacity="1"/></g><g><path d="M78.13952435302734,108.39154255371093C79.10872435302734,110.35154255371094,73.23342435302735,112.95854255371094,69.82052435302734,114.56654255371095C68.49352435302734,115.19254255371094,67.72402435302735,115.54454255371094,67.12002435302735,115.77454255371094C68.02842435302735,119.06154255371094,68.36912435302735,123.90354255371093,62.64172435302734,125.58954255371094C56.91432435302734,127.27654255371094,47.57789435302735,124.56954255371093,44.63579435302734,115.97854255371094C41.69359435302734,107.38754255371094,44.65669435302734,96.01254255371094,53.697624353027344,88.95002255371094C59.362024353027344,84.52532155371094,68.70972435302734,83.18052655371093,73.11312435302735,84.90012355371094C75.26742435302734,85.71482255371093,74.49382435302735,87.60672255371094,72.55042435302734,89.33152255371094C71.20062435302734,90.52942255371094,69.62982435302735,91.76552255371094,68.02912435302734,92.91852255371094C68.42372435302734,92.90452255371093,68.83192435302735,92.89952255371094,69.25412435302735,92.90752255371093C73.38122435302733,92.98052255371094,76.51712435302734,94.02852255371094,76.67182435302735,96.05854255371094C76.74322435302734,96.99454255371094,75.87012435302734,98.18254255371093,74.72412435302735,99.50254255371094C74.10422435302735,100.21754255371094,73.44602435302734,100.84154255371094,72.77832435302734,101.38554255371093C75.57382435302733,101.16254255371094,78.71532435302734,102.43254255371093,75.68202435302734,105.58154255371093C75.26182435302735,106.01754255371094,74.82702435302734,106.41654255371094,74.38682435302735,106.77954255371094C76.11452435302735,106.81054255371095,77.62402435302735,107.34954255371093,78.13952435302734,108.39154255371093Z" fill="#FFFFFF" fill-opacity="1"/></g><g><path d="M66.77082435302734,116.41774255371094Q66.06702435302734,116.62714255371094,65.00292435302734,116.83464255371094Q64.43052435302735,116.94634255371093,64.07502435302735,117.01854255371094L63.875924353027344,116.03854255371094Q64.23502435302734,115.96554255371093,64.81152435302735,115.85314255371094Q66.23792435302734,115.57494255371094,66.94202435302734,115.30724255371094Q67.64892435302734,115.03804255371094,69.60742435302734,114.11424255371094Q69.80212435302735,114.02244255371093,70.21442435302734,113.82924255371094Q74.06782435302735,112.02364255371094,75.65012435302734,111.00274255371093Q78.09332435302734,109.42624255371094,77.69132435302734,108.61324255371093Q77.17522435302735,107.56994255371094,75.13672435302735,107.33024255371095Q74.85272435302734,107.29684255371095,74.57032435302735,107.28244255371094Q72.70452435302735,108.80024255371094,70.40472435302735,109.75704255371093Q69.24452435302734,110.23974255371094,68.29512435302735,110.44084255371094Q67.07722435302735,110.69884255371093,66.87482435302735,110.16054255371094Q66.63202435302735,109.51294255371094,67.63582435302735,108.63614255371094Q68.65482435302735,107.74614255371094,70.61592435302734,106.96314255371094Q72.38612435302734,106.25604255371094,74.22112435302734,106.27164255371093Q74.79422435302735,105.78234255371093,75.32182435302735,105.23464255371094Q76.39022435302735,104.12534255371094,76.42122435302734,103.34834255371094Q76.44342435302735,102.79114255371094,75.84402435302735,102.41194255371093Q75.19232435302735,101.99954255371094,74.06692435302735,101.89184255371094Q73.52232435302734,101.83974255371093,72.99032435302735,101.86954255371094Q71.19572435302734,103.31404255371093,69.01292435302734,104.21894255371095Q67.70972435302734,104.75914255371094,66.66532435302734,104.93254255371093Q65.34082435302734,105.15244255371094,65.14702435302735,104.52254255371093Q64.84782435302735,103.55104255371094,67.57312435302734,102.38714255371093Q69.68582435302734,101.48494255371094,71.68312435302735,101.04334255371094Q72.13682435302735,100.94294255371094,72.59812435302734,100.89714255371094Q73.52982435302735,100.11574255371093,74.34652435302735,99.17474255371094Q76.24152435302734,96.99194255371094,76.17322435302734,96.09654255371093Q76.08482435302734,94.93674255371094,74.26772435302735,94.21374255371094Q72.38062435302734,93.46290255371093,69.24522435302734,93.40743255371093Q68.72692435302734,93.39822255371094,68.22822435302734,93.41134255371094Q66.25052435302734,94.82694255371094,64.08362435302735,96.13894255371093Q58.86692435302734,99.29754255371094,57.776024353027346,98.40194255371094Q57.22962435302735,97.95414255371094,58.01342435302735,96.78084255371094Q58.69052435302734,95.76734255371093,59.92252435302734,94.87604255371093Q63.04532435302734,92.61684255371094,67.89092435302734,92.42202255371093Q70.18692435302734,90.76098255371093,72.21852435302735,88.95755255371094Q73.66782435302734,87.67124255371094,73.87922435302734,86.67114255371094Q74.06442435302735,85.79445255371094,72.93122435302735,85.36586255371094Q71.36572435302735,84.75451855371094,69.00362435302735,84.68501755371094Q66.62252435302734,84.61496155371094,63.97042435302734,85.11238455371094Q57.985724353027344,86.23484255371093,54.005424353027344,89.34404255371093Q50.76063435302734,91.87875255371094,48.466274353027345,95.22724255371094Q46.28825435302734,98.40584255371094,45.15018435302734,102.04044255371093Q44.04700635302734,105.56364255371093,44.03907935302735,109.12524255371093Q44.031191353027346,112.66994255371094,45.108824353027345,115.81654255371095Q46.12678435302735,118.78904255371094,48.245644353027345,120.99544255371094Q50.167094353027345,122.99644255371093,52.79962435302734,124.18234255371094Q55.23482435302734,125.27944255371094,57.86922435302734,125.50954255371093Q60.39492435302734,125.73004255371094,62.500524353027345,125.10984255371093Q68.46232435302734,123.35484255371094,66.77082435302734,116.41774255371094ZM67.71552435302735,116.07274255371094Q68.48752435302734,119.16154255371094,67.85042435302734,121.41824255371094Q66.87782435302734,124.86374255371094,62.78292435302734,126.06914255371095Q60.496224353027344,126.74264255371094,57.782224353027345,126.50574255371095Q54.978724353027346,126.26094255371095,52.38887435302735,125.09414255371094Q49.579884353027346,123.82864255371094,47.52435435302734,121.68814255371095Q45.25235435302734,119.32214255371093,44.16276135302734,116.14054255371093Q43.030820353027345,112.83534255371094,43.03908235302735,109.12304255371095Q43.04734735302734,105.40964255371094,44.195873353027345,101.74164255371093Q45.378684353027346,97.96414255371094,47.64134435302734,94.66194255371094Q50.02314435302734,91.18591255371093,53.389784353027345,88.55598255371093Q57.56202435302734,85.29687255371094,63.786024353027344,84.12952235371094Q66.54412435302734,83.61222255371094,69.03302435302734,83.68545055371094Q71.56822435302735,83.76004255371093,73.29502435302734,84.43436955371094Q75.22012435302734,85.16237755371094,74.85762435302735,86.87790255371094Q74.57812435302735,88.20042255371094,72.88232435302734,89.70547255371093Q71.30842435302735,91.10256255371094,69.57982435302735,92.41501255371094Q72.67992435302735,92.50571255371094,74.63742435302734,93.28456255371094Q77.03452435302734,94.23834255371094,77.17032435302735,96.02054255371094Q77.23202435302734,96.82844255371094,76.58152435302733,97.89654255371093Q76.11402435302735,98.66424255371093,75.10162435302735,99.83034255371093Q74.61882435302735,100.38664255371094,74.09832435302735,100.89054255371093Q74.13012435302734,100.89334255371094,74.16212435302734,100.89644255371094Q75.52522435302734,101.02684255371094,76.37872435302734,101.56684255371094Q77.46562435302735,102.25454255371093,77.42042435302734,103.38814255371094Q77.37432435302733,104.54514255371095,76.04212435302735,105.92834255371093Q75.81852435302734,106.16044255371094,75.58732435302734,106.38264255371094Q77.88112435302735,106.74164255371093,78.58762435302734,108.16984255371094Q79.38522435302735,109.78274255371093,76.19232435302735,111.84304255371094Q74.55332435302734,112.90054255371093,70.63872435302734,114.73484255371093Q70.22722435302734,114.92764255371094,70.03362435302734,115.01884255371094Q68.50852435302734,115.73824255371093,67.71552435302735,116.07274255371094ZM66.26312435302734,93.55939255371094Q62.83962435302735,93.99990255371094,60.50862435302734,95.68624255371094Q59.422224353027346,96.47224255371094,58.844924353027345,97.33634255371094Q58.747924353027344,97.48154255371094,58.681624353027345,97.60534255371094Q58.70782435302734,97.60134255371094,58.735724353027344,97.59634255371094Q59.18492435302734,97.51684255371094,59.910424353027345,97.21624255371094Q61.37732435302735,96.60854255371093,63.565624353027346,95.28354255371093Q64.95412435302734,94.44284255371093,66.26312435302734,93.55939255371094ZM70.45202435302734,102.39844255371094Q69.23252435302734,102.76594255371094,67.96592435302735,103.30684255371094Q67.22182435302734,103.62454255371094,66.74402435302734,103.90094255371093Q67.58592435302734,103.72794255371093,68.63002435302735,103.29514255371095Q69.58022435302735,102.90124255371094,70.45202435302734,102.39844255371094ZM72.73322435302734,107.39324255371093Q71.85182435302734,107.54624255371094,70.98672435302734,107.89184255371094Q69.18412435302734,108.61164255371094,68.29362435302734,109.38934255371093Q68.27272435302734,109.40764255371093,68.25262435302734,109.42574255371093Q69.04812435302735,109.23834255371094,70.02062435302734,108.83374255371093Q71.46872435302734,108.23124255371094,72.73322435302734,107.39324255371093Z" fill-rule="evenodd" fill="#515151" fill-opacity="1"/></g><g><path d="M100.7221896118164,111.58251953125C100.5231896118164,113.14850953125,100.1951896118164,115.57051953125,99.5161896118164,118.09951953125C98.83618961181641,120.62950953125,97.8081896118164,123.25551953125,96.21418961181641,125.23551953125L96.41218961181642,125.42551953125L102.0871896118164,120.45651953125L100.99518961181641,111.58351898225L100.7221896118164,111.58251953125ZM131.8091896118164,156.91051953125L131.5591896118164,156.79751953125L120.26218961181641,178.07651953125L132.1831896118164,178.07651953125L131.75118961181641,177.82051953125C128.2441896118164,175.74151953125,127.67918961181641,172.02751953125,128.2921896118164,168.04651953125C128.8151896118164,164.64651953125,130.1921896118164,161.09351953125,131.28218961181642,158.28151953125C131.4681896118164,157.80151953125,131.6461896118164,157.34351953125,131.8091896118164,156.91051953125ZM45.99769161181641,119.01551953124999L45.757789611816406,119.13251953125C46.05578961181641,120.59651953125,46.80368961181641,123.93351953125,47.40508961181641,125.52251953125L47.4237896118164,125.57151953125L47.470689611816404,125.59651953125C49.10048961181641,126.43651953125,51.877389611816405,127.44351953125,54.924489611816405,127.73751953125C57.971389611816406,128.03151953125,61.30488961181641,127.61351953125,64.02768961181641,125.58451953125L63.89628961181641,125.34451953125C60.76218961181641,126.53951953125,52.759289611816406,126.97351953125,45.99769161181641,119.01551953124999Z" fill-rule="evenodd" fill="#515151" fill-opacity="1"/></g><g><path d="M127.78417064208985,74.262313625L127.79917064208985,74.103515625L127.64017064208984,74.111618045C125.82117064208984,74.203918625,121.79817064208984,74.492515625,117.76517064208984,75.063117625C115.74919064208984,75.348315625,113.72919064208985,75.704415625,111.98019064208984,76.142415625C110.23518064208984,76.579515625,108.74519064208984,77.101415625,107.80218504208985,77.724215625L107.74218750208985,77.763915625L107.74018860208984,77.835915625C107.69818874208984,79.635715625,107.86418964208984,81.522115625,108.38518564208984,83.188615625C108.90719064208984,84.855315625,109.78719064208984,86.311715625,111.18119064208985,87.234215625C114.00219064208984,89.100615625,117.87417064208984,88.860915625,121.17217064208984,86.658415625C124.47417064208985,84.453715625,127.20717064208984,80.281915625,127.78417064208985,74.262313625Z" fill-rule="evenodd" fill="#515151" fill-opacity="1"/></g><g><path d="M120.90319073486327,76.16801994628906C120.90319073486327,81.62581994628906,116.55219073486327,86.03631994628907,111.20219073486328,86.03631994628907C105.85119073486328,86.03631994628907,101.50019073486328,81.62581994628906,101.50019073486328,76.16801994628906C101.50019073486328,70.71032994628906,105.85119073486328,66.29981994628906,111.20219073486328,66.29981994628906C116.55219073486327,66.29981994628906,120.90319073486327,70.71032994628906,120.90319073486327,76.16801994628906Z" fill="#FFFFFF" fill-opacity="1"/><path d="M115.17249073486329,66.61488294628906Q113.27639073486328,65.79981994628906,111.20219073486328,65.79981994628906Q109.12761073486328,65.79981994628906,107.23135073486328,66.61487394628907Q105.40010073486329,67.40198994628906,103.98820073486328,68.83655994628906Q102.57632073486329,70.27111994628906,101.80202773486329,72.13152994628906Q101.00019073486328,74.05811994628907,101.00019073486328,76.16801994628906Q101.00019073486328,78.27791994628906,101.80202673486328,80.20461994628906Q102.57632073486329,82.06501994628906,103.98820073486328,83.49961994628906Q105.40010073486329,84.93411994628906,107.23135073486328,85.72121994628907Q109.12761073486328,86.53631994628907,111.20219073486328,86.53631994628907Q113.27639073486328,86.53631994628907,115.17249073486329,85.72121994628907Q117.00349073486328,84.93411994628906,118.41529073486328,83.49951994628907Q119.82709073486328,82.06501994628906,120.60139073486329,80.20451994628907Q121.40319073486327,78.27791994628906,121.40319073486327,76.16801994628906Q121.40319073486327,74.05813994628906,120.60139073486329,72.13152994628906Q119.82709073486328,70.27114994628906,118.41529073486328,68.83656994628906Q117.00349073486328,67.40199994628907,115.17249073486329,66.61488294628906ZM107.62624073486329,67.53359994628906Q109.33342073486328,66.79981994628906,111.20219073486328,66.79981994628906Q113.07059073486329,66.79981994628906,114.77749073486328,67.53358994628907Q116.42839073486329,68.24323994628907,117.70259073486328,69.53799994628906Q118.97839073486328,70.83437994628906,119.67809073486328,72.51576994628907Q120.40319073486327,74.25792994628907,120.40319073486327,76.16801994628906Q120.40319073486327,78.07811994628906,119.67809073486328,79.82031994628906Q118.97839073486328,81.50171994628906,117.70259073486328,82.79811994628906Q116.42839073486329,84.09291994628906,114.77749073486328,84.80251994628907Q113.07059073486329,85.53631994628907,111.20219073486328,85.53631994628907Q109.33342073486328,85.53631994628907,107.62624073486329,84.80251994628907Q105.97522073486329,84.09291994628906,104.70092073486327,82.79811994628906Q103.42505073486328,81.50171994628906,102.72526073486328,79.82031994628906Q102.00019073486328,78.07821994628907,102.00019073486328,76.16801994628906Q102.00019073486328,74.25790994628906,102.72526073486328,72.51576994628907Q103.42505073486328,70.83437994628906,104.70092073486327,69.53800994628907Q105.97522073486329,68.24324994628907,107.62624073486329,67.53359994628906Z" fill-rule="evenodd" fill="#515151" fill-opacity="1"/></g><g><path d="M103.655189140625,62.032921055908204C104.307189140625,62.2819210559082,104.901179140625,62.508721055908204,105.547189140625,62.293221055908205C106.077189140625,62.116621055908205,106.38018914062499,61.6003210559082,106.734189140625,60.9984210559082C107.483189140625,59.722621055908206,108.459219140625,58.062122055908205,112.296219140625,58.43651965590821C116.152219140625,58.8127170559082,116.886219140625,60.6099210559082,117.39921914062501,61.8671210559082C117.602219140625,62.36262105590821,117.770219140625,62.7743210559082,118.081219140625,62.9819210559082C118.561219140625,63.3021210559082,118.920219140625,63.3170210559082,119.343219140625,63.334521055908205C119.89021914062499,63.357221055908205,120.545219140625,63.384421055908206,121.711219140625,64.0839210559082C123.126219140625,64.9328210559082,124.199219140625,69.7352010559082,121.947219140625,74.01910105590821L122.199219140625,74.4486010559082C121.752219140625,76.6008010559082,119.153219140625,78.8144010559082,119.153219140625,78.5906010559082C119.153219140625,75.5450010559082,119.153219140625,73.8395010559082,116.22921914062499,71.1594010559082C111.968219140625,72.75630105590821,105.343189140625,72.28580105590821,102.294189140625,71.2983010559082L102.294189140625,71.2983010559082C98.286186140625,70.0151010559082,96.307189140625,64.4845210559082,99.762189140625,62.293221055908205C101.481189140625,61.202721055908206,102.639189140625,61.644921055908206,103.655189140625,62.032921055908204Z" fill-rule="evenodd" fill="#515151" fill-opacity="1"/></g><g><path d="M110.93519151123047,73.04462444628906C110.82918151123047,72.84252164628906,110.57918151123047,72.76462554628907,110.37719151123046,72.87062074628906C110.17518151123046,72.97662344628907,110.09719151123046,73.22642544628906,110.20418151123047,73.42852044628906C110.41019151123047,73.82182344628906,110.67019151123047,74.17561744628907,111.09719151123046,74.38762744628906C111.51619151123047,74.59562744628906,112.03119151123047,74.63441744628906,112.68119151123047,74.55302744628906C112.90819151123047,74.52461744628906,113.06818151123046,74.31812744628907,113.04018151123047,74.09161744628906C113.01118151123046,73.86511744628906,112.80519151123048,73.70452144628906,112.57818151123047,73.73292544628906C111.99919151123046,73.80552644628906,111.67319151123047,73.75102244628906,111.46419151123047,73.64722444628906C111.26218151123047,73.54742444628906,111.10718151123046,73.37102544628907,110.93519151123047,73.04462444628906ZM104.37419151123046,77.25411744628906C104.95618151123047,77.22482744628907,105.40519151123047,76.72121744628906,105.37619151123047,76.12932744628907C105.34719151123046,75.53741744628907,104.85119151123047,75.08141744628907,104.26919151123047,75.11072744628906C103.68718751123046,75.14001744628906,103.23818971123048,75.64352744628906,103.26718902123046,76.23541744628906C103.29618831123047,76.82732744628906,103.79119151123047,77.28342744628907,104.37419151123046,77.25411744628906ZM111.19519151123046,77.98512744628906C111.77819151123047,77.95582744628906,112.22719151123047,77.45222744628906,112.19819151123048,76.86031744628906C112.16919151123047,76.26842744628907,111.67319151123047,75.81232744628906,111.09119151123046,75.84161744628906C110.50918151123047,75.87092744628906,110.06019151123047,76.37452744628906,110.08919151123047,76.96642744628906C110.11819151123046,77.55821744628906,110.61319151123047,78.01442744628906,111.19519151123046,77.98512744628906Z" fill-rule="evenodd" fill="#515151" fill-opacity="1"/></g><g><path d="M124.13818104003906,77.44416323242187Q124.13818104003906,77.56596323242188,124.12625104003907,77.68718323242187Q124.11431104003907,77.80840323242188,124.09055104003906,77.92786323242187Q124.06679104003906,78.04732323242187,124.03144104003906,78.16388323242188Q123.99608104003906,78.28044323242187,123.94948104003906,78.39297323242188Q123.90287104003906,78.50550323242187,123.84546104003905,78.61292323242188Q123.78806104003907,78.72034323242187,123.72040104003906,78.82161323242187Q123.65274104003906,78.92289323242187,123.57548104003907,79.01704323242187Q123.49822104003906,79.11120323242187,123.41210104003906,79.19733323242187Q123.32599104003906,79.28345323242188,123.23184104003906,79.36073323242188Q123.13770104003906,79.43800323242188,123.03644104003907,79.50567323242187Q122.93518104003907,79.57334323242188,122.82778104003906,79.63075323242188Q122.72037104003907,79.68817323242187,122.60786104003907,79.73478323242188Q122.49534104003907,79.78139323242188,122.37880104003906,79.81675323242187Q122.26226104003906,79.85211323242187,122.14281104003906,79.87587323242188Q122.02337104003907,79.89963323242188,121.90217104003906,79.91157323242187Q121.78097104003906,79.92351323242187,121.65919104003906,79.92351323242187Q121.53740104003906,79.92351323242187,121.41620104003906,79.91157323242187Q121.29500104003907,79.89963323242188,121.17556104003906,79.87587323242188Q121.05611104003906,79.85211323242187,120.93957104003906,79.81675323242187Q120.82303104003907,79.78139323242188,120.71052104003907,79.73478323242188Q120.59800104003907,79.68817323242187,120.49060104003907,79.63075323242188Q120.38319104003907,79.57334323242188,120.28193104003907,79.50567323242187Q120.18067104003906,79.43800323242188,120.08652904003907,79.36073323242188Q119.99238704003906,79.28345323242188,119.90627204003906,79.19733323242187Q119.82015704003906,79.11120323242187,119.74289704003907,79.01704323242187Q119.66563704003906,78.92289323242187,119.59797704003907,78.82161323242187Q119.53031704003907,78.72034323242187,119.47290804003906,78.61292323242188Q119.41549904003907,78.50550323242187,119.36889304003907,78.39297323242188Q119.32228804003907,78.28044323242187,119.28693604003907,78.16388323242188Q119.25158334003906,78.04732323242187,119.22782424003907,77.92786323242187Q119.20406514003906,77.80840323242188,119.19212804003907,77.68718323242187Q119.18019104003906,77.56596323242188,119.18019104003906,77.44416323242187Q119.18019104003906,77.32236323242188,119.19212804003907,77.20114323242187Q119.20406514003906,77.07993323242188,119.22782424003907,76.96046323242187Q119.25158334003906,76.84100323242187,119.28693604003907,76.72444323242188Q119.32228804003907,76.60789323242187,119.36889304003907,76.49535323242188Q119.41549904003907,76.38282323242187,119.47290804003906,76.27540323242188Q119.53031704003907,76.16798323242188,119.59797704003907,76.06671323242188Q119.66563704003906,75.96543323242187,119.74289704003907,75.87128023242188Q119.82015704003906,75.77712623242188,119.90627204003906,75.69099823242188Q119.99238704003906,75.60487123242187,120.08652904003907,75.52760023242188Q120.18067104003906,75.45032923242188,120.28193104003907,75.38265923242187Q120.38319104003907,75.31498923242188,120.49060104003907,75.25757223242188Q120.59800104003907,75.20015423242188,120.71052104003907,75.15354223242187Q120.82303104003907,75.10693023242187,120.93957104003906,75.07157323242187Q121.05611104003906,75.03621573242188,121.17556104003906,75.01245323242188Q121.29500104003907,74.98869073242187,121.41620104003906,74.97675203242187Q121.53740104003906,74.96481323242188,121.65919104003906,74.96481323242188Q121.78097104003906,74.96481323242188,121.90217104003906,74.97675203242187Q122.02337104003907,74.98869073242187,122.14281104003906,75.01245323242188Q122.26226104003906,75.03621573242188,122.37880104003906,75.07157323242187Q122.49534104003907,75.10693023242187,122.60786104003907,75.15354223242187Q122.72037104003907,75.20015423242188,122.82778104003906,75.25757223242188Q122.93518104003907,75.31498923242188,123.03644104003907,75.38265923242187Q123.13770104003906,75.45032923242188,123.23184104003906,75.52760023242188Q123.32599104003906,75.60487123242187,123.41210104003906,75.69099823242188Q123.49822104003906,75.77712623242188,123.57548104003907,75.87128023242188Q123.65274104003906,75.96543323242187,123.72040104003906,76.06671323242188Q123.78806104003907,76.16798323242188,123.84546104003905,76.27540323242188Q123.90287104003906,76.38282323242187,123.94948104003906,76.49535323242188Q123.99608104003906,76.60789323242187,124.03144104003906,76.72444323242188Q124.06679104003906,76.84100323242187,124.09055104003906,76.96046323242187Q124.11431104003907,77.07993323242188,124.12625104003907,77.20114323242187Q124.13818104003906,77.32236323242188,124.13818104003906,77.44416323242187Z" fill="#FFFFFF" fill-opacity="1"/><path d="M119.55273404003906,75.33749723242188Q118.68019104003906,76.21016323242188,118.68019104003906,77.44421323242187Q118.68019104003906,78.67826323242187,119.55274404003906,79.55089323242187Q120.42529104003906,80.42351323242187,121.65919104003906,80.42351323242187Q122.89308104003906,80.42351323242187,123.76563104003907,79.55089323242187Q124.63818104003906,78.67826323242187,124.63818104003906,77.44421323242187Q124.63818104003906,76.21016323242188,123.76564104003906,75.33749723242188Q122.89307104003906,74.46481323242188,121.65919104003906,74.46481323242188Q120.42529104003906,74.46481323242188,119.55273404003906,75.33749723242188ZM120.25988104003906,78.84381323242188Q119.68019104003906,78.26407323242188,119.68019104003906,77.44421323242187Q119.68019104003906,76.62433323242188,120.25989104003907,76.04455323242188Q120.83955104003907,75.46481323242188,121.65919104003906,75.46481323242188Q122.47882104003907,75.46481323242188,123.05848104003906,76.04455323242188Q123.63818104003906,76.62434323242188,123.63818104003906,77.44421323242187Q123.63818104003906,78.26407323242188,123.05849104003906,78.84381323242188Q122.47884104003906,79.42351323242187,121.65919104003906,79.42351323242187Q120.83953104003906,79.42351323242187,120.25988104003906,78.84381323242188Z" fill-rule="evenodd" fill="#515151" fill-opacity="1"/></g><g><path d="M65.99398923339844,70.51912694213867C67.81808923339844,72.34321694213867,70.77558923339843,72.34321694213867,72.59978923339844,70.51912694213867C74.42388923339844,68.69491694213868,74.42388923339844,65.73742694213867,72.59978923339844,63.913216942138675C70.77558923339843,62.08912294213867,67.81808923339844,62.08912294213867,65.99398923339844,63.913216942138675C64.16978423339843,65.73742694213867,64.16978423339843,68.69491694213868,65.99398923339844,70.51912694213867Z" fill="#0871F0" fill-opacity="1"/><path d="M69.29684923339843,61.04514694213867Q66.74073923339844,61.04514694213867,64.93332823339844,62.85255894213867Q63.12583923339844,64.66005694213867,63.12583923339844,67.21616694213867Q63.12583923339844,69.77228694213868,64.93332823339844,71.57978694213867Q66.74073923339844,73.38714694213867,69.29684923339843,73.38714694213867Q71.85293923339844,73.38714694213867,73.66041923339844,71.57981694213868Q75.46783923339844,69.77226694213867,75.46783923339844,67.21616694213867Q75.46783923339844,64.66007694213867,73.66046923339843,62.85258794213867Q71.85293923339844,61.04514694213867,69.29684923339843,61.04514694213867ZM66.12583923339844,67.21616694213867Q66.12583923339844,65.90269694213868,67.05464923339844,64.97387694213867Q67.98337923339844,64.04514694213867,69.29684923339843,64.04514694213867Q70.61033923339843,64.04514694213867,71.53909923339843,64.97384694213868Q72.46785923339844,65.90266694213867,72.46785923339844,67.21616694213867Q72.46785923339844,68.52967694213868,71.53914923339843,69.45843694213868Q70.61033923339843,70.38719694213867,69.29684923339843,70.38719694213867Q67.98337923339844,70.38719694213867,67.05464923339844,69.45846694213867Q66.12583923339844,68.52964694213867,66.12583923339844,67.21616694213867Z" fill-rule="evenodd" fill="#000000" fill-opacity="1"/></g><g><path d="M72.14219314697266,64.40962192871093C71.70919314697265,63.97672272871094,71.00728314697265,63.97672272871094,70.57428314697266,64.40962192871093L69.30958314697266,65.67432692871094L68.00188314697266,64.36672192871093C67.56898314697266,63.93372392871094,66.86698914697266,63.93372392871094,66.43409014697265,64.36672192871093C66.00119014697266,64.79962192871093,66.00119014697266,65.50162692871093,66.43409014697265,65.93452692871094L67.74179314697265,67.24222692871093L66.43409014697265,68.54981692871094C66.00119014697266,68.98282692871094,66.00119014697266,69.68472692871094,66.43409014697265,70.11771692871093C66.86708814697266,70.55061692871094,67.56898314697266,70.55061692871094,68.00199314697265,70.11771692871093L69.30958314697266,68.81001692871094L70.57428314697266,70.07472692871093C71.00718314697265,70.50771692871093,71.70919314697265,70.50771692871093,72.14209314697266,70.07472692871093C72.57509314697266,69.64182692871094,72.57509314697266,68.93982692871094,72.14209314697266,68.50691692871094L70.87738314697266,67.24222692871093L72.14219314697266,65.97752692871094C72.57509314697266,65.54452692871094,72.57509314697266,64.84262092871094,72.14219314697266,64.40962192871093Z" fill-rule="evenodd" fill="#FFFFFF" fill-opacity="1"/></g><g><path d="M93.65711420288086,40.54961803833008C88.77261420288086,35.36851803833008,82.17121420288086,31.77021803833008,74.65551420288085,30.708721138330077C73.39291420288086,30.53041803833008,72.30701420288085,31.49691803833008,72.23521420288085,32.73071803833008C72.16561420288086,33.92651803833008,73.05601420288086,34.92791803833008,74.20291420288086,35.09681803833008C80.56671420288086,36.03431803833008,86.16221420288086,39.07871803833008,90.33461420288086,43.45165803833008C91.16791420288087,44.32505803833008,92.57261420288086,44.44355803833008,93.50161420288086,43.60885803833008C94.38321420288085,42.816458038330076,94.49521420288086,41.43895803833008,93.65711420288086,40.54961803833008ZM57.85931420288086,32.02321803833008C49.81321420288086,34.61091803833008,43.05689420288086,40.28071803833008,39.11119120288086,47.75315803833008C38.52989220288086,48.85405803833008,39.03419120288086,50.17345803833008,40.12769420288086,50.68375803833008C41.24039420288086,51.20285803833008,42.52879420288086,50.70795803833008,43.08929420288086,49.66185803833008C46.48219420288086,43.329458038330074,52.220714202880856,38.51381803833008,59.04781420288086,36.27241803833008C60.17211420288086,35.90331803833008,60.88311420288086,34.72611803833008,60.571114202880864,33.54241803833008C60.262614202880854,32.37211803833008,59.04811420288086,31.64091903833008,57.85931420288086,32.02321803833008ZM85.60891420288087,47.80615803833008C82.58381420288086,44.66905803833008,78.59981420288085,42.431358038330075,74.07231420288086,41.587658038330076C72.78651420288085,41.34805803833008,71.67591420288086,42.33795803833008,71.60351420288086,43.581658038330076C71.53461420288086,44.76635803833008,72.40451420288086,45.74575803833008,73.50881420288086,45.96845803833008C76.91961420288087,46.65595803833008,79.93151420288086,48.341058038330075,82.26001420288085,50.68585803833008C83.10491420288085,51.53675803833008,84.51591420288085,51.68235803833008,85.45821420288087,50.83575803833008C86.32721420288087,50.05495803833008,86.45791420288086,48.68665803833008,85.60891420288087,47.80615803833008ZM60.96431420288086,43.15575803833008C56.02561420288086,44.89555803833008,51.86511420288086,48.39465803833008,49.304414202880864,52.96195803833008C48.68859420288086,54.06035803833008,49.20771420288086,55.384258038330074,50.29571420288086,55.89185803833008C51.41341420288086,56.41345803833008,52.68931420288086,55.90775803833008,53.27571420288086,54.89725803833008C55.279614202880865,51.443758038330074,58.444414202880864,48.78205803833008,62.190314202880856,47.39985803833008C63.28151420288086,46.997258038330074,63.99771420288086,45.83565803833008,63.68481420288086,44.648658038330076C63.37731420288086,43.48225803833008,62.15781420288086,42.73525803833008,60.96431420288086,43.15575803833008ZM77.59481420288085,55.10755803833008C76.47951420288086,54.015958038330076,75.12221420288085,53.16185803833008,73.59941420288087,52.637258038330074C72.24441420288086,52.17035803833008,71.04051420288086,53.254958038330074,70.96601420288086,54.53445803833008C70.89971420288086,55.67285803833008,71.69511420288086,56.58125803833008,72.61621420288085,56.981458038330075C73.17081420288086,57.22235803833008,73.68211420288085,57.53995803833008,74.13801420288087,57.92005803833008C75.02441420288086,58.65905803833007,76.46541420288085,58.915558038330076,77.45421420288086,58.02705803833008C78.27691420288086,57.287958038330075,78.46301420288086,55.95725803833008,77.59481420288085,55.10755803833008ZM63.32061420288086,54.34815803833008C61.49241420288086,55.17555803833008,59.92591420288086,56.50395803833008,58.81081420288086,58.17355803833008C58.086714202880856,59.25775803833008,58.65481420288086,60.59795803833008,59.72271420288086,61.09625803833008C60.85591420288086,61.62505803833008,62.09331420288086,61.07685803833007,62.76941420288086,60.21865803833008C63.29491420288086,59.55175803833008,63.95061420288086,58.99575803833008,64.69421420288086,58.58645803833008C65.64201420288086,58.06475803833008,66.38051420288086,56.95295803833008,66.06531420288086,55.75705803833008C65.76171420288085,54.605158038330075,64.52271420288086,53.804058038330076,63.32061420288086,54.34815803833008Z" fill-rule="evenodd" fill="#0871F0" fill-opacity="1"/></g></g></svg>