<svg xmlns="http://www.w3.org/2000/svg" xmlns:xlink="http://www.w3.org/1999/xlink" fill="none" version="1.1" width="184.47216796875" height="175.1044921875" viewBox="0 0 184.47216796875 175.1044921875"><g><g><path d="M184.47220556640625,79.84870016174317Q184.47220556640625,81.49380016174317,184.45220556640623,83.13680016174317Q184.43230556640626,84.77990016174316,184.39240556640624,86.41700016174316Q184.35260556640625,88.05410016174316,184.29290556640626,89.68130016174317Q184.23330556640624,91.30850016174317,184.15400556640625,92.92190016174317Q184.07460556640626,94.53530016174317,183.97580556640625,96.13110016174316Q183.87710556640624,97.72680016174317,183.75900556640624,99.30100016174316Q183.64100556640625,100.87520016174317,183.50400556640625,102.42400016174317Q183.36710556640625,103.97290016174317,183.21150556640626,105.49270016174316Q183.05590556640624,107.01250016174316,182.88210556640624,108.49960016174316Q182.70820556640626,109.98670016174316,182.51660556640624,111.43740016174317Q182.32490556640624,112.88790016174316,182.11590556640624,114.29890016174316Q181.90690556640624,115.70990016174316,181.68100556640624,117.07790016174316Q181.45510556640625,118.44590016174317,181.21290556640625,119.76690016174317Q180.97070556640625,121.08790016174316,180.71280556640625,122.35990016174317Q180.45490556640624,123.63190016174316,180.18180556640624,124.85090016174317Q179.90880556640624,126.06890016174316,179.62130556640625,127.23290016174316Q179.33380556640626,128.39590016174316,179.03260556640626,129.50090016174317Q178.73130556640626,130.60490016174316,178.41700556640626,131.64890016174317Q178.10270556640626,132.69290016174318,177.77620556640625,133.67190016174317Q177.44960556640626,134.65190016174316,177.11150556640627,135.56590016174317Q176.77350556640624,136.47990016174316,176.42480556640623,137.32590016174316Q176.07600556640625,138.17190016174317,175.71750556640626,138.94690016174314Q175.35890556640624,139.72290016174315,174.99140556640626,140.42590016174316Q174.62380556640625,141.12890016174316,174.24820556640626,141.75890016174316Q173.87260556640626,142.38790016174318,173.48980556640626,142.94190016174318Q173.10700556640626,143.49690016174316,172.71790556640624,143.97390016174316Q172.32880556640626,144.45190016174317,171.93440556640624,144.85090016174317Q171.54000556640625,145.25090016174317,171.14130556640626,145.57190016174317Q170.74250556640624,145.89290016174317,170.34030556640624,146.13390016174316Q169.93820556640625,146.37590016174317,169.53360556640627,146.53690016174318Q169.12890556640625,146.69790016174318,168.72290556640624,146.77890016174317Q168.31680556640626,146.85990016174316,167.91020556640626,146.85990016174316Q167.50360556640624,146.85990016174316,167.09750556640626,146.77890016174317Q166.69150556640625,146.69790016174318,166.28680556640626,146.53690016174318Q165.88220556640624,146.37590016174317,165.48000556640625,146.13390016174316Q165.07790556640626,145.89290016174317,164.67910556640624,145.57190016174317Q164.28030556640624,145.25090016174317,163.88600556640625,144.85090016174317Q163.49160556640624,144.45190016174317,163.10250556640625,143.97390016174316Q162.71340556640624,143.49690016174316,162.33060556640626,142.94290016174315Q161.94780556640626,142.38790016174318,161.57220556640624,141.75890016174316Q161.19657556640624,141.12890016174316,160.82903556640625,140.42590016174316Q160.46149556640626,139.72290016174315,160.10293556640625,138.94690016174314Q159.74436556640626,138.17190016174317,159.39563556640624,137.32590016174316Q159.04690556640625,136.47990016174316,158.70884556640624,135.56590016174317Q158.37079556640626,134.65190016174316,158.04423556640626,133.67190016174317Q157.71766556640625,132.69290016174318,157.40338556640626,131.64890016174317Q157.08909556640626,130.60490016174316,156.78784556640625,129.50090016174317Q156.48659556640624,128.39590016174316,156.19910556640625,127.23290016174316Q155.91161556640625,126.06890016174316,155.63857556640625,124.85090016174317Q155.36553556640624,123.63190016174316,155.10760556640625,122.35990016174317Q154.84967556640626,121.08790016174316,154.60748556640624,119.76690016174317Q154.36528556640624,118.44590016174317,154.13940556640625,117.07790016174316Q153.91352556640624,115.70990016174316,153.70450556640625,114.29890016174316Q153.49548556640624,112.88790016174316,153.30382556640626,111.43740016174317Q153.11216556640625,109.98670016174316,152.93833556640624,108.49960016174316Q152.76450556640626,107.01250016174316,152.60891556640624,105.49270016174316Q152.45332556640625,103.97290016174317,152.31635256640624,102.42400016174317Q152.17938156640625,100.87520016174317,152.06135956640625,99.30100016174316Q151.94333756640626,97.72680016174317,151.84454756640625,96.13110016174316Q151.74575856640624,94.53530016174317,151.66643956640624,92.92190016174317Q151.58712056640624,91.30850016174317,151.52746456640625,89.68130016174317Q151.46780756640624,88.05410016174316,151.42795606640624,86.41700016174316Q151.38810486640625,84.77990016174316,151.36815516640624,83.13680016174317Q151.34820556640625,81.49380016174317,151.34820556640625,79.84870016174317Q151.34820556640625,78.20370016174316,151.36815516640624,76.56070016174317Q151.38810486640625,74.91760016174317,151.42795606640624,73.28050016174316Q151.46780756640624,71.64340016174316,151.52746456640625,70.01620016174317Q151.58712056640624,68.38900016174316,151.66643956640624,66.77560016174317Q151.74575856640624,65.16220016174316,151.84454756640625,63.56640016174316Q151.94333756640626,61.97070016174317,152.06135956640625,60.39650016174316Q152.17938156640625,58.822300161743165,152.31635256640624,57.273500161743165Q152.45332556640625,55.72460016174316,152.60891556640624,54.204800161743165Q152.76450556640626,52.68500016174316,152.93833556640624,51.19790016174316Q153.11216556640625,49.710800161743165,153.30382556640626,48.26010016174316Q153.49548556640624,46.80930016174317,153.70450556640625,45.398300161743165Q153.91352556640624,43.987300161743164,154.13940556640625,42.61950016174316Q154.36528556640624,41.25170016174316,154.60748556640624,39.930400161743165Q154.84967556640626,38.609100161743164,155.10760556640625,37.337500161743165Q155.36553556640624,36.065900161743166,155.63857556640625,34.84700016174317Q155.91161556640625,33.62810016174316,156.19910556640625,32.46490016174316Q156.48659556640624,31.301700161743163,156.78784556640625,30.197000161743166Q157.08909556640626,29.092300161743164,157.40338556640626,28.048700161743163Q157.71766556640625,27.005100161743165,158.04423556640626,26.025100161743165Q158.37079556640626,25.045200161743164,158.70884556640624,24.131300161743162Q159.04690556640625,23.217300161743164,159.39563556640624,22.371620161743166Q159.74436556640626,21.525910161743163,160.10293556640625,20.750460161743163Q160.46149556640626,19.975000161743164,160.82903556640625,19.271660161743164Q161.19657556640624,18.568320161743163,161.57220556640624,17.938800161743163Q161.94780556640626,17.309270161743164,162.33060556640626,16.755080161743166Q162.71340556640624,16.200890161743164,163.10250556640625,15.723360161743164Q163.49160556640624,15.245840161743164,163.88600556640625,14.846130161743165Q164.28030556640624,14.446420161743164,164.67910556640624,14.125490161743164Q165.07790556640626,13.804566161743164,165.48000556640625,13.563191161743164Q165.88220556640624,13.321816161743165,166.28680556640626,13.160576161743164Q166.69150556640625,12.999335161743165,167.09750556640626,12.918617661743165Q167.50360556640624,12.837900161743164,167.91020556640626,12.837900161743164Q168.31680556640626,12.837900161743164,168.72290556640624,12.918617661743165Q169.12890556640625,12.999335161743165,169.53360556640627,13.160576161743164Q169.93820556640625,13.321816161743165,170.34030556640624,13.563191161743164Q170.74250556640624,13.804566161743164,171.14130556640626,14.125490161743164Q171.54000556640625,14.446420161743164,171.93440556640624,14.846130161743165Q172.32880556640626,15.245840161743164,172.71790556640624,15.723360161743164Q173.10700556640626,16.200890161743164,173.48980556640626,16.755080161743166Q173.87260556640626,17.309270161743164,174.24820556640626,17.938800161743163Q174.62380556640625,18.568320161743163,174.99140556640626,19.271660161743164Q175.35890556640624,19.975000161743164,175.71750556640626,20.750460161743163Q176.07600556640625,21.525910161743163,176.42480556640623,22.371630161743163Q176.77350556640624,23.217300161743164,177.11150556640627,24.131300161743162Q177.44960556640626,25.045200161743164,177.77620556640625,26.025100161743165Q178.10270556640626,27.005100161743165,178.41700556640626,28.048700161743163Q178.73130556640626,29.092300161743164,179.03260556640626,30.197000161743166Q179.33380556640626,31.301700161743163,179.62130556640625,32.46490016174316Q179.90880556640624,33.62810016174316,180.18180556640624,34.84700016174317Q180.45490556640624,36.065900161743166,180.71280556640625,37.337500161743165Q180.97070556640625,38.609100161743164,181.21290556640625,39.930400161743165Q181.45510556640625,41.25170016174316,181.68100556640624,42.61950016174316Q181.90690556640624,43.987300161743164,182.11590556640624,45.398300161743165Q182.32490556640624,46.80930016174317,182.51660556640624,48.26010016174316Q182.70820556640626,49.710800161743165,182.88210556640624,51.19790016174316Q183.05590556640624,52.68500016174316,183.21150556640626,54.204800161743165Q183.36710556640625,55.72460016174316,183.50400556640625,57.273500161743165Q183.64100556640625,58.822300161743165,183.75900556640624,60.39650016174316Q183.87710556640624,61.97070016174317,183.97580556640625,63.56640016174316Q184.07460556640626,65.16220016174316,184.15400556640625,66.77560016174317Q184.23330556640624,68.38900016174316,184.29290556640626,70.01620016174317Q184.35260556640625,71.64340016174316,184.39240556640624,73.28050016174316Q184.43230556640626,74.91760016174317,184.45220556640623,76.56070016174317Q184.47220556640625,78.20370016174316,184.47220556640625,79.84870016174317Z" fill="#EAF5FF" fill-opacity="1"/></g><g><path d="M171.49620556640625,14.41049990234375C164.07420556640625,21.041099902343753,158.52119556640625,47.81979990234375,158.52119556640625,79.84589990234375C158.52119556640625,111.87159990234375,164.07420556640625,138.65089990234375,171.49620556640625,145.28189990234375C170.34120556640624,146.31289990234376,169.14120556640626,146.85689990234374,167.91020556640626,146.85689990234374C158.76319556640624,146.85689990234374,151.34820556640625,116.85489990234375,151.34820556640625,79.84589990234375C151.34820556640625,42.83679990234375,158.76319556640624,12.83489990234375,167.91020556640626,12.83489990234375C169.14120556640626,12.83489990234375,170.34120556640624,13.37879990234375,171.49620556640625,14.41049990234375Z" fill-rule="evenodd" fill="#0871F0" fill-opacity="1"/></g><g><path d="M5.148600967407226,26.0273C6.815900967407226,20.1161,12.401700967407226,16.4189,17.849500967407227,13.8761C19.697600967407226,16.8525,22.146100967407225,19.8229,24.931100967407225,20.8817C28.090900967407226,22.0829,31.026400967407227,19.2646,31.408400967407225,16.5908C31.596000967407228,15.278,30.296100967407227,12.4424,29.363100967407227,11.3143C28.436300967407227,10.1937,26.965300967407227,9.392,24.931100967407225,9.1342C22.663700967407227,8.8468,20.227700967407227,9.2758,17.849500967407227,10.2267C16.227400967407227,7.2249,15.302600967407226,3.6383,15.473000967407227,0.0903997L14.097800967407226,0C13.914600967407226,3.8135,14.872900967407226,7.6159,16.53630096740723,10.8072C10.908000967407226,13.5331,5.636900967407227,19.1533,3.8406009674072266,25.5221L5.148600967407226,26.0273Z" fill-rule="evenodd" fill="#CBE7FE" fill-opacity="1"/></g><g><path d="M13.18850086517334,13.321700408935547C9.46940086517334,15.778400408935546,6.425300865173339,19.257500408935545,5.20330086517334,22.959800408935546L3.89530086517334,22.528100408935547C5.2407008651733396,18.452000408935547,8.53190086517334,14.746900408935547,12.42930086517334,12.172400408935546C13.75090086517334,11.299400408935547,15.15460086517334,10.548200408935546,16.591000865173342,9.953900408935548C14.92780086517334,7.227100408935547,13.96930086517334,3.977800408935547,14.152500865173339,0.7187004089355469L15.52770086517334,0.7961006089355469C15.35730086517334,3.827500408935547,16.28190086517334,6.892300408935547,17.90430086517334,9.457800408935547C20.29060086517334,8.642200408935548,22.72440086517334,8.279200408935548,24.98590086517334,8.524100408935546C27.02010086517334,8.744500408935547,28.49110086517334,9.429500408935548,29.41780086517334,10.387100408935547C30.35080086517334,11.351100408935547,30.69070086517334,12.553700408935548,30.50310086517334,13.675500408935546C30.12110086517334,15.960300408935547,27.67180086517334,17.593600408935547,24.51200086517334,16.567100408935545C21.72730086517334,15.662500408935546,19.21920086517334,13.667400408935547,17.37080086517334,11.123500408935547C15.94100086517334,11.693800408935546,14.52800086517334,12.436900408935546,13.18850086517334,13.321700408935547ZM18.72590086517334,10.636700408935546C20.40510086517334,12.829100408935547,22.59080086517334,14.494800408935546,24.93760086517334,15.257100408935546C27.43420086517334,16.068100408935546,28.92420086517334,14.766300408935546,29.144500865173338,13.448400408935546C29.25820086517334,12.768800408935547,29.06490086517334,12.003100408935547,28.42800086517334,11.345000408935547C27.78490086517334,10.680500408935547,26.64930086517334,10.089800408935547,24.83760086517334,9.893500408935546C22.92170086517334,9.686000408935547,20.82510086517334,9.966000408935546,18.72590086517334,10.636700408935546Z" fill-rule="evenodd" fill="#0871F0" fill-opacity="1"/></g><g><path d="M166.78620471191405,43.14989979492188C170.35620471191407,48.16719979492187,169.13220471191406,55.17863979492188,164.03220471191406,58.80713979492187C158.93220471191407,62.43553979492188,151.90820471191407,61.29353979492188,148.33819471191407,56.27623979492188C144.76820471191405,51.25893979492187,145.99220271191408,44.24749979492188,151.09219471191406,40.618999794921876C156.19219471191406,36.990499794921874,163.21620471191406,38.132598794921876,166.78620471191405,43.14989979492188Z" fill="#FFFFFF" fill-opacity="1"/><path d="M155.08328471191408,38.29051379492188Q152.76231471191406,38.817126794921876,150.80233471191406,40.21158979492188Q148.84236471191406,41.60604979492187,147.58389471191407,43.62627979492188Q146.36863671191406,45.577159794921876,145.97147671191405,47.84037979492187Q145.57431771191406,50.10353979492187,146.05657071191405,52.329239794921875Q146.55592971191408,54.633839794921876,147.93080471191405,56.56603979492188Q149.30568471191407,58.498339794921876,151.31906471191405,59.72553979492187Q153.26353471191408,60.910739794921874,155.53165471191406,61.27733979492187Q157.79980471191405,61.64403979492187,160.04110471191407,61.135539794921876Q162.36210471191407,60.608939794921874,164.32200471191408,59.214539794921876Q166.28200471191406,57.820039794921875,167.54050471191405,55.79983979492188Q168.75580471191407,53.848939794921876,169.15290471191406,51.58573979492188Q169.55010471191406,49.32253979492187,169.06780471191405,47.09686979492187Q168.56850471191407,44.792299794921874,167.19360471191408,42.860019794921875Q165.81870471191405,40.92776979492187,163.80530471191406,39.700569794921876Q161.86090471191406,38.51538899492188,159.59270471191405,38.148682794921875Q157.32460471191405,37.781973794921875,155.08328471191408,38.29051379492188ZM148.43268471191405,44.15501979492188Q149.58526471191405,42.304769794921874,151.38205471191407,41.026409794921875Q153.17886471191406,39.74802979492188,155.30455471191405,39.265726794921875Q157.35660471191406,38.800131794921874,159.43310471191407,39.135863794921875Q161.50780471191405,39.47128679492187,163.28490471191407,40.554459794921875Q165.12290471191406,41.674799794921874,166.37880471191406,43.439779794921876Q167.63460471191405,45.20473979492188,168.09050471191406,47.30862979492188Q168.53120471191406,49.342739794921876,168.16800471191405,51.41283979492188Q167.80440471191406,53.48493979492187,166.69170471191407,55.271039794921876Q165.53910471191406,57.12133979492188,163.74230471191407,58.399639794921875Q161.94550471191405,59.67803979492187,159.81980471191406,60.160339794921875Q157.76780471191407,60.62593979492188,155.69125471191407,60.290239794921874Q153.61662471191406,59.95473979492188,151.83952471191407,58.871639794921876Q150.00144471191408,57.751339794921876,148.74559471191407,55.986339794921875Q147.48976471191406,54.221339794921874,147.03389171191407,52.11743979492188Q146.59314471191405,50.083339794921876,146.95642571191405,48.01321979492187Q147.32004471191405,45.941169794921876,148.43268471191405,44.15501979492188Z" fill-rule="evenodd" fill="#515151" fill-opacity="1"/></g><g><path d="M146.65919480761718,54.266332165527345C150.00920280761719,54.15753216552734,153.5881928076172,52.835432165527344,156.0452028076172,49.198732165527346C156.5352028076172,48.474632165527346,156.9682028076172,47.82280216552734,157.35820280761718,47.23740216552734C159.71020280761718,43.70230216552734,160.4522028076172,42.58710216552734,162.1062028076172,42.58710216552734C162.60320280761718,42.58710216552734,163.1822028076172,42.69670216552734,163.80520280761718,42.81490216552734C164.8922028076172,43.02070216552735,166.11420280761718,43.25230216552735,167.2732028076172,42.97340216552735C167.24620280761718,42.935502165527346,167.2202028076172,42.897602165527346,167.19320280761718,42.859902165527345C163.4592028076172,37.612404165527344,156.12020280761718,36.42660216552734,150.8012128076172,40.21150216552734C146.22320580761718,43.46880216552734,144.63319280761718,49.34623216552734,146.65919480761718,54.266332165527345Z" fill-rule="evenodd" fill="#515151" fill-opacity="1"/></g><g><path d="M167.06520077734376,49.336603124999996C167.52219677734374,49.336603124999996,167.89219677734374,48.904903125,167.89219677734374,48.372402125C167.89219677734374,47.839901125,167.52219677734374,47.408203125,167.06520077734376,47.408203125C166.60920677734376,47.408203125,166.23919677734375,47.839901125,166.23919677734375,48.372402125C166.23919677734375,48.904903125,166.60920677734376,49.336603124999996,167.06520077734376,49.336603124999996Z" fill="#515151" fill-opacity="1"/></g><g><path d="M158.9631957373047,47.01110090673828C159.72419573730468,48.08000190673828,159.47419573730468,49.56300190673828,158.4051957373047,50.32360190673828C157.33619573730468,51.08410190673828,155.85319573730467,50.83410190673828,155.0932007373047,49.765201906738284C154.33219873730468,48.696301906738285,154.58219913730468,47.21330190673828,155.6511997373047,46.452701906738284C156.7201957373047,45.69220390673828,158.2032057373047,45.94220350673828,158.9631957373047,47.01110090673828Z" fill="#FFFFFF" fill-opacity="1"/><path d="M157.5061957373047,45.55283590673828Q156.3318657373047,45.35485190673828,155.36135673730467,46.045281506738284L155.36133073730468,46.04530010673828Q154.3907767373047,46.73585590673828,154.1928987373047,47.910261906738285Q153.9950037373047,49.08478190673828,154.6857026373047,50.05493190673828Q155.3757567373047,51.02547190673828,156.55019573730468,51.22347190673828Q157.72453573730468,51.421451906738284,158.69506573730467,50.73100190673828Q159.66561573730468,50.040451906738284,159.86349573730467,48.86604190673828Q160.06139573730468,47.69152190673828,159.3706957373047,46.72136690673828Q158.6806357373047,45.75083790673828,157.5061957373047,45.55283590673828ZM155.94104573730468,46.86012190673828L155.94106573730468,46.860102906738284Q156.5740657373047,46.40979690673828,157.33995573730468,46.53891990673828Q158.1057657373047,46.66803090673828,158.5556957373047,47.30083190673828Q159.0064457373047,47.93396190673828,158.87739573730468,48.69989190673828Q158.74834573730467,49.46580190673828,158.1153257373047,49.91620190673828Q157.48234573730468,50.36651190673828,156.7164457373047,50.23738190673828Q155.95062573730468,50.10827190673828,155.50069873730467,49.47547190673828Q155.04994773730468,48.842341906738284,155.17899973730468,48.07641190673828Q155.3080467373047,47.310511906738284,155.94104573730468,46.86012190673828Z" fill-rule="evenodd" fill="#515151" fill-opacity="1"/></g><g><path d="M58.76720181884765,17.30860095825195C61.007201818847655,17.30860095825195,62.761701818847655,15.548300958251954,62.761701818847655,13.451800958251953C62.761701818847655,11.355300958251952,61.007201818847655,9.595100958251953,58.76720181884765,9.595100958251953C56.527101818847655,9.595100958251953,54.77270181884766,11.355300958251952,54.77270181884766,13.451800958251953C54.77270181884766,15.548300958251954,56.527101818847655,17.30860095825195,58.76720181884765,17.30860095825195ZM58.76720181884765,18.686000958251952C61.73400181884766,18.686000958251952,64.13910181884765,16.342600958251953,64.13910181884765,13.451800958251953C64.13910181884765,10.561100958251952,61.73400181884766,8.217700958251953,58.76720181884765,8.217700958251953C55.800401818847654,8.217700958251953,53.395301818847656,10.561100958251952,53.395301818847656,13.451800958251953C53.395301818847656,16.342600958251953,55.800401818847654,18.686000958251952,58.76720181884765,18.686000958251952Z" fill-rule="evenodd" fill="#0871F0" fill-opacity="1"/></g><g><path d="M120.75120379638672,34.79400020446777C122.99119379638672,34.79400020446777,124.74620379638672,33.033800204467774,124.74620379638672,30.937300204467775C124.74620379638672,28.840700204467772,122.99119379638672,27.080500204467775,120.75120379638672,27.080500204467775C118.51120379638672,27.080500204467775,116.75720379638672,28.840700204467772,116.75720379638672,30.937300204467775C116.75720379638672,33.033800204467774,118.51120379638672,34.79400020446777,120.75120379638672,34.79400020446777ZM120.75120379638672,36.17140020446777C123.71820379638672,36.17140020446777,126.12320379638672,33.82800020446777,126.12320379638672,30.937300204467775C126.12320379638672,28.046500204467772,123.71820379638672,25.703100204467773,120.75120379638672,25.703100204467773C117.78520379638672,25.703100204467773,115.37920379638672,28.046500204467772,115.37920379638672,30.937300204467775C115.37920379638672,33.82800020446777,117.78520379638672,36.17140020446777,120.75120379638672,36.17140020446777Z" fill-rule="evenodd" fill="#0871F0" fill-opacity="1"/></g><g><path d="M57.080800115966795,55.34500018310547L47.4734001159668,37.77050018310547L71.4093001159668,44.894100183105465L57.080800115966795,55.34500018310547Z" fill="#CBE7FE" fill-opacity="1"/></g><g><path d="M50.5612031159668,37.77050018310547L68.7221001159668,43.28700018310547L58.300200115966796,50.56440018310547L57.5116001159668,49.43500018310547L65.6089001159668,43.780900183105466L50.1609001159668,39.08840018310547L50.5612031159668,37.77050018310547Z" fill-rule="evenodd" fill="#0871F0" fill-opacity="1"/></g><g><path d="M96.13019841308594,26.53809937438965C94.72119841308594,28.110099374389648,89.58579841308594,33.646399374389645,88.30929841308594,34.91249937438965C91.32319841308593,31.738699374389647,89.73689841308594,28.11739937438965,87.57199841308594,27.47229937438965C87.38560841308593,27.416699374389648,87.18059841308593,27.358599374389648,86.96259841308594,27.296699374389647C84.54949841308594,26.61239937438965,80.54140841308593,25.47559937438965,82.53419841308593,22.40059937438965C84.70699841308594,19.047699374389648,83.35929841308594,16.452299374389646,79.36399841308594,15.003499374389648C80.79629841308594,13.259799374389647,87.12160841308594,6.148800374389649,87.69519841308593,6.369400374389649C87.70190841308593,6.371999374389649,87.70869841308594,6.374599374389648,87.71559841308594,6.377399374389649L87.93639841308594,5.768499374389648C90.00979841308593,6.520401374389649,91.55149841308594,7.621999374389649,92.22729841308593,9.116799374389648C92.92119841308593,10.651499374389648,92.61319841308594,12.391699374389649,91.44969841308594,14.187599374389649C90.98189841308594,14.909499374389648,90.97069841308594,15.384299374389649,91.07889841308594,15.706699374389649C91.19879841308594,16.06399937438965,91.52599841308594,16.421099374389648,92.09199841308593,16.76749937438965C93.04519841308594,17.35079937438965,94.35519841308593,17.72379937438965,95.45619841308593,18.036999374389648C95.68319841308593,18.101699374389646,95.90219841308594,18.163799374389647,96.10619841308593,18.22469937438965C98.97219841308593,19.078799374389646,99.94719841308594,22.997399374389648,96.13019841308594,26.53809937438965ZM87.93639841308594,35.28059937438965C88.05439841308593,35.16469937438965,88.17899841308594,35.04169937438965,88.30929841308594,34.91249937438965C88.19199841308594,35.03599937438965,88.06779841308594,35.15869937438965,87.93639841308594,35.28059937438965Z" fill-rule="evenodd" fill="#CBE7FE" fill-opacity="1"/></g><g><path d="M95.7732032836914,26.15310034484863C98.9752032836914,23.18230034484863,97.31320328369141,19.996100344848635,95.68020328369141,19.509600344848632C95.5112032836914,19.459100344848633,95.31920328369141,19.404900344848635,95.1102032836914,19.345900344848634C94.01920328369141,19.037600344848634,92.4736032836914,18.600700344848633,91.34030328369141,17.907100344848633C90.6564032836914,17.48850034484863,90.0100032836914,16.912900344848634,89.74050328369141,16.109700344848633C89.4591932836914,15.271500344848633,89.6426032836914,14.357900344848632,90.2612032836914,13.403400344848633C91.2702032836914,11.846400344848632,91.3752032836914,10.612400344848632,90.93959328369141,9.649000344848632C90.4860032836914,8.645700344848633,89.3562032836914,7.725200344848632,87.4343032836914,7.028300344848633L87.90380128369141,5.733400344848633C89.97720328369141,6.485201344848633,91.51889328369141,7.5868003448486325,92.19470328369141,9.081600344848633C92.88820328369141,10.616300344848632,92.58120328369141,12.356500344848634,91.4171032836914,14.152500344848633C90.9493032836914,14.874400344848633,90.9381032836914,15.349200344848633,91.0463032836914,15.671500344848633C91.1662032836914,16.028900344848633,91.4934032836914,16.385900344848633,92.05940328369141,16.732300344848632C93.0122032836914,17.315700344848633,94.32320328369141,17.68860034484863,95.42320328369141,18.001800344848633C95.6512032836914,18.066500344848635,95.8692032836914,18.128600344848635,96.0742032836914,18.189600344848635C98.9392032836914,19.043600344848635,100.5262032836914,23.622200344848633,96.71019328369141,27.162900344848634L95.7732032836914,26.15310034484863Z" fill-rule="evenodd" fill="#0871F0" fill-opacity="1"/></g><g><path d="M33.05227385559082,49.78650125C33.00337385559082,51.39403125,31.85457385559082,57.80813125,31.73247385559082,59.17243125C31.92997385559082,55.84383125,29.227973855590818,54.513231250000004,27.650173855590822,55.20033125C27.514273855590822,55.25953125,27.366373855590822,55.32633125,27.20897385559082,55.39733125C25.46740385559082,56.18343125,22.57450385559082,57.48913125,22.22560385559082,54.71943125C21.84510385559082,51.69953125,19.78580385559082,50.849301249999996,16.74720191959082,51.96703125C16.72540095559082,50.24800125,17.79430385559082,42.33250125,18.23670385559082,42.17930225C18.24190385559082,42.17760125,18.24710385559082,42.17580025,18.25250385559082,42.17400325L18.08220385559082,41.71090325C19.65910385559082,41.13090135,21.09800385559082,41.01570125,22.22560385559082,41.55460325C23.38330385559082,42.10790225,24.05850385559082,43.27260125,24.26220385559082,44.89020125C24.34420385559082,45.54040125,24.57080385559082,45.82250125,24.79200385559082,45.95710125C25.03730385559082,46.10640125,25.40320385559082,46.15370125,25.903003855590818,46.07770125C26.74460385559082,45.94950125,27.691073855590822,45.52330125,28.48597385559082,45.16540125C28.650173855590822,45.09150125,28.80787385559082,45.02050125,28.956773855590818,44.95560125C31.04537385559082,44.04610125,33.53717385559082,45.85030125,33.05227385559082,49.78650125ZM31.696073855590818,59.569931249999996C31.70787385559082,59.44443125,31.72007385559082,59.311631250000005,31.73247385559082,59.17243125C31.724873855590822,59.30183125,31.712773855590818,59.43443125,31.696073855590818,59.569931249999996Z" fill-rule="evenodd" fill="#CBE7FE" fill-opacity="1"/></g><g><path d="M32.653001171875,49.738195C33.059801171875,46.435495,30.527101171875,45.395695,29.337301171874998,45.913795C29.213901171875,45.967495,29.075401171875,46.030195,28.924901171875,46.098295C28.138001171875,46.454295,27.023101171875,46.958795,26.022401171875,47.111095C25.418501171875,47.203095,24.759401171875,47.185095,24.208001171875,46.849595C23.632601171875,46.499395,23.291001171875,45.877195,23.182701171875,45.017495C23.006001171875,43.615095,22.461301171875,42.844795,21.734601171875,42.497395C20.977701171875,42.135696,19.867701171875,42.154198,18.406002171875,42.691795L18.043701171875,41.706997C19.620601171875,41.1269989,21.059501171875,41.011799,22.187101171875,41.550697C23.344801171874998,42.104,24.020001171875002,43.268695,24.223801171875,44.886295C24.305701171875,45.536495,24.532301171874998,45.818595,24.753501171875,45.953195C24.998901171874998,46.102495,25.364701171874998,46.149895,25.864501171875,46.073795C26.706101171874998,45.945595,27.652601171875,45.519495,28.447501171875,45.161495C28.611701171874998,45.087595,28.769401171875,45.016595,28.918401171875,44.951695C31.006901171875,44.042195,34.179301171875,45.930195,33.694501171875004,49.866495L32.653001171875,49.738195Z" fill-rule="evenodd" fill="#0871F0" fill-opacity="1"/></g><g><path d="M158.30620134277345,23.063499740600584C157.66520134277343,26.630699740600583,159.70320134277344,28.328999740600587,163.55320134277343,28.138999740600585C161.88220134277344,29.17879974060059,154.74020134277345,33.39559974060059,153.52820134277343,33.556899740600585C152.01220134277344,33.758499740600584,148.21921134277343,32.61819974060059,148.46921134277343,29.726199740600585C148.72020134277344,26.834199740600585,148.41420134277342,25.558899740600587,145.77920134277343,25.705199740600584C143.14419134277344,25.851499740600588,142.03020134277344,26.941299740600584,140.26320134277344,24.748599740600586C138.49720734277344,22.555999740600583,138.11120634277344,21.960599740600586,139.35920734277343,19.571199740600587C140.35721134277344,17.659699740600587,147.54520134277342,14.484599740600586,149.26720134277343,14.184499740600586C147.47420134277343,18.139399740600584,150.19520134277343,20.817099740600586,152.31220134277345,20.588599740600586C154.42820134277343,20.360099740600585,158.94720134277344,19.496199740600588,158.30620134277345,23.063499740600584Z" fill="#CBE7FE" fill-opacity="1"/></g><g><path d="M139.81919530761718,19.973100689697265C138.19920330761718,23.546400689697265,140.6851953076172,25.567500689697265,142.1622053076172,25.408000689697268C142.3202053076172,25.391000689697265,142.4992053076172,25.369100689697266,142.69320530761718,25.345400689697264C143.71319530761718,25.220400689697264,145.17120530761719,25.042000689697264,146.37220530761718,25.226000689697265C147.0971953076172,25.337200689697266,147.8572053076172,25.595500689697268,148.3792153076172,26.189200689697266C148.92521530761718,26.810700689697263,149.09321530761719,27.661200689697267,148.90821530761718,28.689400689697266C148.6132153076172,30.332900689697265,148.9572153076172,31.376700689697266,149.6382153076172,32.00990068969727C150.3522153076172,32.673100689697264,151.5992153076172,33.04630068969726,153.44421530761718,32.95530068969727L153.5122153076172,34.33100068969726C151.5062153076172,34.430000689697266,149.8092153076172,34.049000689697266,148.7012153076172,33.01870068969727C147.5601953076172,31.958500689697267,147.20719530761718,30.369600689697265,147.55220530761719,28.445800689697265C147.68820530761718,27.690400689697263,147.5312053076172,27.311200689697266,147.3442053076172,27.098500689697268C147.1331953076172,26.858000689697267,146.7521953076172,26.677700689697264,146.16320530761718,26.587500689697265C145.17120530761719,26.435500689697264,143.95519530761717,26.581900689697264,142.9241953076172,26.706000689697266C142.7102053076172,26.731700689697266,142.50419530761718,26.756500689697265,142.3101953076172,26.777500689697266C139.5541953076172,27.075000689697266,136.59820530761718,23.740700689697267,138.5641933076172,19.404300689697266L139.81919530761718,19.973100689697265Z" fill-rule="evenodd" fill="#0871F0" fill-opacity="1"/></g><g><path d="M24.87800202331543,89.08429953613282C25.05420202331543,91.72459953613281,23.913202023315428,93.1425995361328,21.45800202331543,92.74559953613281C19.00280202331543,92.3475995361328,19.64930202331543,95.43759953613281,19.83120202331543,96.88759953613281C20.01320202331543,98.33659953613281,18.20830202331543,100.23559953613281,15.47340202331543,99.05259953613282L15.94400002331543,88.13199953613281C17.27920202331543,88.62399953613281,17.34950202331543,88.92849953613282,19.48110202331543,87.64009953613281C21.61270202331543,86.35179953613282,20.23070202331543,82.81470953613281,20.72260202331543,82.01819953613281C21.21450202331543,81.2217995361328,21.77670202331543,82.04169953613281,23.809402023315428,81.66689953613282C24.581202023315427,81.52460953613281,24.99190202331543,80.9546095361328,25.18990202331543,80.28139953613281L25.267002023315428,78.10639953613281C25.36770202331543,78.66429853613282,25.40920202331543,79.53609953613281,25.18990202331543,80.28139953613281L24.87800202331543,89.08429953613282Z" fill="#CBE7FE" fill-opacity="1"/></g><g><path d="M16.129800818847656,87.40320963378906C18.480101818847658,88.42019963378907,19.632501818847658,86.76710963378906,19.530701818847657,85.95589963378906C19.517801818847655,85.85319963378906,19.501201818847655,85.73519963378907,19.483001818847654,85.60529963378906C19.385201818847655,84.90999963378906,19.239501818847657,83.87359963378907,19.356101818847655,83.01399963378907C19.426601818847658,82.49349963378906,19.606101818847655,81.90909963378907,20.061801818847655,81.49439963378906C20.544801818847656,81.05489963378906,21.200301818847656,80.92679963378906,21.950901818847655,81.04829963378906C23.037901818847658,81.22429963378906,23.664501818847654,80.97819963378906,24.025201818847655,80.57659963378906C24.415101818847656,80.14229963378907,24.656401818847655,79.35269963378906,24.573701818847656,78.11320493378906L25.948001818847658,78.02149963378906C26.041501818847657,79.42169963378906,25.800301818847657,80.66129963378906,25.050001818847655,81.49679963378907C24.270401818847656,82.36500963378906,23.098901818847658,82.62949963378907,21.730801818847656,82.40800963378906C21.253801818847656,82.33079963378907,21.069401818847656,82.43989963378907,20.988801818847655,82.51319963378906C20.880901818847654,82.61139963378906,20.773001818847657,82.81549963378906,20.721001818847657,83.19900963378906C20.632801818847657,83.84929963378906,20.742201818847654,84.64459963378906,20.839401818847655,85.35059963378906C20.859901818847657,85.49989963378906,20.879901818847657,85.64519963378906,20.897401818847655,85.78439963378906C21.159401818847655,87.87229963378905,18.702201818847655,90.01659963378907,15.582801818847656,88.66739963378906L16.129800818847656,87.40320963378906Z" fill-rule="evenodd" fill="#0871F0" fill-opacity="1"/></g><g><path d="M142.086826171875,51.573808728027345C145.624826171875,55.11160872802734,148.812826171875,60.120508728027346,148.952826171875,65.65490872802735C148.952826171875,68.74480872802735,148.801826171875,73.04200872802734,147.344826171875,79.01620872802735C146.691826171875,85.74910872802735,145.323826171875,99.44960872802734,145.073826171875,100.38860872802735C150.552826171875,100.46660872802735,156.772826171875,100.59660872802735,157.252826171875,100.59660872802735C157.595826171875,99.41860872802735,160.078826171875,88.96540872802734,161.084826171875,86.47720872802734C161.668826171875,85.03170872802735,162.164826171875,84.23340872802734,162.697826171875,83.62590872802734C163.318826171875,82.91970872802735,164.095826171875,82.64470872802735,164.810826171875,82.30970872802735C165.619826171875,81.97140872802734,166.550826171875,81.84630872802734,167.705826171875,81.97110872802735C167.894826171875,81.99160872802734,168.083826171875,82.01780872802735,168.271826171875,82.05010872802734C169.304826171875,82.22820872802734,170.311826171875,82.59100872802735,171.172826171875,83.18470872802735C172.485826171875,84.08980872802735,173.459826171875,85.53140872802734,173.673826171875,87.67270872802735C174.334826171875,94.28860872802734,173.865826171875,101.41360872802734,173.391826171875,108.05060872802734L173.389826171875,108.07560872802735C173.249826171875,110.03960872802735,172.558826171875,119.72060872802734,168.719826171875,122.97160872802735C166.488826171875,124.86160872802735,153.971826171875,125.32060872802734,142.298826171875,125.34160872802734C141.904826171875,128.95560872802736,140.492826171875,142.09800872802734,139.835826171875,148.21700872802734C144.312826171875,147.99300872802735,152.551826171875,149.64900872802735,154.968826171875,156.76800872802733C157.386826171875,163.88700872802735,150.760826171875,164.38000872802735,143.910826171875,164.64800872802735C138.429826171875,164.86300872802735,124.416826171875,164.73800872802735,118.363826171875,164.64800872802735C112.993826171875,169.27000872802734,105.189826171875,172.09100872802733,94.294226171875,171.77900872802735C74.744326171875,171.21800872802734,33.341526171875,167.37300872802734,32.401526171875,167.68700872802734C33.476426171875,168.49700872802734,35.619826171875,170.43300872802735,35.594326171875,171.69800872802733C35.562526171875,173.27800872802734,33.187026171875,174.50300872802734,24.425226171875,174.60200872802736C15.663426171875,174.70200872802735,10.080306171875,172.08500872802733,10.266696171875,167.58800872802735C10.306706171875,166.62400872802735,10.584026171875,165.20300872802733,11.040826171875,163.48400872802733C5.759606171875,162.83100872802734,-0.44230882812500005,162.96800872802734,0.615881171875,155.38300872802733C2.332406171875,143.08000872802734,16.493726171875,125.77260872802735,20.445826171875,123.36960872802734C24.397826171875,120.96660872802734,31.942426171875,121.56760872802734,37.216626171875,122.25860872802734C33.929126171875,117.20060872802735,31.606126171875,110.39160872802735,32.885526171875,101.66360872802734C33.535026171875,97.23360872802735,35.634426171875,91.84860872802734,39.908626171875,86.24470872802735C41.029326171875,84.77540872802734,42.259526171875,83.28800872802734,43.575726171875,81.79340872802734C53.858726171875,70.11660872802734,69.396126171875,58.00370872802735,79.067126171875,50.72480872802734C84.960326171875,46.28929872802735,93.862226171875,42.87539872802734,98.945226171875,41.551598728027344C117.554826171875,36.704898728027345,131.958826171875,40.59239872802734,142.086826171875,51.573808728027345Z" fill="#FFFFFF" fill-opacity="1"/></g><g><path d="M89.940926171875,109.69490872802734Q91.422526171875,109.79360872802734,92.002726171875,109.94010872802734Q92.542826171875,113.13220872802735,94.292126171875,115.98030872802734Q98.049526171875,122.09600872802734,106.664826171875,124.22690872802734Q109.872826171875,125.02040872802735,113.999826171875,125.31810872802734Q116.392826171875,125.49060872802734,120.697826171875,125.54690872802735Q121.653826171875,125.55940872802735,122.197826171875,125.56900872802734Q125.379826171875,129.72810872802734,126.747826171875,135.51560872802736Q128.554826171875,143.16300872802736,126.273826171875,151.07900872802736Q123.934826171875,159.19400872802734,118.037826171875,164.26900872802736L118.363826171875,164.64800872802735L118.037826171875,164.26900872802736Q109.391826171875,171.71100872802734,94.308526171875,171.27900872802735Q86.446026171875,171.05300872802735,72.019426171875,170.05500872802733Q63.730126171875,169.48100872802735,48.153226171875,168.26500872802734Q34.267626171875,167.18100872802734,32.489926171875,167.19500872802735L32.490026171875,167.19500872802735Q29.886326171875,166.72600872802735,25.651126171875,165.63200872802736L25.401126171875,166.60100872802735Q29.577226171875,167.67900872802736,32.194426171875,168.15700872802734Q33.218926171875,168.94200872802733,34.038426171875,169.85500872802734Q35.107326171875,171.04700872802735,35.094426171875,171.68800872802734Q35.048226171875,173.98100872802735,24.419526171875,174.10200872802736Q17.913226171875,174.17600872802734,14.209626171875,172.36900872802735Q10.641126171875,170.62800872802734,10.766226171875,167.60800872802736Q10.822526171875,166.25200872802736,11.524026171875,163.61200872802735Q12.805226171875,158.79200872802733,15.466226171875,152.19100872802733Q18.224826171875,145.34800872802734,20.882726171875,140.57200872802736Q23.835026171875,135.26610872802735,27.060926171875,132.85260872802735Q29.002126171875,131.40030872802734,30.628726171875,131.23300872802736Q34.392126171875,130.84680872802733,42.877226171875,131.36750872802736Q44.590726171875,131.47270872802733,45.267326171875,131.49860872802736Q49.595226171875,135.08760872802736,54.840826171875,136.87400872802735Q56.882126171875,137.56920872802735,59.277026171875,138.06560872802734Q60.681226171875,138.35670872802734,63.230526171875,138.75780872802733Q63.430826171875,138.78930872802735,63.521026171875,138.80350872802734Q65.428726171875,139.10400872802734,67.395726171875,139.08130872802735Q69.420926171875,139.05790872802734,70.802726171875,138.69620872802733Q72.485126171875,138.25570872802734,72.848126171875,137.35540872802733Q73.288526171875,136.26310872802736,71.756026171875,135.02560872802735Q69.412326171875,133.13230872802734,58.121326171875,131.67870872802735Q54.306426171875,131.18760872802733,50.103226171875,130.82650872802736Q46.976926171875,130.55790872802734,45.631626171875,130.50990872802734Q40.744226171875,126.76830872802735,37.635826171875,121.98610872802735Q31.741226171875,112.91710872802734,33.380226171875,101.73610872802735Q34.488726171875,94.17510872802734,40.306126171875,86.54790872802735Q41.591026171875,84.86340872802734,43.122026171875,83.07770872802735Q43.519426171875,88.11860872802734,47.303026171875,93.15780872802733Q50.795326171875,97.80900872802735,56.968426171875,102.21250872802734Q61.792026171875,105.65330872802734,67.535926171875,108.47420872802735Q72.079926171875,110.70570872802735,74.576526171875,111.38790872802734L74.734926171875,111.43120872802734L74.888226171875,111.37210872802734Q78.801426171875,109.86310872802734,85.365726171875,109.64040872802734Q87.855226171875,109.55600872802735,89.940926171875,109.69490872802734ZM43.200426171875,81.46290872802734Q54.610426171875,68.50630872802734,78.766426171875,50.325308728027345Q82.852826171875,47.24967872802734,89.109626171875,44.513208728027344Q94.291226171875,42.247008728027346,98.819226171875,41.067738728027344Q112.695826171875,37.45369872802734,123.814826171875,40.14116172802734Q134.630826171875,42.75558872802734,142.447826171875,51.227508728027345Q145.440826171875,54.22180872802734,147.236826171875,57.63260872802734Q149.351826171875,61.648908728027344,149.452826171875,65.64220872802734L149.452826171875,65.64860872802734L149.452826171875,65.65490872802735Q149.452826171875,72.46510872802735,147.839826171875,79.09990872802734Q146.129826171875,96.72400872802734,145.666826171875,99.89740872802734L146.982826171875,99.91720872802733L156.871826171875,100.08990872802735Q157.030826171875,99.47760872802735,157.410826171875,97.95840872802734Q159.865826171875,88.16030872802735,160.621826171875,86.28990872802734Q161.411826171875,84.33350872802734,162.322826171875,83.29570872802734Q162.922826171875,82.61350872802734,164.282826171875,82.00130872802734Q164.495826171875,81.90530872802734,164.598826171875,81.85690872802735L164.810826171875,82.30970872802735L164.617826171875,81.84840872802735Q165.974826171875,81.28110872802733,167.759826171875,81.47400872802734Q168.063826171875,81.50690872802734,168.356826171875,81.55740872802734Q170.139826171875,81.86470872802735,171.456826171875,82.77310872802735Q173.851826171875,84.42410872802733,174.171826171875,87.62300872802734Q174.616826171875,92.07630872802734,174.458826171875,97.86740872802734Q174.358826171875,101.53940872802735,173.890826171875,108.08620872802734L173.889826171875,108.09870872802735L173.888826171875,108.11140872802734Q173.608826171875,112.04070872802734,172.930826171875,115.14780872802734Q171.615826171875,121.17460872802734,169.042826171875,123.35320872802734Q166.183826171875,125.77560872802735,142.747826171875,125.84060872802735L141.441826171875,137.95120872802732L140.394826171875,147.69800872802733Q142.048826171875,147.67300872802736,143.829826171875,147.96400872802735Q146.273826171875,148.36200872802735,148.374826171875,149.28000872802733Q153.751826171875,151.62900872802734,155.442826171875,156.60700872802732Q157.205826171875,161.79900872802733,153.129826171875,163.72900872802734Q151.568826171875,164.46800872802734,148.931826171875,164.80000872802736Q147.194826171875,165.01900872802736,143.930826171875,165.14700872802734Q136.933826171875,165.42100872802735,118.545826171875,165.15000872802733Q109.624826171875,172.71800872802734,94.279826171875,172.27800872802734Q86.397226171875,172.05200872802735,71.950426171875,171.05300872802735Q63.655626171875,170.47900872802734,48.075326171875,169.26200872802735Q36.968426171875,168.39500872802734,33.810226171875,168.20700872802735Q34.325626171875,168.67800872802735,34.782726171875,169.18800872802734Q36.115026171875,170.67200872802735,36.094226171875,171.70800872802735Q36.060526171875,173.38100872802735,33.429326171875,174.18300872802735Q30.647126171875,175.03100872802733,24.430926171875,175.10200872802736Q17.687826171875,175.17900872802736,13.771126171875,173.26800872802735Q9.614876171875,171.24000872802733,9.767126171875,167.56700872802733Q9.821626171875,166.25300872802734,10.412856171875,163.91300872802736Q10.016876171875,163.86800872802735,9.469676171875,163.80900872802735Q7.002556171875,163.54400872802734,5.841396171875,163.30700872802734Q3.855366171875,162.90300872802734,2.622906171875,162.15300872802734Q-0.5627438281249999,160.21200872802734,0.12067917187499999,155.31400872802735Q0.733414171875,150.92200872802735,3.432116171875,145.31100872802733Q5.733716171875,140.52700872802734,9.280806171875,135.37990872802735Q12.349326171875,130.92750872802736,15.547526171875,127.32340872802735Q18.555126171875,123.93400872802735,20.186026171875,122.94240872802735Q24.615426171875,120.24910872802734,36.233726171875,121.63180872802734Q30.777826171875,112.59500872802734,32.390826171875,101.59110872802734Q33.536826171875,93.77420872802735,39.511026171875,85.94150872802734Q41.107926171875,83.84790872802733,43.077026171875,81.60340872802735L43.077026171875,81.60310872802734L43.200426171875,81.46290872802734ZM44.075626171875,81.98250872802734Q55.425226171875,69.14460872802735,79.367726171875,51.124308728027344Q83.360726171875,48.119008728027346,89.510326171875,45.42941872802734Q94.619626171875,43.19483872802734,99.071226171875,42.03545872802734Q112.704826171875,38.48469872802735,123.579826171875,41.11316872802735Q134.105826171875,43.657508728027345,141.719826171875,51.91280872802734L141.726826171875,51.92020872802735L141.733826171875,51.927408728027345Q144.623826171875,54.81770872802734,146.351826171875,58.098608728027344Q148.356826171875,61.904908728027344,148.452826171875,65.66150872802734Q148.452826171875,72.36600872802734,146.859826171875,78.89770872802734Q144.543826171875,88.39090872802734,138.698826171875,99.83390872802735Q134.888826171875,99.86710872802735,133.300826171875,100.73490872802734Q132.118826171875,101.38080872802735,131.508826171875,102.58850872802734Q130.989826171875,103.61780872802734,130.977826171875,104.84600872802734Q130.966826171875,105.97030872802735,131.367826171875,106.83280872802735Q131.836826171875,107.84080872802734,132.625826171875,107.95910872802735Q133.341826171875,108.06640872802734,133.924826171875,107.85460872802734Q134.611826171875,107.60480872802735,135.344826171875,106.84730872802734Q136.782826171875,105.36120872802735,139.297826171875,100.83530872802734L145.066826171875,100.88850872802735L145.068826171875,100.88860872802735L146.965826171875,100.91710872802734L157.626826171875,101.10320872802734L157.732826171875,100.73640872802734Q157.825826171875,100.41920872802734,158.380826171875,98.20130872802734Q160.818826171875,88.47070872802735,161.548826171875,86.66450872802734Q162.275826171875,84.86550872802735,163.073826171875,83.95610872802735Q163.155826171875,83.86250872802734,163.260826171875,83.76870872802735Q161.356826171875,87.39850872802734,159.827826171875,95.32290872802734L160.809826171875,95.51230872802734Q162.714826171875,85.64100872802734,165.113826171875,82.72720872802734Q165.925826171875,82.41510872802735,166.946826171875,82.42540872802735Q166.611826171875,82.80740872802734,166.288826171875,83.34400872802735Q165.633826171875,84.43030872802734,165.229826171875,85.72660872802734Q164.270826171875,88.81250872802735,162.987826171875,96.02200872802734L163.972826171875,96.19720872802733Q165.243826171875,89.04950872802735,166.184826171875,86.02340872802733Q166.552826171875,84.84310872802735,167.144826171875,83.86030872802735Q167.764826171875,82.83210872802735,168.324826171875,82.56770872802734Q169.382826171875,82.76790872802735,170.240826171875,83.20870872802735Q169.647826171875,83.74890872802735,169.176826171875,84.72290872802733Q168.592826171875,85.93120872802734,168.344826171875,87.41830872802734Q168.049826171875,89.18930872802734,167.613826171875,92.20390872802734Q167.075826171875,95.92080872802734,167.014826171875,96.95330872802734L168.013826171875,97.01190872802735Q168.071826171875,96.02170872802733,168.602826171875,92.34710872802734Q169.037826171875,89.34360872802733,169.331826171875,87.58270872802734Q169.555826171875,86.23700872802735,170.076826171875,85.15800872802734Q170.560826171875,84.15610872802733,171.132826171875,83.77430872802734Q172.919826171875,85.15480872802735,173.176826171875,87.72240872802735Q173.615826171875,92.11260872802734,173.458826171875,97.84010872802735Q173.359826171875,101.49010872802734,172.893826171875,108.01500872802734L172.892826171875,108.02750872802734L172.891826171875,108.04030872802734Q172.616826171875,111.89780872802734,171.953826171875,114.93470872802735Q170.711826171875,120.63040872802735,168.396826171875,122.59000872802734Q165.788826171875,124.79930872802734,142.297826171875,124.84160872802734Q135.177826171875,124.85420872802734,124.402826171875,124.61560872802734Q122.987826171875,124.58420872802735,122.456826171875,124.57370872802734Q121.901826171875,124.56260872802734,120.711826171875,124.54700872802735Q116.434826171875,124.49110872802734,114.071826171875,124.32070872802734Q110.029826171875,124.02910872802734,106.904826171875,123.25610872802734Q98.687226171875,121.22350872802734,95.144226171875,115.45690872802734Q93.418826171875,112.64780872802734,92.943326171875,109.48920872802735Q92.260126171875,104.94810872802735,94.166726171875,98.53180872802734Q94.968126171875,95.83490872802734,96.397526171875,92.17690872802734Q97.271926171875,89.93900872802735,99.301326171875,85.08520872802734Q100.951826171875,81.13860872802735,101.806826171875,79.02510872802733L100.879826171875,78.64990872802734Q100.026726171875,80.75780872802734,98.378726171875,84.69950872802735Q96.344826171875,89.56390872802734,95.466126171875,91.81290872802734Q94.021426171875,95.51000872802734,93.208126171875,98.24700872802734Q91.389426171875,104.36770872802734,91.860326171875,108.89580872802735Q91.164526171875,108.77420872802735,90.007426171875,108.69710872802735Q87.871626171875,108.55490872802734,85.331826171875,108.64100872802734Q78.727226171875,108.86510872802734,74.684426171875,110.37980872802734Q72.293026171875,109.69630872802735,67.976726171875,107.57660872802734Q62.306226171875,104.79180872802735,57.549126171875,101.39840872802733Q51.502026171875,97.08480872802734,48.102726171875,92.55730872802735Q44.109026171875,87.23830872802733,44.075626171875,81.98250872802734ZM141.741826171875,125.84220872802734Q134.749826171875,125.84500872802734,124.380826171875,125.61530872802734Q123.856826171875,125.60370872802734,123.460826171875,125.59510872802734Q126.406826171875,129.72290872802733,127.720826171875,135.28560872802734Q129.588826171875,143.18800872802734,127.234826171875,151.35600872802735Q125.006826171875,159.08800872802735,119.643826171875,164.16600872802735Q127.133826171875,164.27200872802734,132.655826171875,164.28400872802735Q132.257826171875,164.17400872802733,131.871826171875,164.02100872802734Q130.323826171875,163.40600872802736,129.471826171875,162.27200872802734L130.271826171875,161.67200872802735Q130.954826171875,162.58100872802734,132.240826171875,163.09100872802736Q133.435826171875,163.56600872802733,134.776826171875,163.56600872802733Q135.735826171875,163.56600872802733,137.708826171875,162.69700872802736Q139.067826171875,162.09900872802734,139.674826171875,161.99700872802734Q140.739826171875,161.82000872802735,142.900826171875,162.13100872802733Q145.001826171875,162.43500872802736,146.159826171875,162.90000872802733Q146.630826171875,163.08900872802735,147.308826171875,163.09900872802734Q148.133826171875,163.11000872802734,148.680826171875,162.79100872802735Q149.433826171875,162.35000872802735,149.623826171875,161.52400872802735Q149.841826171875,160.57500872802734,149.140826171875,159.56000872802736Q146.767826171875,156.12100872802733,141.693826171875,155.90100872802736L141.736826171875,154.90200872802734Q147.307826171875,155.14300872802733,149.963826171875,158.99200872802734Q150.914826171875,160.37000872802736,150.597826171875,161.74900872802735Q150.311826171875,162.99500872802736,149.185826171875,163.65400872802735Q149.053826171875,163.73100872802735,148.913826171875,163.79400872802734Q151.315826171875,163.48100872802735,152.701826171875,162.82500872802734Q154.280826171875,162.07700872802735,154.755826171875,160.79100872802735Q155.303826171875,159.30700872802734,154.495826171875,156.92800872802735Q152.947826171875,152.36800872802735,147.974826171875,150.19700872802736Q145.988826171875,149.32900872802736,143.668826171875,148.95100872802735Q141.675826171875,148.62500872802735,139.860826171875,148.71600872802736L139.276826171875,148.74500872802736L140.447826171875,137.84440872802736L141.741826171875,125.84220872802734ZM146.451826171875,164.01900872802736Q146.093826171875,163.95100872802735,145.786826171875,163.82800872802733Q144.740826171875,163.40700872802734,142.757826171875,163.12100872802733Q140.750826171875,162.83200872802735,139.839826171875,162.98400872802733Q139.355826171875,163.06400872802735,138.111826171875,163.61200872802735Q137.079826171875,164.06700872802736,136.529826171875,164.24800872802734Q136.479826171875,164.26400872802736,136.429826171875,164.28000872802733Q141.084826171875,164.25800872802733,143.891826171875,164.14800872802735Q145.322826171875,164.09200872802734,146.451826171875,164.01900872802736ZM139.847826171875,99.84040872802734L144.661826171875,99.88480872802734Q145.007826171875,97.67640872802735,146.311826171875,84.44650872802734Q143.965826171875,91.64890872802735,139.821826171875,99.83260872802734L139.852826171875,99.83260872802734L139.847826171875,99.84040872802734ZM138.147826171875,100.84330872802735Q135.039826171875,100.92390872802734,133.780826171875,101.61240872802735Q132.870826171875,102.10930872802734,132.401826171875,103.03920872802735Q131.986826171875,103.86050872802734,131.977826171875,104.85570872802734Q131.968826171875,105.75370872802735,132.274826171875,106.41110872802734Q132.516826171875,106.93150872802734,132.773826171875,106.97010872802734Q133.239826171875,107.03980872802734,133.583826171875,106.91470872802735Q134.053826171875,106.74370872802734,134.626826171875,106.15190872802734Q135.896826171875,104.83890872802735,138.147826171875,100.84330872802735ZM36.924326171875,122.72490872802734Q24.990726171875,121.19130872802734,20.705526171875,123.79680872802734Q19.203226171875,124.71030872802734,16.295426171875,127.98720872802734Q13.137926171875,131.54550872802736,10.104196171875,135.94730872802734Q6.601216171875,141.03000872802733,4.333276171875,145.74500872802736Q1.702246171875,151.21500872802733,1.111087171875,155.45200872802735Q0.518421171875,159.70000872802734,3.143136171875,161.29900872802733Q4.226156171875,161.95800872802732,6.040696171875,162.32700872802735Q7.156076171875,162.55400872802733,9.576766171875,162.81500872802735Q10.229066171875,162.88500872802734,10.670626171875,162.93600872802733Q11.969026171875,158.19200872802736,14.538726171875,151.81700872802736Q17.320726171875,144.91700872802733,20.008926171875,140.08500872802733Q23.065026171875,134.59330872802735,26.461826171875,132.05190872802734Q28.624626171875,130.43380872802734,30.526626171875,130.23820872802736Q34.371526171875,129.84370872802734,42.938426171875,130.36940872802734Q43.482926171875,130.40280872802734,43.920226171875,130.42810872802733Q39.735626171875,126.98370872802734,36.924326171875,122.72490872802734ZM46.987126171875,131.58540872802735Q50.738326171875,134.42050872802736,55.163226171875,135.92740872802733Q57.145826171875,136.60260872802735,59.480026171875,137.08640872802732Q60.860526171875,137.37260872802733,63.385926171875,137.76990872802736Q63.574426171875,137.79960872802735,63.676826171875,137.81570872802735Q65.501226171875,138.10300872802736,67.384226171875,138.08140872802733Q69.286526171875,138.05950872802734,70.549426171875,137.72880872802733Q71.745626171875,137.41560872802734,71.920626171875,136.98140872802736Q72.084126171875,136.57590872802734,71.127726171875,135.80360872802734Q69.004026171875,134.08800872802735,57.993726171875,132.67050872802736Q54.199726171875,132.18210872802734,50.017626171875,131.82280872802733Q48.194026171875,131.66620872802736,46.987126171875,131.58540872802735Z" fill-rule="evenodd" fill="#515151" fill-opacity="1"/></g><g><path d="M37.01540287475586,130.67859418701173C36.30400287475586,129.93860418701172,34.42589947475586,123.67859418701173,34.34060287475586,121.91460418701172L37.01540287475586,122.14260118701172C38.90480287475586,125.71660418701173,43.41780287475586,129.51160418701173,45.43820287475586,130.96360418701173C43.24710287475586,130.86859418701172,38.49510287475586,130.67859418701173,37.01540287475586,130.67859418701173Z" fill="#515151" fill-opacity="1"/></g><g><path d="M127.78419763183594,164.82660289550782C125.21220763183594,163.78560289550782,124.57719763183594,160.06659289550782,124.78019763183593,156.1295928955078C123.89719763183594,158.91758289550782,120.68220763183594,163.0206028955078,118.29319763183594,164.82660289550782L127.78419763183594,164.82660289550782Z" fill="#515151" fill-opacity="1"/></g><g><path d="M114.19220440673828,130.19059771728516C105.20020440673828,128.15259771728515,99.26419440673828,123.38759771728516,96.61420440673828,118.52359771728516C97.08020040673829,118.90660871728515,99.89320440673828,121.09259771728516,102.55220440673828,122.32359771728515C109.40520440673828,125.49460771728516,120.70520440673829,125.12959771728515,122.60120440673828,125.12959771728515C123.82620440673828,126.58760771728515,125.47520440673829,129.96659771728517,126.11920440673828,131.42459771728517C125.02620440673829,131.42459771728517,119.90520440673828,131.48559771728515,114.19220440673828,130.19059771728516Z" fill="#515151" fill-opacity="1"/></g></g></svg>