<svg xmlns="http://www.w3.org/2000/svg" xmlns:xlink="http://www.w3.org/1999/xlink" fill="none" version="1.1" width="178.9619140625" height="178.44189453125" viewBox="0 0 178.9619140625 178.44189453125"><defs><mask id="master_svg0_69_1233" style="mask-type:alpha" maskUnits="userSpaceOnUse"><g><path d="M51.25350020446778,11.85518741607666L8.453100204467773,23.66698741607666L20.289000204467776,66.52538741607665L63.08940020446777,54.71358741607666L51.25350020446778,11.85518741607666Z" fill="#FFFFFF" fill-opacity="1"/></g></mask><mask id="master_svg1_69_1242" style="mask-type:alpha" maskUnits="userSpaceOnUse"><g><path d="M120.55819921875,51.15008721923828C120.06619921875,47.84528721923828,111.04519921875,36.39898721923828,104.48019921875,36.11908721923828L91.80419921875,40.64028721923828L98.27019921875,54.79698721923828L115.52519921875,57.86418721923828C117.36719921875,56.72778721923828,120.95219921875,53.793887219238286,120.55819921875,51.15008721923828Z" fill="#FFFFFF" fill-opacity="1"/></g></mask><mask id="master_svg2_69_1251" style="mask-type:alpha" maskUnits="userSpaceOnUse"><g><path d="M116.42519338134765,51.26288597290039C117.62219838134766,52.39098597290039,119.50719838134765,52.335285972900394,120.63519838134766,51.138385972900394C121.76318838134766,49.94148597290039,121.70819838134766,48.05658597290039,120.51118838134765,46.92848597290039C119.31419838134765,45.80028897290039,117.42919838134766,45.855987972900394,116.30119338134766,47.05288697290039C115.17319538134765,48.24978597290039,115.22819538134766,50.13468597290039,116.42519338134765,51.26288597290039Z" fill="#FFFFFF" fill-opacity="1"/></g></mask></defs><g><g><path d="M64.7262,67.64198652954101C85.5156,61.32398652954102,122.286,55.383686529541016,136.543,57.78208652954102C140.755,58.490686529541016,144.665,59.76238652954102,147.897,61.202586529541016C147.39,59.51898652954102,146.953,57.701486529541015,146.52,55.897586529541016L146.479,55.727386529541015C145.452,51.45608652954101,144.431,47.28698652954101,142.535,45.17978652954102Q137.738,39.85008652954102,143.201,35.053386529541015L144.134,24.527286529541016C157.153,29.346786529541014,165.785,39.44748652954102,171.139,49.60938652954101C175.703,58.27068652954102,177.886,66.976486529541,178.377,72.49438652954102C179.443,84.48608652954101,170.197,91.35888652954101,159.19,91.35888652954101C149.444,91.35888652954101,140.817,89.71088652954101,134.37,88.24538652954101C135.011,90.43688652954101,139.812,107.43388652954101,141.897,120.91188652954102L95.7472,121.49088652954102L88.1765,106.81488652954101L83.5094,94.55688652954102C64.05590000000001,102.01788652954102,32.7444,113.57588652954101,18.6208,112.99988652954102C8.261700000000001,112.57688652954101,2.9342,97.31088652954102,1.174601,84.30018652954101C0.716101,80.910586529541,0.5,77.67398652954103,0.5,74.892586529541C0.5,69.25008652954102,0.803301,62.717986529541015,2.721,57.00958652954102C3.465,54.79468652954101,4.4521,52.703886529541016,5.7586,50.83708652954101C6.9882,49.08048652954102,8.5006,47.52218652954102,10.3598,46.24568652954102C10.3598,50.24288652954101,9.3414,59.781086529541014,13.1578,60.369286529541014C18.218,61.14918652954101,23.5665,51.28598652954102,27.0149,53.307486529541016C30.879,55.57258652954101,25.3575,69.64068652954101,25.6826,70.49568652954102C25.9548,71.21128652954101,26.2075,71.90498652954102,26.4421,72.57728652954101C27.6134,75.93598652954103,28.3255,78.76118652954102,28.6893,81.12048652954101C36.6188,76.60708652954102,50.0399,72.10518652954102,64.7262,67.64198652954101Z" fill="#FFFFFF" fill-opacity="1"/></g><g><path d="M170.282,49.06738652954101Q165.999,41.18528652954102,160.16,35.42078652954102Q153.229,28.578186529541014,144.574,25.228416529541015L143.682,35.296986529541016L143.531,35.42908652954102Q140.955,37.69108652954102,140.802,40.01618652954102Q140.65,42.33728652954102,142.907,44.84538652954102Q144.244,46.33108652954101,145.307,49.48218652954101Q145.891,51.21438652954102,146.78,54.847686529541015Q151.099,51.56828652954101,158.84,50.04278652954102Q162.131,49.39418652954102,165.611,49.161286529541016Q168.142,48.99188652954102,170.282,49.06738652954101ZM145.993,55.844286529541016Q144.989,51.668786529541016,144.359,49.801886529541015Q143.362,46.846386529541014,142.164,45.514186529541014Q139.624,42.69268652954102,139.804,39.95048652954102Q139.98,37.28488652954101,142.721,34.81178652954102L143.694,23.831147529541017L144.308,24.058384529541016Q153.533,27.473546529541014,160.862,34.70908652954102Q167.097,40.86378652954102,171.582,49.37628652954102Q174.789,55.46318652954102,176.765,62.08778652954101Q178.459,67.76748652954102,178.875,72.45008652954101Q179.274,76.93098652954102,177.844,80.67918652954101Q176.495,84.21568652954102,173.647,86.79418652954101Q170.923,89.25998652954101,167.145,90.57008652954102Q163.429,91.85888652954101,159.19,91.85888652954101Q152.582,91.85888652954101,145.473,90.84668652954102Q140.699,90.16718652954101,135.086,88.91888652954101Q136.44,93.62768652954101,138.077,100.22568652954102Q141.065,112.26328652954102,142.391,120.83548652954101L142.479,121.40458652954102L95.4445,121.99468652954101L87.7192,107.01908652954101L83.2204,95.20308652954101Q62.6739,103.07258652954101,49.2152,107.26958652954102Q28.008,113.88328652954101,18.6004,113.49948652954102Q11.2,113.19728652954102,6.22891,103.60038652954101Q4.175,99.63528652954102,2.70444,94.34788652954101Q1.389545,89.62028652954102,0.679111,84.36718652954102L0.647525,84.13368652954102L0.647806,84.13338652954101Q0,79.24278652954101,0,74.892586529541Q0,69.73528652954101,0.394014,65.92438652954101Q0.925454,60.78428652954101,2.24703,56.85038652954101Q3.45347,53.25878652954101,5.34896,50.550386529541015L5.7586,50.83708652954101L5.34898,50.550386529541015Q7.3312,47.718586529541014,10.07679,45.83348652954102L10.8598,45.295886529541015L10.8598,46.24568652954102Q10.8598,46.87608652954101,10.8076,48.47708652954101Q10.6419,53.55458652954101,10.9642,55.86018652954101Q11.4877,59.60598652954101,13.234,59.875086529541015Q14.7465,60.108186529541015,16.7416,58.865686529541016Q17.984,58.09198652954102,20.4228,55.94258652954102Q22.7855,53.86018652954101,23.8821,53.219686529541015Q25.8717,52.057686529541016,27.2678,52.876186529541016Q29.4142,54.13438652954102,28.719,59.449786529541015Q28.3487,62.280486529541015,26.8362,67.69588652954101Q26.1234,70.24818652954102,26.15,70.31798652954102Q26.5552,71.38328652954101,26.9142,72.41258652954102L26.4421,72.57728652954101L26.9142,72.41268652954102Q28.4525,76.82368652954102,29.0735,80.34518652954102Q32.2863,78.57128652954101,36.7492,76.70618652954101Q46.2608,72.73118652954102,64.5808,67.16358652954102Q72.3749,64.79488652954102,82.6089,62.609686529541015Q92.7869,60.436486529541014,103.012,58.94858652954102Q113.719,57.390686529541014,122.203,56.92318652954101Q131.429,56.41478652954102,136.626,57.28898652954101Q141.709,58.14408652954101,146.545,60.087386529541014Q146.837,60.20478652954102,147.123,60.32398652954102Q146.749,58.96468652954101,146.182,56.62908652954101L146.182,56.62948652954102L146.07,56.16388652954102L146.033,56.01178652954101L145.993,55.844286529541016L145.993,55.844286529541016ZM147.039,55.914886529541015Q147.793,59.04978652954102,148.224,60.54238652954101Q148.267,60.691186529541014,148.31,60.83708652954102Q151.456,62.25148652954102,153.8,63.896086529541016Q156.737,65.95718652954102,157.129,67.48558652954102Q157.388,68.49838652954102,156.556,69.05958652954101Q155.859,69.52998652954102,154.393,69.52998652954102Q150.937,69.52998652954102,148.82,65.10818652954102Q148.132,63.670486529541016,147.485,61.56528652954101Q146.845,61.28568652954102,146.172,61.015286529541015Q141.437,59.11228652954102,136.46,58.27518652954102Q131.373,57.41928652954102,122.258,57.92168652954101Q113.819,58.38668652954102,103.156,59.938186529541014Q92.9634,61.421286529541014,82.8177,63.58768652954102Q72.6253,65.76408652954102,64.8716,68.12038652954101Q46.5998,73.67328652954102,37.1348,77.62878652954102Q32.4842,79.572386529541,29.2402,81.38878652954102Q29.6319,84.13908652954102,29.4188,86.30278652954101Q29.1992,88.53238652954101,28.3391,89.98598652954101Q27.5495,91.32038652954101,26.3188,91.86668652954101Q25.1976,92.36448652954101,23.9806,92.10928652954101Q22.8284,91.86768652954102,21.9997,91.04848652954101Q21.1314,90.19028652954101,20.9656,89.03048652954102Q20.784,87.76088652954101,21.52,86.49928652954102Q23.088,83.81118652954102,28.15,80.86818652954102Q27.5892,77.47208652954102,26.1156,73.16348652954102Q23.6006,73.75108652954101,20.0672,75.03598652954102Q16.3567,76.38518652954102,12.5444,78.12808652954101Q8.63789,79.913986529541,5.76511,81.59488652954101Q2.90112,83.27058652954102,1.70277,84.472186529541Q2.4012599999999997,89.52588652954101,3.66787,94.07998652954102Q5.11065,99.26738652954101,7.11686,103.14048652954102Q11.8209,112.22188652954101,18.6412,112.50028652954101Q27.8757,112.87698652954101,48.9175,106.31498652954102Q62.4985,102.07948652954101,83.3304,94.09008652954101L83.7983,93.91058652954102L88.6338,106.61068652954101L96.0499,120.98708652954102L141.314,120.41918652954102Q139.985,112.06288652954102,137.107,100.46668652954102Q135.33,93.30788652954102,133.89,88.38578652954101L134.37,88.24538652954101L133.89,88.38568652954102Q132.955,85.18608652954102,131.797,81.92848652954102Q130.243,77.55728652954102,129.179,75.741886529541L130.042,75.23608652954101Q131.154,77.133186529541,132.739,81.59368652954102Q133.855,84.73438652954101,134.767,87.82258652954101Q140.652,89.15038652954101,145.614,89.85668652954102Q152.653,90.85888652954101,159.19,90.85888652954101Q163.261,90.85888652954101,166.818,89.62528652954101Q170.402,88.38198652954102,172.976,86.05288652954101Q175.646,83.63528652954102,176.91,80.32278652954102Q178.257,76.78998652954101,177.879,72.53868652954102Q177.471,67.95648652954102,175.806,62.373586529541015Q173.899,55.97878652954101,170.828,50.09238652954102Q168.508,49.969686529541015,165.678,50.15898652954101Q162.262,50.387686529541014,159.033,51.023886529541016Q151.197,52.568186529541016,147.039,55.914886529541015ZM1.54428,83.26028652954102Q2.8519,82.14078652954102,5.2601,80.73178652954101Q8.17632,79.02548652954101,12.1286,77.21858652954101Q15.9773,75.45908652954103,19.7254,74.09618652954101Q23.2415,72.81758652954102,25.7837,72.21428652954101Q25.5121,71.45378652954102,25.2152,70.673386529541Q25.1026,70.37708652954102,25.335,69.42048652954102Q25.4604,68.90448652954102,25.8731,67.42688652954101Q27.3664,62.08008652954101,27.7274,59.320086529541015Q28.3367,54.661886529541015,26.762,53.73888652954102Q25.8707,53.216286529541016,24.3865,54.08318652954102Q23.3737,54.67468652954102,21.084,56.69278652954102Q18.583,58.89698652954102,17.2702,59.714586529541016Q14.9605,61.15298652954102,13.0816,60.863486529541014Q10.6003,60.48098652954101,9.9738,55.99868652954102Q9.63966,53.60788652954102,9.8081,48.44448652954102Q9.83078,47.74938652954101,9.84351,47.24118652954101Q7.77938,48.84068652954102,6.21127,51.062586529541015Q5.49731,53.29298652954101,5.51161,55.00218652954102Q5.52702,56.844086529541016,6.3861,58.40428652954102L5.5101,58.88668652954102Q4.52917,57.10508652954102,4.51164,55.010586529541015Q4.50685,54.43728652954101,4.57527,53.815586529541015Q3.80935,55.35148652954102,3.21372,57.11318652954102Q3.09933,58.45568652954102,3.56625,59.62408652954102Q3.88961,60.433286529541014,4.32305,60.86668652954101L3.61595,61.573886529541014Q3.03725,60.995186529541016,2.63765,59.995186529541016Q2.55628,59.791586529541014,2.4897299999999998,59.58388652954102Q1.75212,62.512286529541015,1.388712,66.02718652954101Q1,69.78688652954102,1,74.892586529541Q1,78.84618652954101,1.54428,83.26028652954102ZM28.3054,81.92678652954102Q23.782,84.60618652954102,22.3838,87.00308652954101Q21.8232,87.96398652954102,21.9555,88.88888652954101Q22.0737,89.71558652954101,22.7027,90.33728652954102Q23.3219,90.94938652954102,24.1858,91.13058652954102Q25.0869,91.31948652954101,25.913,90.95268652954101Q26.8517,90.53608652954101,27.4785,89.47668652954101Q28.2257,88.21388652954101,28.4236,86.20478652954102Q28.6101,84.31128652954101,28.3054,81.92678652954102ZM148.714,62.12588652954101Q149.209,63.60358652954102,149.722,64.67648652954102Q151.567,68.52998652954102,154.393,68.52998652954102Q155.553,68.52998652954102,155.997,68.23048652954103Q156.245,68.06358652954101,156.16,67.73398652954101Q155.86,66.56348652954102,153.225,64.71468652954101Q151.266,63.339786529541016,148.714,62.12588652954101Z" fill-rule="evenodd" fill="#515151" fill-opacity="1"/></g><g><path d="M146.91710020446777,4.70839C146.9201002044678,4.71039,146.92310020446777,4.71239,146.9261002044678,4.71429L144.88410020446779,32.6692L147.45510020446778,60.7653C139.93910020446776,57.6994,134.13210020446778,56.4245,120.20310020446777,57.402C108.26320020446778,58.2399,88.44830020446777,61.35,73.97490020446777,65.0247C57.31240020446777,69.2943,36.157300204467774,76.6626,28.761200204467773,80.9318Q27.992400204467774,76.2874,25.842900204467774,70.778C25.771500204467774,70.066,28.470300204467772,62.4559,28.570900204467772,57.7138C28.654700204467773,54.6342,27.661300204467775,53.2654,26.246300204467772,52.9605C25.532500204467773,52.8067,24.668300204467773,53.0782,24.189900204467776,53.317C23.561900204467776,53.6386,23.334900204467772,53.7941,22.815100204467775,54.1562C21.470900204467775,55.1345,20.428400204467774,56.1733,18.865800204467774,57.4963C17.645100204467774,58.5297,16.667700204467774,59.2296,15.823700204467773,59.6656C14.322600204467774,60.441,13.339100204467773,60.3629,12.935000204467773,60.2975C12.303600204467774,60.1952,11.720900204467773,59.8207,11.220300204467772,58.7109C11.199100204467774,58.4162,11.175900204467773,58.1167,11.151000204467774,57.825C10.657200204467774,52.0349,8.453001022367774,37.7058,8.453100204467773,22.9132C8.453100204467773,15.175,10.066000204467773,12.8761,11.151000204467774,11.3295C11.193900204467774,11.2684,11.236100204467773,11.2083,11.277200204467773,11.1492C15.129500204467774,5.61329,24.955600204467775,4.39669,34.398100204467774,4.18139C36.89480020446777,4.04529,39.595700204467775,3.99309,42.50420020446777,4.01289L42.61590020446777,4.16839L42.85220020446777,4.17079L43.178300204467774,4.17409C43.01040020446777,4.19349,42.838600204467774,4.21339,42.66300020446777,4.23389L60.97830020446777,29.7215L57.363000204467774,43.8075L67.56630020446778,59.7897L64.72040020446778,43.2948L74.71230020446778,31.3081L71.22010020446777,3.60439Q79.99720020446777,3.11339,90.68620020446777,1.83339C101.37620020446778,0.553487,109.16510020446778,-0.0731134,120.10810020446777,0.00678635C121.74910020446778,0.0186863,123.52010020446777,0.0963869,125.34510020446777,0.229187C134.98410020446778,0.870687,143.89510020446778,2.78229,146.80010020446778,4.63189C146.84310020446776,4.65839,146.88510020446776,4.68499,146.9261002044678,4.71159C146.92310020446777,4.71049,146.9201002044678,4.70949,146.91710020446777,4.70839Z" fill-rule="evenodd" fill="#EAF5FF" fill-opacity="1"/></g><g><path d="M133.03820797636718,16.95758668310547C133.28920027636718,16.23578668310547,134.0782032763672,15.854385683105468,134.8002032763672,16.105585083105467C135.30220327636718,16.28048468310547,135.7862132763672,16.516284683105468,136.2432132763672,16.81908568310547C136.88020327636718,17.241082683105468,137.0552032763672,18.09978268310547,136.6332132763672,18.73698268310547C136.2111932763672,19.37428268310547,135.3522032763672,19.54868268310547,134.7152132763672,19.126782683105468C134.45620327636718,18.95558268310547,134.18220327636718,18.82108268310547,133.8901972763672,18.71948268310547C133.16819727636718,18.468282683105468,132.7872012763672,17.67938268310547,133.03820797636718,16.95758668310547Z" fill="#0871F0" fill-opacity="1"/></g><g><path d="M130.67820525390624,17.168986583251954C130.88819525390625,17.903786583251954,130.46321525390624,18.669786583251952,129.72821525390626,18.879786583251953C129.36621525390626,18.983286583251953,128.99520525390625,19.104986583251954,128.61621525390626,19.243386583251954C127.89920525390625,19.505786583251954,127.10420225390625,19.136586583251955,126.84220885390624,18.418686583251954C126.57920825390624,17.700886583251954,126.94821125390625,16.906286583251955,127.66619825390624,16.643886583251952C128.10020525390624,16.485185583251955,128.53520525390624,16.342285583251954,128.96720525390626,16.218585983251952C129.70220525390624,16.008584583251952,130.46820525390626,16.434085583251953,130.67820525390624,17.168986583251954Z" fill="#0871F0" fill-opacity="1"/></g><g><path d="M124.76620388183593,19.445785391357422C125.14219388183594,20.111287391357422,124.90721388183594,20.955487391357423,124.24121388183593,21.33128739135742C123.88420388183594,21.533287391357423,123.52620388183594,21.74108739135742,123.17021388183593,21.95298739135742C122.51319388183593,22.343787391357424,121.66419988183594,22.12828739135742,121.27320888183594,21.47148739135742C120.88220188183594,20.81468739135742,121.09820558183594,19.96538739135742,121.75520288183594,19.57448539135742C122.12719388183594,19.353086391357422,122.50219388183594,19.134685391357422,122.88020388183594,18.921186391357423C123.54620388183594,18.54538539135742,124.39019388183594,18.78028489135742,124.76620388183593,19.445785391357422Z" fill="#0871F0" fill-opacity="1"/></g><g><path d="M87.88968922363281,20.473587036132812L87.98039922363282,20.473587036132812C88.2086992236328,20.473587036132812,88.43349922363281,20.47608756613281,88.65489922363281,20.480987546132813C89.41899922363281,20.49808693613281,90.0245992236328,21.13128703613281,90.0074992236328,21.895387036132814C89.9904892236328,22.659487036132813,89.35718922363282,23.26508703613281,88.59308922363282,23.248087036132812C88.42309922363282,23.244287036132814,88.25039922363281,23.242087036132812,88.07509922363282,23.241487036132813C87.9018892236328,23.26698703613281,87.70839922363281,23.303687036132814,87.50199922363281,23.352887036132813C86.75859822363282,23.530187036132812,86.0121992236328,23.071287036132812,85.83489992363282,22.32778703613281C85.65760022363281,21.584387036132814,86.11649322363282,20.837988036132813,86.8598892236328,20.66068803613281C87.19018922363281,20.581888036132813,87.5074992236328,20.523887636132812,87.79979922363282,20.485387836132812L87.88968922363281,20.473587036132812Z" fill="#0871F0" fill-opacity="1"/></g><g><path d="M137.8102107763672,20.7914848125C138.5422107763672,20.5694843125,139.3152007763672,20.9822863125,139.5372007763672,21.7135863125C139.6662007763672,22.1406853125,139.78221077636718,22.5911853125,139.88321077636718,23.0657853125C140.0422107763672,23.8131853125,139.5662107763672,24.5483853125,138.81821077636718,24.7078853125C138.0712007763672,24.867385312499998,137.3361967763672,24.3906853125,137.1762087763672,23.6432853125C137.09020977636717,23.2387853125,136.9942017763672,22.8642853125,136.8881988763672,22.5177853125C136.6661987763672,21.786485312499998,137.07920877636718,21.0135863125,137.8102107763672,20.7914848125Z" fill="#0871F0" fill-opacity="1"/></g><g><path d="M92.30720518789063,22.170593750000002C92.49220258789063,21.42898975,93.24320258789062,20.97768775,93.98420758789062,21.16248705C94.43719758789062,21.27528775,94.87119758789062,21.39928775,95.28820758789062,21.53228775C96.01620758789062,21.76448775,96.41820758789062,22.54308375,96.18620758789062,23.27118375C95.95319758789063,23.99938375,95.17519758789062,24.40138375,94.44720758789063,24.16908375C94.08520758789062,24.05368375,93.70920758789063,23.94608375,93.31519758789062,23.84808375C92.57420358789062,23.66319375,92.12220758789063,22.91218375,92.30720518789063,22.170593750000002Z" fill="#0871F0" fill-opacity="1"/></g><g><path d="M119.33319663574218,22.725085775146486C119.7542066357422,23.362990775146486,119.57819663574219,24.221390775146485,118.94019663574218,24.642390775146485L118.41419663574219,24.989790775146485C118.2311966357422,25.110490775146484,118.05019663574218,25.230280775146483,117.88019663574218,25.342890775146486C117.24219663574219,25.763790775146486,116.3841936357422,25.587990775146483,115.96319563574218,24.950090775146485C115.54219863574218,24.312190775146483,115.71819303574219,23.453790775146484,116.35519363574218,23.032787775146485L116.67519363574219,22.821986775146485L116.88519663574219,22.682986775146485L117.17619663574219,22.490688775146484L117.41519663574219,22.332488775146484C118.05319663574218,21.911487775146483,118.91219663574219,22.087287875146483,119.33319663574218,22.725085775146486Z" fill="#0871F0" fill-opacity="1"/></g><g><path d="M98.28020495214844,24.260787967041015C98.64720195214844,23.590587567041016,99.48920595214844,23.345187967041017,100.15920595214844,23.712588967041015C100.36220595214844,23.824088967041014,100.57620595214844,23.942386967041017,100.78520595214843,24.057986967041014C100.95320595214844,24.151286967041017,101.11820595214844,24.242785967041016,101.27220595214844,24.327285967041014C101.94220595214844,24.695484967041015,102.18620595214844,25.536984967041015,101.81820595214843,26.206684967041017C101.45020595214844,26.876384967041016,100.60820595214844,27.120784967041015,99.93920595214844,26.752584967041017C99.76320595214844,26.655884967041015,99.59720595214844,26.564284967041015,99.43320595214844,26.473184967041014L99.43120595214843,26.472084967041017L99.42920595214844,26.470884967041016C99.23320595214844,26.362384967041017,99.03820795214844,26.254484967041016,98.82820095214844,26.139584967041017C98.15820315214843,25.772084967041017,97.91320795214844,24.930984967041017,98.28020495214844,24.260787967041015Z" fill="#0871F0" fill-opacity="1"/></g><g><path d="M82.85779422363281,24.818588256816405C83.62199422363281,24.804187786816406,84.25309422363281,25.411987486816408,84.2673942236328,26.176186486816405C84.27050422363281,26.338186486816404,84.29029422363281,26.519086486816406,84.33349422363281,26.720686486816405C84.49369422363282,27.467986486816407,84.01770422363282,28.203686486816405,83.27029422363282,28.363786486816405C82.52299422363281,28.523986486816405,81.78739922363282,28.047886486816406,81.6271972236328,27.300586486816407C81.54909512363281,26.936086486816407,81.50679779363281,26.578286486816406,81.50019836463281,26.228186486816405C81.48589322363281,25.463989486816406,82.09369622363282,24.832885786816405,82.85779422363281,24.818588256816405Z" fill="#0871F0" fill-opacity="1"/></g><g><path d="M114.03819870605469,26.241187911132812C114.34318870605469,26.941983911132812,114.02219870605468,27.757283911132813,113.32119870605469,28.062283911132813C113.06719870605468,28.17268391113281,112.80919870605469,28.27038391113281,112.55319870605469,28.342383911132814C112.33019870605469,28.405183911132813,112.1111987060547,28.46388391113281,111.89419870605468,28.518383911132812C111.15319870605468,28.705383911132813,110.40119970605468,28.256183911132812,110.21419520605468,27.515083911132812C110.02719870605469,26.774083911132813,110.4761967060547,26.021785911132813,111.21718870605469,25.83478891113281C111.40819870605469,25.78658691113281,111.60319870605468,25.734489911132812,111.80319870605469,25.678287911132813C111.90419870605469,25.649688911132813,112.04119870605469,25.60098691113281,112.21718870605469,25.52438691113281C112.91819870605468,25.219485911132814,113.7331987060547,25.540385911132812,114.03819870605469,26.241187911132812Z" fill="#0871F0" fill-opacity="1"/></g><g><path d="M103.92119597636719,27.18698704711914C104.0791927763672,26.43928904711914,104.81419377636719,25.96168904711914,105.56119077636718,26.120185847119142C105.91119077636719,26.19448804711914,106.27520077636719,26.25108704711914,106.65720077636719,26.28678904711914C107.41820077636719,26.35808904711914,107.9771907763672,27.03278704711914,107.90620077636719,27.79368704711914C107.83420077636718,28.554687047119142,107.16019077636719,29.11378704711914,106.39919077636719,29.042487047119142C105.90919077636718,28.996587047119142,105.43919077636718,28.923587047119142,104.98720077636719,28.82778704711914C104.24019577636719,28.66928704711914,103.76219977636718,27.93458704711914,103.92119597636719,27.18698704711914Z" fill="#0871F0" fill-opacity="1"/></g><g><path d="M139.0062107763672,26.995288848408205C139.77020077636718,26.982986443408205,140.40021077636717,27.592487743408203,140.4122007763672,28.356685743408203C140.4162007763672,28.580985743408203,140.4172107763672,28.808885743408204,140.4172107763672,29.0403857434082C140.4172107763672,29.283785743408203,140.41420077636718,29.528285743408205,140.40820077636718,29.773585743408205C140.3872107763672,30.537585743408204,139.7512007763672,31.140285743408203,138.9872007763672,31.1197857434082C138.2232057763672,31.099385743408202,137.62020877636718,30.463385743408203,137.6412048343672,29.699385743408204C137.6472015363672,29.478485743408203,137.65020751636717,29.258685743408204,137.65020751636717,29.0403857434082C137.65020751636717,28.823385743408203,137.64820861636719,28.6103857434082,137.64520263636717,28.401285743408202C137.63220214636718,27.637088743408203,138.24220277636718,27.0075874434082,139.0062107763672,26.995288848408205Z" fill="#0871F0" fill-opacity="1"/></g><g><path d="M138.62920749511719,33.926387803027346C139.3762074951172,34.08878710302734,139.84919749511718,34.825886103027344,139.68720749511718,35.572793103027344C139.5841974951172,36.04559310302734,139.4712074951172,36.51809310302735,139.3471974951172,36.98919310302735C139.15319749511718,37.72849310302735,138.39719749511718,38.17069310302735,137.65820749511718,37.97688310302735C136.9181974951172,37.78298310302734,136.47621149511718,37.026593103027345,136.67021179511718,36.287293103027345C136.78421049511718,35.85359310302734,136.8881984951172,35.418983103027344,136.9822084951172,34.98459310302734C137.1452024951172,34.23768610302734,137.8821974951172,33.763988103027344,138.62920749511719,33.926387803027346Z" fill="#0871F0" fill-opacity="1"/></g><g><path d="M136.71520947753908,40.64448967871094C137.41219947753908,40.95788567871094,137.72320947753906,41.776985678710936,137.41019947753907,42.474085678710935C137.21020947753905,42.91768567871094,137.00219947753905,43.356785678710935,136.78420947753906,43.79028567871094C136.44120947753908,44.47318567871094,135.60920947753905,44.748685678710935,134.92620847753906,44.405585678710935C134.24320987753907,44.062485678710935,133.96820047753906,43.23068567871094,134.31120347753907,42.54778567871094C134.51119947753907,42.15018567871094,134.70220947753907,41.746985678710935,134.88619947753907,41.339187678710935C135.19919947753905,40.642085678710934,136.01819947753907,40.33108867871094,136.71520947753908,40.64448967871094Z" fill="#0871F0" fill-opacity="1"/></g><g><path d="M31.699906185302734,44.49909258544922C31.768006185302735,45.26029258544922,31.206006185302734,45.93258258544922,30.444706185302735,46.000582585449216C30.013196185302736,46.03909258544922,29.592996185302734,46.09989258544922,29.185406185302735,46.18089258544922C28.435798185302733,46.33008258544922,27.707199185302734,45.84329258544922,27.558101685302734,45.09369258544922C27.409000185302734,44.34408258544922,27.895801185302734,43.61548658544922,28.645396185302733,43.46638858544922C29.150596185302735,43.36588658544922,29.668796185302735,43.29108808544922,30.198396185302734,43.24378585544922C30.959706185302736,43.17578888544922,31.631896185302736,43.73778958544922,31.699906185302734,44.49909258544922Z" fill="#0871F0" fill-opacity="1"/></g><g><path d="M34.61940005302734,44.829486842041014C34.83570085302734,44.09648884204102,35.605201853027346,43.67748684204101,36.338301853027346,43.893787342041016C36.58170185302734,43.965686842041016,36.82600185302734,44.04318584204101,37.07100185302734,44.126487842041016C37.794601853027345,44.372485842041016,38.181801853027345,45.158486842041015,37.93580185302734,45.88208684204102C37.689701853027344,46.60568684204102,36.90370185302734,46.99288684204102,36.180101853027345,46.746886842041015C35.97050185302734,46.675586842041014,35.762101853027346,46.609486842041015,35.55509985302734,46.54838684204102C34.821998853027345,46.332086842041015,34.403098853027345,45.562586842041014,34.61940005302734,44.829486842041014Z" fill="#0871F0" fill-opacity="1"/></g><g><path d="M81.93549474121093,45.93888966552734C81.98539474121094,46.70148966552735,81.40769474121093,47.36028966552735,80.64499474121094,47.410289665527344C80.19680474121094,47.43958966552734,79.75599474121094,47.478989665527344,79.32309474121094,47.52878966552734C78.56379674121094,47.615989665527344,77.87759404121094,47.071089665527346,77.79039764121094,46.31178966552734C77.70319364121094,45.55248666552735,78.24799374121093,44.866287665527345,79.00729474121094,44.779086665527345C79.48699474121094,44.723987565527345,79.97279474121093,44.68058776552734,80.46409474121094,44.648487095527344C81.22670474121094,44.598487865527346,81.88549474121093,45.176189665527346,81.93549474121093,45.93888966552734Z" fill="#0871F0" fill-opacity="1"/></g><g><path d="M84.75509643121094,45.9955907434082C84.82019804121094,45.2340887434082,85.49019574121094,44.6694870434082,86.25179474121094,44.7345886234082C86.72499474121093,44.7749862434082,87.20159474121094,44.822887443408206,87.68139474121094,44.8779867434082C88.44069474121093,44.9651867434082,88.98559474121093,45.6513867434082,88.89839474121094,46.4106907434082C88.81119474121094,47.169990743408206,88.12500474121094,47.7148807434082,87.36570474121093,47.6276907434082C86.91149474121093,47.575590743408206,86.46159474121093,47.5302907434082,86.01609474121094,47.492290743408205C85.25459274121094,47.427190743408204,84.68999484121093,46.757090743408206,84.75509643121094,45.9955907434082Z" fill="#0871F0" fill-opacity="1"/></g><g><path d="M91.67020420058594,46.87698690673828C91.82820160058594,46.12918890673828,92.56220260058593,45.650687906738284,93.31020560058593,45.80828860673828C93.77120560058594,45.90548690673828,94.23420560058594,46.00768690673828,94.69820560058594,46.11478790673828C95.44320560058594,46.28658690673828,95.90820560058594,47.029486906738285,95.73620560058593,47.77428690673828C95.56420560058594,48.518986906738284,94.82120560058594,48.98348690673828,94.07720560058594,48.811786906738284C93.62820560058594,48.70848690673828,93.18320560058594,48.60998690673828,92.73920560058593,48.51648690673828C91.99120360058593,48.358886906738284,91.51320660058593,47.62488690673828,91.67020420058594,46.87698690673828Z" fill="#0871F0" fill-opacity="1"/></g><g><path d="M24.880601928100585,46.30268817431641C25.361701928100587,46.89648617431641,25.270401928100586,47.76788617431641,24.676601928100585,48.2490861743164C24.352501928100587,48.511786174316406,24.052601928100586,48.791486174316404,23.778401928100585,49.08528617431641C23.257001928100586,49.644086174316406,22.381301928100587,49.6743861743164,21.822499928100587,49.1529861743164C21.263700928100587,48.6315861743164,21.233399928100585,47.75588617431641,21.754800928100586,47.197086174316404C22.118098928100586,46.80768617431641,22.512201928100588,46.44058617431641,22.934101928100585,46.098686174316406C23.527901928100587,45.61758817431641,24.399401928100588,45.70888897431641,24.880601928100585,46.30268817431641Z" fill="#0871F0" fill-opacity="1"/></g><g><path d="M75.03670370605468,46.943886169921875C75.31600370605469,47.655389169921875,74.96570370605468,48.458489169921876,74.25420370605468,48.737789169921875C74.0542037060547,48.81628916992187,73.85710370605469,48.898289169921874,73.66280370605469,48.98378916992188C73.43410370605469,49.08438916992188,73.20850370605469,49.18508916992187,72.98590370605469,49.28578916992188C72.28960370605469,49.60088916992188,71.46970370605469,49.29188916992187,71.15460170605469,48.59558916992187C70.8395007060547,47.89928916992187,71.14850570605469,47.079389169921875,71.8448027060547,46.764286169921874C72.07620370605468,46.659588169921875,72.31060370605469,46.55488616992187,72.54810370605469,46.45048916992187C72.77710370605469,46.34968516992188,73.00870370605469,46.25338716992187,73.24290370605469,46.161487569921874C73.95430370605469,45.88218716992188,74.75740370605469,46.232487169921875,75.03670370605468,46.943886169921875Z" fill="#0871F0" fill-opacity="1"/></g><g><path d="M133.44321034179688,46.80928844189453C134.04820034179687,47.27658844189453,134.15921034179686,48.14558544189453,133.69220034179688,48.75048544189453C133.39020034179688,49.14138544189453,133.07820034179687,49.522585441894535,132.75821034179688,49.89278544189453C132.25821034179688,50.47058544189453,131.38420034179688,50.533485441894534,130.8061983417969,50.03318544189453C130.22821044179688,49.53288544189453,130.16520734179687,48.65898544189453,130.66520734179687,48.08118544189453C130.9512023417969,47.75098544189453,131.23020934179686,47.40978644189453,131.50220034179688,47.05838744189453C131.96921034179687,46.45358654189453,132.83821034179687,46.34208644189453,133.44321034179688,46.80928844189453Z" fill="#0871F0" fill-opacity="1"/></g><g><path d="M98.45720676367188,48.50118598022461C98.67520126367188,47.76878698022461,99.44620526367187,47.35228698022461,100.17920526367188,47.57078938022461C100.62920526367188,47.70508598022461,101.07920526367188,47.84298698022461,101.53020526367187,47.98428698022461C102.26020526367188,48.21258898022461,102.66720526367187,48.98899098022461,102.43920526367188,49.71839098022461C102.21020526367188,50.44779098022461,101.43420526367187,50.85399098022461,100.70520526367187,50.62569098022461C100.26420526367187,50.48799098022461,99.82520526367188,50.35369098022461,99.38720726367187,50.22299098022461C98.65520526367187,50.004390980224606,98.23820526367187,49.23359098022461,98.45720676367188,48.50118598022461Z" fill="#0871F0" fill-opacity="1"/></g><g><path d="M105.10719295390625,50.626086833251954C105.36919425390624,49.907985833251956,106.16320025390625,49.538085833251955,106.88119025390625,49.79978943325195C107.32220025390625,49.96038783325195,107.76320025390625,50.12358883325195,108.20319025390626,50.28908883325195C108.91820025390625,50.55798683325195,109.28020025390624,51.35598783325195,109.01120025390625,52.071387833251954C108.74319025390625,52.78678783325195,107.94520025390625,53.14878783325195,107.22919025390625,52.879887833251956C106.79720025390625,52.717587833251955,106.36520025390625,52.55758783325195,105.93319725390624,52.400187833251955C105.21519425390625,52.13848783325195,104.84519925390624,51.34418783325195,105.10719295390625,50.626086833251954Z" fill="#0871F0" fill-opacity="1"/></g><g><path d="M128.7042120703125,51.93388792651367C129.1252020703125,52.57168092651367,128.9502120703125,53.43009092651367,128.3122120703125,53.851280926513674C127.8902020703125,54.129980926513674,127.4582020703125,54.39089092651367,127.0162020703125,54.63219092651367C126.3452020703125,54.99848092651367,125.5052030703125,54.75179092651367,125.1381990703125,54.08099092651367C124.7722010703125,53.410290926513674,125.0192107703125,52.56949092651367,125.6892090703125,52.20318592651367C126.0612020703125,52.00008792651367,126.4272020703125,51.77938892651367,126.7872020703125,51.54168692651367C127.4252020703125,51.12058592651367,128.2832020703125,51.29608912651367,128.7042120703125,51.93388792651367Z" fill="#0871F0" fill-opacity="1"/></g><g><path d="M20.53439976196289,51.826087948935545C21.29549976196289,51.89568710893555,21.85609976196289,52.56908790893554,21.78649976196289,53.33029290893555C21.76879976196289,53.52368290893555,21.75989976196289,53.718382908935546,21.75989976196289,53.91428290893555C21.75989976196289,54.16889290893555,21.76309976196289,54.42049290893554,21.76989976196289,54.66879290893554L20.15849976196289,56.071692908935546C19.517900761962892,55.96539290893555,19.021499661962892,55.41748290893555,19.003200561962892,54.74409290893555C18.99570083196289,54.46919290893555,18.99209976196289,54.192482908935546,18.99209976196289,53.91428290893555C18.99209976196289,53.633782908935544,19.00500106196289,53.35498290893555,19.03030016196289,53.078292908935545C19.09990076196289,52.317187908935544,19.77329976196289,51.756588008935545,20.53439976196289,51.826087948935545Z" fill="#0871F0" fill-opacity="1"/></g><g><path d="M111.63019565332031,53.11138558984375C111.92419465332031,52.40588758984375,112.73519965332031,52.07248658984375,113.44018965332032,52.36668758984375C113.65719965332032,52.45688658984375,113.87319965332031,52.54758858984375,114.0891996533203,52.63858758984375C114.29219965332031,52.72458658984375,114.49518965332031,52.80538958984375,114.6961996533203,52.88118758984375C115.4111896533203,53.15068458984375,115.77318965332032,53.94898458984375,115.50319965332031,54.66418458984375C115.23419965332032,55.37939458984375,114.43619965332032,55.74068458984375,113.72019965332031,55.47118458984375C113.48519965332031,55.38258458984375,113.24919965332032,55.28848458984375,113.01319965332031,55.18888458984375C112.80118965332031,55.09928458984375,112.58819965332032,55.00999458984375,112.37519865332031,54.92118458984375C111.66919665332031,54.62708458984375,111.33619665332031,53.81678458984375,111.63019565332031,53.11138558984375Z" fill="#0871F0" fill-opacity="1"/></g><g><path d="M62.14620040893555,53.98718687719727C62.62910040893555,54.57958287719727,62.54020040893555,55.45129287719727,61.94780040893555,55.934182877197266C61.56850040893555,56.24329287719726,61.206000408935544,56.55039287719727,60.85830040893555,56.854982877197266C60.283500408935545,57.35868287719727,59.409198408935545,57.30099287719727,58.90549840893555,56.726082877197264C58.40179840893555,56.15128287719727,58.45949940893555,55.27689287719726,59.03439740893555,54.773292877197264C59.405902408935546,54.447688877197265,59.79350040893555,54.11938887719727,60.199200408935546,53.78878387719727C60.791600408935544,53.30588887719727,61.66330040893555,53.39468767719727,62.14620040893555,53.98718687719727Z" fill="#0871F0" fill-opacity="1"/></g><g><path d="M122.43420844726563,54.96417991333008C122.51820844726562,55.723889913330076,121.97019844726563,56.40778991333008,121.21119844726563,56.49178991333008C120.70519844726563,56.547689913330075,120.19320844726562,56.578089913330075,119.67519844726563,56.58178991333008C118.91020244726562,56.58727991333008,118.28620910726562,55.97218991333008,118.28120422366563,55.20788991333008C118.27520751726563,54.44358491333008,118.89120444726562,53.81958391333008,119.65519844726562,53.814189913330075C120.07819844726562,53.811183913330076,120.49520844726563,53.78628921333008,120.90620844726563,53.740886683330075C121.66619844726563,53.65688701333008,122.35020844726563,54.20458591333008,122.43420844726563,54.96417991333008Z" fill="#0871F0" fill-opacity="1"/></g><g><path d="M56.69819672363281,58.94878775219726C57.26149672363281,59.465289752197265,57.29950672363281,60.34068475219726,56.78299672363281,60.904084752197264C56.535196723632815,61.17438475219726,56.294196723632815,61.43948475219727,56.055296723632814,61.70238475219727L56.05060672363281,61.70748475219727L56.04940672363281,61.708884752197264L56.04829672363281,61.71008475219727L56.03730672363281,61.722184752197265L55.87430672363281,61.90148475219726L55.790206723632814,61.99388475219727C55.27589672363281,62.55918475219727,54.400596723632816,62.600494752197264,53.83530072363281,62.08618475219727C53.27000072363281,61.57178475219727,53.22869872363281,60.696594752197264,53.74309872363281,60.13129475219726L53.99700172363281,59.85198475219727C54.23929972363281,59.585384752197264,54.48839672363281,59.311290752197266,54.74289672363281,59.03368775219727C55.259406723632814,58.470287752197265,56.13479672363281,58.43228575219727,56.69819672363281,58.94878775219726Z" fill="#0871F0" fill-opacity="1"/></g><g><path d="M51.62760581787109,64.3220868059082C52.07810581787109,64.9393848059082,51.94290581787109,65.80508480590821,51.3255958178711,66.2556848059082C50.89620581787109,66.5689848059082,50.446605817871095,66.86539480590821,49.970195817871094,67.1423948059082C49.30950581787109,67.5265848059082,48.46250181787109,67.3023848059082,48.078300817871096,66.6416848059082C47.69409981787109,65.98098480590821,47.9183006178711,65.1339948059082,48.578998817871096,64.74978980590821C48.9672958178711,64.5239908059082,49.336895817871095,64.2805898059082,49.69390581787109,64.01998480590821C50.311305817871094,63.5694848059082,51.17700581787109,63.704685205908206,51.62760581787109,64.3220868059082Z" fill="#0871F0" fill-opacity="1"/></g><g><path d="M27.700500817871095,65.01618226416015C28.118100817871095,65.20448326416016,28.566200817871092,65.38038626416015,29.047100817871094,65.54238126416016C29.771300817871094,65.78648426416015,30.160500817871092,66.57148326416015,29.916500817871093,67.29578326416015C29.672400817871093,68.01998326416016,28.887500817871093,68.40928326416015,28.163200817871093,68.16518326416016C27.601200817871092,67.97578326416016,27.067901817871093,67.76708326416016,26.562400817871094,67.53908326416015C26.608100917871095,67.38108326416015,27.059501817871094,65.71478226416015,27.279498817871094,64.90128326416016C27.421401817871093,64.91658016416015,27.563400817871095,64.95428466416016,27.700500817871095,65.01618226416015Z" fill="#0871F0" fill-opacity="1"/></g><g><path d="M45.078898835449216,67.61178276855469C45.19959883544922,68.36638276855469,44.685698835449216,69.07608276855468,43.930998835449216,69.19678276855468C43.43789883544922,69.27568276855469,42.92449883544922,69.34198276855469,42.38869883544922,69.39548276855469C41.62820083544922,69.47158276855468,40.95009993544922,68.9166827685547,40.87409973544922,68.15618276855469C40.79800033544922,67.39568376855469,41.35290183544922,66.71748376855469,42.11339883544922,66.64148676855469C42.59839883544922,66.59308576855469,43.057698835449216,66.53358456855469,43.49379883544922,66.46378326855469C44.24849883544922,66.34308576855469,44.95819883544922,66.85708576855468,45.078898835449216,67.61178276855469Z" fill="#0871F0" fill-opacity="1"/></g><g><path d="M33.43400192075195,67.91438503173828C33.49430082075195,67.15248103173828,34.16090002075195,66.58368683173828,34.92280502075195,66.64398193173828C35.17399502075195,66.66388703173828,35.42990502075195,66.68158723173828,35.69050502075196,66.69698333173828C35.94160502075195,66.71178433173829,36.18840502075195,66.72488403173828,36.43099502075195,66.73628233173828C37.19449502075195,66.77208703173828,37.784405020751954,67.41998303173828,37.74859502075195,68.18338503173828C37.712795020751955,68.94688503173828,37.064895020751955,69.53678503173828,36.301395020751954,69.50098503173828C36.047305020751956,69.48908503173828,35.78929502075195,69.47537503173828,35.52740502075196,69.45988503173828C35.24880502075195,69.44348503173828,34.974395020751956,69.42448503173829,34.70429502075196,69.40308503173829C33.942402020751956,69.34278503173829,33.37369922075195,68.67628503173827,33.43400192075195,67.91438503173828Z" fill="#0871F0" fill-opacity="1"/></g><g mask="url(#master_svg0_69_1233)"><g><g><path d="M20.932599963256838,35.9145319229126C18.959002963256836,28.767981922912597,23.159302963256835,21.3509819229126,30.296902963256834,19.381186922912597C37.43440296325684,17.411391922912596,44.846402963256836,21.6237819229126,46.82000296325684,28.770281922912595C49.46060296325683,38.3323319229126,42.05310296325683,58.0488319229126,41.67720296325683,58.668631922912596C41.57400296325683,58.8371319229126,41.415102963256835,58.9514319229126,41.23820296325684,59.0002319229126C41.06120296325683,59.0489319229126,40.86620296325684,59.0325319229126,40.691202963256835,58.9407319229126C40.05030296325684,58.6015319229126,23.573302963256836,45.4765319229126,20.932599963256838,35.9145319229126ZM35.28780296325684,37.4536319229126C32.052502963256835,38.3465319229126,28.692002963256837,36.4369319229126,27.797302963256836,33.1972319229126C26.902602963256836,29.957531922912597,28.807202963256834,26.5948819229126,32.04250296325684,25.702081922912598C35.277702963256836,24.809191922912596,38.638302963256834,26.718791922912597,39.53290296325683,29.9585319229126C40.42760296325683,33.198131922912594,38.52310296325683,36.560731922912595,35.28780296325684,37.4536319229126Z" fill-rule="evenodd" fill="#0871F0" fill-opacity="1"/></g></g></g><g><path d="M92.3491987060547,89.7348861694336C89.55109870605469,91.2888861694336,86.71499870605469,92.5808861694336,82.98429870605469,94.3128861694336L84.46889870605469,98.23388616943359C86.60069870605469,97.2748861694336,90.6231987060547,92.20688616943359,92.3491987060547,89.7348861694336Z" fill="#515151" fill-opacity="1"/></g><g><path d="M111.0312000048828,52.08011759643554C119.88718000488281,54.17801759643555,123.46618000488282,45.579317596435544,124.15118000488282,43.31421759643555C124.83518000488282,41.049187596435544,118.55418000488281,31.455688596435547,116.15618000488281,32.121887196435544C116.03218000488282,32.15638729643555,115.88918000488282,32.19458759643555,115.73018000488281,32.236785596435546C115.65718000488282,32.25588559643555,115.58218000488282,32.27588659643555,115.50318000488281,32.29668759643555C112.40120000488281,33.114287596435545,104.35619000488282,35.234787596435545,103.15819500488281,40.291087596435545C101.86320000488281,45.75951759643554,105.56319000488281,50.78471759643555,111.0312000048828,52.08011759643554Z" fill-rule="evenodd" fill="#515151" fill-opacity="1"/></g><g><path d="M124.52815810546875,53.772969989013674C124.09915810546875,54.243469989013676,123.32925810546875,54.51896998901367,122.20025810546875,54.50896998901367C121.08215810546875,54.49896998901367,119.69415810546874,54.207469989013674,118.14625810546875,53.64636998901367C115.05515810546875,52.52526998901367,111.42215810546875,50.36186998901367,108.20820810546874,47.42696998901367C104.95620810546875,44.456669989013676,102.23119810546875,41.623569989013674,100.61520810546875,39.00988998901367C98.99820710546875,36.393089989013674,98.56220210546876,34.12058998901367,99.63420110546875,32.16328998901367C100.18020810546875,31.16568998901367,100.91320810546875,30.573085989013673,101.74319810546875,30.305686989013672C102.58120810546875,30.03588868901367,103.56920810546875,30.08128738901367,104.64320810546874,30.458587989013672C106.80019810546875,31.21638998901367,109.20915810546875,33.28558998901367,111.12515810546876,36.470589989013675C114.51515810546874,42.10696998901367,118.00915810546874,44.70386998901367,120.82925810546875,46.800369989013674C121.30915810546875,47.15716998901367,121.77015810546875,47.49956998901367,122.20715810546875,47.83996998901367C123.65615810546875,48.96846998901367,124.48415810546875,50.22296998901368,124.81615810546876,51.31386998901367C125.15315810546875,52.41716998901367,124.97215810546875,53.28766998901367,124.52815810546875,53.772969989013674Z" fill="#FFFFFF" fill-opacity="1"/><path d="M125.29455810546875,51.16826998901367L125.29435810546875,51.16786998901367Q124.67295810546875,49.126569989013674,122.51445810546875,47.44556998901368Q122.08065810546876,47.10766998901367,121.15245810546875,46.417669989013675L121.13995810546875,46.40836998901367L121.12755810546875,46.39916998901367L121.12565810546874,46.39776998901367Q118.16495810546874,44.19666998901367,116.53975810546875,42.604769989013676Q113.76085810546876,39.882679989013674,111.55365810546876,36.21284998901367Q110.11875810546874,33.82760998901367,108.31087810546875,32.184389989013674Q106.57624810546875,30.60775098901367,104.80892810546875,29.98685098901367Q103.03626810546875,29.364105989013673,101.58987810546876,29.829775989013672Q100.07410810546875,30.31810998901367,99.19566610546875,31.92310998901367Q97.52886810546875,34.96640998901367,100.18992810546875,39.27282998901367Q102.33137810546874,42.736369989013674,107.87104810546874,47.79616998901368Q110.24785810546875,49.96656998901367,112.96055810546875,51.64226998901367Q115.52985810546875,53.229369989013676,117.97585810546875,54.11646998901367Q120.39365810546875,54.99286998901367,122.19575810546876,55.00896998901367Q124.06275810546875,55.02546998901367,124.89705810546874,54.11046998901367Q125.86865810546875,53.04856998901367,125.29455810546875,51.16826998901367ZM121.89995810546876,48.234469989013675Q123.80885810546874,49.72106998901367,124.33785810546875,51.45946998901367L124.33805810546875,51.45996998901367Q124.74565810546875,52.79456998901367,124.15925810546875,53.43546998901367Q123.62485810546875,54.02156998901367,122.20465810546875,54.00896998901367Q120.57365810546875,53.99446998901367,118.31655810546874,53.176269989013676Q115.96775810546875,52.324369989013675,113.48605810546874,50.79146998901367Q110.85305810546875,49.16506998901367,108.54536810546875,47.05776998901367Q103.10866810546875,42.09196998901367,101.04047810546875,38.74694998901367Q98.68564010546875,34.93607998901367,100.07273810546874,32.40346998901367Q100.76001810546875,31.147749989013672,101.89652810546875,30.781597989013672Q103.02235810546875,30.419132989013672,104.47747810546875,30.930324989013673Q106.05360810546875,31.484049989013673,107.63827810546874,32.92438998901367Q109.33755810546874,34.46887998901367,110.69675810546875,36.72832998901367Q112.96975810546876,40.50766998901367,115.84005810546876,43.31906998901367Q117.51375810546875,44.95856998901367,120.52905810546875,47.20026998901368L120.53085810546875,47.20166998901367L120.54335810546876,47.21096998901368L120.55585810546876,47.22016998901367Q121.47505810546875,47.90346998901367,121.89995810546876,48.234469989013675Z" fill-rule="evenodd" fill="#515151" fill-opacity="1"/></g><g mask="url(#master_svg1_69_1242)"><g><g><path d="M117.2441712524414,52.66293336181641C113.52817125244141,56.605533361816406,107.36619125244141,56.818933361816406,103.4811912524414,53.15763336181641C99.5971982524414,49.496333361816404,99.44620125244141,43.33268336181641,103.1621912524414,39.39008336181641C106.8782012524414,35.44748736181641,113.04017125244141,35.234183361816406,116.92417125244141,38.89538336181641C120.8091712524414,42.556683361816404,120.9601712524414,48.720433361816404,117.2441712524414,52.66293336181641Z" fill="#FFFFFF" fill-opacity="1"/><path d="M119.59417125244141,41.83721336181641Q118.77317125244141,39.95083336181641,117.26717125244141,38.53155336181641L117.26707125244141,38.53151336181641Q115.76147125244141,37.11225536181641,113.82997125244141,36.40423336181641Q111.9646712524414,35.720478361816404,109.96244125244141,35.79162736181641Q107.9601912524414,35.862777361816406,106.1305312524414,36.677926361816404Q104.2357412524414,37.52208336181641,102.7983412524414,39.04714336181641Q101.36093425244141,40.572203361816406,100.6302152524414,42.51353336181641Q99.9246032524414,44.38816336181641,99.9718362524414,46.39113336181641Q100.0190672524414,48.394033361816405,100.81175125244141,50.215733361816405Q101.63257125244141,52.102133361816406,103.1382712524414,53.521433361816406Q104.6442912524414,54.940733361816406,106.57602125244141,55.64883336181641Q108.44153125244141,56.3325333618164,110.44383125244141,56.2614333618164Q112.4461712524414,56.19023336181641,114.2758712524414,55.375033361816406Q116.17067125244141,54.53093336181641,117.6080712524414,53.00583336181641Q119.0454712524414,51.48083336181641,119.7761712524414,49.53943336181641Q120.4817712524414,47.664833361816406,120.4344712524414,45.661873361816404Q120.3870712524414,43.65890336181641,119.59417125244141,41.83721336181641ZM113.48577125244141,37.34314336181641Q115.2247712524414,37.9805933618164,116.58127125244141,39.2592233618164L116.58127125244141,39.25926336181641Q117.9380712524414,40.537923361816404,118.67727125244141,42.236303361816404Q119.39197125244141,43.87837336181641,119.4346712524414,45.68550336181641Q119.4774712524414,47.4943333618164,118.84027125244141,49.18723336181641Q118.18017125244141,50.9408333618164,116.8803712524414,52.31993336181641Q115.58047125244141,53.699033361816404,113.86887125244141,54.46163336181641Q112.21657125244141,55.197733361816404,110.40831125244141,55.26203336181641Q108.6017512524414,55.326233361816406,106.9201512524414,54.70983336181641Q105.18093125244141,54.07243336181641,103.82411125244141,52.79373336181641Q102.4677112524414,51.51503336181641,101.72870125244141,49.816733361816404Q101.0141712524414,48.174633361816404,100.97155825244141,46.367533361816406Q100.9289032524414,44.55871336181641,101.5661112524414,42.86581336181641Q102.22619125244141,41.112153361816404,103.5260512524414,39.7330333618164Q104.82590125244141,38.3539133618164,106.53749125244141,37.59137336181641Q108.1897712524414,36.85525036181641,109.99795125244141,36.790996361816404Q111.8043712524414,36.726804361816406,113.48577125244141,37.34314336181641Z" fill-rule="evenodd" fill="#515151" fill-opacity="1"/></g><g><path d="M106.82619013427734,36.39718640014648L106.81020013427734,36.76178740014648C109.66520013427734,37.268191400146485,115.37820013427735,39.35248140014649,115.38320013427735,43.638491400146485C115.38920013427735,48.99599140014649,107.94320013427735,52.970891400146485,100.91819713427735,47.098291400146486C100.57619513427734,46.81259140014649,100.26019313427734,46.566391400146486,99.96920013427734,46.35669140014649C100.02119443427735,48.98769140014649,101.08220013427734,51.58579140014648,103.13519013427734,53.52149140014649C107.22520013427734,57.376091400146485,113.70420013427734,57.14529140014648,117.60620013427734,53.00589140014648C121.50720013427734,48.86659140014648,121.35420013427735,42.38609140014648,117.26420013427735,38.531491400146486C114.39020013427734,35.822387700146486,110.33720013427734,35.131286400146486,106.82619013427734,36.39718640014648Z" fill-rule="evenodd" fill="#515151" fill-opacity="1"/></g><g><path d="M109.377196640625,44.046185549316405C109.685196640625,43.740985549316406,109.688196640625,43.24358754931641,109.383196640625,42.93518854931641C109.078196640625,42.62678904931641,108.580200640625,42.62408824931641,108.272193640625,42.92928654931641C107.964195240625,43.234386549316405,107.961196940625,43.73168554931641,108.266197640625,44.040185549316405C108.571197640625,44.348585549316404,109.068196640625,44.35128554931641,109.377196640625,44.046185549316405Z" fill="#515151" fill-opacity="1"/></g><g><path d="M110.01519771728516,39.7623863684082C110.22619671728516,39.675888068408206,110.46719371728516,39.7768859684082,110.55419971728516,39.9880868684082C111.08519271728515,41.2839938684082,112.01019271728515,42.30088386840821,112.38820271728515,42.6311838684082C112.56019271728516,42.781383868408206,112.57819271728516,43.042393868408205,112.42820271728516,43.2142838684082C112.27820271728515,43.3860938684082,112.01619271728515,43.4036838684082,111.84520271728516,43.2534838684082C111.39319271728516,42.85868386840821,110.37919571728516,41.74138386840821,109.78919981728515,40.301486868408205C109.70219421728515,40.0902858684082,109.80319981728516,39.8489878684082,110.01519771728516,39.7623863684082Z" fill-rule="evenodd" fill="#515151" fill-opacity="1"/></g><g><path d="M104.89219603027344,41.4523855493164C105.20019603027343,41.14728554931641,105.20319603027343,40.649887549316404,104.89819603027344,40.341487549316405C104.59319603027343,40.03298564931641,104.09619903027344,40.030387849316405,103.78719303027344,40.335487549316404C103.47919463027344,40.6405865493164,103.47619633027344,41.137985549316404,103.78119703027343,41.4463855493164C104.08619703027344,41.75478554931641,104.58419603027343,41.75748554931641,104.89219603027344,41.4523855493164Z" fill="#515151" fill-opacity="1"/></g><g><path d="M116.42519338134765,51.26288597290039C117.62219838134766,52.39098597290039,119.50719838134765,52.335285972900394,120.63519838134766,51.138385972900394C121.76318838134766,49.94148597290039,121.70819838134766,48.05658597290039,120.51118838134765,46.92848597290039C119.31419838134765,45.80028897290039,117.42919838134766,45.855987972900394,116.30119338134766,47.05288697290039C115.17319538134765,48.24978597290039,115.22819538134766,50.13468597290039,116.42519338134765,51.26288597290039Z" fill="#FFFFFF" fill-opacity="1"/></g><g mask="url(#master_svg2_69_1251)"><g><g><path d="M114.1201945288086,44.99488703613281C111.85619352880859,47.397487036132816,111.9671935288086,51.18098703613281,114.3701945288086,53.445587036132814C116.77319452880859,55.71018703613281,120.55619452880859,55.59838703613281,122.82115452880859,53.19578703613281C125.0851545288086,50.793187036132814,124.9741545288086,47.00968703613281,122.57115452880859,44.745087036132816C120.17260452880859,42.48464503613281,116.3990745288086,42.59188603613281,118.4746845288086,49.07445703613281C118.47265452880859,49.07393703613281,118.47091452880859,49.073657036132815,118.47019452880859,49.073587036132814Q118.46920452880859,49.073587036132814,118.4681945288086,49.07378703613281C118.4672045288086,49.07398703613281,118.4661945288086,49.074487036132815,118.46320452880859,49.075587036132816C118.46118452880859,49.07668703613281,118.45819452880859,49.07818703613281,118.4562045288086,49.079787036132814C118.45573452880859,49.08004703613281,118.4553445288086,49.080287036132816,118.45483452880859,49.080727036132814L114.1201945288086,44.99488703613281Z" fill="#515151" fill-opacity="1"/></g></g></g></g></g><g><path d="M135.66619905273438,29.231887739013672C137.03520405273437,26.48708873901367,148.41815405273437,31.58788873901367,151.80215405273438,36.01538873901367C155.18615405273437,40.44288873901367,153.28515405273438,46.758188739013676,149.91015405273438,45.69208873901367C143.21521405273438,43.577288739013675,142.34120405273438,38.98868873901367,141.95919405273438,36.21688873901367C140.76120405273437,34.36468873901367,134.29620405273437,31.97658873901367,135.66619905273438,29.231887739013672Z" fill="#FFFFFF" fill-opacity="1"/><path d="M141.48103405273437,36.407068739013674Q141.03188405273437,35.83137873901367,139.06559405273438,34.50928873901367Q136.80805405273438,32.99136873901367,136.00531705273437,32.137908739013675Q134.4710540527344,30.50670873901367,135.21883205273437,29.00858773901367Q135.86671705273437,27.709602739013672,138.35014405273438,28.014966739013673Q140.37153405273438,28.26351973901367,143.17680405273438,29.47499873901367Q145.91685405273438,30.658298739013674,148.32595405273437,32.28743873901367Q150.92615405273438,34.04582873901367,152.19945405273438,35.711758739013675Q153.47725405273437,37.38356873901367,153.89865405273437,39.444988739013674Q154.28235405273438,41.32158873901367,153.87735405273438,43.02918873901367Q153.47005405273438,44.74648873901367,152.42985405273438,45.63298873901367Q151.24905405273438,46.63938873901367,149.7595540527344,46.16888873901367Q145.1883740527344,44.72488873901367,143.14380405273437,41.46658873901367Q141.92975405273438,39.531888739013674,141.48103405273437,36.407068739013674ZM142.4393540527344,36.03859873901367L142.37903405273437,35.94533873901367Q142.05344405273436,35.44195873901367,141.22892405273438,34.805688739013675Q140.75717405273437,34.44163873901367,139.62357405273437,33.67942873901367Q137.45939405273438,32.22427873901367,136.73373405273438,31.452778739013674Q135.67717905273437,30.32945873901367,136.11356605273437,29.45518773901367Q136.44614405273438,28.78838073901367,138.22810405273438,29.007491739013673Q140.10693405273437,29.238514739013674,142.78034405273436,30.393048739013672Q145.43428405273437,31.53917873901367,147.76575405273437,33.11580873901367Q150.23075405273437,34.78276873901367,151.40495405273438,36.31901873901367Q152.54345405273438,37.80857873901367,152.91895405273436,39.64528873901367Q153.25835405273438,41.305688739013675,152.9043540527344,42.79848873901367Q152.57245405273437,44.19758873901367,151.78125405273437,44.87188873901367Q151.02205405273438,45.51898873901367,150.06085405273438,45.21528873901367Q145.8400540527344,43.88208873901367,143.99085405273436,40.93508873901367Q142.86744405273438,39.14478873901367,142.45451405273437,36.148628739013674L142.4393540527344,36.03859873901367Z" fill-rule="evenodd" fill="#515151" fill-opacity="1"/></g><g><path d="M148.98319922851562,30.605388641357422L155.61520922851562,33.12718864135742L157.27620922851563,45.59248864135742L148.98319922851562,47.57868864135742L145.50820922851562,35.54778864135742L148.98319922851562,30.605388641357422Z" fill="#FFFFFF" fill-opacity="1"/></g><g><path d="M125.99020603027344,153.290888671875C128.55619603027344,149.923888671875,129.65420603027343,147.295898671875,130.43820603027345,144.910888671875C127.01719603027344,146.094898671875,122.53620603027343,148.521898671875,120.56320603027343,151.968888671875C119.14720203027343,154.440888671875,119.12220803027344,157.521888671875,120.56320603027343,157.622888671875C122.00421603027344,157.722888671875,124.29720603027344,155.511888671875,125.99020603027344,153.290888671875Z" fill="#FFFFFF" fill-opacity="1"/></g><g><path d="M129.61702353515625,145.74529940429687Q127.25412353515625,146.6712994042969,125.23032353515626,148.00843940429687Q122.29202353515625,149.94978940429687,120.99402353515624,152.21738940429688Q119.99372353515625,153.96368940429687,119.98882353515626,155.68648940429688Q119.98672353515624,156.4110894042969,120.19652353515625,156.81328940429688Q120.34962353515625,157.10688940429688,120.59482353515625,157.12408940429688Q121.39982353515626,157.17998940429686,122.85592353515625,155.94578940429687Q124.20862353515625,154.79928940429687,125.58952353515625,152.98778940429688Q127.31932353515626,150.71808940429688,128.43292353515625,148.50766940429688Q129.07132353515624,147.24044940429687,129.61702353515625,145.74529940429687ZM130.04152353515624,144.51917940429686Q127.12612353515625,145.55735940429688,124.67902353515625,147.17409940429687Q121.54232353515624,149.24658940429688,120.12632353515625,151.72038940429687Q118.99452353515625,153.69628940429686,118.98882353515626,155.68358940429687Q118.98602353515625,156.65478940429688,119.30982353515626,157.27568940429688Q119.72162353515625,158.06538940429687,120.52562353515626,158.1216894042969Q121.73622353515626,158.2056894042969,123.50252353515626,156.70868940429688Q124.93812353515625,155.49198940429687,126.38482353515624,153.59398940429688Q128.17072353515624,151.25058940429687,129.32602353515625,148.95760940429687Q130.15572353515626,147.31073940429687,130.83132353515626,145.30403940429687Q134.89612353515625,143.93789940429687,139.15822353515625,143.93789940429687Q141.06472353515625,143.93789940429687,143.81132353515625,144.29058940429687Q145.99072353515623,144.57043940429688,147.13382353515624,144.55435940429686Q148.99182353515624,144.52821940429686,151.06922353515625,143.91759940429688Q151.94332353515625,143.66053940429688,153.78042353515625,142.64823940429687Q155.15972353515625,141.88823940429688,155.77432353515627,141.65137940429688Q156.68382353515625,141.30083940429688,157.17172353515625,141.45707940429688Q158.85392353515624,141.99546940429687,162.68802353515625,147.52593940429688Q166.22142353515625,152.6225894042969,169.97352353515623,159.62808940429687Q173.72322353515625,166.62888940429687,175.47852353515626,171.40368940429687Q176.37942353515626,173.85388940429686,176.51072353515625,175.14608940429687Q176.57052353515627,175.73418940429687,176.46762353515624,175.98448940429688Q176.43832353515626,176.05588940429686,176.37722353515625,176.05588940429686Q171.11062353515626,176.05588940429686,157.12402353515625,176.22828940429687Q127.85552353515625,176.58878940429688,104.96022353515625,176.58888940429688Q99.05664353515625,176.58888940429688,95.81844353515625,175.54258940429688Q92.55642353515626,174.48848940429687,91.35744353515625,172.16438940429688Q90.14899253515625,169.8219894042969,90.73364453515624,165.66498940429688Q91.29389353515624,161.68148940429688,93.64445353515625,155.17378940429688Q96.50064353515626,147.26667940429687,99.77254353515625,139.43564740429687L98.84984353515625,139.05013140429688Q95.56846353515625,146.9038394042969,92.70393353515625,154.8339894042969Q90.31809953515625,161.4393894042969,89.74339053515625,165.52568940429688Q89.11443153515626,169.99768940429686,90.46873253515625,172.62288940429687Q91.85669353515625,175.31328940429688,95.51097353515625,176.49408940429686Q98.89907353515625,177.58888940429688,104.96022353515625,177.58888940429688Q127.86192353515625,177.58878940429688,157.13632353515624,177.22818940429687Q171.11672353515627,177.05588940429686,176.37722353515625,177.05588940429686Q177.10832353515625,177.05588940429686,177.39252353515624,176.36478940429686Q177.59082353515623,175.88248940429688,177.50562353515625,175.04488940429687Q177.36152353515627,173.62728940429687,176.41712353515624,171.05858940429687Q174.63762353515625,166.2183894042969,170.85512353515625,159.15598940429686Q167.07602353515625,152.09998940429688,163.50982353515624,146.95618940429688Q159.48222353515627,141.1465794042969,157.47662353515625,140.50470940429688Q156.65302353515625,140.24098040429686,155.41462353515624,140.71828940429688Q154.73662353515624,140.97961940429687,153.29782353515625,141.77239940429686Q151.55642353515626,142.73197940429688,150.78722353515624,142.9581894042969Q148.84092353515626,143.53024940429688,147.11972353515625,143.55445940429686Q146.04762353515625,143.56953940429688,143.93872353515624,143.29872940429686Q141.12862353515624,142.93789940429687,139.15822353515625,142.93789940429687Q135.10762353515625,142.93789940429687,131.22972353515627,144.12585940429688Q131.79552353515624,142.41922940429689,132.28902353515625,140.64055940429688L131.32542353515623,140.37323940429687Q130.73572353515624,142.49886940429687,130.04152353515624,144.51917940429686Z" fill-rule="evenodd" fill="#515151" fill-opacity="1"/></g><g><path d="M139.2762590942383,120.74389040527343Q142.6392590942383,140.20689040527344,126.94425909423828,141.77989040527342C115.40615909423828,142.93689040527343,86.16895909423829,137.23289040527345,73.18415909423828,133.99489040527345C77.90185909423829,146.81789040527343,82.79005909423827,173.85689040527342,80.17675909423828,176.15589040527345C76.84505909423828,179.08789040527344,32.62715909423828,177.91089040527345,24.21459909423828,176.15589040527345C15.801999094238282,174.40189040527343,38.03875909423828,164.69789040527343,39.67065909423828,161.49989040527345C42.655559094238285,155.65089040527343,34.19215909423828,140.31889040527344,33.92075909423828,116.04489040527343C33.64945909423828,91.77088040527343,52.10265909423828,91.18588040527344,68.38485909423828,94.40289040527344C81.41075909423827,96.97688040527343,110.02215909423828,112.73289040527344,120.94815909423828,121.26089040527344L139.2762590942383,120.74389040527343Z" fill="#FFFFFF" fill-opacity="1"/><path d="M121.11355909423828,120.75599040527344Q117.01925909423828,117.57979040527344,110.21925909423828,113.40249040527344Q103.31465909423828,109.16099040527344,95.68645909423829,105.15639040527344Q87.57665909423828,100.89904040527344,80.75075909423828,98.02528040527343Q73.19275909423828,94.84327040527344,68.48185909423827,93.91236840527344Q53.219759094238285,90.89691040527343,44.75165909423828,94.45377040527343Q33.23355909423828,99.29173040527344,33.42085909423828,116.05049040527344Q33.51565909423828,124.52709040527344,34.99105909423828,133.45449040527345Q35.84455909423828,138.61859040527344,37.81815909423828,147.02479040527345Q39.32145909423828,153.42769040527344,39.63225909423828,155.83619040527344Q40.10995909423828,159.53919040527342,39.225359094238286,161.27259040527343Q38.88915909423828,161.93149040527345,36.79285909423828,163.36939040527344Q35.46815909423828,164.27799040527344,32.001099094238285,166.39839040527343Q28.79998909423828,168.35619040527342,27.32347909423828,169.32839040527344Q24.82233909423828,170.97539040527346,23.53163909423828,172.13939040527345Q21.84083509423828,173.66429040527345,21.82052209423828,174.75599040527345Q21.79435909423828,176.16199040527346,24.11249909423828,176.64529040527344Q27.25616909423828,177.30129040527345,36.01035909423828,177.80779040527344Q44.53715909423828,178.30109040527344,54.095159094238284,178.41349040527342Q64.39835909423829,178.53449040527343,71.23905909423829,178.13879040527343Q79.20405909423829,177.67799040527342,80.50705909423829,176.53129040527344Q81.62745909423828,175.54559040527346,81.34935909423828,170.37469040527344Q81.10455909423828,165.82289040527343,79.92245909423829,158.93729040527344Q78.77075909423829,152.22969040527343,77.11995909423828,145.54899040527343Q75.54445909423828,139.17329040527343,73.97075909423828,134.70409040527343Q78.94885909423829,135.92139040527343,85.33935909423829,137.22989040527344Q93.17515909423828,138.83429040527344,100.52655909423828,140.02899040527345Q119.18135909423827,143.06079040527345,126.99425909423829,142.27739040527342Q135.09425909423828,141.46549040527344,138.30625909423827,135.98729040527343Q141.48125909423828,130.57039040527343,139.7692590942383,120.65879040527344L139.69525909423828,120.23189040527343L121.11355909423828,120.75599040527344ZM120.78245909423828,121.76579040527344L120.96225909423828,121.76069040527344L138.85525909423828,121.25599040527344Q140.36725909423828,130.49489040527345,137.44325909423827,135.48149040527343Q134.48925909423826,140.52119040527344,126.89425909423828,141.28239040527345Q119.21205909423828,142.05269040527344,100.68695909423828,139.04199040527345Q93.35575909423828,137.85049040527343,85.53995909423828,136.25019040527343Q78.58005909423828,134.82509040527344,73.30515909423829,133.50969040527343L72.38885909423828,133.28129040527344L72.71495909423828,134.16749040527344Q74.42805909423828,138.82389040527343,76.14915909423829,145.78889040527343Q77.79135909423829,152.43449040527344,78.93685909423829,159.10649040527343Q80.10915909423828,165.93469040527344,80.35085909423827,170.42839040527343Q80.60295909423829,175.11499040527343,79.84655909423827,175.78049040527344Q78.80215909423828,176.69959040527345,71.18125909423827,177.14049040527345Q64.37515909423828,177.53419040527342,54.10695909423828,177.41359040527345Q44.57225909423828,177.30149040527346,36.06815909423828,176.80939040527343Q27.387869094238283,176.30709040527344,24.31671909423828,175.66639040527343Q22.809601094238282,175.35219040527343,22.82034909423828,174.77459040527344Q22.83259409423828,174.11639040527342,24.20136909423828,172.88199040527343Q25.435669094238282,171.76879040527342,27.873449094238282,170.16359040527345Q29.33595909423828,169.20059040527343,32.522859094238285,167.25149040527344Q36.012159094238285,165.11749040527343,37.358459094238285,164.19399040527344Q39.66435909423828,162.61239040527346,40.11605909423828,161.72719040527343Q41.14125909423828,159.71809040527344,40.62395909423828,155.70829040527343Q40.30675909423828,153.24909040527342,38.79175909423828,146.79619040527342Q36.82565909423828,138.42239040527343,35.977659094238284,133.29139040527343Q34.51465909423828,124.43949040527343,34.42075909423828,116.03929040527343Q34.24095909423828,99.95323040527344,45.13895909423828,95.37574040527343Q53.32545909423828,91.93713040527344,68.28795909423829,94.89340040527344Q72.89875909423827,95.80451040527343,80.36275909423827,98.94693040527343Q87.14945909423828,101.80420040527343,95.22155909423829,106.04189040527343Q102.81985909423828,110.03069040527343,109.69585909423829,114.25459040527343Q116.56695909423829,118.47549040527343,120.64055909423828,121.65499040527344L120.78245909423828,121.76579040527344Z" fill-rule="evenodd" fill="#515151" fill-opacity="1"/></g><g><path d="M131.52420568847657,142.9188865966797C128.41620568847657,145.46189659667968,103.80620568847657,147.9158965966797,95.94520568847656,146.44988659667968L98.69920568847657,139.6368865966797C118.92420568847656,142.4948865966797,126.78420568847656,142.9818865966797,132.15620568847658,140.80189659667968L131.52420568847657,142.9188865966797Z" fill="#515151" fill-opacity="1"/></g><g><path d="M112.97112413574219,126.09682983154296Q111.80592713574218,122.85364983154297,112.38206713574219,119.47903613154297L111.39633013574219,119.31074353154297Q110.77595913574218,122.94442983154296,112.03002013574219,126.43493983154296Q113.19640413574218,129.68138983154296,115.70673413574218,132.10738983154297L116.40166413574218,131.38838983154298Q114.05877413574218,129.12414983154298,112.97112413574219,126.09682983154296Z" fill-rule="evenodd" fill="#515151" fill-opacity="1"/></g><g><path d="M120.64019396972657,84.69008809204101C111.60419396972657,73.71158809204101,101.66619396972656,64.95878809204102,95.13319396972656,60.13518809204101L96.76919396972656,57.918888092041016C103.47020396972655,62.866388092041014,113.57619396972656,71.77288809204101,122.76719396972656,82.93938809204101C131.94619396972655,94.09388809204101,140.30219396972655,107.60888809204101,143.35219396972656,121.76988809204101L140.65919396972657,122.35088809204102C137.74019396972656,108.797888092041,129.68619396972656,95.68188809204102,120.64019396972657,84.69008809204101Z" fill-rule="evenodd" fill="#515151" fill-opacity="1"/></g><g><path d="M139.15121069335936,96.1308826484375L122.79721069335938,109.3259146484375L145.06621069335938,127.1349146484375L153.92721069335937,107.9469146484375C153.79321069335938,104.0188846484375,151.5972106933594,102.6068846484375,148.10021069335937,103.2868846484375L144.9782106933594,100.7908846484375C145.06621069335938,97.2768846484375,142.80321069335938,95.1458816484375,139.15121069335936,96.1308826484375Z" fill="#E6E8EA" fill-opacity="1"/></g><g><path d="M144.7415983642578,100.30302910839843L133.1672933642578,114.13268610839845L133.5585553642578,114.45288610839845L138.3844983642578,118.40188610839843L148.3937983642578,103.22327610839844L144.7415983642578,100.30302910839843ZM134.58310336425782,113.99908610839844L138.1599083642578,116.92588610839843L147.0565983642578,103.43448610839843L144.8807983642578,101.69474310839844L134.58310336425782,113.99908610839844Z" fill-rule="evenodd" fill="#515151" fill-opacity="1"/></g><g><path d="M133.69921396484375,117.02289066162109C131.30920396484376,120.0118906616211,126.94920396484375,120.4968906616211,123.96119396484374,118.1068906616211C120.97219896484376,115.71688066162109,120.48719796484374,111.35688066162109,122.87719396484376,108.36888066162109C125.26719396484376,105.3798826616211,129.62719396484374,104.8948826616211,132.61521396484375,107.28488066162109C135.60421396484375,109.67488066162109,136.08921396484374,114.03488066162109,133.69921396484375,117.02289066162109ZM145.97821396484375,126.8428906616211C143.58821396484376,129.83089066162108,139.22821396484375,130.3168906616211,136.24021396484375,127.92689066162109C133.25121396484374,125.5368906616211,132.76621396484376,121.17689066162109,135.15621396484374,118.1878906616211C137.54621396484376,115.1998806616211,141.90621396484374,114.7148806616211,144.89421396484374,117.1048906616211C147.88321396484375,119.4938906616211,148.36821396484376,123.8538906616211,145.97821396484375,126.8428906616211Z" fill-rule="evenodd" fill="#515151" fill-opacity="1"/></g><g><path d="M123.46119689941406,112.50488470458984L132.66819689941406,110.69588470458984L132.98620689941407,112.31788470458984L123.78019689941407,114.12688470458984L123.46119689941406,112.50488470458984Z" fill-rule="evenodd" fill="#FFFFFF" fill-opacity="1"/></g><g><path d="M135.53919982910156,122.15788458251953L144.74619982910156,120.34888458251953L145.06420982910157,121.97088458251953L135.85819982910155,123.77988458251953L135.53919982910156,122.15788458251953Z" fill-rule="evenodd" fill="#FFFFFF" fill-opacity="1"/></g></g></svg>