<svg xmlns="http://www.w3.org/2000/svg" xmlns:xlink="http://www.w3.org/1999/xlink" fill="none" version="1.1" width="179.943115234375" height="174.016357421875" viewBox="0 0 179.943115234375 174.016357421875"><g><g><path d="M98.6540756225586,40.8945C98.6540756225586,18.5852,116.7390756225586,0.5,139.0480756225586,0.5C161.3580756225586,0.5,179.44307562255858,18.5852,179.44307562255858,40.8945L179.44307562255858,154.596L98.6540756225586,154.596L98.6540756225586,40.8945Z" fill="#FFFFFF" fill-opacity="1"/><path d="M98.1540756225586,40.8945L98.1540756225586,155.096L179.94307562255858,155.096L179.94307562255858,40.8945Q179.9431756225586,32.5747,176.7291756225586,24.9763Q173.6249756225586,17.6373,167.9653756225586,11.9777Q162.3056756225586,6.318,154.9665756225586,3.21389Q147.3679756225586,0,139.0480756225586,-0.000004000000000004Q130.7285756225586,-0.000004000000000004,123.1301756225586,3.21389Q115.7912756225586,6.31799,110.13167562255859,11.9777Q104.4719956225586,17.6375,101.36793562255859,24.9763Q98.1540756225586,32.5748,98.1540756225586,40.8945ZM99.1540756225586,154.096L178.94307562255858,154.096L178.94307562255858,40.8945Q178.9429756225586,32.7775,175.8081756225586,25.3659Q172.7799756225586,18.2065,167.25827562255859,12.6848Q161.7364756225586,7.16303,154.5770756225586,4.1349Q147.1651756225586,1,139.0480756225586,0.999996Q130.9313756225586,0.999996,123.5196756225586,4.13489Q116.3604756225586,7.16302,110.83877562255859,12.6848Q105.31702562255859,18.2066,102.2889356225586,25.3659Q99.1540756225586,32.7776,99.1540756225586,40.8945L99.1540756225586,154.096Z" fill-rule="evenodd" fill="#515151" fill-opacity="1"/></g><g><path d="M134.61311264648438,78.60053151855469C139.79211264648438,79.27193151855468,144.53911264648437,75.62363151855469,145.22011264648438,70.44393151855468L149.58111264648437,37.30023151855469C150.2631126464844,32.11523151855469,146.6141126464844,27.35890151855469,141.42911264648438,26.67550151855469C136.25011264648438,26.004201518554687,131.50411264648437,29.652501518554686,130.82208264648438,34.83213151855469L126.46208264648438,67.97583151855468C125.78007264648437,73.16073151855468,129.42907264648437,77.9170315185547,134.61311264648438,78.60053151855469ZM142.14311264648438,21.212299518554687C142.15111264648436,21.213298518554687,142.15811264648437,21.21429851855469,142.16611264648438,21.21529751855469C150.36911264648438,22.29450151855469,156.14311264648438,29.81890151855469,155.06411264648438,38.021631518554685L150.70311264648439,71.1653315185547C149.62411264648438,79.36723151855469,142.10111264648438,85.14163151855469,133.89911264648438,84.06363151855469C133.89211264648438,84.0626315185547,133.88411264648437,84.0617315185547,133.87711264648436,84.06073151855469C125.67407264648438,82.98153151855469,119.89907864648437,75.45713151855469,120.97908064648438,67.25453151855469L125.33908264648437,34.11073151855469C126.41807264648438,25.908901518554686,133.94111264648438,20.13459751855469,142.14311264648438,21.212299518554687Z" fill-rule="evenodd" fill="#0871F0" fill-opacity="1"/></g><g><path d="M125.02907092285156,46.06359867734375C119.07808092285157,45.38009977734375,113.71908092285156,49.48229677734375,113.05907092285156,55.22599677734375L110.67407992285156,75.99429677734375C110.01407592285156,81.73799677734375,114.30408092285157,86.94739677734376,120.25607092285156,87.63139677734375L146.10107092285156,90.59939677734374C152.05307092285156,91.28339677734374,157.41207092285157,87.18039677734376,158.07207092285157,81.43739677734375L160.45707092285156,60.66919677734375C161.11607092285158,54.92539677734375,156.82707092285156,49.71509677734375,150.87507092285156,49.03169677734375L125.02907092285156,46.06359867734375Z" fill-rule="evenodd" fill="#EAF5FF" fill-opacity="1"/></g><g><path d="M137.74008291503907,66.88439724121093C139.57408291503907,66.45159724121093,141.03811291503905,64.92579724121094,141.29911291503907,62.946297241210935C141.63611291503906,60.38839724121094,139.83607291503907,58.041603241210936,137.27807291503908,57.704597441210936C134.72007291503905,57.36759924121094,132.37307291503907,59.16809724121094,132.03607291503906,61.72599724121094C131.77507291503906,63.70649724121094,132.79507291503907,65.56039724121094,134.45707291503905,66.45289724121093L130.28607191503906,74.08244724121093C129.94908191503907,74.69894724121093,130.33607491503906,75.46174724121093,131.03308091503905,75.55354724121094L138.68707291503907,76.56184724121094C139.38408291503907,76.65364724121093,139.95508291503907,76.01744724121093,139.79008291503905,75.33464724121094L137.74008291503907,66.88439724121093Z" fill-rule="evenodd" fill="#0871F0" fill-opacity="1"/></g><g><path d="M174.49407739257813,76.218903125Q174.49407739257813,76.341603125,174.48805739257813,76.464153125Q174.48203739257812,76.586703125,174.47001739257811,76.708813125Q174.45798739257813,76.830923125,174.43998739257813,76.952293125Q174.42197739257813,77.073663125,174.39804739257812,77.194003125Q174.37410739257814,77.314343125,174.3442973925781,77.433363125Q174.31448739257812,77.552383125,174.27886739257812,77.669803125Q174.24324739257813,77.787213125,174.20191739257814,77.902743125Q174.16057739257812,78.01827312500001,174.11362739257814,78.131633125Q174.06667739257813,78.244993125,174.01421739257813,78.355903125Q173.96175739257814,78.466823125,173.90391739257814,78.575033125Q173.8460873925781,78.683243125,173.78300739257813,78.788493125Q173.71992739257811,78.893733125,173.65176739257814,78.995753125Q173.58359739257813,79.097773125,173.51050739257812,79.196323125Q173.4374173925781,79.294883125,173.35958739257813,79.389723125Q173.28174739257813,79.484573125,173.19934739257812,79.575483125Q173.11695739257812,79.666403125,173.03019739257812,79.753163125Q172.94343739257812,79.839923125,172.8525273925781,79.922323125Q172.76161739257813,80.004723125,172.66677739257813,80.08256312500001Q172.57193739257812,80.160403125,172.47338739257813,80.233493125Q172.37483739257812,80.306583125,172.27281739257813,80.374753125Q172.17079739257812,80.442923125,172.06556739257812,80.506003125Q171.96032739257814,80.569083125,171.85211739257812,80.626923125Q171.74390739257814,80.684763125,171.63299739257812,80.737223125Q171.52208739257813,80.789683125,171.40872739257813,80.836633125Q171.29537739257813,80.883593125,171.17985739257813,80.92492312499999Q171.06432739257812,80.966263125,170.94691739257811,81.001883125Q170.82950739257814,81.037493125,170.71049739257813,81.067313125Q170.59147739257813,81.097123125,170.47113739257813,81.121063125Q170.35080739257813,81.145003125,170.22943739257812,81.163003125Q170.10806739257814,81.181003125,169.98596739257812,81.193033125Q169.86386739257813,81.205063125,169.74131739257814,81.211083125Q169.61876739257812,81.217103125,169.49607739257812,81.217103125Q169.37338739257814,81.217103125,169.25083739257812,81.211083125Q169.12828739257813,81.205063125,169.0061873925781,81.193033125Q168.88408739257812,81.181003125,168.7627173925781,81.163003125Q168.64135739257813,81.145003125,168.52101739257813,81.121063125Q168.40067739257813,81.097123125,168.28166739257813,81.067313125Q168.16264739257812,81.037493125,168.04523739257812,81.001883125Q167.92782739257814,80.966263125,167.81230739257813,80.92492312499999Q167.69677739257813,80.883593125,167.58342739257813,80.836633125Q167.47006739257813,80.789683125,167.3591573925781,80.737223125Q167.24824739257812,80.684763125,167.14003739257814,80.626923125Q167.03182739257812,80.569083125,166.9265873925781,80.506003125Q166.82135739257814,80.442923125,166.71933739257813,80.374753125Q166.61731739257812,80.306583125,166.51877739257813,80.233493125Q166.4202273925781,80.160403125,166.32537739257813,80.08256312500001Q166.23053739257813,80.004723125,166.13962739257812,79.922323125Q166.0487173925781,79.839923125,165.9619573925781,79.753163125Q165.87519739257812,79.666403125,165.7928073925781,79.575483125Q165.71040739257813,79.484573125,165.63256739257812,79.389723125Q165.55473739257812,79.294883125,165.4816463925781,79.196323125Q165.40855739257813,79.097773125,165.34039239257814,78.995753125Q165.27222739257812,78.893733125,165.20915039257812,78.788493125Q165.14607239257813,78.683243125,165.08823539257813,78.575033125Q165.03039739257812,78.466823125,164.97793939257812,78.355903125Q164.92548039257812,78.244993125,164.87852739257812,78.131633125Q164.83157439257812,78.01827312500001,164.7902403925781,77.902743125Q164.74890539257814,77.787213125,164.71328939257813,77.669803125Q164.67767339257813,77.552383125,164.64786139257814,77.433363125Q164.61804939257811,77.314343125,164.5941125925781,77.194003125Q164.57017619257812,77.073663125,164.55217319257812,76.952293125Q164.53417029257812,76.830923125,164.52214409257812,76.708813125Q164.51011799257813,76.586703125,164.50409770257812,76.464153125Q164.49807739257812,76.341603125,164.49807739257812,76.218903125Q164.49807739257812,76.096203125,164.50409770257812,75.973653125Q164.51011799257813,75.851103125,164.52214409257812,75.728993125Q164.53417029257812,75.606883125,164.55217319257812,75.485513125Q164.57017619257812,75.364143125,164.5941125925781,75.243803125Q164.61804939257811,75.123463125,164.64786139257814,75.004443125Q164.67767339257813,74.885413125,164.71328939257813,74.768003125Q164.74890539257814,74.650583125,164.7902403925781,74.535063125Q164.83157439257812,74.419533125,164.87852739257812,74.306173125Q164.92548039257812,74.192813125,164.97793939257812,74.081893125Q165.03039739257812,73.970973125,165.08823539257813,73.862763125Q165.14607239257813,73.754553125,165.20915039257812,73.649313125Q165.27222739257812,73.544073125,165.34039239257814,73.442053125Q165.40855739257813,73.340033125,165.4816463925781,73.241483125Q165.55473739257812,73.142923125,165.63256739257812,73.048083125Q165.71040739257813,72.953233125,165.7928073925781,72.862313125Q165.87519739257812,72.771403125,165.9619573925781,72.684643125Q166.0487173925781,72.597883125,166.13962739257812,72.515483125Q166.23053739257813,72.433083125,166.32537739257813,72.355243125Q166.4202273925781,72.277403125,166.51876739257813,72.204311125Q166.61731739257812,72.131219125,166.71933739257813,72.063051125Q166.82135739257814,71.994883125,166.9265873925781,71.931804125Q167.03182739257812,71.868724125,167.14003739257814,71.810884125Q167.24824739257812,71.753044125,167.3591573925781,71.700584125Q167.47006739257813,71.648123125,167.58342739257813,71.601168125Q167.69677739257813,71.554213125,167.81230739257813,71.512877125Q167.92782739257814,71.471541125,168.04523739257812,71.435924125Q168.16264739257812,71.400306125,168.28166739257813,71.370493125Q168.40067739257813,71.340679125,168.52101739257813,71.316742125Q168.64135739257813,71.292804725,168.7627173925781,71.274801125Q168.88408739257812,71.256797425,169.0061873925781,71.244770825Q169.12828739257813,71.232744225,169.25083739257812,71.226723675Q169.37338739257814,71.220703125,169.49607739257812,71.220703125Q169.61876739257812,71.220703125,169.74131739257814,71.226723675Q169.86386739257813,71.232744225,169.98596739257812,71.244770825Q170.10806739257814,71.256797425,170.22943739257812,71.274801125Q170.35080739257813,71.292804725,170.47113739257813,71.316742125Q170.59147739257813,71.340679125,170.71049739257813,71.370493125Q170.82950739257814,71.400306125,170.94691739257811,71.435924125Q171.06432739257812,71.471541125,171.17985739257813,71.512877125Q171.29537739257813,71.554213125,171.40872739257813,71.601168125Q171.52208739257813,71.648123125,171.63299739257812,71.700584125Q171.74390739257814,71.753044125,171.85211739257812,71.810884125Q171.96032739257814,71.868724125,172.06556739257812,71.931804125Q172.17079739257812,71.994884125,172.27281739257813,72.063051125Q172.37483739257812,72.131219125,172.47338739257813,72.204311125Q172.57192739257812,72.277403125,172.66677739257813,72.355243125Q172.76161739257813,72.433083125,172.8525273925781,72.515483125Q172.94343739257812,72.597883125,173.03019739257812,72.684643125Q173.11695739257812,72.771403125,173.19934739257812,72.862313125Q173.28174739257813,72.953233125,173.35958739257813,73.048083125Q173.4374173925781,73.142923125,173.51050739257812,73.241483125Q173.58359739257813,73.340033125,173.65176739257814,73.442053125Q173.71992739257811,73.544073125,173.78300739257813,73.649313125Q173.8460873925781,73.754553125,173.90391739257814,73.862763125Q173.96175739257814,73.970973125,174.01421739257813,74.081893125Q174.06667739257813,74.192813125,174.11362739257814,74.306173125Q174.16057739257812,74.419533125,174.20191739257814,74.535063125Q174.24324739257813,74.650583125,174.27886739257812,74.768003125Q174.31448739257812,74.885413125,174.3442973925781,75.004443125Q174.37410739257814,75.123463125,174.39804739257812,75.243803125Q174.42197739257813,75.364143125,174.43998739257813,75.485513125Q174.45798739257813,75.606883125,174.47001739257811,75.728993125Q174.48203739257812,75.851103125,174.48805739257813,75.973653125Q174.49407739257813,76.096203125,174.49407739257813,76.218903125Z" fill="#E6E8EA" fill-opacity="1"/></g><g><path d="M77.59418461303711,38.85309981946289L77.55048461303711,38.85049819946289L77.51338461303712,38.87369919946289C77.1443846130371,39.103401199462894,76.68108461303711,39.33940119946289,76.1555846130371,39.60720019946289C75.83088461303711,39.772701199462894,75.48248461303712,39.95029819946289,75.11768461303711,40.14599819946289C74.17088461303712,40.65399819946289,73.1336846130371,41.27509819946289,72.18568461303711,42.09719819946289C70.30378461303711,43.72909819946289,68.78108461303711,46.14689819946289,68.98368461303711,50.02029819946289C66.79108461303711,50.37139819946289,63.56388461303711,51.364498199462886,60.84138461303711,53.23609819946289C58.06498461303711,55.14479819946289,55.80057911303711,57.97769819946289,55.71788406403711,61.98139819946289L55.71688461303711,62.03369819946289L55.75068281303711,62.07349819946289C60.01368461303711,67.0851981994629,73.85698461303711,74.49439819946289,95.25808461303711,64.41499819946289L95.33608461303712,64.3780981994629L95.3370846130371,64.2915981994629C95.3520846130371,62.590098199462886,94.9280846130371,59.96339819946289,93.60808461303711,57.59879819946289C92.30108461303712,55.25979819946289,90.11508461303711,53.17459819946289,86.6118846130371,52.50459819946289C86.98758461303711,50.32679819946289,86.99558461303711,47.10029819946289,85.8150846130371,44.32589819946289C85.2115846130371,42.90759819946289,84.29618461303711,41.60459819946289,82.9580846130371,40.62299819946289C81.61948461303712,39.64099919946289,79.86538461303711,38.98619819946289,77.59418461303711,38.85309981946289Z" fill-rule="evenodd" fill="#515151" fill-opacity="1"/></g><g><path d="M21.503415798339844,25.95367990234375Q55.385980798339844,48.79489990234375,63.58928079833984,54.05339990234375L65.20828079833984,51.52779990234375Q57.03428079833984,46.288099902343745,23.180345798339843,23.46611990234375L21.503415798339844,25.95367990234375Z" fill-rule="evenodd" fill="#EE2F2F" fill-opacity="1"/></g><g><path d="M101.219046875,171.58476235961913C93.505046875,173.41376235961914,81.381546875,173.97276235961914,72.161646875,173.11776235961915C69.036046875,172.88276235961914,62.508246875,172.08376235961913,61.401846875,170.76476235961914C60.018846875,169.11776235961915,57.723646875,163.99776235961914,57.458846875,158.84776235961914C57.194046875,153.69876235961914,59.491546875,135.77476235961913,61.224746875,131.33976235961916C58.805446875,130.66276235961914,53.139146875,128.22676235961916,49.105346875,126.09576235961914C47.160346875,125.06776235961914,42.901346875,122.81076235961915,37.777646875,119.80776235961915C38.035846875,126.52476235961915,37.825546875,132.76376235961914,36.704046875,137.95076235961915C35.412546875,143.92376235961913,32.949846875,149.25276235961914,30.883646875,154.01276235961913C29.129146875,158.05476235961913,30.534246875,160.49776235961914,34.154946875,163.60176235961913C36.721246875,165.80176235961915,41.038946875,166.55676235961914,43.370146875,168.00676235961913C43.891346875,168.35676235961915,44.882646875,169.23176235961915,44.905346875,170.15276235961915C44.918146875,170.67076235961915,44.028146875,171.15076235961914,42.781046875,171.55376235961913C41.255246875,172.04676235961915,39.194746875,172.42376235961913,37.599046875,172.61076235961914C28.228146875,173.71376235961915,8.053376875,174.25076235961913,1.627976875,170.88176235961913C0.9793808749999999,170.54176235961913,-0.050919124999999954,169.86976235961913,0.853680875,164.38076235961915C2.562376875,154.01276235961913,8.492376875,137.16276235961914,9.311776875,132.32076235961915C10.336076875,126.26776235961914,8.147776875,120.40076235961914,6.890676875,115.60576235961913C5.633576875,110.80976235961914,3.298476875,92.93036235961914,6.890676875,82.77666235961914C7.379076875,81.39606235961914,7.982476875,79.91566235961913,8.702076875,78.36446235961914C12.048546875,71.15146235961915,17.910346875,62.40856235961914,26.430146875,55.06156235961914C16.104346874999997,47.68766235961914,3.286276875,36.77806235961914,2.330876875,27.06496235961914C1.375480875,17.35186235961914,10.185976875,6.446100359619141,18.636946875,6.8972988596191405C27.275246875,7.358499359619141,47.957546875,19.78586235961914,61.851346875,35.72856235961914C66.664546875,28.83486235961914,76.484246875,27.09276235961914,82.548146875,30.44956235961914C86.133646875,32.43446235961914,83.267746875,34.94476235961914,82.051246875,35.713062359619144C81.078046875,36.32766235961914,70.277346875,48.16016235961914,65.269746875,53.35966235961914C70.767646875,56.82056235961914,83.026446875,63.35306235961914,86.743546875,73.29646235961914C88.034446875,76.74966235961914,88.123946875,78.25086235961913,88.371746875,81.40976235961914C88.907846875,88.24536235961914,90.939046875,102.95536235961914,90.939046875,105.35236235961914C93.264046875,102.07536235961913,95.632046875,99.52236235961914,100.321046875,94.69336235961914C105.010046875,89.86536235961914,108.810046875,82.30396235961913,110.256046875,77.74916235961913C111.591046875,73.54306235961914,112.257046875,69.66296235961914,114.724046875,70.27956235961915C117.101046875,70.87386235961914,116.767046875,80.77736235961915,116.164046875,85.62086235961914C120.413046875,85.28686235961914,131.766046875,85.33706235961914,138.849046875,87.24636235961914C145.932046875,89.15536235961915,147.088046875,91.61636235961915,146.987046875,92.21936235961914C146.887046875,92.82236235961913,145.631046875,94.73036235961914,136.790046875,94.42936235961913C137.097046875,95.44236235961914,136.752046875,97.60836235961914,132.908046875,98.16836235961914C134.945046875,99.40936235961914,135.104046875,100.10936235961914,135.072046875,100.84136235961914C135.040046875,101.57236235961913,134.626046875,102.84536235961914,130.140046875,103.41836235961914C130.765046875,104.36436235961914,131.588046875,105.79236235961915,127.707046875,107.05276235961914C123.825046875,108.31376235961915,118.096046875,107.42276235961914,117.743046875,107.38976235961914C115.870046875,113.65676235961914,110.516046875,126.11776235961914,101.941046875,132.22276235961914C96.584046875,136.03576235961913,90.029046875,136.17176235961915,87.717846875,136.17176235961915C88.384746875,149.78476235961915,87.972746875,157.02376235961913,89.944046875,160.64276235961913C92.696046875,165.69576235961915,110.289046875,169.43476235961913,101.219046875,171.58476235961913Z" fill="#FFFFFF" fill-opacity="1"/></g><g><path d="M67.27697960662842,54.59169931030273C66.54307960662842,54.14479931030273,65.86887960662841,53.73429931030273,65.27397960662842,53.35979931030273C58.58277960662842,49.14779931030273,47.68347960662842,41.787099310302736,37.614079606628415,34.98689931030273C34.51227960662842,32.892199310302736,31.48927960662842,30.850599310302734,28.692179606628418,28.970699310302734C21.58817960662842,34.61469931030273,20.262379606628418,43.771199310302734,19.80707960662842,50.052299310302736C22.03797960662842,51.84639931030273,24.289879606628418,53.53029931030274,26.43437960662842,55.061699310302735C17.91447960662842,62.40859931030273,12.052779606628418,71.15149931030274,8.706379606628417,78.36449931030273C6.4614796066284175,83.20319931030274,5.907379606628418,85.34439931030273,5.271479606628418,90.37039931030273C5.271479606628418,98.16939931030274,30.587479606628417,104.89639931030274,55.38427960662842,91.55039931030274Q55.40127960662842,91.95239931030272,61.63607960662842,95.35739931030274Q61.85127960662842,100.50739931030273,61.868779606628415,100.84139931030273C73.71047960662841,100.84139931030273,85.95717960662842,95.02239931030273,89.26407960662841,89.72239931030273C89.21907960662841,89.32139931030274,89.16807960662842,88.87139931030273,89.11487960662842,88.39239931030274C88.84367960662841,85.99139931030274,88.48887960662842,82.85039931030273,88.37587960662842,81.40979931030273C88.36927960662842,81.32579931030273,88.36287960662841,81.24299931030274,88.35647960662841,81.16129931030274C88.12247960662842,78.16969931030273,88.00427960662842,76.65799931030273,86.74767960662842,73.29649931030274C83.43287960662842,64.42919931030274,73.32507960662842,58.274399310302734,67.27697960662842,54.59169931030273ZM61.49197960662842,82.97019931030273L55.38797960662842,91.53839931030274L61.63607960662842,95.35739931030274C61.49447960662842,91.36739931030274,61.493379606628416,87.70739931030273,61.49217960662842,83.68359931030272C61.492079606628415,83.44709931030273,61.492079606628415,83.20929931030273,61.49197960662842,82.97019931030273Z" fill-rule="evenodd" fill="#E6E8EA" fill-opacity="1"/></g><g><path d="M66.057246875,53.26096235961914Q66.625546875,53.61206235961914,67.533146875,54.16476235961914Q70.820146875,56.16626235961914,72.678146875,57.40516235961914Q75.896946875,59.55126235961914,78.355046875,61.61726235961914Q84.998746875,67.20106235961914,87.211946875,73.12146235961914Q88.090846875,75.47246235961914,88.423146875,77.27696235961913Q88.643746875,78.47436235961914,88.850746875,81.12216235961914L88.870246875,81.37066235961915Q89.135546875,84.75276235961914,90.340646875,94.88296235961914Q91.118546875,101.42186235961914,91.345546875,103.95006235961914Q92.708446875,102.14086235961913,94.369946875,100.27266235961915Q96.147446875,98.27396235961913,99.962346875,94.34506235961913Q103.175046875,91.03736235961914,106.068046875,85.87436235961914Q108.567046875,81.41576235961914,109.779046875,77.59796235961915Q109.984046875,76.95316235961914,110.356046875,75.69696235961914Q111.325046875,72.42816235961914,111.939046875,71.34676235961913Q113.072046875,69.35146235961915,114.845046875,69.79456235961914Q116.796046875,70.28226235961914,117.061046875,76.33496235961914Q117.247046875,80.58286235961914,116.732046875,85.07866235961914Q120.773046875,84.81266235961914,126.468046875,85.09306235961914Q134.192046875,85.47326235961914,138.979046875,86.76366235961915Q143.668046875,88.02736235961915,145.924046875,89.83216235961915Q146.776046875,90.51346235961914,147.184046875,91.20126235961914Q147.558046875,91.83226235961914,147.480046875,92.30116235961914Q147.293046875,93.43006235961914,145.336046875,94.13396235961915Q142.723046875,95.07326235961914,137.388046875,94.94696235961914Q137.440046875,95.88276235961914,136.812046875,96.75986235961913Q135.987046875,97.91316235961914,134.169046875,98.41756235961914Q134.852046875,98.93976235961914,135.178046875,99.41216235961915Q135.608046875,100.03656235961914,135.572046875,100.86326235961914Q135.526046875,101.90536235961915,134.568046875,102.59486235961914Q133.440046875,103.40786235961914,130.929046875,103.81026235961914Q131.294046875,104.62856235961914,131.090046875,105.26916235961914Q130.660046875,106.61926235961914,127.861046875,107.52776235961915Q124.247046875,108.70176235961914,118.099046875,107.93776235961914Q116.211046875,114.08276235961914,112.790046875,120.11376235961914Q108.034046875,128.49876235961915,102.231046875,132.62976235961912Q96.722046875,136.55076235961914,88.242246875,136.66776235961913Q88.403446875,140.08876235961915,88.578446875,145.48476235961914Q88.805146875,152.47576235961915,89.055346875,154.93476235961913Q89.434846875,158.66276235961914,90.383146875,160.40276235961915Q91.099646875,161.71876235961915,93.601046875,163.27476235961913Q95.119546875,164.21976235961915,98.587446875,165.93176235961914Q100.789046875,167.01876235961913,101.684046875,167.52076235961914Q103.205046875,168.37376235961915,103.795046875,169.01476235961914Q104.731046875,170.03276235961914,103.972046875,170.89476235961914Q103.359046875,171.59076235961913,101.334046875,172.07076235961915Q95.580446875,173.43576235961913,87.280446875,173.85676235961915Q79.164046875,174.26876235961913,72.124146875,173.61576235961914Q68.840346875,173.36876235961915,65.934946875,172.83976235961913Q61.867646875,172.09776235961914,61.018946875,171.08576235961914Q59.738946875,169.56176235961914,58.541546875,166.29176235961913Q57.144846875,162.47676235961913,56.959546875,158.87276235961914Q56.751946875,154.83776235961915,58.096946875,144.75976235961915Q59.374146875,135.18976235961915,60.573646875,131.66676235961916Q58.749446875,131.09376235961912,55.572346875,129.72176235961913Q51.887146875,128.13076235961915,48.871746875,126.53776235961914Q43.216846875,123.54876235961915,38.309246875,120.69676235961914Q38.648146875,131.32476235961914,37.192746875,138.05576235961914Q36.406846875,141.69076235961913,34.836746875,145.86676235961914Q33.910446875,148.33176235961915,31.923546875,152.87876235961915Q31.533146875,153.77176235961915,31.342346875,154.21176235961914Q30.168446875,156.91576235961915,30.969646875,158.97776235961913Q31.689246875,160.82876235961913,34.480446875,163.22176235961913Q35.441046875,164.04576235961915,37.017846875,164.78176235961914Q37.972046875,165.22776235961913,39.971146875,165.97176235961913Q42.644846875,166.96676235961914,43.634246875,167.58176235961915L43.641646875,167.58676235961914L43.648946875,167.59176235961914Q44.246946875,167.99276235961915,44.708246875,168.54476235961914Q45.385846875,169.35476235961914,45.405246875,170.13976235961914Q45.431946875,171.22276235961914,42.934846875,172.02876235961915L42.781046875,171.55376235961913L42.934846875,172.02876235961915Q40.704246875,172.74976235961915,37.657546875,173.10676235961915Q33.883246875,173.55076235961914,28.951846875,173.77876235961915Q23.520846875,174.02976235961913,18.498346875,173.92276235961913Q5.838976875,173.65376235961915,1.395840875,171.32376235961914Q0.463211675,170.83576235961914,0.173490875,169.68376235961915Q-0.24979012499999997,168.00176235961914,0.36033587499999997,164.29876235961913Q1.0398998750000001,160.17576235961914,2.787046875,153.70376235961913Q3.805176875,149.93176235961914,5.974216875,142.63376235961914Q8.494536875,134.15276235961915,8.818786875,132.23676235961915Q9.374376875,128.95376235961913,8.717586875,124.94876235961914Q8.327296875,122.56876235961914,7.072796875,118.14076235961915Q6.610896875,116.50976235961915,6.407016875,115.73176235961914Q5.860216875,113.64576235961914,5.359706875,109.94776235961913Q4.775776875,105.63246235961914,4.572716875,101.22316235961914Q4.026976875,89.37206235961914,6.419306875,82.60996235961915Q7.183346875,80.45016235961914,8.248516875,78.15406235961915Q11.024246875,72.17136235961914,15.223446875,66.46686235961914Q19.871446875,60.15286235961914,25.624946875,55.09956235961914Q16.285246875,48.37746235961914,10.503946875,42.28466235961914Q2.495326875,33.844662359619136,1.833276875,27.11396235961914Q1.474294875,23.46436235961914,2.814696875,19.589162359619138Q4.078946875,15.93421235961914,6.567676875,12.855222359619141Q9.062806875,9.768322359619141,12.146746875,8.05516235961914Q15.439646875,6.22588235961914,18.663646875,6.398010359619141Q21.990146875,6.575611359619141,27.280646875,8.89695235961914Q32.513446875,11.19300235961914,38.544546875,15.087342359619141Q44.852746875,19.160562359619142,50.775746875,24.18136235961914Q56.927546875,29.39596235961914,61.815146875,34.92916235961914Q63.524646875,32.67846235961914,65.994046875,31.10196235961914Q68.565546875,29.46036235961914,71.618646875,28.75786235961914Q74.582546875,28.07596235961914,77.487046875,28.39176235961914Q80.444146875,28.71336235961914,82.790346875,30.01216235961914Q84.197046875,30.79086235961914,84.616646875,31.81116235961914Q84.994546875,32.73006235961914,84.559346875,33.73606235961914Q83.973446875,35.09046235961914,82.318246875,36.13586235961914Q81.771446875,36.48116235961914,73.044546875,45.82796235961914Q68.107146875,51.11606235961914,66.057246875,53.26096235961914ZM26.402446875,54.42676235961914Q17.005446875,47.68366235961914,11.229346875,41.59636235961914Q3.456936875,33.405262359619144,2.828476875,27.01606235961914Q2.490926875,23.584262359619142,3.759756875,19.91606235961914Q4.966746875,16.42663235961914,7.345386875,13.48385235961914Q9.718326875,10.54810235961914,12.632346875,8.92933235961914Q15.673746875,7.239803359619141,18.610346875,7.396587359619141Q21.755046875,7.5644813596191405,26.878846875,9.81268235961914Q32.038346875,12.07655235961914,38.002146875,15.927432359619141Q44.255746875,19.96546235961914,50.129146875,24.944162359619142Q56.484646875,30.33156235961914,61.474446875,36.05706235961914L61.894946875,36.53966235961914L62.261346875,36.014862359619144Q63.953746875,33.59096235961914,66.532146875,31.94486235961914Q68.958046875,30.39616235961914,71.842846875,29.73246235961914Q74.642346875,29.08836235961914,77.378946875,29.38596235961914Q80.135846875,29.68576235961914,82.306046875,30.88706235961914Q84.239346875,31.95726235961914,83.641546875,33.33906235961914Q83.178346875,34.40986235961914,81.784346875,35.29036235961914Q81.128446875,35.70456235961914,72.313646875,45.14556235961914Q67.202446875,50.61976235961914,65.191646875,52.71916235961914Q58.324646875,48.37296235961914,37.886646875,34.57046235961914Q26.832546875,27.10526235961914,22.593046875,24.29656235961914L22.040746875,25.13026235961914Q26.276746875,27.936562359619142,37.326946875,35.39916235961914Q58.304346875,49.56586235961914,65.003446875,53.78286235961914Q65.601046875,54.15906235961914,67.013046875,55.01886235961914Q70.282246875,57.00956235961914,72.123346875,58.23716235961914Q75.296046875,60.35256235961914,77.711646875,62.38276235961914Q84.154146875,67.79736235961914,86.275246875,73.47156235961914Q87.123346875,75.74016235961913,87.439746875,77.45806235961913Q87.650846875,78.60426235961914,87.853846875,81.20016235961914Q87.863646875,81.32616235961915,87.873346875,81.44886235961914Q88.140146875,84.85116235961914,89.347646875,95.00106235961914Q90.377746875,103.65976235961914,90.435646875,105.19486235961914Q88.529146875,107.84076235961913,87.761346875,110.38576235961914Q87.330546875,111.81376235961915,87.527246875,112.67676235961915Q87.802746875,113.88476235961915,89.072546875,113.88476235961915Q90.957946875,113.88476235961915,91.399746875,110.93376235961914Q91.619246875,109.46876235961913,91.477746875,106.45046235961914Q91.448046875,105.81716235961915,91.441146875,105.50926235961914Q93.040046875,103.27276235961914,95.117146875,100.93716235961914Q96.880046875,98.95496235961915,100.680046875,95.04176235961914Q103.983046875,91.64036235961915,106.941046875,86.36336235961915Q109.490046875,81.81566235961914,110.733046875,77.90046235961914Q110.940046875,77.24666235961914,111.315046875,75.98116235961913Q112.251046875,72.82226235961915,112.809046875,71.84046235961914Q113.567046875,70.50576235961914,114.603046875,70.76466235961914Q115.156046875,70.90306235961914,115.554046875,72.37656235961914Q115.951046875,73.84886235961915,116.062046875,76.37866235961914Q116.249046875,80.64086235961913,115.716046875,85.16256235961914L113.457046875,85.38476235961915L113.555046875,86.37996235961914L116.203046875,86.11946235961913L116.213046875,86.11846235961914Q120.360046875,85.79356235961914,126.419046875,86.09176235961914Q134.035046875,86.46666235961914,138.719046875,87.72916235961914Q143.206046875,88.93856235961914,145.299046875,90.61306235961914Q146.009046875,91.18046235961914,146.324046875,91.71156235961914Q146.512046875,92.02866235961915,146.494046875,92.13756235961914Q146.469046875,92.28976235961915,146.249046875,92.50066235961914Q145.845046875,92.88816235961914,144.997046875,93.19286235961914Q142.494046875,94.09306235961914,137.139046875,93.94006235961913Q136.267046875,92.15976235961914,131.511046875,91.22576235961914Q129.616046875,90.85436235961915,127.656046875,91.12276235961914Q126.806046875,91.23916235961914,126.281046875,91.45026235961915Q125.427046875,91.79406235961915,125.537046875,92.39956235961914Q125.697046875,93.27686235961914,128.471046875,93.96506235961914Q131.529046875,94.72376235961914,136.380046875,94.91466235961914Q136.443046875,95.55756235961914,135.999046875,96.17776235961914Q135.198046875,97.29726235961914,132.980046875,97.65156235961913Q131.747046875,97.12076235961914,129.404046875,97.25176235961914Q128.484046875,97.30326235961914,127.783046875,97.44076235961914Q126.685046875,97.65626235961913,126.748046875,98.22396235961914Q126.829046875,98.94616235961914,128.255046875,99.03716235961915Q129.714046875,99.13016235961913,132.800046875,98.68916235961915Q133.970046875,99.42136235961914,134.354046875,99.97936235961915Q134.594046875,100.32766235961914,134.573046875,100.81956235961914Q134.507046875,102.31426235961914,130.319046875,102.89036235961915Q129.872046875,102.51596235961914,128.959046875,102.23946235961914Q127.718046875,101.86366235961914,126.721046875,102.05536235961914Q126.042046875,102.18536235961913,125.765046875,102.57556235961914Q125.544046875,102.88646235961914,125.655046875,103.23176235961914Q125.748046875,103.52376235961914,126.064046875,103.71516235961914Q127.004046875,104.28526235961914,129.883046875,103.95336235961913Q130.253046875,104.60056235961915,130.137046875,104.96606235961914Q129.863046875,105.82676235961914,127.553046875,106.57686235961914Q124.081046875,107.70476235961914,117.985046875,106.91576235961914Q117.826046875,106.89476235961914,117.790046875,106.89176235961914L117.381046875,106.85336235961914L117.264046875,107.24576235961914Q115.398046875,113.48876235961914,111.920046875,119.61976235961914Q107.273046875,127.81276235961914,101.651046875,131.81476235961912Q96.233246875,135.67176235961915,87.717846875,135.67176235961915Q83.719246875,135.67176235961915,79.900146875,134.28576235961913Q73.261746875,131.87876235961915,68.767546875,125.79776235961914Q67.448246875,124.01276235961915,66.283346875,121.67276235961914Q65.067846875,119.23176235961914,64.435646875,117.00376235961915Q62.595246875,110.51776235961914,62.144346875,95.40346235961914Q61.987146875,90.13076235961914,61.984046875,82.98256235961914L61.997246875,75.56126235961914L60.997246875,75.55946235961915L60.984346875,82.82146235961915L54.662946875,91.69526235961914L61.152946875,95.70246235961915Q61.615946875,110.73076235961913,63.473646875,117.27676235961914Q64.13134687499999,119.59376235961913,65.388046875,122.11876235961914Q66.592046875,124.53676235961915,67.963346875,126.39276235961914Q72.636746875,132.71576235961913,79.559146875,135.22676235961913Q83.315546875,136.58876235961915,87.241146875,136.66676235961913Q87.402946875,140.08976235961913,87.578946875,145.51776235961913Q87.806746875,152.54276235961913,88.060546875,155.03576235961913Q88.460346875,158.96376235961915,89.504946875,160.88176235961913Q90.347546875,162.42876235961913,93.072846875,164.12376235961915Q94.632846875,165.09476235961915,98.144746875,166.82876235961913Q100.322246875,167.90376235961915,101.195046875,168.39376235961913Q102.577046875,169.16876235961914,103.059046875,169.69176235961913Q103.386046875,170.04676235961915,103.221046875,170.23376235961913Q102.819046875,170.69176235961913,101.104046875,171.09776235961914Q95.438446875,172.44076235961913,87.229746875,172.85776235961913Q79.184846875,173.26676235961915,72.199146875,172.61876235961915Q68.967946875,172.37576235961913,66.114246875,171.85576235961915Q62.401946875,171.17876235961913,61.784746875,170.44276235961914Q60.617646875,169.05276235961915,59.480546875,165.94776235961913Q58.135846875,162.27476235961913,57.958246875,158.82176235961913Q57.755346875,154.87776235961914,59.088146875,144.89176235961915Q60.363446875,135.33676235961914,61.534846875,131.94576235961915Q64.334046875,132.70076235961915,65.963946875,132.24576235961914Q66.729546875,132.03276235961914,67.038446875,131.42276235961913Q67.294346875,130.91676235961916,67.176746875,130.23876235961916Q66.982746875,129.11876235961915,66.175946875,128.34376235961912Q65.099346875,127.30976235961914,63.791546875,127.60776235961914Q62.111646875,127.99076235961914,60.933446875,130.73176235961915Q59.157246875,130.18076235961914,55.968746875,128.80376235961916Q52.319646875,127.22776235961913,49.339046875,125.65376235961914Q43.248546875,122.43476235961914,38.030546875,119.37576235961915Q25.599246875,112.08776235961913,17.774246875,105.69126235961915L17.141346875,106.46556235961914Q24.951746875,112.84976235961913,37.288246875,120.09976235961913Q37.687346875,131.03676235961916,36.215346875,137.84476235961915Q35.444946875,141.40776235961914,33.900746875,145.51476235961914Q32.983646875,147.95476235961914,31.007146875,152.47776235961913Q30.615046875,153.37576235961913,30.425046875,153.81376235961915Q29.087346875,156.89476235961914,30.037546875,159.33976235961913Q30.848046875,161.42476235961914,33.829546875,163.98076235961915Q34.893946875,164.89376235961913,36.594646875,165.68776235961914Q37.585546875,166.15076235961914,39.622446875,166.90876235961915Q42.191646875,167.86476235961914,43.098846875,168.42676235961915Q43.574046875,168.74676235961914,43.941146875,169.18576235961913Q44.394746875,169.72876235961914,44.405546875,170.16476235961915Q44.407646875,170.24976235961915,44.050946875,170.47176235961913Q43.751646875,170.65876235961915,43.278546875,170.84576235961913Q43.150946875,169.49376235961915,42.082946875,168.46976235961915Q40.577646875,167.02576235961914,38.007646875,167.24476235961913L38.092746875,168.24176235961914Q40.211946875,168.06076235961913,41.390646875,169.19076235961913Q42.275346875,170.03976235961915,42.294746875,171.18176235961914Q40.263946875,171.79476235961914,37.540646875,172.11376235961913Q33.801746875,172.55376235961913,28.905746875,172.77976235961913Q23.508646875,173.02876235961915,18.519546875,172.92276235961913Q6.095176875,172.65876235961915,1.860116875,170.43876235961915Q1.3238198749999999,170.15776235961914,1.143270875,169.43976235961915Q0.7706928749999999,167.95876235961913,1.347025875,164.46176235961914Q2.0184168749999998,160.38776235961913,3.752486875,153.96376235961915Q4.767346875,150.20476235961914,6.932776875,142.91776235961913Q9.470396875,134.37976235961912,9.804766875,132.40376235961912Q10.388156875,128.95676235961912,9.704406875,124.78676235961915Q9.304926875,122.35176235961914,8.034936875,117.86776235961914Q7.575746875,116.24676235961914,7.374336875,115.47876235961914Q6.843006875,113.45176235961914,6.350666875,109.81376235961915Q5.772676875,105.54226235961914,5.571666875,101.17716235961915Q5.034916875,89.52126235961914,7.362056875,82.94346235961915Q8.110356875,80.82816235961914,9.155636875,78.57496235961914Q11.889046875,72.68336235961914,16.028846875,67.05966235961914Q20.802546875,60.57486235961914,26.756746875,55.44026235961914Q31.654446875,51.21686235961914,37.126446875,48.12296235961914L36.634246875,47.25246235961914Q31.242946875,50.30076235961914,26.402446875,54.42676235961914ZM61.902746875,131.00876235961914Q64.35614687500001,131.65676235961914,65.695246875,131.28276235961914Q66.312946875,131.11076235961914,66.191446875,130.40976235961915Q66.053446875,129.61276235961913,65.483246875,129.06476235961912Q64.795646875,128.40476235961916,64.013946875,128.58276235961915Q62.854846875,128.84676235961913,61.902746875,131.00876235961914ZM61.118746875,94.50606235961914Q61.002746875,90.12956235961914,60.986646875,84.54176235961914L56.097146875,91.40556235961914L61.118746875,94.50606235961914ZM128.231046875,103.08266235961914Q127.573046875,102.94156235961914,127.035046875,103.01666235961915Q127.484046875,103.10446235961913,128.231046875,103.08266235961914ZM135.850046875,93.89076235961915Q135.452046875,93.53936235961915,134.724046875,93.20806235961913Q133.439046875,92.62356235961914,131.319046875,92.20706235961914Q129.587046875,91.86766235961915,127.792046875,92.11356235961914Q127.174046875,92.19816235961915,126.785046875,92.32976235961914Q126.839046875,92.35866235961915,126.901046875,92.38886235961914Q127.553046875,92.70706235961914,128.712046875,92.99446235961913Q131.492046875,93.68426235961914,135.850046875,93.89076235961915ZM90.496046875,106.89076235961915Q89.278246875,108.82076235961914,88.718746875,110.67476235961914Q88.364346875,111.84976235961913,88.502246875,112.45376235961913Q88.600446875,112.88476235961915,89.072546875,112.88476235961915Q90.096546875,112.88476235961915,90.410846875,110.78576235961914Q90.601746875,109.51076235961914,90.496046875,106.89076235961915Z" fill-rule="evenodd" fill="#515151" fill-opacity="1"/></g><g><path d="M61.35197435424805,83.09379604492187L61.35197435424805,76.09469604492188L61.053474354248046,76.42189804492187C59.67277435424805,78.02999604492187,57.29488035424805,81.60529604492187,58.07268135424805,86.66239604492188L58.21268035424805,87.52939604492187L61.35197435424805,83.09379604492187Z" fill-rule="evenodd" fill="#515151" fill-opacity="1"/></g><g><path d="M37.74557844848633,134.12039672851563C36.87587844848633,124.41939672851562,26.591578448486327,119.30439672851563,19.068378448486328,107.87539672851562C26.51617844848633,113.00739672851563,32.914578448486324,116.47939672851562,38.27827844848633,119.60139672851562Q38.20007844848632,129.08939672851562,37.74557844848633,134.12039672851563Z" fill="#515151" fill-opacity="1"/></g><g><path d="M86.22425028076172,41.98380359863281C86.62995028076172,46.68006359863281,83.09705028076172,50.855663598632816,78.28667028076171,51.271263598632814C73.47618028076172,51.686963598632815,69.27938128076173,48.179263598632815,68.87358098076172,43.48299359863282C68.46778128076171,38.786803598632815,72.00068028076171,34.61119859863281,76.81118028076172,34.19549939863281C81.62165028076171,33.77989959863281,85.81845028076172,37.28759359863281,86.22425028076172,41.98380359863281Z" fill="#FFFFFF" fill-opacity="1"/><path d="M80.71075028076172,33.147813598632816Q78.75222028076172,32.52221359863281,76.68207028076172,32.701063598632814L76.68204028076173,32.70107359863281Q74.61188028076172,32.87996359863281,72.78969028076172,33.83223059863281Q71.03092028076172,34.75135659863281,69.74448328076171,36.261263598632816Q68.45827128076172,37.77091359863281,67.84173028076172,39.63895359863281Q67.20304028076171,41.57410359863281,67.37915028076172,43.61213359863281Q67.55525028076173,45.650163598632815,68.51642828076172,47.44716359863281Q69.44426428076171,49.18176359863281,70.97037028076171,50.44836359863281Q72.49675028076172,51.715263598632816,74.38712028076172,52.31906359863281Q76.34566028076172,52.944663598632815,78.41579028076171,52.765763598632816Q80.48595028076171,52.58686359863282,82.30815028076172,51.63466359863281Q84.06685028076171,50.71556359863281,85.35325028076171,49.205563598632814Q86.63955028076171,47.695963598632815,87.25605028076171,45.82786359863282Q87.89475028076171,43.89274359863281,87.71875028076172,41.85466359863281Q87.54255028076172,39.816643598632815,86.58145028076171,38.019723598632815Q85.65355028076172,36.28513359863281,84.12745028076172,35.01849259863281Q82.60115028076171,33.75162859863281,80.71075028076172,33.147813598632816ZM76.94029028076172,35.68993359863281L76.94032028076172,35.68993359863281Q79.92815028076171,35.431813598632814,82.21145028076172,37.32695359863281Q84.47895028076172,39.20886359863281,84.72985028076172,42.112933598632814Q84.98075028076173,45.01706359863282,83.06975028076172,47.26006359863281Q81.14535028076172,49.518763598632816,78.15756028076171,49.776863598632815Q75.16971028076172,50.03506359863281,72.88636028076172,48.13996359863281Q70.61895028076172,46.25796359863281,70.36801028076172,43.35386359863281Q70.11707028076172,40.44980359863281,72.02805028076172,38.20685359863281Q73.95247028076172,35.948133598632815,76.94029028076172,35.68993359863281Z" fill-rule="evenodd" fill="#515151" fill-opacity="1"/></g><g><path d="M80.420679375,40.13190088916016C80.27987937500001,39.952197989160155,80.020079375,39.92079928916016,79.840479375,40.061599689160154C78.699479375,40.955897889160156,77.346473375,41.39699888916016,76.836578375,41.50099888916016C76.612976375,41.54659888916016,76.468673675,41.764798889160154,76.514274595,41.988498889160155C76.559875475,42.21209888916016,76.778076375,42.356398889160154,77.001777375,42.310798889160154C77.607479375,42.187298889160154,79.086879375,41.702298889160154,80.350279375,40.71199788916016C80.529979375,40.57120088916015,80.561379375,40.31150088916016,80.420679375,40.13190088916016ZM78.644679375,43.807598889160154C78.523479375,43.37599888916016,78.775179375,42.92779888916016,79.206779375,42.80669888916016C79.638369375,42.68549888916016,80.086479375,42.93719888916016,80.207679375,43.36879888916015C80.328779375,43.80039888916016,80.077179375,44.24849888916015,79.645579375,44.369698889160155C79.213969375,44.49089888916016,78.765879375,44.23919888916016,78.644679375,43.807598889160154ZM84.873779375,41.650698889160154C84.442179375,41.771898889160155,84.190479375,42.21999888916016,84.311679375,42.651598889160155C84.432879375,43.083298889160154,84.880969375,43.33489888916016,85.312579375,43.213698889160156C85.744179375,43.09259888916016,85.995779375,42.644498889160154,85.874679375,42.21289888916016C85.753479375,41.78119888916016,85.305369375,41.529598889160155,84.873779375,41.650698889160154Z" fill-rule="evenodd" fill="#515151" fill-opacity="1"/></g><g><path d="M65.93838291015625,34.03610026855469C68.85238291015625,34.41580026855469,71.52248291015624,32.36140026855469,71.90218291015626,29.447400268554688C72.28188291015624,26.533400268554686,70.22748291015625,23.86330026855469,67.31348291015625,23.48360056855469C64.39948291015625,23.103901268554687,61.72938291015625,25.158300268554687,61.34968291015625,28.072300268554688C60.96998291015625,30.986300268554686,63.02438291015625,33.65640026855469,65.93838291015625,34.03610026855469ZM76.61708291015626,32.63080026855469C73.23118291015625,32.92340026855469,70.36478291015625,34.794300268554686,68.70068291015625,37.445200268554686C68.38098291015625,37.41570026855469,68.02828291015625,37.37150026855468,67.64588291015625,37.323600268554685C67.28428291015625,37.27840026855469,66.89618291015626,37.22980026855468,66.48448291015625,37.18710026855469C65.41568291015625,37.076200268554686,64.20868291015626,37.00820026855469,62.962682910156246,37.15660026855468C60.489182910156245,37.451200268554686,57.871882910156245,38.598000268554685,55.86588291015625,41.91790026855469C51.81378291015625,40.05910026855469,45.33308291015625,41.014100268554685,40.77838131015625,47.44190026855469L40.73248291015625,47.50660026855469L40.76548001015625,47.57880026855469C44.80468291015625,56.40890026855469,52.69458291015625,66.3822002685547,69.53798291015624,68.57700026855468L69.62128291015625,68.58780026855469L69.66908291015625,68.51870026855468C70.63618291015625,67.11880026855468,71.75978291015625,64.70700026855468,71.99378291015626,62.00880026855469C72.22518291015625,59.33980026855469,71.58578291015625,56.38690026855469,69.06248291015625,53.86660026855469C70.59558291015625,52.27490026855469,72.41298291015624,49.60890026855469,72.99278291015625,46.65000026855469C73.28928291015626,45.137400268554686,73.26278291015625,43.54520026855469,72.70618291015626,41.981800268554686C72.69318291015625,41.94550026855469,72.67998291015626,41.90930026855469,72.66648291015625,41.87300026855469C74.12768291015625,41.86030026855469,75.88608291015625,41.12260026855469,77.41438291015625,39.96860026855469C78.90178291015624,38.84560026855469,80.19118291015624,37.31350026855469,80.78588291015626,35.631800268554684C82.68518291015624,37.15230026855469,84.60198291015625,37.655400268554686,86.20508291015625,37.66400026855469L86.45448291015626,37.66530026855469L86.32288291015625,37.45350026855469C84.34238291015626,34.26730026855469,80.65128291015625,32.28220026855469,76.61708291015626,32.63080026855469Z" fill-rule="evenodd" fill="#515151" fill-opacity="1"/></g><g><path d="M64.7002994519043,43.63587635864258Q62.9188814519043,45.754316358642576,63.1571404519043,48.51193635864258Q63.3953924519043,51.269556358642575,65.5138194519043,53.050986358642575Q67.6322394519043,54.83238635864258,70.38991945190429,54.594186358642574Q73.14752945190429,54.35588635864258,74.9289694519043,52.23748635864258Q76.7103694519043,50.119086358642576,76.47216945190429,47.36145635864258Q76.2338694519043,44.60378635864258,74.11546945190429,42.82233635864258Q71.9970394519043,41.04090135864258,69.2393494519043,41.27915335864258Q66.4817394519043,41.51740735864258,64.7002994519043,43.63587635864258ZM66.1574194519043,52.285586358642576Q64.3560264519043,50.77078635864258,64.1534294519043,48.42585635864258Q63.950824451904296,46.080896358642576,65.4656594519043,44.279476358642576Q66.9805094519043,42.47804035864258,69.3254194519043,42.27544235864258Q71.67044945190429,42.07284335864258,73.4718394519043,43.58768635864258Q75.2732694519043,45.10253635864258,75.4758694519043,47.44753635864258Q75.67846945190429,49.79248635864258,74.1635694519043,51.59386635864258Q72.6487694519043,53.39528635864258,70.3038494519043,53.597886358642576Q67.9588294519043,53.80048635864258,66.1574194519043,52.285586358642576Z" fill-rule="evenodd" fill="#C6CACD" fill-opacity="1"/></g><g><path d="M155.54577606835937,98.5502189868164L155.54425306835938,98.55063898681641Q155.44842506835937,98.5772589868164,155.37007806835936,98.63851898681641Q155.29173106835938,98.6997889868164,155.24279106835937,98.7863689868164Q155.17807006835938,98.9008689868164,155.17807006835938,99.0323989868164L155.17807106835937,99.0335989868164Q155.17823306835936,99.10113898681641,155.19631006835937,99.1662189868164Q155.22292806835938,99.26204898681641,155.28419106835938,99.34039898681641Q155.34545506835937,99.41873898681641,155.43203706835936,99.46767898681641Q155.54654106835937,99.5323989868164,155.67807006835938,99.5323989868164L155.67926935835936,99.5323989868164Q155.7468101683594,99.53223898681641,155.81188706835937,99.51415898681641Q159.11046006835937,98.59792898681641,161.38463006835937,96.0164089868164Q163.07139006835936,94.10168898681641,163.62939006835938,92.1177779868164Q163.64807006835937,92.05137698681641,163.64807006835937,91.9823989868164L163.64807006835937,91.9801125168164Q163.64769006835937,91.89865118681641,163.62148006835938,91.82152098681641Q163.59527006835938,91.74439098681641,163.54593006835938,91.6795689868164Q163.49659006835938,91.61474798681641,163.42923006835937,91.5689399868164Q163.36187006835937,91.52313198681641,163.28345006835937,91.5010749868164Q163.21705006835938,91.4823989868164,163.14807006835937,91.4823989868164L163.13850006835938,91.4824909868164Q163.01296006835938,91.4848939868164,162.90345006835938,91.5463249868164Q162.81671006835938,91.5949819868164,162.75519006835938,91.6731299868164Q162.69368006835938,91.7512789868164,162.66675006835936,91.8470199868164Q162.17043006835937,93.61161898681641,160.63427006835937,95.35538898681641Q158.55704006835938,97.71333898681641,155.54577606835937,98.5502189868164Z" fill-rule="evenodd" fill="#000000" fill-opacity="1"/></g><g><path d="M166.40457471679687,101.78309959716796Q162.91666471679687,105.58923959716797,157.94328071679686,106.87119959716797Q157.86275071679688,106.89199959716797,157.79327571679687,106.93769959716796Q157.72380171679688,106.98339959716797,157.6728617167969,107.04909959716797Q157.6219227167969,107.11489959716798,157.59500371679687,107.19359959716797Q157.56808471679688,107.27219959716797,157.56808471679688,107.35539959716797L157.56820271679686,107.36629959716797Q157.56946071679687,107.42409959716797,157.58391171679688,107.48019959716797Q157.60873671679687,107.57649959716797,157.6685277167969,107.65599959716796Q157.72831871679688,107.73549959716797,157.81397271679688,107.78599959716797Q157.93155471679688,107.85539959716797,158.06808471679688,107.85539959716797L158.07232742679687,107.85539959716797Q158.13357651679686,107.85489959716797,158.1928887167969,107.83959959716796Q163.4535147167969,106.48359959716797,167.14183471679686,102.45870959716797Q168.55618471679688,100.91534959716797,169.57408471679688,99.14300959716797Q170.42508471679687,97.66117959716797,170.81818471679688,96.36363259716796L170.81858471679686,96.36244859716797L170.81858471679686,96.36230659716797Q170.84008471679687,96.29144519716797,170.84008471679687,96.21740627615797Q170.84008471679687,96.19665609716797,170.83838471679687,96.17598379716797Q170.83208471679689,96.10106859716797,170.80418471679687,96.03129559716797Q170.77618471679688,95.96152359716797,170.72888471679687,95.90306359716797Q170.68168471679687,95.84460259716796,170.61928471679687,95.80262359716797Q170.55688471679687,95.76064459716797,170.48498471679687,95.73885859716796Q170.41408471679688,95.71739959716797,170.34008471679687,95.71739959716797Q170.32778471679688,95.71739959716797,170.31558471679688,95.71799859716796Q170.20328471679687,95.72350059716797,170.10418471679688,95.77655459716797Q170.01648471679687,95.82348159716797,169.95338471679688,95.90039259716796Q169.8903847167969,95.97730459716797,169.86148471679687,96.07249259716797L169.86148471679687,96.07253359716798L169.86108471679688,96.07398959716797Q169.50098471679686,97.26223959716796,168.70688471679688,98.64497959716797Q167.74410471679687,100.32133959716796,166.40457471679687,101.78309959716796Z" fill-rule="evenodd" fill="#000000" fill-opacity="1"/></g></g></svg>