<svg xmlns="http://www.w3.org/2000/svg" xmlns:xlink="http://www.w3.org/1999/xlink" fill="none" version="1.1" viewBox="0 0 190.26123046875 184.888427734375"><defs><mask id="master_svg0_69_1106" style="mask-type:alpha" maskUnits="userSpaceOnUse"><g><path d="M44.16263356628418,85.983062725C50.34043356628418,86.568961625,48.72243356628418,98.286315625,44.75093356628418,103.560315625C41.870633566284184,107.384315625,43.57963356628418,110.69231562499999,45.65793356628418,114.714315625C46.08153356628418,115.534315625,46.52043356628418,116.384315625,46.93883356628418,117.273315625C48.89833356628418,120.14231562500001,50.03303356628418,123.544315625,50.03303356628418,127.19231562499999C50.03303356628418,137.439315625,41.082733566284176,145.745315625,30.04193356628418,145.745315625C19.00113356628418,145.745315625,10.05073356628418,137.439315625,10.05073356628418,127.19231562499999C10.05073356628418,119.304315625,15.35523356628418,112.566315625,22.83433356628418,109.882315625C30.13773356628418,105.843315625,32.41783356628418,101.807315625,32.68953356628418,94.771365625C32.92483356628418,88.678265625,37.98483356628418,85.397155625,44.16263356628418,85.983062725Z" fill-rule="evenodd" fill="#FFFFFF" fill-opacity="1"/></g></mask></defs><g><g><path d="M118.31452913818359,106.84835820117188L118.1105291381836,106.67135620117188L83.5039291381836,133.77935620117188L83.9688341381836,133.73735620117188C94.0044291381836,132.82435620117187,100.6865291381836,133.35735620117188,102.7635291381836,133.73535620117187L102.8585291381836,133.75235620117186L118.31452913818359,106.84835820117188Z" fill-rule="evenodd" fill="#515151" fill-opacity="1"/></g><g><path d="M118.48053336181641,66.06446075439453L62.847633361816406,66.06446075439453L62.847633361816406,105.86436075439454L118.48053336181641,105.86436075439454L118.48053336181641,66.06446075439453Z" fill="#FFFFFF" fill-opacity="1"/><path d="M62.347633361816406,106.36436075439454L62.347633361816406,65.56446075439453L118.98053336181641,65.56446075439453L118.98053336181641,106.36436075439454L62.347633361816406,106.36436075439454ZM117.98053336181641,66.56446075439453L63.347633361816406,66.56446075439453L63.347633361816406,105.36436075439454L117.98053336181641,105.36436075439454L117.98053336181641,66.56446075439453Z" fill-rule="evenodd" fill="#515151" fill-opacity="1"/></g><g><path d="M45.11333465576172,128.70035583496093L62.81793465576172,106.25535583496094L118.25753465576172,106.25535583496094L100.55353465576172,128.70035583496093L45.11333465576172,128.70035583496093Z" fill="#E6E8EA" fill-opacity="1"/><path d="M44.08210465576172,129.20035583496093L100.79593465576173,129.20035583496093L119.28873465576171,105.75535583496094L62.575534655761714,105.75535583496094L44.08210465576172,129.20035583496093ZM100.31113465576172,128.20035583496093L46.14456465576172,128.20035583496093L63.06033465576172,106.75535583496094L117.22633465576172,106.75535583496094L100.31113465576172,128.20035583496093Z" fill-rule="evenodd" fill="#515151" fill-opacity="1"/></g><g><path d="M96.81253125,70.76075744628906L70.89453125,70.76075744628906L70.89453125,92.21035744628907L89.66303125,92.21035744628907L89.66303125,98.46635744628907L104.26053125,98.46635744628907L104.26053125,84.76255744628907L96.81253125,84.76255744628907L96.81253125,70.76075744628906Z" fill-rule="evenodd" fill="#C6CACD" fill-opacity="1"/></g><g><path d="M71.80483200878906,71.62036157128907L96.07053400878907,71.62036157128907L96.07053400878907,84.76226057128906L89.66383400878907,84.76226057128906L89.66383400878907,91.41716057128906L71.80483200878906,91.41716057128906L71.80483200878906,71.62036157128907ZM89.66383400878907,92.24336057128906L70.88673400878906,92.24336057128906L70.88673400878906,70.79396057128906L96.89653400878906,70.79396057128906L96.89653400878906,84.76226057128906L104.26153400878906,84.76226057128906L104.26153400878906,98.46636057128906L89.66383400878907,98.46636057128906L89.66383400878907,92.24336057128906ZM96.89653400878906,85.58866057128907L103.43453400878906,85.58866057128907L103.43453400878906,97.63936057128906L90.49023400878906,97.63936057128906L90.49023400878906,92.24336057128906L96.89653400878906,92.24336057128906L96.89653400878906,85.58866057128907ZM96.07053400878907,85.58866057128907L96.07053400878907,91.41716057128906L90.49023400878906,91.41716057128906L90.49023400878906,85.58866057128907L96.07053400878907,85.58866057128907Z" fill-rule="evenodd" fill="#FFFFFF" fill-opacity="1"/></g><g><path d="M38.43193421325684,167.08036572265624L28.652334213256836,167.08036572265624C32.839634213256836,165.86736572265625,32.692734213256834,155.09635572265626,32.095834213256836,149.86236572265625C32.97733421325684,155.59236572265624,36.687234213256836,163.72836572265624,38.43193421325684,167.08036572265624Z" fill="#515151" fill-opacity="1"/><path d="M35.40502421325684,159.17892572265626Q33.16543421325684,153.52667572265625,32.59002421325684,149.78634032265626L31.599054213256835,149.91901972265626Q32.21424421325683,155.31343572265624,31.671594213256835,159.92076572265626Q30.968664213256837,165.88876572265625,28.513211213256834,166.60006572265624L25.129344213256836,167.58036572265624L39.25583421325683,167.58036572265624L38.87543421325684,166.84946572265625Q37.069704213256834,163.38026572265625,35.40502421325684,159.17892572265626ZM32.92558421325683,155.26193572265626Q32.93502421325684,157.74277572265626,32.66472421325683,160.03776572265625Q32.10726421325683,164.77066572265625,30.370424213256836,166.58036572265624L37.61359421325683,166.58036572265624Q35.98577421325684,163.35926572265626,34.47534421325683,159.54729572265626Q33.56642421325684,157.25336572265624,32.92558421325683,155.26193572265626Z" fill-rule="evenodd" fill="#000000" fill-opacity="1"/></g><g><path d="M71.07653305511475,32.7824Q71.07653305511475,33.5871,71.03703305511475,34.3909Q70.99753305511474,35.1947,70.91863305511474,35.9956Q70.83983305511475,36.7965,70.72173305511474,37.5926Q70.60363305511474,38.3886,70.44663305511475,39.1779Q70.28963305511475,39.9672,70.09403305511475,40.7478Q69.89853305511474,41.5285,69.66493305511474,42.2986Q69.43133305511475,43.0687,69.16023305511474,43.8264Q68.88903305511474,44.5841,68.58113305511475,45.3276Q68.27313305511476,46.0711,67.92903305511474,46.7986Q67.58493305511475,47.5261,67.20563305511475,48.2359Q66.82623305511476,48.9456,66.41253305511475,49.6359Q65.99883305511474,50.3261,65.55173305511474,50.9953Q65.10453305511474,51.6644,64.62523305511475,52.3108Q64.14583305511474,52.9572,63.635233055114746,53.5793Q63.124733055114746,54.2014,62.584233055114744,54.7977Q62.043833055114746,55.394,61.47473305511475,55.963Q60.905733055114744,56.5321,60.309433055114745,57.0725Q59.713133055114746,57.613,59.09103305511475,58.1235Q58.468933055114746,58.634,57.82253305511475,59.1134Q57.17623305511474,59.5928,56.507033055114746,60.0399Q55.837933055114746,60.487,55.147633055114746,60.9008Q54.457333055114745,61.3145,53.74763305511475,61.6938Q53.03793305511475,62.0732,52.31043305511474,62.4173Q51.582933055114744,62.7614,50.839433055114746,63.0693Q50.09593305511475,63.3773,49.338133055114746,63.6484Q48.580433055114746,63.9195,47.81033305511475,64.1532Q47.04023305511475,64.3868,46.25963305511475,64.5823Q45.478933055114744,64.7778,44.68963305511475,64.9348Q43.90033305511474,65.0918,43.10433305511474,65.2099Q42.30823305511475,65.328,41.50733305511475,65.4069Q40.70643305511474,65.4858,39.902733055114744,65.5253Q39.09893305511475,65.5648,38.29413305511475,65.5648Q37.48933305511474,65.5648,36.685533055114746,65.5253Q35.88173305511475,65.4858,35.08093305511474,65.4069Q34.28003305511474,65.328,33.48393305511475,65.2099Q32.68793305511475,65.0918,31.898633055114747,64.9348Q31.109333055114746,64.7778,30.328633055114746,64.5823Q29.548033055114747,64.3868,28.777933055114747,64.1532Q28.007833055114745,63.9195,27.250033055114745,63.6484Q26.492333055114745,63.3773,25.748833055114748,63.0693Q25.005333055114747,62.7614,24.277833055114748,62.4173Q23.550333055114745,62.0732,22.840633055114747,61.6938Q22.130833055114746,61.3145,21.440633055114745,60.9008Q20.750333055114744,60.487,20.081233055114744,60.0399Q19.412033055114748,59.5928,18.765633055114748,59.1134Q18.119333055114744,58.634,17.497233055114748,58.1235Q16.875133055114745,57.613,16.278833055114745,57.0725Q15.682533055114746,56.5321,15.113473055114746,55.963Q14.544423055114747,55.394,14.003973055114747,54.7977Q13.463533055114747,54.2014,12.952993055114746,53.5793Q12.442463055114747,52.9572,11.963063055114745,52.3108Q11.483663055114746,51.6644,11.036563055114746,50.9953Q10.589463055114745,50.3262,10.175733055114746,49.6359Q9.762003055114747,48.9456,9.382633055114745,48.2359Q9.003273055114747,47.5261,8.659193055114747,46.7986Q8.315113055114747,46.0711,8.007143055114746,45.3276Q7.699173055114747,44.5841,7.428063055114746,43.8264Q7.156943055114747,43.0687,6.923333055114746,42.2986Q6.689723055114746,41.5285,6.494180055114746,40.7478Q6.298639055114746,39.9672,6.141638055114746,39.1779Q5.984636055114746,38.3886,5.866553055114746,37.5926Q5.748470055114746,36.7965,5.669589055114746,35.9956Q5.590708755114746,35.1947,5.551220855114746,34.3909Q5.511733055114746,33.5871,5.511733055114746,32.7824Q5.511733055114746,31.9776,5.551220855114746,31.1738Q5.590708755114746,30.37,5.669589055114746,29.5691Q5.748470055114746,28.7683,5.866553055114746,27.9722Q5.984636055114746,27.1762,6.141638055114746,26.3869Q6.298639055114746,25.5976,6.494180055114746,24.8169Q6.689723055114746,24.0363,6.923333055114746,23.2662Q7.156943055114747,22.496,7.428063055114746,21.7383Q7.699173055114747,20.9806,8.007143055114746,20.2371Q8.315113055114747,19.4936,8.659193055114747,18.7661Q9.003273055114747,18.0386,9.382633055114745,17.3289Q9.762003055114747,16.6191,10.175733055114746,15.9289Q10.589463055114745,15.2386,11.036563055114746,14.5695Q11.483663055114746,13.9003,11.963063055114745,13.2539Q12.442463055114747,12.6075,12.952993055114746,11.9855Q13.463533055114747,11.3634,14.003973055114747,10.7671Q14.544423055114747,10.1708,15.113473055114746,9.60174Q15.682533055114746,9.03268,16.278833055114745,8.49224Q16.875133055114745,7.95179,17.497233055114748,7.44126Q18.119333055114744,6.93072,18.765633055114748,6.45132Q19.412033055114748,5.97193,20.081233055114744,5.52483Q20.750333055114744,5.07772,21.440633055114745,4.66399Q22.130833055114746,4.25026,22.840633055114747,3.8709Q23.550333055114745,3.49154,24.277833055114748,3.14746Q25.005333055114747,2.80338,25.748833055114748,2.49541Q26.492333055114745,2.18744,27.250033055114745,1.91632Q28.007833055114745,1.64521,28.777933055114747,1.4116Q29.548033055114747,1.17799,30.328633055114746,0.982447Q31.109333055114746,0.786905,31.898633055114747,0.629904Q32.68793305511475,0.472903,33.48393305511475,0.35482Q34.28003305511474,0.236737,35.08093305511474,0.157856Q35.88173305511475,0.0789756,36.685533055114746,0.0394878Q37.48933305511474,0,38.29413305511475,0Q39.09893305511475,0,39.902733055114744,0.0394878Q40.70643305511474,0.0789756,41.50733305511475,0.157856Q42.30823305511475,0.236737,43.10433305511474,0.35482Q43.90033305511474,0.472903,44.68963305511475,0.629904Q45.478933055114744,0.786905,46.25963305511475,0.982447Q47.04023305511475,1.17799,47.81033305511475,1.4116Q48.580433055114746,1.64521,49.338133055114746,1.91632Q50.09593305511475,2.18744,50.839433055114746,2.49541Q51.582933055114744,2.80338,52.31043305511474,3.14746Q53.03793305511475,3.49154,53.74763305511475,3.8709Q54.457333055114745,4.25026,55.147633055114746,4.66399Q55.837933055114746,5.07772,56.507033055114746,5.52483Q57.17623305511474,5.97193,57.82253305511475,6.45132Q58.468933055114746,6.93072,59.09103305511475,7.44126Q59.713133055114746,7.95179,60.309433055114745,8.49224Q60.905733055114744,9.03268,61.47483305511474,9.60174Q62.043833055114746,10.1708,62.584233055114744,10.7671Q63.124733055114746,11.3634,63.635233055114746,11.9855Q64.14583305511474,12.6075,64.62523305511475,13.2539Q65.10463305511475,13.9003,65.55173305511474,14.5695Q65.99883305511474,15.2386,66.41253305511475,15.9289Q66.82623305511476,16.6191,67.20563305511475,17.3289Q67.58493305511475,18.0386,67.92903305511474,18.7661Q68.27313305511476,19.4936,68.58113305511475,20.2371Q68.88903305511474,20.9806,69.16023305511474,21.7383Q69.43133305511475,22.496,69.66493305511474,23.2662Q69.89853305511474,24.0363,70.09403305511475,24.8169Q70.28963305511475,25.5976,70.44663305511475,26.3869Q70.60363305511474,27.1762,70.72173305511474,27.9722Q70.83983305511475,28.7683,70.91863305511474,29.5691Q70.99753305511474,30.37,71.03703305511475,31.1738Q71.07653305511475,31.9776,71.07653305511475,32.7824Z" fill="#EAF5FF" fill-opacity="1"/></g><g><path d="M41.32363125,21.492429375C41.32363125,19.670409375,39.84653125,18.193359375,38.02453125,18.193359375C36.20253125,18.193359375,34.72543125,19.670409375,34.72543125,21.492429375L34.72543125,29.774259375L26.44360125,29.774259375C24.62158125,29.774259375,23.14453125,31.251359375,23.14453125,33.073359375C23.14453125,34.895359375,24.62158125,36.372459375,26.44360125,36.372459375L34.72543125,36.372459375L34.72543125,44.654259374999995C34.72543125,46.476359375,36.20253125,47.953359375000005,38.02453125,47.953359375000005C39.84653125,47.953359375000005,41.32363125,46.476359375,41.32363125,44.654259374999995L41.32363125,36.372459375L49.605431249999995,36.372459375C51.42753125,36.372459375,52.904531250000005,34.895359375,52.904531250000005,33.073359375C52.904531250000005,31.251359375,51.42753125,29.774259375,49.605431249999995,29.774259375L41.32363125,29.774259375L41.32363125,21.492429375Z" fill-rule="evenodd" fill="#0871F0" fill-opacity="1"/></g><g><path d="M50.89182426757812,69.28426029052734Q45.992460267578124,64.05185029052734,46.09176926757812,57.741227750527344L45.09189326757812,57.725492830527344Q44.98622226757813,64.44029029052734,50.161864267578125,69.96776029052734Q52.134644267578125,72.07456029052734,54.672814267578126,73.76636029052735Q56.785074267578125,75.17426029052734,58.78327426757812,75.98386029052735L59.158774267578124,75.05706029052735Q57.25497426757813,74.28566029052735,55.22744426757812,72.93426029052735Q52.785544267578125,71.30666029052735,50.89182426757812,69.28426029052734Z" fill-rule="evenodd" fill="#515151" fill-opacity="1"/></g><g><path d="M47.72913125,102.4234005493164C50.61573125,102.5174005493164,54.23663125,103.33740054931641,57.70273125,107.30640054931641C60.18463125,110.1484005493164,62.36843125,114.5144005493164,65.15453125,121.80340054931641C65.98303125,115.1454005493164,68.22793125,108.54740054931641,69.42523125,105.48040054931641C70.62253125,102.41440054931641,74.71103125,95.23040054931641,78.77023125,94.96740054931641C82.82953125,94.70540054931641,83.23833125,98.5304005493164,81.34013125,99.61140054931641C79.44193125,100.6914005493164,78.33223125,100.57440054931641,76.55083125,103.02740054931641C74.76943125,105.48040054931641,73.59323125,107.9694005493164,74.53233125,114.3584005493164C75.25803125,111.42040054931641,76.29773125,109.7764005493164,77.30773125,108.65340054931642C78.31773125,107.5314005493164,86.10583125,100.5964005493164,91.67193125,100.3044005493164C95.52853125,100.1024005493164,96.86353125,101.01040054931642,96.45453125,102.03440054931642C97.90353125,101.6424005493164,99.32153125,101.4724005493164,100.53053125,101.70840054931641C102.61453125,102.11640054931641,103.30653125,103.60540054931641,102.35753125,104.8884005493164C104.54753125,104.72340054931641,106.63753125,105.11340054931641,107.71953125,106.72340054931641C108.04753125,107.21240054931641,107.96153125,108.36140054931641,107.16253125,109.3084005493164C106.38853125,110.2274005493164,104.91553125,110.9484005493164,104.33053125,111.2574005493164C103.14053125,111.8854005493164,98.39653125,114.9724005493164,96.98253125,119.3624005493164C95.56853125,123.7514005493164,94.25143125,126.8234005493164,100.44553125,140.1874005493164C105.15153125,150.3405005493164,106.07853125,161.50950054931639,102.30953125,169.79150054931642C111.27253125,169.50950054931639,119.19653125,167.6405005493164,124.33053125,164.7445005493164C128.72153125,162.26750054931642,132.60553125,159.2475005493164,134.71953125,154.23650054931642C132.39253125,134.5824005493164,132.45553125,96.97940054931641,135.63453125,96.8144005493164C140.12653125,96.58140054931641,137.36353125,144.8204005493164,135.63453125,151.5155005493164C135.38453125,152.4845005493164,135.07753125,153.3885005493164,134.71953125,154.23650054931642C135.39053125,159.9035005493164,136.26053125,164.0785005493164,137.31153125,165.43350054931642C139.00953125,167.6215005493164,177.74953125,170.19050054931643,187.51853125,167.02250054931642C188.79553125,166.6085005493164,189.57753125,166.0965005493164,189.71653125,165.4725005493164C190.72853125,160.9295005493164,174.92353125,157.2095005493164,168.83753125,151.5155005493164C164.65153125,147.5985005493164,166.07053125,119.08940054931641,163.87553125,101.0584005493164C161.67953125,83.0261005493164,155.96253125,64.58520054931641,138.61253125,60.34970054931641C124.98953125,57.023800549316405,113.62653125,62.08520054931641,108.46653125,65.99010054931641L80.75833125,65.99010054931641C83.47313125,60.395600549316406,91.21753125,49.935760549316406,107.16253125,46.809257549316406C126.42353125,43.03276054931641,143.33953125,52.002060549316404,154.11753125,64.27580054931641C159.07253125,69.5176005493164,161.86653125,72.98470054931641,163.34753125,72.98470054931641C164.82853125,72.98470054931641,172.57253125,68.3037005493164,180.95553125,67.7599005493164C183.45053125,67.6059005493164,183.40753125,70.40400054931641,182.13753125,74.5666005493164C181.61853125,76.2700005493164,181.04753125,77.6300005493164,180.05553125,79.63200054931642C177.60853125,84.57140054931641,172.21653125,93.93440054931641,163.87553125,101.0584005493164C166.07053125,119.08940054931641,164.65153125,147.5985005493164,168.83753125,151.5155005493164C174.92353125,157.2095005493164,190.72853125,160.9295005493164,189.71653125,165.4725005493164C189.57753125,166.0965005493164,188.79553125,166.6085005493164,187.51853125,167.02250054931642C177.74953125,170.19050054931643,139.00953125,167.6215005493164,137.31153125,165.43350054931642C136.26053125,164.0785005493164,135.39053125,159.9035005493164,134.71953125,154.23650054931642C132.60553125,159.2475005493164,128.72153125,162.26750054931642,124.33053125,164.7445005493164C119.19653125,167.6405005493164,111.27253125,169.50950054931639,102.30953125,169.79150054931642C101.11853125,172.4105005493164,99.45753125,174.7405005493164,97.29753125,176.65850054931641C88.30703125,184.6425005493164,68.31333125,188.3325005493164,49.52743125,178.3355005493164C39.96633125,173.2475005493164,34.80933125,160.7165005493164,32.02973125,148.1655005493164L32.034831249999996,148.21950054931642C32.88053125,157.14650054931639,33.37323125,162.3485005493164,29.84823125,166.7415005493164C22.77713125,167.3605005493164,16.46063125,166.7415005493164,10.27293125,164.8265005493164C5.04952125,163.2095005493164,-2.63990875,156.51050054931642,1.89599125,142.2114005493164C6.43193125,127.91140054931641,29.87403125,109.4334005493164,32.02973125,107.9994005493164C34.18543125,106.5664005493164,39.98713125,102.4234005493164,47.72913125,102.4234005493164Z" fill="#FFFFFF" fill-opacity="1"/></g><g><path d="M65.15453125,121.80335565185547C63.37603125,132.50835565185548,65.28683125,149.87135565185548,68.48173125,149.09235565185548C69.48453125,148.84735565185548,70.05603125,147.51035565185546,70.15383125,145.19635565185547C77.30773125,145.52935565185547,97.92353125,153.17935565185547,104.62153125,156.98935565185548C104.77553125,161.61135565185546,104.03353125,166.0033556518555,102.30953125,169.79135565185547C101.11853125,172.41035565185547,99.45753125,174.74035565185545,97.29753125,176.65835565185546C88.30703125,184.64235565185547,68.31333125,188.33235565185547,49.52743125,178.33535565185548C39.96633125,173.24735565185546,34.80933125,160.71635565185545,32.02973125,148.16535565185546L32.034831249999996,148.21935565185547C32.88053125,157.14635565185546,33.37323125,162.34835565185546,29.84823125,166.74135565185549C22.77713125,167.36035565185546,16.46063125,166.74135565185549,10.27293125,164.82635565185547C5.04952125,163.20935565185547,-2.63990875,156.51035565185546,1.89599125,142.21135565185546C6.43193125,127.91135565185547,29.87403125,109.43335565185546,32.02973125,107.99935565185547C34.18543125,106.56635565185547,39.98713125,102.42235565185547,47.72913125,102.42235565185547C50.61573125,102.51735685185547,54.23663125,103.33735665185547,57.70273125,107.30635565185547C60.18463125,110.14836565185547,62.36843125,114.51435565185547,65.15453125,121.80335565185547Z" fill="#E6E8EA" fill-opacity="1"/></g><g><path d="M164.4035322036743,101.26370054931641Q169.86453220367432,96.5502005493164,174.58553220367432,89.8128005493164Q177.9465322036743,85.01530054931641,180.50353220367433,79.8539005493164Q181.92053220367433,76.9943005493164,182.61553220367432,74.71230054931641Q183.6665322036743,71.26880054931641,183.45453220367432,69.4856005493164Q183.17453220367432,67.12190054931641,180.92453220367432,67.2608005493164Q177.0955322036743,67.5092005493164,172.62253220367433,68.94990054931641Q170.1015322036743,69.76190054931641,166.21653220367432,71.4166005493164Q163.7095322036743,72.48460054931641,163.34753220367432,72.48470054931641Q162.75353220367433,72.48470054931641,161.2915322036743,71.12340054931641Q160.27053220367432,70.1735005493164,157.4055322036743,67.0717005493164Q155.5585322036743,65.07280054931641,154.4875322036743,63.93880054931641Q150.28253220367432,59.15270054931641,145.23953220367432,55.4351005493164Q139.89653220367433,51.49695054931641,134.0125322036743,49.06169054931641Q120.85353220367432,43.61532054931641,107.06653220367431,46.3185995493164Q96.36723220367432,48.41647054931641,88.67133220367431,55.09656054931641Q85.70223220367431,57.67370054931641,83.38643220367432,60.7733005493164Q81.52513220367432,63.2647005493164,80.30853220367432,65.77180054931641L79.95993220367431,66.49010054931641L108.63453220367431,66.49010054931641L108.76853220367431,66.38880054931641Q110.88353220367432,64.78810054931641,113.65653220367432,63.44360054931641Q116.91053220367432,61.865600549316405,120.49053220367432,60.94250054931641Q129.46053220367432,58.63000054931641,138.4935322036743,60.835400549316404Q150.15753220367432,63.68270054931641,156.48453220367432,75.7622005493164Q161.4455322036743,85.23390054931642,163.37953220367433,101.1188005493164Q163.93253220367433,105.66620054931641,164.30053220367432,112.27180054931641Q164.51953220367432,116.2108005493164,164.81953220367433,124.2749005493164Q165.29353220367432,136.9839005493164,165.78953220367433,141.8883005493164Q166.62353220367433,150.1285005493164,168.49553220367432,151.88050054931642Q170.2735322036743,153.5435005493164,173.57953220367432,155.3655005493164Q175.52653220367432,156.43850054931642,179.7015322036743,158.41450054931641Q184.99253220367433,160.9175005493164,186.8025322036743,162.1275005493164Q189.5415322036743,163.9585005493164,189.22853220367432,165.36350054931643Q189.1135322036743,165.88050054931642,187.9105322036743,166.3525005493164Q187.5365322036743,164.4955005493164,186.63253220367432,163.65250054931641Q185.6845322036743,162.7685005493164,182.8565322036743,161.94050054931643L182.57453220367432,162.9005005493164Q185.17553220367432,163.6615005493164,185.95053220367433,164.38450054931639Q186.6495322036743,165.0365005493164,186.95453220367432,166.67150054931642Q183.5125322036743,167.6565005493164,175.7745322036743,167.9185005493164Q168.5405322036743,168.1635005493164,159.4115322036743,167.73650054931642Q150.88353220367432,167.3385005493164,144.5605322036743,166.5545005493164Q141.48053220367433,166.17150054931642,139.66353220367432,165.77150054931639Q137.90653220367432,165.38450054931639,137.70653220367433,165.1265005493164Q136.29353220367432,163.3045005493164,135.23053220367433,154.3045005493164Q135.76053220367433,153.0265005493164,136.1185322036743,151.6405005493164Q136.7915322036743,149.0365005493164,137.4945322036743,140.1505005493164Q138.21253220367433,131.06640054931643,138.46753220367432,121.5803005493164Q138.75753220367432,110.75130054931641,138.27153220367433,104.2841005493164Q137.99653220367432,100.6278005493164,137.47853220367432,98.6939005493164Q136.82353220367432,96.2520005493164,135.60853220367432,96.31510054931641Q134.47953220367432,96.3738005493164,133.84853220367432,99.47600054931641Q133.32553220367433,102.0465005493164,133.00953220367433,106.74090054931641Q132.40053220367432,115.8037005493164,132.67653220367433,128.9436005493164Q132.95653220367433,142.25890054931642,133.99553220367432,152.23850054931643Q134.09853220367432,153.2325005493164,134.20653220367433,154.1565005493164Q132.99553220367432,156.96250054931642,130.8935322036743,159.2135005493164Q128.41953220367432,161.86350054931643,124.08453220367431,164.30850054931642Q120.26753220367432,166.4615005493164,114.64353220367431,167.76050054931642Q109.26153220367432,169.0035005493164,103.08553220367432,169.2625005493164Q105.57653220367432,163.27750054931641,105.05453220367431,155.6565005493164Q104.51553220367431,147.7785005493164,100.89953220367431,139.9771005493164Q96.88393220367432,131.3138005493164,96.38443220367432,126.6240005493164Q96.18053220367432,124.7090005493164,96.49123220367431,122.9754005493164Q96.68223220367432,121.9095005493164,97.33323220367431,119.9025005493164Q97.41663220367431,119.64560054931641,97.45843220367432,119.5157005493164Q98.32913220367432,116.8123005493164,101.08053220367432,114.2661005493164Q102.91053220367432,112.57230054931641,104.56353220367431,111.6996005493164Q104.61153220367432,111.67460054931641,104.72453220367431,111.6158005493164Q106.77153220367431,110.5491005493164,107.54453220367432,109.63050054931641Q108.19653220367432,108.8584005493164,108.35653220367432,107.92900054931641Q108.51453220367432,107.0109005493164,108.13453220367431,106.4448005493164Q106.71853220367431,104.3367005493164,103.19553220367432,104.35360054931641L103.18553220367431,104.35370054931641Q103.23753220367432,104.1732005493164,103.25953220367431,103.98620054931641Q103.38153220367431,102.9867005493164,102.64253220367432,102.2164005493164Q101.92853220367432,101.4723005493164,100.62653220367432,101.21760054931642Q99.05983220367432,100.91180054931641,96.99293220367431,101.3693005493164Q96.93093220367432,101.14990054931641,96.78253220367432,100.9395005493164Q95.82843220367431,99.5863005493164,91.64583220367432,99.8050005493164Q87.94223220367432,99.99930054931642,82.49733220367432,103.75610054931641Q80.64043220367432,105.03720054931641,78.87233220367432,106.53500054931641Q77.48073220367432,107.7139005493164,76.93613220367432,108.3188005493164Q75.61593220367432,109.78670054931641,74.76653220367432,111.9501005493164Q74.57113220367431,109.22180054931641,75.00853220367432,107.3295005493164Q75.45873220367432,105.3821005493164,76.95543220367432,103.32120054931642Q77.78213220367432,102.1828005493164,78.59583220367432,101.5914005493164Q79.09543220367432,101.2282005493164,80.14623220367432,100.75680054931641Q81.05213220367432,100.35050054931641,81.58743220367431,100.0459005493164Q82.45893220367432,99.54960054931641,82.78563220367431,98.54790054931641Q83.09993220367431,97.58390054931641,82.76093220367432,96.61980054931641Q82.39443220367431,95.57780054931641,81.40353220367432,94.9987005493164Q80.32113220367431,94.3662005493164,78.73803220367432,94.46840054931641Q75.82443220367432,94.6572005493164,72.62623220367432,98.8704005493164Q71.43813220367431,100.43570054931641,70.38243220367431,102.3387005493164Q69.48023220367432,103.9651005493164,68.95953220367431,105.2985005493164Q67.71333220367431,108.49060054931641,66.67063220367432,112.1585005493164Q65.51793220367432,116.2134005493164,64.93013220367432,119.84670054931641Q63.203332203674314,115.4857005493164,61.759832203674314,112.6598005493164Q59.953332203674314,109.12340054931641,58.07933220367432,106.9775005493164Q55.64433220367432,104.18920054931641,52.692032203674316,102.95070054931641Q50.45413220367432,102.0118005493164,47.74543220367432,101.9236005493164L47.73723220367432,101.9234005493164L47.72913220367432,101.9234005493164Q42.85033220367432,101.9234005493164,37.96463220367431,104.04720054931641Q35.299032203674315,105.2060005493164,32.07543220367432,107.36730054931641Q31.852232203674316,107.5170005493164,31.752832203674316,107.58310054931641Q30.359132203674317,108.5101005493164,26.728432203674316,111.55600054931641Q21.866132203674315,115.63490054931641,17.504832203674315,119.9241005493164Q4.331382203674316,132.8799005493164,1.4193982036743165,142.0602005493164Q-1.6789877963256834,151.82750054931643,1.9862622036743165,158.5145005493164Q3.4377722036743164,161.1635005493164,5.8152322036743165,163.0155005493164Q7.846672203674316,164.5985005493164,10.125112203674316,165.3045005493164Q19.358232203674316,168.1615005493164,29.891832203674316,167.2395005493164L30.104532203674317,167.2205005493164L30.238232203674315,167.0545005493164Q32.742532203674315,163.93350054931642,33.079232203674316,159.2155005493164Q33.22423220367432,157.1855005493164,33.044732203674315,154.2305005493164Q33.043432203674314,154.2095005493164,33.04213220367431,154.1895005493164Q35.035132203674316,161.0835005493164,37.79383220367431,166.2835005493164Q42.506032203674316,175.16550054931642,49.29253220367432,178.7765005493164Q56.122032203674316,182.4115005493164,63.55403220367432,183.90350054931642Q70.37193220367432,185.2735005493164,77.12523220367432,184.7385005493164Q83.42813220367432,184.2385005493164,88.86093220367431,182.1615005493164Q94.11673220367432,180.1515005493164,97.62953220367432,177.0325005493164Q100.76653220367432,174.2465005493164,102.63353220367432,170.2805005493164Q109.18153220367432,170.0485005493164,114.86853220367432,168.7355005493164Q120.63353220367432,167.4035005493164,124.57653220367432,165.1795005493164Q129.04553220367433,162.6585005493164,131.6245322036743,159.8955005493164Q133.2965322036743,158.1055005493164,134.4335322036743,155.9845005493164Q135.47953220367432,163.8875005493164,136.9165322036743,165.7395005493164Q137.6665322036743,166.7065005493164,144.43753220367432,167.54650054931642Q150.7985322036743,168.3355005493164,159.36553220367432,168.7355005493164Q168.5345322036743,169.16450054931641,175.8085322036743,168.9175005493164Q184.1675322036743,168.63450054931639,187.6725322036743,167.4975005493164Q189.9415322036743,166.7625005493164,190.20453220367432,165.5815005493164Q190.6665322036743,163.5075005493164,187.3575322036743,161.2955005493164Q185.48653220367433,160.0455005493164,180.12953220367433,157.51050054931642Q175.9825322036743,155.5485005493164,174.06253220367432,154.4895005493164Q170.86553220367432,152.7275005493164,169.1795322036743,151.1505005493164Q167.58053220367432,149.65450054931642,166.7845322036743,141.7876005493164Q166.2905322036743,136.9149005493164,165.81853220367432,124.2377005493164Q165.5185322036743,116.16470054931641,165.2985322036743,112.2163005493164Q164.9405322036743,105.76900054931642,164.4035322036743,101.26370054931641ZM164.2555322036743,100.06540054931641Q162.2685322036743,84.6505005493164,157.37053220367432,75.2982005493164Q150.8335322036743,62.818300549316405,138.7315322036743,59.863900549316405Q129.4535322036743,57.598900549316404,120.24153220367431,59.974100549316404Q116.56353220367431,60.92220054931641,113.21953220367432,62.5438005493164Q110.44553220367432,63.88880054931641,108.29953220367432,65.49010054931641L81.57063220367432,65.49010054931641Q82.65083220367431,63.42860054931641,84.18753220367432,61.371800549316404Q86.43893220367431,58.35840054931641,89.32683220367431,55.85176054931641Q96.82153220367432,49.346480549316404,107.25853220367432,47.29991054931641Q120.74953220367432,44.654690549316406,133.62953220367433,49.985680549316406Q139.40053220367432,52.37427054931641,144.64553220367432,56.24010054931641Q149.6065322036743,59.896400549316404,153.74153220367432,64.60570054931641L153.74753220367433,64.61260054931641L153.75453220367433,64.6192005493164Q154.82353220367432,65.75000054931641,156.67053220367433,67.7502005493164Q159.56153220367432,70.8798005493164,160.61053220367432,71.85540054931641Q162.36053220367432,73.48470054931641,163.34753220367432,73.48470054931641Q163.91353220367432,73.48470054931641,166.60853220367432,72.3366005493164Q170.4515322036743,70.6997005493164,172.9285322036743,69.9017005493164Q177.2845322036743,68.49910054931641,180.98653220367433,68.25890054931641Q181.6845322036743,68.21580054931641,182.0295322036743,68.5383005493164Q182.37353220367433,68.85970054931641,182.46153220367432,69.6034005493164Q182.56353220367433,70.4642005493164,182.3145322036743,71.82360054931641Q182.2145322036743,71.64640054931641,182.0835322036743,71.4976005493164Q181.3335322036743,70.6394005493164,180.19853220367432,70.24150054931641Q179.06153220367432,69.84280054931641,177.9405322036743,70.04740054931641Q176.71253220367433,70.27180054931641,175.8865322036743,71.16390054931641Q174.9825322036743,72.1402005493164,174.75753220367432,73.7352005493164L175.74753220367433,73.87490054931641Q175.9285322036743,72.58990054931641,176.62053220367432,71.84330054931641Q177.2195322036743,71.1957005493164,178.12053220367432,71.0311005493164Q178.98053220367433,70.87410054931641,179.86753220367433,71.1851005493164Q180.75353220367433,71.4960005493164,181.33153220367433,72.15590054931641Q181.56353220367433,72.42160054931641,181.62953220367433,72.9271005493164Q181.67653220367433,73.2806005493164,181.6495322036743,74.1049005493164Q181.64153220367433,74.3419005493164,181.63853220367432,74.48720054931641Q180.96753220367432,76.6659005493164,179.6075322036743,79.41000054931641Q177.0845322036743,84.50350054931641,173.76653220367433,89.23900054931642Q169.33653220367432,95.56160054931641,164.2555322036743,100.06540054931641ZM31.534832203674316,148.24350054931642Q29.772032203674318,140.27270054931643,28.941432203674317,130.8666005493164Q28.388732203674316,124.6081005493164,28.303832203674318,118.46230054931641L29.303832203674318,118.4485005493164Q29.388132203674317,124.5571005493164,29.937532203674316,130.77860054931642Q30.763932203674315,140.1378005493164,32.51793220367432,148.0575005493164Q34.855132203674316,158.6105005493164,38.677232203674315,165.8145005493164Q43.245932203674315,174.42650054931642,49.76233220367432,177.8935005493164Q56.462532203674314,181.4595005493164,63.75093220367432,182.9235005493164Q70.43213220367431,184.2655005493164,77.04623220367432,183.7415005493164Q83.20553220367432,183.2535005493164,88.50373220367432,181.2275005493164Q93.58913220367431,179.2825005493164,96.96553220367431,176.28450054931642Q100.05503220367432,173.54150054931642,101.85453220367431,169.5845005493164Q104.59353220367431,163.56550054931643,104.05653220367432,155.7255005493164Q103.52953220367432,148.0315005493164,99.99193220367431,140.3976005493164Q95.90703220367432,131.5842005493164,95.39013220367431,126.72990054931641Q95.17113220367432,124.6731005493164,95.50683220367432,122.7991005493164Q95.70993220367431,121.6659005493164,96.38203220367431,119.5940005493164Q96.46453220367431,119.33980054931641,96.50663220367431,119.2090005493164Q97.45763220367432,116.2563005493164,100.40093220367432,113.5322005493164Q102.32753220367432,111.74920054931641,104.09753220367432,110.8152005493164Q104.14653220367431,110.7891005493164,104.26153220367432,110.7289005493164Q106.13353220367432,109.75360054931642,106.78053220367431,108.98630054931641Q107.25653220367431,108.4211005493164,107.37053220367432,107.75930054931641Q107.46153220367431,107.23560054931642,107.30453220367431,107.0019005493164Q106.18653220367432,105.33920054931642,103.20053220367431,105.35360054931641Q102.91153220367431,105.3550005493164,102.61353220367431,105.3712005493164Q102.44053220367432,105.5705005493164,102.22253220367432,105.7599005493164Q101.28953220367431,106.5704005493164,99.72673220367432,106.9996005493164Q98.81343220367431,107.24990054931641,97.48363220367432,107.9930005493164Q96.01553220367431,108.81330054931641,94.82793220367432,109.8156005493164Q92.94683220367432,111.40200054931641,91.12073220367432,113.5640005493164Q89.64203220367432,115.31470054931641,89.16433220367432,116.2056005493164L87.90783220367432,118.54880054931641L88.22723220367432,115.90930054931641Q88.58053220367432,112.9899005493164,91.23853220367431,109.8722005493164Q94.03403220367431,106.59340054931641,97.52453220367431,105.42130054931641Q99.99333220367431,104.5930005493164,102.07953220367432,104.4072005493164Q102.23353220367432,104.14140054931642,102.26753220367432,103.8653005493164Q102.33153220367431,103.33660054931642,101.92153220367432,102.9087005493164Q101.42653220367431,102.39300054931641,100.43463220367431,102.1991005493164Q98.95123220367432,101.9095005493164,96.80153220367431,102.45980054931641Q96.76983220367431,102.5133005493164,96.73383220367431,102.5672005493164Q96.27363220367431,103.25690054931641,95.17863220367431,103.8234005493164Q94.81283220367432,104.0127005493164,93.96023220367432,104.4009005493164Q92.46793220367432,105.08040054931641,91.57483220367432,105.5732005493164Q90.04063220367432,106.4197005493164,88.61383220367432,107.52240054931642Q84.77683220367432,110.48790054931641,81.01593220367431,115.83210054931641L80.25893220367432,116.9078005493164L80.11023220367431,115.6009005493164Q79.47563220367432,110.0229005493164,90.37733220367431,104.06260054931641Q93.52133220367432,102.34420054931641,96.01313220367432,101.6209005493164Q95.99993220367432,101.5649005493164,95.96523220367432,101.5157005493164Q95.71753220367431,101.16450054931641,94.79083220367431,100.96100054931641Q93.61733220367432,100.70330054931641,91.69803220367432,100.8037005493164Q88.27733220367432,100.9831005493164,83.06523220367431,104.5792005493164Q81.24913220367432,105.83220054931641,79.51873220367432,107.29810054931642Q78.17863220367431,108.43320054931641,77.67933220367432,108.98790054931641Q75.87963220367432,110.9890005493164,75.01773220367431,114.4783005493164L74.40763220367431,116.9483005493164L74.03763220367432,114.43110054931641Q73.37803220367432,109.9433005493164,74.03423220367432,107.1042005493164Q74.53013220367431,104.95890054931641,76.14623220367432,102.7336005493164Q77.06603220367431,101.46700054931641,78.00783220367431,100.78250054931641Q78.59133220367431,100.3583005493164,79.73703220367432,99.8444005493164Q80.59923220367432,99.4576005493164,81.09283220367432,99.1768005493164Q81.62803220367432,98.8720005493164,81.83483220367431,98.2378005493164Q82.04423220367431,97.59590054931641,81.81753220367432,96.9516005493164Q81.57293220367431,96.25600054931641,80.89893220367432,95.86210054931641Q80.08043220367432,95.3838005493164,78.80243220367431,95.4663005493164Q76.34483220367431,95.6256005493164,73.42273220367431,99.4750005493164Q72.27793220367431,100.9833005493164,71.25693220367431,102.82380054931642Q70.38723220367432,104.39140054931642,69.89093220367431,105.66220054931641Q68.66213220367432,108.80990054931641,67.63253220367432,112.43200054931641Q66.21383220367431,117.42250054931641,65.66473220367432,121.7531005493164Q69.64953220367431,133.7314005493164,70.47883220367432,141.3181005493164Q71.30963220367431,148.9175005493164,68.60013220367432,149.5785005493164Q67.01023220367432,149.9655005493164,65.89293220367432,146.8305005493164Q64.97883220367432,144.2652005493164,64.45653220367431,139.81260054931641Q63.942832203674314,135.43370054931643,63.97483220367432,130.68960054931642Q64.00823220367431,125.73460054931641,64.63923220367431,121.85570054931641Q62.55343220367432,116.41170054931641,60.86933220367432,113.11470054931641Q59.11893220367432,109.6882005493164,57.32613220367432,107.63520054931641Q55.04363220367431,105.0216005493164,52.305232203674315,103.87280054931641Q50.240632203674316,103.0067005493164,47.720932203674316,102.9234005493164Q43.05423220367432,102.9252005493164,38.36333220367432,104.9643005493164Q35.78073220367432,106.0870005493164,32.632332203674316,108.19790054931642Q32.40793220367432,108.3483005493164,32.30663220367431,108.4157005493164Q30.959232203674315,109.3119005493164,27.371132203674318,112.3221005493164Q22.539232203674317,116.3755005493164,18.206032203674315,120.6371005493164Q5.209542203674316,133.4187005493164,2.3725922036743166,142.3625005493164Q-0.5964277963256837,151.7225005493164,2.863182203674316,158.03450054931642Q4.215392203674316,160.5015005493164,6.429872203674316,162.22650054931643Q8.317052203674315,163.6975005493164,10.420762203674316,164.3485005493164Q19.372232203674315,167.1195005493164,29.589332203674317,166.2615005493164Q31.776332203674315,163.4245005493164,32.08183220367432,159.1445005493164Q32.22203220367432,157.1805005493164,32.04653220367432,154.29150054931642Q31.936932203674317,152.4875005493164,31.536932203674315,148.2655005493164L31.534832203674316,148.24350054931642ZM65.35053220367432,124.01110054931641Q64.99943220367432,127.05390054931641,64.97483220367431,130.69640054931642Q64.94323220367431,135.3783005493164,65.44973220367432,139.6961005493164Q65.95883220367432,144.0362005493164,66.83493220367431,146.4945005493164Q67.26833220367432,147.7105005493164,67.73103220367432,148.26050054931642Q68.08043220367432,148.6755005493164,68.36333220367432,148.60650054931642Q69.15643220367431,148.4135005493164,69.48233220367432,146.7525005493164Q69.85783220367432,144.8398005493164,69.48473220367431,141.4268005493164Q68.73483220367432,134.56710054931642,65.35053220367432,124.01110054931641ZM88.96643220367432,106.02230054931641Q82.11633220367432,110.14000054931641,81.21253220367431,113.85960054931641Q84.56643220367431,109.3866005493164,88.00223220367431,106.73120054931641Q88.47853220367432,106.36310054931641,88.96643220367432,106.02230054931641ZM100.57753220367432,105.63280054931641Q99.28283220367432,105.88620054931641,97.84253220367431,106.3694005493164Q94.61523220367431,107.4531005493164,91.99953220367432,110.52100054931641Q90.96183220367432,111.7382005493164,90.26653220367432,113.0258005493164Q90.31093220367431,112.9729005493164,90.35673220367431,112.91870054931641Q92.23743220367432,110.69210054931641,94.18333220367431,109.0511005493164Q95.44393220367432,107.98720054931641,96.99593220367431,107.12000054931642Q98.43183220367432,106.31770054931641,99.46233220367432,106.03510054931641Q100.08183220367431,105.86510054931641,100.57753220367432,105.63280054931641ZM134.97753220367431,152.01750054931642Q135.06853220367432,151.7065005493164,135.15053220367432,151.3905005493164Q135.80053220367432,148.8705005493164,136.49753220367433,140.0717005493164Q137.2135322036743,131.0134005493164,137.46753220367432,121.55340054931641Q137.7565322036743,110.77560054931641,137.2745322036743,104.35910054931641Q137.0065322036743,100.7960005493164,136.5125322036743,98.9527005493164Q136.26453220367432,98.0278005493164,135.9765322036743,97.59240054931641Q135.79953220367432,97.32460054931641,135.67653220367433,97.3140005493164Q135.65653220367432,97.32710054931641,135.62853220367433,97.3567005493164Q135.51053220367433,97.48150054931641,135.3815322036743,97.7624005493164Q135.08753220367433,98.40240054931641,134.8285322036743,99.6753005493164Q134.31853220367432,102.1804005493164,134.00753220367432,106.8080005493164Q133.40053220367432,115.8269005493164,133.67653220367433,128.9226005493164Q133.9535322036743,142.1175005493164,134.97753220367431,152.01750054931642Z" fill-rule="evenodd" fill="#515151" fill-opacity="1"/></g><g><path d="M53.270831454467775,96.41535845947266C53.270831454467775,102.26135845947266,48.59483145446777,106.98935845947265,42.840431454467776,106.98935845947265C37.08603145446777,106.98935845947265,32.41013145446777,102.26135845947266,32.41013145446777,96.41535845947266C32.41013145446777,90.56885845947265,37.08603145446777,85.84085845947266,42.840431454467776,85.84085845947266C48.59483145446777,85.84085845947266,53.270831454467775,90.56885845947265,53.270831454467775,96.41535845947266Z" fill="#FFFFFF" fill-opacity="1"/><path d="M47.09473145446778,86.21137745947266Q45.063231454467775,85.34085845947266,42.840431454467776,85.34085845947266Q40.61762145446777,85.34085845947266,38.58612145446777,86.21137845947266Q36.624231454467775,87.05206845947265,35.11155145446777,88.58440845947266Q33.59886145446777,90.11675845947266,32.769247454467774,92.10397845947266Q31.910131454467773,94.16186845947266,31.910131454467773,96.41535845947266Q31.910131454467773,98.66865845947265,32.76925145446777,100.72645845947265Q33.598871454467776,102.71355845947265,35.111561454467775,104.24585845947266Q36.62426145446777,105.77815845947265,38.586131454467775,106.61885845947265Q40.61763145446777,107.48935845947265,42.840431454467776,107.48935845947265Q45.063231454467775,107.48935845947265,47.09473145446778,106.61885845947265Q49.05663145446778,105.77815845947265,50.56933145446777,104.24585845947266Q52.082031454467774,102.71355845947265,52.91173145446777,100.72645845947265Q53.770831454467775,98.66865845947265,53.770831454467775,96.41535845947266Q53.770831454467775,94.16185845947265,52.91173145446777,92.10397845947266Q52.082031454467774,90.11674845947266,50.56933145446777,88.58440845947266Q49.05663145446778,87.05206845947265,47.09473145446778,86.21137745947266ZM38.980001454467775,87.13053845947266Q40.822851454467774,86.34085845947266,42.840431454467776,86.34085845947266Q44.85803145446778,86.34085845947266,46.70093145446778,87.13054845947265Q48.48263145446778,87.89404845947266,49.857731454467775,89.28693845947265Q51.23403145446777,90.68113845947266,51.988931454467775,92.48922845947266Q52.770831454467775,94.36221845947266,52.770831454467775,96.41535845947266Q52.770831454467775,98.46825845947265,51.988931454467775,100.34115845947265Q51.23403145446777,102.14915845947266,49.857731454467775,103.54335845947266Q48.48263145446778,104.93615845947267,46.70093145446778,105.69965845947266Q44.85803145446778,106.48935845947265,42.840431454467776,106.48935845947265Q40.82286145446777,106.48935845947265,38.97999145446777,105.69965845947266Q37.19824145446778,104.93615845947267,35.82320145446777,103.54335845947266Q34.446891454467774,102.14915845947266,33.69205145446777,100.34115845947265Q32.91013145446777,98.46835845947265,32.91013145446777,96.41535845947266Q32.91013145446777,94.36222845947266,33.692061454467776,92.48922845947266Q34.446891454467774,90.68113845947266,35.823211454467774,89.28693845947265Q37.19823145446777,87.89404845947266,38.980001454467775,87.13053845947266Z" fill-rule="evenodd" fill="#515151" fill-opacity="1"/></g><g><path d="M44.16263356628418,85.983062725C50.34043356628418,86.568961625,48.72243356628418,98.286315625,44.75093356628418,103.560315625C41.870633566284184,107.384315625,43.57963356628418,110.69231562499999,45.65793356628418,114.714315625C46.08153356628418,115.534315625,46.52043356628418,116.384315625,46.93883356628418,117.273315625C48.89833356628418,120.14231562500001,50.03303356628418,123.544315625,50.03303356628418,127.19231562499999C50.03303356628418,137.439315625,41.082733566284176,145.745315625,30.04193356628418,145.745315625C19.00113356628418,145.745315625,10.05073356628418,137.439315625,10.05073356628418,127.19231562499999C10.05073356628418,119.304315625,15.35523356628418,112.566315625,22.83433356628418,109.882315625C30.13773356628418,105.843315625,32.41783356628418,101.807315625,32.68953356628418,94.771365625C32.92483356628418,88.678265625,37.98483356628418,85.397155625,44.16263356628418,85.983062725Z" fill-rule="evenodd" fill="#515151" fill-opacity="1"/></g><g mask="url(#master_svg0_69_1106)"><g><g><path d="M7.05073356628418,127.19231562499999C7.05073356628418,139.303315625,17.55913356628418,148.745315625,30.04193356628418,142.745315625L30.04193356628418,148.745315625C42.52463356628418,148.745315625,53.03303356628418,139.303315625,53.03303356628418,127.19231562499999C53.03303356628418,122.99421562500001,51.75073356628418,119.081315625,49.55233356628418,115.782915625C49.13783356628418,114.913515625,48.71153356628418,114.089115625,48.32313356628418,113.337315625C47.22483356628418,111.211315625,46.52783356628418,109.804315625,46.29703356628418,108.529315625C46.11563356628418,107.526315625,46.22123356628418,106.59431562500001,47.14723356628418,105.364315625C49.55173356628418,102.172315625,51.11353356628418,97.309315625,51.26083356628418,93.119315625C51.33473356628418,91.015865625,51.06663356628418,88.752155625,50.08253356628418,86.853955625C49.02013356628418,84.804965625,47.13153356628418,83.250861625,44.44573356628418,82.996162425C40.78033356628418,82.648559625,37.20123356628418,83.425361625,34.42883356628418,85.449255625C31.59393356628418,87.518765625,29.84343356628418,90.726765625,29.69183356628418,94.655315625C29.56743356628418,97.877315625,28.99553356628418,100.06131562499999,27.86493356628418,101.845315625C26.74343356628418,103.614215625,24.87683356628418,105.298615625,21.58603356628418,107.144115625C13.18498356628418,110.259715625,7.05073356628418,117.972115625,7.05073356628418,127.19231562499999Z" fill="#515151" fill-opacity="1"/></g></g></g><g><path d="M49.24033400878906,98.14135675048828C49.24033400878906,99.83235675048829,47.80873400878906,101.23635675048828,46.00103400878906,101.23635675048828C44.193334008789066,101.23635675048828,42.76173400878906,99.83235675048829,42.76173400878906,98.14135675048828C42.76173400878906,96.44935675048828,44.193334008789066,95.04535675048828,46.00103400878906,95.04535675048828C47.80873400878906,95.04535675048828,49.24033400878906,96.44935675048828,49.24033400878906,98.14135675048828Z" fill="#FFFFFF" fill-opacity="1"/><path d="M48.645474008789066,95.59877775048828Q47.552054008789064,94.54535675048828,46.00103400878906,94.54535675048828Q44.450024008789065,94.54535675048828,43.35659300878906,95.59877675048828Q42.26173400878906,96.65357675048828,42.26173400878906,98.14135675048828Q42.26173400878906,99.62849675048828,43.35663300878906,100.68309675048828Q44.450134008789064,101.73635675048828,46.00103400878906,101.73635675048828Q47.55193400878906,101.73635675048828,48.64543400878906,100.68309675048828Q49.74033400878906,99.62849675048828,49.74033400878906,98.14135675048828Q49.74033400878906,96.65357675048828,48.645474008789066,95.59877775048828ZM44.050404008789066,96.31893675048828Q44.853364008789065,95.54535675048828,46.00103400878906,95.54535675048828Q47.148714008789064,95.54535675048828,47.951664008789066,96.31893675048828Q48.74033400878906,97.07874675048828,48.74033400878906,98.14135675048828Q48.74033400878906,99.20326675048828,47.951704008789065,99.96286675048827Q47.14866400878906,100.73635675048828,46.00103400878906,100.73635675048828Q44.85340400878906,100.73635675048828,44.05036400878906,99.96286675048827Q43.26173400878906,99.20325675048828,43.26173400878906,98.14135675048828Q43.26173400878906,97.07874675048828,44.050404008789066,96.31893675048828Z" fill-rule="evenodd" fill="#515151" fill-opacity="1"/></g><g><path d="M32.26663400878906,87.25905588378906C32.26663400878906,89.09056588378907,30.725834008789064,90.64895588378906,28.732934008789062,90.64895588378906C26.740034008789063,90.64895588378906,25.199234008789062,89.09056588378907,25.199234008789062,87.25905588378906C25.199234008789062,85.42755588378907,26.740034008789063,83.86915588378906,28.732934008789062,83.86915588378906C30.725834008789064,83.86915588378906,32.26663400878906,85.42755588378907,32.26663400878906,87.25905588378906Z" fill="#515151" fill-opacity="1"/><path d="M32.29434400878906,83.80336468378906Q30.823554008789063,82.36915588378906,28.732934008789062,82.36915588378906Q26.64231400878906,82.36915588378906,25.171524308789063,83.80336468378906Q23.699234008789062,85.23903588378906,23.699234008789062,87.25905588378906Q23.699234008789062,89.27907588378906,25.171525108789062,90.71475588378907Q26.64231400878906,92.14895588378906,28.732934008789062,92.14895588378906Q30.823554008789063,92.14895588378906,32.29434400878906,90.71475588378907Q33.76663400878906,89.27907588378906,33.76663400878906,87.25905588378906Q33.76663400878906,85.23904588378906,32.29434400878906,83.80336468378906ZM27.265974008789062,85.95122588378906Q27.862884008789063,85.36915588378906,28.732934008789062,85.36915588378906Q29.60298400878906,85.36915588378906,30.199894008789062,85.95122588378906Q30.76663400878906,86.50386588378906,30.76663400878906,87.25905588378906Q30.76663400878906,88.01424588378906,30.199904008789062,88.56688588378907Q29.60298400878906,89.14895588378906,28.732934008789062,89.14895588378906Q27.862884008789063,89.14895588378906,27.265964008789062,88.56688588378907Q26.699234008789062,88.01424588378906,26.699234008789062,87.25905588378906Q26.699234008789062,86.50386588378906,27.265974008789062,85.95122588378906Z" fill-rule="evenodd" fill="#515151" fill-opacity="1"/></g><g><path d="M143.00631571972656,152.0940825488281Q144.09360271972656,153.41439254882812,146.91048271972656,154.39269254882814L147.23856271972656,153.4480425488281Q144.68700271972656,152.56189254882813,143.77825271972657,151.45838254882813Q142.79663671972656,150.26639254882812,142.86931071972657,147.8554271488281L141.86976471972656,147.82529794882814Q141.78576671972655,150.61195254882813,143.00631571972656,152.0940825488281Z" fill-rule="evenodd" fill="#515151" fill-opacity="1"/></g></g></svg>