<svg xmlns="http://www.w3.org/2000/svg" xmlns:xlink="http://www.w3.org/1999/xlink" fill="none" version="1.1" width="187.406494140625" height="188.9921875" viewBox="0 0 187.406494140625 188.9921875"><g><g><path d="M94.702880859375,186.48309130859374C100.917880859375,185.92509130859375,103.403880859375,177.28409130859376,105.061880859375,171.43109130859375L110.033880859375,186.48309130859374L94.702880859375,186.48309130859374Z" fill="#000000" fill-opacity="1"/><path d="M83.542480859375,186.98309130859374L110.033880859375,186.98309130859374L110.725580859375,186.98309130859374L105.025180859375,169.72598130859376L104.58081085937499,171.29481630859374Q103.717470859375,174.34254130859375,103.144860859375,176.01147130859374Q102.194950859375,178.78009130859374,101.151690859375,180.70441130859376Q98.474570859375,185.64249130859375,94.658169359375,185.98509130859375L83.542480859375,186.98309130859374ZM109.342180859375,185.98309130859374L105.094580859375,173.12419130859374Q104.515460859375,175.09808130859375,104.090740859375,176.33599130859375Q103.113790859375,179.18343130859375,102.030810859375,181.18102130859376Q100.197390859375,184.56279130859375,97.809870859375,185.98309130859374L109.342180859375,185.98309130859374Z" fill-rule="evenodd" fill="#000000" fill-opacity="1"/></g><g><path d="M97.927855859375,57.47041489257813C93.986855859375,52.43981489257813,95.978855859375,43.65181489257812,105.272755859375,34.436294892578125C118.252755859375,22.554094892578124,130.801755859375,25.181489892578124,131.389755859375,25.455989892578124C131.977755859375,25.730489892578124,144.393755859375,34.515494892578126,156.214755859375,46.760814892578125C168.036755859375,59.00601489257812,180.407755859375,69.49301489257812,180.559755859375,86.29591489257812C180.712755859375,103.09911489257813,163.300755859375,109.18111489257812,150.527755859375,109.25711489257813C137.754755859375,109.33311489257812,109.250755859375,108.97511489257812,103.775755859375,108.06311489257813C100.340855859375,112.57011489257812,94.877855859375,117.44111489257813,92.863155859375,118.49711489257813C97.089855859375,122.12911489257813,112.180755859375,137.47351489257812,113.995755859375,140.71351489257813C115.810755859375,143.95451489257812,123.717755859375,155.23251489257814,120.087755859375,172.99251489257813C118.424755859375,181.13051489257813,111.918755859375,185.29751489257814,105.196755859375,186.60451489257812Q95.990855859375,186.55251489257813,92.863155859375,186.60451489257812C85.086855859375,186.73451489257812,4.843375859375,186.60451489257812,2.509995859375,186.60451489257812C0.17658885937500002,186.60451489257812,-0.49621114062500005,184.51151489257813,2.509995859375,178.40651489257812C5.516175859375,172.30151489257813,16.599655859375,153.03851489257812,22.408155859375,149.60051489257813C24.719655859375,148.29651489257813,29.941155859375,151.67051489257813,31.038555859375,152.4525148925781C32.064755859375,153.18351489257813,33.059855859375,154.04651489257813,34.482255859375,153.92851489257814C35.904755859375,153.80951489257814,43.321055859375,153.77651489257812,45.690555859375,153.85351489257812C41.405255859375,150.85351489257812,25.657355859375,136.16851489257812,23.732955859375,129.02351489257813C22.203655859375,123.34511489257812,24.033655859375,120.06511489257812,24.846355859375,119.30811489257813C16.317755859374998,114.32011489257812,7.639675859375,104.41611489257812,11.035455859375,89.70081489257812C11.987955859375,85.57311489257813,14.566655859375,81.27301489257812,16.489055859375,80.03431489257812C20.104255859375,77.70481489257813,32.370855859375,76.52741489257812,39.809255859375,75.84811489257812C72.507055859375,72.86201489257812,146.994755859375,73.94411489257813,149.256755859375,73.96561489257812C146.138755859375,71.59051489257813,134.057755859375,58.033914892578125,133.776755859375,57.57731489257812C133.003755859375,59.789914892578125,129.948755859375,62.599614892578124,127.665755859375,62.283514892578125C125.639755859375,62.00301489257812,124.512755859375,58.83021489257813,126.856755859375,53.80351489257812C126.049755859375,54.62781489257813,125.210755859375,55.410214892578125,124.365755859375,56.096814892578124C123.121755859375,57.10851489257813,121.561755859375,57.315814892578125,120.995755859375,56.096814892578124C120.496755859375,55.02461489257813,120.662755859375,52.980214892578125,121.814755859375,50.25621489257813C120.582755859375,51.418314892578124,119.355755859375,52.38331489257813,118.253755859375,52.94141489257812C114.564755859375,54.808114892578125,113.652755859375,47.708414892578126,118.594755859375,41.66651489257812C111.491755859375,45.138814892578125,109.477755859375,47.97511489257813,107.713755859375,52.134914892578124C106.626755859375,54.698914892578124,106.242755859375,57.04941489257813,103.251755859375,58.37861489257813C100.957755859375,59.39831489257813,99.036855859375,58.88661489257812,97.927855859375,57.47041489257813Z" fill="#FFFFFF" fill-opacity="1"/></g><g><path d="M118.897755859375,42.08731489257812Q123.433755859375,40.38401489257812,124.886755859375,38.44751489257813Q125.465755859375,37.676014892578124,125.505755859375,36.93411489257812Q125.539755859375,36.28611489257813,125.196755859375,35.894614892578126Q124.530755859375,35.133914892578126,121.829755859375,37.369114892578125Q119.399755859375,39.38031489257813,118.241755859375,41.28281489257812Q113.284755859375,43.72371489257813,110.792755859375,46.29491489257812Q108.755755859375,48.396914892578124,107.253755859375,51.939714892578124Q107.063755859375,52.38831489257812,106.732755859375,53.25411489257813Q105.995755859375,55.181414892578125,105.449755859375,55.97581489257813Q104.579755859375,57.241114892578125,103.048755859375,57.92171489257812Q101.525755859375,58.59891489257812,100.241655859375,58.347314892578126Q99.069755859375,58.117614892578125,98.321555859375,57.162114892578124Q96.919055859375,55.37181489257813,96.601655859375,52.97921489257813Q96.276455859375,50.52821489257812,97.117055859375,47.663414892578125Q98.951655859375,41.410614892578124,105.617755859375,34.798424892578126Q113.679755859375,27.421954892578125,123.059755859375,25.880763892578123Q126.085755859375,25.383461892578126,128.852755859375,25.571276892578126Q129.788755859375,25.634845892578124,130.544755859375,25.768100892578126Q131.077755859375,25.862206892578126,131.178755859375,25.909054892578126Q131.472755859375,26.046514892578124,133.557755859375,27.581364892578126Q136.237755859375,29.553844892578127,139.275755859375,32.00825489257812Q148.379755859375,39.36371489257812,155.854755859375,47.108014892578126Q157.159755859375,48.459214892578125,159.766755859375,51.103714892578125Q164.961755859375,56.372714892578124,167.350755859375,59.026614892578124Q171.303755859375,63.41741489257812,173.807755859375,67.18361489257813Q176.785755859375,71.66241489257813,178.311755859375,76.09311489257811Q180.012755859375,81.03021489257813,180.059755859375,86.30041489257812Q180.112755859375,92.14411489257813,177.302755859375,96.69921489257813Q174.791755859375,100.76921489257812,170.129755859375,103.62271489257813Q165.965755859375,106.17201489257812,160.510755859375,107.51481489257813Q155.586755859375,108.72701489257813,150.524755859375,108.75711489257813Q138.792755859375,108.82691489257813,124.425755859375,108.53071489257813Q109.126755859375,108.21521489257813,104.668755859375,107.68301489257813Q107.409755859375,103.86941489257812,109.129755859375,100.82781489257812Q111.476755859375,96.67651489257813,112.568755859375,92.90731489257813L111.608755859375,92.62901489257813Q110.548755859375,96.28591489257812,108.258755859375,100.33561489257812Q106.417755859375,103.59191489257813,103.374755859375,107.76411489257812Q100.980755859375,110.90511489257813,97.445555859375,114.20891489257812Q94.330755859375,117.11991489257812,92.737355859375,117.99711489257813L82.265355859375,117.99711489257813Q76.850555859375,112.32601489257813,69.851755859375,106.37561489257813Q65.070255859375,102.31041489257812,60.763755859375,99.10711489257812L66.154155859375,99.10711489257812L66.154155859375,98.10711489257812L59.401655859375,98.10711489257812Q55.581555859375,95.35141489257812,52.466255859375,94.29721489257813Q50.240255859375,93.54391489257813,47.783155859375,93.54391489257813Q46.371555859375,93.54391489257813,45.423155859375,93.90101489257812Q44.403055859375,94.28521489257813,44.127555859375,94.99701489257812Q43.819055859375,95.79401489257812,44.525955859375,96.55871489257812Q45.138455859375,97.22121489257813,46.448055859375,97.71221489257813Q50.131655859375,99.09451489257812,59.076855859375,99.10701489257812Q63.837055859375,102.57461489257813,69.204055859375,107.13751489257812Q76.258355859375,113.13511489257813,81.688855859375,118.84161489257812L81.688955859375,118.84181489257813Q82.982555859375,120.20191489257813,84.138455859375,121.49801489257813Q87.115755859375,124.83451489257813,89.154455859375,127.64251489257812Q92.741855859375,132.5845148925781,93.141455859375,135.38251489257811Q93.415155859375,137.2985148925781,93.185755859375,140.15951489257813Q92.948855859375,143.11551489257812,92.243155859375,146.15951489257813Q90.725355859375,152.70551489257812,88.014955859375,156.08051489257812Q86.790555859375,157.60551489257813,85.921555859375,158.25351489257812Q85.277955859375,158.7335148925781,85.001255859375,158.65651489257812Q84.825455859375,158.6085148925781,84.728855859375,158.14751489257813Q84.597655859375,157.52351489257813,84.723755859375,156.45251489257814Q84.911755859375,154.85451489257812,85.586155859375,152.44151489257814Q86.209355859375,151.0895148925781,86.804255859375,149.55451489257814Q88.034055859375,146.3805148925781,88.267655859375,144.97851489257812Q88.343255859375,144.5245148925781,88.035755859375,144.33751489257813Q87.669755859375,144.11451489257814,87.374555859375,144.4475148925781Q87.324155859375,144.50451489257813,87.273055859375,144.59251489257812Q87.149755859375,144.80251489257813,86.918755859375,145.3635148925781Q86.424555859375,146.56451489257813,85.793655859375,148.42451489257815Q85.110755859375,150.43851489257813,84.645755859375,152.09251489257812Q83.728455859375,154.07351489257812,82.752155859375,155.64151489257813Q81.295355859375,157.98051489257813,79.973255859375,158.55151489257813Q79.041955859375,158.95251489257814,78.477855859375,158.3045148925781Q77.842555859375,157.57351489257812,78.551155859375,154.46351489257813Q78.576755859375,154.35151489257814,78.588255859375,154.29951489257812Q78.765755859375,153.51251489257814,79.049655859375,152.58351489257814Q79.964955859375,150.92251489257814,80.760355859375,149.05251489257813Q81.867255859375,146.44951489257812,82.188355859375,145.00451489257813Q82.288455859375,144.55451489257814,81.952855859375,144.3635148925781Q81.538655859375,144.12651489257814,81.231255859375,144.57451489257812Q81.117655859375,144.73951489257814,80.903155859375,145.1735148925781Q80.452155859375,146.08551489257812,79.845455859375,147.5415148925781Q78.748955859375,150.17251489257814,78.124755859375,152.18951489257813Q77.255255859375,153.75651489257814,76.276655859375,155.12651489257811Q75.331855859375,156.44951489257812,74.206955859375,157.24651489257812Q73.173155859375,157.97951489257812,72.329555859375,158.04151489257814Q71.604155859375,158.09351489257813,71.259255859375,157.58351489257814Q70.810355859375,156.91951489257812,70.982955859375,155.47651489257814Q71.251855859375,153.22851489257812,72.900155859375,149.10451489257812Q73.112055859375,148.74851489257813,73.324455859375,148.37351489257813Q75.188055859375,145.08851489257813,75.938955859375,142.77251489257813Q76.027055859375,142.5005148925781,76.020155859375,142.35751489257814Q76.010755859375,142.16351489257812,75.883055859375,142.0245148925781Q75.642955859375,141.76451489257812,75.313555859375,141.90051489257814Q75.177855859375,141.95651489257813,75.067555859375,142.0945148925781Q74.918655859375,142.28151489257812,74.593655859375,142.90151489257812Q73.881655859375,144.26151489257813,72.964055859375,146.36451489257814Q72.437355859375,147.5725148925781,72.002155859375,148.65851489257813Q69.872655859375,152.22251489257812,67.852755859375,153.79551489257813Q66.580555859375,154.7865148925781,65.724655859375,154.77751489257813Q65.116955859375,154.77151489257812,64.881355859375,154.17651489257813Q64.522855859375,153.26951489257812,65.162955859375,151.00251489257812Q65.461155859375,149.94651489257814,66.471255859375,147.63951489257812Q67.191355859375,145.99551489257811,67.499555859375,145.16451489257813Q68.023755859375,143.75151489257814,68.204555859375,142.6425148925781Q68.678255859375,139.73751489257813,66.971155859375,137.7865148925781Q65.264055859375,135.83551489257812,60.608855859375,133.78451489257813Q57.819655859375,132.55551489257812,50.930455859375,130.1185148925781Q46.577155859375,128.57851489257814,44.395455859375,127.75251489257812Q39.449355859375,125.88051489257812,33.186355859375,122.91871489257812Q28.554555859375,120.72851489257812,25.090855859375,118.87181489257813Q21.700555859375,116.88781489257812,18.957055859375,114.28431489257812Q15.864355859375,111.34931489257812,13.903855859375,107.90481489257813Q9.239015859375,99.70921489257813,11.522655859375,89.81321489257813Q12.202655859375,86.86661489257813,13.831955859375,84.03341489257812Q15.378155859375,81.34491489257812,16.759855859375,80.45461489257812Q19.041155859375,78.98471489257813,26.789955859375,77.81681489257812Q31.465155859375,77.11211489257812,39.854755859375,76.34601489257813Q59.608255859375,74.54201489257812,102.982755859375,74.29391489257813Q125.273755859375,74.16651489257814,148.573755859375,74.45741489257813Q148.893755859375,74.46141489257812,149.063755859375,74.46341489257813Q150.581755859375,75.81431489257812,152.210755859375,76.88691489257812Q153.360755859375,77.64411489257813,154.071755859375,77.85781489257812Q154.588755859375,78.01311489257813,154.946755859375,77.89831489257813Q155.473755859375,77.72911489257812,155.555755859375,77.13531489257812Q155.831755859375,75.13841489257813,153.312755859375,74.15611489257813Q151.661755859375,73.51221489257813,149.431755859375,73.46811489257811Q147.376755859375,71.83581489257813,140.820755859375,64.71341489257813Q138.435755859375,62.122114892578125,136.249755859375,59.66421489257812Q134.299755859375,57.472914892578125,134.202755859375,57.315214892578126L133.651755859375,56.419814892578124L133.304755859375,57.41241489257813Q132.733755859375,59.045914892578125,130.970755859375,60.492014892578126Q129.150755859375,61.984314892578126,127.734755859375,61.788214892578125Q127.067755859375,61.695914892578124,126.630755859375,61.08901489257813Q126.128755859375,60.39151489257812,126.056755859375,59.21041489257812Q125.920755859375,56.989614892578125,127.249755859375,54.12731489257813Q129.202755859375,52.135814892578125,131.234755859375,49.474614892578124Q132.460755859375,47.86861489257812,133.296755859375,46.56011489257813Q133.661755859375,45.98971489257812,133.846755859375,45.63331489257813Q134.220755859375,44.915314892578124,133.820755859375,44.629814892578125Q133.140755859375,44.144814892578125,131.687755859375,45.63571489257812Q129.957755859375,47.41031489257813,127.491755859375,51.54861489257813Q126.877755859375,52.57791489257812,126.418755859375,53.54641489257813Q125.216755859375,54.76011489257813,124.050755859375,55.708814892578125Q123.199755859375,56.40031489257812,122.405755859375,56.433714892578124Q121.716755859375,56.46271489257812,121.449755859375,55.886214892578124Q120.897755859375,54.69991489257812,121.649755859375,52.17591489257812Q121.879755859375,51.403114892578124,122.213755859375,50.59101489257813Q124.163755859375,48.742414892578125,126.448755859375,45.90541489257812Q128.165755859375,43.774314892578126,129.364755859375,41.94781489257812Q129.901755859375,41.12881489257812,130.166755859375,40.614214892578126Q130.612755859375,39.74721489257813,130.202755859375,39.42831489257813Q129.540755859375,38.91331489257813,127.996755859375,40.32941489257813Q126.346755859375,41.84231489257812,124.161755859375,45.03811489257812Q122.363755859375,47.669014892578126,121.370755859375,50.01451489257812Q119.526755859375,51.737014892578124,118.027755859375,52.49531489257812Q116.996755859375,53.017214892578124,116.398755859375,52.453214892578124Q115.736755859375,51.82771489257813,115.687755859375,50.25411489257813Q115.632755859375,48.497314892578125,116.406755859375,46.41371489257813Q117.256755859375,44.124014892578124,118.897755859375,42.08731489257812ZM123.731755859375,47.573914892578124Q124.665755859375,46.52551489257813,125.670755859375,45.278114892578124Q127.356755859375,43.18511489257813,128.528755859375,41.39921489257813Q128.696755859375,41.143114892578126,128.834755859375,40.920714892578125Q128.755755859375,40.99021489257812,128.672755859375,41.06651489257813Q127.106755859375,42.501614892578125,124.987755859375,45.60231489257812Q124.297755859375,46.611414892578125,123.731755859375,47.573914892578124ZM120.677755859375,51.93491489257812Q119.508755859375,52.86641489257812,118.479755859375,53.387514892578125Q116.820755859375,54.22671489257813,115.712755859375,53.18041489257813Q114.749755859375,52.271514892578125,114.687755859375,50.285214892578125Q114.627755859375,48.332714892578124,115.468755859375,46.065614892578125Q116.045755859375,44.513814892578125,116.958755859375,43.07471489257813Q113.435755859375,45.00561489257812,111.511755859375,46.99081489257813Q109.603755859375,48.959014892578125,108.173755859375,52.33011489257812Q107.990755859375,52.76241489257812,107.666755859375,53.611214892578126Q106.886755859375,55.64961489257813,106.273755859375,56.54211489257813Q105.244755859375,58.04021489257813,103.454755859375,58.835514892578125Q101.642755859375,59.640914892578124,100.049355859375,59.32861489257812Q98.512055859375,59.027314892578126,97.534255859375,57.778614892578126Q95.963555859375,55.77371489257813,95.610255859375,53.11071489257813Q95.257355859375,50.449814892578125,96.157455859375,47.38191489257812Q98.065655859375,40.87861489257813,104.920755859375,34.08124489257813L104.927755859375,34.07421489257813L104.935755859375,34.06748489257812Q113.218755859375,26.484114892578123,122.897755859375,24.893993892578123Q126.038755859375,24.377910892578125,128.919755859375,24.573573892578125Q130.981755859375,24.713519892578127,131.601755859375,25.002931892578125Q131.985755859375,25.182367892578124,134.150755859375,26.775984892578126Q136.848755859375,28.761864892578124,139.903755859375,31.230424892578124Q149.055755859375,38.62461489257812,156.574755859375,46.41351489257812Q157.874755859375,47.759914892578124,160.478755859375,50.401614892578124Q165.689755859375,55.686514892578124,168.094755859375,58.35761489257813Q172.096755859375,62.80281489257813,174.640755859375,66.63001489257812Q177.689755859375,71.21561489257812,179.257755859375,75.76741489257813Q181.010755859375,80.85841489257812,181.059755859375,86.29131489257813Q181.115755859375,92.42361489257813,178.153755859375,97.22431489257812Q175.516755859375,101.49751489257812,170.651755859375,104.47561489257812Q166.355755859375,107.10601489257813,160.749755859375,108.48581489257812Q155.710755859375,109.72631489257813,150.530755859375,109.75711489257813Q138.784755859375,109.82691489257813,124.404755859375,109.53051489257813Q108.075755859375,109.19371489257813,103.991755859375,108.60251489257813Q101.594755859375,111.69981489257812,98.128355859375,114.93951489257813Q95.365655859375,117.52151489257812,93.715155859375,118.57671489257812Q97.356055859375,121.79641489257813,104.693755859375,129.4045148925781Q113.140755859375,138.16351489257812,114.431755859375,140.46851489257813Q114.573755859375,140.7215148925781,114.965755859375,141.38351489257812Q116.454755859375,143.89651489257812,117.360755859375,145.77251489257813Q118.979755859375,149.12251489257812,119.968755859375,152.60551489257813Q122.757755859375,162.42751489257813,120.577755859375,173.09251489257812Q119.371755859375,178.99451489257814,114.858755859375,182.74451489257814Q110.945755859375,185.99551489257811,105.292755859375,187.09451489257813L105.243755859375,187.10451489257812L105.193755859375,187.10451489257812Q95.991255859375,187.05251489257813,92.863755859375,187.10451489257812L47.962255859375,187.15451489257813L2.509995859375,187.10451489257812Q1.418196859375,187.10451489257812,0.779658859375,186.56351489257813Q0.08366385937499998,185.97351489257812,0.008706859374999987,184.82751489257814Q-0.13403614062500002,182.64351489257814,2.061425859375,178.1855148925781Q3.352205859375,175.56351489257813,5.636335859375,171.56551489257814Q8.296335859374999,166.90851489257813,10.987955859375,162.73251489257814Q18.233855859375,151.48951489257814,22.162455859375,149.16451489257813Q23.862955859375,148.20551489257812,27.383655859375,149.78751489257814Q29.489655859375,150.73451489257812,31.328655859375,152.04451489257812Q31.440455859375,152.12451489257813,31.661555859375,152.28551489257814Q32.542455859375,152.92751489257813,33.005555859375,153.14651489257812Q33.728455859375,153.48851489257814,34.440555859375,153.4295148925781Q35.494555859375,153.34151489257812,39.728355859375,153.31751489257812Q42.427055859375,153.30151489257813,44.152755859375,153.32151489257814Q42.617855859375,152.10351489257812,40.386855859375,150.08351489257814Q36.810055859375,146.84351489257813,33.464655859375,143.33751489257813Q24.555955859375,134.00151489257814,23.250155859375,129.15351489257813Q22.218655859375,125.32351489257813,22.923755859375,122.20981489257812Q23.328055859375,120.42491489257813,24.072355859375,119.42881489257813Q20.886355859375,117.49381489257813,18.268755859375,115.00961489257813Q15.068555859375,111.97271489257813,13.034755859375,108.39951489257813Q8.176845859375,99.86461489257813,10.548255859375,89.58831489257813Q11.261655859375,86.49691489257813,12.965155859375,83.53491489257812Q14.632355859375,80.63581489257813,16.218255859375,79.61401489257813Q18.679855859375,78.02781489257814,26.640955859375,76.82791489257812Q31.345055859375,76.11891489257812,39.763855859375,75.35011489257812Q59.559855859375,73.54231489257813,102.977755859375,73.29391489257813Q124.940755859375,73.16821489257813,147.881755859375,73.44871489257812Q145.474755859375,71.24661489257812,140.084755859375,65.39061489257813Q135.310755859375,60.20351489257813,133.904755859375,58.54131489257812Q133.161755859375,59.988114892578125,131.604755859375,61.265314892578125Q129.446755859375,63.034814892578126,127.597755859375,62.77871489257812Q126.506755859375,62.627714892578126,125.819755859375,61.67321489257812Q125.148755859375,60.741114892578125,125.058755859375,59.271514892578125Q124.958755859375,57.646514892578125,125.547755859375,55.74941489257813Q125.111755859375,56.134314892578125,124.681755859375,56.484714892578126Q123.573755859375,57.38551489257812,122.447755859375,57.43281489257812Q121.091755859375,57.48991489257813,120.542755859375,56.30731489257812Q119.836755859375,54.78941489257812,120.677755859375,51.93491489257812ZM24.955955859375,119.93351489257813Q24.759855859375,120.19051489257812,24.557855859375,120.57801489257812Q24.134855859375,121.38991489257812,23.899055859375,122.43071489257812Q23.248655859375,125.30251489257813,24.215755859375,128.89351489257814Q24.864355859375,131.30151489257813,27.773655859375,135.19551489257813Q30.280955859375,138.55251489257813,34.188155859375,142.64751489257813Q37.508355859375,146.12651489257814,41.058155859375,149.34151489257812Q44.144755859375,152.1375148925781,45.855355859375,153.35751489257814Q46.491355859375,153.37151489257812,47.898355859375,153.35651489257813Q51.541155859375,153.31751489257812,53.340055859375,153.50651489257814Q56.568355859375,153.8465148925781,57.872955859375,155.02551489257812Q58.736355859375,155.8045148925781,58.929955859375,156.78451489257813Q59.119155859375,157.74051489257812,58.624355859375,158.55151489257813Q58.129855859375,159.36151489257813,57.150455859375,159.68851489257813Q56.134855859375,160.02651489257812,54.886455859375,159.72351489257812Q52.799255859375,159.21751489257812,49.953255859375,157.4535148925781Q48.398155859375,156.49051489257812,46.126155859375,154.79351489257812Q45.722655859375,154.49251489257813,45.523355859375,154.34851489257812Q43.675955859375,154.29451489257812,39.734155859375,154.31751489257812Q35.539455859375,154.34151489257812,34.523955859375,154.42651489257813Q33.543255859375,154.50751489257811,32.577555859375,154.05051489257812Q32.029555859375,153.79051489257813,31.072755859375,153.09351489257813Q30.856155859375,152.93651489257815,30.748455859375,152.85951489257812Q28.989655859375,151.6065148925781,26.973655859375,150.69951489257812Q23.913955859375,149.32451489257812,22.653855859375,150.03551489257814Q18.946455859375,152.23051489257813,11.828455859375,163.27351489257813Q9.151325859375,167.42751489257813,6.504665859375,172.06151489257812Q4.235855859375,176.03351489257813,2.958565859375,178.62651489257811Q0.881288859375,182.84551489257814,1.006576859375,184.76151489257813Q1.0943298593750002,186.10451489257812,2.509995859375,186.10451489257812L47.963355859375,186.15451489257813L92.862655859375,186.10451489257812Q95.977055859375,186.05251489257813,105.149755859375,186.10351489257812Q110.520755859375,185.04951489257812,114.219755859375,181.97551489257813Q118.462755859375,178.45051489257813,119.597755859375,172.89151489257813Q121.728755859375,162.46651489257812,119.006755859375,152.87851489257812Q118.041755859375,149.47951489257812,116.460755859375,146.20751489257813Q115.572755859375,144.36951489257814,114.105755859375,141.89351489257814Q113.706755859375,141.22051489257814,113.559755859375,140.95751489257813Q112.331755859375,138.76551489257812,103.973755859375,130.09951489257813Q96.269455859375,122.11011489257812,92.677255859375,118.99711489257813L83.209255859375,118.99711489257813Q84.079755859375,119.92991489257813,84.884555859375,120.83221489257812Q93.443455859375,130.4235148925781,94.131455859375,135.24151489257812Q94.420855859375,137.2675148925781,94.182555859375,140.23951489257814Q93.950755859375,143.13151489257814,93.282055859375,146.1015148925781Q96.048255859375,148.6905148925781,98.130055859375,151.9645148925781Q100.837755859375,156.2215148925781,101.465755859375,160.37351489257813Q102.291755859375,165.82451489257812,100.604755859375,170.55651489257812Q98.409155859375,176.71251489257813,91.892755859375,182.17751489257813L91.250255859375,181.41051489257814Q97.558455859375,176.12151489257812,99.662655859375,170.22051489257814Q101.265755859375,165.72551489257813,100.477555859375,160.52251489257813Q99.880155859375,156.57951489257812,97.286255859375,152.5005148925781Q95.430355859375,149.58251489257813,93.013755859375,147.22851489257812Q91.467455859375,153.37851489257812,88.794655859375,156.70751489257813Q86.142155859375,160.01051489257813,84.734655859375,159.62051489257811Q83.387755859375,159.24751489257812,83.730655859375,156.33551489257812Q83.758055859375,156.1025148925781,83.795155859375,155.85351489257812Q83.698155859375,156.01451489257812,83.600955859375,156.17051489257813Q81.978755859375,158.7745148925781,80.369455859375,159.46951489257813Q78.766955859375,160.16051489257814,77.723155859375,158.96051489257812Q77.065655859375,158.2035148925781,77.187755859375,156.52651489257812Q77.223955859375,156.0305148925781,77.349155859375,155.33951489257814Q77.220655859375,155.52551489257812,77.090355859375,155.70751489257813Q76.047655859375,157.1675148925781,74.785355859375,158.06251489257812Q73.523955859375,158.95651489257813,72.402055859375,159.03851489257812Q71.099655859375,159.13251489257811,70.430855859375,158.14351489257814Q69.773255859375,157.17051489257813,69.990055859375,155.35751489257814Q70.138755859375,154.11451489257811,70.676555859375,152.35351489257812Q69.563955859375,153.73051489257813,68.467255859375,154.5845148925781Q66.919455859375,155.79051489257813,65.714155859375,155.77751489257813Q64.434655859375,155.76451489257812,63.951355859375,154.54351489257812Q63.468655859375,153.3225148925781,64.200555859375,150.7315148925781Q64.517555859375,149.6085148925781,65.555255859375,147.2385148925781Q66.968055859375,144.01151489257813,67.217555859375,142.4815148925781Q67.615455859375,140.0415148925781,66.218555859375,138.44551489257813Q64.657755859375,136.6615148925781,60.205655859375,134.69951489257812Q57.450755859375,133.48651489257813,50.596955859375,131.06151489257815Q46.573255859375,129.6375148925781,44.396155859375,128.82151489257814Q42.609655859375,131.20651489257813,40.814455859375,132.42651489257813Q38.026255859375,134.3225148925781,33.489355859375,135.03551489257814L33.334155859375,134.04751489257814Q37.649455859375,133.36951489257814,40.252255859375,131.59951489257813Q41.824455859375,130.53051489257814,43.422055859375,128.45051489257813Q38.669755859375,126.61751489257813,32.758955859375,123.82271489257812Q28.327855859375,121.72751489257813,24.955955859375,119.93351489257813ZM47.222455859375,154.36151489257813Q49.133755859375,155.76951489257812,50.480055859375,156.60351489257812Q53.190355859375,158.28351489257813,55.122355859375,158.75251489257812Q56.091255859375,158.98751489257813,56.834255859375,158.73951489257811Q57.466655859375,158.52851489257813,57.770755859375,158.0305148925781Q58.062555859375,157.55251489257813,57.948955859375,156.97851489257812Q57.819755859375,156.32451489257812,57.202655859375,155.76751489257813Q56.139755859375,154.80751489257813,53.235255859375,154.50151489257811Q51.493755859375,154.31751489257812,47.909055859375,154.35651489257813Q47.538755859375,154.35951489257812,47.222455859375,154.36151489257813ZM129.986755859375,49.454514892578125Q130.212755859375,49.165314892578124,130.439755859375,48.86771489257812Q131.203755859375,47.867814892578124,131.810755859375,46.98891489257812Q130.980755859375,47.96641489257813,129.986755859375,49.454514892578125ZM150.715755859375,74.55461489257812Q151.714755859375,75.36311489257812,152.760755859375,76.05161489257813Q153.788755859375,76.72841489257812,154.359755859375,76.90001489257813Q154.495755859375,76.94101489257812,154.571755859375,76.94891489257813Q154.696755859375,75.76901489257813,152.949755859375,75.08771489257813Q151.958755859375,74.70131489257813,150.715755859375,74.55461489257812ZM57.634855859375,98.09561489257813Q54.635955859375,96.08721489257813,52.145755859375,95.24441489257812Q50.075655859375,94.54391489257813,47.783155859375,94.54391489257813Q46.553655859375,94.54391489257813,45.775555859375,94.83691489257812Q45.174155859375,95.06341489257812,45.060155859375,95.35801489257813Q44.976855859375,95.57321489257812,45.260255859375,95.87981489257812Q45.711755859375,96.36811489257812,46.799355859375,96.77601489257812Q50.017355859375,97.98351489257813,57.634855859375,98.09561489257813ZM119.979755859375,40.573514892578125Q123.037755859375,39.245414892578125,124.086755859375,37.84741489257813Q124.483755859375,37.31911489257813,124.506755859375,36.880914892578126Q124.510755859375,36.803814892578124,124.505755859375,36.74271489257812Q124.356755859375,36.80761489257812,124.147755859375,36.92831489257813Q123.429755859375,37.343614892578124,122.467755859375,38.13951489257813Q120.959755859375,39.38781489257813,119.979755859375,40.573514892578125Z" fill-rule="evenodd" fill="#515151" fill-opacity="1"/></g><g><path d="M109.89487908935547,186.62209338378906L104.71987908935547,170.95509338378906L104.59587908935546,171.39208938378906C103.76687908935547,174.32209338378905,102.73487908935547,177.93010338378906,101.13787908935547,180.87610338378906C99.53887908935548,183.82409338378906,97.39587908935547,186.07209338378905,94.35887908935547,186.34409338378907L94.37088008935547,186.62209338378906L109.89487908935547,186.62209338378906Z" fill-rule="evenodd" fill="#515151" fill-opacity="1"/></g><g><path d="M116.37188262939453,131.8480987548828L121.46588262939453,141.3250887548828L114.01588262939453,141.3250887548828L108.92188262939453,131.8480987548828L116.37188262939453,131.8480987548828Z" fill-rule="evenodd" fill="#C6CACD" fill-opacity="1"/></g><g><path d="M98.04688262939453,135.9720916748047L131.99688262939452,135.9720916748047L146.82288262939454,163.40409167480468L112.87288262939452,163.40409167480468L98.04688262939453,135.9720916748047Z" fill="#FFFFFF" fill-opacity="1"/><path d="M97.20829762939454,135.4720916748047L112.43298262939453,163.6417916748047L112.57478262939453,163.90409167480468L147.66148262939453,163.90409167480468L132.29498262939453,135.4720916748047L97.20829762939454,135.4720916748047ZM113.17098262939453,162.90409167480468L98.88546762939453,136.4720916748047L131.69878262939454,136.4720916748047L145.98428262939453,162.90409167480468L113.17098262939453,162.90409167480468Z" fill-rule="evenodd" fill="#515151" fill-opacity="1"/></g><g><path d="M177.0718758544922,149.63108825683594L133.4758758544922,149.63108825683594L133.4758758544922,188.49208825683593L177.0718758544922,188.49208825683593L177.0718758544922,149.63108825683594Z" fill="#E6E8EA" fill-opacity="1"/><path d="M132.9758758544922,188.99208825683593L132.9758758544922,149.13108825683594L177.5718758544922,149.13108825683594L177.5718758544922,188.99208825683593L132.9758758544922,188.99208825683593ZM176.5718758544922,150.13108825683594L133.9758758544922,150.13108825683594L133.9758758544922,187.99208825683593L176.5718758544922,187.99208825683593L176.5718758544922,150.13108825683594Z" fill-rule="evenodd" fill="#515151" fill-opacity="1"/></g><g><path d="M133.81988525390625,149.18809875488282L143.10588525390625,132.3480987548828L186.55988525390626,132.3480987548828L177.27388525390626,149.18809875488282L133.81988525390625,149.18809875488282Z" fill="#E6E8EA" fill-opacity="1"/><path d="M132.97319325390626,149.68809875488282L177.56918525390626,149.68809875488282L187.40658525390626,131.8480987548828L142.81061525390624,131.8480987548828L132.97319325390626,149.68809875488282ZM176.97858525390626,148.68809875488282L134.66657725390624,148.68809875488282L143.40114525390624,132.8480987548828L185.71318525390626,132.8480987548828L176.97858525390626,148.68809875488282Z" fill-rule="evenodd" fill="#515151" fill-opacity="1"/></g><g><path d="M133.36387823486328,149.63108825683594L105.17987823486328,149.63108825683594L105.17987823486328,188.49208825683593L133.36387823486328,188.49208825683593L133.36387823486328,149.63108825683594Z" fill="#E6E8EA" fill-opacity="1"/><path d="M104.67987823486328,188.99208825683593L104.67987823486328,149.13108825683594L133.86387823486328,149.13108825683594L133.86387823486328,188.99208825683593L104.67987823486328,188.99208825683593ZM132.86387823486328,150.13108825683594L105.67987823486328,150.13108825683594L105.67987823486328,187.99208825683593L132.86387823486328,187.99208825683593L132.86387823486328,150.13108825683594Z" fill-rule="evenodd" fill="#515151" fill-opacity="1"/></g><g><path d="M160.5078779296875,149.40908399414062L164.4098779296875,142.44009399414062L158.2778779296875,142.44009399414062L154.6868739296875,148.85209399414063L154.3748779296875,148.85209399414063L154.3748779296875,149.40908399414062L154.3748779296875,162.23109399414062L160.5078779296875,162.23109399414062L160.5078779296875,149.40908399414062Z" fill-rule="evenodd" fill="#515151" fill-opacity="1"/></g><g><path d="M72.70137936096191,33.1711Q72.70137936096191,33.9854,72.66137936096192,34.7987Q72.62147936096191,35.612,72.54167936096191,36.4224Q72.46187936096192,37.2328,72.34237936096191,38.0383Q72.22287936096191,38.8438,72.06397936096191,39.6425Q71.90517936096191,40.4411,71.70727936096192,41.231Q71.50937936096192,42.0209,71.27307936096192,42.8002Q71.03667936096191,43.5794,70.76227936096191,44.3461Q70.48797936096192,45.1128,70.17637936096192,45.8651Q69.8647793609619,46.6174,69.51657936096191,47.3536Q69.16837936096192,48.0897,68.78457936096191,48.8078Q68.40067936096192,49.526,67.9820793609619,50.2244Q67.56337936096192,50.9229,67.11097936096192,51.6Q66.65857936096191,52.277,66.17357936096192,52.9311Q65.6884793609619,53.5852,65.17187936096192,54.2146Q64.65527936096191,54.8441,64.10837936096192,55.4474Q63.561579360961915,56.0508,62.985779360961914,56.6266Q62.40997936096191,57.2024,61.80657936096191,57.7493Q61.203279360961915,58.2961,60.573779360961915,58.8127Q59.944279360961914,59.3293,59.29027936096191,59.8144Q58.63617936096191,60.2994,57.959079360961915,60.7519Q57.282079360961916,61.2043,56.58357936096191,61.6229Q55.885179360961914,62.0415,55.16697936096191,62.4254Q54.44887936096191,62.8092,53.712679360961914,63.1574Q52.976579360961914,63.5056,52.224279360961916,63.8172Q51.47197936096192,64.1288,50.70527936096192,64.4031Q49.93857936096192,64.6775,49.15927936096191,64.9139Q48.380079360961915,65.1502,47.59017936096191,65.3481Q46.800279360961916,65.5459,46.00157936096191,65.7048Q45.20297936096191,65.8637,44.39747936096192,65.9832Q43.591979360961915,66.1026,42.78157936096191,66.1825Q41.97117936096191,66.2623,41.157879360961914,66.3022Q40.344579360961916,66.3422,39.53027936096191,66.3422Q38.715879360961914,66.3422,37.902579360961916,66.3022Q37.08927936096191,66.2623,36.27887936096191,66.1825Q35.468479360961915,66.1026,34.66297936096191,65.9832Q33.85747936096192,65.8637,33.05887936096191,65.7048Q32.260179360961914,65.5459,31.470279360961914,65.3481Q30.680379360961915,65.1502,29.901179360961915,64.9138Q29.121879360961913,64.6775,28.355179360961912,64.4031Q27.588479360961912,64.1288,26.836179360961914,63.8172Q26.083879360961912,63.5056,25.347779360961916,63.1574Q24.611579360961915,62.8092,23.893479360961916,62.4254Q23.175279360961913,62.0415,22.476879360961913,61.6229Q21.778379360961914,61.2043,21.101279360961914,60.7519Q20.424279360961915,60.2994,19.77017936096191,59.8144Q19.116179360961915,59.3293,18.486679360961915,58.8127Q17.857179360961915,58.2961,17.253879360961914,57.7493Q16.650479360961913,57.2024,16.074679360961916,56.6266Q15.498879360961913,56.0508,14.952029360961914,55.4474Q14.405169360961914,54.8441,13.888579360961913,54.2146Q13.371989360961914,53.5851,12.886909360961914,52.9311Q12.401829360961914,52.277,11.949429360961915,51.6Q11.497019360961914,50.9229,11.078389360961914,50.2244Q10.659749360961914,49.526,10.275889360961914,48.8078Q9.892029360961914,48.0897,9.543869360961914,47.3536Q9.195699360961914,46.6174,8.884079360961914,45.8651Q8.572459360961915,45.1128,8.298129360961914,44.3461Q8.023799360961913,43.5794,7.7874193609619144,42.8002Q7.551039360961914,42.0209,7.353177360961914,41.231Q7.155316360961914,40.4411,6.996453360961914,39.6425Q6.837590360961914,38.8438,6.718107360961914,38.0383Q6.5986233609619145,37.2328,6.518807360961914,36.4224Q6.438991560961914,35.612,6.3990354609619144,34.7987Q6.359079360961914,33.9854,6.359079360961914,33.1711Q6.359079360961914,32.3568,6.3990354609619144,31.5435Q6.438991560961914,30.7301,6.518807360961914,29.9198Q6.5986233609619145,29.1094,6.718107360961914,28.3039Q6.837590360961914,27.4984,6.996453360961914,26.6997Q7.155316360961914,25.9011,7.353177360961914,25.1112Q7.551039360961914,24.3213,7.7874193609619144,23.542Q8.023799360961913,22.7628,8.298129360961914,21.9961Q8.572459360961915,21.2294,8.884079360961914,20.4771Q9.195699360961914,19.7247,9.543869360961914,18.9886Q9.892029360961914,18.2525,10.275889360961914,17.5343Q10.659749360961914,16.8162,11.078389360961914,16.1177Q11.497019360961914,15.4193,11.949429360961915,14.7422Q12.401829360961914,14.0652,12.886909360961914,13.4111Q13.371989360961914,12.757,13.888579360961913,12.1276Q14.405169360961914,11.4981,14.952029360961914,10.8947Q15.498879360961913,10.2914,16.074679360961916,9.71559Q16.650479360961913,9.13979,17.253879360961914,8.59293Q17.857179360961915,8.04608,18.486679360961915,7.52949Q19.116179360961915,7.0129,19.77017936096191,6.52782Q20.424279360961915,6.04274,21.101279360961914,5.59034Q21.778379360961914,5.13793,22.476879360961913,4.7193Q23.175279360961913,4.30066,23.893479360961916,3.9168Q24.611579360961915,3.53294,25.347779360961916,3.18478Q26.083879360961912,2.83662,26.836179360961914,2.525Q27.588479360961912,2.21338,28.355179360961912,1.93905Q29.121879360961913,1.66472,29.901179360961915,1.42834Q30.680379360961915,1.19196,31.470279360961914,0.994096Q32.260179360961914,0.796236,33.05887936096191,0.637373Q33.85747936096192,0.47851,34.66297936096191,0.359027Q35.468479360961915,0.239544,36.27887936096191,0.159728Q37.08927936096191,0.0799121,37.902579360961916,0.039956Q38.715879360961914,0,39.53027936096191,0Q40.344579360961916,0,41.157879360961914,0.039956Q41.97117936096191,0.0799121,42.78157936096191,0.159728Q43.591979360961915,0.239544,44.39747936096192,0.359027Q45.20297936096191,0.47851,46.00157936096191,0.637373Q46.800279360961916,0.796236,47.59017936096191,0.994096Q48.380079360961915,1.19196,49.15927936096191,1.42834Q49.93857936096192,1.66472,50.70527936096192,1.93905Q51.47197936096192,2.21338,52.224279360961916,2.525Q52.976579360961914,2.83662,53.712679360961914,3.18478Q54.44887936096191,3.53294,55.16697936096191,3.9168Q55.885179360961914,4.30066,56.58357936096191,4.7193Q57.282079360961916,5.13793,57.959079360961915,5.59034Q58.63617936096191,6.04274,59.29027936096191,6.52782Q59.944279360961914,7.0129,60.573779360961915,7.52949Q61.203279360961915,8.04608,61.80657936096191,8.59293Q62.40997936096191,9.13979,62.985779360961914,9.71559Q63.561579360961915,10.2914,64.10837936096192,10.8947Q64.65527936096191,11.4981,65.17187936096192,12.1276Q65.6884793609619,12.757,66.17357936096192,13.4111Q66.65857936096191,14.0652,67.11097936096192,14.7422Q67.56337936096192,15.4193,67.9820793609619,16.1177Q68.40067936096192,16.8162,68.78457936096191,17.5343Q69.16837936096192,18.2525,69.51657936096191,18.9886Q69.8647793609619,19.7247,70.17637936096192,20.4771Q70.48797936096192,21.2294,70.76227936096191,21.9961Q71.03667936096191,22.7628,71.27307936096192,23.542Q71.50937936096192,24.3213,71.70727936096192,25.1112Q71.90517936096191,25.9011,72.06397936096191,26.6997Q72.22287936096191,27.4984,72.34237936096191,28.3039Q72.46187936096192,29.1094,72.54167936096191,29.9198Q72.62147936096191,30.7301,72.66137936096192,31.5435Q72.70137936096191,32.3568,72.70137936096191,33.1711Z" fill="#EAF5FF" fill-opacity="1"/></g><g><path d="M42.801876193237305,42.16161195068359C44.573676193237304,41.71161195068359,45.6761761932373,40.06351195068359,45.26687619323731,38.28191195068359C44.988076193237305,37.068311950683594,45.538376193237305,35.872711950683595,46.40557619323731,34.979111950683595C49.433076193237305,31.859311950683594,51.4905761932373,27.201511950683596,50.068976193237305,22.201891950683596C49.32037619323731,19.484991950683593,47.2991761932373,17.106091950683595,44.6390761932373,15.605191950683594C41.734876193237305,14.005589950683595,38.1658761932373,13.699689950683593,34.7632761932373,14.739188950683594L34.591876193237304,14.811990950683594C28.815376193237306,16.779891950683595,26.290880193237303,21.866691950683595,26.336278915237305,26.775511950683594C26.355279893237306,28.822811950683594,28.455576193237306,29.980611950683596,30.424876193237303,29.420611950683593C32.42867619323731,28.850811950683592,33.397576193237306,26.614111950683593,34.059176193237306,24.638711950683593C34.4502761932373,23.471091950683594,35.31607619323731,22.407491950683593,36.9879761932373,21.887091950683594C38.946376193237306,21.258191950683596,40.338676193237305,21.678791950683593,41.14397619323731,22.146191950683594C42.022076193237304,22.785091950683594,42.728676193237305,23.496691950683594,42.92097619323731,24.426511950683594C43.76817619323731,26.899211950683593,42.0958761932373,29.632011950683594,40.1842761932373,30.848011950683595C37.5010761932373,32.53041195068359,37.15787619323731,36.32621195068359,37.727176193237305,39.6382119506836C38.0881761932373,41.7388119506836,40.2722761932373,42.80411195068359,42.338076193237306,42.279411950683595L42.801876193237305,42.16161195068359ZM42.8274761932373,45.31531195068359C44.979976193237306,44.618011950683595,47.2901761932373,45.797811950683595,47.987476193237306,47.95031195068359C48.68467619323731,50.102811950683595,47.504976193237304,52.4130119506836,45.35247619323731,53.11021195068359C43.199976193237305,53.80751195068359,40.8897761932373,52.62781195068359,40.192476193237304,50.4753119506836C39.4952761932373,48.322811950683594,40.674976193237306,46.01251195068359,42.8274761932373,45.31531195068359Z" fill-rule="evenodd" fill="#0871F0" fill-opacity="1"/></g><g><path d="M92.5892798034668,77.07418823257812L92.4787798034668,77.06448364257812L92.44447980346679,77.16998264257812C91.6583798034668,79.59138364257812,90.7878798034668,82.40208364257812,90.9258798034668,85.20518364257812C91.0644798034668,88.01928364257813,92.2187798034668,90.81868364257812,95.4588798034668,93.21378364257812C98.62387980346679,95.55308364257813,102.0368798034668,94.99008364257813,104.6438798034668,93.05448364257812C107.2448798034668,91.12448364257813,109.0618798034668,87.81968364257813,109.0618798034668,84.63248364257812C109.0618798034668,83.38289364257813,108.2478798034668,82.31318364257812,107.0148798034668,81.41318364257812C105.7798798034668,80.51118364257812,104.0978798034668,79.75928364257813,102.2998798034668,79.14788364257812C98.7028798034668,77.92448464257812,94.60587980346679,77.25128964257813,92.5892798034668,77.07418823257812ZM109.7698798034668,98.76208364257812C108.4398798034668,101.86508364257813,105.1418798034668,106.44308364257813,103.6548798034668,108.34708364257813L103.7698798034668,108.20108364257813L109.01087980346679,108.57308364257813L109.0478798034668,108.49308364257813C109.2798798034668,108.00108364257812,109.45687980346679,107.29908364257813,109.5948798034668,106.49408364257812C109.7328798034668,105.68708364257813,109.83187980346679,104.76508364257813,109.9008798034668,103.83008364257813C110.0388798034668,101.96008364257813,110.0598798034668,100.02508364257812,110.0368798034668,98.81408364257813L109.7698798034668,98.76208364257812ZM24.814379803466796,118.76908364257812L24.653779803466797,118.66708364257812L23.320079803466797,123.70508364257813L23.4302788034668,123.75308364257813C27.824679803466797,125.65008364257812,37.541579803466796,127.80508364257813,44.51987980346679,128.36308364257812L44.5817798034668,128.09508364257812C36.805279803466796,125.05308364257812,28.387579803466796,121.02808364257812,24.814379803466796,118.76908364257812Z" fill-rule="evenodd" fill="#515151" fill-opacity="1"/></g><g><path d="M74.89039745361328,48.886109709472656Q81.13997745361328,53.78278970947265,82.10137745361328,60.709489709472656L83.09197745361328,60.57208970947266Q82.07497745361329,53.24492970947266,75.50717745361328,48.098949709472656Q73.00211745361328,46.136219709472655,69.95078745361329,44.72101970947266Q67.41178745361329,43.543440809472656,65.09869245361328,42.99870370947266L64.86946245361328,43.972075709472655Q67.08342745361328,44.493469709472656,69.53004745361328,45.62819970947265Q72.47641745361328,46.994719709472655,74.89039745361328,48.886109709472656Z" fill-rule="evenodd" fill="#515151" fill-opacity="1"/></g><g><path d="M112.40588426513672,80.70668952636719Q112.40588426513672,80.96118952636719,112.39338426513672,81.21538952636719Q112.38088426513671,81.46958952636719,112.35598426513673,81.7227895263672Q112.33098426513672,81.97608952636719,112.29368426513672,82.22778952636719Q112.25628426513671,82.47958952636719,112.20668426513672,82.7291895263672Q112.15698426513671,82.9787895263672,112.09518426513672,83.22558952636719Q112.03338426513672,83.47248952636718,111.95948426513672,83.71598952636718Q111.88558426513671,83.95958952636718,111.79988426513671,84.19918952636719Q111.71408426513672,84.43878952636719,111.61668426513671,84.67388952636719Q111.51938426513672,84.9089895263672,111.41048426513672,85.13908952636719Q111.30168426513671,85.36908952636719,111.18178426513671,85.59358952636718Q111.06178426513672,85.81798952636719,110.93098426513671,86.03628952636718Q110.80008426513672,86.25458952636718,110.65868426513671,86.46618952636719Q110.51728426513672,86.67778952636719,110.36568426513672,86.88218952636718Q110.21408426513672,87.08658952636719,110.05268426513672,87.28328952636718Q109.89118426513672,87.47998952636719,109.72028426513671,87.66858952636719Q109.54938426513672,87.8571895263672,109.36938426513672,88.03708952636718Q109.18948426513671,88.21708952636719,109.00088426513672,88.38798952636719Q108.81228426513673,88.55888952636718,108.61558426513672,88.7202895263672Q108.41888426513671,88.88178952636719,108.21448426513672,89.03338952636719Q108.01008426513673,89.18498952636719,107.79838426513672,89.3263895263672Q107.58678426513671,89.46778952636718,107.36858426513672,89.59858952636719Q107.15028426513672,89.72938952636719,106.92578426513671,89.84938952636719Q106.70138426513672,89.9693895263672,106.47128426513672,90.07818952636718Q106.24118426513672,90.18698952636719,106.00608426513672,90.28438952636719Q105.77098426513672,90.38178952636719,105.53138426513672,90.46748952636719Q105.29168426513672,90.55318952636719,105.04818426513671,90.62708952636719Q104.80468426513671,90.70098952636718,104.55778426513672,90.76278952636719Q104.31088426513672,90.8246895263672,104.06128426513672,90.87428952636719Q103.81168426513672,90.92388952636719,103.55998426513672,90.96128952636718Q103.30818426513672,90.99858952636718,103.05498426513672,91.02358952636719Q102.80168426513671,91.04848952636719,102.54748426513672,91.0609895263672Q102.29328426513672,91.07348952636718,102.03878426513671,91.07348952636718Q101.78428426513672,91.07348952636718,101.53009426513671,91.0609895263672Q101.27590426513672,91.04848952636719,101.02263426513672,91.02358952636719Q100.76935426513671,90.99858952636718,100.51761426513671,90.96128952636718Q100.26587426513672,90.92388952636719,100.01626426513673,90.87428952636719Q99.76665426513672,90.8246895263672,99.51978426513672,90.76278952636719Q99.27291426513672,90.70098952636718,99.02937426513672,90.62708952636719Q98.78583426513671,90.55318952636719,98.54621426513671,90.46748952636719Q98.30659426513672,90.38178952636719,98.07146426513671,90.28438952636719Q97.83634426513672,90.18698952636719,97.60627426513672,90.07818952636718Q97.37621426513672,89.9693895263672,97.15176426513672,89.84938952636719Q96.92732426513672,89.72938952636719,96.70902426513672,89.59858952636719Q96.49073426513672,89.46778952636718,96.27913426513672,89.3263895263672Q96.06752426513671,89.18498952636719,95.86311426513672,89.03338952636719Q95.65869426513672,88.88178952636719,95.46196426513671,88.7202895263672Q95.26523426513671,88.55888952636718,95.07666426513671,88.38798952636719Q94.88809426513671,88.21708952636719,94.70813426513672,88.03708952636718Q94.52818426513672,87.8571895263672,94.35727426513672,87.66858952636719Q94.18635426513671,87.47998952636719,94.02490426513671,87.28328952636718Q93.86345426513672,87.08658952636719,93.71185426513672,86.88218952636718Q93.56024426513672,86.67778952636719,93.41885426513672,86.46618952636719Q93.27746426513671,86.25458952636718,93.14662426513672,86.03628952636718Q93.01578426513672,85.81798952636719,92.89581426513672,85.59358952636718Q92.77584426513671,85.36908952636719,92.66703626513672,85.13908952636719Q92.55822526513671,84.9089895263672,92.46083226513672,84.67388952636719Q92.36344026513672,84.43878952636719,92.27770226513672,84.19918952636719Q92.19196526513672,83.95958952636718,92.11808826513672,83.71598952636718Q92.04421126513672,83.47248952636718,91.98237326513672,83.22558952636719Q91.92053526513672,82.9787895263672,91.87088526513672,82.7291895263672Q91.82123526513672,82.47958952636719,91.78389226513671,82.22778952636719Q91.74654986513671,81.97608952636719,91.72160466513672,81.7227895263672Q91.69665946513672,81.46958952636719,91.68417186513672,81.21538952636719Q91.67168426513672,80.96118952636719,91.67168426513672,80.70668952636719Q91.67168426513672,80.45218952636719,91.68417186513672,80.19800952636719Q91.69665946513672,79.94382952636718,91.72160466513672,79.69055952636718Q91.74654986513671,79.43729952636718,91.78389226513671,79.18555952636719Q91.82123526513672,78.93382952636719,91.87088526513672,78.68422952636719Q91.92053526513672,78.43462952636719,91.98237326513672,78.18775952636719Q92.04421126513672,77.94089952636719,92.11808826513672,77.6973595263672Q92.19196526513672,77.45382952636719,92.27770226513672,77.21421952636719Q92.36344026513672,76.97459952636719,92.46083226513672,76.7394895263672Q92.55822526513671,76.50436952636719,92.66703626513672,76.27430952636719Q92.77584426513671,76.04424952636718,92.89581426513672,75.81980952636718Q93.01578426513672,75.5953695263672,93.14662426513672,75.37708952636719Q93.27746426513671,75.15879952636719,93.41885426513672,74.94719952636719Q93.56024426513672,74.73559952636718,93.71185426513672,74.53118952636719Q93.86345426513672,74.32677952636719,94.02490426513671,74.13005952636719Q94.18635426513671,73.93333952636719,94.35727426513672,73.7447695263672Q94.52818426513672,73.55620952636718,94.70813426513672,73.37624952636719Q94.88809426513671,73.19629952636718,95.07666426513671,73.02539952636718Q95.26523426513671,72.85448952636719,95.46196426513671,72.69304952636719Q95.65869426513672,72.53159952636719,95.86311426513672,72.37999952636719Q96.06752426513671,72.22839952636718,96.27913426513672,72.08700952636718Q96.49073426513672,71.94561952636718,96.70902426513672,71.81478952636719Q96.92732426513672,71.68394952636719,97.15176426513672,71.56398952636718Q97.37621426513672,71.44401952636719,97.60627426513672,71.33521352636718Q97.83634426513672,71.22640452636719,98.07146426513671,71.12901452636719Q98.30659426513672,71.0316255263672,98.54621426513671,70.9458905263672Q98.78583426513671,70.8601555263672,99.02937426513672,70.7862805263672Q99.27291426513672,70.71240552636719,99.51978426513672,70.65056952636719Q99.76665426513672,70.58873352636719,100.01626426513673,70.53908452636719Q100.26587426513672,70.48943552636719,100.51761426513671,70.45209452636719Q100.76935426513671,70.41475292636719,101.02263426513672,70.38980852636719Q101.27590426513672,70.36486402636719,101.53009426513671,70.35237682636719Q101.78428426513672,70.33988952636719,102.03878426513671,70.33988952636719Q102.29328426513672,70.33988952636719,102.54748426513672,70.35237682636719Q102.80168426513671,70.36486402636719,103.05498426513672,70.38980852636719Q103.30818426513672,70.41475292636719,103.55998426513672,70.45209452636719Q103.81168426513672,70.48943552636719,104.06128426513672,70.53908452636719Q104.31088426513672,70.58873352636719,104.55778426513672,70.65056952636719Q104.80468426513671,70.71240552636719,105.04818426513671,70.7862805263672Q105.29168426513672,70.8601555263672,105.53138426513672,70.9458905263672Q105.77098426513672,71.0316255263672,106.00608426513672,71.12901452636719Q106.24118426513672,71.22640452636719,106.47128426513672,71.33521252636719Q106.70138426513672,71.44401952636719,106.92578426513671,71.56398952636718Q107.15028426513672,71.68394952636719,107.36858426513672,71.81478952636719Q107.58678426513671,71.94561952636718,107.79848426513672,72.08700952636718Q108.01008426513673,72.22839952636718,108.21448426513672,72.37999952636719Q108.41888426513671,72.53159952636719,108.61558426513672,72.69303952636719Q108.81228426513673,72.85448952636719,109.00088426513672,73.02539952636718Q109.18948426513671,73.19629952636718,109.36938426513672,73.37624952636719Q109.54938426513672,73.55620952636718,109.72028426513671,73.7447695263672Q109.89118426513672,73.93333952636719,110.05268426513672,74.13005952636719Q110.21408426513672,74.32677952636719,110.36568426513672,74.53118952636719Q110.51728426513672,74.73559952636718,110.65868426513671,74.94719952636719Q110.80008426513672,75.15879952636719,110.93098426513671,75.37708952636719Q111.06178426513672,75.5953695263672,111.18178426513671,75.81980952636718Q111.30168426513671,76.04424952636718,111.41048426513672,76.27430952636719Q111.51938426513672,76.50436952636719,111.61668426513671,76.7394895263672Q111.71408426513672,76.97459952636719,111.79988426513671,77.21421952636719Q111.88558426513671,77.45382952636719,111.95948426513672,77.6973595263672Q112.03338426513672,77.94089952636719,112.09518426513672,78.18775952636719Q112.15698426513671,78.43462952636719,112.20668426513672,78.68422952636719Q112.25628426513671,78.93382952636719,112.29368426513672,79.18555952636719Q112.33098426513672,79.43729952636718,112.35598426513673,79.69055952636718Q112.38088426513671,79.94382952636718,112.39338426513672,80.19800952636719Q112.40588426513672,80.45218952636719,112.40588426513672,80.70668952636719Z" fill="#FFFFFF" fill-opacity="1"/><path d="M112.05158426513671,84.93668952636719Q112.90588426513672,82.91718952636718,112.90588426513672,80.70668952636719Q112.90588426513672,78.49616952636718,112.05158426513671,76.4766395263672Q111.22668426513673,74.52644952636719,109.72278426513672,73.02265952636719Q108.21898426513673,71.51891952636718,106.26868426513671,70.69405052636719Q104.24928426513672,69.83988952636719,102.03888426513672,69.83988952636719Q99.82816426513672,69.83988952636719,97.80858426513672,70.69404652636719Q95.85827426513671,71.51890952636718,94.35448426513672,73.02266952636718Q92.85070426513671,74.52641952636719,92.02583626513672,76.47665952636719Q91.17168426513672,78.49613952636719,91.17168426513672,80.70668952636719Q91.17168426513672,82.91718952636718,92.02583626513672,84.93668952636719Q92.85070426513671,86.88688952636718,94.35448426513672,88.39068952636718Q95.85827426513671,89.89448952636718,97.80858426513672,90.71928952636719Q99.82816426513672,91.57348952636718,102.03888426513672,91.57348952636718Q104.24928426513672,91.57348952636718,106.26868426513671,90.71928952636719Q108.21898426513673,89.89438952636719,109.72278426513672,88.39068952636718Q111.22668426513673,86.88688952636718,112.05158426513671,84.93668952636719ZM111.13058426513672,76.86621952636719Q111.90588426513672,78.6989695263672,111.90588426513672,80.70668952636719Q111.90588426513672,82.71438952636719,111.13058426513672,84.54708952636719Q110.38168426513673,86.31768952636719,109.01568426513671,87.68358952636719Q107.64978426513672,89.04938952636718,105.87918426513671,89.79828952636718Q104.04648426513671,90.57348952636718,102.03888426513672,90.57348952636718Q100.03094426513672,90.57348952636718,98.19811426513672,89.79828952636718Q96.42745426513672,89.04938952636718,95.06158426513672,87.68358952636719Q93.69572426513672,86.31768952636719,92.94684426513672,84.54708952636719Q92.17168426513672,82.71438952636719,92.17168426513672,80.70668952636719Q92.17168426513672,78.69891952636719,92.94684426513672,76.86619952636718Q93.69572426513672,75.09560952636718,95.06158426513672,73.72977952636718Q96.42745426513672,72.36393952636719,98.19811426513672,71.61505952636719Q100.03093426513672,70.83988952636719,102.03888426513672,70.83988952636719Q104.04648426513671,70.83988952636719,105.87918426513671,71.61505952636719Q107.64978426513672,72.36395952636718,109.01568426513671,73.72978952636718Q110.38168426513673,75.09566952636719,111.13058426513672,76.86621952636719Z" fill-rule="evenodd" fill="#515151" fill-opacity="1"/></g><g><path d="M104.74688232421875,80.35819286621094C104.64388232421875,80.15159606621094,104.39288232421875,80.06789396621093,104.18588232421875,80.17119596621093C102.77088232421875,80.87849386621093,101.22988132421875,81.05528986621094,100.65988132421874,81.05528986621094C100.42887832421874,81.05528986621094,100.24188232421875,81.24248786621094,100.24188232421875,81.47339786621093C100.24188232421875,81.70428786621093,100.42887832421874,81.89149786621094,100.65988132421874,81.89149786621094C101.32888232421875,81.89149786621094,103.00488232421876,81.69688786621094,104.55988232421875,80.91919686621094C104.76688232421876,80.81589486621094,104.84988232421875,80.56469686621094,104.74688232421875,80.35819286621094ZM102.08488232421875,83.87369786621093C102.04988232421876,83.38769786621094,102.41488232421875,82.96509786621094,102.90088232421876,82.92979786621093C103.38688232421875,82.89439786621094,103.80988232421875,83.25979786621093,103.84488232421874,83.74579786621094C103.87988232421876,84.23179786621094,103.51487232421874,84.65449786621093,103.02887232421875,84.68979786621094C102.54287232421875,84.72508786621094,102.11988232421875,84.35979786621094,102.08488232421875,83.87369786621093ZM109.18788232421875,82.92938786621093C108.70188232421876,82.96478786621094,108.33688232421875,83.38738786621094,108.37188232421875,83.87338786621093C108.40688232421874,84.35938786621094,108.82988232421874,84.72469786621093,109.31588232421875,84.68938786621094C109.80188232421875,84.65408786621094,110.16688232421875,84.23148786621094,110.13188232421875,83.74548786621094C110.09688232421875,83.25948786621093,109.67388232421875,82.89409786621094,109.18788232421875,82.92938786621093Z" fill-rule="evenodd" fill="#515151" fill-opacity="1"/></g><g><path d="M94.53788015869141,81.80947492675782Q88.80298015869141,75.19239492675781,93.87608015869141,70.78089492675781Q100.49388015869141,64.82549492675781,115.0508501586914,70.33979492675782Q114.8308501586914,77.3980949267578,110.19885015869141,78.28037492675782Q105.78685015869141,78.94207492675781,97.6258801586914,75.85409492675781L94.53788015869141,81.80947492675782Z" fill="#515151" fill-opacity="1"/></g><g><path d="M94.98087874755859,80.48673952636719Q94.98087874755859,80.6167695263672,94.9681387475586,80.74616952636718Q94.9553887475586,80.87557952636719,94.93001874755859,81.00310952636718Q94.9046587475586,81.13063952636719,94.8669087475586,81.25507952636718Q94.8291687475586,81.37950952636719,94.77940874755859,81.49963952636719Q94.7296487475586,81.6197695263672,94.6683487475586,81.73444952636719Q94.6070587475586,81.8491295263672,94.53481874755859,81.95724952636719Q94.4625787475586,82.06535952636719,94.38008874755859,82.16587952636719Q94.2975987475586,82.26638952636719,94.2056487475586,82.35833952636719Q94.11370874755859,82.45028952636719,94.01318874755859,82.5327795263672Q93.91267874755859,82.61526952636719,93.80455874755859,82.6875095263672Q93.69644874755859,82.75974952636719,93.5817687475586,82.82104952636719Q93.4670987475586,82.88233952636719,93.34696874755859,82.93209952636718Q93.22683874755859,82.98185952636719,93.1024087475586,83.01960952636719Q92.9779787475586,83.0573595263672,92.85044874755859,83.08271952636719Q92.7229187475586,83.1080895263672,92.59350874755859,83.12083952636719Q92.4641087475586,83.13357952636719,92.33407874755859,83.13357952636719Q92.20404874755859,83.13357952636719,92.0746487475586,83.12083952636719Q91.9452487475586,83.1080895263672,91.81771874755859,83.08271952636719Q91.6901887475586,83.0573595263672,91.56575874755859,83.01960952636719Q91.4413287475586,82.98185952636719,91.3211887475586,82.93209952636718Q91.20105874755859,82.88233952636719,91.08638874755859,82.82104952636719Q90.9717087475586,82.75974952636719,90.8635987475586,82.6875095263672Q90.7554787475586,82.61526952636719,90.65496674755859,82.5327795263672Q90.5544527475586,82.45028952636719,90.46250874755859,82.35833952636719Q90.37056474755859,82.26638952636719,90.2880747475586,82.16587952636719Q90.20558574755859,82.06535952636719,90.1333447475586,81.95724952636719Q90.06110474755859,81.8491295263672,89.9998097475586,81.73444952636719Q89.9385147475586,81.6197695263672,89.8887547475586,81.49963952636719Q89.83899474755859,81.37950952636719,89.80124874755859,81.25507952636718Q89.7635036475586,81.13063952636719,89.7381362475586,81.00310952636718Q89.71276884755859,80.87557952636719,89.7000238475586,80.74616952636718Q89.6872787475586,80.6167695263672,89.6872787475586,80.48673952636719Q89.6872787475586,80.35670952636718,89.7000238475586,80.22729952636719Q89.71276884755859,80.09789952636719,89.7381362475586,79.97035952636719Q89.7635036475586,79.84282952636718,89.80124874755859,79.7183995263672Q89.83899474755859,79.59396952636719,89.8887547475586,79.47382952636718Q89.9385147475586,79.3536995263672,89.9998097475586,79.23901952636719Q90.06110474755859,79.1243395263672,90.1333447475586,79.01622952636718Q90.20558574755859,78.90810952636718,90.2880747475586,78.80759452636718Q90.37056474755859,78.70707852636718,90.46250874755859,78.61513252636719Q90.5544527475586,78.52318652636718,90.65496674755859,78.4406955263672Q90.7554787475586,78.35820552636719,90.8635987475586,78.28596352636718Q90.9717087475586,78.21372252636719,91.08638874755859,78.15242552636718Q91.20105874755859,78.09112952636718,91.3211887475586,78.0413685263672Q91.4413287475586,77.99160752636719,91.56575874755859,77.95386152636719Q91.6901887475586,77.91611572636718,91.81771874755859,77.89074792636718Q91.9452487475586,77.86538012636719,92.0746487475586,77.8526348263672Q92.20404874755859,77.83988952636719,92.33407874755859,77.83988952636719Q92.4641087475586,77.83988952636719,92.59350874755859,77.8526348263672Q92.7229187475586,77.86538012636719,92.85044874755859,77.89074792636718Q92.9779787475586,77.91611572636718,93.1024087475586,77.95386152636719Q93.22683874755859,77.99160752636719,93.34696874755859,78.0413685263672Q93.4670987475586,78.09112952636718,93.5817687475586,78.15242552636718Q93.69644874755859,78.21372252636719,93.80455874755859,78.28596352636718Q93.91267874755859,78.35820552636719,94.01318874755859,78.4406955263672Q94.11370874755859,78.52318652636718,94.2056487475586,78.61513252636719Q94.2975987475586,78.70707852636718,94.38008874755859,78.80759452636718Q94.4625787475586,78.90810952636718,94.53481874755859,79.01622952636718Q94.6070587475586,79.1243395263672,94.6683487475586,79.23901952636719Q94.7296487475586,79.3536995263672,94.77940874755859,79.47382952636718Q94.8291687475586,79.59396952636719,94.8669087475586,79.7183995263672Q94.9046587475586,79.84282952636718,94.93001874755859,79.97035952636719Q94.9553887475586,80.09789952636719,94.9681387475586,80.22729952636719Q94.98087874755859,80.35670952636718,94.98087874755859,80.48673952636719Z" fill="#FFFFFF" fill-opacity="1"/><path d="M94.55925874755859,82.71184952636719Q95.48087874755859,81.79015952636719,95.48087874755859,80.48668952636719Q95.48087874755859,79.18315952636719,94.5592487475586,78.26152252636719Q93.63761874755859,77.33988952636719,92.33407874755859,77.33988952636719Q91.03060874755859,77.33988952636719,90.10895774755859,78.26151752636719Q89.1872787475586,79.18316952636718,89.1872787475586,80.48668952636719Q89.1872787475586,81.79014952636719,90.1089447475586,82.71185952636719Q91.0306287475586,83.63357952636719,92.33407874755859,83.63357952636719Q93.6375987475586,83.63357952636719,94.55925874755859,82.71184952636719ZM93.8521387475586,78.96862952636718Q94.48087874755859,79.59736952636719,94.48087874755859,80.48668952636719Q94.48087874755859,81.37596952636719,93.8521287475586,82.00476952636718Q93.22335874755859,82.63357952636719,92.33407874755859,82.63357952636719Q91.4448587475586,82.63357952636719,90.81606874755859,82.00476952636718Q90.1872787475586,81.3759495263672,90.1872787475586,80.48668952636719Q90.1872787475586,79.59738952636718,90.8160587475586,78.96863952636718Q91.4448187475586,78.33988952636719,92.33407874755859,78.33988952636719Q93.22339874755859,78.33988952636719,93.8521387475586,78.96862952636718Z" fill-rule="evenodd" fill="#515151" fill-opacity="1"/></g></g></svg>