<svg xmlns="http://www.w3.org/2000/svg" xmlns:xlink="http://www.w3.org/1999/xlink" fill="none" version="1.1" width="45" height="26" viewBox="0 0 45 26"><g><g><path d="M29.19412337036133,0.00174163L29.423123370361328,0L29.423123370361328,26L15.576923370361328,26L15.576923370361328,13C15.576923370361328,5.96317,21.531783370361328,0.232186,28.96832337036133,0.00687953L29.19412337036133,0.00174163Z" fill-rule="evenodd" fill="#0871F0" fill-opacity="1"/></g><g><path d="M0.228971,0.00174163L0,0L0,13C0,20.1079,6.07577,25.8835,13.6172,25.9983L13.8462,26L13.8462,13C13.8462,5.96317,7.89129,0.232186,0.45477,0.00687953L0.228971,0.00174163Z" fill-rule="evenodd" fill="#0871F0" fill-opacity="1"/></g><g><path d="M31.153846740722656,1.94261e-31L33.74999674072266,1.94261e-31C39.963206740722654,-1.14304e-15,45.00004674072265,5.04426,45.00004674072265,11.2667C45.00004674072265,17.4891,39.963206740722654,22.5333,33.74999674072266,22.5333L31.153846740722656,22.5333L31.153846740722656,1.94261e-31Z" fill-rule="evenodd" fill="#0871F0" fill-opacity="1"/></g></g></svg>