<svg xmlns="http://www.w3.org/2000/svg" xmlns:xlink="http://www.w3.org/1999/xlink" fill="none" version="1.1" width="120" height="18.1395263671875" viewBox="0 0 120 18.1395263671875"><g><g><g><path d="M20.36798046813965,0.00121509L20.527730468139648,0L20.527730468139648,18.1395L10.867620468139648,18.1395L10.867620468139648,9.06977C10.867620468139648,4.16035,15.022180468139648,0.16199,20.210440468139648,0.00479967L20.36798046813965,0.00121509Z" fill-rule="evenodd" fill="#0871F0" fill-opacity="1"/></g><g><path d="M0.159748,0.00121509L0,0L0,9.06977C0,14.0288,4.23891,18.0582,9.50036,18.1383L9.66011,18.1395L9.66011,9.06977C9.66011,4.16035,5.50555,0.16199,0.317281,0.00479967L0.159748,0.00121509Z" fill-rule="evenodd" fill="#0871F0" fill-opacity="1"/></g><g><path d="M21.735240936279297,1.35531e-31L23.546510936279297,1.35531e-31C27.881300936279295,-7.97468e-16,31.395350936279296,3.51925,31.395350936279296,7.86046C31.395350936279296,12.2017,27.881300936279295,15.7209,23.546510936279297,15.7209L21.735240936279297,15.7209L21.735240936279297,1.35531e-31Z" fill-rule="evenodd" fill="#0871F0" fill-opacity="1"/></g></g><g><path d="M39.76744079589844,10.99637439365387C39.76744079589844,15.29337439365387,42.71562079589844,17.39517439365387,46.295550795898436,17.39517439365387C49.87544079589844,17.39517439365387,52.96404079589844,15.29337439365387,52.96404079589844,10.99637439365387L52.96404079589844,0.9312053936538696L49.66489079589844,0.9312053936538696L49.66489079589844,11.01977439365387C49.66489079589844,13.26167439365387,48.44819079589844,14.42927439365387,46.34234079589844,14.42927439365387C44.25990079589844,14.42927439365387,43.04319079589844,13.26167439365387,43.04319079589844,11.01977439365387L43.04319079589844,0.9312053936538696L39.76744079589844,0.9312053936538696L39.76744079589844,10.99637439365387ZM56.12284079589844,17.23167439365387L59.39854079589844,17.23167439365387L59.39854079589844,0.9312053936538696L56.12284079589844,0.9312053936538696L56.12284079589844,17.23167439365387ZM65.90324079589844,8.334144393653869L65.90324079589844,3.5934643936538695L68.50044079589844,3.5934643936538695C70.34894079589844,3.5934643936538695,71.16784079589844,4.48088439365387,71.16784079589844,5.975484393653869C71.16784079589844,7.423374393653869,70.34894079589844,8.334144393653869,68.50044079589844,8.334144393653869L65.90324079589844,8.334144393653869ZM74.53724079589844,5.975484393653869C74.53724079589844,3.1497543936538697,72.57174079589844,0.9312053936538696,68.64084079589844,0.9312053936538696L62.62754079589844,0.9312053936538696L62.62754079589844,17.23167439365387L65.90324079589844,17.23167439365387L65.90324079589844,10.973074393653869L68.64084079589844,10.973074393653869C72.85254079589843,10.973074393653869,74.53724079589844,8.45091439365387,74.53724079589844,5.975484393653869ZM76.01134079589843,10.71617439365387C76.01134079589843,14.75627439365387,78.63194079589843,17.44187439365387,81.90764079589843,17.44187439365387C83.96674079589843,17.44187439365387,85.44084079589844,16.46107439365387,86.21294079589845,15.34007439365387L86.21294079589845,17.23167439365387L89.51204079589843,17.23167439365387L89.51204079589843,4.2940543936538695L86.21294079589845,4.2940543936538695L86.21294079589845,6.1389543936538695C85.44084079589844,5.064704393653869,84.01354079589844,4.08387439365387,81.93104079589844,4.08387439365387C78.63194079589843,4.08387439365387,76.01134079589843,6.676074393653869,76.01134079589843,10.71617439365387ZM86.21294079589845,10.76287439365387C86.21294079589845,13.21497439365387,84.57504079589845,14.56947439365387,82.77344079589844,14.56947439365387C81.01854079589845,14.56947439365387,79.35724079589843,13.168274393653869,79.35724079589843,10.71617439365387C79.35724079589843,8.26408439365387,81.01854079589845,6.956314393653869,82.77344079589844,6.956314393653869C84.57504079589845,6.956314393653869,86.21294079589845,8.31079439365387,86.21294079589845,10.76287439365387ZM91.87534079589844,10.71617439365387C91.87534079589844,14.75627439365387,94.49594079589843,17.44187439365387,97.77164079589843,17.44187439365387C99.83074079589844,17.44187439365387,101.30484079589843,16.46107439365387,102.07694079589844,15.34007439365387L102.07694079589844,17.23167439365387L105.37604079589843,17.23167439365387L105.37604079589843,4.2940543936538695L102.07694079589844,4.2940543936538695L102.07694079589844,6.1389543936538695C101.30484079589843,5.064704393653869,99.87754079589844,4.08387439365387,97.79504079589844,4.08387439365387C94.49594079589843,4.08387439365387,91.87534079589844,6.676074393653869,91.87534079589844,10.71617439365387ZM102.07694079589844,10.76287439365387C102.07694079589844,13.21497439365387,100.43904079589844,14.56947439365387,98.63744079589844,14.56947439365387C96.88254079589844,14.56947439365387,95.22124079589844,13.168274393653869,95.22124079589844,10.71617439365387C95.22124079589844,8.26408439365387,96.88254079589844,6.956314393653869,98.63744079589844,6.956314393653869C100.43904079589844,6.956314393653869,102.07694079589844,8.31079439365387,102.07694079589844,10.76287439365387ZM120.00004079589844,12.51437439365387C120.00004079589844,6.76948439365387,111.62344079589843,8.59102439365387,111.62344079589843,5.32159439365387C111.62344079589843,3.9904643936538697,112.58274079589843,3.3599343936538695,113.86964079589843,3.4066343936538694C115.27354079589844,3.4299943936538697,116.13924079589843,4.27070439365387,116.20944079589843,5.344944393653869L119.81284079589844,5.344944393653869C119.60224079589844,2.4024543936538696,117.30924079589843,0.6976743936538696,113.96324079589844,0.6976743936538696C110.59394079589843,0.6976743936538696,108.20724079589844,2.47251439365387,108.20724079589844,5.415004393653869C108.18384079589843,11.32337439365387,116.60724079589843,9.19821439365387,116.60724079589843,12.724574393653869C116.60724079589843,13.89217439365387,115.69474079589844,14.70957439365387,114.15044079589843,14.70957439365387C112.62954079589844,14.70957439365387,111.76384079589843,13.84547439365387,111.67024079589844,12.53767439365387L108.16044079589844,12.53767439365387C108.20724079589844,15.620274393653869,110.82784079589844,17.39517439365387,114.22064079589843,17.39517439365387C117.94094079589844,17.39517439365387,120.00004079589844,15.08317439365387,120.00004079589844,12.51437439365387Z" fill="#080808" fill-opacity="1"/></g></g></svg>