<svg xmlns="http://www.w3.org/2000/svg" xmlns:xlink="http://www.w3.org/1999/xlink" fill="none" version="1.1" viewBox="0 0 14.97874641418457 14.978744506835938"><g><path d="M5.9883,1.18977e-7Q6.40349,1.18977e-7,6.69892,0.295423Q6.99434,0.590846,6.99434,1.00604L6.99434,5.9883Q6.99434,6.40349,6.69892,6.69892Q6.40349,6.99434,5.9883,6.99434L1.00604,6.99434Q0.590846,6.99434,0.295423,6.69892Q0,6.40349,0,5.9883L0,1.00604Q0,0.590846,0.295423,0.295423Q0.590846,0,1.00604,0L5.9883,1.18977e-7ZM13.9887,1.18977e-7Q14.4039,1.18977e-7,14.6913,0.295423Q14.9787,0.590846,14.9787,1.00604L14.9787,5.9883Q14.9787,6.40349,14.6913,6.69892Q14.4039,6.99434,13.9887,6.99434L8.99044,6.99434Q8.57525,6.99434,8.27983,6.69892Q7.98441,6.40349,7.98441,5.9883L7.98441,1.00604Q7.98441,0.590846,8.27983,0.295423Q8.57525,0,8.99044,0L13.9887,1.18977e-7ZM5.9883,7.98441Q6.40349,7.98441,6.69892,8.27983Q6.99434,8.57525,6.99434,8.99044L6.99434,13.9887Q6.99434,14.4039,6.69892,14.6913Q6.40349,14.9787,5.9883,14.9787L1.00604,14.9787Q0.590846,14.9787,0.295423,14.6913Q0,14.4039,0,13.9887L0,8.99044Q0,8.57525,0.295423,8.27983Q0.590846,7.98441,1.00604,7.98441L5.9883,7.98441ZM13.9887,7.98441Q14.4039,7.98441,14.6913,8.27983Q14.9787,8.57525,14.9787,8.99044L14.9787,13.9887Q14.9787,14.4039,14.6913,14.6913Q14.4039,14.9787,13.9887,14.9787L8.99044,14.9787Q8.57525,14.9787,8.27983,14.6913Q7.98441,14.4039,7.98441,13.9887L7.98441,8.99044Q7.98441,8.57525,8.27983,8.27983Q8.57525,7.98441,8.99044,7.98441L13.9887,7.98441Z"/></g></svg>