<svg xmlns="http://www.w3.org/2000/svg" xmlns:xlink="http://www.w3.org/1999/xlink" version="1.1" viewBox="0 0 14.25 14.5"><g><g><path d="M0,9.75L0,0.75Q0,0.6761315,0.014410999999999952,0.603682Q0.028822000000000014,0.5312330000000001,0.057089999999999974,0.462987Q0.08535899999999996,0.394742,0.126398,0.333322Q0.16743699999999995,0.271903,0.21967000000000003,0.21967000000000003Q0.271903,0.16743699999999995,0.333322,0.126398Q0.394742,0.08535899999999996,0.462987,0.057089999999999974Q0.5312330000000001,0.028822000000000014,0.603682,0.014410999999999952Q0.6761315,0,0.75,0L13.5,0Q13.5739,0,13.6463,0.014410999999999952Q13.7188,0.028822000000000014,13.787,0.057089999999999974Q13.8553,0.08535899999999996,13.9167,0.126398Q13.9781,0.16743699999999995,14.0303,0.21967000000000003Q14.0826,0.271903,14.1236,0.333322Q14.1646,0.394742,14.1929,0.462987Q14.2212,0.5312330000000001,14.2356,0.603682Q14.25,0.6761315,14.25,0.75L14.25,9.75Q14.25,9.82387,14.2356,9.89632Q14.2212,9.96877,14.1929,10.03701Q14.1646,10.10526,14.1236,10.16668Q14.0826,10.2281,14.0303,10.28033Q13.9781,10.33256,13.9167,10.3736Q13.8553,10.41464,13.787,10.44291Q13.7188,10.47118,13.6463,10.48559Q13.5739,10.5,13.5,10.5L0.75,10.5Q0.6761315,10.5,0.603682,10.48559Q0.5312330000000001,10.47118,0.462987,10.44291Q0.394742,10.41464,0.333322,10.3736Q0.271903,10.33256,0.21967000000000003,10.28033Q0.16743699999999995,10.2281,0.126398,10.16668Q0.08535899999999996,10.10526,0.057089999999999974,10.03701Q0.028822000000000014,9.96877,0.014410999999999952,9.89632Q0,9.82387,0,9.75ZM1.5,1.5L1.5,9L12.75,9L12.75,1.5L1.5,1.5Z" fill-opacity="1"/></g><g><path d="M3.7122964873046875,6.21967C3.4194044873046874,6.51257,3.4194054873046875,6.987439999999999,3.7122994873046875,7.28033C4.0051934873046875,7.57322,4.480067487304687,7.57322,4.772959487304687,7.28033C4.772959487304687,7.28033,3.7122964873046875,6.21967,3.7122964873046875,6.21967C3.7122964873046875,6.21967,3.7122964873046875,6.21967,3.7122964873046875,6.21967ZM10.249379487304687,4.684559C10.558419487304688,4.408752,10.585359487304688,3.934643,10.309549487304688,3.625607C10.033739487304688,3.316571,9.559629487304687,3.289634,9.250599487304687,3.565441C9.250599487304687,3.565441,10.249379487304687,4.684559,10.249379487304687,4.684559C10.249379487304687,4.684559,10.249379487304687,4.684559,10.249379487304687,4.684559ZM6.278499487304687,4.7141210000000004C6.278499487304687,4.7141210000000004,6.8088294873046875,4.1837908,6.8088294873046875,4.1837908C6.668169487304688,4.0431383,6.477409487304687,3.964121,6.278489487304688,3.964121C6.079579487304688,3.964121,5.888819487304687,4.0431395,5.7481594873046875,4.1837925C5.7481594873046875,4.1837925,6.278499487304687,4.7141210000000004,6.278499487304687,4.7141210000000004C6.278499487304687,4.7141210000000004,6.278499487304687,4.7141210000000004,6.278499487304687,4.7141210000000004ZM7.604329487304687,6.03995C7.604329487304687,6.03995,7.073999487304688,6.57028,7.073999487304688,6.57028C7.355199487304688,6.85149,7.807019487304688,6.86431,8.103719487304687,6.59951C8.103719487304687,6.59951,7.604329487304687,6.03995,7.604329487304687,6.03995C7.604329487304687,6.03995,7.604329487304687,6.03995,7.604329487304687,6.03995ZM4.772959487304687,7.28033C4.772959487304687,7.28033,6.8088294873046875,5.2444500000000005,6.8088294873046875,5.2444500000000005C6.8088294873046875,5.2444500000000005,5.7481594873046875,4.1837925,5.7481594873046875,4.1837925C5.7481594873046875,4.1837925,3.7122964873046875,6.21967,3.7122964873046875,6.21967C3.7122964873046875,6.21967,4.772959487304687,7.28033,4.772959487304687,7.28033C4.772959487304687,7.28033,4.772959487304687,7.28033,4.772959487304687,7.28033ZM5.748169487304688,5.2444500000000005C5.748169487304688,5.2444500000000005,7.073999487304688,6.57028,7.073999487304688,6.57028C7.073999487304688,6.57028,8.134659487304688,5.50962,8.134659487304688,5.50962C8.134659487304688,5.50962,6.8088294873046875,4.1837908,6.8088294873046875,4.1837908C6.8088294873046875,4.1837908,5.748169487304688,5.2444500000000005,5.748169487304688,5.2444500000000005C5.748169487304688,5.2444500000000005,5.748169487304688,5.2444500000000005,5.748169487304688,5.2444500000000005ZM8.103719487304687,6.59951C8.103719487304687,6.59951,10.249379487304687,4.684559,10.249379487304687,4.684559C10.249379487304687,4.684559,9.250599487304687,3.565441,9.250599487304687,3.565441C9.250599487304687,3.565441,7.1049294873046875,5.48039,7.1049294873046875,5.48039C7.1049294873046875,5.48039,8.103719487304687,6.59951,8.103719487304687,6.59951C8.103719487304687,6.59951,8.103719487304687,6.59951,8.103719487304687,6.59951Z" fill-opacity="1"/></g><g><line x1="2.25" y1="12.75" x2="12" y2="12.75" fill-opacity="0" stroke-opacity="1" stroke-width="1.5" stroke-linecap="ROUND"/></g></g></svg>