<svg xmlns="http://www.w3.org/2000/svg" xmlns:xlink="http://www.w3.org/1999/xlink" fill="none" version="1.1" width="15.563465118408203" height="16.5" viewBox="0 0 15.563465118408203 16.5"><g><path d="M8.2785,7.78828C8.2785,7.78828,2.29491,0.142969,2.29491,0.142969C2.2246,0.0515626,2.11444,0,1.9996,0C1.9996,0,0.187879,0,0.187879,0C0.0308479,0,-0.0558709,0.180469,0.0402228,0.302344C0.0402228,0.302344,6.26054,8.25,6.26054,8.25C6.26054,8.25,0.0402228,16.1977,0.0402228,16.1977C0.0185825,16.2253,0.00515507,16.2585,0.00147566,16.2934C-0.00220376,16.3283,0.00401356,16.3635,0.0194164,16.395C0.0348193,16.4266,0.0587862,16.4532,0.088577,16.4717C0.118368,16.4903,0.15278,16.5001,0.187879,16.5C0.187879,16.5,1.9996,16.5,1.9996,16.5C2.11444,16.5,2.2246,16.4461,2.29491,16.357C2.29491,16.357,8.2785,8.71406,8.2785,8.71406C8.49179,8.43984,8.49179,8.06016,8.2785,7.78828C8.2785,7.78828,8.2785,7.78828,8.2785,7.78828ZM15.4035,7.78828C15.4035,7.78828,9.41991,0.142969,9.41991,0.142969C9.3496,0.0515626,9.23944,0,9.1246,0C9.1246,0,7.31288,0,7.31288,0C7.15585,0,7.06913,0.180469,7.16522,0.302344C7.16522,0.302344,13.3855,8.25,13.3855,8.25C13.3855,8.25,7.16522,16.1977,7.16522,16.1977C7.14358,16.2253,7.13015,16.2585,7.12648,16.2934C7.1228,16.3283,7.12901,16.3635,7.14442,16.395C7.15982,16.4266,7.18379,16.4532,7.21358,16.4717C7.24337,16.4903,7.27778,16.5001,7.31288,16.5C7.31288,16.5,9.1246,16.5,9.1246,16.5C9.23944,16.5,9.3496,16.4461,9.41991,16.357C9.41991,16.357,15.4035,8.71406,15.4035,8.71406C15.6168,8.43984,15.6168,8.06016,15.4035,7.78828C15.4035,7.78828,15.4035,7.78828,15.4035,7.78828Z" fill="#000000" fill-opacity="0.44999998807907104"/></g></svg>