<svg xmlns="http://www.w3.org/2000/svg" xmlns:xlink="http://www.w3.org/1999/xlink" fill="none" version="1.1" width="160" height="151.22802734375" viewBox="0 0 160 151.22802734375"><g><g><g><path d="M135.594,138.56000019836426Q135.594,138.87100019836424,135.512,139.18160019836426Q135.431,139.49220019836426,135.268,139.80170019836424Q135.104,140.11120019836426,134.86,140.41880019836427Q134.616,140.72640019836425,134.291,141.03140019836425Q133.967,141.33640019836426,133.562,141.63810019836427Q133.158,141.93970019836425,132.675,142.23730019836427Q132.192,142.53490019836426,131.631,142.82770019836425Q131.07,143.12050019836425,130.433,143.40780019836427Q129.796,143.69510019836426,129.085,143.97630019836424Q128.373,144.25740019836425,127.589,144.53170019836426Q126.804,144.80590019836427,125.948,145.07260019836426Q125.093,145.33940019836425,124.168,145.59800019836425Q123.243,145.85650019836424,122.252,146.10630019836427Q121.261,146.35610019836426,120.205,146.59650019836425Q119.149,146.83690019836425,118.031,147.06730019836425Q116.914,147.29770019836425,115.737,147.51760019836425Q114.56,147.73750019836427,113.327,147.94640019836424Q112.093,148.15520019836427,110.807,148.35250019836425Q109.52,148.54980019836427,108.184,148.73500019836425Q106.847,148.92030019836426,105.463,149.09310019836425Q104.079,149.26580019836425,102.652,149.42570019836427Q101.224,149.58560019836426,99.7563,149.73220019836427Q98.2885,149.87880019836425,96.7839,150.01170019836425Q95.2794,150.14470019836426,93.7418,150.26370019836426Q92.2041,150.38270019836426,90.6371,150.48750019836427Q89.0701,150.59220019836425,87.4774,150.68250019836427Q85.8848,150.77280019836425,84.2703,150.84840019836426Q82.6559,150.92390019836427,81.0235,150.98460019836426Q79.3912,151.04530019836426,77.7449,151.09090019836427Q76.0986,151.13650019836425,74.4423,151.16700019836426Q72.786,151.19750019836425,71.1236,151.21270019836425Q69.4613,151.22800019836427,67.797,151.22800019836427Q66.1327,151.22800019836427,64.4704,151.21270019836425Q62.808,151.19750019836425,61.1517,151.16700019836426Q59.4954,151.13650019836425,57.8491,151.09090019836427Q56.2028,151.04530019836426,54.5705,150.98460019836426Q52.9381,150.92390019836427,51.3237,150.84840019836426Q49.7092,150.77280019836425,48.1166,150.68250019836427Q46.5239,150.59220019836425,44.9569,150.48750019836427Q43.3898,150.38270019836426,41.8522,150.26370019836426Q40.3146,150.14470019836426,38.81,150.01170019836425Q37.3055,149.87880019836425,35.8377,149.73220019836427Q34.3699,149.58560019836426,32.9424,149.42570019836427Q31.5148,149.26580019836425,30.131,149.09310019836425Q28.7472,148.92030019836426,27.4104,148.73500019836425Q26.0736,148.54980019836427,24.787,148.35250019836425Q23.5005,148.15520019836427,22.2673,147.94640019836424Q21.0341,147.73750019836427,19.8573,147.51760019836425Q18.6804,147.29770019836425,17.5627,147.06730019836425Q16.445,146.83690019836425,15.3892,146.59650019836425Q14.3334,146.35610019836426,13.3419,146.10630019836427Q12.3505,145.85650019836424,11.4259,145.59800019836425Q10.5012,145.33940019836425,9.64557,145.07260019836426Q8.78994,144.80590019836427,8.00538,144.53170019836426Q7.22083,144.25740019836425,6.50924,143.97630019836424Q5.79765,143.69510019836426,5.16074,143.40780019836427Q4.52383,143.12050019836425,3.96314,142.82770019836425Q3.40244,142.53490019836426,2.91932,142.23730019836427Q2.43619,141.93970019836425,2.03179,141.63810019836427Q1.62739,141.33640019836426,1.3027,141.03140019836425Q0.978007,140.72640019836425,0.7338,140.41880019836427Q0.489593,140.11120019836426,0.326461,139.80170019836424Q0.163329,139.49220019836426,0.0816644,139.18160019836426Q0,138.87100019836424,0,138.56000019836426Q0,138.24900019836426,0.0816644,137.93840019836426Q0.163329,137.62780019836427,0.326461,137.31830019836426Q0.489593,137.00880019836427,0.7338,136.70120019836426Q0.978007,136.39360019836425,1.3027,136.08860019836425Q1.62739,135.78359019836427,2.03179,135.48193019836427Q2.43619,135.18026019836427,2.91932,134.88267019836425Q3.40244,134.58508019836427,3.96314,134.29228019836427Q4.52383,133.99947019836426,5.16074,133.71216019836424Q5.79765,133.42486019836426,6.50924,133.14373019836427Q7.22083,132.86261019836425,8.00538,132.58835019836425Q8.78994,132.31408019836425,9.64557,132.04735019836426Q10.5012,131.78061019836426,11.4259,131.52203019836426Q12.3505,131.26346019836427,13.3419,131.01368019836426Q14.3334,130.76390019836427,15.3892,130.52351019836425Q16.445,130.28311019836426,17.5627,130.05269019836425Q18.6804,129.82227019836427,19.8573,129.60237019836427Q21.0341,129.38247019836425,22.2673,129.17363019836426Q23.5005,128.96479019836426,24.787,128.76750019836425Q26.0736,128.57022019836427,27.4104,128.38497019836427Q28.7472,128.19971019836424,30.131,128.02694019836426Q31.5148,127.85417019836426,32.9424,127.69429019836426Q34.3699,127.53442019836426,35.8377,127.38782019836425Q37.3055,127.24123019836426,38.81,127.10826019836426Q40.3146,126.97530019836425,41.8522,126.85629419836425Q43.3898,126.73728619836426,44.9569,126.63252019836426Q46.5239,126.52775319836425,48.1166,126.43748019836426Q49.7092,126.34720619836426,51.3237,126.27164419836426Q52.9381,126.19608219836425,54.5705,126.13541219836426Q56.2028,126.07474219836426,57.8491,126.02911219836426Q59.4954,125.98348159836426,61.1517,125.95300009836426Q62.808,125.92251849836425,64.4704,125.90725939836426Q66.1327,125.89200019836426,67.797,125.89200019836426Q69.4613,125.89200019836426,71.1236,125.90725939836426Q72.786,125.92251849836425,74.4423,125.95300009836426Q76.0986,125.98348159836426,77.7449,126.02911219836426Q79.3912,126.07474219836426,81.0235,126.13541219836426Q82.6559,126.19608219836425,84.2703,126.27164419836426Q85.8847,126.34720619836426,87.4774,126.43748019836426Q89.0701,126.52775319836425,90.6371,126.63252019836426Q92.2041,126.73728619836426,93.7418,126.85629419836425Q95.2794,126.97530019836425,96.7839,127.10826019836426Q98.2885,127.24123019836426,99.7563,127.38782019836425Q101.224,127.53442019836426,102.652,127.69429019836426Q104.079,127.85417019836426,105.463,128.02694019836426Q106.847,128.19971019836424,108.184,128.38497019836427Q109.52,128.57022019836427,110.807,128.76750019836425Q112.093,128.96479019836426,113.327,129.17363019836426Q114.56,129.38247019836425,115.737,129.60237019836427Q116.914,129.82227019836427,118.031,130.05269019836425Q119.149,130.28311019836426,120.205,130.52351019836425Q121.261,130.76390019836427,122.252,131.01368019836426Q123.243,131.26346019836427,124.168,131.52204019836427Q125.093,131.78061019836426,125.948,132.04735019836426Q126.804,132.31408019836425,127.589,132.58835019836425Q128.373,132.86261019836425,129.085,133.14373019836427Q129.796,133.42486019836426,130.433,133.71216019836424Q131.07,133.99947019836426,131.631,134.29228019836427Q132.192,134.58508019836427,132.675,134.88267019836425Q133.158,135.18026019836427,133.562,135.48193019836427Q133.967,135.78359019836427,134.291,136.08860019836425Q134.616,136.39360019836425,134.86,136.70120019836426Q135.104,137.00880019836427,135.268,137.31830019836426Q135.431,137.62780019836427,135.512,137.93840019836426Q135.594,138.24900019836426,135.594,138.56000019836426Z" fill="#AEB8C2" fill-opacity="1"/></g><g><path d="M122.0340004196167,101.34400169372559C122.0340004196167,101.34400169372559,98.1090004196167,71.89900169372558,98.1090004196167,71.89900169372558C96.9610004196167,70.51299969372559,95.2830004196167,69.67400169372559,93.5160004196167,69.67400169372559C93.5160004196167,69.67400169372559,42.0760004196167,69.67400169372559,42.0760004196167,69.67400169372559C40.3100004196167,69.67400169372559,38.6320004196167,70.51299969372559,37.4840004196167,71.89900169372558C37.4840004196167,71.89900169372558,13.5600004196167,101.34400169372559,13.5600004196167,101.34400169372559C13.5600004196167,101.34400169372559,13.5600004196167,114.72700169372558,13.5600004196167,114.72700169372558C13.5600004196167,114.72700169372558,122.0350004196167,114.72700169372558,122.0350004196167,114.72700169372558C122.0350004196167,114.72700169372558,122.0350004196167,101.34400169372559,122.0350004196167,101.34400169372559C122.0350004196167,101.34400169372559,122.0340004196167,101.34400169372559,122.0340004196167,101.34400169372559Z" fill-rule="evenodd" fill="#AEB8C2" fill-opacity="1"/></g><g></g><g><path d="M33.829999923706055,31.670000076293945C33.829999923706055,31.670000076293945,101.76299992370606,31.670000076293945,101.76299992370606,31.670000076293945C102.82389992370605,31.670000076293945,103.84129992370606,32.09142707629395,104.59139992370605,32.84157007629395C105.34159992370606,33.591720076293946,105.76299992370606,34.609130076293944,105.76299992370606,35.670000076293945C105.76299992370606,35.670000076293945,105.76299992370606,129.01400007629394,105.76299992370606,129.01400007629394C105.76299992370606,130.07490007629394,105.34159992370606,131.09230007629395,104.59139992370605,131.84200007629394C103.84129992370606,132.59300007629395,102.82389992370605,133.01400007629394,101.76299992370606,133.01400007629394C101.76299992370606,133.01400007629394,33.829999923706055,133.01400007629394,33.829999923706055,133.01400007629394C32.76913992370606,133.01400007629394,31.751719923706055,132.59300007629395,31.001569923706054,131.84200007629394C30.251427923706053,131.09230007629395,29.829999923706055,130.07490007629394,29.829999923706055,129.01400007629394C29.829999923706055,129.01400007629394,29.829999923706055,35.670000076293945,29.829999923706055,35.670000076293945C29.829999923706055,34.609130076293944,30.251427923706053,33.591720076293946,31.001569923706054,32.84157007629395C31.751719923706055,32.09142707629395,32.76913992370606,31.670000076293945,33.829999923706055,31.670000076293945Z" fill-rule="evenodd" fill="#F5F5F5" fill-opacity="1"/></g><g><path d="M42.67800001525879,41.623000144958496C42.67800001525879,41.623000144958496,92.91500001525878,41.623000144958496,92.91500001525878,41.623000144958496C93.44540001525878,41.623000144958496,93.95410001525879,41.8337141449585,94.32920001525879,42.2087871449585C94.7043000152588,42.58386014495849,94.91500001525878,43.09257014495849,94.91500001525878,43.623000144958496C94.91500001525878,43.623000144958496,94.91500001525878,68.58000014495849,94.91500001525878,68.58000014495849C94.91500001525878,69.1104001449585,94.7043000152588,69.6191001449585,94.32920001525879,69.9942001449585C93.95410001525879,70.3693001449585,93.44540001525878,70.58000014495849,92.91500001525878,70.58000014495849C92.91500001525878,70.58000014495849,42.67800001525879,70.58000014495849,42.67800001525879,70.58000014495849C42.14760001525879,70.58000014495849,41.638900015258784,70.3693001449585,41.26380001525879,69.9942001449585C40.88870001525879,69.6191001449585,40.67800001525879,69.1104001449585,40.67800001525879,68.58000014495849C40.67800001525879,68.58000014495849,40.67800001525879,43.623000144958496,40.67800001525879,43.623000144958496C40.67800001525879,43.09257014495849,40.88870001525879,42.58386014495849,41.26380001525879,42.2087871449585C41.638900015258784,41.8337141449585,42.14760001525879,41.623000144958496,42.67800001525879,41.623000144958496ZM42.94000001525879,81.43700014495849C42.94000001525879,81.43700014495849,92.65300001525878,81.43700014495849,92.65300001525878,81.43700014495849C93.25290001525879,81.43700014495849,93.82830001525879,81.6753001449585,94.25250001525879,82.0995001449585C94.67670001525879,82.5237001449585,94.91500001525878,83.0991001449585,94.91500001525878,83.69900014495849C94.91500001525878,84.2989001449585,94.67670001525879,84.8743001449585,94.25250001525879,85.2985001449585C93.82830001525879,85.7227001449585,93.25290001525879,85.96100014495849,92.65300001525878,85.96100014495849C92.65300001525878,85.96100014495849,42.94000001525879,85.96100014495849,42.94000001525879,85.96100014495849C42.340100015258784,85.96100014495849,41.76470001525879,85.7227001449585,41.34050001525879,85.2985001449585C40.916300015258784,84.8743001449585,40.67800001525879,84.2989001449585,40.67800001525879,83.69900014495849C40.67800001525879,83.0991001449585,40.916300015258784,82.5237001449585,41.34050001525879,82.0995001449585C41.76470001525879,81.6753001449585,42.340100015258784,81.43700014495849,42.94000001525879,81.43700014495849ZM42.94000001525879,93.2000001449585C42.94000001525879,93.2000001449585,92.65300001525878,93.2000001449585,92.65300001525878,93.2000001449585C93.2531000152588,93.2000001449585,93.82850001525878,93.43840014495849,94.25280001525879,93.8627001449585C94.67710001525879,94.2870001449585,94.91550001525879,94.8624001449585,94.91550001525879,95.4625001449585C94.91550001525879,96.0626001449585,94.67710001525879,96.6380001449585,94.25280001525879,97.0623001449585C93.82850001525878,97.48660014495849,93.2531000152588,97.7250001449585,92.65300001525878,97.7250001449585C92.65300001525878,97.7250001449585,42.94000001525879,97.7250001449585,42.94000001525879,97.7250001449585C42.33990001525879,97.7250001449585,41.76450001525879,97.48660014495849,41.34020001525879,97.0623001449585C40.915900015258785,96.6380001449585,40.67750001525879,96.0626001449585,40.67750001525879,95.4625001449585C40.67750001525879,94.8624001449585,40.915900015258785,94.2870001449585,41.34020001525879,93.8627001449585C41.76450001525879,93.43840014495849,42.33990001525879,93.2000001449585,42.94000001525879,93.2000001449585ZM121.8130000152588,136.7020001449585C121.03800001525879,139.7730001449585,118.3160000152588,142.0620001449585,115.0780000152588,142.0620001449585C115.0780000152588,142.0620001449585,20.51500001525879,142.0620001449585,20.51500001525879,142.0620001449585C17.27700001525879,142.0620001449585,14.55500001525879,139.7720001449585,13.781000015258789,136.7020001449585C13.63337931525879,136.1168001449585,13.558811507258788,135.51550014495848,13.55900037312779,134.91200014495848C13.55900037312779,134.91200014495848,13.55900037312779,101.3450001449585,13.55900037312779,101.3450001449585C13.55900037312779,101.3450001449585,39.87700001525879,101.3450001449585,39.87700001525879,101.3450001449585C42.78400001525879,101.3450001449585,45.12700001525879,103.7930001449585,45.12700001525879,106.76500014495849C45.12700001525879,106.76500014495849,45.12700001525879,106.8050001449585,45.12700001525879,106.8050001449585C45.12700001525879,109.7760001449585,47.49700001525879,112.1750001449585,50.40400001525879,112.1750001449585C50.40400001525879,112.1750001449585,85.18900001525878,112.1750001449585,85.18900001525878,112.1750001449585C88.0960000152588,112.1750001449585,90.46600001525879,109.7540001449585,90.46600001525879,106.7820001449585C90.46600001525879,106.7820001449585,90.46600001525879,106.7700001449585,90.46600001525879,106.7700001449585C90.46600001525879,103.7980001449585,92.80900001525879,101.3440001449585,95.71600001525879,101.3440001449585C95.71600001525879,101.3440001449585,122.03400001525878,101.3440001449585,122.03400001525878,101.3440001449585C122.03400001525878,101.3440001449585,122.03400001525878,134.91300014495852,122.03400001525878,134.91300014495852C122.03400001525878,135.53000014495848,121.95700001525879,136.1290001449585,121.8130000152588,136.7020001449585Z" fill-rule="evenodd" fill="#DCE0E6" fill-opacity="1"/></g></g><g><path d="M125.1207578125,33.292C125.1207578125,33.292,118.2907578125,35.942,118.2907578125,35.942C118.1152978125,36.0102,117.9241378125,36.0275,117.7392778125,35.992C117.5544078125,35.9564,117.3833578125,35.8693,117.2457778125,35.7408C117.1081878125,35.6123,117.0096678125,35.4476,116.9615478125,35.2656C116.9134278125,35.0836,116.9176578125,34.8917,116.9737578125,34.712C116.9737578125,34.712,118.9107478125,28.505,118.9107478125,28.505C116.3217478125,25.561,114.8017578125,21.971,114.8017578125,18.097C114.8017578125,8.102,124.9197578125,0,137.4017578125,0C149.8807578125,0,159.9997578125,8.102,159.9997578125,18.097C159.9997578125,28.092,149.88175781249998,36.194,137.4007578125,36.194C132.8727578125,36.194,128.6567578125,35.128,125.1207578125,33.292Z" fill-rule="evenodd" fill="#F5F5F5" fill-opacity="1"/></g><g><g><path d="M149.15316967773438,18.550000610351564Q149.15316967773438,18.68829061035156,149.13944967773438,18.825920610351563Q149.12572967773437,18.96354061035156,149.09842967773437,19.099180610351564Q149.07111967773437,19.234810610351563,149.03048967773438,19.367150610351562Q148.9898596777344,19.49949061035156,148.93629967773438,19.627250610351563Q148.88273967773438,19.75502061035156,148.81675967773438,19.876980610351563Q148.7507896777344,19.99894061035156,148.67302967773438,20.113930610351563Q148.59526967773436,20.22892061035156,148.50647967773438,20.33582061035156Q148.4176896777344,20.442720610351564,148.31871967773438,20.54051061035156Q148.21974967773437,20.63829061035156,148.11155967773436,20.72602061035156Q148.00335967773438,20.81376061035156,147.88698967773436,20.890590610351563Q147.77060967773437,20.967420610351564,147.64717967773439,21.03261061035156Q147.52373967773437,21.097800610351563,147.39442967773437,21.150720610351563Q147.26512967773436,21.203640610351563,147.13118967773437,21.243790610351564Q146.99725967773438,21.28393061035156,146.85997967773437,21.310910610351563Q146.72270967773437,21.337890610351565,146.58341967773438,21.351450610351563Q146.44412967773437,21.36500061035156,146.30416967773436,21.36500061035156Q146.16420967773436,21.36500061035156,146.02491967773437,21.351450610351563Q145.88562967773439,21.337890610351565,145.74835967773438,21.310910610351563Q145.61107967773438,21.28393061035156,145.4771496777344,21.243790610351564Q145.34320967773436,21.203640610351563,145.2138996777344,21.150720610351563Q145.0845996777344,21.097800610351563,144.96115967773437,21.03261061035156Q144.83771967773438,20.967420610351564,144.72134967773437,20.890590610351563Q144.60497967773438,20.81376061035156,144.49677967773437,20.72602061035156Q144.38859067773438,20.63829061035156,144.28962267773437,20.54051061035156Q144.1906536777344,20.442720610351564,144.10186267773437,20.33582061035156Q144.0130716777344,20.22892061035156,143.93531267773437,20.113930610351563Q143.8575536777344,19.99894061035156,143.7915756777344,19.876980610351563Q143.72559767773438,19.75502061035156,143.67203667773438,19.627250610351563Q143.61847567773438,19.49949061035156,143.57784667773439,19.367150610351562Q143.53721767773436,19.234810610351563,143.50991237773437,19.099180610351564Q143.48260707773437,18.96354061035156,143.46888837773437,18.825920610351563Q143.45516967773438,18.68829061035156,143.45516967773438,18.550000610351564Q143.45516967773438,18.411710610351562,143.46888837773437,18.27408061035156Q143.48260707773437,18.136460610351563,143.50991237773437,18.000820610351564Q143.53721767773436,17.86519061035156,143.57784667773439,17.732850610351562Q143.61847567773438,17.600510610351563,143.67203667773438,17.47275061035156Q143.72559767773438,17.344980610351563,143.7915756777344,17.22302061035156Q143.8575536777344,17.101060610351563,143.93531267773437,16.98607061035156Q144.0130716777344,16.871080610351562,144.10186267773437,16.764180610351563Q144.1906536777344,16.65728261035156,144.28962267773437,16.559494610351564Q144.38859067773438,16.461707610351564,144.49677967773437,16.373976610351562Q144.60497967773438,16.286244610351563,144.72134967773437,16.20941361035156Q144.83771967773438,16.132582610351562,144.96115967773437,16.06739261035156Q145.0845996777344,16.002201610351563,145.2138996777344,15.949279610351562Q145.34320967773436,15.896357610351563,145.4771496777344,15.856213610351562Q145.61107967773438,15.816069510351562,145.74835967773438,15.789090010351563Q145.88562967773439,15.762110610351563,146.02491967773437,15.748555610351563Q146.16420967773436,15.735000610351562,146.30416967773436,15.735000610351562Q146.44412967773437,15.735000610351562,146.58341967773438,15.748555610351563Q146.72270967773437,15.762110610351563,146.85997967773437,15.789090010351563Q146.99725967773438,15.816069510351562,147.13118967773437,15.856213610351562Q147.26512967773436,15.896357610351563,147.39442967773437,15.949279610351562Q147.52373967773437,16.002201610351563,147.64717967773439,16.06739261035156Q147.77060967773437,16.132582610351562,147.88698967773436,16.20941361035156Q148.00335967773438,16.286244610351563,148.11155967773436,16.373976610351562Q148.21974967773437,16.461707610351564,148.31871967773438,16.559494610351564Q148.4176896777344,16.65728261035156,148.50647967773438,16.764180610351563Q148.59526967773436,16.871080610351562,148.67302967773438,16.98607061035156Q148.7507896777344,17.101060610351563,148.81675967773438,17.22302061035156Q148.88273967773438,17.344980610351563,148.93629967773438,17.47275061035156Q148.9898596777344,17.600510610351563,149.03048967773438,17.732850610351562Q149.07111967773437,17.86519061035156,149.09842967773437,18.000820610351564Q149.12572967773437,18.136460610351563,149.13944967773438,18.27408061035156Q149.15316967773438,18.411710610351562,149.15316967773438,18.550000610351564Z" fill="#AEB8C2" fill-opacity="1"/></g><g><path d="M131.34799389648438,21.013000608444216C131.34799389648438,21.013000608444216,125.64999389648438,21.013000608444216,125.64999389648438,21.013000608444216C125.64999389648438,21.013000608444216,128.54799389648437,16.087000608444214,128.54799389648437,16.087000608444214C128.54799389648437,16.087000608444214,131.34799389648438,21.013000608444216,131.34799389648438,21.013000608444216ZM134.9089938964844,16.087000608444214C134.9089938964844,16.087000608444214,139.89399389648437,16.087000608444214,139.89399389648437,16.087000608444214C139.89399389648437,16.087000608444214,139.89399389648437,21.013000608444216,139.89399389648437,21.013000608444216C139.89399389648437,21.013000608444216,134.9089938964844,21.013000608444216,134.9089938964844,21.013000608444216C134.9089938964844,21.013000608444216,134.9089938964844,16.087000608444214,134.9089938964844,16.087000608444214Z" fill-rule="evenodd" fill="#AEB8C2" fill-opacity="1"/></g></g></g></svg>