<svg xmlns="http://www.w3.org/2000/svg" xmlns:xlink="http://www.w3.org/1999/xlink" fill="none" version="1.1" viewBox="0 0 14 15"><g><path d="M13.2188,0L0.78125,0C0.349778,0,0,0.349778,0,0.78125L0,3.59375C0,4.02522,0.349778,4.375,0.78125,4.375L13.2188,4.375C13.6502,4.375,14,4.02522,14,3.59375L14,0.78125C14,0.349778,13.6502,0,13.2188,0ZM2.44625,3.24719C1.86092,3.24753,1.38617,2.77325,1.38594,2.18792C1.38582,1.60247,1.86029,1.12781,2.44563,1.12781C3.03084,1.1277,3.50531,1.60217,3.50531,2.1875C3.50531,2.77275,3.03087,3.24719,2.44562,3.24719L2.44625,3.24719ZM13.2188,5.3125L0.78125,5.3125C0.349778,5.3125,0,5.66228,0,6.09375L0,8.90625C0,9.33772,0.349778,9.6875,0.78125,9.6875L13.2188,9.6875C13.6502,9.6875,14,9.33772,14,8.90625L14,6.09375C14,5.66228,13.6502,5.3125,13.2188,5.3125ZM2.44625,8.55969C1.86092,8.56003,1.38617,8.08575,1.38594,7.50042C1.38582,6.91497,1.86029,6.44031,2.44563,6.44031C3.03084,6.4402,3.50531,6.91467,3.50531,7.5C3.50531,8.08525,3.03087,8.55969,2.44562,8.55969L2.44625,8.55969ZM13.2188,10.625L0.78125,10.625C0.349778,10.625,0,10.9748,0,11.4062L0,14.2188C0,14.6502,0.349778,15,0.78125,15L13.2188,15C13.6502,15,14,14.6502,14,14.2188L14,11.4062C14,10.9748,13.6502,10.625,13.2188,10.625ZM2.44656,13.8722C1.86116,13.8722,1.38656,13.3978,1.38656,12.8125C1.3865,12.2273,1.86096,11.7528,2.44625,11.7528C3.03148,11.7528,3.50594,12.2272,3.50594,12.8125C3.50594,13.398,3.03112,13.8725,2.44563,13.8722L2.44656,13.8722Z"/></g></svg>