<svg xmlns="http://www.w3.org/2000/svg" xmlns:xlink="http://www.w3.org/1999/xlink" fill="none" version="1.1" width="11.680209159851074" height="11.680331230163574" viewBox="0 0 11.680209159851074 11.680331230163574"><g><path d="M7.96537,9.02614C7.13572,9.63822,6.11011,10,5,10C2.23858,10,0,7.76142,0,5C0,2.23858,2.23858,0,5,0C7.76142,0,10,2.23858,10,5C10,6.11017,9.63819,7.13583,9.02605,7.9655L11.5338,10.4732C11.729,10.6685,11.729,10.9851,11.5338,11.1803L11.1802,11.5339C10.9849,11.7291,10.6684,11.7291,10.4731,11.5339L7.96537,9.02614ZM8.5,5C8.5,6.933,6.933,8.5,5,8.5C3.067,8.5,1.5,6.933,1.5,5C1.5,3.067,3.067,1.5,5,1.5C6.933,1.5,8.5,3.067,8.5,5Z" fill-rule="evenodd" fill="#4E5969" fill-opacity="1"/></g></svg>