<svg xmlns="http://www.w3.org/2000/svg" xmlns:xlink="http://www.w3.org/1999/xlink" fill="none" version="1.1" viewBox="0 0 11.660453796386719 13.97121810913086"><g><path d="M7.1258,1.24184C7.1258,0.557406,6.54575,0,5.83023,0C5.11617,0,4.53464,0.556016,4.53464,1.24184C4.53464,1.31173,4.54067,1.38028,4.5523,1.44705C2.76327,2.04477,1.29558,3.88033,1.29558,6.05202L1.29558,7.76175Q1.29558,10.2241,0.6645,10.2456C0.288219,10.2456,0,10.5236,0,10.8665C0,11.2118,0.289953,11.4874,0.647687,11.4874L11.0128,11.4874C11.3722,11.4874,11.6605,11.2094,11.6605,10.8665C11.6605,10.5211,11.3705,10.2456,11.0128,10.2456Q10.3649,10.2456,10.3649,7.77909L10.3649,6.05222C10.3649,3.87775,8.99258,2.04144,7.1085,1.44553C7.12004,1.37825,7.12582,1.31011,7.1258,1.24184ZM7.77361,12.1073C7.77169,13.1371,6.90978,13.9712,5.83022,13.9712C4.75808,13.9712,3.88873,13.1405,3.8868,12.1073L7.77361,12.1073L7.77361,12.1073Z"/></g></svg>