<svg xmlns="http://www.w3.org/2000/svg" xmlns:xlink="http://www.w3.org/1999/xlink" fill="none" version="1.1" viewBox="0 0 13 14"><g><path d="M13,2C13,3.10469,10.0906,4,6.5,4C2.90938,4,0,3.10469,0,2C0,0.895313,2.90938,0,6.5,0C10.0906,0,13,0.895312,13,2ZM0,3C0,4.10469,2.90938,5,6.5,5C10.0906,5,13,4.10469,13,3L13,7C13,8.10469,10.0906,9,6.5,9C2.90938,9,0,8.10469,0,7L0,3ZM0,8C0,9.10469,2.90938,10,6.5,10C10.0906,10,13,9.10469,13,8L13,12C13,13.1047,10.0906,14,6.5,14C2.90938,14,0,13.1047,0,12L0,8Z" fill-rule="evenodd" /></g></svg>