<svg xmlns="http://www.w3.org/2000/svg" xmlns:xlink="http://www.w3.org/1999/xlink" version="1.1" viewBox="0 0 10.781533241271973 10.3125"><g><path d="M10.3112,6.32812C10.3112,6.32812,0.117348,6.32812,0.117348,6.32812C0.0528944,6.32812,0.000160071,6.38086,0.000160071,6.44531C0.000160071,6.44531,0.000160071,7.32422,0.000160071,7.32422C0.000160071,7.38867,0.0528944,7.44141,0.117348,7.44141C0.117348,7.44141,8.98258,7.44141,8.98258,7.44141C8.98258,7.44141,6.86881,10.1221,6.86881,10.1221C6.80875,10.1982,6.86295,10.3125,6.9611,10.3125C6.9611,10.3125,8.02311,10.3125,8.02311,10.3125C8.09489,10.3125,8.16227,10.2803,8.20768,10.2231C8.20768,10.2231,10.6803,7.08691,10.6803,7.08691C10.922,6.7793,10.7038,6.32812,10.3112,6.32812C10.3112,6.32812,10.3112,6.32812,10.3112,6.32812ZM10.6642,2.87109C10.6642,2.87109,1.79899,2.87109,1.79899,2.87109C1.79899,2.87109,3.91276,0.19043,3.91276,0.19043C3.97282,0.114258,3.91862,0,3.82047,0C3.82047,0,2.75846,0,2.75846,0C2.68668,0,2.6193,0.0322267,2.57389,0.0893556C2.57389,0.0893556,0.101234,3.22559,0.101234,3.22559C-0.140465,3.5332,0.0777968,3.98438,0.46891,3.98438C0.46891,3.98438,10.6642,3.98438,10.6642,3.98438C10.7287,3.98438,10.7814,3.93164,10.7814,3.86719C10.7814,3.86719,10.7814,2.98828,10.7814,2.98828C10.7814,2.92383,10.7287,2.87109,10.6642,2.87109Z" fill-opacity="0.44999998807907104"/></g></svg>