<svg xmlns="http://www.w3.org/2000/svg" xmlns:xlink="http://www.w3.org/1999/xlink" fill="none" version="1.1" width="18.75" height="18.75" viewBox="0 0 18.75 18.75"><g><path d="M0.75,0L18,0C18.4148,0,18.75,0.335156,18.75,0.75L18.75,18C18.75,18.4148,18.4148,18.75,18,18.75L0.75,18.75C0.335156,18.75,0,18.4148,0,18L0,0.75C0,0.335156,0.335156,0,0.75,0ZM1.6875,17.0625L17.0625,17.0625L17.0625,1.6875L1.6875,1.6875L1.6875,17.0625ZM8.625,10.125L5.0625,10.125C4.95937,10.125,4.875,10.0406,4.875,9.9375L4.875,8.8125C4.875,8.70938,4.95937,8.625,5.0625,8.625L8.625,8.625L8.625,5.0625C8.625,4.95937,8.70938,4.875,8.8125,4.875L9.9375,4.875C10.0406,4.875,10.125,4.95937,10.125,5.0625L10.125,8.625L13.6875,8.625C13.7906,8.625,13.875,8.70938,13.875,8.8125L13.875,9.9375C13.875,10.0406,13.7906,10.125,13.6875,10.125L10.125,10.125L10.125,13.6875C10.125,13.7906,10.0406,13.875,9.9375,13.875L8.8125,13.875C8.70938,13.875,8.625,13.7906,8.625,13.6875L8.625,10.125Z" fill-rule="evenodd" fill="#AAAAAA" fill-opacity="1"/><path d="M0.75,0L18,0C18.4148,0,18.75,0.335156,18.75,0.75L18.75,18C18.75,18.4148,18.4148,18.75,18,18.75L0.75,18.75C0.335156,18.75,0,18.4148,0,18L0,0.75C0,0.335156,0.335156,0,0.75,0ZM17.0625,1.6875L1.6875,1.6875L1.6875,17.0625L17.0625,17.0625L17.0625,1.6875ZM8.625,10.125L8.625,13.6875C8.625,13.7906,8.70938,13.875,8.8125,13.875L9.9375,13.875C10.0406,13.875,10.125,13.7906,10.125,13.6875L10.125,10.125L13.6875,10.125C13.7906,10.125,13.875,10.0406,13.875,9.9375L13.875,8.8125C13.875,8.70938,13.7906,8.625,13.6875,8.625L10.125,8.625L10.125,5.0625C10.125,4.95937,10.0406,4.875,9.9375,4.875L8.8125,4.875C8.70938,4.875,8.625,4.95937,8.625,5.0625L8.625,8.625L5.0625,8.625C4.95937,8.625,4.875,8.70938,4.875,8.8125L4.875,9.9375C4.875,10.0406,4.95937,10.125,5.0625,10.125L8.625,10.125Z" fill-rule="evenodd" fill="#D8D8D8" fill-opacity="1"/></g></svg>