<svg xmlns="http://www.w3.org/2000/svg" xmlns:xlink="http://www.w3.org/1999/xlink" fill="none" version="1.1" viewBox="0 0 14.009886741638184 14"><g><path d="M13.6908,8.3125L12.5033,7.4125C12.5158,7.2875,12.5283,7.15,12.5283,7C12.5283,6.85,12.5158,6.7125,12.5033,6.5875L13.6908,5.6875C14.0158,5.4375,14.1033,5,13.8908,4.625L12.5658,2.3875C12.4158,2.125,12.1283,1.9625,11.8283,1.9625C11.7283,1.9625,11.6408,1.975,11.5408,2.0125L10.1283,2.5625C9.89083,2.4,9.64083,2.2625,9.39083,2.15L9.17833,0.7125C9.11583,0.3,8.76583,0,8.34083,0L5.66583,0C5.24083,0,4.89083,0.3,4.82833,0.7L4.62833,2.15C4.37833,2.2625,4.14083,2.4,3.89083,2.5625L2.47833,2.0125C2.37833,1.975,2.27833,1.9625,2.17833,1.9625C1.87833,1.9625,1.59083,2.1125,1.45333,2.375L0.115833,4.625C-0.0966668,4.975,-0.00916678,5.4375,0.315833,5.6875L1.50333,6.5875C1.49083,6.7375,1.47833,6.875,1.47833,7C1.47833,7.125,1.47833,7.2625,1.50333,7.4125L0.315833,8.3125C-0.00916672,8.5625,-0.0966668,9,0.115833,9.375L1.44083,11.6125C1.59083,11.875,1.87833,12.0375,2.17833,12.0375C2.27833,12.0375,2.36583,12.025,2.46583,11.9875L3.87833,11.4375C4.11583,11.6,4.36583,11.7375,4.61583,11.85L4.82833,13.2875C4.87833,13.6875,5.24083,14,5.66583,14L8.34083,14C8.76583,14,9.11583,13.7,9.17833,13.3L9.39083,11.85C9.64083,11.7375,9.87833,11.6,10.1283,11.4375L11.5408,11.9875C11.6408,12.025,11.7408,12.0375,11.8408,12.0375C12.1408,12.0375,12.4283,11.8875,12.5658,11.625L13.9033,9.3625C14.1033,9,14.0158,8.5625,13.6908,8.3125ZM10.0033,7C10.0033,8.65,8.65333,10,7.00333,10C5.35333,10,4.00333,8.65,4.00333,7C4.00333,5.35,5.35333,4,7.00333,4C8.65333,4,10.0033,5.35,10.0033,7Z"/></g></svg>