<svg xmlns="http://www.w3.org/2000/svg" xmlns:xlink="http://www.w3.org/1999/xlink" fill="none" version="1.1" width="197" height="65" viewBox="0 0 197 65"><g><path d="M23.3575,48L31.1405,48L20.2185,17.814L11.7045,17.814L0.782505,48L8.47951,48L10.2855,42.668L21.5515,42.668L23.3575,48ZM19.6595,36.992L12.2205,36.992L15.9185,25.941L19.6595,36.992ZM41.8045,27.403L41.8045,16.18L34.4515,16.18L34.4515,48L41.8045,48L41.8045,44.646C43.1375,46.753,45.6745,48.344,49.2005,48.344C55.0915,48.344,59.7785,43.528,59.7785,35.96C59.7785,28.392,55.1345,23.662,49.2005,23.662C45.7605,23.662,43.1375,25.253,41.8045,27.403ZM52.2965,35.96C52.2965,39.787,49.8025,41.937,47.0075,41.937C44.2555,41.937,41.7615,39.83,41.7615,36.003C41.7615,32.176,44.2555,30.069,47.0075,30.069C49.8025,30.069,52.2965,32.133,52.2965,35.96ZM87.1265,36.003C87.1265,28.392,81.7085,23.662,74.6565,23.662C67.6475,23.662,62.1865,28.392,62.1865,36.003C62.1865,43.614,67.5185,48.344,74.5705,48.344C81.6225,48.344,87.1265,43.614,87.1265,36.003ZM69.6685,36.003C69.6685,31.918,71.9905,30.026,74.6565,30.026C77.2365,30.026,79.6445,31.918,79.6445,36.003C79.6445,40.045,77.1935,41.98,74.5705,41.98C71.9045,41.98,69.6685,40.045,69.6685,36.003ZM114.733,24.006L107.38,24.006L107.38,37.035C107.38,40.303,105.574,42.109,102.736,42.109C99.9835,42.109,98.1345,40.303,98.1345,37.035L98.1345,24.006L90.8245,24.006L90.8245,38.024C90.8245,44.431,94.5655,48.258,100.113,48.258C103.338,48.258,105.918,46.796,107.38,44.732L107.38,48L114.733,48L114.733,24.006ZM121.183,39.658C121.183,45.893,124.666,48,129.654,48L133.395,48L133.395,41.765L130.772,41.765C129.138,41.765,128.536,41.163,128.536,39.744L128.536,30.112L133.352,30.112L133.352,24.006L128.536,24.006L128.536,18.158L121.183,18.158L121.183,24.006L118.259,24.006L118.259,30.112L121.183,30.112L121.183,39.658ZM170.289,24.006L162.936,24.006L162.936,37.035C162.936,40.303,161.13,42.109,158.292,42.109C155.54,42.109,153.691,40.303,153.691,37.035L153.691,24.006L146.381,24.006L146.381,38.024C146.381,44.431,150.122,48.258,155.669,48.258C158.894,48.258,161.474,46.796,162.936,44.732L162.936,48L170.289,48L170.289,24.006ZM195.057,41.034C194.928,32.09,181.941,34.799,181.941,30.972C181.941,29.811,182.887,29.123,184.607,29.123C186.671,29.123,187.919,30.198,188.133,31.832L194.928,31.832C194.454,27.102,191.014,23.662,184.822,23.662C178.544,23.662,175.061,27.016,175.061,31.101C175.061,39.916,188.133,37.121,188.133,40.991C188.133,42.066,187.145,42.926,185.253,42.926C183.232,42.926,181.727,41.808,181.555,40.131L174.288,40.131C174.632,44.775,178.932,48.344,185.339,48.344C191.359,48.344,195.057,45.205,195.057,41.034Z" fill="#333333" fill-opacity="1"/></g></svg>