<svg xmlns="http://www.w3.org/2000/svg" xmlns:xlink="http://www.w3.org/1999/xlink" fill="none" version="1.1" width="484" height="78" viewBox="0 0 484 78"><g><path d="M14.066,29L18.772,29L12.168,10.748L7.02,10.748L0.416,29L5.07,29L6.162,25.776L12.974,25.776L14.066,29ZM11.83,22.344L7.332,22.344L9.568,15.662L11.83,22.344ZM26.988,23.956C26.988,27.726,29.094,29,32.11,29L34.372,29L34.372,25.23L32.786,25.23C31.798,25.23,31.434,24.866,31.434,24.008L31.434,18.184L34.346,18.184L34.346,14.492L31.434,14.492L31.434,10.956L26.988,10.956L26.988,14.492L25.22,14.492L25.22,18.184L26.988,18.184L26.988,23.956ZM43.238,17.846C44.72,17.846,45.968,18.756,45.968,20.342L40.404,20.342C40.664,18.73,41.782,17.846,43.238,17.846ZM50.18,24.19L45.448,24.19C45.084,24.97,44.382,25.594,43.134,25.594C41.704,25.594,40.534,24.71,40.378,22.812L50.44,22.812C50.492,22.37,50.518,21.928,50.518,21.512C50.518,17.092,47.528,14.284,43.29,14.284C38.974,14.284,35.958,17.144,35.958,21.746C35.958,26.348,39.026,29.208,43.29,29.208C46.904,29.208,49.478,27.024,50.18,24.19ZM51.974,21.72C51.974,26.296,54.808,29.208,58.344,29.208C60.502,29.208,62.036,28.22,62.842,26.946L62.842,29L67.288,29L67.288,14.492L62.842,14.492L62.842,16.546C62.062,15.272,60.528,14.284,58.37,14.284C54.808,14.284,51.974,17.144,51.974,21.72ZM62.842,21.746C62.842,24.06,61.36,25.334,59.67,25.334C58.006,25.334,56.498,24.034,56.498,21.72C56.498,19.406,58.006,18.158,59.67,18.158C61.36,18.158,62.842,19.432,62.842,21.746ZM90.506,29L94.926,29L94.926,20.524C94.926,16.624,92.612,14.336,89.024,14.336C86.918,14.336,85.098,15.506,84.136,17.04C83.148,15.298,81.38,14.336,79.196,14.336C77.298,14.336,75.816,15.142,74.958,16.312L74.958,14.492L70.512,14.492L70.512,29L74.958,29L74.958,21.122C74.958,19.224,76.05,18.184,77.74,18.184C79.43,18.184,80.522,19.224,80.522,21.122L80.522,29L84.942,29L84.942,21.122C84.942,19.224,86.034,18.184,87.724,18.184C89.414,18.184,90.506,19.224,90.506,21.122L90.506,29ZM117.754,21.746C117.754,17.144,114.478,14.284,110.214,14.284C105.976,14.284,102.674,17.144,102.674,21.746C102.674,26.348,105.898,29.208,110.162,29.208C114.426,29.208,117.754,26.348,117.754,21.746ZM107.198,21.746C107.198,19.276,108.602,18.132,110.214,18.132C111.774,18.132,113.23,19.276,113.23,21.746C113.23,24.19,111.748,25.36,110.162,25.36C108.55,25.36,107.198,24.19,107.198,21.746ZM120.562,29L125.008,29L125.008,18.184L127.4,18.184L127.4,14.492L125.008,14.492L125.008,14.362C125.008,12.828,125.606,12.308,127.322,12.412L127.322,8.642C122.902,8.408,120.562,10.28,120.562,14.076L120.562,14.492L118.95,14.492L118.95,18.184L120.562,18.184L120.562,29ZM146.77,24.788C146.692,19.38,138.84,21.018,138.84,18.704C138.84,18.002,139.412,17.586,140.452,17.586C141.7,17.586,142.454,18.236,142.584,19.224L146.692,19.224C146.406,16.364,144.326,14.284,140.582,14.284C136.786,14.284,134.68,16.312,134.68,18.782C134.68,24.112,142.584,22.422,142.584,24.762C142.584,25.412,141.986,25.932,140.842,25.932C139.62,25.932,138.71,25.256,138.606,24.242L134.212,24.242C134.42,27.05,137.02,29.208,140.894,29.208C144.534,29.208,146.77,27.31,146.77,24.788ZM155.896,17.846C157.378,17.846,158.626,18.756,158.626,20.342L153.062,20.342C153.322,18.73,154.44,17.846,155.896,17.846ZM162.838,24.19L158.106,24.19C157.742,24.97,157.04,25.594,155.792,25.594C154.362,25.594,153.192,24.71,153.036,22.812L163.098,22.812C163.15,22.37,163.176,21.928,163.176,21.512C163.176,17.092,160.186,14.284,155.948,14.284C151.632,14.284,148.616,17.144,148.616,21.746C148.616,26.348,151.684,29.208,155.948,29.208C159.562,29.208,162.136,27.024,162.838,24.19ZM175.526,29L179.946,29L179.946,20.524C179.946,16.624,177.71,14.336,174.356,14.336C172.406,14.336,170.846,15.194,169.962,16.416L169.962,14.492L165.516,14.492L165.516,29L169.962,29L169.962,21.122C169.962,19.146,171.054,18.054,172.744,18.054C174.434,18.054,175.526,19.146,175.526,21.122L175.526,29ZM183.04,29L187.486,29L187.486,14.492L183.04,14.492L183.04,29ZM185.276,12.984C186.836,12.984,187.902,11.918,187.902,10.592C187.902,9.24,186.836,8.174,185.276,8.174C183.69,8.174,182.624,9.24,182.624,10.592C182.624,11.918,183.69,12.984,185.276,12.984ZM204.906,21.746C204.906,17.144,201.63,14.284,197.366,14.284C193.128,14.284,189.826,17.144,189.826,21.746C189.826,26.348,193.05,29.208,197.314,29.208C201.578,29.208,204.906,26.348,204.906,21.746ZM194.35,21.746C194.35,19.276,195.754,18.132,197.366,18.132C198.926,18.132,200.382,19.276,200.382,21.746C200.382,24.19,198.9,25.36,197.314,25.36C195.702,25.36,194.35,24.19,194.35,21.746ZM211.718,22.266C211.718,19.77,212.94,19.042,215.046,19.042L216.268,19.042L216.268,14.336C214.318,14.336,212.732,15.376,211.718,16.91L211.718,14.492L207.272,14.492L207.272,29L211.718,29L211.718,22.266ZM224.614,23.956C224.614,27.726,226.72,29,229.736,29L231.998,29L231.998,25.23L230.412,25.23C229.424,25.23,229.06,24.866,229.06,24.008L229.06,18.184L231.972,18.184L231.972,14.492L229.06,14.492L229.06,10.956L224.614,10.956L224.614,14.492L222.846,14.492L222.846,18.184L224.614,18.184L224.614,23.956ZM240.864,17.846C242.346,17.846,243.594,18.756,243.594,20.342L238.03,20.342C238.29,18.73,239.408,17.846,240.864,17.846ZM247.806,24.19L243.074,24.19C242.71,24.97,242.008,25.594,240.76,25.594C239.33,25.594,238.16,24.71,238.004,22.812L248.066,22.812C248.118,22.37,248.144,21.928,248.144,21.512C248.144,17.092,245.154,14.284,240.916,14.284C236.6,14.284,233.584,17.144,233.584,21.746C233.584,26.348,236.652,29.208,240.916,29.208C244.53,29.208,247.104,27.024,247.806,24.19ZM249.6,21.746C249.6,26.348,252.616,29.208,256.88,29.208C260.52,29.208,263.094,27.102,263.848,23.748L259.116,23.748C258.726,24.814,258.024,25.412,256.802,25.412C255.216,25.412,254.124,24.164,254.124,21.746C254.124,19.328,255.216,18.08,256.802,18.08C258.024,18.08,258.752,18.73,259.116,19.744L263.848,19.744C263.094,16.286,260.52,14.284,256.88,14.284C252.616,14.284,249.6,17.17,249.6,21.746ZM266.214,29L270.66,29L270.66,21.122C270.66,19.146,271.752,18.054,273.442,18.054C275.132,18.054,276.224,19.146,276.224,21.122L276.224,29L280.644,29L280.644,20.524C280.644,16.624,278.434,14.336,275.132,14.336C273.13,14.336,271.544,15.194,270.66,16.442L270.66,9.76L266.214,9.76L266.214,29ZM293.748,29L298.168,29L298.168,20.524C298.168,16.624,295.932,14.336,292.578,14.336C290.628,14.336,289.068,15.194,288.184,16.416L288.184,14.492L283.738,14.492L283.738,29L288.184,29L288.184,21.122C288.184,19.146,289.276,18.054,290.966,18.054C292.656,18.054,293.748,19.146,293.748,21.122L293.748,29ZM301.262,29L305.708,29L305.708,14.492L301.262,14.492L301.262,29ZM303.498,12.984C305.058,12.984,306.124,11.918,306.124,10.592C306.124,9.24,305.058,8.174,303.498,8.174C301.912,8.174,300.846,9.24,300.846,10.592C300.846,11.918,301.912,12.984,303.498,12.984ZM308.048,21.746C308.048,26.348,311.064,29.208,315.328,29.208C318.968,29.208,321.542,27.102,322.296,23.748L317.564,23.748C317.174,24.814,316.472,25.412,315.25,25.412C313.664,25.412,312.572,24.164,312.572,21.746C312.572,19.328,313.664,18.08,315.25,18.08C316.472,18.08,317.2,18.73,317.564,19.744L322.296,19.744C321.542,16.286,318.968,14.284,315.328,14.284C311.064,14.284,308.048,17.17,308.048,21.746ZM323.778,21.72C323.778,26.296,326.612,29.208,330.148,29.208C332.306,29.208,333.84,28.22,334.646,26.946L334.646,29L339.092,29L339.092,14.492L334.646,14.492L334.646,16.546C333.866,15.272,332.332,14.284,330.174,14.284C326.612,14.284,323.778,17.144,323.778,21.72ZM334.646,21.746C334.646,24.06,333.164,25.334,331.474,25.334C329.81,25.334,328.302,24.034,328.302,21.72C328.302,19.406,329.81,18.158,331.474,18.158C333.164,18.158,334.646,19.432,334.646,21.746ZM342.316,29L346.762,29L346.762,9.76L342.316,9.76L342.316,29ZM361.894,17.846C363.376,17.846,364.624,18.756,364.624,20.342L359.06,20.342C359.32,18.73,360.438,17.846,361.894,17.846ZM368.836,24.19L364.104,24.19C363.74,24.97,363.038,25.594,361.79,25.594C360.36,25.594,359.19,24.71,359.034,22.812L369.096,22.812C369.148,22.37,369.174,21.928,369.174,21.512C369.174,17.092,366.184,14.284,361.946,14.284C357.63,14.284,354.614,17.144,354.614,21.746C354.614,26.348,357.682,29.208,361.946,29.208C365.56,29.208,368.134,27.024,368.836,24.19ZM380.094,29L385.086,29L380.094,21.798L384.956,14.492L380.146,14.492L377.806,18.496L375.024,14.492L370.032,14.492L374.946,21.59L370.162,29L374.972,29L377.312,24.97L380.094,29ZM391.248,16.546L391.248,14.492L386.802,14.492L386.802,35.916L391.248,35.916L391.248,26.972C392.054,28.194,393.588,29.208,395.72,29.208C399.282,29.208,402.116,26.296,402.116,21.72C402.116,17.144,399.282,14.284,395.72,14.284C393.588,14.284,392.054,15.272,391.248,16.546ZM397.592,21.72C397.592,24.034,396.084,25.334,394.394,25.334C392.73,25.334,391.222,24.06,391.222,21.746C391.222,19.432,392.73,18.158,394.394,18.158C396.084,18.158,397.592,19.406,397.592,21.72ZM410.852,17.846C412.334,17.846,413.582,18.756,413.582,20.342L408.018,20.342C408.278,18.73,409.396,17.846,410.852,17.846ZM417.794,24.19L413.062,24.19C412.698,24.97,411.996,25.594,410.748,25.594C409.318,25.594,408.148,24.71,407.992,22.812L418.054,22.812C418.106,22.37,418.132,21.928,418.132,21.512C418.132,17.092,415.142,14.284,410.904,14.284C406.588,14.284,403.572,17.144,403.572,21.746C403.572,26.348,406.64,29.208,410.904,29.208C414.518,29.208,417.092,27.024,417.794,24.19ZM424.918,22.266C424.918,19.77,426.14,19.042,428.246,19.042L429.468,19.042L429.468,14.336C427.518,14.336,425.932,15.376,424.918,16.91L424.918,14.492L420.472,14.492L420.472,29L424.918,29L424.918,22.266ZM432.302,23.956C432.302,27.726,434.408,29,437.424,29L439.686,29L439.686,25.23L438.1,25.23C437.112,25.23,436.748,24.866,436.748,24.008L436.748,18.184L439.66,18.184L439.66,14.492L436.748,14.492L436.748,10.956L432.302,10.956L432.302,14.492L430.534,14.492L430.534,18.184L432.302,18.184L432.302,23.956ZM453.934,24.788C453.856,19.38,446.004,21.018,446.004,18.704C446.004,18.002,446.576,17.586,447.616,17.586C448.864,17.586,449.618,18.236,449.748,19.224L453.856,19.224C453.57,16.364,451.49,14.284,447.746,14.284C443.95,14.284,441.844,16.312,441.844,18.782C441.844,24.112,449.748,22.422,449.748,24.762C449.748,25.412,449.15,25.932,448.006,25.932C446.784,25.932,445.874,25.256,445.77,24.242L441.376,24.242C441.584,27.05,444.184,29.208,448.058,29.208C451.698,29.208,453.934,27.31,453.934,24.788ZM1.612,68L6.058,68L6.058,53.492L1.612,53.492L1.612,68ZM3.848,51.984C5.408,51.984,6.474,50.918,6.474,49.592C6.474,48.24,5.408,47.174,3.848,47.174C2.262,47.174,1.196,48.24,1.196,49.592C1.196,50.918,2.262,51.984,3.848,51.984ZM19.292,68L23.712,68L23.712,59.524C23.712,55.624,21.476,53.336,18.122,53.336C16.172,53.336,14.612,54.194,13.728,55.416L13.728,53.492L9.282,53.492L9.282,68L13.728,68L13.728,60.122C13.728,58.146,14.82,57.054,16.51,57.054C18.2,57.054,19.292,58.146,19.292,60.122L19.292,68ZM33.02,62.956C33.02,66.726,35.126,68,38.142,68L40.404,68L40.404,64.23L38.818,64.23C37.83,64.23,37.466,63.866,37.466,63.008L37.466,57.184L40.378,57.184L40.378,53.492L37.466,53.492L37.466,49.956L33.02,49.956L33.02,53.492L31.252,53.492L31.252,57.184L33.02,57.184L33.02,62.956ZM42.874,68L47.32,68L47.32,60.122C47.32,58.146,48.412,57.054,50.102,57.054C51.792,57.054,52.884,58.146,52.884,60.122L52.884,68L57.304,68L57.304,59.524C57.304,55.624,55.094,53.336,51.792,53.336C49.79,53.336,48.204,54.194,47.32,55.442L47.32,48.76L42.874,48.76L42.874,68ZM66.794,56.846C68.276,56.846,69.524,57.756,69.524,59.342L63.96,59.342C64.22,57.73,65.338,56.846,66.794,56.846ZM73.736,63.19L69.004,63.19C68.64,63.97,67.938,64.594,66.69,64.594C65.26,64.594,64.09,63.71,63.934,61.812L73.996,61.812C74.048,61.37,74.074,60.928,74.074,60.512C74.074,56.092,71.084,53.284,66.846,53.284C62.53,53.284,59.514,56.144,59.514,60.746C59.514,65.348,62.582,68.208,66.846,68.208C70.46,68.208,73.034,66.024,73.736,63.19ZM81.926,68L86.372,68L86.372,48.76L81.926,48.76L81.926,68ZM103.792,60.746C103.792,56.144,100.516,53.284,96.252,53.284C92.014,53.284,88.712,56.144,88.712,60.746C88.712,65.348,91.936,68.208,96.2,68.208C100.464,68.208,103.792,65.348,103.792,60.746ZM93.236,60.746C93.236,58.276,94.64,57.132,96.252,57.132C97.812,57.132,99.268,58.276,99.268,60.746C99.268,63.19,97.786,64.36,96.2,64.36C94.588,64.36,93.236,63.19,93.236,60.746ZM108.602,68L113.49,68L115.856,58.588L118.144,68L123.058,68L126.984,53.492L122.798,53.492L120.77,63.814L118.3,53.492L113.594,53.492L111.15,63.866L109.096,53.492L104.65,53.492L108.602,68ZM128.414,60.72L139.854,60.72L139.854,57.028L128.414,57.028L128.414,60.72ZM142.87,60.746C142.87,65.348,145.886,68.208,150.15,68.208C153.79,68.208,156.364,66.102,157.118,62.748L152.386,62.748C151.996,63.814,151.294,64.412,150.072,64.412C148.486,64.412,147.394,63.164,147.394,60.746C147.394,58.328,148.486,57.08,150.072,57.08C151.294,57.08,152.022,57.73,152.386,58.744L157.118,58.744C156.364,55.286,153.79,53.284,150.15,53.284C145.886,53.284,142.87,56.17,142.87,60.746ZM173.68,60.746C173.68,56.144,170.404,53.284,166.14,53.284C161.902,53.284,158.6,56.144,158.6,60.746C158.6,65.348,161.824,68.208,166.088,68.208C170.352,68.208,173.68,65.348,173.68,60.746ZM163.124,60.746C163.124,58.276,164.528,57.132,166.14,57.132C167.7,57.132,169.156,58.276,169.156,60.746C169.156,63.19,167.674,64.36,166.088,64.36C164.476,64.36,163.124,63.19,163.124,60.746ZM175.162,60.72C175.162,65.296,177.996,68.208,181.558,68.208C183.69,68.208,185.224,67.246,186.03,65.92L186.03,68L190.476,68L190.476,48.76L186.03,48.76L186.03,55.494C185.146,54.168,183.482,53.284,181.558,53.284C177.996,53.284,175.162,56.144,175.162,60.72ZM186.03,60.746C186.03,63.06,184.548,64.334,182.858,64.334C181.194,64.334,179.686,63.034,179.686,60.72C179.686,58.406,181.194,57.158,182.858,57.158C184.548,57.158,186.03,58.432,186.03,60.746ZM200.096,56.846C201.578,56.846,202.826,57.756,202.826,59.342L197.262,59.342C197.522,57.73,198.64,56.846,200.096,56.846ZM207.038,63.19L202.306,63.19C201.942,63.97,201.24,64.594,199.992,64.594C198.562,64.594,197.392,63.71,197.236,61.812L207.298,61.812C207.35,61.37,207.376,60.928,207.376,60.512C207.376,56.092,204.386,53.284,200.148,53.284C195.832,53.284,192.816,56.144,192.816,60.746C192.816,65.348,195.884,68.208,200.148,68.208C203.762,68.208,206.336,66.024,207.038,63.19ZM215.67,68L220.116,68L220.116,57.184L222.508,57.184L222.508,53.492L220.116,53.492L220.116,53.362C220.116,51.828,220.714,51.308,222.43,51.412L222.43,47.642C218.01,47.408,215.67,49.28,215.67,53.076L215.67,53.492L214.058,53.492L214.058,57.184L215.67,57.184L215.67,68ZM224.588,68L229.034,68L229.034,53.492L224.588,53.492L224.588,68ZM226.824,51.984C228.384,51.984,229.45,50.918,229.45,49.592C229.45,48.24,228.384,47.174,226.824,47.174C225.238,47.174,224.172,48.24,224.172,49.592C224.172,50.918,225.238,51.984,226.824,51.984ZM238.654,56.846C240.136,56.846,241.384,57.756,241.384,59.342L235.82,59.342C236.08,57.73,237.198,56.846,238.654,56.846ZM245.596,63.19L240.864,63.19C240.5,63.97,239.798,64.594,238.55,64.594C237.12,64.594,235.95,63.71,235.794,61.812L245.856,61.812C245.908,61.37,245.934,60.928,245.934,60.512C245.934,56.092,242.944,53.284,238.706,53.284C234.39,53.284,231.374,56.144,231.374,60.746C231.374,65.348,234.442,68.208,238.706,68.208C242.32,68.208,244.894,66.024,245.596,63.19ZM248.274,68L252.72,68L252.72,48.76L248.274,48.76L248.274,68ZM255.06,60.72C255.06,65.296,257.894,68.208,261.456,68.208C263.588,68.208,265.122,67.246,265.928,65.92L265.928,68L270.374,68L270.374,48.76L265.928,48.76L265.928,55.494C265.044,54.168,263.38,53.284,261.456,53.284C257.894,53.284,255.06,56.144,255.06,60.72ZM265.928,60.746C265.928,63.06,264.446,64.334,262.756,64.334C261.092,64.334,259.584,63.034,259.584,60.72C259.584,58.406,261.092,57.158,262.756,57.158C264.446,57.158,265.928,58.432,265.928,60.746Z" fill="#333333" fill-opacity="1"/></g></svg>