<svg xmlns="http://www.w3.org/2000/svg" xmlns:xlink="http://www.w3.org/1999/xlink" fill="none" version="1.1" width="235" height="21" viewBox="0 0 235 21"><g><path d="M0.518,10.114C0.518,13.04,2.744,15.084,5.488,15.084C7.518,15.084,9.268,14.076,10.01,12.172L8.092,12.172C7.574,13.208,6.65,13.698,5.488,13.698C3.556,13.698,2.156,12.312,2.156,10.114C2.156,7.916,3.556,6.544,5.488,6.544C6.65,6.544,7.574,7.034,8.092,8.07L10.01,8.07C9.268,6.166,7.518,5.144,5.488,5.144C2.744,5.144,0.518,7.202,0.518,10.114ZM19.222,11.136C19.222,8.714,17.486,7.16,15.288,7.16C13.09,7.16,11.354,8.714,11.354,11.136C11.354,13.558,13.02,15.126,15.218,15.126C17.43,15.126,19.222,13.558,19.222,11.136ZM12.978,11.136C12.978,9.386,14.056,8.546,15.26,8.546C16.45,8.546,17.584,9.386,17.584,11.136C17.584,12.886,16.408,13.74,15.218,13.74C14.014,13.74,12.978,12.886,12.978,11.136ZM22.4,8.42L22.4,7.286L20.804,7.286L20.804,18.668L22.4,18.668L22.4,13.88C22.904,14.482,23.814,15.126,25.088,15.126C27.118,15.126,28.714,13.488,28.714,11.108C28.714,8.728,27.118,7.16,25.088,7.16C23.828,7.16,22.89,7.776,22.4,8.42ZM27.09,11.108C27.09,12.774,25.942,13.74,24.738,13.74C23.548,13.74,22.4,12.802,22.4,11.136C22.4,9.484,23.548,8.546,24.738,8.546C25.942,8.546,27.09,9.442,27.09,11.108ZM33.334,13.166L31.164,7.286L29.386,7.286L32.424,14.874L30.856,18.626L32.508,18.626L37.24,7.286L35.588,7.286L33.334,13.166ZM40.04,10.94C40.04,9.302,40.768,8.812,41.944,8.812L42.35,8.812L42.35,7.16C41.258,7.16,40.488,7.636,40.04,8.406L40.04,7.286L38.444,7.286L38.444,15L40.04,15L40.04,10.94ZM43.82,15L45.416,15L45.416,7.286L43.82,7.286L43.82,15ZM44.632,6.264C45.192,6.264,45.64,5.816,45.64,5.242C45.64,4.668,45.192,4.22,44.632,4.22C44.058,4.22,43.61,4.668,43.61,5.242C43.61,5.816,44.058,6.264,44.632,6.264ZM46.984,11.108C46.984,13.488,48.594,15.126,50.624,15.126C51.884,15.126,52.808,14.496,53.298,13.838L53.298,15.126C53.298,16.666,52.374,17.422,51.142,17.422C50.036,17.422,49.182,16.876,48.944,16.078L47.362,16.078C47.558,17.786,49.084,18.808,51.142,18.808C53.55,18.808,54.908,17.226,54.908,15.126L54.908,7.286L53.298,7.286L53.298,8.406C52.822,7.748,51.884,7.16,50.624,7.16C48.594,7.16,46.984,8.728,46.984,11.108ZM53.298,11.136C53.298,12.802,52.164,13.74,50.96,13.74C49.77,13.74,48.622,12.774,48.622,11.108C48.622,9.442,49.77,8.546,50.96,8.546C52.164,8.546,53.298,9.484,53.298,11.136ZM57.008,15L58.604,15L58.604,10.688C58.604,9.274,59.374,8.546,60.55,8.546C61.712,8.546,62.482,9.274,62.482,10.688L62.482,15L64.064,15L64.064,10.45C64.064,8.294,62.72,7.16,60.998,7.16C60.004,7.16,59.136,7.538,58.604,8.182L58.604,4.64L57.008,4.64L57.008,15ZM66.346,12.858C66.346,14.426,67.2,15,68.572,15L69.832,15L69.832,13.67L68.852,13.67C68.18,13.67,67.956,13.432,67.956,12.858L67.956,8.588L69.832,8.588L69.832,7.286L67.956,7.286L67.956,5.368L66.346,5.368L66.346,7.286L65.436,7.286L65.436,8.588L66.346,8.588L66.346,12.858ZM74.536,10.128C74.536,13.054,76.524,15.126,79.422,15.126C82.306,15.126,84.294,13.054,84.294,10.128C84.294,7.202,82.306,5.144,79.422,5.144C76.524,5.144,74.536,7.202,74.536,10.128ZM83.594,10.128C83.594,12.732,81.984,14.482,79.422,14.482C76.846,14.482,75.236,12.732,75.236,10.128C75.236,7.496,76.846,5.788,79.422,5.788C81.984,5.788,83.594,7.496,83.594,10.128ZM82.25,8.966L80.794,8.966C80.598,8.364,80.08,8.042,79.38,8.042C78.414,8.042,77.742,8.742,77.742,10.114C77.742,11.486,78.414,12.2,79.38,12.2C80.164,12.2,80.57,11.85,80.794,11.276L82.25,11.276C81.9,12.48,80.836,13.334,79.38,13.334C77.672,13.334,76.328,12.074,76.328,10.114C76.328,8.154,77.672,6.908,79.38,6.908C80.836,6.908,81.9,7.664,82.25,8.966ZM92.806,5.27L89.628,5.27L89.628,15L92.806,15C95.928,15,97.972,13.166,97.972,10.17C97.972,7.16,95.928,5.27,92.806,5.27ZM91.224,13.698L91.224,6.572L92.806,6.572C95.102,6.572,96.334,7.944,96.334,10.17C96.334,12.382,95.102,13.698,92.806,13.698L91.224,13.698ZM102.802,8.504C103.992,8.504,104.93,9.26,104.958,10.45L100.688,10.45C100.856,9.232,101.724,8.504,102.802,8.504ZM106.414,12.704L104.692,12.704C104.398,13.306,103.852,13.782,102.872,13.782C101.696,13.782,100.786,13.012,100.674,11.738L106.568,11.738C106.61,11.472,106.624,11.22,106.624,10.954C106.624,8.686,105.07,7.16,102.872,7.16C100.59,7.16,99.022,8.714,99.022,11.136C99.022,13.558,100.66,15.126,102.872,15.126C104.762,15.126,105.98,14.048,106.414,12.704ZM107.66,11.108C107.66,13.488,109.27,15.126,111.272,15.126C112.56,15.126,113.484,14.51,113.974,13.852L113.974,15L115.584,15L115.584,7.286L113.974,7.286L113.974,8.406C113.498,7.776,112.602,7.16,111.3,7.16C109.27,7.16,107.66,8.728,107.66,11.108ZM113.974,11.136C113.974,12.802,112.84,13.74,111.636,13.74C110.446,13.74,109.298,12.774,109.298,11.108C109.298,9.442,110.446,8.546,111.636,8.546C112.84,8.546,113.974,9.484,113.974,11.136ZM128.618,15L130.2,15L130.2,10.45C130.2,8.294,128.828,7.16,127.022,7.16C125.902,7.16,124.81,7.748,124.334,8.686C123.802,7.678,122.78,7.16,121.562,7.16C120.638,7.16,119.798,7.538,119.28,8.168L119.28,7.286L117.684,7.286L117.684,15L119.28,15L119.28,10.688C119.28,9.274,120.05,8.546,121.226,8.546C122.388,8.546,123.158,9.274,123.158,10.688L123.158,15L124.74,15L124.74,10.688C124.74,9.274,125.51,8.546,126.686,8.546C127.848,8.546,128.618,9.274,128.618,10.688L128.618,15ZM139.58,11.136C139.58,8.714,137.844,7.16,135.646,7.16C133.448,7.16,131.712,8.714,131.712,11.136C131.712,13.558,133.378,15.126,135.576,15.126C137.788,15.126,139.58,13.558,139.58,11.136ZM133.336,11.136C133.336,9.386,134.414,8.546,135.618,8.546C136.808,8.546,137.942,9.386,137.942,11.136C137.942,12.886,136.766,13.74,135.576,13.74C134.372,13.74,133.336,12.886,133.336,11.136ZM144.2,13.166L142.03,7.286L140.252,7.286L143.29,14.874L141.722,18.626L143.374,18.626L148.106,7.286L146.454,7.286L144.2,13.166ZM152.446,6.572L155.05,6.572L155.05,15L156.646,15L156.646,6.572L159.236,6.572L159.236,5.27L152.446,5.27L152.446,6.572ZM164.094,8.504C165.284,8.504,166.222,9.26,166.25,10.45L161.98,10.45C162.148,9.232,163.016,8.504,164.094,8.504ZM167.706,12.704L165.984,12.704C165.69,13.306,165.144,13.782,164.164,13.782C162.988,13.782,162.078,13.012,161.966,11.738L167.86,11.738C167.902,11.472,167.916,11.22,167.916,10.954C167.916,8.686,166.362,7.16,164.164,7.16C161.882,7.16,160.314,8.714,160.314,11.136C160.314,13.558,161.952,15.126,164.164,15.126C166.054,15.126,167.272,14.048,167.706,12.704ZM168.952,11.136C168.952,13.558,170.52,15.126,172.732,15.126C174.622,15.126,175.854,14.076,176.288,12.564L174.566,12.564C174.272,13.362,173.684,13.782,172.732,13.782C171.444,13.782,170.59,12.83,170.59,11.136C170.59,9.456,171.444,8.504,172.732,8.504C173.684,8.504,174.3,8.98,174.566,9.722L176.288,9.722C175.854,8.098,174.622,7.16,172.732,7.16C170.52,7.16,168.952,8.728,168.952,11.136ZM177.884,15L179.48,15L179.48,10.688C179.48,9.274,180.25,8.546,181.426,8.546C182.588,8.546,183.358,9.274,183.358,10.688L183.358,15L184.94,15L184.94,10.45C184.94,8.294,183.596,7.16,181.874,7.16C180.88,7.16,180.012,7.538,179.48,8.182L179.48,4.64L177.884,4.64L177.884,15ZM192.444,15L194.026,15L194.026,10.45C194.026,8.294,192.668,7.16,190.862,7.16C189.938,7.16,189.084,7.538,188.566,8.168L188.566,7.286L186.97,7.286L186.97,15L188.566,15L188.566,10.688C188.566,9.274,189.336,8.546,190.512,8.546C191.674,8.546,192.444,9.274,192.444,10.688L192.444,15ZM203.406,11.136C203.406,8.714,201.67,7.16,199.472,7.16C197.274,7.16,195.538,8.714,195.538,11.136C195.538,13.558,197.204,15.126,199.402,15.126C201.614,15.126,203.406,13.558,203.406,11.136ZM197.162,11.136C197.162,9.386,198.24,8.546,199.444,8.546C200.634,8.546,201.768,9.386,201.768,11.136C201.768,12.886,200.592,13.74,199.402,13.74C198.198,13.74,197.162,12.886,197.162,11.136ZM204.988,15L206.584,15L206.584,4.64L204.988,4.64L204.988,15ZM216.034,11.136C216.034,8.714,214.298,7.16,212.1,7.16C209.902,7.16,208.166,8.714,208.166,11.136C208.166,13.558,209.832,15.126,212.03,15.126C214.242,15.126,216.034,13.558,216.034,11.136ZM209.79,11.136C209.79,9.386,210.868,8.546,212.072,8.546C213.262,8.546,214.396,9.386,214.396,11.136C214.396,12.886,213.22,13.74,212.03,13.74C210.826,13.74,209.79,12.886,209.79,11.136ZM217.084,11.108C217.084,13.488,218.694,15.126,220.724,15.126C221.984,15.126,222.908,14.496,223.398,13.838L223.398,15.126C223.398,16.666,222.474,17.422,221.242,17.422C220.136,17.422,219.282,16.876,219.044,16.078L217.462,16.078C217.658,17.786,219.184,18.808,221.242,18.808C223.65,18.808,225.008,17.226,225.008,15.126L225.008,7.286L223.398,7.286L223.398,8.406C222.922,7.748,221.984,7.16,220.724,7.16C218.694,7.16,217.084,8.728,217.084,11.108ZM223.398,11.136C223.398,12.802,222.264,13.74,221.06,13.74C219.87,13.74,218.722,12.774,218.722,11.108C218.722,9.442,219.87,8.546,221.06,8.546C222.264,8.546,223.398,9.484,223.398,11.136ZM230.146,13.166L227.976,7.286L226.198,7.286L229.236,14.874L227.668,18.626L229.32,18.626L234.052,7.286L232.4,7.286L230.146,13.166Z" fill="#999999" fill-opacity="1"/></g></svg>