<svg xmlns="http://www.w3.org/2000/svg" xmlns:xlink="http://www.w3.org/1999/xlink" fill="none" version="1.1" width="204" height="32" viewBox="0 0 204 32"><g><path d="M10.479,23L14.07,23L14.07,8.258L10.479,8.258L10.479,14.033L4.893,14.033L4.893,8.258L1.302,8.258L1.302,23L4.893,23L4.893,16.931L10.479,16.931L10.479,23ZM16.653,23L20.244,23L20.244,11.282L16.653,11.282L16.653,23ZM18.459,10.064C19.719,10.064,20.58,9.203,20.58,8.132C20.58,7.04,19.719,6.179,18.459,6.179C17.178,6.179,16.317,7.04,16.317,8.132C16.317,9.203,17.178,10.064,18.459,10.064ZM22.134,17.12C22.134,20.816,24.423,23.168,27.3,23.168C29.022,23.168,30.261,22.349,30.912,21.32L30.912,22.979C30.912,24.953,29.841,25.667,28.476,25.667C27.237,25.667,26.355,25.1,26.124,24.218L22.575,24.218C22.89,27.011,25.158,28.775,28.644,28.775C32.697,28.775,34.503,26.108,34.503,22.979L34.503,11.282L30.912,11.282L30.912,12.941C30.282,11.891,29.022,11.114,27.3,11.114C24.423,11.114,22.134,13.424,22.134,17.12ZM30.912,17.141C30.912,19.01,29.715,20.039,28.35,20.039C27.006,20.039,25.788,18.989,25.788,17.12C25.788,15.251,27.006,14.243,28.35,14.243C29.715,14.243,30.912,15.272,30.912,17.141ZM37.107,23L40.698,23L40.698,16.637C40.698,15.041,41.58,14.159,42.945,14.159C44.31,14.159,45.192,15.041,45.192,16.637L45.192,23L48.762,23L48.762,16.154C48.762,13.004,46.977,11.156,44.31,11.156C42.693,11.156,41.412,11.849,40.698,12.857L40.698,7.46L37.107,7.46L37.107,23ZM51.261,23L54.852,23L54.852,7.46L51.261,7.46L51.261,23ZM62.853,18.611L60.144,11.282L56.133,11.282L60.9,22.601L58.212,28.565L62.076,28.565L69.426,11.282L65.541,11.282L62.853,18.611ZM80.346,13.991C81.543,13.991,82.551,14.726,82.551,16.007L78.057,16.007C78.267,14.705,79.17,13.991,80.346,13.991ZM85.953,19.115L82.131,19.115C81.837,19.745,81.27,20.249,80.262,20.249C79.107,20.249,78.162,19.535,78.036,18.002L86.163,18.002C86.205,17.645,86.226,17.288,86.226,16.952C86.226,13.382,83.811,11.114,80.388,11.114C76.902,11.114,74.466,13.424,74.466,17.141C74.466,20.858,76.944,23.168,80.388,23.168C83.307,23.168,85.386,21.404,85.953,19.115ZM95.046,23L99.078,23L95.046,17.183L98.973,11.282L95.088,11.282L93.198,14.516L90.951,11.282L86.919,11.282L90.888,17.015L87.024,23L90.909,23L92.799,19.745L95.046,23ZM104.055,12.941L104.055,11.282L100.464,11.282L100.464,28.586L104.055,28.586L104.055,21.362C104.706,22.349,105.945,23.168,107.667,23.168C110.544,23.168,112.833,20.816,112.833,17.12C112.833,13.424,110.544,11.114,107.667,11.114C105.945,11.114,104.706,11.912,104.055,12.941ZM109.179,17.12C109.179,18.989,107.961,20.039,106.596,20.039C105.252,20.039,104.034,19.01,104.034,17.141C104.034,15.272,105.252,14.243,106.596,14.243C107.961,14.243,109.179,15.251,109.179,17.12ZM114.009,17.12C114.009,20.816,116.298,23.168,119.154,23.168C120.897,23.168,122.136,22.37,122.787,21.341L122.787,23L126.378,23L126.378,11.282L122.787,11.282L122.787,12.941C122.157,11.912,120.918,11.114,119.175,11.114C116.298,11.114,114.009,13.424,114.009,17.12ZM122.787,17.141C122.787,19.01,121.59,20.039,120.225,20.039C118.881,20.039,117.663,18.989,117.663,17.12C117.663,15.251,118.881,14.243,120.225,14.243C121.59,14.243,122.787,15.272,122.787,17.141ZM137.067,23L140.637,23L140.637,16.154C140.637,13.004,138.831,11.156,136.122,11.156C134.547,11.156,133.287,11.849,132.573,12.836L132.573,11.282L128.982,11.282L128.982,23L132.573,23L132.573,16.637C132.573,15.041,133.455,14.159,134.82,14.159C136.185,14.159,137.067,15.041,137.067,16.637L137.067,23ZM142.422,17.12C142.422,20.816,144.711,23.168,147.588,23.168C149.31,23.168,150.549,22.391,151.2,21.32L151.2,23L154.791,23L154.791,7.46L151.2,7.46L151.2,12.899C150.486,11.828,149.142,11.114,147.588,11.114C144.711,11.114,142.422,13.424,142.422,17.12ZM151.2,17.141C151.2,19.01,150.003,20.039,148.638,20.039C147.294,20.039,146.076,18.989,146.076,17.12C146.076,15.251,147.294,14.243,148.638,14.243C150.003,14.243,151.2,15.272,151.2,17.141ZM156.681,17.12C156.681,20.816,158.97,23.168,161.826,23.168C163.569,23.168,164.808,22.37,165.459,21.341L165.459,23L169.05,23L169.05,11.282L165.459,11.282L165.459,12.941C164.829,11.912,163.59,11.114,161.847,11.114C158.97,11.114,156.681,13.424,156.681,17.12ZM165.459,17.141C165.459,19.01,164.262,20.039,162.897,20.039C161.553,20.039,160.335,18.989,160.335,17.12C160.335,15.251,161.553,14.243,162.897,14.243C164.262,14.243,165.459,15.272,165.459,17.141ZM175.245,12.941L175.245,7.46L171.654,7.46L171.654,23L175.245,23L175.245,21.362C175.896,22.391,177.135,23.168,178.857,23.168C181.734,23.168,184.023,20.816,184.023,17.12C184.023,13.424,181.755,11.114,178.857,11.114C177.177,11.114,175.896,11.891,175.245,12.941ZM180.369,17.12C180.369,18.989,179.151,20.039,177.786,20.039C176.442,20.039,175.224,19.01,175.224,17.141C175.224,15.272,176.442,14.243,177.786,14.243C179.151,14.243,180.369,15.251,180.369,17.12ZM185.913,23L189.504,23L189.504,7.46L185.913,7.46L185.913,23ZM197.274,13.991C198.471,13.991,199.479,14.726,199.479,16.007L194.985,16.007C195.195,14.705,196.098,13.991,197.274,13.991ZM202.881,19.115L199.059,19.115C198.765,19.745,198.198,20.249,197.19,20.249C196.035,20.249,195.09,19.535,194.964,18.002L203.091,18.002C203.133,17.645,203.154,17.288,203.154,16.952C203.154,13.382,200.739,11.114,197.316,11.114C193.83,11.114,191.394,13.424,191.394,17.141C191.394,20.858,193.872,23.168,197.316,23.168C200.235,23.168,202.314,21.404,202.881,19.115Z" fill="#333333" fill-opacity="1"/></g></svg>