<svg xmlns="http://www.w3.org/2000/svg" xmlns:xlink="http://www.w3.org/1999/xlink" fill="none" version="1.1" width="380" height="52" viewBox="0 0 380 52"><g><path d="M9.01,15.77C9.01,11.384,2.618,13.288,2.618,10.228C2.618,8.953,3.621,8.29,4.896,8.324C6.341,8.341,7.089,9.242,7.191,10.041L8.891,10.041C8.704,8.239,7.225,6.998,4.964,6.998C2.618,6.998,1.037,8.324,1.037,10.279C1.037,14.682,7.446,12.642,7.446,15.838C7.446,16.96,6.562,17.81,5.066,17.81C3.417,17.81,2.72,16.824,2.618,15.838L0.969,15.838C1.003,17.793,2.686,19.119,5.066,19.119C7.633,19.119,9.01,17.453,9.01,15.77ZM19.55,9.684L18.003,9.684L18.003,14.801C18.003,16.807,16.932,17.793,15.334,17.793C13.77,17.793,12.733,16.824,12.733,14.937L12.733,9.684L11.203,9.684L11.203,15.141C11.203,17.81,12.886,19.136,15.028,19.136C16.269,19.136,17.408,18.592,18.003,17.623L18.003,19L19.55,19L19.55,9.684ZM23.715,11.401L23.715,9.684L22.168,9.684L22.168,23.42L23.715,23.42L23.715,17.283C24.293,18.235,25.5,19.153,27.2,19.153C29.699,19.153,31.62,17.198,31.62,14.308C31.62,11.401,29.699,9.531,27.2,9.531C25.5,9.531,24.276,10.415,23.715,11.401ZM30.039,14.308C30.039,16.501,28.594,17.793,26.877,17.793C25.194,17.793,23.715,16.518,23.715,14.325C23.715,12.166,25.194,10.874,26.877,10.874C28.594,10.874,30.039,12.115,30.039,14.308ZM35.207,11.401L35.207,9.684L33.66,9.684L33.66,23.42L35.207,23.42L35.207,17.283C35.785,18.235,36.992,19.153,38.692,19.153C41.191,19.153,43.112,17.198,43.112,14.308C43.112,11.401,41.191,9.531,38.692,9.531C36.992,9.531,35.768,10.415,35.207,11.401ZM41.531,14.308C41.531,16.501,40.086,17.793,38.369,17.793C36.686,17.793,35.207,16.518,35.207,14.325C35.207,12.166,36.686,10.874,38.369,10.874C40.086,10.874,41.531,12.115,41.531,14.308ZM53.992,14.325C53.992,11.384,51.935,9.531,49.283,9.531C46.648,9.531,44.574,11.384,44.574,14.325C44.574,17.283,46.58,19.153,49.215,19.153C51.867,19.153,53.992,17.283,53.992,14.325ZM46.155,14.325C46.155,11.979,47.634,10.874,49.266,10.874C50.864,10.874,52.411,11.979,52.411,14.325C52.411,16.688,50.83,17.793,49.215,17.793C47.6,17.793,46.155,16.688,46.155,14.325ZM57.579,13.934C57.579,11.775,58.701,11.112,60.18,11.112L60.588,11.112L60.588,9.514C59.109,9.514,58.106,10.16,57.579,11.197L57.579,9.684L56.032,9.684L56.032,19L57.579,19L57.579,13.934ZM62.713,16.45C62.713,18.32,63.648,19,65.297,19L66.691,19L66.691,17.691L65.552,17.691C64.6,17.691,64.26,17.368,64.26,16.45L64.26,10.959L66.691,10.959L66.691,9.684L64.26,9.684L64.26,7.338L62.713,7.338L62.713,9.684L61.506,9.684L61.506,10.959L62.713,10.959L62.713,16.45ZM73.389,19L74.936,19L74.936,10.959L76.891,10.959L76.891,9.684L74.936,9.684L74.936,9.021C74.936,7.814,75.395,7.304,76.789,7.304L76.789,6.012C74.409,6.012,73.389,6.947,73.389,9.021L73.389,9.684L72.182,9.684L72.182,10.959L73.389,10.959L73.389,19ZM87.533,14.325C87.533,11.384,85.476,9.531,82.824,9.531C80.189,9.531,78.115,11.384,78.115,14.325C78.115,17.283,80.121,19.153,82.756,19.153C85.408,19.153,87.533,17.283,87.533,14.325ZM79.696,14.325C79.696,11.979,81.175,10.874,82.807,10.874C84.405,10.874,85.952,11.979,85.952,14.325C85.952,16.688,84.371,17.793,82.756,17.793C81.141,17.793,79.696,16.688,79.696,14.325ZM91.12,13.934C91.12,11.775,92.242,11.112,93.721,11.112L94.129,11.112L94.129,9.514C92.65,9.514,91.647,10.16,91.12,11.197L91.12,9.684L89.573,9.684L89.573,19L91.12,19L91.12,13.934ZM99.875,14.325C99.875,17.283,101.762,19.153,104.414,19.153C106.726,19.153,108.239,17.861,108.715,16.008L107.049,16.008C106.709,17.181,105.791,17.844,104.414,17.844C102.714,17.844,101.456,16.637,101.456,14.325C101.456,12.047,102.714,10.84,104.414,10.84C105.791,10.84,106.726,11.554,107.049,12.676L108.715,12.676C108.239,10.721,106.726,9.531,104.414,9.531C101.762,9.531,99.875,11.401,99.875,14.325ZM119.034,9.684L117.487,9.684L117.487,14.801C117.487,16.807,116.416,17.793,114.818,17.793C113.254,17.793,112.217,16.824,112.217,14.937L112.217,9.684L110.687,9.684L110.687,15.141C110.687,17.81,112.37,19.136,114.512,19.136C115.753,19.136,116.892,18.592,117.487,17.623L117.487,19L119.034,19L119.034,9.684ZM128.35,16.467C128.282,13.135,122.876,14.342,122.876,12.132C122.876,11.384,123.556,10.84,124.695,10.84C125.936,10.84,126.65,11.52,126.718,12.455L128.265,12.455C128.163,10.636,126.803,9.531,124.746,9.531C122.672,9.531,121.329,10.704,121.329,12.132C121.329,15.6,126.837,14.393,126.837,16.467C126.837,17.232,126.157,17.844,124.933,17.844C123.624,17.844,122.825,17.164,122.74,16.263L121.142,16.263C121.244,17.963,122.774,19.153,124.95,19.153C127.007,19.153,128.35,17.997,128.35,16.467ZM130.866,16.45C130.866,18.32,131.801,19,133.45,19L134.844,19L134.844,17.691L133.705,17.691C132.753,17.691,132.413,17.368,132.413,16.45L132.413,10.959L134.844,10.959L134.844,9.684L132.413,9.684L132.413,7.338L130.866,7.338L130.866,9.684L129.659,9.684L129.659,10.959L130.866,10.959L130.866,16.45ZM145.554,14.325C145.554,11.384,143.497,9.531,140.845,9.531C138.21,9.531,136.136,11.384,136.136,14.325C136.136,17.283,138.142,19.153,140.777,19.153C143.429,19.153,145.554,17.283,145.554,14.325ZM137.717,14.325C137.717,11.979,139.196,10.874,140.828,10.874C142.426,10.874,143.973,11.979,143.973,14.325C143.973,16.688,142.392,17.793,140.777,17.793C139.162,17.793,137.717,16.688,137.717,14.325ZM161.041,19L162.571,19L162.571,13.509C162.571,10.84,160.922,9.514,158.797,9.514C157.369,9.514,156.043,10.245,155.499,11.588C154.887,10.194,153.612,9.514,152.082,9.514C150.858,9.514,149.753,10.041,149.141,11.027L149.141,9.684L147.594,9.684L147.594,19L149.141,19L149.141,13.866C149.141,11.86,150.212,10.857,151.776,10.857C153.306,10.857,154.326,11.826,154.326,13.73L154.326,19L155.856,19L155.856,13.866C155.856,11.86,156.927,10.857,158.491,10.857C160.021,10.857,161.041,11.826,161.041,13.73L161.041,19ZM169.065,14.325C169.065,17.283,170.952,19.153,173.604,19.153C175.916,19.153,177.429,17.861,177.905,16.008L176.239,16.008C175.899,17.181,174.981,17.844,173.604,17.844C171.904,17.844,170.646,16.637,170.646,14.325C170.646,12.047,171.904,10.84,173.604,10.84C174.981,10.84,175.916,11.554,176.239,12.676L177.905,12.676C177.429,10.721,175.916,9.531,173.604,9.531C170.952,9.531,169.065,11.401,169.065,14.325ZM188.802,14.325C188.802,11.384,186.745,9.531,184.093,9.531C181.458,9.531,179.384,11.384,179.384,14.325C179.384,17.283,181.39,19.153,184.025,19.153C186.677,19.153,188.802,17.283,188.802,14.325ZM180.965,14.325C180.965,11.979,182.444,10.874,184.076,10.874C185.674,10.874,187.221,11.979,187.221,14.325C187.221,16.688,185.64,17.793,184.025,17.793C182.41,17.793,180.965,16.688,180.965,14.325ZM204.289,19L205.819,19L205.819,13.509C205.819,10.84,204.17,9.514,202.045,9.514C200.617,9.514,199.291,10.245,198.747,11.588C198.135,10.194,196.86,9.514,195.33,9.514C194.106,9.514,193.001,10.041,192.389,11.027L192.389,9.684L190.842,9.684L190.842,19L192.389,19L192.389,13.866C192.389,11.86,193.46,10.857,195.024,10.857C196.554,10.857,197.574,11.826,197.574,13.73L197.574,19L199.104,19L199.104,13.866C199.104,11.86,200.175,10.857,201.739,10.857C203.269,10.857,204.289,11.826,204.289,13.73L204.289,19ZM209.899,11.401L209.899,9.684L208.352,9.684L208.352,23.42L209.899,23.42L209.899,17.283C210.477,18.235,211.684,19.153,213.384,19.153C215.883,19.153,217.804,17.198,217.804,14.308C217.804,11.401,215.883,9.531,213.384,9.531C211.684,9.531,210.46,10.415,209.899,11.401ZM216.223,14.308C216.223,16.501,214.778,17.793,213.061,17.793C211.378,17.793,209.899,16.518,209.899,14.325C209.899,12.166,211.378,10.874,213.061,10.874C214.778,10.874,216.223,12.115,216.223,14.308ZM228.684,14.325C228.684,11.384,226.627,9.531,223.975,9.531C221.34,9.531,219.266,11.384,219.266,14.325C219.266,17.283,221.272,19.153,223.907,19.153C226.559,19.153,228.684,17.283,228.684,14.325ZM220.847,14.325C220.847,11.979,222.326,10.874,223.958,10.874C225.556,10.874,227.103,11.979,227.103,14.325C227.103,16.688,225.522,17.793,223.907,17.793C222.292,17.793,220.847,16.688,220.847,14.325ZM237.541,19L239.071,19L239.071,13.509C239.071,10.84,237.422,9.514,235.263,9.514C234.005,9.514,232.883,10.041,232.271,11.01L232.271,9.684L230.724,9.684L230.724,19L232.271,19L232.271,13.849C232.271,11.843,233.359,10.857,234.94,10.857C236.504,10.857,237.541,11.826,237.541,13.73L237.541,19ZM245.565,10.84C247.163,10.84,248.523,11.843,248.506,13.662L242.624,13.662C242.794,11.843,244.052,10.84,245.565,10.84ZM249.917,16.127L248.251,16.127C247.911,17.13,247.027,17.844,245.633,17.844C244.052,17.844,242.726,16.807,242.607,14.92L250.053,14.92C250.087,14.597,250.104,14.325,250.104,13.985C250.104,11.435,248.336,9.531,245.633,9.531C242.913,9.531,241.026,11.384,241.026,14.325C241.026,17.283,242.981,19.153,245.633,19.153C247.945,19.153,249.441,17.827,249.917,16.127ZM258.961,19L260.491,19L260.491,13.509C260.491,10.84,258.842,9.514,256.683,9.514C255.425,9.514,254.303,10.041,253.691,11.01L253.691,9.684L252.144,9.684L252.144,19L253.691,19L253.691,13.849C253.691,11.843,254.779,10.857,256.36,10.857C257.924,10.857,258.961,11.826,258.961,13.73L258.961,19ZM263.364,16.45C263.364,18.32,264.299,19,265.948,19L267.342,19L267.342,17.691L266.203,17.691C265.251,17.691,264.911,17.368,264.911,16.45L264.911,10.959L267.342,10.959L267.342,9.684L264.911,9.684L264.911,7.338L263.364,7.338L263.364,9.684L262.157,9.684L262.157,10.959L263.364,10.959L263.364,16.45ZM275.91,16.467C275.842,13.135,270.436,14.342,270.436,12.132C270.436,11.384,271.116,10.84,272.255,10.84C273.496,10.84,274.21,11.52,274.278,12.455L275.825,12.455C275.723,10.636,274.363,9.531,272.306,9.531C270.232,9.531,268.889,10.704,268.889,12.132C268.889,15.6,274.397,14.393,274.397,16.467C274.397,17.232,273.717,17.844,272.493,17.844C271.184,17.844,270.385,17.164,270.3,16.263L268.702,16.263C268.804,17.963,270.334,19.153,272.51,19.153C274.567,19.153,275.91,17.997,275.91,16.467ZM276.743,21.431L277.78,21.431L279.684,16.858L277.984,16.858L276.743,21.431ZM287.538,11.401L287.538,9.684L285.991,9.684L285.991,23.42L287.538,23.42L287.538,17.283C288.116,18.235,289.323,19.153,291.023,19.153C293.522,19.153,295.443,17.198,295.443,14.308C295.443,11.401,293.522,9.531,291.023,9.531C289.323,9.531,288.099,10.415,287.538,11.401ZM293.862,14.308C293.862,16.501,292.417,17.793,290.7,17.793C289.017,17.793,287.538,16.518,287.538,14.325C287.538,12.166,289.017,10.874,290.7,10.874C292.417,10.874,293.862,12.115,293.862,14.308ZM297.483,19L299.03,19L299.03,6.42L297.483,6.42L297.483,19ZM309.927,9.684L308.38,9.684L308.38,14.801C308.38,16.807,307.309,17.793,305.711,17.793C304.147,17.793,303.11,16.824,303.11,14.937L303.11,9.684L301.58,9.684L301.58,15.141C301.58,17.81,303.263,19.136,305.405,19.136C306.646,19.136,307.785,18.592,308.38,17.623L308.38,19L309.927,19L309.927,9.684ZM311.967,14.308C311.967,17.198,313.888,19.153,316.387,19.153C318.087,19.153,319.294,18.252,319.855,17.249L319.855,19.204C319.855,21.193,318.614,22.247,316.965,22.247C315.435,22.247,314.33,21.482,313.99,20.36L312.46,20.36C312.766,22.349,314.517,23.59,316.965,23.59C319.702,23.59,321.419,21.771,321.419,19.204L321.419,9.684L319.855,9.684L319.855,11.384C319.311,10.381,318.087,9.531,316.387,9.531C313.888,9.531,311.967,11.401,311.967,14.308ZM319.855,14.325C319.855,16.518,318.393,17.793,316.693,17.793C314.993,17.793,313.548,16.501,313.548,14.308C313.548,12.115,314.993,10.874,316.693,10.874C318.393,10.874,319.855,12.166,319.855,14.325ZM323.459,14.308C323.459,17.198,325.38,19.153,327.879,19.153C329.579,19.153,330.786,18.252,331.347,17.249L331.347,19.204C331.347,21.193,330.106,22.247,328.457,22.247C326.927,22.247,325.822,21.482,325.482,20.36L323.952,20.36C324.258,22.349,326.009,23.59,328.457,23.59C331.194,23.59,332.911,21.771,332.911,19.204L332.911,9.684L331.347,9.684L331.347,11.384C330.803,10.381,329.579,9.531,327.879,9.531C325.38,9.531,323.459,11.401,323.459,14.308ZM331.347,14.325C331.347,16.518,329.885,17.793,328.185,17.793C326.485,17.793,325.04,16.501,325.04,14.308C325.04,12.115,326.485,10.874,328.185,10.874C329.885,10.874,331.347,12.166,331.347,14.325ZM334.951,14.308C334.951,17.198,336.872,19.153,339.354,19.153C341.071,19.153,342.278,18.269,342.839,17.266L342.839,19L344.403,19L344.403,9.684L342.839,9.684L342.839,11.384C342.295,10.415,341.105,9.531,339.371,9.531C336.872,9.531,334.951,11.401,334.951,14.308ZM342.839,14.325C342.839,16.518,341.377,17.793,339.677,17.793C337.977,17.793,336.532,16.501,336.532,14.308C336.532,12.115,337.977,10.874,339.677,10.874C341.377,10.874,342.839,12.166,342.839,14.325ZM348.568,11.418L348.568,6.42L347.021,6.42L347.021,19L348.568,19L348.568,17.283C349.146,18.303,350.353,19.153,352.053,19.153C354.552,19.153,356.473,17.198,356.473,14.308C356.473,11.401,354.569,9.531,352.053,9.531C350.404,9.531,349.163,10.381,348.568,11.418ZM354.892,14.308C354.892,16.501,353.447,17.793,351.73,17.793C350.047,17.793,348.568,16.518,348.568,14.325C348.568,12.166,350.047,10.874,351.73,10.874C353.447,10.874,354.892,12.115,354.892,14.308ZM358.513,19L360.06,19L360.06,6.42L358.513,6.42L358.513,19ZM366.656,10.84C368.254,10.84,369.614,11.843,369.597,13.662L363.715,13.662C363.885,11.843,365.143,10.84,366.656,10.84ZM371.008,16.127L369.342,16.127C369.002,17.13,368.118,17.844,366.724,17.844C365.143,17.844,363.817,16.807,363.698,14.92L371.144,14.92C371.178,14.597,371.195,14.325,371.195,13.985C371.195,11.435,369.427,9.531,366.724,9.531C364.004,9.531,362.117,11.384,362.117,14.325C362.117,17.283,364.072,19.153,366.724,19.153C369.036,19.153,370.532,17.827,371.008,16.127ZM1.309,45L2.856,45L2.856,35.684L1.309,35.684L1.309,45ZM2.108,34.171C2.669,34.171,3.128,33.712,3.128,33.117C3.128,32.522,2.669,32.063,2.108,32.063C1.513,32.063,1.054,32.522,1.054,33.117C1.054,33.712,1.513,34.171,2.108,34.171ZM12.308,45L13.838,45L13.838,39.509C13.838,36.84,12.189,35.514,10.03,35.514C8.772,35.514,7.65,36.041,7.038,37.01L7.038,35.684L5.491,35.684L5.491,45L7.038,45L7.038,39.849C7.038,37.843,8.126,36.857,9.707,36.857C11.271,36.857,12.308,37.826,12.308,39.73L12.308,45ZM16.711,42.45C16.711,44.32,17.646,45,19.295,45L20.689,45L20.689,43.691L19.55,43.691C18.598,43.691,18.258,43.368,18.258,42.45L18.258,36.959L20.689,36.959L20.689,35.684L18.258,35.684L18.258,33.338L16.711,33.338L16.711,35.684L15.504,35.684L15.504,36.959L16.711,36.959L16.711,42.45ZM26.52,36.84C28.118,36.84,29.478,37.843,29.461,39.662L23.579,39.662C23.749,37.843,25.007,36.84,26.52,36.84ZM30.872,42.127L29.206,42.127C28.866,43.13,27.982,43.844,26.588,43.844C25.007,43.844,23.681,42.807,23.562,40.92L31.008,40.92C31.042,40.597,31.059,40.325,31.059,39.985C31.059,37.435,29.291,35.531,26.588,35.531C23.868,35.531,21.981,37.384,21.981,40.325C21.981,43.283,23.936,45.153,26.588,45.153C28.9,45.153,30.396,43.827,30.872,42.127ZM32.521,40.308C32.521,43.198,34.442,45.153,36.941,45.153C38.641,45.153,39.848,44.252,40.409,43.249L40.409,45.204C40.409,47.193,39.168,48.247,37.519,48.247C35.989,48.247,34.884,47.482,34.544,46.36L33.014,46.36C33.32,48.349,35.071,49.59,37.519,49.59C40.256,49.59,41.973,47.771,41.973,45.204L41.973,35.684L40.409,35.684L40.409,37.384C39.865,36.381,38.641,35.531,36.941,35.531C34.442,35.531,32.521,37.401,32.521,40.308ZM40.409,40.325C40.409,42.518,38.947,43.793,37.247,43.793C35.547,43.793,34.102,42.501,34.102,40.308C34.102,38.115,35.547,36.874,37.247,36.874C38.947,36.874,40.409,38.166,40.409,40.325ZM46.138,39.934C46.138,37.775,47.26,37.112,48.739,37.112L49.147,37.112L49.147,35.514C47.668,35.514,46.665,36.16,46.138,37.197L46.138,35.684L44.591,35.684L44.591,45L46.138,45L46.138,39.934ZM50.354,40.308C50.354,43.198,52.275,45.153,54.757,45.153C56.474,45.153,57.681,44.269,58.242,43.266L58.242,45L59.806,45L59.806,35.684L58.242,35.684L58.242,37.384C57.698,36.415,56.508,35.531,54.774,35.531C52.275,35.531,50.354,37.401,50.354,40.308ZM58.242,40.325C58.242,42.518,56.78,43.793,55.08,43.793C53.38,43.793,51.935,42.501,51.935,40.308C51.935,38.115,53.38,36.874,55.08,36.874C56.78,36.874,58.242,38.166,58.242,40.325ZM62.764,42.45C62.764,44.32,63.699,45,65.348,45L66.742,45L66.742,43.691L65.603,43.691C64.651,43.691,64.311,43.368,64.311,42.45L64.311,36.959L66.742,36.959L66.742,35.684L64.311,35.684L64.311,33.338L62.764,33.338L62.764,35.684L61.557,35.684L61.557,36.959L62.764,36.959L62.764,42.45ZM68.612,45L70.159,45L70.159,35.684L68.612,35.684L68.612,45ZM69.411,34.171C69.972,34.171,70.431,33.712,70.431,33.117C70.431,32.522,69.972,32.063,69.411,32.063C68.816,32.063,68.357,32.522,68.357,33.117C68.357,33.712,68.816,34.171,69.411,34.171ZM81.634,40.325C81.634,37.384,79.577,35.531,76.925,35.531C74.29,35.531,72.216,37.384,72.216,40.325C72.216,43.283,74.222,45.153,76.857,45.153C79.509,45.153,81.634,43.283,81.634,40.325ZM73.797,40.325C73.797,37.979,75.276,36.874,76.908,36.874C78.506,36.874,80.053,37.979,80.053,40.325C80.053,42.688,78.472,43.793,76.857,43.793C75.242,43.793,73.797,42.688,73.797,40.325ZM90.491,45L92.021,45L92.021,39.509C92.021,36.84,90.372,35.514,88.213,35.514C86.955,35.514,85.833,36.041,85.221,37.01L85.221,35.684L83.674,35.684L83.674,45L85.221,45L85.221,39.849C85.221,37.843,86.309,36.857,87.89,36.857C89.454,36.857,90.491,37.826,90.491,39.73L90.491,45Z" fill="#5A5A5A" fill-opacity="1"/></g></svg>