<svg xmlns="http://www.w3.org/2000/svg" xmlns:xlink="http://www.w3.org/1999/xlink" fill="none" version="1.1" width="360" height="78" viewBox="0 0 360 78"><g><path d="M9.01,15.77C9.01,11.384,2.618,13.288,2.618,10.228C2.618,8.953,3.621,8.29,4.896,8.324C6.341,8.341,7.089,9.242,7.191,10.041L8.891,10.041C8.704,8.239,7.225,6.998,4.964,6.998C2.618,6.998,1.037,8.324,1.037,10.279C1.037,14.682,7.446,12.642,7.446,15.838C7.446,16.96,6.562,17.81,5.066,17.81C3.417,17.81,2.72,16.824,2.618,15.838L0.969,15.838C1.003,17.793,2.686,19.119,5.066,19.119C7.633,19.119,9.01,17.453,9.01,15.77ZM19.55,9.684L18.003,9.684L18.003,14.801C18.003,16.807,16.932,17.793,15.334,17.793C13.77,17.793,12.733,16.824,12.733,14.937L12.733,9.684L11.203,9.684L11.203,15.141C11.203,17.81,12.886,19.136,15.028,19.136C16.269,19.136,17.408,18.592,18.003,17.623L18.003,19L19.55,19L19.55,9.684ZM23.715,11.401L23.715,9.684L22.168,9.684L22.168,23.42L23.715,23.42L23.715,17.283C24.293,18.235,25.5,19.153,27.2,19.153C29.699,19.153,31.62,17.198,31.62,14.308C31.62,11.401,29.699,9.531,27.2,9.531C25.5,9.531,24.276,10.415,23.715,11.401ZM30.039,14.308C30.039,16.501,28.594,17.793,26.877,17.793C25.194,17.793,23.715,16.518,23.715,14.325C23.715,12.166,25.194,10.874,26.877,10.874C28.594,10.874,30.039,12.115,30.039,14.308ZM35.207,11.401L35.207,9.684L33.66,9.684L33.66,23.42L35.207,23.42L35.207,17.283C35.785,18.235,36.992,19.153,38.692,19.153C41.191,19.153,43.112,17.198,43.112,14.308C43.112,11.401,41.191,9.531,38.692,9.531C36.992,9.531,35.768,10.415,35.207,11.401ZM41.531,14.308C41.531,16.501,40.086,17.793,38.369,17.793C36.686,17.793,35.207,16.518,35.207,14.325C35.207,12.166,36.686,10.874,38.369,10.874C40.086,10.874,41.531,12.115,41.531,14.308ZM53.992,14.325C53.992,11.384,51.935,9.531,49.283,9.531C46.648,9.531,44.574,11.384,44.574,14.325C44.574,17.283,46.58,19.153,49.215,19.153C51.867,19.153,53.992,17.283,53.992,14.325ZM46.155,14.325C46.155,11.979,47.634,10.874,49.266,10.874C50.864,10.874,52.411,11.979,52.411,14.325C52.411,16.688,50.83,17.793,49.215,17.793C47.6,17.793,46.155,16.688,46.155,14.325ZM57.579,13.934C57.579,11.775,58.701,11.112,60.18,11.112L60.588,11.112L60.588,9.514C59.109,9.514,58.106,10.16,57.579,11.197L57.579,9.684L56.032,9.684L56.032,19L57.579,19L57.579,13.934ZM62.713,16.45C62.713,18.32,63.648,19,65.297,19L66.691,19L66.691,17.691L65.552,17.691C64.6,17.691,64.26,17.368,64.26,16.45L64.26,10.959L66.691,10.959L66.691,9.684L64.26,9.684L64.26,7.338L62.713,7.338L62.713,9.684L61.506,9.684L61.506,10.959L62.713,10.959L62.713,16.45ZM72.522,14.308C72.522,17.198,74.443,19.153,76.925,19.153C78.642,19.153,79.849,18.269,80.41,17.266L80.41,19L81.974,19L81.974,9.684L80.41,9.684L80.41,11.384C79.866,10.415,78.676,9.531,76.942,9.531C74.443,9.531,72.522,11.401,72.522,14.308ZM80.41,14.325C80.41,16.518,78.948,17.793,77.248,17.793C75.548,17.793,74.103,16.501,74.103,14.308C74.103,12.115,75.548,10.874,77.248,10.874C78.948,10.874,80.41,12.166,80.41,14.325ZM86.139,11.401L86.139,9.684L84.592,9.684L84.592,23.42L86.139,23.42L86.139,17.283C86.717,18.235,87.924,19.153,89.624,19.153C92.123,19.153,94.044,17.198,94.044,14.308C94.044,11.401,92.123,9.531,89.624,9.531C87.924,9.531,86.7,10.415,86.139,11.401ZM92.463,14.308C92.463,16.501,91.018,17.793,89.301,17.793C87.618,17.793,86.139,16.518,86.139,14.325C86.139,12.166,87.618,10.874,89.301,10.874C91.018,10.874,92.463,12.115,92.463,14.308ZM97.631,11.401L97.631,9.684L96.084,9.684L96.084,23.42L97.631,23.42L97.631,17.283C98.209,18.235,99.416,19.153,101.116,19.153C103.615,19.153,105.536,17.198,105.536,14.308C105.536,11.401,103.615,9.531,101.116,9.531C99.416,9.531,98.192,10.415,97.631,11.401ZM103.955,14.308C103.955,16.501,102.51,17.793,100.793,17.793C99.11,17.793,97.631,16.518,97.631,14.325C97.631,12.166,99.11,10.874,100.793,10.874C102.51,10.874,103.955,12.115,103.955,14.308ZM107.576,19L109.123,19L109.123,6.42L107.576,6.42L107.576,19ZM111.758,19L113.305,19L113.305,9.684L111.758,9.684L111.758,19ZM112.557,8.171C113.118,8.171,113.577,7.712,113.577,7.117C113.577,6.522,113.118,6.063,112.557,6.063C111.962,6.063,111.503,6.522,111.503,7.117C111.503,7.712,111.962,8.171,112.557,8.171ZM115.362,14.325C115.362,17.283,117.249,19.153,119.901,19.153C122.213,19.153,123.726,17.861,124.202,16.008L122.536,16.008C122.196,17.181,121.278,17.844,119.901,17.844C118.201,17.844,116.943,16.637,116.943,14.325C116.943,12.047,118.201,10.84,119.901,10.84C121.278,10.84,122.213,11.554,122.536,12.676L124.202,12.676C123.726,10.721,122.213,9.531,119.901,9.531C117.249,9.531,115.362,11.401,115.362,14.325ZM125.681,14.308C125.681,17.198,127.602,19.153,130.084,19.153C131.801,19.153,133.008,18.269,133.569,17.266L133.569,19L135.133,19L135.133,9.684L133.569,9.684L133.569,11.384C133.025,10.415,131.835,9.531,130.101,9.531C127.602,9.531,125.681,11.401,125.681,14.308ZM133.569,14.325C133.569,16.518,132.107,17.793,130.407,17.793C128.707,17.793,127.262,16.501,127.262,14.308C127.262,12.115,128.707,10.874,130.407,10.874C132.107,10.874,133.569,12.166,133.569,14.325ZM138.091,16.45C138.091,18.32,139.026,19,140.675,19L142.069,19L142.069,17.691L140.93,17.691C139.978,17.691,139.638,17.368,139.638,16.45L139.638,10.959L142.069,10.959L142.069,9.684L139.638,9.684L139.638,7.338L138.091,7.338L138.091,9.684L136.884,9.684L136.884,10.959L138.091,10.959L138.091,16.45ZM143.939,19L145.486,19L145.486,9.684L143.939,9.684L143.939,19ZM144.738,8.171C145.299,8.171,145.758,7.712,145.758,7.117C145.758,6.522,145.299,6.063,144.738,6.063C144.143,6.063,143.684,6.522,143.684,7.117C143.684,7.712,144.143,8.171,144.738,8.171ZM156.961,14.325C156.961,11.384,154.904,9.531,152.252,9.531C149.617,9.531,147.543,11.384,147.543,14.325C147.543,17.283,149.549,19.153,152.184,19.153C154.836,19.153,156.961,17.283,156.961,14.325ZM149.124,14.325C149.124,11.979,150.603,10.874,152.235,10.874C153.833,10.874,155.38,11.979,155.38,14.325C155.38,16.688,153.799,17.793,152.184,17.793C150.569,17.793,149.124,16.688,149.124,14.325ZM165.818,19L167.348,19L167.348,13.509C167.348,10.84,165.699,9.514,163.54,9.514C162.282,9.514,161.16,10.041,160.548,11.01L160.548,9.684L159.001,9.684L159.001,19L160.548,19L160.548,13.849C160.548,11.843,161.636,10.857,163.217,10.857C164.781,10.857,165.818,11.826,165.818,13.73L165.818,19ZM176.579,16.467C176.511,13.135,171.105,14.342,171.105,12.132C171.105,11.384,171.785,10.84,172.924,10.84C174.165,10.84,174.879,11.52,174.947,12.455L176.494,12.455C176.392,10.636,175.032,9.531,172.975,9.531C170.901,9.531,169.558,10.704,169.558,12.132C169.558,15.6,175.066,14.393,175.066,16.467C175.066,17.232,174.386,17.844,173.162,17.844C171.853,17.844,171.054,17.164,170.969,16.263L169.371,16.263C169.473,17.963,171.003,19.153,173.179,19.153C175.236,19.153,176.579,17.997,176.579,16.467ZM183.634,16.45C183.634,18.32,184.569,19,186.218,19L187.612,19L187.612,17.691L186.473,17.691C185.521,17.691,185.181,17.368,185.181,16.45L185.181,10.959L187.612,10.959L187.612,9.684L185.181,9.684L185.181,7.338L183.634,7.338L183.634,9.684L182.427,9.684L182.427,10.959L183.634,10.959L183.634,16.45ZM198.322,14.325C198.322,11.384,196.265,9.531,193.613,9.531C190.978,9.531,188.904,11.384,188.904,14.325C188.904,17.283,190.91,19.153,193.545,19.153C196.197,19.153,198.322,17.283,198.322,14.325ZM190.485,14.325C190.485,11.979,191.964,10.874,193.596,10.874C195.194,10.874,196.741,11.979,196.741,14.325C196.741,16.688,195.16,17.793,193.545,17.793C191.93,17.793,190.485,16.688,190.485,14.325ZM206.448,13.934C206.448,11.775,207.57,11.112,209.049,11.112L209.457,11.112L209.457,9.514C207.978,9.514,206.975,10.16,206.448,11.197L206.448,9.684L204.901,9.684L204.901,19L206.448,19L206.448,13.934ZM219.504,9.684L217.957,9.684L217.957,14.801C217.957,16.807,216.886,17.793,215.288,17.793C213.724,17.793,212.687,16.824,212.687,14.937L212.687,9.684L211.157,9.684L211.157,15.141C211.157,17.81,212.84,19.136,214.982,19.136C216.223,19.136,217.362,18.592,217.957,17.623L217.957,19L219.504,19L219.504,9.684ZM228.939,19L230.469,19L230.469,13.509C230.469,10.84,228.82,9.514,226.661,9.514C225.403,9.514,224.281,10.041,223.669,11.01L223.669,9.684L222.122,9.684L222.122,19L223.669,19L223.669,13.849C223.669,11.843,224.757,10.857,226.338,10.857C227.902,10.857,228.939,11.826,228.939,13.73L228.939,19ZM237.541,19L239.088,19L239.088,9.684L237.541,9.684L237.541,19ZM238.34,8.171C238.901,8.171,239.36,7.712,239.36,7.117C239.36,6.522,238.901,6.063,238.34,6.063C237.745,6.063,237.286,6.522,237.286,7.117C237.286,7.712,237.745,8.171,238.34,8.171ZM248.54,19L250.07,19L250.07,13.509C250.07,10.84,248.421,9.514,246.262,9.514C245.004,9.514,243.882,10.041,243.27,11.01L243.27,9.684L241.723,9.684L241.723,19L243.27,19L243.27,13.849C243.27,11.843,244.358,10.857,245.939,10.857C247.503,10.857,248.54,11.826,248.54,13.73L248.54,19ZM252.025,14.308C252.025,17.198,253.946,19.153,256.445,19.153C258.145,19.153,259.352,18.286,259.913,17.249L259.913,19L261.477,19L261.477,6.42L259.913,6.42L259.913,11.35C259.267,10.279,257.924,9.531,256.462,9.531C253.946,9.531,252.025,11.401,252.025,14.308ZM259.913,14.325C259.913,16.518,258.451,17.793,256.751,17.793C255.051,17.793,253.606,16.501,253.606,14.308C253.606,12.115,255.051,10.874,256.751,10.874C258.451,10.874,259.913,12.166,259.913,14.325ZM268.056,10.84C269.654,10.84,271.014,11.843,270.997,13.662L265.115,13.662C265.285,11.843,266.543,10.84,268.056,10.84ZM272.408,16.127L270.742,16.127C270.402,17.13,269.518,17.844,268.124,17.844C266.543,17.844,265.217,16.807,265.098,14.92L272.544,14.92C272.578,14.597,272.595,14.325,272.595,13.985C272.595,11.435,270.827,9.531,268.124,9.531C265.404,9.531,263.517,11.384,263.517,14.325C263.517,17.283,265.472,19.153,268.124,19.153C270.436,19.153,271.932,17.827,272.408,16.127ZM276.182,11.401L276.182,9.684L274.635,9.684L274.635,23.42L276.182,23.42L276.182,17.283C276.76,18.235,277.967,19.153,279.667,19.153C282.166,19.153,284.087,17.198,284.087,14.308C284.087,11.401,282.166,9.531,279.667,9.531C277.967,9.531,276.743,10.415,276.182,11.401ZM282.506,14.308C282.506,16.501,281.061,17.793,279.344,17.793C277.661,17.793,276.182,16.518,276.182,14.325C276.182,12.166,277.661,10.874,279.344,10.874C281.061,10.874,282.506,12.115,282.506,14.308ZM290.088,10.84C291.686,10.84,293.046,11.843,293.029,13.662L287.147,13.662C287.317,11.843,288.575,10.84,290.088,10.84ZM294.44,16.127L292.774,16.127C292.434,17.13,291.55,17.844,290.156,17.844C288.575,17.844,287.249,16.807,287.13,14.92L294.576,14.92C294.61,14.597,294.627,14.325,294.627,13.985C294.627,11.435,292.859,9.531,290.156,9.531C287.436,9.531,285.549,11.384,285.549,14.325C285.549,17.283,287.504,19.153,290.156,19.153C292.468,19.153,293.964,17.827,294.44,16.127ZM303.484,19L305.014,19L305.014,13.509C305.014,10.84,303.365,9.514,301.206,9.514C299.948,9.514,298.826,10.041,298.214,11.01L298.214,9.684L296.667,9.684L296.667,19L298.214,19L298.214,13.849C298.214,11.843,299.302,10.857,300.883,10.857C302.447,10.857,303.484,11.826,303.484,13.73L303.484,19ZM306.969,14.308C306.969,17.198,308.89,19.153,311.389,19.153C313.089,19.153,314.296,18.286,314.857,17.249L314.857,19L316.421,19L316.421,6.42L314.857,6.42L314.857,11.35C314.211,10.279,312.868,9.531,311.406,9.531C308.89,9.531,306.969,11.401,306.969,14.308ZM314.857,14.325C314.857,16.518,313.395,17.793,311.695,17.793C309.995,17.793,308.55,16.501,308.55,14.308C308.55,12.115,309.995,10.874,311.695,10.874C313.395,10.874,314.857,12.166,314.857,14.325ZM323,10.84C324.598,10.84,325.958,11.843,325.941,13.662L320.059,13.662C320.229,11.843,321.487,10.84,323,10.84ZM327.352,16.127L325.686,16.127C325.346,17.13,324.462,17.844,323.068,17.844C321.487,17.844,320.161,16.807,320.042,14.92L327.488,14.92C327.522,14.597,327.539,14.325,327.539,13.985C327.539,11.435,325.771,9.531,323.068,9.531C320.348,9.531,318.461,11.384,318.461,14.325C318.461,17.283,320.416,19.153,323.068,19.153C325.38,19.153,326.876,17.827,327.352,16.127ZM336.396,19L337.926,19L337.926,13.509C337.926,10.84,336.277,9.514,334.118,9.514C332.86,9.514,331.738,10.041,331.126,11.01L331.126,9.684L329.579,9.684L329.579,19L331.126,19L331.126,13.849C331.126,11.843,332.214,10.857,333.795,10.857C335.359,10.857,336.396,11.826,336.396,13.73L336.396,19ZM340.799,16.45C340.799,18.32,341.734,19,343.383,19L344.777,19L344.777,17.691L343.638,17.691C342.686,17.691,342.346,17.368,342.346,16.45L342.346,10.959L344.777,10.959L344.777,9.684L342.346,9.684L342.346,7.338L340.799,7.338L340.799,9.684L339.592,9.684L339.592,10.959L340.799,10.959L340.799,16.45ZM346.647,19L348.194,19L348.194,6.42L346.647,6.42L346.647,19ZM354.365,17.232L351.441,9.684L349.724,9.684L353.481,18.898L351.645,23.386L353.243,23.386L358.853,9.684L357.255,9.684L354.365,17.232ZM6.137,45L7.684,45L7.684,36.959L9.639,36.959L9.639,35.684L7.684,35.684L7.684,35.021C7.684,33.814,8.143,33.304,9.537,33.304L9.537,32.012C7.157,32.012,6.137,32.947,6.137,35.021L6.137,35.684L4.93,35.684L4.93,36.959L6.137,36.959L6.137,45ZM12.988,39.934C12.988,37.775,14.11,37.112,15.589,37.112L15.997,37.112L15.997,35.514C14.518,35.514,13.515,36.16,12.988,37.197L12.988,35.684L11.441,35.684L11.441,45L12.988,45L12.988,39.934ZM26.622,40.325C26.622,37.384,24.565,35.531,21.913,35.531C19.278,35.531,17.204,37.384,17.204,40.325C17.204,43.283,19.21,45.153,21.845,45.153C24.497,45.153,26.622,43.283,26.622,40.325ZM18.785,40.325C18.785,37.979,20.264,36.874,21.896,36.874C23.494,36.874,25.041,37.979,25.041,40.325C25.041,42.688,23.46,43.793,21.845,43.793C20.23,43.793,18.785,42.688,18.785,40.325ZM42.109,45L43.639,45L43.639,39.509C43.639,36.84,41.99,35.514,39.865,35.514C38.437,35.514,37.111,36.245,36.567,37.588C35.955,36.194,34.68,35.514,33.15,35.514C31.926,35.514,30.821,36.041,30.209,37.027L30.209,35.684L28.662,35.684L28.662,45L30.209,45L30.209,39.866C30.209,37.86,31.28,36.857,32.844,36.857C34.374,36.857,35.394,37.826,35.394,39.73L35.394,45L36.924,45L36.924,39.866C36.924,37.86,37.995,36.857,39.559,36.857C41.089,36.857,42.109,37.826,42.109,39.73L42.109,45ZM51.051,42.45C51.051,44.32,51.986,45,53.635,45L55.029,45L55.029,43.691L53.89,43.691C52.938,43.691,52.598,43.368,52.598,42.45L52.598,36.959L55.029,36.959L55.029,35.684L52.598,35.684L52.598,33.338L51.051,33.338L51.051,35.684L49.844,35.684L49.844,36.959L51.051,36.959L51.051,42.45ZM56.899,45L58.446,45L58.446,39.849C58.446,37.843,59.534,36.857,61.115,36.857C62.679,36.857,63.716,37.826,63.716,39.73L63.716,45L65.246,45L65.246,39.509C65.246,36.84,63.597,35.514,61.523,35.514C60.214,35.514,59.058,36.041,58.446,37.027L58.446,32.42L56.899,32.42L56.899,45ZM71.74,36.84C73.338,36.84,74.698,37.843,74.681,39.662L68.799,39.662C68.969,37.843,70.227,36.84,71.74,36.84ZM76.092,42.127L74.426,42.127C74.086,43.13,73.202,43.844,71.808,43.844C70.227,43.844,68.901,42.807,68.782,40.92L76.228,40.92C76.262,40.597,76.279,40.325,76.279,39.985C76.279,37.435,74.511,35.531,71.808,35.531C69.088,35.531,67.201,37.384,67.201,40.325C67.201,43.283,69.156,45.153,71.808,45.153C74.12,45.153,75.616,43.827,76.092,42.127ZM84.405,37.401L84.405,35.684L82.858,35.684L82.858,49.42L84.405,49.42L84.405,43.283C84.983,44.235,86.19,45.153,87.89,45.153C90.389,45.153,92.31,43.198,92.31,40.308C92.31,37.401,90.389,35.531,87.89,35.531C86.19,35.531,84.966,36.415,84.405,37.401ZM90.729,40.308C90.729,42.501,89.284,43.793,87.567,43.793C85.884,43.793,84.405,42.518,84.405,40.325C84.405,38.166,85.884,36.874,87.567,36.874C89.284,36.874,90.729,38.115,90.729,40.308ZM94.35,45L95.897,45L95.897,32.42L94.35,32.42L94.35,45ZM97.954,40.308C97.954,43.198,99.875,45.153,102.357,45.153C104.074,45.153,105.281,44.269,105.842,43.266L105.842,45L107.406,45L107.406,35.684L105.842,35.684L105.842,37.384C105.298,36.415,104.108,35.531,102.374,35.531C99.875,35.531,97.954,37.401,97.954,40.308ZM105.842,40.325C105.842,42.518,104.38,43.793,102.68,43.793C100.98,43.793,99.535,42.501,99.535,40.308C99.535,38.115,100.98,36.874,102.68,36.874C104.38,36.874,105.842,38.166,105.842,40.325ZM110.364,42.45C110.364,44.32,111.299,45,112.948,45L114.342,45L114.342,43.691L113.203,43.691C112.251,43.691,111.911,43.368,111.911,42.45L111.911,36.959L114.342,36.959L114.342,35.684L111.911,35.684L111.911,33.338L110.364,33.338L110.364,35.684L109.157,35.684L109.157,36.959L110.364,36.959L110.364,42.45ZM116.501,45L118.048,45L118.048,36.959L120.003,36.959L120.003,35.684L118.048,35.684L118.048,35.021C118.048,33.814,118.507,33.304,119.901,33.304L119.901,32.012C117.521,32.012,116.501,32.947,116.501,35.021L116.501,35.684L115.294,35.684L115.294,36.959L116.501,36.959L116.501,45ZM130.645,40.325C130.645,37.384,128.588,35.531,125.936,35.531C123.301,35.531,121.227,37.384,121.227,40.325C121.227,43.283,123.233,45.153,125.868,45.153C128.52,45.153,130.645,43.283,130.645,40.325ZM122.808,40.325C122.808,37.979,124.287,36.874,125.919,36.874C127.517,36.874,129.064,37.979,129.064,40.325C129.064,42.688,127.483,43.793,125.868,43.793C124.253,43.793,122.808,42.688,122.808,40.325ZM134.232,39.934C134.232,37.775,135.354,37.112,136.833,37.112L137.241,37.112L137.241,35.514C135.762,35.514,134.759,36.16,134.232,37.197L134.232,35.684L132.685,35.684L132.685,45L134.232,45L134.232,39.934ZM152.473,45L154.003,45L154.003,39.509C154.003,36.84,152.354,35.514,150.229,35.514C148.801,35.514,147.475,36.245,146.931,37.588C146.319,36.194,145.044,35.514,143.514,35.514C142.29,35.514,141.185,36.041,140.573,37.027L140.573,35.684L139.026,35.684L139.026,45L140.573,45L140.573,39.866C140.573,37.86,141.644,36.857,143.208,36.857C144.738,36.857,145.758,37.826,145.758,39.73L145.758,45L147.288,45L147.288,39.866C147.288,37.86,148.359,36.857,149.923,36.857C151.453,36.857,152.473,37.826,152.473,39.73L152.473,45ZM155.193,47.431L156.23,47.431L158.134,42.858L156.434,42.858L155.193,47.431ZM173.281,40.325C173.281,37.384,171.224,35.531,168.572,35.531C165.937,35.531,163.863,37.384,163.863,40.325C163.863,43.283,165.869,45.153,168.504,45.153C171.156,45.153,173.281,43.283,173.281,40.325ZM165.444,40.325C165.444,37.979,166.923,36.874,168.555,36.874C170.153,36.874,171.7,37.979,171.7,40.325C171.7,42.688,170.119,43.793,168.504,43.793C166.889,43.793,165.444,42.688,165.444,40.325ZM182.138,45L183.668,45L183.668,39.509C183.668,36.84,182.019,35.514,179.86,35.514C178.602,35.514,177.48,36.041,176.868,37.01L176.868,35.684L175.321,35.684L175.321,45L176.868,45L176.868,39.849C176.868,37.843,177.956,36.857,179.537,36.857C181.101,36.857,182.138,37.826,182.138,39.73L182.138,45ZM190.162,36.84C191.76,36.84,193.12,37.843,193.103,39.662L187.221,39.662C187.391,37.843,188.649,36.84,190.162,36.84ZM194.514,42.127L192.848,42.127C192.508,43.13,191.624,43.844,190.23,43.844C188.649,43.844,187.323,42.807,187.204,40.92L194.65,40.92C194.684,40.597,194.701,40.325,194.701,39.985C194.701,37.435,192.933,35.531,190.23,35.531C187.51,35.531,185.623,37.384,185.623,40.325C185.623,43.283,187.578,45.153,190.23,45.153C192.542,45.153,194.038,43.827,194.514,42.127ZM196.418,39.424L203.201,39.424L203.201,38.115L196.418,38.115L196.418,39.424ZM205.53,40.325C205.53,43.283,207.417,45.153,210.069,45.153C212.381,45.153,213.894,43.861,214.37,42.008L212.704,42.008C212.364,43.181,211.446,43.844,210.069,43.844C208.369,43.844,207.111,42.637,207.111,40.325C207.111,38.047,208.369,36.84,210.069,36.84C211.446,36.84,212.381,37.554,212.704,38.676L214.37,38.676C213.894,36.721,212.381,35.531,210.069,35.531C207.417,35.531,205.53,37.401,205.53,40.325ZM216.427,45L217.974,45L217.974,32.42L216.427,32.42L216.427,45ZM220.609,45L222.156,45L222.156,35.684L220.609,35.684L220.609,45ZM221.408,34.171C221.969,34.171,222.428,33.712,222.428,33.117C222.428,32.522,221.969,32.063,221.408,32.063C220.813,32.063,220.354,32.522,220.354,33.117C220.354,33.712,220.813,34.171,221.408,34.171ZM224.213,40.325C224.213,43.283,226.1,45.153,228.752,45.153C231.064,45.153,232.577,43.861,233.053,42.008L231.387,42.008C231.047,43.181,230.129,43.844,228.752,43.844C227.052,43.844,225.794,42.637,225.794,40.325C225.794,38.047,227.052,36.84,228.752,36.84C230.129,36.84,231.064,37.554,231.387,38.676L233.053,38.676C232.577,36.721,231.064,35.531,228.752,35.531C226.1,35.531,224.213,37.401,224.213,40.325ZM235.11,45L236.657,45L236.657,40.886L240.312,45L242.42,45L238.017,40.325L242.403,35.684L240.244,35.684L236.657,39.815L236.657,32.42L235.11,32.42L235.11,45ZM249.951,39.934C249.951,37.775,251.073,37.112,252.552,37.112L252.96,37.112L252.96,35.514C251.481,35.514,250.478,36.16,249.951,37.197L249.951,35.684L248.404,35.684L248.404,45L249.951,45L249.951,39.934ZM254.167,40.308C254.167,43.198,256.088,45.153,258.57,45.153C260.287,45.153,261.494,44.269,262.055,43.266L262.055,45L263.619,45L263.619,35.684L262.055,35.684L262.055,37.384C261.511,36.415,260.321,35.531,258.587,35.531C256.088,35.531,254.167,37.401,254.167,40.308ZM262.055,40.325C262.055,42.518,260.593,43.793,258.893,43.793C257.193,43.793,255.748,42.501,255.748,40.308C255.748,38.115,257.193,36.874,258.893,36.874C260.593,36.874,262.055,38.166,262.055,40.325ZM267.784,37.401L267.784,35.684L266.237,35.684L266.237,49.42L267.784,49.42L267.784,43.283C268.362,44.235,269.569,45.153,271.269,45.153C273.768,45.153,275.689,43.198,275.689,40.308C275.689,37.401,273.768,35.531,271.269,35.531C269.569,35.531,268.345,36.415,267.784,37.401ZM274.108,40.308C274.108,42.501,272.663,43.793,270.946,43.793C269.263,43.793,267.784,42.518,267.784,40.325C267.784,38.166,269.263,36.874,270.946,36.874C272.663,36.874,274.108,38.115,274.108,40.308ZM277.729,45L279.276,45L279.276,35.684L277.729,35.684L277.729,45ZM278.528,34.171C279.089,34.171,279.548,33.712,279.548,33.117C279.548,32.522,279.089,32.063,278.528,32.063C277.933,32.063,277.474,32.522,277.474,33.117C277.474,33.712,277.933,34.171,278.528,34.171ZM281.333,40.308C281.333,43.198,283.254,45.153,285.753,45.153C287.453,45.153,288.66,44.286,289.221,43.249L289.221,45L290.785,45L290.785,32.42L289.221,32.42L289.221,37.35C288.575,36.279,287.232,35.531,285.77,35.531C283.254,35.531,281.333,37.401,281.333,40.308ZM289.221,40.325C289.221,42.518,287.759,43.793,286.059,43.793C284.359,43.793,282.914,42.501,282.914,40.308C282.914,38.115,284.359,36.874,286.059,36.874C287.759,36.874,289.221,38.166,289.221,40.325ZM0.731,66.308C0.731,69.198,2.652,71.153,5.151,71.153C6.851,71.153,8.058,70.286,8.619,69.249L8.619,71L10.183,71L10.183,58.42L8.619,58.42L8.619,63.35C7.973,62.279,6.63,61.531,5.168,61.531C2.652,61.531,0.731,63.401,0.731,66.308ZM8.619,66.325C8.619,68.518,7.157,69.793,5.457,69.793C3.757,69.793,2.312,68.501,2.312,66.308C2.312,64.115,3.757,62.874,5.457,62.874C7.157,62.874,8.619,64.166,8.619,66.325ZM16.762,62.84C18.36,62.84,19.72,63.843,19.703,65.662L13.821,65.662C13.991,63.843,15.249,62.84,16.762,62.84ZM21.114,68.127L19.448,68.127C19.108,69.13,18.224,69.844,16.83,69.844C15.249,69.844,13.923,68.807,13.804,66.92L21.25,66.92C21.284,66.597,21.301,66.325,21.301,65.985C21.301,63.435,19.533,61.531,16.83,61.531C14.11,61.531,12.223,63.384,12.223,66.325C12.223,69.283,14.178,71.153,16.83,71.153C19.142,71.153,20.638,69.827,21.114,68.127ZM24.888,63.401L24.888,61.684L23.341,61.684L23.341,75.42L24.888,75.42L24.888,69.283C25.466,70.235,26.673,71.153,28.373,71.153C30.872,71.153,32.793,69.198,32.793,66.308C32.793,63.401,30.872,61.531,28.373,61.531C26.673,61.531,25.449,62.415,24.888,63.401ZM31.212,66.308C31.212,68.501,29.767,69.793,28.05,69.793C26.367,69.793,24.888,68.518,24.888,66.325C24.888,64.166,26.367,62.874,28.05,62.874C29.767,62.874,31.212,64.115,31.212,66.308ZM34.833,71L36.38,71L36.38,58.42L34.833,58.42L34.833,71ZM47.855,66.325C47.855,63.384,45.798,61.531,43.146,61.531C40.511,61.531,38.437,63.384,38.437,66.325C38.437,69.283,40.443,71.153,43.078,71.153C45.73,71.153,47.855,69.283,47.855,66.325ZM40.018,66.325C40.018,63.979,41.497,62.874,43.129,62.874C44.727,62.874,46.274,63.979,46.274,66.325C46.274,68.688,44.693,69.793,43.078,69.793C41.463,69.793,40.018,68.688,40.018,66.325ZM53.431,69.232L50.507,61.684L48.79,61.684L52.547,70.898L50.711,75.386L52.309,75.386L57.919,61.684L56.321,61.684L53.431,69.232ZM72.913,71L74.443,71L74.443,65.509C74.443,62.84,72.794,61.514,70.669,61.514C69.241,61.514,67.915,62.245,67.371,63.588C66.759,62.194,65.484,61.514,63.954,61.514C62.73,61.514,61.625,62.041,61.013,63.027L61.013,61.684L59.466,61.684L59.466,71L61.013,71L61.013,65.866C61.013,63.86,62.084,62.857,63.648,62.857C65.178,62.857,66.198,63.826,66.198,65.73L66.198,71L67.728,71L67.728,65.866C67.728,63.86,68.799,62.857,70.363,62.857C71.893,62.857,72.913,63.826,72.913,65.73L72.913,71ZM80.937,62.84C82.535,62.84,83.895,63.843,83.878,65.662L77.996,65.662C78.166,63.843,79.424,62.84,80.937,62.84ZM85.289,68.127L83.623,68.127C83.283,69.13,82.399,69.844,81.005,69.844C79.424,69.844,78.098,68.807,77.979,66.92L85.425,66.92C85.459,66.597,85.476,66.325,85.476,65.985C85.476,63.435,83.708,61.531,81.005,61.531C78.285,61.531,76.398,63.384,76.398,66.325C76.398,69.283,78.353,71.153,81.005,71.153C83.317,71.153,84.813,69.827,85.289,68.127ZM94.333,71L95.863,71L95.863,65.509C95.863,62.84,94.214,61.514,92.055,61.514C90.797,61.514,89.675,62.041,89.063,63.01L89.063,61.684L87.516,61.684L87.516,71L89.063,71L89.063,65.849C89.063,63.843,90.151,62.857,91.732,62.857C93.296,62.857,94.333,63.826,94.333,65.73L94.333,71ZM98.736,68.45C98.736,70.32,99.671,71,101.32,71L102.714,71L102.714,69.691L101.575,69.691C100.623,69.691,100.283,69.368,100.283,68.45L100.283,62.959L102.714,62.959L102.714,61.684L100.283,61.684L100.283,59.338L98.736,59.338L98.736,61.684L97.529,61.684L97.529,62.959L98.736,62.959L98.736,68.45Z" fill="#5A5A5A" fill-opacity="1"/></g></svg>