<svg xmlns="http://www.w3.org/2000/svg" xmlns:xlink="http://www.w3.org/1999/xlink" fill="none" version="1.1" width="418" height="32" viewBox="0 0 418 32"><g><path d="M10.332,8.258L1.302,8.258L1.302,23L10.332,23L10.332,20.123L4.893,20.123L4.893,16.889L9.702,16.889L9.702,14.117L4.893,14.117L4.893,11.135L10.332,11.135L10.332,8.258ZM11.949,17.12C11.949,20.816,14.238,23.168,17.094,23.168C18.837,23.168,20.076,22.37,20.727,21.341L20.727,23L24.318,23L24.318,11.282L20.727,11.282L20.727,12.941C20.097,11.912,18.858,11.114,17.115,11.114C14.238,11.114,11.949,13.424,11.949,17.12ZM20.727,17.141C20.727,19.01,19.53,20.039,18.165,20.039C16.821,20.039,15.603,18.989,15.603,17.12C15.603,15.251,16.821,14.243,18.165,14.243C19.53,14.243,20.727,15.272,20.727,17.141ZM36.435,19.598C36.372,15.23,30.03,16.553,30.03,14.684C30.03,14.117,30.492,13.781,31.332,13.781C32.34,13.781,32.949,14.306,33.054,15.104L36.372,15.104C36.141,12.794,34.461,11.114,31.437,11.114C28.371,11.114,26.67,12.752,26.67,14.747C26.67,19.052,33.054,17.687,33.054,19.577C33.054,20.102,32.571,20.522,31.647,20.522C30.66,20.522,29.925,19.976,29.841,19.157L26.292,19.157C26.46,21.425,28.56,23.168,31.689,23.168C34.629,23.168,36.435,21.635,36.435,19.598ZM38.64,23L42.231,23L42.231,11.282L38.64,11.282L38.64,23ZM40.446,10.064C41.706,10.064,42.567,9.203,42.567,8.132C42.567,7.04,41.706,6.179,40.446,6.179C39.165,6.179,38.304,7.04,38.304,8.132C38.304,9.203,39.165,10.064,40.446,10.064ZM50.001,13.991C51.198,13.991,52.206,14.726,52.206,16.007L47.712,16.007C47.922,14.705,48.825,13.991,50.001,13.991ZM55.608,19.115L51.786,19.115C51.492,19.745,50.925,20.249,49.917,20.249C48.762,20.249,47.817,19.535,47.691,18.002L55.818,18.002C55.86,17.645,55.881,17.288,55.881,16.952C55.881,13.382,53.466,11.114,50.043,11.114C46.557,11.114,44.121,13.424,44.121,17.141C44.121,20.858,46.599,23.168,50.043,23.168C52.962,23.168,55.041,21.404,55.608,19.115ZM61.362,17.561C61.362,15.545,62.349,14.957,64.05,14.957L65.037,14.957L65.037,11.156C63.462,11.156,62.181,11.996,61.362,13.235L61.362,11.282L57.771,11.282L57.771,23L61.362,23L61.362,17.561ZM66.549,17.12L75.789,17.12L75.789,14.138L66.549,14.138L66.549,17.12ZM79.506,18.926C79.506,21.971,81.207,23,83.643,23L85.47,23L85.47,19.955L84.189,19.955C83.391,19.955,83.097,19.661,83.097,18.968L83.097,14.264L85.449,14.264L85.449,11.282L83.097,11.282L83.097,8.426L79.506,8.426L79.506,11.282L78.078,11.282L78.078,14.264L79.506,14.264L79.506,18.926ZM98.931,17.141C98.931,13.424,96.285,11.114,92.841,11.114C89.418,11.114,86.751,13.424,86.751,17.141C86.751,20.858,89.355,23.168,92.799,23.168C96.243,23.168,98.931,20.858,98.931,17.141ZM90.405,17.141C90.405,15.146,91.539,14.222,92.841,14.222C94.101,14.222,95.277,15.146,95.277,17.141C95.277,19.115,94.08,20.06,92.799,20.06C91.497,20.06,90.405,19.115,90.405,17.141ZM100.632,17.12L109.872,17.12L109.872,14.138L100.632,14.138L100.632,17.12ZM124.593,11.282L121.002,11.282L121.002,17.645C121.002,19.241,120.12,20.123,118.734,20.123C117.39,20.123,116.487,19.241,116.487,17.645L116.487,11.282L112.917,11.282L112.917,18.128C112.917,21.257,114.744,23.126,117.453,23.126C119.028,23.126,120.288,22.412,121.002,21.404L121.002,23L124.593,23L124.593,11.282ZM136.689,19.598C136.626,15.23,130.284,16.553,130.284,14.684C130.284,14.117,130.746,13.781,131.586,13.781C132.594,13.781,133.203,14.306,133.308,15.104L136.626,15.104C136.395,12.794,134.715,11.114,131.691,11.114C128.625,11.114,126.924,12.752,126.924,14.747C126.924,19.052,133.308,17.687,133.308,19.577C133.308,20.102,132.825,20.522,131.901,20.522C130.914,20.522,130.179,19.976,130.095,19.157L126.546,19.157C126.714,21.425,128.814,23.168,131.943,23.168C134.883,23.168,136.689,21.635,136.689,19.598ZM144.06,13.991C145.257,13.991,146.265,14.726,146.265,16.007L141.771,16.007C141.981,14.705,142.884,13.991,144.06,13.991ZM149.667,19.115L145.845,19.115C145.551,19.745,144.984,20.249,143.976,20.249C142.821,20.249,141.876,19.535,141.75,18.002L149.877,18.002C149.919,17.645,149.94,17.288,149.94,16.952C149.94,13.382,147.525,11.114,144.102,11.114C140.616,11.114,138.18,13.424,138.18,17.141C138.18,20.858,140.658,23.168,144.102,23.168C147.021,23.168,149.1,21.404,149.667,19.115ZM172.431,23L176.001,23L176.001,16.154C176.001,13.004,174.132,11.156,171.234,11.156C169.533,11.156,168.063,12.101,167.286,13.34C166.488,11.933,165.06,11.156,163.296,11.156C161.763,11.156,160.566,11.807,159.873,12.752L159.873,11.282L156.282,11.282L156.282,23L159.873,23L159.873,16.637C159.873,15.104,160.755,14.264,162.12,14.264C163.485,14.264,164.367,15.104,164.367,16.637L164.367,23L167.937,23L167.937,16.637C167.937,15.104,168.819,14.264,170.184,14.264C171.549,14.264,172.431,15.104,172.431,16.637L172.431,23ZM189.987,17.141C189.987,13.424,187.341,11.114,183.897,11.114C180.474,11.114,177.807,13.424,177.807,17.141C177.807,20.858,180.411,23.168,183.855,23.168C187.299,23.168,189.987,20.858,189.987,17.141ZM181.461,17.141C181.461,15.146,182.595,14.222,183.897,14.222C185.157,14.222,186.333,15.146,186.333,17.141C186.333,19.115,185.136,20.06,183.855,20.06C182.553,20.06,181.461,19.115,181.461,17.141ZM191.184,17.12C191.184,20.816,193.473,23.168,196.35,23.168C198.072,23.168,199.311,22.391,199.962,21.32L199.962,23L203.553,23L203.553,7.46L199.962,7.46L199.962,12.899C199.248,11.828,197.904,11.114,196.35,11.114C193.473,11.114,191.184,13.424,191.184,17.12ZM199.962,17.141C199.962,19.01,198.765,20.039,197.4,20.039C196.056,20.039,194.838,18.989,194.838,17.12C194.838,15.251,196.056,14.243,197.4,14.243C198.765,14.243,199.962,15.272,199.962,17.141ZM211.323,13.991C212.52,13.991,213.528,14.726,213.528,16.007L209.034,16.007C209.244,14.705,210.147,13.991,211.323,13.991ZM216.93,19.115L213.108,19.115C212.814,19.745,212.247,20.249,211.239,20.249C210.084,20.249,209.139,19.535,209.013,18.002L217.14,18.002C217.182,17.645,217.203,17.288,217.203,16.952C217.203,13.382,214.788,11.114,211.365,11.114C207.879,11.114,205.443,13.424,205.443,17.141C205.443,20.858,207.921,23.168,211.365,23.168C214.284,23.168,216.363,21.404,216.93,19.115ZM219.093,23L222.684,23L222.684,7.46L219.093,7.46L219.093,23ZM225.078,17.12L234.318,17.12L234.318,14.138L225.078,14.138L225.078,17.12ZM236.754,17.12C236.754,20.816,239.043,23.168,241.92,23.168C243.642,23.168,244.881,22.391,245.532,21.32L245.532,23L249.123,23L249.123,7.46L245.532,7.46L245.532,12.899C244.818,11.828,243.474,11.114,241.92,11.114C239.043,11.114,236.754,13.424,236.754,17.12ZM245.532,17.141C245.532,19.01,244.335,20.039,242.97,20.039C241.626,20.039,240.408,18.989,240.408,17.12C240.408,15.251,241.626,14.243,242.97,14.243C244.335,14.243,245.532,15.272,245.532,17.141ZM255.318,17.561C255.318,15.545,256.305,14.957,258.006,14.957L258.993,14.957L258.993,11.156C257.418,11.156,256.137,11.996,255.318,13.235L255.318,11.282L251.727,11.282L251.727,23L255.318,23L255.318,17.561ZM260.715,23L264.306,23L264.306,11.282L260.715,11.282L260.715,23ZM262.521,10.064C263.781,10.064,264.642,9.203,264.642,8.132C264.642,7.04,263.781,6.179,262.521,6.179C261.24,6.179,260.379,7.04,260.379,8.132C260.379,9.203,261.24,10.064,262.521,10.064ZM265.797,11.282L269.955,23L274.386,23L278.544,11.282L274.722,11.282L272.181,19.64L269.64,11.282L265.797,11.282ZM285.222,13.991C286.419,13.991,287.427,14.726,287.427,16.007L282.933,16.007C283.143,14.705,284.046,13.991,285.222,13.991ZM290.829,19.115L287.007,19.115C286.713,19.745,286.146,20.249,285.138,20.249C283.983,20.249,283.038,19.535,282.912,18.002L291.039,18.002C291.081,17.645,291.102,17.288,291.102,16.952C291.102,13.382,288.687,11.114,285.264,11.114C281.778,11.114,279.342,13.424,279.342,17.141C279.342,20.858,281.82,23.168,285.264,23.168C288.183,23.168,290.262,21.404,290.829,19.115ZM301.077,23L304.647,23L304.647,16.154C304.647,13.004,302.841,11.156,300.132,11.156C298.557,11.156,297.297,11.849,296.583,12.836L296.583,11.282L292.992,11.282L292.992,23L296.583,23L296.583,16.637C296.583,15.041,297.465,14.159,298.83,14.159C300.195,14.159,301.077,15.041,301.077,16.637L301.077,23ZM315.189,12.941L315.189,11.282L311.598,11.282L311.598,28.586L315.189,28.586L315.189,21.362C315.84,22.349,317.079,23.168,318.801,23.168C321.678,23.168,323.967,20.816,323.967,17.12C323.967,13.424,321.678,11.114,318.801,11.114C317.079,11.114,315.84,11.912,315.189,12.941ZM320.313,17.12C320.313,18.989,319.095,20.039,317.73,20.039C316.386,20.039,315.168,19.01,315.168,17.141C315.168,15.272,316.386,14.243,317.73,14.243C319.095,14.243,320.313,15.251,320.313,17.12ZM329.448,17.561C329.448,15.545,330.435,14.957,332.136,14.957L333.123,14.957L333.123,11.156C331.548,11.156,330.267,11.996,329.448,13.235L329.448,11.282L325.857,11.282L325.857,23L329.448,23L329.448,17.561ZM346.311,17.141C346.311,13.424,343.665,11.114,340.221,11.114C336.798,11.114,334.131,13.424,334.131,17.141C334.131,20.858,336.735,23.168,340.179,23.168C343.623,23.168,346.311,20.858,346.311,17.141ZM337.785,17.141C337.785,15.146,338.919,14.222,340.221,14.222C341.481,14.222,342.657,15.146,342.657,17.141C342.657,19.115,341.46,20.06,340.179,20.06C338.877,20.06,337.785,19.115,337.785,17.141ZM347.508,17.12C347.508,20.816,349.797,23.168,352.674,23.168C354.396,23.168,355.635,22.391,356.286,21.32L356.286,23L359.877,23L359.877,7.46L356.286,7.46L356.286,12.899C355.572,11.828,354.228,11.114,352.674,11.114C349.797,11.114,347.508,13.424,347.508,17.12ZM356.286,17.141C356.286,19.01,355.089,20.039,353.724,20.039C352.38,20.039,351.162,18.989,351.162,17.12C351.162,15.251,352.38,14.243,353.724,14.243C355.089,14.243,356.286,15.272,356.286,17.141ZM374.052,11.282L370.461,11.282L370.461,17.645C370.461,19.241,369.579,20.123,368.193,20.123C366.849,20.123,365.946,19.241,365.946,17.645L365.946,11.282L362.376,11.282L362.376,18.128C362.376,21.257,364.203,23.126,366.912,23.126C368.487,23.126,369.747,22.412,370.461,21.404L370.461,23L374.052,23L374.052,11.282ZM375.921,17.141C375.921,20.858,378.357,23.168,381.801,23.168C384.741,23.168,386.82,21.467,387.429,18.758L383.607,18.758C383.292,19.619,382.725,20.102,381.738,20.102C380.457,20.102,379.575,19.094,379.575,17.141C379.575,15.188,380.457,14.18,381.738,14.18C382.725,14.18,383.313,14.705,383.607,15.524L387.429,15.524C386.82,12.731,384.741,11.114,381.801,11.114C378.357,11.114,375.921,13.445,375.921,17.141ZM389.907,18.926C389.907,21.971,391.608,23,394.044,23L395.871,23L395.871,19.955L394.59,19.955C393.792,19.955,393.498,19.661,393.498,18.968L393.498,14.264L395.85,14.264L395.85,11.282L393.498,11.282L393.498,8.426L389.907,8.426L389.907,11.282L388.479,11.282L388.479,14.264L389.907,14.264L389.907,18.926ZM407.379,19.598C407.316,15.23,400.974,16.553,400.974,14.684C400.974,14.117,401.436,13.781,402.276,13.781C403.284,13.781,403.893,14.306,403.998,15.104L407.316,15.104C407.085,12.794,405.405,11.114,402.381,11.114C399.315,11.114,397.614,12.752,397.614,14.747C397.614,19.052,403.998,17.687,403.998,19.577C403.998,20.102,403.515,20.522,402.591,20.522C401.604,20.522,400.869,19.976,400.785,19.157L397.236,19.157C397.404,21.425,399.504,23.168,402.633,23.168C405.573,23.168,407.379,21.635,407.379,19.598Z" fill="#333333" fill-opacity="1"/></g></svg>