<svg xmlns="http://www.w3.org/2000/svg" xmlns:xlink="http://www.w3.org/1999/xlink" fill="none" version="1.1" width="380" height="52" viewBox="0 0 380 52"><g><path d="M1.309,19L2.856,19L2.856,13.662L7.038,13.662L7.038,12.404L2.856,12.404L2.856,8.409L8.007,8.409L8.007,7.151L1.309,7.151L1.309,19ZM18.717,14.325C18.717,11.384,16.66,9.531,14.008,9.531C11.373,9.531,9.299,11.384,9.299,14.325C9.299,17.283,11.305,19.153,13.94,19.153C16.592,19.153,18.717,17.283,18.717,14.325ZM10.88,14.325C10.88,11.979,12.359,10.874,13.991,10.874C15.589,10.874,17.136,11.979,17.136,14.325C17.136,16.688,15.555,17.793,13.94,17.793C12.325,17.793,10.88,16.688,10.88,14.325ZM20.179,14.325C20.179,17.283,22.066,19.153,24.718,19.153C27.03,19.153,28.543,17.861,29.019,16.008L27.353,16.008C27.013,17.181,26.095,17.844,24.718,17.844C23.018,17.844,21.76,16.637,21.76,14.325C21.76,12.047,23.018,10.84,24.718,10.84C26.095,10.84,27.03,11.554,27.353,12.676L29.019,12.676C28.543,10.721,27.03,9.531,24.718,9.531C22.066,9.531,20.179,11.401,20.179,14.325ZM39.338,9.684L37.791,9.684L37.791,14.801C37.791,16.807,36.72,17.793,35.122,17.793C33.558,17.793,32.521,16.824,32.521,14.937L32.521,9.684L30.991,9.684L30.991,15.141C30.991,17.81,32.674,19.136,34.816,19.136C36.057,19.136,37.196,18.592,37.791,17.623L37.791,19L39.338,19L39.338,9.684ZM48.654,16.467C48.586,13.135,43.18,14.342,43.18,12.132C43.18,11.384,43.86,10.84,44.999,10.84C46.24,10.84,46.954,11.52,47.022,12.455L48.569,12.455C48.467,10.636,47.107,9.531,45.05,9.531C42.976,9.531,41.633,10.704,41.633,12.132C41.633,15.6,47.141,14.393,47.141,16.467C47.141,17.232,46.461,17.844,45.237,17.844C43.928,17.844,43.129,17.164,43.044,16.263L41.446,16.263C41.548,17.963,43.078,19.153,45.254,19.153C47.311,19.153,48.654,17.997,48.654,16.467ZM64.209,14.325C64.209,11.384,62.152,9.531,59.5,9.531C56.865,9.531,54.791,11.384,54.791,14.325C54.791,17.283,56.797,19.153,59.432,19.153C62.084,19.153,64.209,17.283,64.209,14.325ZM56.372,14.325C56.372,11.979,57.851,10.874,59.483,10.874C61.081,10.874,62.628,11.979,62.628,14.325C62.628,16.688,61.047,17.793,59.432,17.793C57.817,17.793,56.372,16.688,56.372,14.325ZM73.066,19L74.596,19L74.596,13.509C74.596,10.84,72.947,9.514,70.788,9.514C69.53,9.514,68.408,10.041,67.796,11.01L67.796,9.684L66.249,9.684L66.249,19L67.796,19L67.796,13.849C67.796,11.843,68.884,10.857,70.465,10.857C72.029,10.857,73.066,11.826,73.066,13.73L73.066,19ZM83.215,11.418L83.215,6.42L81.668,6.42L81.668,19L83.215,19L83.215,17.283C83.793,18.303,85,19.153,86.7,19.153C89.199,19.153,91.12,17.198,91.12,14.308C91.12,11.401,89.216,9.531,86.7,9.531C85.051,9.531,83.81,10.381,83.215,11.418ZM89.539,14.308C89.539,16.501,88.094,17.793,86.377,17.793C84.694,17.793,83.215,16.518,83.215,14.325C83.215,12.166,84.694,10.874,86.377,10.874C88.094,10.874,89.539,12.115,89.539,14.308ZM101.422,9.684L99.875,9.684L99.875,14.801C99.875,16.807,98.804,17.793,97.206,17.793C95.642,17.793,94.605,16.824,94.605,14.937L94.605,9.684L93.075,9.684L93.075,15.141C93.075,17.81,94.758,19.136,96.9,19.136C98.141,19.136,99.28,18.592,99.875,17.623L99.875,19L101.422,19L101.422,9.684ZM110.738,16.467C110.67,13.135,105.264,14.342,105.264,12.132C105.264,11.384,105.944,10.84,107.083,10.84C108.324,10.84,109.038,11.52,109.106,12.455L110.653,12.455C110.551,10.636,109.191,9.531,107.134,9.531C105.06,9.531,103.717,10.704,103.717,12.132C103.717,15.6,109.225,14.393,109.225,16.467C109.225,17.232,108.545,17.844,107.321,17.844C106.012,17.844,105.213,17.164,105.128,16.263L103.53,16.263C103.632,17.963,105.162,19.153,107.338,19.153C109.395,19.153,110.738,17.997,110.738,16.467ZM112.914,19L114.461,19L114.461,9.684L112.914,9.684L112.914,19ZM113.713,8.171C114.274,8.171,114.733,7.712,114.733,7.117C114.733,6.522,114.274,6.063,113.713,6.063C113.118,6.063,112.659,6.522,112.659,7.117C112.659,7.712,113.118,8.171,113.713,8.171ZM123.913,19L125.443,19L125.443,13.509C125.443,10.84,123.794,9.514,121.635,9.514C120.377,9.514,119.255,10.041,118.643,11.01L118.643,9.684L117.096,9.684L117.096,19L118.643,19L118.643,13.849C118.643,11.843,119.731,10.857,121.312,10.857C122.876,10.857,123.913,11.826,123.913,13.73L123.913,19ZM131.937,10.84C133.535,10.84,134.895,11.843,134.878,13.662L128.996,13.662C129.166,11.843,130.424,10.84,131.937,10.84ZM136.289,16.127L134.623,16.127C134.283,17.13,133.399,17.844,132.005,17.844C130.424,17.844,129.098,16.807,128.979,14.92L136.425,14.92C136.459,14.597,136.476,14.325,136.476,13.985C136.476,11.435,134.708,9.531,132.005,9.531C129.285,9.531,127.398,11.384,127.398,14.325C127.398,17.283,129.353,19.153,132.005,19.153C134.317,19.153,135.813,17.827,136.289,16.127ZM145.214,16.467C145.146,13.135,139.74,14.342,139.74,12.132C139.74,11.384,140.42,10.84,141.559,10.84C142.8,10.84,143.514,11.52,143.582,12.455L145.129,12.455C145.027,10.636,143.667,9.531,141.61,9.531C139.536,9.531,138.193,10.704,138.193,12.132C138.193,15.6,143.701,14.393,143.701,16.467C143.701,17.232,143.021,17.844,141.797,17.844C140.488,17.844,139.689,17.164,139.604,16.263L138.006,16.263C138.108,17.963,139.638,19.153,141.814,19.153C143.871,19.153,145.214,17.997,145.214,16.467ZM154.088,16.467C154.02,13.135,148.614,14.342,148.614,12.132C148.614,11.384,149.294,10.84,150.433,10.84C151.674,10.84,152.388,11.52,152.456,12.455L154.003,12.455C153.901,10.636,152.541,9.531,150.484,9.531C148.41,9.531,147.067,10.704,147.067,12.132C147.067,15.6,152.575,14.393,152.575,16.467C152.575,17.232,151.895,17.844,150.671,17.844C149.362,17.844,148.563,17.164,148.478,16.263L146.88,16.263C146.982,17.963,148.512,19.153,150.688,19.153C152.745,19.153,154.088,17.997,154.088,16.467ZM154.921,21.431L155.958,21.431L157.862,16.858L156.162,16.858L154.921,21.431ZM170.986,19L172.516,19L172.516,13.509C172.516,10.84,170.867,9.514,168.708,9.514C167.45,9.514,166.328,10.041,165.716,11.01L165.716,9.684L164.169,9.684L164.169,19L165.716,19L165.716,13.849C165.716,11.843,166.804,10.857,168.385,10.857C169.949,10.857,170.986,11.826,170.986,13.73L170.986,19ZM183.889,14.325C183.889,11.384,181.832,9.531,179.18,9.531C176.545,9.531,174.471,11.384,174.471,14.325C174.471,17.283,176.477,19.153,179.112,19.153C181.764,19.153,183.889,17.283,183.889,14.325ZM176.052,14.325C176.052,11.979,177.531,10.874,179.163,10.874C180.761,10.874,182.308,11.979,182.308,14.325C182.308,16.688,180.727,17.793,179.112,17.793C177.497,17.793,176.052,16.688,176.052,14.325ZM203.915,19L205.445,19L205.445,13.509C205.445,10.84,203.796,9.514,201.671,9.514C200.243,9.514,198.917,10.245,198.373,11.588C197.761,10.194,196.486,9.514,194.956,9.514C193.732,9.514,192.627,10.041,192.015,11.027L192.015,9.684L190.468,9.684L190.468,19L192.015,19L192.015,13.866C192.015,11.86,193.086,10.857,194.65,10.857C196.18,10.857,197.2,11.826,197.2,13.73L197.2,19L198.73,19L198.73,13.866C198.73,11.86,199.801,10.857,201.365,10.857C202.895,10.857,203.915,11.826,203.915,13.73L203.915,19ZM216.818,14.325C216.818,11.384,214.761,9.531,212.109,9.531C209.474,9.531,207.4,11.384,207.4,14.325C207.4,17.283,209.406,19.153,212.041,19.153C214.693,19.153,216.818,17.283,216.818,14.325ZM208.981,14.325C208.981,11.979,210.46,10.874,212.092,10.874C213.69,10.874,215.237,11.979,215.237,14.325C215.237,16.688,213.656,17.793,212.041,17.793C210.426,17.793,208.981,16.688,208.981,14.325ZM218.28,14.308C218.28,17.198,220.201,19.153,222.7,19.153C224.4,19.153,225.607,18.286,226.168,17.249L226.168,19L227.732,19L227.732,6.42L226.168,6.42L226.168,11.35C225.522,10.279,224.179,9.531,222.717,9.531C220.201,9.531,218.28,11.401,218.28,14.308ZM226.168,14.325C226.168,16.518,224.706,17.793,223.006,17.793C221.306,17.793,219.861,16.501,219.861,14.308C219.861,12.115,221.306,10.874,223.006,10.874C224.706,10.874,226.168,12.166,226.168,14.325ZM234.311,10.84C235.909,10.84,237.269,11.843,237.252,13.662L231.37,13.662C231.54,11.843,232.798,10.84,234.311,10.84ZM238.663,16.127L236.997,16.127C236.657,17.13,235.773,17.844,234.379,17.844C232.798,17.844,231.472,16.807,231.353,14.92L238.799,14.92C238.833,14.597,238.85,14.325,238.85,13.985C238.85,11.435,237.082,9.531,234.379,9.531C231.659,9.531,229.772,11.384,229.772,14.325C229.772,17.283,231.727,19.153,234.379,19.153C236.691,19.153,238.187,17.827,238.663,16.127ZM240.89,19L242.437,19L242.437,6.42L240.89,6.42L240.89,19ZM245.072,19L246.619,19L246.619,9.684L245.072,9.684L245.072,19ZM245.871,8.171C246.432,8.171,246.891,7.712,246.891,7.117C246.891,6.522,246.432,6.063,245.871,6.063C245.276,6.063,244.817,6.522,244.817,7.117C244.817,7.712,245.276,8.171,245.871,8.171ZM256.071,19L257.601,19L257.601,13.509C257.601,10.84,255.952,9.514,253.793,9.514C252.535,9.514,251.413,10.041,250.801,11.01L250.801,9.684L249.254,9.684L249.254,19L250.801,19L250.801,13.849C250.801,11.843,251.889,10.857,253.47,10.857C255.034,10.857,256.071,11.826,256.071,13.73L256.071,19ZM259.556,14.308C259.556,17.198,261.477,19.153,263.976,19.153C265.676,19.153,266.883,18.252,267.444,17.249L267.444,19.204C267.444,21.193,266.203,22.247,264.554,22.247C263.024,22.247,261.919,21.482,261.579,20.36L260.049,20.36C260.355,22.349,262.106,23.59,264.554,23.59C267.291,23.59,269.008,21.771,269.008,19.204L269.008,9.684L267.444,9.684L267.444,11.384C266.9,10.381,265.676,9.531,263.976,9.531C261.477,9.531,259.556,11.401,259.556,14.308ZM267.444,14.325C267.444,16.518,265.982,17.793,264.282,17.793C262.582,17.793,261.137,16.501,261.137,14.308C261.137,12.115,262.582,10.874,264.282,10.874C265.982,10.874,267.444,12.166,267.444,14.325ZM280.126,10.84C281.724,10.84,283.084,11.843,283.067,13.662L277.185,13.662C277.355,11.843,278.613,10.84,280.126,10.84ZM284.478,16.127L282.812,16.127C282.472,17.13,281.588,17.844,280.194,17.844C278.613,17.844,277.287,16.807,277.168,14.92L284.614,14.92C284.648,14.597,284.665,14.325,284.665,13.985C284.665,11.435,282.897,9.531,280.194,9.531C277.474,9.531,275.587,11.384,275.587,14.325C275.587,17.283,277.542,19.153,280.194,19.153C282.506,19.153,284.002,17.827,284.478,16.127ZM291.567,19L293.318,19L290.309,14.291L293.301,9.684L291.686,9.684L289.578,13.135L287.368,9.684L285.617,9.684L288.626,14.376L285.617,19L287.232,19L289.357,15.532L291.567,19ZM296.395,11.401L296.395,9.684L294.848,9.684L294.848,23.42L296.395,23.42L296.395,17.283C296.973,18.235,298.18,19.153,299.88,19.153C302.379,19.153,304.3,17.198,304.3,14.308C304.3,11.401,302.379,9.531,299.88,9.531C298.18,9.531,296.956,10.415,296.395,11.401ZM302.719,14.308C302.719,16.501,301.274,17.793,299.557,17.793C297.874,17.793,296.395,16.518,296.395,14.325C296.395,12.166,297.874,10.874,299.557,10.874C301.274,10.874,302.719,12.115,302.719,14.308ZM310.301,10.84C311.899,10.84,313.259,11.843,313.242,13.662L307.36,13.662C307.53,11.843,308.788,10.84,310.301,10.84ZM314.653,16.127L312.987,16.127C312.647,17.13,311.763,17.844,310.369,17.844C308.788,17.844,307.462,16.807,307.343,14.92L314.789,14.92C314.823,14.597,314.84,14.325,314.84,13.985C314.84,11.435,313.072,9.531,310.369,9.531C307.649,9.531,305.762,11.384,305.762,14.325C305.762,17.283,307.717,19.153,310.369,19.153C312.681,19.153,314.177,17.827,314.653,16.127ZM318.427,13.934C318.427,11.775,319.549,11.112,321.028,11.112L321.436,11.112L321.436,9.514C319.957,9.514,318.954,10.16,318.427,11.197L318.427,9.684L316.88,9.684L316.88,19L318.427,19L318.427,13.934ZM323.561,16.45C323.561,18.32,324.496,19,326.145,19L327.539,19L327.539,17.691L326.4,17.691C325.448,17.691,325.108,17.368,325.108,16.45L325.108,10.959L327.539,10.959L327.539,9.684L325.108,9.684L325.108,7.338L323.561,7.338L323.561,9.684L322.354,9.684L322.354,10.959L323.561,10.959L323.561,16.45ZM329.409,19L330.956,19L330.956,9.684L329.409,9.684L329.409,19ZM330.208,8.171C330.769,8.171,331.228,7.712,331.228,7.117C331.228,6.522,330.769,6.063,330.208,6.063C329.613,6.063,329.154,6.522,329.154,7.117C329.154,7.712,329.613,8.171,330.208,8.171ZM340.289,16.467C340.221,13.135,334.815,14.342,334.815,12.132C334.815,11.384,335.495,10.84,336.634,10.84C337.875,10.84,338.589,11.52,338.657,12.455L340.204,12.455C340.102,10.636,338.742,9.531,336.685,9.531C334.611,9.531,333.268,10.704,333.268,12.132C333.268,15.6,338.776,14.393,338.776,16.467C338.776,17.232,338.096,17.844,336.872,17.844C335.563,17.844,334.764,17.164,334.679,16.263L333.081,16.263C333.183,17.963,334.713,19.153,336.889,19.153C338.946,19.153,340.289,17.997,340.289,16.467ZM346.426,10.84C348.024,10.84,349.384,11.843,349.367,13.662L343.485,13.662C343.655,11.843,344.913,10.84,346.426,10.84ZM350.778,16.127L349.112,16.127C348.772,17.13,347.888,17.844,346.494,17.844C344.913,17.844,343.587,16.807,343.468,14.92L350.914,14.92C350.948,14.597,350.965,14.325,350.965,13.985C350.965,11.435,349.197,9.531,346.494,9.531C343.774,9.531,341.887,11.384,341.887,14.325C341.887,17.283,343.842,19.153,346.494,19.153C348.806,19.153,350.302,17.827,350.778,16.127ZM2.856,39.934C2.856,37.775,3.978,37.112,5.457,37.112L5.865,37.112L5.865,35.514C4.386,35.514,3.383,36.16,2.856,37.197L2.856,35.684L1.309,35.684L1.309,45L2.856,45L2.856,39.934ZM11.611,36.84C13.209,36.84,14.569,37.843,14.552,39.662L8.67,39.662C8.84,37.843,10.098,36.84,11.611,36.84ZM15.963,42.127L14.297,42.127C13.957,43.13,13.073,43.844,11.679,43.844C10.098,43.844,8.772,42.807,8.653,40.92L16.099,40.92C16.133,40.597,16.15,40.325,16.15,39.985C16.15,37.435,14.382,35.531,11.679,35.531C8.959,35.531,7.072,37.384,7.072,40.325C7.072,43.283,9.027,45.153,11.679,45.153C13.991,45.153,15.487,43.827,15.963,42.127ZM17.612,40.308C17.612,43.198,19.533,45.153,21.998,45.153C23.732,45.153,24.973,44.235,25.5,43.283L25.5,49.42L27.064,49.42L27.064,35.684L25.5,35.684L25.5,37.384C24.973,36.415,23.749,35.531,22.049,35.531C19.533,35.531,17.612,37.401,17.612,40.308ZM25.5,40.325C25.5,42.518,24.038,43.793,22.338,43.793C20.638,43.793,19.193,42.501,19.193,40.308C19.193,38.115,20.638,36.874,22.338,36.874C24.038,36.874,25.5,38.166,25.5,40.325ZM37.944,35.684L36.397,35.684L36.397,40.801C36.397,42.807,35.326,43.793,33.728,43.793C32.164,43.793,31.127,42.824,31.127,40.937L31.127,35.684L29.597,35.684L29.597,41.141C29.597,43.81,31.28,45.136,33.422,45.136C34.663,45.136,35.802,44.592,36.397,43.623L36.397,45L37.944,45L37.944,35.684ZM40.562,45L42.109,45L42.109,35.684L40.562,35.684L40.562,45ZM41.361,34.171C41.922,34.171,42.381,33.712,42.381,33.117C42.381,32.522,41.922,32.063,41.361,32.063C40.766,32.063,40.307,32.522,40.307,33.117C40.307,33.712,40.766,34.171,41.361,34.171ZM46.291,39.934C46.291,37.775,47.413,37.112,48.892,37.112L49.3,37.112L49.3,35.514C47.821,35.514,46.818,36.16,46.291,37.197L46.291,35.684L44.744,35.684L44.744,45L46.291,45L46.291,39.934ZM55.046,36.84C56.644,36.84,58.004,37.843,57.987,39.662L52.105,39.662C52.275,37.843,53.533,36.84,55.046,36.84ZM59.398,42.127L57.732,42.127C57.392,43.13,56.508,43.844,55.114,43.844C53.533,43.844,52.207,42.807,52.088,40.92L59.534,40.92C59.568,40.597,59.585,40.325,59.585,39.985C59.585,37.435,57.817,35.531,55.114,35.531C52.394,35.531,50.507,37.384,50.507,40.325C50.507,43.283,52.462,45.153,55.114,45.153C57.426,45.153,58.922,43.827,59.398,42.127ZM61.047,40.308C61.047,43.198,62.968,45.153,65.467,45.153C67.167,45.153,68.374,44.286,68.935,43.249L68.935,45L70.499,45L70.499,32.42L68.935,32.42L68.935,37.35C68.289,36.279,66.946,35.531,65.484,35.531C62.968,35.531,61.047,37.401,61.047,40.308ZM68.935,40.325C68.935,42.518,67.473,43.793,65.773,43.793C64.073,43.793,62.628,42.501,62.628,40.308C62.628,38.115,64.073,36.874,65.773,36.874C67.473,36.874,68.935,38.166,68.935,40.325Z" fill="#5A5A5A" fill-opacity="1"/></g></svg>