<svg xmlns="http://www.w3.org/2000/svg" xmlns:xlink="http://www.w3.org/1999/xlink" fill="none" version="1.1" width="180" height="65" viewBox="0 0 180 65"><g><path d="M2.839,48L10.192,48L10.192,35.788L19.394,35.788L19.394,30.069L10.192,30.069L10.192,23.705L22.49,23.705L22.49,17.814L2.839,17.814L2.839,48ZM36.938,29.553C39.389,29.553,41.453,31.058,41.453,33.681L32.251,33.681C32.681,31.015,34.53,29.553,36.938,29.553ZM48.419,40.045L40.593,40.045C39.991,41.335,38.83,42.367,36.766,42.367C34.401,42.367,32.466,40.905,32.208,37.766L48.849,37.766C48.935,37.035,48.978,36.304,48.978,35.616C48.978,28.306,44.033,23.662,37.024,23.662C29.886,23.662,24.898,28.392,24.898,36.003C24.898,43.614,29.972,48.344,37.024,48.344C43.001,48.344,47.258,44.732,48.419,40.045ZM51.386,35.96C51.386,43.528,56.073,48.344,61.921,48.344C65.49,48.344,68.027,46.71,69.36,44.603L69.36,48L76.713,48L76.713,24.006L69.36,24.006L69.36,27.403C68.07,25.296,65.533,23.662,61.964,23.662C56.073,23.662,51.386,28.392,51.386,35.96ZM69.36,36.003C69.36,39.83,66.909,41.937,64.114,41.937C61.362,41.937,58.868,39.787,58.868,35.96C58.868,32.133,61.362,30.069,64.114,30.069C66.909,30.069,69.36,32.176,69.36,36.003ZM83.206,39.658C83.206,45.893,86.689,48,91.677,48L95.418,48L95.418,41.765L92.795,41.765C91.161,41.765,90.559,41.163,90.559,39.744L90.559,30.112L95.375,30.112L95.375,24.006L90.559,24.006L90.559,18.158L83.206,18.158L83.206,24.006L80.282,24.006L80.282,30.112L83.206,30.112L83.206,39.658ZM123.196,24.006L115.843,24.006L115.843,37.035C115.843,40.303,114.037,42.109,111.199,42.109C108.447,42.109,106.598,40.303,106.598,37.035L106.598,24.006L99.288,24.006L99.288,38.024C99.288,44.431,103.029,48.258,108.576,48.258C111.801,48.258,114.381,46.796,115.843,44.732L115.843,48L123.196,48L123.196,24.006ZM135.838,36.863C135.838,32.735,137.859,31.531,141.342,31.531L143.363,31.531L143.363,23.748C140.138,23.748,137.515,25.468,135.838,28.005L135.838,24.006L128.485,24.006L128.485,48L135.838,48L135.838,36.863ZM157.467,29.553C159.918,29.553,161.982,31.058,161.982,33.681L152.78,33.681C153.21,31.015,155.059,29.553,157.467,29.553ZM168.948,40.045L161.122,40.045C160.52,41.335,159.359,42.367,157.295,42.367C154.93,42.367,152.995,40.905,152.737,37.766L169.378,37.766C169.464,37.035,169.507,36.304,169.507,35.616C169.507,28.306,164.562,23.662,157.553,23.662C150.415,23.662,145.427,28.392,145.427,36.003C145.427,43.614,150.501,48.344,157.553,48.344C163.53,48.344,167.787,44.732,168.948,40.045Z" fill="#333333" fill-opacity="1"/></g></svg>