<svg xmlns="http://www.w3.org/2000/svg" xmlns:xlink="http://www.w3.org/1999/xlink" fill="none" version="1.1" width="1440" height="440" viewBox="0 0 1440 440"><defs><mask id="master_svg0_288_2709" style="mask-type:alpha" maskUnits="userSpaceOnUse"><g><rect x="0" y="0" width="510" height="440" rx="8" fill="#FFFFFF" fill-opacity="1"/></g></mask><clipPath id="master_svg1_288_2704"><rect x="238" y="236" width="24" height="24" rx="0"/></clipPath><clipPath id="master_svg2_288_2656"><rect x="95" y="147" width="20" height="20" rx="0"/></clipPath><clipPath id="master_svg3_288_2665"><rect x="329" y="352" width="20" height="19.883493423461914" rx="0"/></clipPath><clipPath id="master_svg4_288_2680"><rect x="312" y="80" width="20" height="20" rx="0"/></clipPath><clipPath id="master_svg5_288_2636"><rect x="455" y="188" width="34" height="21.242218017578125" rx="0"/></clipPath></defs><g><g><rect x="0" y="0" width="1440" height="440" rx="8" fill="#F4F9FF" fill-opacity="1"/></g><g mask="url(#master_svg0_288_2709)"><g><ellipse cx="3" cy="243" rx="468.5" ry="468.5" fill-opacity="0" stroke-opacity="0.5" stroke="#E0ECFA" fill="none" stroke-width="1"/></g><g><ellipse cx="3" cy="243" rx="355.5" ry="355.5" fill-opacity="0" stroke-opacity="0.800000011920929" stroke="#E0ECFA" fill="none" stroke-width="1"/></g><g><ellipse cx="3" cy="243" rx="246.5" ry="246.5" fill-opacity="0" stroke-opacity="0.8999999761581421" stroke="#E0ECFA" fill="none" stroke-width="1"/></g><g><ellipse cx="3" cy="243" rx="133.5" ry="133.5" fill-opacity="0" stroke-opacity="1" stroke="#E0ECFA" fill="none" stroke-width="1"/></g><g><g><ellipse cx="98" cy="336" rx="4" ry="4" fill="#96C2F9" fill-opacity="1"/></g><g><ellipse cx="226.5" cy="137.5" rx="5.5" ry="5.5" fill="#E5EFFC" fill-opacity="1"/></g><g><ellipse cx="356.5" cy="280.5" rx="3.5" ry="3.5" fill="#E5EFFC" fill-opacity="1"/></g><g><ellipse cx="355" cy="194" rx="5" ry="5" fill="#96C2F9" fill-opacity="1"/></g><g><ellipse cx="461.5" cy="338.5" rx="2.5" ry="2.5" fill="#96C2F9" fill-opacity="1"/></g><g><ellipse cx="439.5" cy="71.5" rx="3.5" ry="3.5" fill="#E5EFFC" fill-opacity="1"/></g><g><ellipse cx="447" cy="93" rx="2" ry="2" fill="#E5EFFC" fill-opacity="1"/></g><g><ellipse cx="281.5" cy="22.5" rx="2.5" ry="2.5" fill="#E0ECFA" fill-opacity="1"/></g><g><ellipse cx="402.5" cy="487.5" rx="2.5" ry="2.5" fill="#E2E2E2" fill-opacity="1"/></g><g><ellipse cx="206.5" cy="381.5" rx="3.5" ry="3.5" fill="#E5EFFC" fill-opacity="1"/></g><g><ellipse cx="115" cy="316" rx="3" ry="3" fill="#E5EFFC" fill-opacity="1"/></g></g><g><g><ellipse cx="250" cy="248.00000762939453" rx="28.5" ry="28.50000762939453" fill-opacity="0" stroke-opacity="0.5" stroke="#62A3F3" fill="none" stroke-width="1"/></g><g><ellipse cx="250" cy="248" rx="20" ry="20" fill="#62A3F3" fill-opacity="1"/></g><g clip-path="url(#master_svg1_288_2704)"><g><path d="M256.66098125,250.5030875C255.48198125,250.0530875,254.24688125,249.7202875,252.96948125,249.5140875C252.73518125,249.4601875,252.55698125,249.2515875,252.55698125,249.0007875C252.55698125,248.8694875,252.60628125,248.7476875,252.68598125,248.6562475C252.68358125,248.6609375,252.67658125,248.6609375,252.67188125,248.6656275C253.03748125,248.2320275,253.35388125,247.7304675,253.61168125,247.1867175C253.93748125,247.0460975,254.25628125,246.7671875,254.48598125,246.3804675C254.91948125,245.6492175,254.86558125,244.8312475,254.36408125,244.5499975C254.34768125,244.5406275,254.33128125,244.5382775,254.31488124999998,244.5312475C254.31718125,244.5054675,254.31718125,244.4773475,254.31718125,244.4515575L254.34058125,244.4515575L254.34058125,242.2531275C254.34058125,240.7976575,253.15938125,239.6164055,251.70628125,239.6164055C251.69688125,239.6164055,251.68988124999998,239.6187495,251.68048125,239.6187495C251.03125125,239.0703125,250.19687125,238.7421875,249.28515125,238.7421875C247.30000125,238.7421875,245.68281125,240.2937475,245.56797125,242.2484375L245.55625125,242.2484375L245.55625125,244.4445275L245.57969125,244.4445275C245.58203125,244.4703075,245.58203125,244.4984375,245.58203125,244.5242175C245.56562125,244.5312475,245.54922125,244.5335975,245.53281125,244.5429675C245.03359125,244.8242175,244.97969125,245.6445275,245.41094125,246.3734375C245.64062125,246.7601575,245.95937125,247.0390575,246.28515125,247.1796875C246.54297125,247.7234375,246.85937125,248.2249975,247.22500125,248.6585875C247.22031125,248.6562475,247.21328125,248.6539075,247.21094125,248.6492175C247.29062125,248.7429875,247.33984125,248.8624875,247.33984125,248.9937875C247.33984125,249.2468875,247.16172125,249.4530875,246.92734125,249.5069875C245.65469125,249.7132875,244.42422125,250.0437875,243.24765125,250.4913875C242.03125025,251.0304875,241.17578125,252.2468875,241.17578125,253.6718875L241.17578125,254.1405875C241.17578125,255.1905875,241.87187525,256.0718875,242.82344125,256.3601875C245.11562125,256.8827875,247.49922125,257.1640875,249.94844125,257.1640875C252.39528125,257.1640875,254.77418125,256.8827875,257.06408125,256.3624875C258.02028125,256.0788875,258.72108125,255.1952875,258.72108125,254.1405875L258.72108125,253.6788875C258.72108125,252.2585875,257.87268125,251.0468875,256.66098125,250.5030875Z" fill="#FFFFFF" fill-opacity="1"/></g></g></g><g><g><ellipse cx="105" cy="157.00000762939453" rx="28.5" ry="28.50000762939453" fill-opacity="0" stroke-opacity="0.5" stroke="#BEDAFD" fill="none" stroke-width="1"/></g><g><ellipse cx="105" cy="157" rx="20" ry="20" fill="#BEDAFD" fill-opacity="1"/></g><g clip-path="url(#master_svg2_288_2656)"><g><path d="M105.0441765625,159.455366015625C107.2027765625,159.455366015625,110.0387765625,156.577336015625,110.0387765625,152.936656015625C110.0387765625,149.296646015625,108.2187765625,147.857666015625,105.0441765625,147.857666015625C101.8694865625,147.857666015625,99.9648165625,149.254326015625,99.9648165625,152.936656015625C99.9648165625,156.551986015625,102.8854965625,159.455366015625,105.0441765625,159.455366015625ZM114.9174765625,164.206366015625C114.6754765625,163.520366015625,114.3854765625,162.844366015625,114.1031765625,162.543966015625C113.5784765625,161.986666015625,110.5654765625,160.387966015625,109.2334765625,159.695666015625C108.8827765625,159.513066015625,108.4504765625,159.645966015625,108.2627765625,159.993966015625L106.7414765625,162.808366015625C106.5267765625,163.205366015625,105.9294765625,163.096366015625,105.8688765625,162.648966015625C105.8558765625,162.553166015625,105.8730765625,162.455666015625,105.9177765625,162.369966015625L106.25377656250001,161.728666015625C106.3418765625,161.560966015625,106.3195765625,161.356766015625,106.1974765625,161.211966015625L105.5541765625,160.449366015625C105.2647765625,160.106066015625,104.7359965625,160.106266015625,104.44682656250001,160.449666015625L103.8051665625,161.21166601562498C103.6831965625,161.356566015625,103.6609365625,161.560866015625,103.7488165625,161.728666015625L104.0848165625,162.369666015625C104.1297465625,162.455266015625,104.1468765625,162.552866015625,104.1338365625,162.648666015625C104.0734865625,163.095966015625,103.4758265625,163.204966015625,103.2611565625,162.807966015625L101.7398165625,159.993666015625C101.5521765625,159.645666015625,101.1198665625,159.512766015625,100.7691465625,159.695366015625C99.4371765625,160.387666015625,96.4241465625,161.985966015625,95.8994815625,162.543666015625C95.6168245625,162.843966015625,95.3268255625,163.519966015625,95.0851649625,164.205966015625C94.7521575625,165.150366015625,95.4481535625,166.140966015625,96.4494765625,166.140966015625L113.5521765625,166.140966015625C114.5544765625,166.141666015625,115.2507765625,165.150666015625,114.9174765625,164.206366015625Z" fill="#FFFFFF" fill-opacity="1"/></g></g></g><g><g><ellipse cx="340" cy="363.00000762939453" rx="28.5" ry="28.50000762939453" fill-opacity="0" stroke-opacity="0.5" stroke="#B7D7FF" fill="none" stroke-width="1"/></g><g><ellipse cx="340" cy="363" rx="20" ry="20" fill="#B7D7FF" fill-opacity="1"/></g><g clip-path="url(#master_svg3_288_2665)"><g><path d="M330.2412109375,370.39224609375Q330.2412109375,367.90674609375,332.2295609375,367.28544609375C334.2179109375,366.66404609375,336.5790709375,366.16694609374997,337.2004309375,365.29704609375Q335.0878109375,365.54564609375,334.3421809375,364.79994609375C333.5965509375,364.05434609375,333.8450909375,363.43294609375,333.9693709375,362.93589609375Q333.4722809375,362.81161609375,333.4722809375,362.43880609375C333.4722809375,362.06598609375,334.5907209375,360.57472609375,334.7150009375,359.70482609375C334.9635409375,358.71064609375003,335.4606309375,355.72812609375,336.5790709375,354.48540609375C337.8217909375,353.11841609375,338.9402409375,353.24268763375,339.4373309375,353.24268763375C339.9344109375,353.24268763375,342.1713109375,353.36695909375,342.9169109375,354.85822609375C344.0354109375,356.84656609375,344.4082109375,360.20190609375,345.0295109375,360.94754609375C345.6509109375,361.69317609375,346.1480109375,362.81161609375,345.2781109375,362.81161609375Q346.0237109375,364.67574609375,344.6567109375,365.17274609375Q343.6626109375,365.54564609375,342.2956109375,365.29704609375Q342.1713109375,366.04264609375,346.2723109375,367.03684609375C347.7635109375,367.40964609375,349.0062109375,368.52814609375,349.0062109375,370.39224609375" fill="#FFFFFF" fill-opacity="1"/></g></g></g><g><g><ellipse cx="322" cy="90.00000762939453" rx="28.5" ry="28.50000762939453" fill-opacity="0" stroke-opacity="0.5" stroke="#96C2F9" fill="none" stroke-width="1"/></g><g><ellipse cx="322" cy="90" rx="20" ry="20" fill="#96C2F9" fill-opacity="1"/></g><g clip-path="url(#master_svg4_288_2680)"><g><path d="M313.3037109375,98.049514453125C313.3037109375,98.937714453125,314.5574109375,99.256914453125,317.0338909375,99.448614453125C318.4698409375,99.559714453125,319.8482409375,99.58781445312499,321.8124009375,99.58781445312499C323.7766109375,99.58781445312499,325.1550109375,99.559714453125,326.5909109375,99.448614453125C329.0674109375,99.256914453125,330.3211109375,98.937714453125,330.3211109375,98.049514453125C330.3211109375,96.132314453125,327.1264109375,94.38281445312501,323.6325109375,93.692514453125L323.9819109375,94.087114453125L323.8460109375,92.241414453125L323.5496109375,92.685914453125C324.7879109375,92.274214453125,325.4982109375,91.423314453125,326.0741109375,89.928764453125L325.7805109375,90.192504453125C326.3386109375,90.043484453125,326.8379109375,89.669624453125,327.1656109375,89.145264453125C327.8174109375,88.102204453125,327.6024109375,86.766334453125,326.6445109375,86.167794453125C326.5543109375,86.111434453125,326.4600109375,86.063304453125,326.3622109375,86.023624453125L326.1987109375,86.426474453125L326.6335109375,86.426474453125C326.6335109375,84.529204453125,326.3510109375,83.325284453125,325.6175109375,82.503394453125L325.2932109375,82.792884453125L325.4822109375,83.184424453125C326.0473109375,82.911594453125,326.3712109375,82.539094453125,326.0270109375,82.047344453125C325.8656109375,81.816814453125,325.6127109375,81.614564453125,325.2883109375,81.423260453125C325.1182109375,81.322972453125,324.9384109375,81.232004453125,324.7588109375,81.151209453125C324.6507109375,81.102585453125,324.5654109375,81.067599453125,324.5135109375,81.047875453125L324.7158109375,81.702854453125C324.7408109375,81.666884453125,324.7704109375,81.616904453125,324.7990109375,81.553854453125C324.8608109375,81.417815453125,324.8944109375,81.273685453125,324.8780109375,81.116763453125C324.8310109375,80.666535453125,324.4355109375,80.434814453125,323.8295109375,80.434814453125C323.2442509375,80.434814453125,322.5464609375,80.782016453125,321.7642109375,81.339439453125L322.0165209375,81.693524453125L322.0281509375,81.258892453125C321.9086109375,81.255695453125,321.7859409375,81.254103453125,321.6600209375,81.254103453125C317.9482209375,81.254103453125,316.6986109375,82.637154453125,316.6866309375,86.359984453125L317.1214109375,86.361374453125L316.9750909375,85.951954453125C316.8513909375,85.996164453125,316.7326109375,86.053584453125,316.6202009375,86.123824453125C315.6623409375,86.722374453125,315.4473609375,88.058234453125,316.0991409375,89.101304453125C316.4375309375,89.642834453125,316.9588609375,90.023494453125,317.5377709375,90.16209445312501L317.2323809375,89.893194453125C317.8778909375,91.598214453125,318.4909609375,92.359714453125,319.8137909375,92.694814453125L319.4860709375,92.257314453125L319.4181309375,94.103114453125L319.7700609375,93.692214453125C316.3452909375,94.354614453125,313.3037109375,96.087814453125,313.3037109375,98.049514453125Z" fill="#FFFFFF" fill-opacity="1"/></g></g></g><g><g><ellipse cx="472" cy="199.00000762939453" rx="28.5" ry="28.50000762939453" fill-opacity="0" stroke-opacity="0.5" stroke="#93C3FF" fill="none" stroke-width="1"/></g><g><ellipse cx="472" cy="199" rx="20" ry="20" fill="#93C3FF" fill-opacity="1"/></g><g clip-path="url(#master_svg5_288_2636)"><g><path d="M480.10495625,203.333332421875L476.02245625,201.742232421875Q475.24385625,201.440032421875,474.94145625,201.142732421875C474.74705625,200.951632421875,474.76105625,200.500832421875,474.93315625,199.925032421875C475.10515625,199.349132421875,477.19805625,197.008972421875,477.19805625,194.883152421875C477.19805625,191.600092421875,475.03965625,188.938232421875,472.37741625,188.938232421875C469.71534625,188.938232421875,467.55716625,191.600122421875,467.55716625,194.883372421875C467.55716625,196.919462421875,469.42214625,199.346832421875,469.65225625,199.788032421875C469.88254625,200.229132421875,469.82651625,200.901532421875,469.64468625,201.105232421875Q469.37164625,201.411232421875,468.37405625,201.717932421875L464.69365625,203.358132421875C463.83388025,203.667032421875,463.16015625,204.478032421875,463.16015625,205.392932421875L463.16015625,205.826932421875C463.16015625,206.825432421875,463.97113025,207.436432421875,464.96778625,207.436432421875L471.14061625,207.436432421875L473.25645625,207.436432421875L479.83085625,207.436432421875C480.82775625,207.436432421875,481.63875625000003,206.825432421875,481.63875625000003,205.826932421875L481.63875625000003,205.392932421875C481.63865625,204.477732421875,480.96495625,203.642032421875,480.10495625,203.333332421875Z" fill="#FFFFFF" fill-opacity="1"/></g></g></g></g></g></svg>