<svg xmlns="http://www.w3.org/2000/svg" xmlns:xlink="http://www.w3.org/1999/xlink" fill="none" version="1.1" width="60" height="60" viewBox="0 0 60 60"><defs><clipPath id="master_svg0_288_2771"><rect x="14" y="14" width="32" height="32" rx="0"/></clipPath></defs><g><g><rect x="1" y="1" width="58" height="58" rx="3" fill-opacity="0" stroke-opacity="1" stroke="#0871F0" fill="none" stroke-width="2"/></g><g clip-path="url(#master_svg0_288_2771)"><g><rect x="14" y="14" width="32" height="32" rx="0" fill="#FFFFFF" fill-opacity="0.009999999776482582"/></g><g><path d="M46,14L14,14L14,46L46,46L46,14Z" fill="#FFFFFF" fill-opacity="0.009999999776482582"/></g><g><path d="M43.3336921875,16.6666259765625L16.6669921875,16.6666259765625L16.6669921875,27.3333259765625L43.3336921875,27.3333259765625L43.3336921875,16.6666259765625Z" fill="#0871F0" fill-opacity="1"/></g><g><path d="M43.3336921875,32.6666259765625L16.6669921875,32.6666259765625L16.6669921875,43.3333259765625L43.3336921875,43.3333259765625L43.3336921875,32.6666259765625Z" fill="#0871F0" fill-opacity="1"/></g><g><path d="M22.6669921875,20.6666259765625L21.3336591875,20.6666259765625C20.9654581875,20.6666259765625,20.6669921875,20.9650919765625,20.6669921875,21.3332929765625L20.6669921875,22.6666259765625C20.6669921875,23.0348259765625,20.9654581875,23.3332959765625,21.3336591875,23.3332959765625L22.6669921875,23.3332959765625C23.0351921875,23.3332959765625,23.3336621875,23.0348259765625,23.3336621875,22.6666259765625L23.3336621875,21.3332929765625C23.3336621875,20.9650919765625,23.0351921875,20.6666259765625,22.6669921875,20.6666259765625Z" fill="#FFFFFF" fill-opacity="1"/></g><g><path d="M22.6669921875,36.6666259765625L21.3336591875,36.6666259765625C20.9654581875,36.6666259765625,20.6669921875,36.9650919765625,20.6669921875,37.3332929765625L20.6669921875,38.6666259765625C20.6669921875,39.0348259765625,20.9654581875,39.333295976562496,21.3336591875,39.333295976562496L22.6669921875,39.333295976562496C23.0351921875,39.333295976562496,23.3336621875,39.0348259765625,23.3336621875,38.6666259765625L23.3336621875,37.3332929765625C23.3336621875,36.9650919765625,23.0351921875,36.6666259765625,22.6669921875,36.6666259765625Z" fill="#FFFFFF" fill-opacity="1"/></g><g><path d="M28,20.6666259765625L26.666667,20.6666259765625C26.298466,20.6666259765625,26,20.9650919765625,26,21.3332929765625L26,22.6666259765625C26,23.0348259765625,26.298466,23.3332959765625,26.666667,23.3332959765625L28,23.3332959765625C28.3682,23.3332959765625,28.66667,23.0348259765625,28.66667,22.6666259765625L28.66667,21.3332929765625C28.66667,20.9650919765625,28.3682,20.6666259765625,28,20.6666259765625Z" fill="#FFFFFF" fill-opacity="1"/></g><g><path d="M28,36.6666259765625L26.666667,36.6666259765625C26.298466,36.6666259765625,26,36.9650919765625,26,37.3332929765625L26,38.6666259765625C26,39.0348259765625,26.298466,39.333295976562496,26.666667,39.333295976562496L28,39.333295976562496C28.3682,39.333295976562496,28.66667,39.0348259765625,28.66667,38.6666259765625L28.66667,37.3332929765625C28.66667,36.9650919765625,28.3682,36.6666259765625,28,36.6666259765625Z" fill="#FFFFFF" fill-opacity="1"/></g></g></g></svg>