<svg xmlns="http://www.w3.org/2000/svg" xmlns:xlink="http://www.w3.org/1999/xlink" fill="none" version="1.1" viewBox="0 0 13 8.948141098022461"><g transform="matrix(1,0,0,-1,0,17.896282196044922)"><path d="M11.2474,17.554791098022463L5,11.41488109802246L1.75293,14.554511098022461L1.75293,14.554511098022461C1.5628,14.771801098022461,1.28836,14.896281098022461,1,14.896281098022461C0.447715,14.896281098022461,0,14.448561098022461,0,13.896281098022461C0,13.65405109802246,0.0878094,13.420071098022461,0.247314,13.237781098022461L0.247314,13.237781098022461L4.17212,9.32378209802246Q4.50081,8.94813787937246,5,8.948141098023227Q5.49915,8.94814056158146,5.82788,9.32378209802246L12.7526,16.23778109802246C12.9121,16.42007109802246,13,16.65406109802246,13,16.896281098022463C13,17.448571098022462,12.5523,17.896281098022463,12,17.896281098022463C11.7116,17.896281098022463,11.4373,17.77180109802246,11.2474,17.554791098022463Z" fill-rule="evenodd" /></g></svg>