<svg xmlns="http://www.w3.org/2000/svg" xmlns:xlink="http://www.w3.org/1999/xlink" fill="none" version="1.1" viewBox="0 0 22.62744140625 22.627418518066406"><g transform="matrix(0.7071067690849304,0.7071067690849304,-0.7071067690849304,0.7071067690849304,3.3136528676473063,-8.000033073294162)"><path d="M18.313720703125,9.000036076660157L18.313720703125,15.000016076660156Q18.313720703125,15.098516076660156,18.332930703125,15.195116076660156Q18.352150703124998,15.291716076660157,18.389840703125,15.382716076660156Q18.427530703125,15.473716076660157,18.482250703125,15.555616076660156Q18.536970703125,15.637516076660157,18.606610703125,15.707116076660157Q18.676260703125,15.776816076660156,18.758150703125,15.831516076660156Q18.840040703125,15.886216076660157,18.931040703125,15.923916076660156Q19.022030703125,15.961616076660157,19.118630703125,15.980816076660156Q19.215230703125002,16.000016076660156,19.313720703125,16.000016076660156Q19.412210703124998,16.000016076660156,19.508810703125,15.980816076660156Q19.605410703125,15.961616076660157,19.696400703125,15.923916076660156Q19.787400703125,15.886216076660157,19.869290703125,15.831516076660156Q19.951180703125,15.776816076660156,20.020830703125,15.707116076660157Q20.090470703125,15.637516076660157,20.145190703125,15.555616076660156Q20.199910703125,15.473716076660157,20.237600703125,15.382716076660156Q20.275290703125002,15.291716076660157,20.294500703125,15.195116076660156Q20.313720703125,15.098516076660156,20.313720703125,15.000016076660156L20.313720703125,9.000036076660157L26.313720703125,9.000036076660157Q26.412220703125,9.000036076660157,26.508820703125,8.980826076660156Q26.605420703125,8.961606076660157,26.696420703125,8.923916076660156Q26.787420703125,8.886226076660156,26.869320703125,8.831506076660157Q26.951220703125,8.776786076660157,27.020820703125,8.707146076660155Q27.090420703124998,8.637496076660156,27.145220703125,8.555606076660156Q27.199920703125002,8.473716076660157,27.237620703125,8.382716076660156Q27.275320703125,8.291726076660156,27.294520703125002,8.195126076660156Q27.313720703125,8.098526076660157,27.313720703125,8.000036076660157Q27.313720703125,7.901546076660156,27.294520703125002,7.804946076660157Q27.275320703125,7.708346076660156,27.237620703125,7.6173560766601565Q27.199920703125002,7.526356076660156,27.145220703125,7.444466076660156Q27.090420703124998,7.362576076660156,27.020820703125,7.2929360766601565Q26.951220703125,7.223286076660156,26.869320703125,7.168566076660157Q26.787420703125,7.113846076660156,26.696420703125,7.076156076660157Q26.605420703125,7.038466076660156,26.508820703125,7.019256076660156Q26.412220703125,7.000036076660156,26.313720703125,7.000036076660156L20.313720703125,7.000036076660156L20.313720703125,1.0000360766601561Q20.313720703125,0.9015470766601562,20.294500703125,0.8049480766601562Q20.275290703125002,0.7083490766601562,20.237600703125,0.6173550766601562Q20.199910703125,0.5263600766601563,20.145190703125,0.44446807666015625Q20.090470703125,0.36257507666015626,20.020830703125,0.2929310766601563Q19.951180703125,0.22328707666015624,19.869290703125,0.16856807666015625Q19.787400703125,0.11385007666015624,19.696400703125,0.07615857666015625Q19.605410703125,0.03846757666015625,19.508810703125,0.01925287666015625Q19.412210703124998,0.00003814666015625,19.313720703125,0.00003814666015625Q19.215230703125002,0.00003814666015625,19.118630703125,0.01925287666015625Q19.022030703125,0.03846757666015625,18.931040703125,0.07615857666015625Q18.840040703125,0.11385007666015624,18.758150703125,0.16856807666015625Q18.676260703125,0.22328707666015624,18.606610703125,0.2929310766601563Q18.536970703125,0.36257507666015626,18.482250703125,0.44446807666015625Q18.427530703125,0.5263600766601563,18.389840703125,0.6173550766601562Q18.352150703124998,0.7083490766601562,18.332930703125,0.8049480766601562Q18.313720703125,0.9015470766601562,18.313720703125,1.0000360766601561L18.313720703125,7.000036076660156L12.313720703125,7.000036076660156Q12.215229703125,7.000036076660156,12.118630703125,7.019256076660156Q12.022031703125,7.038466076660156,11.931036703125,7.076156076660157Q11.840042703125,7.113846076660156,11.758150703125,7.168566076660157Q11.676257703125,7.223286076660156,11.606613703125,7.2929360766601565Q11.536969703125,7.362576076660156,11.482250703125,7.444466076660156Q11.427531703125,7.526356076660156,11.389841203125,7.6173560766601565Q11.352150103125,7.708346076660156,11.332935403125,7.804946076660157Q11.313720703125,7.901546076660156,11.313720703125,8.000036076660157Q11.313720703125,8.098526076660157,11.332935403125,8.195126076660156Q11.352150103125,8.291726076660156,11.389841203125,8.382716076660156Q11.427531703125,8.473716076660157,11.482250703125,8.555606076660156Q11.536969703125,8.637496076660156,11.606613703125,8.707146076660155Q11.676257703125,8.776786076660157,11.758150703125,8.831506076660157Q11.840042703125,8.886226076660156,11.931036703125,8.923916076660156Q12.022031703125,8.961606076660157,12.118630703125,8.980826076660156Q12.215229703125,9.000036076660157,12.313720703125,9.000036076660157L18.313720703125,9.000036076660157Z" fill-rule="evenodd"/></g></svg>