<svg xmlns="http://www.w3.org/2000/svg" xmlns:xlink="http://www.w3.org/1999/xlink" fill="none" version="1.1" viewBox="0 0 16 8.948141098022461"><g transform="matrix(1,0,0,-1,0,17.896282196044922)"><path d="M14.2474,17.554791098022463L8,11.41488109802246L1.75282,17.55451109802246L1.75282,17.55451109802246C1.56269,17.77180109802246,1.28836,17.896281098022463,1,17.896281098022463C0.447715,17.896281098022463,0,17.448571098022462,0,16.896281098022463C0,16.65406109802246,0.0879183,16.42007109802246,0.247423,16.23778109802246L0.247423,16.23778109802246L7.17212,9.32378209802246Q7.50081,8.94813787937246,8,8.948141098022461Q8.49915,8.94814056158046,8.82788,9.32378209802246L15.7526,16.23778109802246C15.9121,16.42007109802246,16,16.65406109802246,16,16.896281098022463C16,17.448571098022462,15.5523,17.896281098022463,15,17.896281098022463C14.7116,17.896281098022463,14.4373,17.77180109802246,14.2474,17.554791098022463Z" fill-rule="evenodd" /></g></svg>