<svg xmlns="http://www.w3.org/2000/svg" xmlns:xlink="http://www.w3.org/1999/xlink" fill="none" version="1.1" width="3" height="13" viewBox="0 0 3 13"><g><path d="M3,11.5Q3,11.5737,2.99278,11.647Q2.98555,11.7204,2.97118,11.7926Q2.9568,11.8649,2.93541,11.9354Q2.91402,12.0059,2.88582,12.074Q2.85762,12.1421,2.82288,12.2071Q2.78814,12.2721,2.7472,12.3334Q2.70626,12.3946,2.65952,12.4516Q2.61277,12.5086,2.56066,12.5607Q2.50855,12.6128,2.45159,12.6595Q2.39463,12.7063,2.33335,12.7472Q2.27208,12.7881,2.2071,12.8229Q2.14211,12.8576,2.07402,12.8858Q2.00594,12.914,1.93543,12.9354Q1.86491,12.9568,1.79264,12.9712Q1.72036,12.9856,1.64703,12.9928Q1.57369,13,1.5,13Q1.42631,13,1.35297,12.9928Q1.27964,12.9856,1.20736,12.9712Q1.13509,12.9568,1.06457,12.9354Q0.994056,12.914,0.925975,12.8858Q0.857894,12.8576,0.792905,12.8229Q0.727916,12.7881,0.666645,12.7472Q0.605373,12.7063,0.54841,12.6595Q0.491447,12.6128,0.43934,12.5607Q0.387233,12.5086,0.340484,12.4516Q0.293736,12.3946,0.252796,12.3334Q0.211855,12.2721,0.177118,12.2071Q0.142381,12.1421,0.114181,12.074Q0.0859806,12.0059,0.0645895,11.9354Q0.0431983,11.8649,0.0288221,11.7926Q0.0144458,11.7204,0.00722291,11.647Q0,11.5737,0,11.5Q0,11.4263,0.00722291,11.353Q0.0144458,11.2796,0.0288221,11.2074Q0.0431983,11.1351,0.0645895,11.0646Q0.0859806,10.9941,0.114181,10.926Q0.142381,10.8579,0.177118,10.7929Q0.211855,10.7279,0.252796,10.6666Q0.293736,10.6054,0.340484,10.5484Q0.387233,10.4914,0.43934,10.4393Q0.491447,10.3872,0.54841,10.3405Q0.605373,10.2937,0.666645,10.2528Q0.727916,10.2119,0.792905,10.1771Q0.857894,10.1424,0.925975,10.1142Q0.994056,10.086,1.06457,10.0646Q1.13509,10.0432,1.20736,10.0288Q1.27964,10.0144,1.35297,10.0072Q1.42631,10,1.5,10Q1.57369,10,1.64703,10.0072Q1.72036,10.0144,1.79264,10.0288Q1.86491,10.0432,1.93543,10.0646Q2.00594,10.086,2.07402,10.1142Q2.14211,10.1424,2.2071,10.1771Q2.27208,10.2119,2.33336,10.2528Q2.39463,10.2937,2.45159,10.3405Q2.50855,10.3872,2.56066,10.4393Q2.61277,10.4914,2.65952,10.5484Q2.70626,10.6054,2.7472,10.6666Q2.78814,10.7279,2.82288,10.7929Q2.85762,10.8579,2.88582,10.926Q2.91402,10.9941,2.93541,11.0646Q2.9568,11.1351,2.97118,11.2074Q2.98555,11.2796,2.99278,11.353Q3,11.4263,3,11.5ZM3,6.5Q3,6.57369,2.99278,6.64703Q2.98555,6.72036,2.97118,6.79263Q2.9568,6.86491,2.93541,6.93543Q2.91402,7.00594,2.88582,7.07402Q2.85762,7.14211,2.82288,7.2071Q2.78814,7.27208,2.7472,7.33335Q2.70626,7.39463,2.65952,7.45159Q2.61277,7.50855,2.56066,7.56066Q2.50855,7.61277,2.45159,7.65952Q2.39463,7.70626,2.33335,7.7472Q2.27208,7.78814,2.2071,7.82288Q2.14211,7.85762,2.07402,7.88582Q2.00594,7.91402,1.93543,7.93541Q1.86491,7.9568,1.79264,7.97118Q1.72036,7.98555,1.64703,7.99278Q1.57369,8,1.5,8Q1.42631,8,1.35297,7.99278Q1.27964,7.98555,1.20736,7.97118Q1.13509,7.9568,1.06457,7.93541Q0.994056,7.91402,0.925975,7.88582Q0.857894,7.85762,0.792905,7.82288Q0.727916,7.78814,0.666645,7.7472Q0.605373,7.70626,0.54841,7.65952Q0.491447,7.61277,0.43934,7.56066Q0.387233,7.50855,0.340484,7.45159Q0.293736,7.39463,0.252796,7.33335Q0.211855,7.27208,0.177118,7.2071Q0.142381,7.14211,0.114181,7.07402Q0.0859806,7.00594,0.0645895,6.93543Q0.0431983,6.86491,0.0288221,6.79263Q0.0144458,6.72036,0.00722291,6.64703Q0,6.57369,0,6.5Q0,6.42631,0.00722291,6.35297Q0.0144458,6.27964,0.0288221,6.20736Q0.0431983,6.13509,0.0645895,6.06457Q0.0859806,5.99406,0.114181,5.92597Q0.142381,5.85789,0.177118,5.7929Q0.211855,5.72792,0.252796,5.66664Q0.293736,5.60537,0.340484,5.54841Q0.387233,5.49145,0.43934,5.43934Q0.491447,5.38723,0.54841,5.34048Q0.605373,5.29374,0.666645,5.2528Q0.727916,5.21185,0.792905,5.17712Q0.857894,5.14238,0.925975,5.11418Q0.994056,5.08598,1.06457,5.06459Q1.13509,5.0432,1.20736,5.02882Q1.27964,5.01445,1.35297,5.00722Q1.42631,5,1.5,5Q1.57369,5,1.64703,5.00722Q1.72036,5.01445,1.79264,5.02882Q1.86491,5.0432,1.93543,5.06459Q2.00594,5.08598,2.07402,5.11418Q2.14211,5.14238,2.2071,5.17712Q2.27208,5.21185,2.33336,5.2528Q2.39463,5.29374,2.45159,5.34048Q2.50855,5.38723,2.56066,5.43934Q2.61277,5.49145,2.65952,5.54841Q2.70626,5.60537,2.7472,5.66664Q2.78814,5.72792,2.82288,5.7929Q2.85762,5.85789,2.88582,5.92597Q2.91402,5.99406,2.93541,6.06457Q2.9568,6.13509,2.97118,6.20736Q2.98555,6.27964,2.99278,6.35297Q3,6.42631,3,6.5ZM3,1.5Q3,1.57369,2.99278,1.64703Q2.98555,1.72036,2.97118,1.79264Q2.9568,1.86491,2.93541,1.93543Q2.91402,2.00594,2.88582,2.07402Q2.85762,2.14211,2.82288,2.2071Q2.78814,2.27208,2.7472,2.33336Q2.70626,2.39463,2.65952,2.45159Q2.61277,2.50855,2.56066,2.56066Q2.50855,2.61277,2.45159,2.65952Q2.39463,2.70626,2.33335,2.7472Q2.27208,2.78814,2.2071,2.82288Q2.14211,2.85762,2.07402,2.88582Q2.00594,2.91402,1.93543,2.93541Q1.86491,2.9568,1.79264,2.97118Q1.72036,2.98555,1.64703,2.99278Q1.57369,3,1.5,3Q1.42631,3,1.35297,2.99278Q1.27964,2.98555,1.20736,2.97118Q1.13509,2.9568,1.06457,2.93541Q0.994056,2.91402,0.925975,2.88582Q0.857894,2.85762,0.792905,2.82288Q0.727916,2.78814,0.666645,2.7472Q0.605373,2.70626,0.54841,2.65952Q0.491447,2.61277,0.43934,2.56066Q0.387233,2.50855,0.340484,2.45159Q0.293736,2.39463,0.252796,2.33335Q0.211855,2.27208,0.177118,2.2071Q0.142381,2.14211,0.114181,2.07402Q0.0859806,2.00594,0.0645895,1.93543Q0.0431983,1.86491,0.0288221,1.79264Q0.0144458,1.72036,0.00722291,1.64703Q0,1.57369,0,1.5Q0,1.42631,0.00722291,1.35297Q0.0144458,1.27964,0.0288221,1.20736Q0.0431983,1.13509,0.0645895,1.06457Q0.0859806,0.994056,0.114181,0.925975Q0.142381,0.857894,0.177118,0.792905Q0.211855,0.727916,0.252796,0.666645Q0.293736,0.605373,0.340484,0.54841Q0.387233,0.491447,0.43934,0.43934Q0.491447,0.387233,0.54841,0.340484Q0.605373,0.293736,0.666645,0.252796Q0.727916,0.211855,0.792905,0.177118Q0.857894,0.142381,0.925975,0.114181Q0.994056,0.0859806,1.06457,0.0645895Q1.13509,0.0431983,1.20736,0.0288221Q1.27964,0.0144458,1.35297,0.00722291Q1.42631,0,1.5,0Q1.57369,0,1.64703,0.00722291Q1.72036,0.0144458,1.79264,0.0288221Q1.86491,0.0431983,1.93543,0.0645895Q2.00594,0.0859806,2.07402,0.114181Q2.14211,0.142381,2.2071,0.177118Q2.27208,0.211855,2.33336,0.252796Q2.39463,0.293736,2.45159,0.340484Q2.50855,0.387233,2.56066,0.43934Q2.61277,0.491447,2.65952,0.54841Q2.70626,0.605373,2.7472,0.666645Q2.78814,0.727916,2.82288,0.792905Q2.85762,0.857894,2.88582,0.925975Q2.91402,0.994056,2.93541,1.06457Q2.9568,1.13509,2.97118,1.20736Q2.98555,1.27964,2.99278,1.35297Q3,1.42631,3,1.5Z" fill="#DCDCDC" fill-opacity="1"/></g></svg>