<svg xmlns="http://www.w3.org/2000/svg" xmlns:xlink="http://www.w3.org/1999/xlink" fill="none" version="1.1" viewBox="0 0 8.948141098022461 16"><g transform="matrix(0,1,1,0,0,0)"><path d="M14.2474,8.60665L8,2.46674L1.75282,8.60637L1.75282,8.60637C1.56269,8.82366,1.28836,8.94814,1,8.94814C0.447715,8.94814,0,8.50043,0,7.94814C0,7.70592,0.0879183,7.47193,0.247423,7.28964L0.247423,7.28964L7.17212,0.375641Q7.50081,-0.00000321865,8,0Q8.49915,-5.36442e-7,8.82788,0.375641L15.7526,7.28964C15.9121,7.47193,16,7.70592,16,7.94814C16,8.50043,15.5523,8.94814,15,8.94814C14.7116,8.94814,14.4373,8.82366,14.2474,8.60665Z" fill-rule="evenodd"/></g></svg>