<svg xmlns="http://www.w3.org/2000/svg" xmlns:xlink="http://www.w3.org/1999/xlink" fill="none" version="1.1" viewBox="0 0 8.948141098022461 16"><g transform="matrix(0,1,-1,0,8.948141098022461,-8.948141098022461)"><path d="M23.19554109802246,8.60665L16.94814109802246,2.46674L10.70096109802246,8.60637L10.70096109802246,8.60637C10.51083109802246,8.82366,10.236501098022462,8.94814,9.948141098022461,8.94814C9.395856098022461,8.94814,8.948141098022461,8.50043,8.948141098022461,7.94814C8.948141098022461,7.70592,9.036059398022461,7.47193,9.19556409802246,7.28964L9.19556409802246,7.28964L16.12026109802246,0.375641Q16.448951098022462,-0.00000321865,16.94814109802246,0Q17.44729109802246,-5.36442e-7,17.77602109802246,0.375641L24.700741098022462,7.28964C24.860241098022463,7.47193,24.94814109802246,7.70592,24.94814109802246,7.94814C24.94814109802246,8.50043,24.500441098022463,8.94814,23.94814109802246,8.94814C23.65974109802246,8.94814,23.38544109802246,8.82366,23.19554109802246,8.60665Z" fill-rule="evenodd" /></g></svg>