<svg xmlns="http://www.w3.org/2000/svg" xmlns:xlink="http://www.w3.org/1999/xlink" fill="none" version="1.1" viewBox="0 0 10.66668701171875 10.666664123535156"><g><path d="M4.66669,6.00001L4.66669,10Q4.66669,10.0657,4.6795,10.1301Q4.69231,10.1945,4.71743,10.2551Q4.74256,10.3158,4.77904,10.3704Q4.81552,10.425,4.86195,10.4714Q4.90838,10.5178,4.96297,10.5543Q5.01757,10.5908,5.07823,10.6159Q5.13889,10.641,5.20329,10.6539Q5.26769,10.6667,5.33335,10.6667Q5.39901,10.6667,5.46341,10.6539Q5.52781,10.641,5.58848,10.6159Q5.64914,10.5908,5.70373,10.5543Q5.75833,10.5178,5.80476,10.4714Q5.85119,10.425,5.88767,10.3704Q5.92415,10.3158,5.94927,10.2551Q5.9744,10.1945,5.98721,10.1301Q6.00002,10.0657,6.00002,10L6.00002,6.00001L10,6.00001Q10.0657,6,10.1301,5.98719Q10.1945,5.97438,10.2551,5.94926Q10.3158,5.92413,10.3704,5.88765Q10.425,5.85117,10.4714,5.80474Q10.5178,5.75831,10.5543,5.70372Q10.5908,5.64912,10.6159,5.58846Q10.641,5.5278,10.6539,5.4634Q10.6667,5.399,10.6667,5.33334Q10.6667,5.26768,10.6539,5.20328Q10.641,5.13888,10.6159,5.07822Q10.5908,5.01755,10.5543,4.96296Q10.5178,4.90836,10.4714,4.86193Q10.425,4.8155,10.3704,4.77902Q10.3158,4.74255,10.2551,4.71742Q10.1945,4.69229,10.1301,4.67948Q10.0657,4.66667,10,4.66667L6.00002,4.66667L6.00002,0.666667Q6.00002,0.601006,5.98721,0.536606Q5.9744,0.472207,5.94927,0.411544Q5.92415,0.350882,5.88767,0.296287Q5.85119,0.241691,5.80476,0.195262Q5.75833,0.148833,5.70373,0.112354Q5.64914,0.0758743,5.58847,0.050747Q5.52781,0.0256196,5.46341,0.0128098Q5.39901,0,5.33335,0Q5.26769,0,5.20329,0.0128098Q5.13889,0.0256196,5.07823,0.050747Q5.01757,0.0758743,4.96297,0.112354Q4.90838,0.148833,4.86195,0.195262Q4.81552,0.241691,4.77904,0.296286Q4.74256,0.350882,4.71743,0.411544Q4.69231,0.472207,4.6795,0.536606Q4.66669,0.601006,4.66669,0.666667L4.66669,4.66667L0.666667,4.66667Q0.601006,4.66667,0.536606,4.67948Q0.472207,4.69229,0.411544,4.71742Q0.350882,4.74255,0.296287,4.77902Q0.241691,4.8155,0.195262,4.86193Q0.148833,4.90836,0.112354,4.96296Q0.0758743,5.01755,0.050747,5.07822Q0.0256196,5.13888,0.0128098,5.20328Q0,5.26768,0,5.33334Q0,5.399,0.0128098,5.4634Q0.0256196,5.5278,0.050747,5.58846Q0.0758743,5.64912,0.112354,5.70372Q0.148833,5.75831,0.195262,5.80474Q0.241691,5.85117,0.296286,5.88765Q0.350882,5.92413,0.411544,5.94926Q0.472207,5.97438,0.536606,5.9872Q0.601006,6,0.666667,6.00001L4.66669,6.00001Z" fill-rule="evenodd" /></g></svg>